<svg width="20" height="20" viewBox="0 0 20 20" fill="none" xmlns="http://www.w3.org/2000/svg">
<path d="M11.3212 11.2499C11.1864 11.8048 11.0517 12.2241 10.825 12.774C10.8193 12.788 10.8061 12.7971 10.7914 12.7987C10.2213 12.8431 9.77694 12.8431 9.20608 12.7987C9.19129 12.7971 9.17897 12.788 9.17241 12.774C8.9457 12.2241 8.81181 11.8048 8.6771 11.2499C8.673 11.2359 8.67875 11.2195 8.69025 11.2104C9.1223 10.8421 9.47468 10.5823 9.97818 10.2733C9.99051 10.265 10.0069 10.265 10.0201 10.2733C10.5228 10.5823 10.8751 10.8421 11.308 11.2104C11.3195 11.2195 11.3245 11.2359 11.3212 11.2499Z" fill="black"/>
<path d="M19.9113 12.4156C19.83 12.0769 19.6969 11.5204 19.5121 10.8019H19.2903C18.9141 9.34679 18.5338 8.04296 18.1149 6.76871H18.6127C18.4106 6.1694 18.188 5.42623 17.5317 4.55318C17.8028 3.94977 18.0418 3.39979 18.0821 2.73553H17.8168C17.9129 1.31497 16.8779 0.54631 15.9399 0.54631C15.5284 0.54631 15.2507 0.74032 14.9854 0.901457C14.7957 1.0223 13.516 1.92002 13.2433 2.11322C12.628 1.89125 11.9709 1.76054 11.2769 1.74574C10.8489 1.73669 10.4242 1.73259 9.99959 1.73259C9.57494 1.73259 9.14945 1.73669 8.72234 1.74574C8.02908 1.76054 7.37361 1.89042 6.75839 2.11239C6.18261 1.70463 5.62242 1.31415 5.05895 0.927765C5.02609 0.905574 4.99159 0.884194 4.95709 0.865278C4.51682 0.587417 4.1932 0.464112 3.6363 0.603043C2.67035 0.843914 1.62472 1.89618 2.50852 4.02539C2.58246 4.20296 2.65968 4.3789 2.73771 4.55318C2.35575 5.0604 1.97791 5.73123 1.6436 6.76871H2.18244C1.96641 7.4272 1.76024 8.09392 1.559 8.7853H1.03825C0.485445 10.7369 0.143751 12.1838 0 12.7807C3.15251 15.4689 5.4261 17.2224 9.02544 19.4519C9.05417 19.4355 9.96263 18.8904 9.99959 18.8691C9.99959 18.8691 10.8489 19.3829 10.9697 19.4544C13.1841 18.0823 14.9994 16.8286 16.9001 15.339H16.0779C16.2931 15.1746 16.5091 15.0069 16.726 14.8351H17.5358C17.8652 14.5712 18.1979 14.2991 18.5371 14.0171C19.0226 13.6143 19.347 13.338 20 12.7807C19.9713 12.659 19.9409 12.5373 19.9113 12.4156ZM11.9274 6.91258L13.1619 6.5114C13.1751 6.50728 13.1899 6.50975 13.2006 6.51962C13.2112 6.52949 13.2153 6.54346 13.2129 6.55744L12.9582 7.75769C12.9549 7.77166 12.9451 7.78234 12.932 7.78729C12.9188 7.79139 12.904 7.78892 12.8933 7.77988C12.4966 7.44365 12.1927 7.19456 11.9159 6.98163C11.9044 6.97342 11.8987 6.95862 11.9011 6.94382C11.9028 6.92985 11.9134 6.91751 11.9274 6.91258ZM6.79864 6.51962C6.80933 6.50975 6.82411 6.50728 6.83725 6.5114L8.0718 6.91258C8.08576 6.91751 8.09562 6.92985 8.09891 6.94382C8.10055 6.95862 8.0948 6.97342 8.0833 6.98163C7.80649 7.19456 7.50258 7.44365 7.10583 7.77988C7.09518 7.78892 7.08039 7.79139 7.06724 7.78729C7.05411 7.78234 7.04424 7.77166 7.04096 7.75769L6.78633 6.55744C6.78304 6.54346 6.78796 6.52949 6.79864 6.51962ZM9.03119 18.8025C8.03648 18.1818 7.04505 17.5332 6.07172 16.8517H6.8693C6.62533 16.6848 6.38384 16.5171 6.14482 16.3477H5.36122C3.63547 15.1022 2.19804 13.9266 0.618523 12.5801C0.86165 11.5705 1.12203 10.5479 1.45797 9.34021H1.9237C2.22515 8.27559 2.54385 7.25291 2.90034 6.21462H2.44199C2.63174 5.73206 2.87981 5.28567 3.1796 4.88695L3.37675 4.62552L3.24285 4.32628C3.15826 4.13637 3.08515 3.96867 3.02025 3.81248C2.68596 3.00683 2.63914 2.3212 2.88556 1.83205C2.99068 1.62243 3.14264 1.45554 3.34881 1.32319C2.79766 2.26778 3.25928 3.19344 3.97471 4.58359C3.98949 4.61155 4.00428 4.64032 4.01906 4.66992L4.01497 4.67568C3.08515 6.05431 1.91055 10.672 1.51793 12.2874C4.35009 14.6937 6.63683 16.3748 9.80411 18.3347C9.62915 18.4481 9.81314 18.3339 9.03119 18.8025ZM7.91491 12.2603C7.91245 11.61 7.90999 10.7057 7.90751 9.75619C7.9067 9.51285 7.97077 9.27362 8.09234 9.06316C8.82664 7.78975 9.25132 7.05398 9.33839 6.90354C9.47474 6.66677 9.7269 6.52208 9.99878 6.52208C10.2715 6.52208 10.5228 6.66677 10.6592 6.90354L11.8141 8.90533L11.906 9.06645C12.0276 9.27608 12.0908 9.51449 12.0908 9.75783C12.0892 10.7156 12.0876 11.6116 12.0859 12.2529C12.0843 14.3393 7.92232 14.3492 7.91491 12.2603ZM17.3404 14.281H16.6151C15.907 14.8433 15.2088 15.3744 14.4918 15.8939H15.2581C13.9201 16.8862 12.5451 17.8176 10.9647 18.8041C10.7955 18.7022 10.3602 18.4416 10.1943 18.3347C13.3032 16.4127 15.6015 14.7339 18.4813 12.2874C18.1075 10.7509 16.9412 6.20558 16.1001 4.85406C16.7514 3.55681 17.2853 2.39354 16.6512 1.31825C16.6537 1.3199 16.6553 1.32073 16.6578 1.32154C17.42 1.82466 17.4134 2.74294 17.2245 3.29044H17.4291C17.3182 3.69491 17.1391 4.07473 16.8927 4.62552C17.1802 5.00779 17.5194 5.42706 17.8299 6.21462H17.3494C17.866 7.78563 18.1831 8.73433 18.8616 11.3568H19.0817C19.1819 11.7572 19.2772 12.1452 19.3807 12.5801C18.9051 12.9862 18.2201 13.5707 17.3404 14.281Z" fill="black"/>
<path d="M19.3807 12.5801C18.9052 12.9862 18.2201 13.5707 17.3404 14.281H16.6151C15.9071 14.8433 15.2089 15.3743 14.4918 15.8939H15.2582C13.9201 16.8862 12.5451 17.8176 10.9648 18.8041C10.7956 18.7022 10.3603 18.4416 10.1943 18.3347C13.3033 16.4126 15.6015 14.7339 18.4813 12.2874C18.1076 10.7509 16.9412 6.20557 16.1001 4.85405C16.7515 3.5568 17.2854 2.39353 16.6513 1.31824C16.6537 1.31989 16.6554 1.32072 16.6578 1.32153C17.4201 1.82465 17.4135 2.74293 17.2246 3.29043H17.4291C17.3182 3.6949 17.1392 4.07472 16.8928 4.62551C17.1802 5.00778 17.5195 5.42705 17.83 6.21461H17.3494C17.8661 7.78562 18.1832 8.73432 18.8616 11.3568H19.0818C19.182 11.7571 19.2773 12.1452 19.3807 12.5801Z" fill="white"/>
<path d="M13.2127 6.55746L12.9581 7.75772C12.9548 7.77169 12.9449 7.78237 12.9318 7.78732C12.9186 7.79142 12.9039 7.78895 12.8932 7.77991C12.4964 7.44368 12.1925 7.19459 11.9157 6.98166C11.9042 6.97344 11.8985 6.95864 11.901 6.94385C11.9026 6.92987 11.9133 6.91754 11.9272 6.91261L13.1618 6.51143C13.1749 6.50731 13.1897 6.50978 13.2004 6.51965C13.2111 6.52952 13.2152 6.54349 13.2127 6.55746Z" fill="white"/>
<path d="M11.9058 9.06646L11.8138 8.90534L10.6589 6.90355C10.5226 6.66678 10.2712 6.52209 9.9985 6.52209C9.72662 6.52209 9.47446 6.66678 9.33811 6.90355C9.25104 7.05399 8.82636 7.78976 8.09206 9.06317C7.97049 9.27363 7.90642 9.51287 7.90723 9.7562C7.90971 10.7057 7.91217 11.61 7.91463 12.2603C7.92204 14.3492 12.084 14.3393 12.0856 12.2529C12.0873 11.6117 12.0889 10.7156 12.0906 9.75784C12.0906 9.5145 12.0273 9.2761 11.9058 9.06646ZM10.8248 12.7741C10.8191 12.7881 10.8059 12.7971 10.7911 12.7988C10.2211 12.8431 9.77672 12.8431 9.20586 12.7988C9.19107 12.7971 9.17874 12.7881 9.17218 12.7741C8.94548 12.2241 8.81159 11.8049 8.67688 11.2499C8.67278 11.236 8.67853 11.2195 8.69003 11.2105C9.12208 10.8422 9.47446 10.5824 9.97796 10.2733C9.99028 10.2651 10.0067 10.2651 10.0198 10.2733C10.5226 10.5824 10.8749 10.8422 11.3078 11.2105C11.3193 11.2195 11.3242 11.236 11.3209 11.2499C11.1862 11.8049 11.0515 12.2241 10.8248 12.7741Z" fill="white"/>
<path d="M8.09875 6.94385C8.10038 6.95864 8.09463 6.97344 8.08313 6.98166C7.80632 7.19459 7.50241 7.44368 7.10567 7.77991C7.09501 7.78895 7.08023 7.79142 7.06708 7.78731C7.05394 7.78237 7.04408 7.77169 7.04079 7.75772L6.78616 6.55746C6.78288 6.54349 6.7878 6.52952 6.79847 6.51965C6.80916 6.50978 6.82395 6.50731 6.83708 6.51143L8.07163 6.91261C8.0856 6.91754 8.09546 6.92987 8.09875 6.94385Z" fill="white"/>
<path d="M9.80375 18.3347C9.62879 18.4482 9.81278 18.3339 9.03083 18.8025C8.03612 18.1818 7.04469 17.5332 6.07136 16.8517H6.86894C6.62497 16.6848 6.38348 16.5171 6.14446 16.3478H5.36086C3.63511 15.1023 2.19768 13.9267 0.618164 12.5801C0.861291 11.5706 1.12167 10.5479 1.45761 9.34026H1.92335C2.22479 8.27564 2.54349 7.25296 2.89998 6.21467H2.44163C2.63138 5.7321 2.87945 5.28572 3.17924 4.887L3.37639 4.62557L3.24249 4.32633C3.1579 4.13642 3.08479 3.96872 3.0199 3.81253C2.6856 3.00688 2.63878 2.32125 2.8852 1.8321C2.99032 1.62248 3.14228 1.45559 3.34845 1.32324C2.7973 2.26783 3.25892 3.19349 3.97435 4.58364C3.98913 4.6116 4.00392 4.64037 4.01871 4.66997L4.01461 4.67572C3.08479 6.05436 1.91019 10.6721 1.51757 12.2875C4.34973 14.6937 6.63647 16.3749 9.80375 18.3347Z" fill="white"/>
</svg>
