<svg width="20" height="20" viewBox="0 0 20 20" fill="none" xmlns="http://www.w3.org/2000/svg">
<path d="M15.7265 1.87466C18.029 3.54757 20.1489 10.0034 19.2444 12.7019C18.34 15.4005 12.8708 19.1604 10.0342 19.3935C7.19768 19.6266 1.91899 15.329 0.823999 12.7019C-0.270988 10.0749 2.20113 3.75007 4.34198 1.87466C6.48286 -0.000731051 13.4239 0.201761 15.7265 1.87466Z" fill="url(#paint0_linear)"/>
<path d="M14.4263 17.6643L13.5902 14.5769H6.20254L5.36651 17.6643C5.35401 17.6885 5.34668 17.7129 5.34668 17.7376C5.34668 18.1788 7.38366 19.1732 9.89638 19.1732C12.4091 19.1732 14.4461 18.1788 14.4461 17.7376C14.4461 17.7129 14.4387 17.6885 14.4263 17.6643Z" fill="url(#paint1_linear)"/>
<path d="M14.4263 17.6643L13.5902 14.5769H6.20254L5.36651 17.6643C5.35401 17.6885 5.34668 17.7129 5.34668 17.7376C5.34668 18.1788 7.38366 19.1732 9.89638 19.1732C12.4091 19.1732 14.4461 18.1788 14.4461 17.7376C14.4461 17.7129 14.4387 17.6885 14.4263 17.6643Z" fill="url(#paint2_linear)"/>
<path opacity="0.58" d="M14.4263 17.6643L13.5902 14.5769H6.20254L5.36651 17.6643C5.35401 17.6885 5.34668 17.7129 5.34668 17.7376C5.34668 18.1788 7.38366 19.1732 9.89638 19.1732C12.4091 19.1732 14.4461 18.1788 14.4461 17.7376C14.4461 17.7129 14.4387 17.6885 14.4263 17.6643Z" fill="url(#paint3_linear)"/>
<path d="M14.4263 17.6643L13.5902 14.5769H6.20254L5.36651 17.6643C5.35401 17.6885 5.34668 17.7129 5.34668 17.7376C5.34668 18.1788 7.38366 19.1732 9.89638 19.1732C12.4091 19.1732 14.4461 18.1788 14.4461 17.7376C14.4461 17.7129 14.4387 17.6885 14.4263 17.6643Z" fill="url(#paint4_linear)"/>
<path d="M14.4263 17.6643L13.5902 14.5769H6.20254L5.36651 17.6643C5.35401 17.6885 5.34668 17.7129 5.34668 17.7376C5.34668 18.1788 7.38366 19.1732 9.89638 19.1732C12.4091 19.1732 14.4461 18.1788 14.4461 17.7376C14.4461 17.7129 14.4387 17.6885 14.4263 17.6643Z" fill="url(#paint5_linear)"/>
<path d="M15.8015 2.49718L15.7884 2.50005C14.3048 3.14461 12.415 3.56371 9.90805 3.56371H9.90049C7.39353 3.56371 5.50379 3.14461 4.02011 2.50005L4.00702 2.49718C3.96537 2.47744 2.79999 3.34309 2.59082 3.42986C3.46253 5.8627 5.15162 7.32567 6.50881 8.50116C7.21036 9.10881 7.81647 9.63414 8.15673 10.1643L8.15688 10.1642C8.16705 10.1843 8.18872 10.2138 8.21938 10.2426C8.35292 10.4512 8.51677 10.7326 8.6294 10.9822C7.66126 11.9657 6.7111 12.9207 6.35976 13.2734H6.36203L6.39615 13.3429L6.53941 13.4254L8.11102 13.7206L12.3569 13.6164L13.3858 13.3819L13.4265 13.2734H13.4417C11.9691 12.8856 11.1927 10.9733 12.2246 9.69247C12.5377 9.30391 12.9507 8.90623 13.4195 8.4828C14.7179 7.30978 16.334 5.84994 17.2011 3.42989C17.296 3.16486 15.8432 2.47744 15.8015 2.49718Z" fill="url(#paint6_linear)"/>
<path d="M15.8015 2.49718L15.7884 2.50005C14.3048 3.14461 12.415 3.56371 9.90805 3.56371H9.90049C7.39353 3.56371 5.50379 3.14461 4.02011 2.50005L4.00702 2.49718C3.96537 2.47744 2.79999 3.34309 2.59082 3.42986C3.46253 5.8627 5.15162 7.32567 6.50881 8.50116C7.21036 9.10881 7.81647 9.63414 8.15673 10.1643L8.15688 10.1642C8.16705 10.1843 8.18872 10.2138 8.21938 10.2426C8.35292 10.4512 8.51677 10.7326 8.6294 10.9822C7.66126 11.9657 6.7111 12.9207 6.35976 13.2734H6.36203L6.39615 13.3429L6.53941 13.4254L8.11102 13.7206L12.3569 13.6164L13.3858 13.3819L13.4265 13.2734H13.4417C11.9691 12.8856 11.1927 10.9733 12.2246 9.69247C12.5377 9.30391 12.9507 8.90623 13.4195 8.4828C14.7179 7.30978 16.334 5.84994 17.2011 3.42989C17.296 3.16486 15.8432 2.47744 15.8015 2.49718Z" fill="url(#paint7_linear)"/>
<path d="M13.5903 14.5769C13.5903 14.7687 11.9364 14.9242 9.89623 14.9242C7.85605 14.9242 6.20215 14.7687 6.20215 14.5769C6.20215 14.3851 7.85605 14.2296 9.89623 14.2296C11.9364 14.2296 13.5903 14.3851 13.5903 14.5769Z" fill="url(#paint8_linear)"/>
<path d="M13.4271 13.2744C13.4272 13.2749 13.4274 13.2753 13.4277 13.2756C13.4277 13.4297 11.8464 13.5541 9.89594 13.5541C7.94543 13.5541 6.36424 13.4297 6.36424 13.2762C6.36449 13.2756 6.36468 13.275 6.36481 13.2744H6.3623C6.3623 13.2744 6.55472 14.0813 7.19157 14.3738C7.22825 14.3984 7.2973 14.4219 7.39325 14.444C7.40729 14.4475 7.42155 14.4505 7.43593 14.4534C7.88051 14.546 8.81709 14.6098 9.90083 14.6098C11.3065 14.6098 12.4642 14.5025 12.6221 14.3642C13.2424 14.0639 13.4305 13.2744 13.4305 13.2744H13.4271Z" fill="url(#paint9_linear)"/>
<path d="M8.29332 11.1438L8.63224 10.9916L11.3148 8.31866L13.7691 5.82934L8.06177 5.06519L5.29492 7.40399L8.29332 11.1438Z" fill="url(#paint10_linear)"/>
<path d="M9.81016 19.951C6.57302 19.9515 1.39011 15.4876 0.316692 12.9123C-0.931641 9.9173 1.76454 3.40084 3.97989 1.46048C6.3502 -0.615844 13.609 -0.343646 16.0493 1.42928C18.5468 3.2438 20.7347 9.98319 19.7652 12.8754C18.7635 15.8644 13.0506 19.696 10.079 19.9402C9.99135 19.9474 9.90117 19.951 9.81016 19.951ZM9.72413 1.0813C7.65988 1.0813 5.6536 1.45508 4.70397 2.28708C2.63152 4.10231 0.375678 10.1977 1.33087 12.4895C2.38762 15.0247 7.47841 19.0461 9.98911 18.8453C12.5745 18.6327 17.8714 15.0683 18.7233 12.5264C19.5482 10.0655 17.5314 3.86438 15.4033 2.3183C14.3195 1.53083 11.9869 1.0813 9.72413 1.0813Z" fill="url(#paint11_linear)"/>
<path d="M9.98762 8.55026C8.8615 8.55026 7.94531 7.63411 7.94531 6.50798C7.94531 5.38182 8.8615 4.46564 9.98762 4.46564C11.1138 4.46564 12.0299 5.38182 12.0299 6.50798C12.0299 7.63411 11.1138 8.55026 9.98762 8.55026ZM9.98762 4.66865C8.97342 4.66865 8.14832 5.49377 8.14832 6.50798C8.14832 7.52216 8.97342 8.34725 9.98762 8.34725C11.0018 8.34725 11.8269 7.52216 11.8269 6.50798C11.8269 5.49377 11.0018 4.66865 9.98762 4.66865Z" fill="#EACD4B"/>
<path d="M9.98733 4.51996C8.87358 4.51996 7.9707 5.41046 7.9707 6.50895C7.9707 7.60744 8.87358 8.49795 9.98733 8.49795C11.1011 8.49795 12.004 7.60744 12.004 6.50895C12.004 5.41046 11.1011 4.51996 9.98733 4.51996Z" fill="url(#paint12_linear)"/>
<path d="M11.0542 5.79151C11.0328 5.71472 11.0436 5.58915 11.0644 5.45944C11.3069 5.6323 11.3184 5.86962 11.2793 6.02764C11.2274 5.94075 11.163 5.84063 11.0542 5.79151ZM11.1876 6.24828C11.2017 6.21182 11.2106 6.1597 11.2311 6.12211C11.1995 5.92184 11.0089 5.80621 10.8168 5.80621C10.8515 6.06812 11.0114 6.23591 11.1876 6.24828ZM10.9665 5.66845C11.0159 5.45066 10.924 5.27579 10.6892 5.1919C10.6883 5.45552 10.753 5.65803 10.9665 5.66845ZM10.9838 5.7727C10.9809 5.75756 10.9795 5.75626 10.9752 5.74422C10.7546 5.6846 10.7206 5.59169 10.6811 5.48819C10.6579 5.50113 10.5862 5.54564 10.5529 5.55005C10.6251 5.72145 10.8091 5.75395 10.9838 5.7727ZM10.5966 5.26341C10.6189 5.28147 10.6404 5.29948 10.6567 5.32263C10.6574 5.32255 10.658 5.32252 10.6587 5.32243C10.6107 5.13746 10.4587 5.0445 10.2108 5.0571C10.2434 5.12843 10.2803 5.1836 10.3215 5.22495C10.4215 5.1919 10.5308 5.21011 10.5966 5.26341ZM10.6521 5.44417C10.6683 5.27849 10.3884 5.19321 10.2484 5.31201C10.3521 5.46875 10.4941 5.50072 10.6521 5.44417ZM11.3447 6.7015C11.5205 6.56079 11.5409 6.26426 11.4183 5.94075C11.2901 6.10714 11.233 6.21874 11.2188 6.34539C11.303 6.44866 11.3427 6.58602 11.3447 6.7015ZM10.759 7.32773C10.8026 7.3005 10.849 7.28087 10.8992 7.27227C10.9058 7.16458 10.9596 7.0343 11.0541 6.92148C11.0541 6.87716 11.0295 6.79466 10.9866 6.74425C10.6951 6.92009 10.7457 7.15393 10.759 7.32773ZM10.9698 7.26767C11.0184 7.26964 11.0705 7.28208 11.1267 7.30739C11.3068 7.25233 11.4483 7.0665 11.4937 6.74425C11.1988 6.73994 10.9864 7.0793 10.9698 7.26767ZM10.672 7.49549C10.7457 7.53106 10.8232 7.6047 10.8597 7.66055C10.9912 7.67146 11.1354 7.58383 11.2231 7.42832C10.974 7.26174 10.8248 7.33772 10.672 7.49549V7.49549ZM10.6261 7.47401C10.6529 7.4503 10.697 7.39502 10.7089 7.37191C10.6967 7.27811 10.6962 7.19251 10.7078 7.11452C10.5001 7.19268 10.3932 7.27667 10.3554 7.45874C10.4481 7.42831 10.5514 7.43462 10.6261 7.474V7.47401ZM11.1308 6.8407C11.1641 6.78777 11.2244 6.73826 11.2797 6.71593C11.2995 6.55651 11.2323 6.38598 10.9867 6.21089C10.901 6.48382 11.01 6.73182 11.1308 6.8407ZM10.3477 7.5387V7.53869L10.3476 7.53874C10.3448 7.5397 10.342 7.54071 10.3393 7.54171C10.336 7.5429 10.3327 7.5441 10.3293 7.54545C10.2917 7.56009 10.2542 7.58033 10.2172 7.606C10.1644 7.63942 10.1068 7.68012 10.045 7.72088C10.0606 7.73076 10.077 7.74051 10.0941 7.75011C10.1236 7.72585 10.1589 7.69866 10.2031 7.66744C10.3389 7.82604 10.5829 7.84994 10.8232 7.73228C10.685 7.53791 10.5156 7.48171 10.3477 7.5387ZM9.87949 7.81998C9.77605 7.87382 9.66501 7.91323 9.54949 7.91211C9.60551 7.9555 9.67201 8.02502 9.68831 8.03756C9.82474 7.97113 9.89226 7.92546 9.94701 7.87982C9.92967 7.86468 9.91266 7.84954 9.89603 7.83471C9.8905 7.82978 9.88499 7.82487 9.87949 7.81998ZM8.92043 5.79151C8.94184 5.71472 8.93106 5.58915 8.91025 5.45944C8.66774 5.6323 8.65627 5.86962 8.69536 6.02764C8.74731 5.94075 8.8117 5.84063 8.92043 5.79151ZM9.1579 5.80621C8.96576 5.80621 8.77522 5.92184 8.74353 6.12211C8.76407 6.1597 8.77301 6.21182 8.78706 6.24828C8.96325 6.23591 9.12313 6.06812 9.1579 5.80621ZM9.28544 5.1919C9.05064 5.27579 8.95878 5.45066 9.00815 5.66845C9.22172 5.65803 9.28639 5.45552 9.28544 5.1919ZM9.42178 5.55005C9.38851 5.54564 9.31682 5.50113 9.29355 5.48819C9.25404 5.59169 9.22004 5.6846 8.99949 5.74422C8.99521 5.75626 8.99379 5.75756 8.99085 5.7727C9.16562 5.75395 9.34953 5.72145 9.42178 5.55005V5.55005ZM9.37808 5.26341C9.4439 5.21011 9.5532 5.1919 9.65316 5.22495C9.69442 5.1836 9.73129 5.12843 9.76388 5.0571C9.51602 5.0445 9.36393 5.13746 9.316 5.32243C9.31665 5.32252 9.31729 5.32255 9.31794 5.32263C9.33426 5.29948 9.35578 5.28147 9.37808 5.26341ZM9.72631 5.31201C9.58629 5.19321 9.30636 5.27849 9.32262 5.44417C9.48063 5.50072 9.62257 5.46875 9.72631 5.31201ZM8.75586 6.34539C8.74165 6.21874 8.68456 6.10714 8.55635 5.94075C8.43381 6.26426 8.45421 6.56079 8.63002 6.7015C8.63198 6.58602 8.67163 6.44866 8.75586 6.34539ZM9.21568 7.32773C9.22898 7.15393 9.27952 6.92009 8.98809 6.74425C8.94521 6.79466 8.92056 6.87716 8.92056 6.92148C9.01506 7.0343 9.06891 7.16458 9.07546 7.27227C9.12566 7.28087 9.17209 7.3005 9.21568 7.32773ZM9.00488 7.26767C8.98826 7.0793 8.77585 6.73994 8.48099 6.74425C8.52633 7.0665 8.66792 7.25233 8.84802 7.30739C8.90415 7.28208 8.95624 7.26964 9.00488 7.26767ZM9.30271 7.49549C9.14984 7.33772 9.00063 7.26174 8.75162 7.42832C8.8393 7.58383 8.98349 7.67146 9.11501 7.66055C9.15151 7.6047 9.22898 7.53106 9.30271 7.49549ZM9.34859 7.47401C9.42325 7.43462 9.52653 7.42832 9.61927 7.45874C9.58145 7.27667 9.47453 7.19268 9.26689 7.11452C9.27849 7.19251 9.27794 7.27811 9.2658 7.37191C9.27763 7.39502 9.32172 7.4503 9.34859 7.474V7.47401ZM8.69496 6.71593C8.75024 6.73826 8.81061 6.78777 8.84385 6.8407C8.96464 6.73182 9.07366 6.48382 8.98796 6.21089C8.74234 6.38598 8.67518 6.55651 8.69496 6.71593ZM9.64614 7.54574C9.64329 7.5446 9.64053 7.54363 9.63773 7.54259C9.63422 7.54129 9.6307 7.53997 9.62719 7.53877L9.62696 7.53869V7.5387C9.45906 7.48171 9.28966 7.53791 9.15152 7.73228C9.3918 7.84994 9.63576 7.82604 9.7716 7.66743C10.0209 7.84349 9.97899 7.88787 10.2864 8.03756C10.3027 8.02502 10.3692 7.9555 10.4252 7.91211C10.1693 7.91458 9.93518 7.71863 9.7576 7.60607C9.72082 7.58054 9.68355 7.56037 9.64614 7.54574Z" fill="url(#paint13_linear)"/>
<path d="M9.98684 4.46564C8.84316 4.46564 7.91602 5.38001 7.91602 6.50795C7.91602 7.63589 8.84316 8.55026 9.98684 8.55026C11.1305 8.55026 12.0577 7.63589 12.0577 6.50795C12.0577 5.38001 11.1305 4.46564 9.98684 4.46564ZM9.98684 8.30967C8.97789 8.30967 8.15997 7.50301 8.15997 6.50795C8.15997 5.51289 8.97789 4.70623 9.98684 4.70623C10.9958 4.70623 11.8137 5.51289 11.8137 6.50795C11.8137 7.50301 10.9958 8.30967 9.98684 8.30967Z" fill="url(#paint14_linear)"/>
<defs>
<linearGradient id="paint0_linear" x1="0.555664" y1="9.97281" x2="19.458" y2="9.97281" gradientUnits="userSpaceOnUse">
<stop stop-color="#5C141C"/>
<stop offset="1" stop-color="#A2182B"/>
</linearGradient>
<linearGradient id="paint1_linear" x1="5.34668" y1="16.875" x2="14.4461" y2="16.875" gradientUnits="userSpaceOnUse">
<stop stop-color="#CB8F28"/>
<stop offset="0.50953" stop-color="#EBCB57"/>
<stop offset="1" stop-color="#D1AB2A"/>
</linearGradient>
<linearGradient id="paint2_linear" x1="6.40991" y1="16.469" x2="9.92928" y2="16.7468" gradientUnits="userSpaceOnUse">
<stop stop-color="#F7E88F"/>
<stop offset="0.40306" stop-color="#F7E88F"/>
<stop offset="1" stop-color="#F7E88F"/>
</linearGradient>
<linearGradient id="paint3_linear" x1="13.0666" y1="16.3474" x2="11.3995" y2="16.5326" gradientUnits="userSpaceOnUse">
<stop stop-color="#F7E88F"/>
<stop offset="0.40306" stop-color="#EEE490"/>
<stop offset="1" stop-color="#F7E88F"/>
</linearGradient>
<linearGradient id="paint4_linear" x1="13.9016" y1="15.7761" x2="12.9986" y2="15.9613" gradientUnits="userSpaceOnUse">
<stop stop-color="#E7C01E"/>
<stop offset="1" stop-color="#EECAAB"/>
</linearGradient>
<linearGradient id="paint5_linear" x1="5.71363" y1="15.8089" x2="6.80187" y2="16.0173" gradientUnits="userSpaceOnUse">
<stop stop-color="#E7BC68"/>
<stop offset="1" stop-color="#E7C01E"/>
</linearGradient>
<linearGradient id="paint6_linear" x1="2.59082" y1="8.10868" x2="17.2055" y2="8.10868" gradientUnits="userSpaceOnUse">
<stop stop-color="#D89223"/>
<stop offset="0.50952" stop-color="#EBCC59"/>
<stop offset="1" stop-color="#E2B120"/>
</linearGradient>
<linearGradient id="paint7_linear" x1="9.89818" y1="14.2446" x2="9.89818" y2="10.2017" gradientUnits="userSpaceOnUse">
<stop stop-color="#F7E88F"/>
<stop offset="1" stop-color="#F7E88F"/>
</linearGradient>
<linearGradient id="paint8_linear" x1="9.89625" y1="14.5595" x2="9.89625" y2="15.1163" gradientUnits="userSpaceOnUse">
<stop stop-color="#D99623"/>
<stop offset="1" stop-color="#D6C727"/>
</linearGradient>
<linearGradient id="paint9_linear" x1="32645.8" y1="13206.6" x2="67206.9" y2="13206.6" gradientUnits="userSpaceOnUse">
<stop stop-color="#CB8F28"/>
<stop offset="0.50953" stop-color="#EBCB57"/>
<stop offset="1" stop-color="#D1AB2A"/>
</linearGradient>
<linearGradient id="paint10_linear" x1="9.53203" y1="7.29978" x2="9.53203" y2="9.90581" gradientUnits="userSpaceOnUse">
<stop stop-color="#E6BB55"/>
<stop offset="1" stop-color="#E7C01E"/>
</linearGradient>
<linearGradient id="paint11_linear" x1="-2.76125e-09" y1="9.97549" x2="20" y2="9.97549" gradientUnits="userSpaceOnUse">
<stop stop-color="#D89223"/>
<stop offset="0.50952" stop-color="#EBCA56"/>
<stop offset="1" stop-color="#E1AF20"/>
</linearGradient>
<linearGradient id="paint12_linear" x1="26057.7" y1="22928.8" x2="30690.2" y2="15702.8" gradientUnits="userSpaceOnUse">
<stop stop-color="#5C141C"/>
<stop offset="1" stop-color="#A2182B"/>
</linearGradient>
<linearGradient id="paint13_linear" x1="21510.6" y1="9965.81" x2="21510.6" y2="18109.3" gradientUnits="userSpaceOnUse">
<stop stop-color="#D89223"/>
<stop offset="0.50952" stop-color="#EBCA56"/>
<stop offset="1" stop-color="#E1AF20"/>
</linearGradient>
<linearGradient id="paint14_linear" x1="9.98684" y1="4.48959" x2="9.98684" y2="8.43767" gradientUnits="userSpaceOnUse">
<stop offset="0.50952" stop-color="#EBCA56"/>
<stop offset="0.99563" stop-color="#D89223"/>
<stop offset="1" stop-color="#E1AF20"/>
</linearGradient>
</defs>
</svg>
