<svg width="20" height="20" viewBox="0 0 20 20" fill="none" xmlns="http://www.w3.org/2000/svg">
<g clip-path="url(#clip0)">
<path d="M16.2967 4.6589C16.5717 4.07228 17.3783 2.67905 16.6633 1.46915C16.315 0.882527 15.5451 0.71754 14.9768 1.10251C14.4085 1.48748 13.8585 1.87245 13.2719 2.29408C12.6486 2.0741 12.007 1.94578 11.3104 1.92745C10.4671 1.90911 9.60553 1.90911 8.76226 1.92745C8.06565 1.94578 7.4057 2.0741 6.80075 2.29408C6.23246 1.89078 5.66417 1.48748 5.09588 1.10251C4.52759 0.71754 3.75765 0.882527 3.40935 1.46915C2.67607 2.66072 3.501 4.07228 3.77598 4.6589C3.48267 5.09887 3.24436 5.5755 3.06104 6.07046C2.32776 8.17863 1.75947 10.1768 1.17285 12.5783C4.16095 15.1264 6.56243 16.8863 10.0455 19.0311C13.5469 16.8863 15.93 15.1264 18.9181 12.5783C18.3315 10.1768 17.7632 8.1603 17.03 6.07046C16.8283 5.5755 16.59 5.09887 16.2967 4.6589Z" fill="black"/>
<path d="M1.13658 12.5967C1.7232 10.1952 2.29149 8.17874 3.02477 6.0889C3.20809 5.57561 3.4464 5.09898 3.73971 4.67734C3.46473 4.09072 2.65813 2.69749 3.37307 1.48759C3.72138 0.919298 4.47299 0.754311 5.04128 1.10262C4.56465 0.790975 4.25301 0.662652 3.66638 0.809307C2.69479 1.04762 1.64987 2.09254 2.5298 4.23738C2.60313 4.42069 2.67646 4.58568 2.74979 4.769C2.25483 5.42895 1.94318 6.12556 1.6682 6.98716H2.19983C1.97985 7.64711 1.7782 8.30706 1.57655 9.00367H1.04492C0.733277 10.0486 0.458298 11.1668 0.146655 12.3951L0 13L0.47663 13.4033C1.88819 14.5949 3.15309 15.6215 4.43632 16.5748H6.15952C4.45466 15.3282 2.89644 14.0999 1.13658 12.5967Z" fill="#1B88C5"/>
<path d="M5.13281 17.033C6.36105 17.9129 7.62595 18.7562 9.03751 19.6361C9.36749 19.4344 9.67913 19.2511 10.0091 19.0495C8.87252 18.3529 7.84594 17.6929 6.87434 17.033H5.13281Z" fill="#1B88C5"/>
<path d="M17.5432 15.0165C18.6065 14.1732 19.3947 13.495 19.9997 12.9633C19.8347 12.3034 19.7064 11.7534 19.5047 10.9835C19.3214 10.9835 19.4681 10.9835 19.2847 10.9835C18.8998 9.53526 18.5331 8.23369 18.1115 6.95046C18.4048 6.95046 18.3131 6.95046 18.6065 6.95046C18.4048 6.3455 18.1848 5.61223 17.5249 4.73229C17.7999 4.12734 18.0382 3.57738 18.0748 2.91743H17.8182C17.8915 1.76252 17.2316 0.992583 16.3333 0.7726C15.765 0.644276 15.4534 0.7726 14.9767 1.08424C15.545 0.717604 16.2966 0.900923 16.6449 1.46921C17.3782 2.66079 16.5533 4.07235 16.2783 4.65897C16.5716 5.09893 16.8099 5.57556 16.9932 6.07052C17.7265 8.17869 18.2948 10.1769 18.8814 12.5784C15.8933 15.1265 13.4919 16.8864 10.0088 19.0312C10.3388 19.2328 10.6504 19.4162 10.9804 19.6178C13.1985 18.2429 15.0134 16.9963 16.9199 15.5115H16.095C16.315 15.3465 16.535 15.1815 16.7366 15.0165H17.5432Z" fill="#FC303A"/>
<path d="M8.12091 7.13381C8.12091 7.11548 8.10257 7.11548 8.10257 7.09715L6.87433 6.69385C6.856 6.69385 6.83767 6.69385 6.83767 6.69385C6.81934 6.71218 6.81934 6.71218 6.81934 6.73051L7.07598 7.92209C7.07598 7.94042 7.09432 7.94042 7.09432 7.95875C7.11265 7.95875 7.13098 7.95875 7.13098 7.95875C7.53428 7.62877 7.82759 7.37213 8.10257 7.17048C8.10257 7.15215 8.12091 7.15215 8.12091 7.13381Z" fill="white"/>
<path d="M13.1811 6.69385L11.9529 7.09715C11.9346 7.09715 11.9346 7.11548 11.9346 7.13381C11.9346 7.15214 11.9346 7.17048 11.9529 7.17048C12.2279 7.39046 12.5395 7.62877 12.9245 7.95875C12.9428 7.95875 12.9428 7.97708 12.9612 7.95875C12.9795 7.95875 12.9795 7.94042 12.9795 7.92208L13.2361 6.73051C13.2361 6.71218 13.2361 6.69385 13.2178 6.69385C13.1995 6.69385 13.1995 6.69385 13.1811 6.69385Z" fill="white"/>
<path d="M10.6687 7.09713C10.5404 6.85881 10.2838 6.71216 10.0088 6.71216C9.73381 6.71216 9.47716 6.85881 9.34884 7.09713C9.25718 7.24378 8.83554 7.97706 8.10226 9.2603C7.97394 9.46195 7.91895 9.71859 7.91895 9.95691C7.91895 10.9102 7.91895 11.8084 7.91895 12.4684C7.91895 14.5582 12.0803 14.5399 12.0986 12.4684C12.0986 11.8268 12.0986 10.9285 12.0986 9.97524C12.0986 9.73693 12.0436 9.49861 11.9153 9.27863L10.6687 7.09713ZM10.8337 12.9633C10.8337 12.9817 10.8154 12.9817 10.7971 12.9817C10.2288 13.0183 9.7888 13.0183 9.22051 12.9817C9.20218 12.9817 9.18385 12.9633 9.18385 12.9633C8.96387 12.4134 8.81721 11.9918 8.68889 11.4418C8.68889 11.4235 8.68889 11.4051 8.70722 11.4051C9.14718 11.0385 9.49549 10.7818 9.99045 10.4702C10.0088 10.4702 10.0271 10.4702 10.0271 10.4702C10.5221 10.7818 10.8887 11.0385 11.3104 11.4051C11.3287 11.4235 11.3287 11.4235 11.3287 11.4418C11.2004 11.9918 11.072 12.4134 10.8337 12.9633Z" fill="white"/>
<path d="M14.5925 0.589242C14.0975 0.919216 13.6209 1.24919 13.1442 1.5975C12.5393 1.41418 11.916 1.30419 11.2927 1.30419C10.4678 1.28585 9.58784 1.28585 8.70791 1.30419C8.08462 1.32252 7.46134 1.41418 6.85638 1.5975C6.37975 1.26752 5.90312 0.919216 5.40816 0.589242C4.56489 0.00261986 3.06168 0.644238 2.51172 1.56083C2.80503 1.1392 3.22666 0.882552 3.62997 0.790893C4.21659 0.644237 4.54656 0.790893 5.00486 1.0842C5.02319 1.0842 5.02319 1.10254 5.04152 1.10254C5.60981 1.48751 6.15977 1.87248 6.74639 2.29411C7.36968 2.07413 8.01129 1.9458 8.70791 1.92747C9.55118 1.90914 10.4128 1.90914 11.256 1.92747C11.9527 1.9458 12.6126 2.07413 13.2176 2.29411C13.7858 1.89081 14.3541 1.48751 14.9224 1.10254C14.9408 1.10254 14.9408 1.0842 14.9591 1.0842C15.4357 0.772561 15.7474 0.644237 16.3157 0.772561C16.774 0.882552 17.1773 1.1392 17.4522 1.52417C16.9206 0.644237 15.4541 0.0209518 14.5925 0.589242Z" fill="white"/>
</g>
<defs>
<clipPath id="clip0">
<rect width="20" height="20" fill="white"/>
</clipPath>
</defs>
</svg>
