<svg width="135" height="40" viewBox="0 0 135 40" fill="none" xmlns="http://www.w3.org/2000/svg">
<path d="M130 40H5C2.25 40 0 37.75 0 35V5C0 2.25 2.25 0 5 0H130C132.75 0 135 2.25 135 5V35C135 37.75 132.75 40 130 40Z" fill="black"/>
<path d="M130 0.800044C132.316 0.800044 134.2 2.68424 134.2 5.00024V35.0002C134.2 37.3161 132.316 39.2004 130 39.2004H5C2.684 39.2004 0.8 37.3161 0.8 35.0002V5.00024C0.8 2.68424 2.684 0.800044 5 0.800044H130ZM130 0.000244141H5C2.25 0.000244141 0 2.25024 0 5.00024V35.0002C0 37.7502 2.25 40.0002 5 40.0002H130C132.75 40.0002 135 37.7502 135 35.0002V5.00024C135 2.25024 132.75 0.000244141 130 0.000244141Z" fill="#A6A6A6"/>
<path d="M47.4184 10.2433C47.4184 11.0812 47.1703 11.7486 46.6732 12.2462C46.1088 12.838 45.3735 13.1339 44.4692 13.1339C43.603 13.1339 42.8666 12.8341 42.2612 12.2335C41.6548 11.6329 41.3521 10.8883 41.3521 10.0001C41.3521 9.11144 41.6548 8.36734 42.2612 7.76674C42.8666 7.16614 43.603 6.86584 44.4692 6.86584C44.8988 6.86584 45.3101 6.94984 45.7006 7.11734C46.0913 7.28534 46.4048 7.50844 46.6391 7.78774L46.1117 8.31555C45.7143 7.84094 45.1674 7.60364 44.4692 7.60364C43.8373 7.60364 43.2915 7.82535 42.8306 8.26964C42.3695 8.71404 42.1391 9.29064 42.1391 10.0001C42.1391 10.7096 42.3695 11.2862 42.8306 11.7306C43.2915 12.1749 43.8373 12.3966 44.4692 12.3966C45.1391 12.3966 45.6978 12.1734 46.145 11.7267C46.4351 11.4356 46.603 11.0309 46.6479 10.5113H44.4692V9.79064H47.3764C47.4048 9.94744 47.4184 10.0978 47.4184 10.2433Z" fill="white" stroke="white" stroke-width="0.2" stroke-miterlimit="10"/>
<path d="M52.0278 7.73742H49.2954V9.63972H51.7593V10.3605H49.2954V12.2628H52.0278V13.0001H48.5249V7.00012H52.0278V7.73742Z" fill="white" stroke="white" stroke-width="0.2" stroke-miterlimit="10"/>
<path d="M55.2788 13.0001H54.5073V7.73742H52.8315V7.00012H56.9546V7.73742H55.2788V13.0001Z" fill="white" stroke="white" stroke-width="0.2" stroke-miterlimit="10"/>
<path d="M59.938 13.0001V7.00012H60.7085V13.0001H59.938Z" fill="white" stroke="white" stroke-width="0.2" stroke-miterlimit="10"/>
<path d="M64.1284 13.0001H63.3569V7.73742H61.6812V7.00012H65.8042V7.73742H64.1284V13.0001Z" fill="white" stroke="white" stroke-width="0.2" stroke-miterlimit="10"/>
<path d="M73.6094 12.2247C73.0195 12.8312 72.2861 13.1339 71.4092 13.1339C70.5322 13.1339 69.7988 12.8312 69.21 12.2247C68.6201 11.6188 68.3262 10.8771 68.3262 10.0001C68.3262 9.12315 68.6201 8.38144 69.21 7.77554C69.7988 7.16904 70.5322 6.86584 71.4092 6.86584C72.2813 6.86584 73.0127 7.17054 73.6055 7.77944C74.1973 8.38834 74.4932 9.12854 74.4932 10.0001C74.4932 10.8771 74.1982 11.6188 73.6094 12.2247ZM69.7793 11.7223C70.2236 12.172 70.7666 12.3966 71.4092 12.3966C72.0518 12.3966 72.5957 12.172 73.0391 11.7223C73.4834 11.2726 73.7061 10.6983 73.7061 10.0001C73.7061 9.30194 73.4834 8.72764 73.0391 8.27794C72.5957 7.82824 72.0518 7.60364 71.4092 7.60364C70.7666 7.60364 70.2236 7.82824 69.7793 8.27794C69.3359 8.72764 69.1133 9.30194 69.1133 10.0001C69.1133 10.6983 69.3359 11.2726 69.7793 11.7223Z" fill="white" stroke="white" stroke-width="0.2" stroke-miterlimit="10"/>
<path d="M75.5752 13.0001V7.00012H76.5137L79.4297 11.6676H79.4629L79.4297 10.5113V7.00012H80.2012V13.0001H79.3965L76.3457 8.10652H76.3125L76.3457 9.26282V13.0001H75.5752Z" fill="white" stroke="white" stroke-width="0.2" stroke-miterlimit="10"/>
<path d="M68.1357 21.7517C65.7835 21.7517 63.8664 23.5399 63.8664 26.0048C63.8664 28.4536 65.7835 30.258 68.1357 30.258C70.4878 30.258 72.405 28.4536 72.405 26.0048C72.405 23.5399 70.4878 21.7517 68.1357 21.7517ZM68.1357 28.5825C66.8469 28.5825 65.7352 27.5192 65.7352 26.0048C65.7352 24.4743 66.8469 23.4272 68.1357 23.4272C69.4245 23.4272 70.5361 24.4743 70.5361 26.0048C70.5361 27.5192 69.4245 28.5825 68.1357 28.5825ZM58.8223 21.7517C56.4701 21.7517 54.553 23.5399 54.553 26.0048C54.553 28.4536 56.4701 30.258 58.8223 30.258C61.1744 30.258 63.0915 28.4536 63.0915 26.0048C63.0915 23.5399 61.1744 21.7517 58.8223 21.7517ZM58.8223 28.5825C57.5334 28.5825 56.4218 27.5192 56.4218 26.0048C56.4218 24.4743 57.5334 23.4272 58.8223 23.4272C60.1111 23.4272 61.2227 24.4743 61.2227 26.0048C61.2227 27.5192 60.1111 28.5825 58.8223 28.5825ZM47.7435 23.0567V24.861H52.0612C51.9322 25.876 51.594 26.617 51.0784 27.1326C50.4501 27.7609 49.4673 28.4536 47.7435 28.4536C45.0853 28.4536 43.0071 26.3109 43.0071 23.6527C43.0071 20.9945 45.0853 18.8518 47.7435 18.8518C49.1774 18.8518 50.2246 19.4157 50.9979 20.1406L52.2706 18.8679C51.1912 17.8369 49.7574 17.0474 47.7435 17.0474C44.1025 17.0474 41.0415 20.0118 41.0415 23.6527C41.0415 27.2937 44.1025 30.258 47.7435 30.258C49.709 30.258 51.1912 29.6136 52.3511 28.4053C53.5433 27.2131 53.9139 25.5377 53.9139 24.1844C53.9139 23.7655 53.8817 23.3789 53.8171 23.0567H47.7435ZM93.0518 24.4582C92.6974 23.5077 91.618 21.7517 89.4108 21.7517C87.2198 21.7517 85.3994 23.4755 85.3994 26.0048C85.3994 28.3892 87.2037 30.258 89.6203 30.258C91.5696 30.258 92.6974 29.0658 93.1645 28.3731L91.7146 27.4065C91.2313 28.1153 90.5708 28.5825 89.6203 28.5825C88.6697 28.5825 87.9931 28.1475 87.5581 27.2937L93.2452 24.9416L93.0518 24.4582ZM87.2521 25.876C87.2037 24.2327 88.5248 23.395 89.4752 23.395C90.2164 23.395 90.8447 23.7655 91.0541 24.2972L87.2521 25.876ZM82.6283 30.0002H84.4971V17.4986H82.6283V30.0002ZM79.5673 22.7022H79.5029C79.084 22.2028 78.2785 21.7517 77.2635 21.7517C75.137 21.7517 73.1876 23.6205 73.1876 26.0209C73.1876 28.4053 75.137 30.258 77.2635 30.258C78.2785 30.258 79.084 29.8069 79.5029 29.2914H79.5673V29.9036C79.5673 31.5308 78.6974 32.4007 77.2957 32.4007C76.152 32.4007 75.443 31.5791 75.1531 30.8863L73.5259 31.563C73.9931 32.6907 75.2336 34.0762 77.2957 34.0762C79.4868 34.0762 81.3395 32.7874 81.3395 29.6458V22.0094H79.5673V22.7022ZM77.4247 28.5825C76.1359 28.5825 75.0564 27.5031 75.0564 26.0209C75.0564 24.5227 76.1359 23.4272 77.4247 23.4272C78.6974 23.4272 79.6962 24.5227 79.6962 26.0209C79.6962 27.5031 78.6974 28.5825 77.4247 28.5825ZM101.806 17.4988H97.3345V30.0002H99.2002V25.2638H101.806C103.874 25.2638 105.907 23.7665 105.907 21.3813C105.907 18.9961 103.874 17.4988 101.806 17.4988ZM101.854 23.524H99.2002V19.2387H101.854C103.249 19.2387 104.041 20.3938 104.041 21.3813C104.041 22.3502 103.249 23.524 101.854 23.524ZM113.386 21.7287C112.035 21.7287 110.635 22.3238 110.056 23.6426L111.713 24.3342C112.067 23.6426 112.726 23.4174 113.418 23.4174C114.383 23.4174 115.364 23.9964 115.38 25.0257V25.1544C115.042 24.9614 114.318 24.6719 113.434 24.6719C111.649 24.6719 109.831 25.653 109.831 27.4865C109.831 29.1591 111.295 30.2367 112.935 30.2367C114.19 30.2367 114.881 29.6738 115.316 29.0144H115.38V29.9794H117.181V25.1866C117.181 22.9671 115.525 21.7287 113.386 21.7287ZM113.16 28.5801C112.549 28.5801 111.697 28.2746 111.697 27.5186C111.697 26.5537 112.758 26.1837 113.675 26.1837C114.495 26.1837 114.881 26.3607 115.38 26.6019C115.235 27.7599 114.238 28.5801 113.16 28.5801ZM123.743 22.0021L121.604 27.4221H121.54L119.32 22.0021H117.31L120.639 29.5773L118.741 33.7911H120.687L125.818 22.0021H123.743ZM106.936 30.0002H108.802V17.4988H106.936V30.0002Z" fill="white"/>
<path d="M10.4355 7.53818C10.1447 7.84598 9.97266 8.32388 9.97266 8.94308V31.0592C9.97266 31.6789 10.1447 32.1563 10.4355 32.4641L10.5095 32.5362L22.8985 20.1473V20.0012V19.855L10.5095 7.46558L10.4355 7.53818Z" fill="url(#paint0_linear)"/>
<path d="M27.0278 24.2787L22.8984 20.1473V20.0012V19.855L27.0288 15.7246L27.1219 15.7777L32.0147 18.5578C33.4123 19.3518 33.4123 20.651 32.0147 21.4455L27.1219 24.2256L27.0278 24.2787Z" fill="url(#paint1_linear)"/>
<path d="M27.122 24.225L22.8985 20.0011L10.4355 32.464C10.8963 32.9517 11.6567 33.0121 12.5136 32.5254L27.122 24.225Z" fill="url(#paint2_linear)"/>
<path d="M27.122 15.7771L12.5136 7.47675C11.6567 6.99005 10.8963 7.05045 10.4355 7.53815L22.8985 20.0011L27.122 15.7771Z" fill="url(#paint3_linear)"/>
<path opacity="0.2" d="M27.0289 24.1321L12.5136 32.3794C11.7016 32.8407 10.9757 32.81 10.51 32.3901L10.4355 32.4646L10.5095 32.5367L10.51 32.5362C10.9757 32.9561 11.7016 32.9873 12.5136 32.5255L27.122 24.2251L27.0289 24.1321Z" fill="black"/>
<path opacity="0.12" d="M10.4355 32.3185C10.1447 32.0106 9.97266 31.5327 9.97266 30.9136V31.0597C9.97266 31.6789 10.1447 32.1567 10.4355 32.4646L10.51 32.3901L10.4355 32.3185Z" fill="black"/>
<path opacity="0.12" d="M32.0147 21.2989L27.0288 24.1321L27.1219 24.2251L32.0147 21.445C32.7133 21.048 33.063 20.5248 33.063 20.0016C33.0041 20.4747 32.6485 20.9389 32.0147 21.2989Z" fill="black"/>
<path opacity="0.25" d="M12.5136 7.62334L32.0148 18.7033C32.6486 19.0633 33.0042 19.5271 33.0631 20.0011C33.0636 19.4779 32.7138 18.9542 32.0148 18.5572L12.5136 7.47724C11.116 6.68314 9.97266 7.34274 9.97266 8.94354V9.08964C9.97266 7.48894 11.116 6.82934 12.5136 7.62334Z" fill="white"/>
<defs>
<linearGradient id="paint0_linear" x1="21.7998" y1="8.70989" x2="5.01739" y2="25.4923" gradientUnits="userSpaceOnUse">
<stop stop-color="#00A0FF"/>
<stop offset="0.0065745" stop-color="#00A1FF"/>
<stop offset="0.2601" stop-color="#00BEFF"/>
<stop offset="0.5122" stop-color="#00D2FF"/>
<stop offset="0.7604" stop-color="#00DFFF"/>
<stop offset="1" stop-color="#00E3FF"/>
</linearGradient>
<linearGradient id="paint1_linear" x1="33.8344" y1="20.0017" x2="9.63752" y2="20.0017" gradientUnits="userSpaceOnUse">
<stop stop-color="#FFE000"/>
<stop offset="0.4087" stop-color="#FFBD00"/>
<stop offset="0.7754" stop-color="#FFA500"/>
<stop offset="1" stop-color="#FF9C00"/>
</linearGradient>
<linearGradient id="paint2_linear" x1="24.8271" y1="22.2962" x2="2.06882" y2="45.0545" gradientUnits="userSpaceOnUse">
<stop stop-color="#FF3A44"/>
<stop offset="1" stop-color="#C31162"/>
</linearGradient>
<linearGradient id="paint3_linear" x1="7.29748" y1="0.176329" x2="17.46" y2="10.3389" gradientUnits="userSpaceOnUse">
<stop stop-color="#32A071"/>
<stop offset="0.0685" stop-color="#2DA771"/>
<stop offset="0.4762" stop-color="#15CF74"/>
<stop offset="0.8009" stop-color="#06E775"/>
<stop offset="1" stop-color="#00F076"/>
</linearGradient>
</defs>
</svg>
