<svg width="32" height="32" viewBox="0 0 32 32" fill="none" xmlns="http://www.w3.org/2000/svg">
<g clip-path="url(#clip0)">
<path d="M30.3291 22.7729C29.5616 22.0054 28.4996 21.5295 27.3272 21.5295C27.0714 21.5295 26.8218 21.5534 26.5799 21.5997C26.0871 21.6911 25.6244 21.8688 25.2006 22.1068C20.6039 24.6912 17.1769 24.983 15.8064 24.983C15.7913 24.983 15.7776 24.983 15.7637 24.983C14.6301 24.983 12.0775 24.7622 8.63573 23.2338C8.60007 23.5715 8.57084 23.9217 8.54514 24.2781C8.51434 24.7557 8.4855 25.2374 8.47993 25.7568C8.47233 26.4791 8.30556 27.2117 7.91693 27.8842C7.61475 28.4063 7.21851 28.8407 6.7621 29.1776C6.59235 29.3021 6.4038 29.3918 6.21924 29.4891C6.26681 29.4645 6.32174 29.4529 6.36837 29.4268C10.9651 26.8424 14.3921 26.5493 15.7637 26.5493C15.7776 26.5493 15.7913 26.5493 15.8064 26.5493C17.1769 26.5493 20.6039 26.8424 25.2006 29.4268C25.6244 29.6646 26.0871 29.8424 26.5799 29.9338C26.8218 29.9789 27.0714 30.0027 27.3272 30.0027C28.4996 30.0027 29.5616 29.5282 30.3291 28.7605C31.0952 27.993 31.5692 26.935 31.5692 25.7655C31.5692 24.5973 31.0952 23.5393 30.3291 22.7729Z" fill="#1BB7E0"/>
<path opacity="0.35" d="M30.3291 22.7729C29.5616 22.0054 28.4996 21.5295 27.3272 21.5295C27.0714 21.5295 26.8218 21.5534 26.5799 21.5997C26.0871 21.6911 25.6244 21.8688 25.2006 22.1068C20.6039 24.6912 17.1769 24.983 15.8064 24.983C15.7913 24.983 15.7776 24.983 15.7637 24.983C14.6301 24.983 12.0775 24.7622 8.63573 23.2338C8.60007 23.5715 8.57084 23.9217 8.54514 24.2781C8.51434 24.7557 8.4855 25.2374 8.47993 25.7568C8.47233 26.4791 8.30556 27.2117 7.91693 27.8842C7.61475 28.4063 7.21851 28.8407 6.7621 29.1776C6.59235 29.3021 6.4038 29.3918 6.21924 29.4891C6.26681 29.4645 6.32174 29.4529 6.36837 29.4268C10.9651 26.8424 14.3921 26.5493 15.7637 26.5493C15.7776 26.5493 15.7913 26.5493 15.8064 26.5493C17.1769 26.5493 20.6039 26.8424 25.2006 29.4268C25.6244 29.6646 26.0871 29.8424 26.5799 29.9338C26.8218 29.9789 27.0714 30.0027 27.3272 30.0027C28.4996 30.0027 29.5616 29.5282 30.3291 28.7605C31.0952 27.993 31.5692 26.935 31.5692 25.7655C31.5692 24.5973 31.0952 23.5393 30.3291 22.7729Z" fill="url(#paint0_linear)"/>
<path d="M13.6734 9.47164C13.3637 9.28883 13.0715 9.07096 12.8095 8.8156C12.5423 8.55633 12.3054 8.25958 12.1097 7.9215C11.7034 7.21678 11.5355 6.44578 11.5562 5.68958C11.5547 5.73027 11.5484 5.77104 11.548 5.81166C11.4916 11.0794 10.0308 14.1884 9.3462 15.3742C9.3386 15.3868 9.33233 15.3981 9.32489 15.4118C8.85468 16.2257 7.77883 17.8096 5.68107 19.5901C4.72434 20.4028 3.55438 21.2567 2.13246 22.097C1.80778 22.2898 1.50175 22.5202 1.22715 22.793C0.977702 23.0422 0.754508 23.3266 0.570107 23.6471C0.099896 24.4585 -0.0705555 25.3599 0.0259945 26.2239C0.166431 27.5199 0.903722 28.7333 2.12118 29.4356C2.45103 29.626 2.79468 29.7662 3.14569 29.8602C4.39833 30.1957 5.7324 29.9327 6.76192 29.1777C7.21834 28.8408 7.61457 28.4065 7.91676 27.8843C8.30539 27.2118 8.47216 26.4793 8.47976 25.7569C8.53611 20.4892 9.9969 17.3789 10.6829 16.1944C10.6904 16.1818 10.6966 16.1693 10.7042 16.158C11.2107 15.2804 12.4194 13.5098 14.8521 11.5628C15.137 11.3341 15.4652 11.1011 15.7847 10.8688C15.1452 10.4045 14.461 9.93704 13.6734 9.47164Z" fill="#E22B46"/>
<path opacity="0.35" d="M13.6734 9.47164C13.3637 9.28883 13.0715 9.07096 12.8095 8.8156C12.5423 8.55633 12.3054 8.25958 12.1097 7.9215C11.7034 7.21678 11.5355 6.44578 11.5562 5.68958C11.5547 5.73027 11.5484 5.77104 11.548 5.81166C11.4916 11.0794 10.0308 14.1884 9.3462 15.3742C9.3386 15.3868 9.33233 15.3981 9.32489 15.4118C8.85468 16.2257 7.77883 17.8096 5.68107 19.5901C4.72434 20.4028 3.55438 21.2567 2.13246 22.097C1.80778 22.2898 1.50175 22.5202 1.22715 22.793C0.977702 23.0422 0.754508 23.3266 0.570107 23.6471C0.099896 24.4585 -0.0705555 25.3599 0.0259945 26.2239C0.166431 27.5199 0.903722 28.7333 2.12118 29.4356C2.45103 29.626 2.79468 29.7662 3.14569 29.8602C4.39833 30.1957 5.7324 29.9327 6.76192 29.1777C7.21834 28.8408 7.61457 28.4065 7.91676 27.8843C8.30539 27.2118 8.47216 26.4793 8.47976 25.7569C8.53611 20.4892 9.9969 17.3789 10.6829 16.1944C10.6904 16.1818 10.6966 16.1693 10.7042 16.158C11.2107 15.2804 12.4194 13.5098 14.8521 11.5628C15.137 11.3341 15.4652 11.1011 15.7847 10.8688C15.1452 10.4045 14.461 9.93704 13.6734 9.47164Z" fill="url(#paint1_linear)"/>
<path d="M12.8097 8.81543C13.0717 9.07078 13.3639 9.28865 13.6736 9.47146C18.2127 12.1535 20.1801 14.9709 20.8659 16.1578C20.8734 16.1691 20.8797 16.1816 20.886 16.1942C21.453 17.1733 22.5374 19.492 22.9328 23.234C23.6554 22.9132 24.403 22.5551 25.2006 22.1067C25.6244 21.8687 26.0872 21.6911 26.58 21.5996C26.8219 21.5534 27.0715 21.5295 27.3273 21.5295C28.1354 21.5295 28.8832 21.7679 29.5261 22.1598C29.4951 22.1406 29.4677 22.1153 29.4363 22.0968C24.8971 19.4147 22.9299 16.5961 22.244 15.4116C22.2376 15.3979 22.2302 15.3866 22.2239 15.374C21.538 14.1882 20.0772 11.0792 20.022 5.81274C20.0183 5.45337 19.9744 5.09284 19.8854 4.73841C19.7939 4.37779 19.6547 4.02219 19.4578 3.68411C18.8722 2.67114 17.9305 1.99123 16.8822 1.71083C15.8792 1.44154 14.7758 1.53929 13.794 2.0601C12.7608 2.60978 11.9896 3.57526 11.6862 4.7046C11.4053 5.75138 11.5244 6.90585 12.1099 7.92133C12.3056 8.2594 12.5425 8.55616 12.8097 8.81543Z" fill="#68CE46"/>
<path opacity="0.35" d="M12.8097 8.81543C13.0717 9.07078 13.3639 9.28865 13.6736 9.47146C18.2127 12.1535 20.1801 14.9709 20.8659 16.1578C20.8734 16.1691 20.8797 16.1816 20.886 16.1942C21.453 17.1733 22.5374 19.492 22.9328 23.234C23.6554 22.9132 24.403 22.5551 25.2006 22.1067C25.6244 21.8687 26.0872 21.6911 26.58 21.5996C26.8219 21.5534 27.0715 21.5295 27.3273 21.5295C28.1354 21.5295 28.8832 21.7679 29.5261 22.1598C29.4951 22.1406 29.4677 22.1153 29.4363 22.0968C24.8971 19.4147 22.9299 16.5961 22.244 15.4116C22.2376 15.3979 22.2302 15.3866 22.2239 15.374C21.538 14.1882 20.0772 11.0792 20.022 5.81274C20.0183 5.45337 19.9744 5.09284 19.8854 4.73841C19.7939 4.37779 19.6547 4.02219 19.4578 3.68411C18.8722 2.67114 17.9305 1.99123 16.8822 1.71083C15.8792 1.44154 14.7758 1.53929 13.794 2.0601C12.7608 2.60978 11.9896 3.57526 11.6862 4.7046C11.4053 5.75138 11.5244 6.90585 12.1099 7.92133C12.3056 8.2594 12.5425 8.55616 12.8097 8.81543Z" fill="url(#paint2_linear)"/>
</g>
<defs>
<linearGradient id="paint0_linear" x1="20.8539" y1="32.6289" x2="16.4119" y2="20.4075" gradientUnits="userSpaceOnUse">
<stop stop-color="#004854" stop-opacity="0"/>
<stop offset="1" stop-color="#004854"/>
</linearGradient>
<linearGradient id="paint1_linear" x1="1.2625e-07" y1="17.8466" x2="15.7847" y2="17.8466" gradientUnits="userSpaceOnUse">
<stop stop-color="#6D000D" stop-opacity="0"/>
<stop offset="1" stop-color="#6D000D"/>
</linearGradient>
<linearGradient id="paint2_linear" x1="24.8158" y1="8.82898" x2="16.6731" y2="16.9831" gradientUnits="userSpaceOnUse">
<stop stop-opacity="0"/>
<stop offset="1"/>
</linearGradient>
<clipPath id="clip0">
<rect width="31.569" height="31.569" fill="white"/>
</clipPath>
</defs>
</svg>
