<svg width="167" height="38" viewBox="0 0 167 38" fill="none" xmlns="http://www.w3.org/2000/svg">
<path fill-rule="evenodd" clip-rule="evenodd" d="M41.8079 17.7741L42.3573 16.0068L40.5386 16.0646C40.3853 16.0646 39.2685 16.0321 38.1847 15.2434C38.2659 15.2502 38.3461 15.2623 38.4294 15.2623C39.5445 15.2623 40.6246 14.5878 41.0567 13.6223L41.8388 11.8792C40.8572 11.8923 39.9605 11.7677 39.9605 11.7677C39.9531 11.7671 39.246 11.6751 38.4288 10.8359C37.8427 10.235 37.1172 9.9167 36.3316 9.9167C35.9874 9.9167 35.6799 9.97931 35.4149 10.0635C35.4568 9.92197 35.495 9.77885 35.5185 9.63101C35.7679 7.99945 34.7234 6.75565 34.7229 6.7567L33.3547 5.05516L32.5067 7.05397C32.5041 7.06029 32.2893 7.52907 31.9069 7.75742C31.7917 7.16972 31.5073 6.50941 30.9007 5.87804C29.7563 4.68844 28.3634 4.51007 27.6348 4.51007C27.297 4.51007 27.0555 4.54744 26.9973 4.5569L25.3463 4.88311C25.4416 4.51271 25.6449 3.86661 26.0158 3.28627L26.9267 1.86096L24.6345 2.12246L23.9038 0.565076L22.49 1.29747L21.1821 0L19.8783 1.29747L18.4609 0.565076L17.7323 2.12246L15.4407 1.85991L16.3532 3.2868C16.7245 3.86661 16.9267 4.51114 17.021 4.88049L15.4454 4.56848L15.3914 4.56007C15.3123 4.54744 15.073 4.51007 14.7336 4.51007C14.0049 4.51007 12.6127 4.68844 11.4708 5.87752C10.8632 6.50836 10.5782 7.16972 10.4619 7.75742C10.0816 7.53119 9.86897 7.06975 9.86897 7.06975L9.01937 5.05938L7.63024 6.77143C7.46001 6.99189 6.62297 8.16149 6.8503 9.63311C6.87387 9.7799 6.9121 9.92197 6.95297 10.0635C6.68949 9.97879 6.38201 9.9167 6.03841 9.9167C5.25218 9.9167 4.52671 10.235 3.93952 10.8359C3.12449 11.6714 2.42207 11.7661 2.42782 11.7661C2.42782 11.7661 1.68403 11.9008 0.533756 11.8792L1.31161 13.6223C1.74479 14.5878 2.82539 15.2623 3.93847 15.2623C4.02229 15.2623 4.10243 15.2502 4.18466 15.2434C3.10353 16.0321 1.98678 16.0646 1.85164 16.0652L0 16.0068L0.560993 17.7736C0.843847 18.6843 1.78669 20.1928 3.59276 20.3554C3.39634 21.1824 2.96106 22.11 2.00459 22.5089L0.624373 23.0797L1.37708 24.3961C1.80136 25.1058 2.79868 25.9361 4.21766 25.9361C4.52461 25.9351 4.82108 25.904 5.10708 25.843C5.17989 26.1671 5.27104 26.4923 5.37894 26.8148C5.80112 28.0785 5.43708 28.9594 5.43341 28.9693L4.75195 30.4026L6.27254 30.805C6.2914 30.8108 6.75078 30.9381 7.32591 30.9381C7.58624 30.9381 7.83662 30.9108 8.06971 30.8544C8.24624 30.813 8.41647 30.7582 8.57989 30.6914C8.77684 31.046 9.0157 31.3696 9.29436 31.6595C10.2686 32.6639 11.6499 33.1727 13.3984 33.1727H13.4041L14.6529 33.1563L12.0732 34.2339L14.0316 35.1846C14.7435 35.5329 15.5868 35.9449 16.4464 36.26L16.2018 36.932L16.8764 37.2413C16.9367 37.2686 18.2352 37.8516 20.3927 37.9757C20.3927 37.9757 20.9134 38 21.2004 38C21.4869 38 22.0019 37.9742 22.0019 37.9742C24.1452 37.8469 25.4332 37.2686 25.4935 37.2413L26.1703 36.9314L25.9236 36.2585C26.8066 35.9338 27.682 35.5055 28.3639 35.1709L30.2863 34.2329L27.715 33.1563L28.969 33.1727C30.72 33.1727 32.1013 32.6633 33.0739 31.6579C33.3516 31.3707 33.5899 31.0476 33.7879 30.6914C33.9519 30.7582 34.1232 30.813 34.3002 30.8556C34.5328 30.9108 34.7826 30.9381 35.043 30.9381C35.6081 30.9381 36.0727 30.8124 36.0848 30.8082L37.6122 30.4026L36.947 28.9957C36.9312 28.9594 36.5672 28.0785 36.9894 26.8137C37.0968 26.4911 37.1874 26.1666 37.2613 25.843C37.5478 25.904 37.8468 25.9351 38.1565 25.9361C39.9646 25.9361 40.8315 24.6586 40.9991 24.3814L41.7439 23.0786L40.3648 22.5099C39.4057 22.11 38.971 21.183 38.7766 20.3564C40.5592 20.2007 41.5151 18.6906 41.8079 17.7741Z" fill="#FFFFFE"/>
<path fill-rule="evenodd" clip-rule="evenodd" d="M21.1828 5.4126C19.7219 5.41418 18.6261 5.89455 18.3882 6.46067L21.1828 7.56873L23.9782 6.46067C23.7415 5.89455 22.6457 5.41418 21.1828 5.4126Z" fill="#FFFFFE"/>
<path fill-rule="evenodd" clip-rule="evenodd" d="M21.2118 34.7385H21.1557C20.2706 34.7443 19.0506 34.5622 18.4645 34.3896L17.7573 36.3101C18.223 36.4769 19.8017 36.7963 21.1851 36.7963C22.5659 36.7963 24.1451 36.4769 24.6103 36.3101L23.9047 34.3896C23.3154 34.5622 22.0971 34.7443 21.2118 34.7385Z" fill="#FFFFFE"/>
<path fill-rule="evenodd" clip-rule="evenodd" d="M26.5595 32.8276C26.0336 33.1265 24.8593 33.5758 24.1768 33.7841L24.7497 35.3704C25.8063 35.0806 26.679 34.7423 27.3986 34.3792L26.2086 33.9819L26.5595 32.8276Z" fill="#FFFFFE"/>
<path fill-rule="evenodd" clip-rule="evenodd" d="M15.8084 32.8276L16.1604 33.9819L14.9692 34.3792C15.6879 34.7423 16.5642 35.0806 17.617 35.3704L18.1912 33.7841C17.5097 33.5758 16.3337 33.1265 15.8084 32.8276Z" fill="#FFFFFE"/>
<path fill-rule="evenodd" clip-rule="evenodd" d="M21.1826 3.57622C22.2843 3.57622 23.3638 3.84086 24.1946 4.30545C24.2705 4.05027 24.3768 3.73984 24.5208 3.41416L24.2061 3.45204L23.8771 3.48677L23.7378 3.18528L23.3172 2.29401L22.5519 2.69493L22.2534 2.84698L22.015 2.61127L21.1826 1.78418L20.352 2.61127L20.1147 2.84698L19.8166 2.69493L19.0466 2.29401L18.6323 3.18528L18.4898 3.48677L18.1609 3.45204L17.8477 3.41416C17.9917 3.73984 18.097 4.05027 18.1739 4.30545C19.0078 3.84086 20.0864 3.57622 21.1826 3.57622Z" fill="#FFFFFE"/>
<path fill-rule="evenodd" clip-rule="evenodd" d="M37.9973 13.8774C38.1404 13.9268 38.2855 13.9489 38.4295 13.9489C39.0528 13.9489 39.6546 13.5438 39.8616 13.0813C39.8616 13.0813 38.7196 13.0119 37.4914 11.7591C37.1 11.3535 36.6863 11.2319 36.3311 11.2319C35.7796 11.2319 35.3657 11.524 35.3657 11.524C36.8497 12.3178 37.1524 13.5906 37.9973 13.8774Z" fill="#FFFFFE"/>
<path fill-rule="evenodd" clip-rule="evenodd" d="M3.93787 13.9489C4.08192 13.9489 4.22754 13.9268 4.36739 13.8768C5.21437 13.5906 5.51976 12.3178 7.0016 11.5244C7.0016 11.5244 6.58674 11.2319 6.03832 11.2319C5.68108 11.2319 5.26781 11.3534 4.87496 11.7597C3.64821 13.0119 2.50684 13.0819 2.50684 13.0819C2.71164 13.5438 3.31507 13.9489 3.93787 13.9489Z" fill="#FFFFFE"/>
<path fill-rule="evenodd" clip-rule="evenodd" d="M37.5494 23.0175C36.4017 22.4487 35.6763 20.9397 35.5013 20.3962C35.3107 23.389 33.8566 25.4651 32.1568 27.4643C31.2747 28.5009 30.9667 29.5084 30.9667 29.5084C30.9667 29.5084 31.1369 28.3667 31.8996 27.4375C33.4857 25.524 34.9932 23.1406 35.1052 20.3857C35.1823 18.4621 34.6905 16.9031 33.922 15.6178C34.3521 16.9563 34.2908 18.5953 32.832 20.1252C32.832 20.1252 35.737 16.6291 31.6754 13.0445C30.0506 11.6802 28.2712 10.8378 27.3562 10.2412C30.664 11.3251 32.2793 10.1317 32.2793 10.1317C31.2234 11.0514 29.8557 11.0357 29.0072 10.9031C29.2376 11.0157 29.4771 11.1335 29.7342 11.2724C32.5235 12.794 35.0299 15.2979 35.4573 18.7651V18.7389C36.1058 22.1436 37.5494 23.0175 37.5494 23.0175ZM38.399 19.0504C38.4246 19.0519 38.4467 19.0519 38.4729 19.0519C40.0275 19.0519 40.5544 17.3794 40.5544 17.3794H40.5241C40.2386 17.3794 37.927 17.312 36.2928 15.2258C35.2179 13.8542 34.3358 12.6483 32.5952 12.1737L32.4239 12.1432L32.3868 11.9679C32.3385 11.7012 32.5213 11.4503 32.9347 11.1803C35.3373 9.60033 33.7052 7.58469 33.7052 7.58469C33.7052 7.58469 33.0195 9.19626 31.4848 9.19626C31.4476 9.19626 31.4088 9.19415 31.3706 9.19415C31.1967 9.18521 31.028 9.17889 30.8588 9.14259L30.576 9.08735C30.576 9.08735 31.0139 7.89143 29.9574 6.7939C29.1617 5.96522 28.1938 5.82422 27.6349 5.82422C27.353 5.82422 27.1744 5.86052 27.1744 5.86052C27.705 6.55714 28.0884 7.71359 27.4761 8.42704C26.9466 9.03999 25.6533 9.06945 25.6533 9.98336C25.6533 10.3706 26.0131 10.822 26.6595 11.2277C28.6033 12.4573 30.533 14.0894 31.336 16.276C32.3385 19.003 31.2087 20.814 29.5965 21.8521C29.5965 21.8521 30.1025 22.3198 30.8353 22.3797C30.9851 22.394 31.1307 22.4008 31.2663 22.4008C32.8147 22.4008 33.6156 21.6716 33.6156 21.6716C33.6156 21.6716 33.4831 22.6791 32.6779 23.6146C31.9342 24.478 30.9594 24.9873 29.4703 25.0083C29.4703 25.0083 29.4236 25.7018 30.0826 26.3027C30.5048 26.6815 31.478 26.8046 31.478 26.8046C31.478 26.8046 29.6546 27.1761 29.4534 29.8815C29.344 31.3473 28.971 31.8566 28.971 31.8566H29.0036C33.2353 31.8566 33.1269 28.2109 33.1269 28.2109C33.1269 28.2109 33.4213 29.2906 34.602 29.5721C34.7444 29.6094 34.8968 29.6242 35.0419 29.6242C35.4217 29.6242 35.7522 29.5342 35.7522 29.5342C35.7522 29.5342 35.1336 28.2247 35.747 26.3926C36.2556 24.8721 36.1739 23.7456 36.1739 23.7456C36.1739 23.7456 36.7433 24.6117 38.1575 24.6196H38.1717C39.3487 24.6196 39.8614 23.7236 39.8614 23.7236C37.0402 22.5466 37.3189 18.7499 37.3189 18.7499C37.3189 18.7499 37.685 19.0245 38.399 19.0504Z" fill="#FFFFFE"/>
<path fill-rule="evenodd" clip-rule="evenodd" d="M10.2097 27.4643C8.50992 25.4651 7.05636 23.389 6.86413 20.3962C6.68866 20.9397 5.96581 22.4487 4.81868 23.0175C4.81868 23.0175 6.26072 22.1436 6.90866 18.7389V18.7651C7.33765 15.2984 9.84352 12.794 12.6333 11.2729C12.8889 11.133 13.1304 11.0157 13.3593 10.9036C12.5113 11.0357 11.1436 11.0514 10.0881 10.1317C10.0881 10.1317 11.7036 11.3251 15.0104 10.2412C14.0952 10.8383 12.3174 11.6802 10.6926 13.0445C6.62999 16.6291 9.53553 20.1258 9.53553 20.1258C8.07465 18.5953 8.01597 16.9568 8.4455 15.6178C7.67603 16.9031 7.18417 18.4621 7.26327 20.3857C7.37431 23.1406 8.8813 25.5234 10.4642 27.4381C11.2305 28.3667 11.4029 29.508 11.4029 29.508C11.4029 29.508 11.0912 28.5009 10.2097 27.4643ZM10.8896 26.8046C10.8896 26.8046 11.8633 26.682 12.286 26.3021C12.9444 25.7018 12.8973 25.0083 12.8973 25.0083C11.4081 24.9873 10.4338 24.478 9.68586 23.6152C8.88549 22.6791 8.75244 21.6716 8.75244 21.6716C8.75244 21.6716 9.55282 22.4008 11.0991 22.4008C11.2379 22.4008 11.3825 22.394 11.5317 22.3797C12.2656 22.3198 12.7731 21.8525 12.7731 21.8525C11.1593 20.814 10.0289 19.0035 11.0305 16.276C11.8334 14.0899 13.7626 12.4573 15.7075 11.2272C16.3529 10.822 16.7127 10.3706 16.7127 9.98336C16.7127 9.06945 15.421 9.03999 14.892 8.42704C14.2796 7.71359 14.663 6.55714 15.1926 5.86052C15.1926 5.86052 15.016 5.82422 14.7327 5.82422C14.1744 5.82422 13.2068 5.96522 12.4112 6.7939C11.3526 7.89143 11.7915 9.08735 11.7915 9.08735L11.5087 9.14259C11.34 9.17837 11.1698 9.18521 10.9964 9.19468C10.9566 9.19468 10.9215 9.19626 10.8843 9.19626C9.34539 9.19626 8.66339 7.58522 8.66339 7.58522C8.66339 7.58522 7.03228 9.60033 9.43391 11.1803C9.84719 11.4503 10.0289 11.7012 9.98076 11.9679L9.94357 12.1426L9.76914 12.1737C8.03116 12.6483 7.14856 13.8542 6.07215 15.2258C4.43893 17.3114 2.13052 17.3794 1.84296 17.3794H1.81152C1.81152 17.3794 2.33847 19.0519 3.89417 19.0519C3.91879 19.0519 3.94183 19.0519 3.96802 19.0504C4.68302 19.0245 5.04967 18.7499 5.04967 18.7499C5.04967 18.7499 5.32625 22.5466 2.50609 23.723C2.50609 23.723 3.01994 24.62 4.19641 24.62H4.21054C5.62533 24.6117 6.19419 23.7456 6.19419 23.7456C6.19419 23.7456 6.11195 24.8726 6.61899 26.3926C7.23237 28.2252 6.6169 29.5348 6.6169 29.5348C6.6169 29.5348 6.94585 29.6242 7.3256 29.6242C7.47279 29.6242 7.62365 29.6094 7.76507 29.5721C8.94415 29.2906 9.23958 28.2109 9.23958 28.2109C9.23958 28.2109 9.13167 31.8566 13.364 31.8566H13.3944C13.3944 31.8566 13.024 31.3473 12.9151 29.8809C12.7145 27.1761 10.8896 26.8046 10.8896 26.8046Z" fill="#FFFFFE"/>
<path fill-rule="evenodd" clip-rule="evenodd" d="M20.2277 13.3703H22.2228V14.058C21.9882 13.7692 21.5314 13.8281 21.5314 13.8281V14.8193C21.5314 14.8193 21.5482 15.3071 21.719 15.5181H20.7316C20.9044 15.3071 20.9197 14.8193 20.9197 14.8193V13.8281C20.9197 13.8281 20.4644 13.7692 20.2277 14.058V13.3703ZM18.0539 13.4735C18.1235 13.5481 18.1916 13.6291 18.2576 13.7113C18.2733 13.7302 18.2875 13.7471 18.3032 13.7692C18.364 13.8502 18.4253 13.9365 18.4844 14.0243C18.4976 14.0417 18.5101 14.0627 18.5242 14.0827C18.595 14.1905 18.662 14.3016 18.7286 14.4163C19.3393 15.4749 20.3156 16.1073 21.1826 16.1089C22.0505 16.1073 23.0258 15.4749 23.6381 14.4163C23.7058 14.2984 23.7743 14.1848 23.8451 14.078C23.8556 14.0627 23.8671 14.0469 23.8765 14.0312C23.9373 13.9402 24.0002 13.8518 24.0661 13.7659C24.0803 13.7471 24.0933 13.7302 24.1059 13.7144C24.174 13.6291 24.2442 13.5471 24.3159 13.4708C24.328 13.4587 24.3385 13.4472 24.35 13.4371C24.6611 13.1173 25.0314 12.8736 25.517 12.7389L25.3007 12.6122H25.2887L24.4296 12.1113L23.547 11.6035L21.1889 12.8932L21.1826 12.8878L21.1784 12.8932L18.8197 11.6035L17.9376 12.1113L17.077 12.6122H17.067L16.8491 12.7389C17.3347 12.8736 17.704 13.1146 18.0162 13.435C18.0298 13.4472 18.0393 13.4614 18.0539 13.4735Z" fill="#FFFFFE"/>
<path fill-rule="evenodd" clip-rule="evenodd" d="M20.4314 9.00091V9.64806L20.3077 9.59124C20.3019 9.5865 20.1201 9.54546 19.8038 9.29345C19.2816 8.88673 19.2711 8.51107 19.2711 8.51107L20.4314 9.00091ZM20.9787 12.0372V8.01176L18.4277 7.14258L19.1003 11.0434L20.9787 12.0372Z" fill="#FFFFFE"/>
<path fill-rule="evenodd" clip-rule="evenodd" d="M21.9366 9.00091L23.0968 8.51107C23.0968 8.51107 23.0869 8.88673 22.5626 9.29345C22.2472 9.54546 22.0654 9.5865 22.0592 9.59124L21.9366 9.64806V9.00091ZM23.2666 11.0434L23.937 7.14258L21.3877 8.01176V12.0372L23.2666 11.0434Z" fill="#FFFFFE"/>
<path fill-rule="evenodd" clip-rule="evenodd" d="M17.3715 21.3687C17.6193 21.4591 17.921 21.4781 18.0755 21.4781C18.0813 21.4591 18.0897 21.4354 18.097 21.4066C18.1106 21.3608 18.1237 21.315 18.1331 21.265C18.1766 21.0419 18.1918 20.7899 18.1955 20.6268C18.0912 20.561 17.943 20.4453 17.8603 20.2716C17.766 20.0717 17.6303 19.978 17.4334 19.978C17.1767 19.978 16.9017 20.1333 16.7827 20.2059C16.689 20.7625 17.0976 21.2671 17.3715 21.3687Z" fill="#FFFFFE"/>
<path fill-rule="evenodd" clip-rule="evenodd" d="M23.0137 19.2334C22.5402 19.7511 21.612 20.6518 21.5675 20.6966L21.5114 20.7534L18.5813 20.7071C18.5792 20.9986 18.532 21.2464 18.4865 21.4285C18.4792 21.4584 18.4708 21.49 18.4629 21.5216L21.9483 22.1513C22.3107 21.8967 23.3086 21.1644 23.6968 20.8776C23.4149 20.464 23.3883 19.9736 23.4516 19.6285C23.2662 19.5101 23.1258 19.3755 23.0137 19.2334Z" fill="#FFFFFE"/>
<path fill-rule="evenodd" clip-rule="evenodd" d="M23.4112 15.6934C22.7359 16.3657 22.0885 16.6156 21.5102 16.673C21.4044 16.684 21.2987 16.6909 21.1912 16.6909H21.1766C21.0687 16.6909 20.9618 16.684 20.8576 16.673C20.7559 16.664 20.6501 16.6477 20.5438 16.6236C20.5061 16.775 20.458 17.0908 20.5952 17.3912C20.7177 17.6627 20.9665 17.8647 21.3295 18L21.4516 18.0478L21.4537 18.1799C21.4537 18.2188 21.4825 19.0754 22.4112 19.3132C22.5631 19.1564 22.7008 19.0143 22.803 18.8954C22.6134 18.4466 22.7129 17.9883 22.9884 17.7642C22.9763 17.8115 22.8554 18.9354 23.7521 19.3532L23.8998 19.4236L23.8558 19.5815C23.8412 19.6288 23.542 20.717 24.6285 21.1215L24.8207 21.1946L24.7353 21.382C24.7164 21.4235 24.2906 22.4101 25.2936 22.9709H27.4686V21.2362C26.6949 21.1416 26.368 20.517 26.2831 20.075C25.9233 20.013 25.6456 19.8572 25.4545 19.6031C24.9982 18.9996 25.3906 18.4466 25.3958 18.4166C25.3947 18.4213 25.3958 19.0095 25.7572 19.3731C25.9369 19.5478 26.1486 19.6841 26.4696 19.7147L26.6278 19.7288L26.6414 19.8914C26.644 19.9256 26.731 20.7227 27.4686 20.8474L27.4669 17.3038C27.4669 16.755 27.6262 16.2031 27.8179 15.6934H23.4112Z" fill="#FFFFFE"/>
<path fill-rule="evenodd" clip-rule="evenodd" d="M17.5572 17.3165L17.498 19.5725L17.7536 19.612L18.378 17.4469L18.0611 16.7808L17.5572 17.3165Z" fill="#FFFFFE"/>
<path fill-rule="evenodd" clip-rule="evenodd" d="M18.9092 25.6698C18.8365 25.6676 18.783 25.6055 18.7877 25.5324C18.7934 25.4624 18.8526 25.4071 18.9244 25.4135C18.9977 25.4161 19.0491 25.4808 19.047 25.5497C19.0402 25.6213 18.9789 25.676 18.9092 25.6698ZM24.4401 27.6669C24.4594 27.6669 24.4809 27.6696 24.5019 27.6748C24.8905 27.7864 24.9885 29.1927 25.6699 29.318C25.737 29.3322 25.7983 29.3364 25.8523 29.3364C26.0497 29.3364 26.1671 29.2522 26.2938 29.1017C26.2938 29.1017 25.9507 28.5609 25.6946 28.1952C25.3536 27.7174 25.0896 27.1403 24.4553 27.1403C24.4401 27.1403 24.4217 27.1403 24.406 27.1424C24.1976 27.1529 24.0687 27.2555 24.0687 27.2555C23.8115 27.093 23.5721 27.0382 23.3563 27.0382C22.9593 27.0382 22.6502 27.2213 22.4951 27.2213H22.4894L21.073 27.0808C20.852 27.0592 20.6765 26.8351 20.6137 26.7477C20.598 26.7236 20.589 26.7098 20.589 26.7098C20.589 26.671 20.589 26.6315 20.5869 26.5963C20.5393 25.4329 19.6426 24.9352 19.323 24.9273C19.323 24.9273 19.3608 24.7058 19.2749 24.6216L18.9616 25.0025L17.9376 24.4858L18.6688 25.3441L18.0496 26.0422C17.9716 26.1216 17.9816 26.229 18.0141 26.2747L18.2812 26.512L18.6207 26.3053C18.6374 26.2926 18.6688 26.2885 18.706 26.2885C18.7998 26.2885 18.9407 26.3132 19.0669 26.3132C19.2057 26.3132 19.3246 26.2837 19.3393 26.1533C19.2968 26.5847 18.8982 27.3339 19.1596 27.9232L19.3539 28.3678L18.1016 28.1868L17.5154 29.1806C17.3347 29.5116 17.3064 29.8693 17.4802 30.0646L17.6993 30.3397C17.6993 30.3397 18.0073 30.0125 18.0758 29.7968L17.9764 29.6868C17.8926 29.5942 17.8967 29.5116 17.9481 29.4122L18.3158 28.7997L19.7934 29.1496L19.8714 29.016C19.972 28.8481 20.1165 28.7986 20.2748 28.7986C20.3403 28.7986 20.4068 28.8066 20.4765 28.8176C20.7509 28.8718 21.2024 28.9449 21.654 28.9449C22.1489 28.9449 22.6408 28.8561 22.9032 28.5609C23.4386 29.358 24.5234 29.4847 24.438 29.8899L24.152 31.2558C24.341 31.2474 24.5234 31.2352 24.6961 31.2111L24.968 29.7904C24.9979 29.6353 25.0262 29.4274 25.0262 29.4274C24.922 29.3206 24.6684 29.0955 24.5255 28.8213C24.3342 28.4519 24.438 28.2589 24.2599 27.7784C24.2599 27.7784 24.3148 27.6669 24.4401 27.6669Z" fill="#FFFFFE"/>
<path fill-rule="evenodd" clip-rule="evenodd" d="M16.8912 28.959C16.8912 28.959 17.3814 28.7564 17.4249 28.6122L17.3595 28.4481C17.3128 28.3407 17.3191 28.2251 17.4092 28.1624L17.9378 27.7946L18.8208 27.9656C18.8208 27.9656 18.6611 27.7641 18.6768 27.4958L17.8334 27.3164L17.0383 27.803C16.6974 28.0587 16.6727 28.4775 16.7853 28.7259L16.8912 28.959Z" fill="#FFFFFE"/>
<path fill-rule="evenodd" clip-rule="evenodd" d="M23.1406 31.2742C23.2983 31.268 23.4738 31.2653 23.665 31.2653C23.665 31.2653 24.1196 29.9295 24.1453 29.8873C23.8907 29.7742 23.3611 29.4923 23.1569 29.3633C23.2926 29.5664 23.6199 29.7974 23.5549 29.9762L23.1406 31.2742Z" fill="#FFFFFE"/>
<path fill-rule="evenodd" clip-rule="evenodd" d="M27.468 23.3535H14.8999V28.102C14.8999 30.0444 16.2989 31.2599 18.3638 31.2599C20.0881 31.2599 20.5433 31.3277 21.185 31.967C21.6271 31.524 21.9927 31.3588 22.7438 31.2972L22.7616 31.2235L23.1577 29.9935C23.1356 29.9655 22.4877 29.2269 22.4877 29.2269C22.2311 29.3126 22.0153 29.3268 21.6533 29.3268C21.2808 29.3268 20.8618 29.2832 20.4056 29.1974C20.36 29.1869 20.3171 29.1822 20.2746 29.1822C20.2185 29.1822 20.215 29.1869 20.2003 29.2142L20.1217 29.3447L19.9777 29.5841L19.7063 29.5209L18.4999 29.2358L18.3344 29.51L18.359 29.5394L18.5057 29.702L18.4408 29.9134C18.3518 30.1902 18.0642 30.5133 17.9762 30.6027L17.675 30.9274L17.4 30.5785L17.1937 30.3186C16.9767 30.0745 16.9265 29.702 17.0485 29.3105C17.0459 29.3126 17.0417 29.3147 17.0365 29.3153L16.6965 29.4568L16.5436 29.1227L16.4362 28.8859C16.2513 28.4692 16.3194 27.8604 16.818 27.4922L17.7887 26.9413L18.7126 27.1239C18.7347 27.0349 18.7677 26.7161 18.7943 26.635C18.776 26.633 18.7598 26.6288 18.7415 26.6288L18.2092 26.8287L17.6954 26.4725C17.6954 26.4725 17.4948 26.2784 17.6771 26.0843L18.1737 25.3276L16.9139 23.7392L18.8498 24.5379L18.9792 24.378L19.2401 24.0633L19.5371 24.3469C19.621 24.4279 19.6691 24.5278 19.6926 24.6279C20.2259 24.8367 21.1824 25.4523 21.2668 26.4535L20.9676 26.5736V26.5808C21.0363 26.6624 21.0928 26.6961 21.1106 26.6993L22.4925 26.8355C22.528 26.8297 22.571 26.814 22.6202 26.7998C22.7925 26.7409 23.0498 26.6556 23.3557 26.6556C23.605 26.6556 23.8454 26.7129 24.077 26.8219C24.1623 26.7893 24.2671 26.7656 24.3886 26.7576L24.4552 26.7561C25.1947 26.7561 25.5629 27.3112 25.8579 27.7547C25.9071 27.8315 25.9563 27.9036 26.0077 27.9752C26.2654 28.3414 26.6032 28.8769 26.6168 28.9001L26.7693 29.139L26.5828 29.3573C26.4393 29.5242 26.2229 29.7204 25.8526 29.7204C25.7762 29.7204 25.6923 29.7119 25.6023 29.6946C25.5237 29.6798 25.4513 29.6562 25.3822 29.6268C25.3723 29.7004 25.3566 29.7877 25.343 29.8629L25.101 31.133C26.5503 30.7753 27.4707 29.6762 27.4707 28.102L27.468 23.3535Z" fill="#FFE52B"/>
<path fill-rule="evenodd" clip-rule="evenodd" d="M14.9001 22.9709H24.6753C24.1872 22.4642 24.1944 21.8229 24.3186 21.4061C24.1762 21.3377 24.0588 21.2557 23.9546 21.1651C23.5722 21.4482 22.4062 22.3011 22.1013 22.5147L22.0359 22.559L18.1995 21.8623H18.1221C18.0299 21.8623 17.8952 21.8586 17.7475 21.8408C17.7061 22.0154 17.5568 22.1338 17.386 22.1338C17.3662 22.1338 17.3447 22.1322 17.3247 22.128C17.2248 22.1107 17.1373 22.0596 17.0792 21.9754C17.0194 21.8923 16.9958 21.7939 17.0121 21.6923L17.0262 21.6093C16.6313 21.3293 16.2657 20.7038 16.4275 20.0445L16.4433 19.9751L16.4993 19.9345C16.5071 19.9288 16.5731 19.883 16.6727 19.8266L16.394 19.7835C16.2898 19.7652 16.2195 19.6673 16.2358 19.5641C16.2537 19.4594 16.3515 19.3847 16.4542 19.4047L17.1184 19.5099L17.1792 17.1613L18.1671 16.111L18.7841 17.4153L18.133 19.6752L18.7202 19.7677C18.8234 19.7841 18.8941 19.8814 18.8784 19.9883C18.8632 20.0829 18.7825 20.1466 18.6903 20.1466C18.6804 20.1466 18.6699 20.1466 18.66 20.1455L18.1828 20.0682C18.1891 20.0829 18.1985 20.0913 18.2042 20.1061C18.255 20.2118 18.3677 20.2866 18.4337 20.3196L21.3581 20.3665C21.4822 20.2455 21.7886 19.9434 22.105 19.6241C21.3848 19.3495 21.1234 18.727 21.0799 18.313C20.6777 18.1409 20.4 17.8832 20.2461 17.548C20.0586 17.1329 20.125 16.7167 20.1753 16.5146C19.7851 16.372 19.3755 16.111 18.9564 15.6934H14.5508C14.7398 16.2031 14.9001 16.755 14.9001 17.3038V22.9709Z" fill="#FFE52B"/>
<path fill-rule="evenodd" clip-rule="evenodd" d="M18.9245 25.4136C18.8529 25.4068 18.7937 25.4628 18.7879 25.5335C18.7832 25.6069 18.8366 25.6691 18.9094 25.6707C18.979 25.6765 19.0404 25.6226 19.0472 25.5504C19.0493 25.4813 18.9979 25.4163 18.9245 25.4136Z" fill="#1A1919"/>
<path fill-rule="evenodd" clip-rule="evenodd" d="M24.7503 35.3704L24.1762 33.7842C24.8592 33.5753 26.0336 33.126 26.56 32.8271L26.2091 33.9814L27.3981 34.3787C26.6789 34.7412 25.8068 35.0795 24.7503 35.3704ZM21.1859 36.7963C19.802 36.7963 18.2232 36.4765 17.7576 36.3101L18.4646 34.3892C19.0508 34.5613 20.2707 34.7439 21.156 34.7381H21.212C22.0972 34.7439 23.3156 34.5613 23.9049 34.3892L24.6104 36.3101C24.1453 36.4765 22.566 36.7963 21.1859 36.7963ZM14.9698 34.3787L16.1609 33.9814L15.8085 32.8271C16.3338 33.126 17.5103 33.5753 18.1917 33.7842L17.6171 35.3704C16.5643 35.0795 15.6885 34.7412 14.9698 34.3787ZM27.4515 34.0262L26.7276 33.7473L26.9277 32.9954L27.1478 32.1768C27.1478 32.1768 25.865 32.8761 24.0568 33.4006C23.544 33.5479 23.1558 33.6158 23.1558 33.6158V34.1735C23.1558 34.1735 22.1889 34.3419 21.212 34.3419H21.156C20.1781 34.3419 19.2127 34.1735 19.2127 34.1735V33.6158C19.2127 33.6158 18.8234 33.5479 18.3112 33.4006C16.5036 32.8761 15.2218 32.1768 15.2218 32.1768L15.4386 32.9954L15.6429 33.7473L14.9164 34.0262L14.1108 34.3282C15.0338 34.7765 16.3134 35.4278 17.4842 35.7499L17.2081 36.508C17.2081 36.508 18.693 37.1873 21.167 37.1935V37.1951H21.2005V37.1935C23.677 37.1873 25.161 36.508 25.161 36.508L24.8833 35.7499C26.0546 35.4278 27.3364 34.7765 28.2551 34.3282L27.4515 34.0262Z" fill="#1A1919"/>
<path fill-rule="evenodd" clip-rule="evenodd" d="M18.1604 3.45166L18.4893 3.48639L18.6318 3.18492L19.0461 2.29416L19.8161 2.69402L20.1142 2.84713L21.1822 1.78327L22.0146 2.61089L22.2529 2.84713L22.5514 2.69402L23.3167 2.29416L23.7373 3.18492L23.8766 3.48639L24.2056 3.45166L24.5205 3.41379C24.3763 3.73947 24.27 4.04937 24.1941 4.30559C23.3633 3.84048 22.2838 3.57584 21.1822 3.57584C20.0859 3.57584 19.0074 3.84048 18.1734 4.30559C18.0965 4.04937 17.9912 3.73947 17.8472 3.41379L18.1604 3.45166ZM21.1822 4.04042C22.6562 4.04042 23.8353 4.53131 24.4869 5.05377C24.4869 5.05377 24.6802 3.88364 25.3407 2.85134L24.1537 2.98709L23.5325 1.66174L22.3398 2.27943L21.1822 1.13086L20.0282 2.27943L18.833 1.66174L18.2128 2.98709L17.0259 2.85134C17.6869 3.88364 17.8796 5.05377 17.8796 5.05377C18.5355 4.53131 19.7109 4.04042 21.1822 4.04042Z" fill="#1A1919"/>
<path fill-rule="evenodd" clip-rule="evenodd" d="M39.8618 23.723C39.8618 23.723 39.3491 24.6201 38.1715 24.6201H38.1568C36.7436 24.6116 36.1737 23.7457 36.1737 23.7457C36.1737 23.7457 36.2554 24.8721 35.7468 26.3927C35.1335 28.2252 35.752 29.5342 35.752 29.5342C35.752 29.5342 35.4215 29.6241 35.0418 29.6241C34.8968 29.6241 34.7448 29.6095 34.6018 29.5721C33.4212 29.2906 33.1268 28.211 33.1268 28.211C33.1268 28.211 33.2352 31.8566 29.0034 31.8566H28.9704C28.9704 31.8566 29.3434 31.3473 29.4534 29.8814C29.6545 27.176 31.4778 26.8047 31.4778 26.8047C31.4778 26.8047 30.5046 26.682 30.083 26.3027C29.4235 25.7019 29.4701 25.0084 29.4701 25.0084C30.9587 24.9874 31.9346 24.478 32.6779 23.6147C33.4829 22.6791 33.6154 21.6715 33.6154 21.6715C33.6154 21.6715 32.8146 22.4008 31.2667 22.4008C31.1305 22.4008 30.9849 22.394 30.8357 22.3798C30.1029 22.3198 29.5968 21.8526 29.5968 21.8526C31.2087 20.814 32.3389 19.003 31.3364 16.276C30.5329 14.0899 28.6032 12.4573 26.6599 11.2271C26.0135 10.822 25.6532 10.3706 25.6532 9.98284C25.6532 9.06945 26.9464 9.03999 27.476 8.42703C28.0884 7.71359 27.7044 6.55712 27.1742 5.86052C27.1742 5.86052 27.3529 5.82422 27.6347 5.82422C28.1936 5.82422 29.1616 5.96522 29.9572 6.79389C31.0133 7.89142 30.5753 9.08733 30.5753 9.08733L30.8582 9.14259C31.0274 9.17836 31.1961 9.1852 31.3709 9.19415C31.4087 9.19415 31.4474 9.19625 31.4846 9.19625C33.0194 9.19625 33.7056 7.58468 33.7056 7.58468C33.7056 7.58468 35.3367 9.60032 32.9345 11.1803C32.5213 11.4502 32.3389 11.7012 32.3866 11.968L32.4243 12.1431L32.5951 12.1736C34.3362 12.6478 35.2172 13.8547 36.2932 15.2258C37.9274 17.3119 40.2385 17.3793 40.5234 17.3793H40.5544C40.5544 17.3793 40.0273 19.0519 38.4727 19.0519C38.4465 19.0519 38.4246 19.0519 38.3988 19.0503C37.6849 19.0246 37.3183 18.7499 37.3183 18.7499C37.3183 18.7499 37.0401 22.5465 39.8618 23.723ZM38.4727 19.5639C40.3784 19.5639 41.0163 17.6166 41.0425 17.533L41.2557 16.8463L40.5412 16.869H40.5386C40.2866 16.869 38.1836 16.8127 36.6928 14.9096L36.5519 14.7328C35.5777 13.489 34.6542 12.3052 33.0022 11.7654C33.0497 11.7217 33.1184 11.6691 33.2122 11.6076C34.089 11.0288 34.5987 10.3253 34.7264 9.50877C34.914 8.28076 34.1335 7.30109 34.0994 7.26111L33.5688 6.60185L33.2373 7.38369C33.2147 7.43262 32.6579 8.68432 31.4846 8.68432H31.3971C31.317 8.68011 31.2401 8.67694 31.1652 8.67064C31.206 8.1124 31.1049 7.24848 30.3244 6.43717C29.3863 5.4617 28.2361 5.31543 27.6347 5.31543C27.3131 5.31543 27.0993 5.35542 27.0758 5.35752L26.2749 5.51747L26.7688 6.17199C27.157 6.67656 27.5084 7.60782 27.0915 8.09398C26.958 8.2492 26.684 8.37442 26.4216 8.50069C25.8821 8.74956 25.1445 9.09839 25.1445 9.98284C25.1445 10.5553 25.5872 11.1545 26.3891 11.6639C28.762 13.1629 30.226 14.727 30.8582 16.4538C31.8367 19.1098 30.5601 20.6245 29.3209 21.4232L28.7645 21.7821L29.2516 22.2314C29.3172 22.2892 29.9116 22.8159 30.7917 22.8917C30.9582 22.9027 31.1175 22.9117 31.2667 22.9117C31.8299 22.9117 32.3102 22.8228 32.7004 22.7033C32.5935 22.8917 32.4605 23.0848 32.295 23.2784C31.5867 24.1029 30.7152 24.478 29.4617 24.4985L28.996 24.5059L28.9605 24.9752C28.9557 25.07 28.9211 25.9402 29.7404 26.6799C29.8661 26.7946 30.0175 26.8888 30.1767 26.9656C29.6205 27.4686 29.0558 28.3447 28.9463 29.8447C28.8536 31.0969 28.5566 31.5604 28.553 31.5652L28.0385 32.3543L28.9688 32.367C30.5056 32.367 31.6826 31.9414 32.4982 31.0969C32.9801 30.5976 33.2562 30.0335 33.4185 29.5342C33.6862 29.7631 34.0314 29.9641 34.4819 30.0709C34.6526 30.1109 34.8391 30.133 35.0418 30.133C35.476 30.133 35.8395 30.0404 35.8799 30.0304L36.4739 29.872L36.2115 29.3153C36.1921 29.2706 35.6965 28.1525 36.2298 26.5589C36.4592 25.8692 36.5766 25.252 36.6336 24.7711C37.0076 24.9668 37.5089 25.1283 38.1564 25.1304C39.6266 25.1304 40.2751 24.0271 40.3039 23.9808L40.5936 23.4742L40.0567 23.2521C38.3046 22.5213 37.9164 20.5588 37.8389 19.4965C37.9971 19.5275 38.1783 19.5555 38.3826 19.5612L38.4727 19.5639Z" fill="#1A1919"/>
<path fill-rule="evenodd" clip-rule="evenodd" d="M36.331 11.2326C36.6861 11.2326 37.1 11.3541 37.4913 11.7602C38.7195 13.0126 39.8619 13.0825 39.8619 13.0825C39.6546 13.5444 39.0527 13.9496 38.4294 13.9496C38.2853 13.9496 38.1402 13.9275 37.9972 13.8775C37.1518 13.5913 36.8495 12.3185 35.3657 11.5251C35.3657 11.5251 35.7795 11.2326 36.331 11.2326ZM35.1237 11.9776C35.8344 12.3579 36.2487 12.8678 36.6118 13.3198C36.969 13.7612 37.3069 14.1853 37.8375 14.362C38.0255 14.4267 38.2256 14.4578 38.4294 14.4578C39.224 14.4578 40.0233 13.969 40.3261 13.2919L40.6309 12.6137L39.8934 12.5695C39.8588 12.569 38.9102 12.4817 37.8559 11.3993C37.4216 10.9548 36.8962 10.7217 36.331 10.7217C35.6401 10.7217 35.1278 11.0684 35.0713 11.1042L34.394 11.5835L35.1237 11.9776Z" fill="#1A1919"/>
<path fill-rule="evenodd" clip-rule="evenodd" d="M35.4576 18.739V18.7653C35.0301 15.298 32.5237 12.7942 29.7345 11.2725C29.4768 11.1336 29.2379 11.0157 29.0075 10.9032C29.856 11.0357 31.2237 11.0515 32.2797 10.1318C32.2797 10.1318 30.6642 11.3251 27.3564 10.2413C28.2715 10.8379 30.0509 11.6803 31.6762 13.0445C35.7367 16.6291 32.8318 20.1254 32.8318 20.1254C34.291 18.5953 34.3519 16.9564 33.9223 15.6179C34.6907 16.9033 35.1821 18.4622 35.1056 20.3858C34.994 23.1407 33.486 25.5236 31.8999 27.4377C31.1377 28.3668 30.9675 29.5086 30.9675 29.5086C30.9675 29.5086 31.2751 28.501 32.1571 27.4645C33.8574 25.4651 35.3109 23.389 35.5015 20.3963C35.6771 20.9398 36.4015 22.4488 37.5502 23.0176C37.5502 23.0176 36.1066 22.1436 35.4576 18.739Z" fill="#1A1919"/>
<path fill-rule="evenodd" clip-rule="evenodd" d="M13.3643 31.8566C9.13205 31.8566 9.23995 28.211 9.23995 28.211C9.23995 28.211 8.94452 29.2906 7.76545 29.5721C7.62402 29.6095 7.47316 29.6241 7.32598 29.6241C6.94621 29.6241 6.61727 29.5342 6.61727 29.5342C6.61727 29.5342 7.23274 28.2252 6.61936 26.3927C6.11232 24.8726 6.19456 23.7457 6.19456 23.7457C6.19456 23.7457 5.62571 24.6116 4.21092 24.6201H4.19678C3.02031 24.6201 2.50646 23.723 2.50646 23.723C5.32609 22.5465 5.05006 18.7499 5.05006 18.7499C5.05006 18.7499 4.68339 19.0246 3.96839 19.0503C3.94221 19.0519 3.91916 19.0519 3.89455 19.0519C2.33885 19.0519 1.8119 17.3793 1.8119 17.3793H1.84333C2.1309 17.3793 4.4393 17.3115 6.07252 15.2258C7.14893 13.8541 8.03102 12.6483 9.76952 12.1736L9.94394 12.1427L9.98113 11.968C10.0293 11.7012 9.84757 11.4502 9.43428 11.1803C7.03265 9.60032 8.66377 7.5852 8.66377 7.5852C8.66377 7.5852 9.34576 9.19625 10.8847 9.19625C10.9219 9.19625 10.957 9.19467 10.9968 9.19467C11.1697 9.1852 11.3404 9.17836 11.5091 9.14259L11.7919 9.08733C11.7919 9.08733 11.3525 7.89142 12.4115 6.79389C13.2073 5.96522 14.1741 5.82422 14.733 5.82422C15.0165 5.82422 15.1924 5.86052 15.1924 5.86052C14.6634 6.55712 14.2799 7.71359 14.8918 8.42703C15.4213 9.03999 16.713 9.06945 16.713 9.98284C16.713 10.3706 16.3532 10.822 15.7078 11.2271C13.7629 12.4573 11.8338 14.0899 11.0308 16.276C10.0293 19.0035 11.1596 20.814 12.7736 21.8526C12.7736 21.8526 12.266 22.3198 11.5322 22.3798C11.3828 22.394 11.2382 22.4008 11.0995 22.4008C9.55319 22.4008 8.75281 21.6715 8.75281 21.6715C8.75281 21.6715 8.88586 22.6791 9.68623 23.6151C10.4342 24.478 11.4085 24.9874 12.8976 25.0084C12.8976 25.0084 12.9448 25.7019 12.2863 26.3022C11.8637 26.682 10.8899 26.8047 10.8899 26.8047C10.8899 26.8047 12.7148 27.176 12.9155 29.881C13.0245 31.3473 13.3948 31.8566 13.3948 31.8566H13.3643ZM13.8143 31.5652C13.8128 31.5604 13.5173 31.0969 13.4225 29.8447C13.312 28.3441 12.7474 27.4686 12.1895 26.9656C12.3508 26.8888 12.5001 26.7946 12.6258 26.6799C13.445 25.9402 13.4105 25.07 13.4047 24.9752L13.3733 24.5059L12.904 24.4985C11.6541 24.478 10.781 24.1029 10.0728 23.2784C9.90833 23.0848 9.77528 22.8917 9.66737 22.7033C10.0571 22.8228 10.5343 22.9117 11.0995 22.9117C11.2508 22.9117 11.4085 22.9027 11.5751 22.8917C12.4551 22.8159 13.0506 22.2898 13.1167 22.2314L13.6038 21.7821L13.048 21.4232C11.8039 20.6245 10.5327 19.1098 11.5091 16.4538C12.1418 14.727 13.6038 13.1629 15.9802 11.6639C16.7822 11.1545 17.2211 10.5553 17.2211 9.98284C17.2211 9.09839 16.4857 8.74956 15.9462 8.50069C15.6833 8.37442 15.4093 8.2492 15.2762 8.09398C14.8582 7.60782 15.2102 6.67656 15.5984 6.17199L16.0961 5.51747L15.2904 5.35752C15.2669 5.35489 15.0557 5.31543 14.733 5.31543C14.1318 5.31543 12.9836 5.4617 12.0459 6.43717C11.2644 7.249 11.1618 8.1124 11.2021 8.67064C11.1267 8.67694 11.0507 8.68011 10.9706 8.68432H10.8847C9.70824 8.68432 9.15248 7.43262 9.13101 7.38369L8.80049 6.60185L8.26463 7.26111C8.23477 7.30109 7.45222 8.28076 7.64288 9.50877C7.76912 10.3253 8.27982 11.0288 9.15614 11.6076C9.25148 11.6691 9.318 11.7217 9.36567 11.7654C7.7115 12.3052 6.78908 13.489 5.81481 14.7328L5.67443 14.9096C4.18578 16.8127 2.078 16.869 1.82605 16.869L1.10791 16.8463L1.32633 17.533C1.352 17.6166 1.98738 19.5639 3.89455 19.5639L3.98621 19.5612C4.1884 19.5555 4.36911 19.5275 4.52992 19.4965C4.45135 20.5582 4.06216 22.5213 2.30951 23.2521L1.77418 23.4742L2.06385 23.9808C2.09161 24.0271 2.74217 25.1304 4.21511 25.1304C4.85887 25.1283 5.35962 24.9668 5.73414 24.7717C5.79071 25.252 5.90856 25.8692 6.13852 26.5589C6.67175 28.1525 6.17518 29.2706 6.15633 29.3153L5.89286 29.872L6.48789 30.0304C6.52718 30.0404 6.89331 30.133 7.32598 30.133C7.52816 30.133 7.71516 30.1109 7.88435 30.0709C8.33535 29.9641 8.68419 29.7631 8.94924 29.5342C9.11057 30.0335 9.38767 30.5976 9.86851 31.0969C10.6862 31.9414 11.8621 32.367 13.3984 32.367L14.3292 32.3543L13.8143 31.5652Z" fill="#1A1919"/>
<path fill-rule="evenodd" clip-rule="evenodd" d="M4.87524 11.7592C5.26809 11.3535 5.68136 11.2315 6.0386 11.2315C6.58702 11.2315 7.0024 11.5245 7.0024 11.5245C5.52004 12.3179 5.21413 13.5907 4.36766 13.8775C4.22782 13.9275 4.08272 13.9485 3.93815 13.9485C3.31535 13.9485 2.71245 13.5439 2.50659 13.082C2.50659 13.082 3.64849 13.012 4.87524 11.7592ZM3.93815 14.4572C4.14243 14.4572 4.342 14.4267 4.53057 14.362C5.06223 14.1848 5.40008 13.7612 5.75679 13.3192C6.12188 12.8678 6.5315 12.3574 7.24282 11.9771L7.97458 11.583L7.2952 11.1031C7.23863 11.0674 6.72897 10.7217 6.0386 10.7217C5.47184 10.7217 4.94595 10.9542 4.51223 11.3988C3.45625 12.4816 2.51026 12.5684 2.47622 12.5695L1.73975 12.6131L2.04198 13.2919C2.34631 13.9685 3.14406 14.4572 3.93815 14.4572Z" fill="#1A1919"/>
<path fill-rule="evenodd" clip-rule="evenodd" d="M7.26348 20.3858C7.18438 18.4622 7.67623 16.9033 8.4457 15.6179C8.01671 16.9564 8.07485 18.5953 9.53625 20.1259C9.53625 20.1259 6.63019 16.6291 10.6933 13.0445C12.3177 11.6803 14.0955 10.8379 15.0105 10.2413C11.7037 11.3251 10.0889 10.1318 10.0889 10.1318C11.1438 11.0515 12.512 11.0357 13.36 10.9032C13.1306 11.0157 12.8896 11.1331 12.6335 11.2725C9.84321 12.7942 7.33838 15.298 6.90886 18.7653V18.739C6.26092 22.1436 4.81836 23.0176 4.81836 23.0176C5.96602 22.4488 6.68886 20.9398 6.86486 20.3963C7.05658 23.389 8.51012 25.4651 10.2099 27.4645C11.0919 28.501 11.4025 29.5086 11.4025 29.5086C11.4025 29.5086 11.2302 28.3668 10.4644 27.4377C8.88098 25.524 7.37452 23.1407 7.26348 20.3858Z" fill="#1A1919"/>
<path fill-rule="evenodd" clip-rule="evenodd" d="M20.2275 13.3711V14.0588C20.4643 13.7699 20.9195 13.8288 20.9195 13.8288V14.82C20.9195 14.82 20.9044 15.3078 20.7315 15.5188H21.7188C21.5481 15.3078 21.5314 14.82 21.5314 14.82V13.8288C21.5314 13.8288 21.988 13.7699 22.2227 14.0588V13.3711H20.2275Z" fill="#1A1919"/>
<path fill-rule="evenodd" clip-rule="evenodd" d="M19.8042 9.29312C20.1201 9.54461 20.3023 9.5867 20.3081 9.59038L20.4317 9.64774V9.00058L19.2715 8.51074C19.2715 8.51074 19.2814 8.88588 19.8042 9.29312Z" fill="#1A1919"/>
<path fill-rule="evenodd" clip-rule="evenodd" d="M22.5624 9.29312C23.0868 8.88588 23.0968 8.51074 23.0968 8.51074L21.9365 9.00058V9.64774L22.059 9.59038C22.0654 9.5867 22.2471 9.54461 22.5624 9.29312Z" fill="#1A1919"/>
<path fill-rule="evenodd" clip-rule="evenodd" d="M21.1829 7.56859L18.3885 6.45949C18.6262 5.89441 19.7221 5.41352 21.1829 5.41194C22.6459 5.41352 23.7418 5.89441 23.9785 6.45949L21.1829 7.56859ZM23.2666 11.0427L21.3883 12.0371V8.01108L23.9371 7.14189L23.2666 11.0427ZM24.43 12.1113L25.289 12.6122H25.3011L25.5169 12.7389C25.0319 12.8737 24.6615 13.1173 24.3504 13.4371C24.3389 13.4472 24.3289 13.4587 24.3164 13.4709C24.245 13.5471 24.1744 13.6293 24.1063 13.7144C24.0942 13.7302 24.0806 13.7471 24.0665 13.7661C24.0005 13.8518 23.9371 13.9402 23.8774 14.0312C23.8674 14.0469 23.8559 14.0628 23.8454 14.078C23.7748 14.1848 23.7061 14.2985 23.6385 14.4163C23.0267 15.4749 22.0509 16.1073 21.1829 16.1089C20.3161 16.1073 19.3397 15.4749 18.7289 14.4163C18.6625 14.3016 18.5954 14.1906 18.5247 14.0828C18.5105 14.0628 18.4979 14.0417 18.4849 14.0243C18.4251 13.9365 18.3644 13.8502 18.3036 13.7692C18.2879 13.7471 18.2738 13.7302 18.2581 13.7113C18.1915 13.6293 18.1234 13.5482 18.0543 13.4735C18.0396 13.4614 18.0297 13.4472 18.0171 13.4351C17.7044 13.1147 17.3351 12.8737 16.8496 12.7389L17.0674 12.6122H17.0774L17.938 12.1113L18.8206 11.6035L21.1787 12.8932L21.1829 12.8879L21.1897 12.8932L23.5474 11.6035L24.43 12.1113ZM27.8184 15.6928C27.6263 16.2025 27.467 16.7545 27.467 17.3033L27.4685 20.8462C26.7316 20.7221 26.6446 19.925 26.6415 19.8903L26.6279 19.7283L26.4691 19.7141C26.1491 19.683 25.9364 19.5472 25.7573 19.3726C25.3959 19.0095 25.3954 18.4213 25.3959 18.416C25.3907 18.446 24.9983 18.9984 25.454 19.602C25.6457 19.8561 25.9238 20.0129 26.2832 20.0744C26.3676 20.5164 26.6954 21.141 27.4685 21.2362V22.9703H25.2937C24.2912 22.4095 24.716 21.4235 24.7354 21.3808L24.8202 21.194L24.6285 21.121C23.5421 20.7164 23.8418 19.6282 23.8559 19.5814L23.8999 19.4226L23.7517 19.3526C22.8555 18.9348 22.9764 17.8105 22.9885 17.7631C22.7125 17.9883 22.6135 18.446 22.8031 18.8954C22.7004 19.0137 22.5627 19.1558 22.4113 19.3132C21.4826 19.0753 21.4538 18.2182 21.4538 18.1787L21.4517 18.0466L21.3296 17.9994C20.9671 17.8647 20.7183 17.6621 20.5953 17.3906C20.458 17.0896 20.5062 16.7745 20.5439 16.6224C20.6502 16.6471 20.756 16.6634 20.8571 16.6724C20.9619 16.6829 21.0688 16.6898 21.1767 16.6898H21.1913C21.2988 16.6898 21.405 16.6829 21.5098 16.6724C22.0886 16.6145 22.736 16.3651 23.4112 15.6928H27.8184ZM25.101 31.1328L25.344 29.8617C25.3566 29.787 25.3723 29.6997 25.3828 29.6265C25.4519 29.6554 25.5237 29.6787 25.6023 29.6933C25.6934 29.7107 25.7767 29.7197 25.8526 29.7197C26.2235 29.7197 26.4398 29.524 26.5834 29.3566L26.7693 29.1388L26.6174 28.8994C26.6038 28.8757 26.2665 28.3406 26.0077 27.9745C25.9564 27.9024 25.9081 27.8309 25.859 27.7534C25.564 27.3105 25.1953 26.7553 24.4552 26.7553L24.3892 26.7569C24.2677 26.7648 24.1629 26.7891 24.078 26.8212C23.8454 26.7122 23.6056 26.6554 23.3562 26.6554C23.0498 26.6554 22.7931 26.7401 22.6213 26.7985C22.572 26.8127 22.5281 26.8286 22.4935 26.8354L21.1107 26.6986C21.0933 26.6949 21.0374 26.6617 20.9681 26.5802V26.5733L21.2673 26.4528C21.1829 25.4516 20.226 24.836 19.6927 24.6271C19.6697 24.5272 19.6215 24.4272 19.5377 24.3457L19.2406 24.0626L18.9794 24.3772L18.8509 24.5372L16.9144 23.7385L18.1742 25.3269L17.6771 26.0835C17.4954 26.2771 17.696 26.4724 17.696 26.4724L18.2098 26.8274L18.742 26.628C18.7603 26.628 18.7766 26.6323 18.7949 26.6343C18.7687 26.7153 18.7352 27.0342 18.7132 27.1232L17.7892 26.9411L16.8186 27.4914C16.3194 27.8597 16.2513 28.4685 16.4368 28.8857L16.5441 29.122L16.6971 29.456L17.037 29.3151C17.0417 29.3134 17.0465 29.3119 17.0496 29.3093C16.9276 29.7012 16.9773 30.0738 17.1947 30.3178L17.4011 30.5783L17.6755 30.9266L17.9767 30.6015C18.0648 30.5131 18.3528 30.1895 18.4409 29.9127L18.5063 29.7012L18.3596 29.5386L18.3351 29.5092L18.5005 29.2351L19.7063 29.5207L19.9782 29.5833L20.1222 29.3439L20.2008 29.2141C20.216 29.1861 20.2192 29.182 20.2752 29.182C20.3182 29.182 20.3605 29.1861 20.4067 29.1966C20.8618 29.2829 21.2814 29.3256 21.6539 29.3256C22.0153 29.3256 22.2316 29.3119 22.4888 29.2261C22.4888 29.2261 23.1362 29.9648 23.1587 29.9933L22.7616 31.2224L22.7444 31.2965C21.9933 31.3575 21.6277 31.5232 21.1856 31.9663C20.5439 31.327 20.0892 31.2597 18.3644 31.2597C16.2995 31.2597 14.8999 30.0438 14.8999 28.1012V23.3528H27.4685L27.4712 28.1012C27.4712 29.6754 26.5508 30.7745 25.101 31.1328ZM17.3597 28.448L17.4252 28.6121C17.3817 28.7557 16.8915 28.9589 16.8915 28.9589L16.7856 28.7258C16.673 28.4774 16.6971 28.0586 17.0386 27.8024L17.8337 27.3163L18.6771 27.4957C18.6613 27.7645 18.8211 27.9655 18.8211 27.9655L17.938 27.795L17.4095 28.1618C17.3194 28.2248 17.313 28.3406 17.3597 28.448ZM24.9679 29.7902L24.6971 31.2102C24.5233 31.235 24.3409 31.2476 24.1524 31.2549L24.4383 29.8901C24.5233 29.4844 23.4389 29.3582 22.9031 28.5606C22.6417 28.8557 22.1494 28.9441 21.6539 28.9441C21.2023 28.9441 20.7513 28.8721 20.4769 28.8173C20.4072 28.8062 20.3407 28.7984 20.2752 28.7984C20.117 28.7984 19.9724 28.8478 19.8724 29.0157L19.7938 29.1493L18.3161 28.8L17.9485 29.4113C17.8971 29.5108 17.8929 29.5939 17.9767 29.6865L18.0763 29.7959C18.0077 30.0122 17.7002 30.3394 17.7002 30.3394L17.4807 30.0637C17.3068 29.8686 17.3351 29.5108 17.5164 29.1799L18.1024 28.1859L19.3543 28.3674L19.16 27.9224C18.8987 27.3331 19.2973 26.5843 19.3397 26.1529C19.325 26.2835 19.2056 26.3129 19.0673 26.3129C18.9411 26.3129 18.8001 26.2887 18.7064 26.2887C18.6693 26.2887 18.6378 26.2924 18.621 26.305L18.2816 26.5118L18.0145 26.274C17.982 26.2287 17.972 26.1214 18.0501 26.0414L18.6693 25.3438L17.938 24.4851L18.962 25.0023L19.2753 24.6213C19.3611 24.706 19.3235 24.927 19.3235 24.927C19.6429 24.9349 20.5397 25.4326 20.5874 26.5954C20.59 26.6312 20.59 26.6706 20.59 26.7091C20.59 26.7091 20.5984 26.7238 20.6141 26.7475C20.677 26.8354 20.8524 27.0595 21.074 27.08L22.4899 27.221H22.4956C22.6506 27.221 22.9597 27.0379 23.3562 27.0379C23.5726 27.0379 23.8124 27.0932 24.0686 27.2552C24.0686 27.2552 24.198 27.1526 24.4064 27.142C24.4222 27.1399 24.4404 27.1399 24.4552 27.1399C25.09 27.1399 25.354 27.7166 25.695 28.1954C25.9511 28.5606 26.2937 29.1014 26.2937 29.1014C26.1675 29.2519 26.0501 29.3361 25.8526 29.3361C25.7987 29.3361 25.7374 29.3319 25.6704 29.3182C24.9889 29.1919 24.891 27.7856 24.5023 27.6745C24.4813 27.6688 24.4604 27.6667 24.4404 27.6667C24.3153 27.6667 24.2608 27.7782 24.2608 27.7782C24.4384 28.258 24.3341 28.4516 24.5258 28.821C24.6683 29.0951 24.9224 29.3203 25.0266 29.4271C25.0266 29.4271 24.9983 29.635 24.9679 29.7902ZM23.6647 31.2644C23.474 31.2644 23.2986 31.2671 23.141 31.2733L23.5557 29.9758C23.6202 29.7959 23.2928 29.565 23.1571 29.3624C23.3614 29.4913 23.891 29.7739 24.1456 29.8864C24.1199 29.9286 23.6647 31.2644 23.6647 31.2644ZM17.498 19.5725L17.5572 17.3169L18.0611 16.7814L18.3774 17.4469L17.7536 19.6119L17.498 19.5725ZM17.8605 20.2712C17.9427 20.4449 18.091 20.5606 18.1952 20.6264C18.1915 20.7895 18.1763 21.0415 18.1339 21.2646C18.1234 21.3145 18.1108 21.3604 18.0972 21.4061C18.0898 21.435 18.0815 21.4587 18.0757 21.4777C17.9212 21.4777 17.6195 21.4587 17.3718 21.3682C17.0978 21.2667 16.6893 20.7621 16.7836 20.2055C16.902 20.1328 17.1764 19.9776 17.4335 19.9776C17.6311 19.9776 17.7662 20.0713 17.8605 20.2712ZM23.6972 20.8773C23.3096 21.1641 22.3112 21.8965 21.9487 22.1506L18.4628 21.5213C18.4712 21.4903 18.4796 21.4587 18.4869 21.4282C18.5325 21.2461 18.5796 20.9983 18.5818 20.7063L21.5119 20.7537L21.5679 20.6964C21.6124 20.6517 22.5406 19.7508 23.0137 19.2326C23.1262 19.3746 23.2666 19.5099 23.4515 19.6282C23.3886 19.9735 23.4154 20.4638 23.6972 20.8773ZM18.9567 15.6928C19.3758 16.111 19.7859 16.371 20.1756 16.514C20.1253 16.7161 20.0589 17.1327 20.2464 17.5479C20.3999 17.8826 20.678 18.1403 21.0803 18.3124C21.1243 18.7265 21.3851 19.3489 22.1053 19.623C21.7895 19.943 21.4826 20.2444 21.3584 20.3659L18.4345 20.3196C18.3685 20.2865 18.2549 20.2112 18.2045 20.1055C18.1989 20.0903 18.1894 20.0823 18.1831 20.0676L18.6603 20.1449C18.6703 20.1465 18.6807 20.1465 18.6907 20.1465C18.7828 20.1465 18.863 20.0823 18.8783 19.9871C18.894 19.8814 18.8237 19.7835 18.7205 19.7671L18.1339 19.674L18.7844 17.4148L18.1679 16.111L17.1795 17.1607L17.1188 19.5099L16.4545 19.4036C16.3519 19.3836 16.254 19.4589 16.2356 19.5635C16.2199 19.6667 16.2901 19.765 16.3943 19.7835L16.673 19.826C16.5735 19.8829 16.5075 19.9282 16.4997 19.9345L16.4436 19.9739L16.4279 20.0439C16.2665 20.7032 16.6316 21.3287 17.0266 21.6087L17.0124 21.6918C16.9961 21.7933 17.0192 21.8922 17.08 21.9748C17.1376 22.0596 17.2251 22.1101 17.3246 22.128C17.345 22.1316 17.367 22.1332 17.3859 22.1332C17.5572 22.1332 17.7065 22.0143 17.7483 21.8407C17.895 21.858 18.0297 21.8617 18.1218 21.8617H18.2004L22.0362 22.5584L22.1016 22.5147C22.4071 22.3 23.5726 21.4471 23.9543 21.1647C24.0597 21.2556 24.177 21.3377 24.3189 21.4061C24.1948 21.8223 24.1875 22.4637 24.6762 22.9703H14.8999V17.3033C14.8999 16.7545 14.7402 16.2025 14.5511 15.6928H18.9567ZM18.4283 7.14189L20.9792 8.01108V12.0371L19.1009 11.0427L18.4283 7.14189ZM24.6521 6.65626C24.6521 5.67396 23.0058 4.79004 21.1887 4.79004H21.1787C19.3617 4.79004 17.7153 5.67396 17.7153 6.65626L17.7515 6.89776L18.477 11.0811L17.7483 11.5063L15.8626 12.6122H15.8694C15.8694 12.6122 15.4452 12.831 15.2488 12.9657C14.5306 13.4666 14.3782 14.1975 14.7951 14.4995C14.8978 13.9033 15.3666 13.2809 16.2451 13.2809C16.8773 13.2809 17.3597 13.6087 17.7483 14.1001C17.849 14.2243 17.9437 14.3568 18.0322 14.4995C18.1412 14.6794 18.2513 14.8372 18.3596 14.9893H13.5024C13.8597 15.7101 14.1991 16.4736 14.1991 17.3033V28.1012C14.1991 30.7151 16.2 31.9626 18.3644 31.9626C20.0374 31.9626 20.2627 31.8858 21.1856 32.8096C22.1043 31.8858 22.33 31.9626 24.0042 31.9626C26.1701 31.9626 28.1683 30.7151 28.1683 28.1012V17.3033C28.1683 16.4736 28.5073 15.7101 28.8661 14.9893H24.0073C24.1157 14.8372 24.2252 14.6794 24.3341 14.4995C24.4243 14.3568 24.5185 14.2243 24.617 14.1001C25.0094 13.6066 25.4901 13.2809 26.1229 13.2809C27.0003 13.2809 27.4685 13.9033 27.5728 14.4995C27.9898 14.1975 27.8389 13.4666 27.1165 12.9657C26.9232 12.831 26.4984 12.6122 26.4984 12.6122H26.5054L24.617 11.5063L23.891 11.0811L24.617 6.89776L24.6521 6.65626Z" fill="#1A1919"/>
<path d="M55.8668 24.6551H59.2108V16.854H63.8033V14.0151H51.2744V16.854H55.8668V24.6551Z" fill="black"/>
<path d="M73.9475 14.0151L68.3741 20.2069V14.0151H65.1416V24.6551H67.9951L73.5685 18.4634V24.6551H76.801V14.0151H73.9475Z" fill="black"/>
<path d="M82.4816 20.6987H87.6759V24.6551H90.9084V14.0151H87.6759V17.9045H82.4816V14.0151H79.249V24.6551H82.4816V20.6987Z" fill="black"/>
<path d="M99.9112 24.6551C100.647 24.6551 101.316 24.5881 101.94 24.4093C103.612 23.9398 104.704 22.5763 104.704 20.721C104.704 18.9551 103.768 17.7257 102.274 17.1669C101.561 16.8987 100.714 16.8763 99.9112 16.8763H96.5895V14.0151H93.3569V24.6551H99.9112ZM96.5895 19.3798H99.3538C99.7997 19.3798 100.223 19.3798 100.602 19.514C101.137 19.6928 101.449 20.1398 101.449 20.6763C101.449 21.2351 101.137 21.7045 100.625 21.9281C100.268 22.0845 99.9112 22.0845 99.3538 22.0845H96.5895V19.3798Z" fill="black"/>
<path d="M109.609 20.6316H110.5L114.357 24.6551H118.66L113.287 19.1116L118.459 14.0151H114.402L110.5 18.0163H109.609V14.0151H106.376V24.6551H109.609V20.6316Z" fill="black"/>
<path d="M125.311 13.7246C120.964 13.7246 118.355 16.1834 118.355 19.3575C118.355 22.5317 120.964 24.9905 125.311 24.9905C129.636 24.9905 132.244 22.5317 132.244 19.3575C132.244 16.1834 129.636 13.7246 125.311 13.7246ZM125.311 22.3975C123.149 22.3975 121.766 21.1011 121.766 19.3575C121.766 17.614 123.149 16.3399 125.311 16.3399C127.451 16.3399 128.856 17.614 128.856 19.3575C128.856 21.1011 127.451 22.3975 125.311 22.3975Z" fill="black"/>
<path d="M143.009 14.4851V13.4121H139.777V14.4851C135.72 14.5745 133.29 16.2956 133.29 19.3356C133.29 22.3756 135.72 23.9627 139.777 24.0521V25.125H143.009V24.0521C147.089 23.9627 149.519 22.3756 149.519 19.3356C149.519 16.2956 147.089 14.5745 143.009 14.4851ZM139.777 21.7721C137.548 21.6827 136.567 20.7662 136.567 19.3356C136.567 17.905 137.548 16.8768 139.777 16.7874V21.7721ZM143.009 21.7721V16.7874C145.261 16.8768 146.22 17.905 146.22 19.3356C146.22 20.7662 145.261 21.6827 143.009 21.7721Z" fill="black"/>
<path d="M160.274 14.4851V13.4121H157.041V14.4851C152.984 14.5745 150.554 16.2956 150.554 19.3356C150.554 22.3756 152.984 23.9627 157.041 24.0521V25.125H160.274V24.0521C164.353 23.9627 166.783 22.3756 166.783 19.3356C166.783 16.2956 164.353 14.5745 160.274 14.4851ZM157.041 21.7721C154.812 21.6827 153.831 20.7662 153.831 19.3356C153.831 17.905 154.812 16.8768 157.041 16.7874V21.7721ZM160.274 21.7721V16.7874C162.525 16.8768 163.484 17.905 163.484 19.3356C163.484 20.7662 162.525 21.6827 160.274 21.7721Z" fill="black"/>
</svg>
