<svg width="91" height="44" viewBox="0 0 91 44" fill="none" xmlns="http://www.w3.org/2000/svg">
<path d="M91 0H0V43.7722H91V0Z" fill="#007E32"/>
<path d="M44.7928 22.4739H42.8094C42.0179 22.4739 41.374 23.1128 41.374 23.898V30.9486C41.374 31.7737 41.9777 32.3726 42.8094 32.3726H44.7928C45.5843 32.3726 46.2282 31.7338 46.2282 30.9486V29.0873H44.6927V30.6597C44.6927 30.8321 44.5513 30.9724 44.3775 30.9724H43.2746C43.1009 30.9724 42.9596 30.8321 42.9596 30.6597V24.157C42.9596 23.9845 43.1009 23.844 43.2746 23.844H44.3775C44.5513 23.844 44.6927 23.9845 44.6927 24.157V25.8356H46.2282V23.898C46.2282 23.1128 45.5843 22.4739 44.7928 22.4739Z" fill="white"/>
<path d="M51.3313 24.4436H46.8306V25.8358H48.313V32.3758H49.8487V25.8358H51.3313V24.4436Z" fill="white"/>
<path d="M26.528 28.9006H26.3779L26.3771 24.4441H24.8423V32.3757H26.1931L27.8763 28.1253H28.0264V32.3756H29.5621V24.4441H28.1934L26.528 28.9006Z" fill="white"/>
<path d="M19.901 22.4722L18.0259 32.3734H19.6506L20.9352 24.0834H21.0853L22.4261 32.3734H24.0557L22.1954 22.4722H19.901Z" fill="white"/>
<path d="M52.8784 24.4436L51.2051 32.3758H52.7491L52.9398 31.3613H54.9949L55.1834 32.3758H56.7322L55.0684 24.4436H52.8784ZM53.1875 30.045L53.9008 25.8364H54.0457L54.7504 30.045H53.1875Z" fill="white"/>
<path d="M35.4389 24.4436L33.7656 32.3758H35.3096L35.5004 31.3613H37.5554L37.7439 32.3758H39.2927L37.629 24.4436H35.4389ZM35.748 30.045L36.4613 25.8364H36.6062L37.3109 30.045H35.748Z" fill="white"/>
<path d="M34.1893 24.4436H30.7104V32.3755H32.2461V25.8364H34.1893V24.4436Z" fill="white"/>
<path d="M66.0616 24.4436H64.3644C63.573 24.4436 62.9292 25.0825 62.9292 25.8677V30.952C62.9292 31.7371 63.573 32.3758 64.3644 32.3758H66.0616C66.853 32.3758 67.4968 31.7371 67.4968 30.952V25.8677C67.4968 25.0825 66.853 24.4436 66.0616 24.4436ZM65.9613 30.6631C65.9613 30.8354 65.82 30.9757 65.6463 30.9757H64.7799C64.606 30.9757 64.4646 30.8354 64.4646 30.6631V26.1565C64.4646 25.984 64.606 25.8436 64.7799 25.8436H65.6463C65.82 25.8436 65.9613 25.9864 65.9613 26.1619V30.6631Z" fill="white"/>
<path d="M11.0303 10.4902V32.3763H15.2769V14.4844H75.723V32.3763H79.9697V10.4902H11.0303Z" fill="white"/>
<path d="M73.4776 24.4436H71.8218L70.4341 27.8101H70.1678V24.4436H68.645V32.3759H70.1678V29.1265H70.4947L71.9048 32.3759H73.5625L71.7842 28.3977L73.4776 24.4436Z" fill="white"/>
<path d="M60.8936 28.4997V28.3517H60.8921C61.4856 28.2292 61.9331 27.7047 61.9331 27.078L61.9331 27.0778V25.8628C61.9331 25.0805 61.2893 24.4441 60.4979 24.4441H57.5181V32.3756H60.5691C61.3606 32.3756 62.0045 31.7369 62.0045 30.9518V29.8304L62.0046 29.8301C62.0046 29.1707 61.5256 28.6204 60.8936 28.4997ZM59.0535 25.8387H60.082C60.2559 25.8387 60.3973 25.979 60.3973 26.1516V27.4993C60.3973 27.6717 60.2559 27.8119 60.082 27.8119H59.0535V25.8387ZM60.469 30.6629C60.469 30.8352 60.3276 30.9755 60.1538 30.9755H59.0535V29.1282H60.1538C60.3276 29.1282 60.469 29.2685 60.469 29.4411V30.6629Z" fill="white"/>
</svg>
