<svg width="160" height="38" viewBox="0 0 160 38" fill="none" xmlns="http://www.w3.org/2000/svg">
<path d="M59.0938 31.144L160 31.144V5.99996L59.0938 5.99996V31.144Z" fill="#0F0F0F"/>
<path fill-rule="evenodd" clip-rule="evenodd" d="M131.905 10.9146H136.569H142.205V15.3759H136.569V16.3347H140.165L138.999 20.8548L136.569 20.8352V21.7744H142.205V26.2358H136.569H131.905V21.7744V20.8156V16.3347V15.3759V10.9146ZM150.582 15.3759H147.958V18.5654H150.582V15.3759ZM147.977 10.9146H150.601H151.495H155.285V23.0268H147.997V26.2358H143.333V15.3759V10.9146H147.977ZM126.055 21.7744H123.431V18.585H126.055V21.7744ZM123.431 26.2358H126.055H126.949H130.739V14.1236H123.451V10.9146H118.786V21.7744V26.2358H123.431ZM112.82 10.9146H117.484V26.2358H112.82V17.7631L109.516 22.5963L106.212 17.7631V26.2554H101.547V10.9146H106.212L109.516 15.7477L112.82 10.9146ZM84.3864 15.3759H81.7627V18.5654H84.3864V15.3759ZM81.7627 10.9146H84.3864H85.2804H89.0702V23.0268H81.7821V26.2358H77.1177V15.3759V10.9146H81.7627ZM63.9214 10.9146H65.068H68.5858H71.2095H73.2502H75.8739V26.2358H71.2095V15.3759H68.5858V26.2358H63.9214V10.9146ZM100.478 21.7744V26.2358H94.8424H90.178V21.7744V20.8156V16.3347V15.3759V10.9146H94.8424H100.478V15.3759H94.8424V16.3347H98.4378L97.2717 20.8548L94.8424 20.8352V21.7744H100.478Z" fill="url(#paint0_linear)"/>
<path d="M59.1211 6.00293H0V31.147H59.1211V6.00293Z" fill="url(#paint1_linear)"/>
<path fill-rule="evenodd" clip-rule="evenodd" d="M32.573 15.2973V26.1572H27.9086V22.9482H22.7389L20.6788 26.1572H16.0145V17.665L12.7105 22.4981L9.40657 17.665V26.1572H4.74219V10.8164H9.40657L12.7105 15.6495L16.0145 10.8164H20.6788V17.9976L25.2072 10.8164H29.9104H32.573H35.1773H39.8417H42.3877H45.1086H47.052V18.4673H49.6758V10.8164H54.3401V26.1572H49.6758V22.9482H42.3877V15.2973H39.8417V26.1572H35.1773V15.2973H32.573ZM25.5764 18.4673H27.9086V14.8277L25.5764 18.4673Z" fill="url(#paint2_linear)"/>
<defs>
<linearGradient id="paint0_linear" x1="72.0382" y1="-3.25337" x2="146.006" y2="39.1626" gradientUnits="userSpaceOnUse">
<stop stop-color="#FBE466"/>
<stop offset="1" stop-color="#D49E31"/>
</linearGradient>
<linearGradient id="paint1_linear" x1="1.98262" y1="34.6014" x2="57.3158" y2="2.87101" gradientUnits="userSpaceOnUse">
<stop stop-color="#D49E31"/>
<stop offset="1" stop-color="#FBE466"/>
</linearGradient>
<linearGradient id="paint2_linear" x1="4.75054" y1="18.4863" x2="54.3614" y2="18.4863" gradientUnits="userSpaceOnUse">
<stop stop-color="#F2F2F2"/>
<stop offset="1" stop-color="#FAFAFA"/>
</linearGradient>
</defs>
</svg>
