<svg width="135" height="40" viewBox="0 0 135 40" fill="none" xmlns="http://www.w3.org/2000/svg">
<path d="M124.249 0.00013H10.7566C10.3429 0.00013 9.9342 0.00013 9.5216 0.00213C9.17621 0.00413 8.83358 0.00994 8.48488 0.01483C7.72733 0.0227318 6.97157 0.0818063 6.22416 0.19154C5.4778 0.303663 4.75482 0.515046 4.07967 0.81854C3.40534 1.1246 2.7892 1.5223 2.25358 1.9972C1.71514 2.47077 1.26632 3.01815 0.924356 3.61829C0.581453 4.21724 0.343683 4.85907 0.219258 5.52161C0.0936495 6.18332 0.0260586 6.85265 0.0170916 7.52361C0.00662229 7.83021 0.00551669 8.13783 0 8.44447V31.5587C0.00551669 31.8692 0.00662229 32.17 0.0170916 32.4806C0.0260614 33.1516 0.0936522 33.8209 0.219258 34.4825C0.343339 35.1455 0.581124 35.7877 0.924356 36.3868C1.26616 36.985 1.71505 37.5302 2.25358 38.0011C2.78717 38.4781 3.40371 38.8761 4.07967 39.1798C4.75481 39.4841 5.47772 39.6968 6.22416 39.8106C6.9717 39.9195 7.72738 39.9786 8.48488 39.9874C8.83358 39.9942 9.17621 39.9981 9.5216 39.9981C9.93419 40.0001 10.343 40.0001 10.7566 40.0001H124.249C124.655 40.0001 125.067 40.0001 125.472 39.9981C125.816 39.9981 126.169 39.9942 126.512 39.9874C127.268 39.9791 128.023 39.92 128.769 39.8106C129.518 39.696 130.243 39.4834 130.921 39.1798C131.597 38.8759 132.213 38.478 132.746 38.0011C133.283 37.5284 133.733 36.9836 134.079 36.3868C134.42 35.7872 134.655 35.1451 134.777 34.4825C134.903 33.8208 134.973 33.1516 134.987 32.4806C134.991 32.17 134.991 31.8692 134.991 31.5587C135 31.1954 135 30.8341 135 30.4649V9.53626C135 9.17005 135 8.80677 134.991 8.44447C134.991 8.13783 134.991 7.83021 134.987 7.52357C134.973 6.85255 134.903 6.18337 134.777 5.52157C134.655 4.85941 134.419 4.21763 134.079 3.61825C133.383 2.41533 132.278 1.43616 130.921 0.81845C130.243 0.515697 129.518 0.30437 128.769 0.19145C128.023 0.0812328 127.269 0.0221378 126.512 0.01469C126.169 0.00981 125.816 0.00395 125.472 0.002C125.067 0 124.655 0 124.249 0V0.00013Z" fill="#A6A6A6"/>
<path d="M9.52707 39.1252C9.18335 39.1252 8.84792 39.1213 8.50689 39.1145C7.80042 39.1064 7.0956 39.0519 6.39821 38.9514C5.74792 38.8522 5.11798 38.6675 4.52914 38.4035C3.94571 38.1418 3.41356 37.7985 2.9531 37.3869C2.48598 36.9802 2.09708 36.5085 1.80181 35.9904C1.50328 35.469 1.29669 34.9101 1.18922 34.3332C1.07316 33.7134 1.01036 33.0866 1.00138 32.4582C0.994227 32.2473 0.984863 31.5451 0.984863 31.5451V8.44458C0.984863 8.44458 0.994836 7.75317 1.00144 7.55004C1.01004 6.92273 1.07247 6.2969 1.18818 5.67797C1.29585 5.09949 1.50261 4.53899 1.80129 4.01587C2.09547 3.49819 2.48222 3.0261 2.94653 2.61792C3.41032 2.20587 3.94416 1.86085 4.52859 1.59545C5.11607 1.33234 5.74483 1.14898 6.3938 1.05151C7.09348 0.95008 7.80075 0.89524 8.50967 0.887454L9.52763 0.875244H125.467L126.497 0.887944C127.199 0.895343 127.9 0.949694 128.593 1.05053C129.249 1.14922 129.884 1.33386 130.479 1.59838C131.649 2.13323 132.602 2.97941 133.203 4.01831C133.497 4.53782 133.701 5.09375 133.807 5.66723C133.924 6.29124 133.989 6.92198 134.003 7.55444C134.006 7.83764 134.006 8.14184 134.006 8.44458C134.015 8.81958 134.015 9.17651 134.015 9.53637V30.465C134.015 30.8283 134.015 31.1828 134.006 31.5402C134.006 31.8654 134.006 32.1633 134.002 32.4699C133.989 33.0911 133.924 33.7106 133.809 34.3234C133.704 34.9045 133.498 35.4678 133.2 35.9934C132.902 36.5059 132.516 36.9735 132.054 37.3791C131.593 37.7929 131.06 38.1382 130.475 38.4016C129.883 38.6676 129.248 38.853 128.593 38.9514C127.896 39.0524 127.191 39.1069 126.485 39.1145C126.154 39.1213 125.808 39.1252 125.472 39.1252L124.249 39.1272L9.52707 39.1252Z" fill="black"/>
<path d="M31.7973 20.3008C31.8081 19.4662 32.0298 18.6478 32.4418 17.9218C32.8538 17.1959 33.4428 16.5859 34.1539 16.1488C33.7021 15.5036 33.1062 14.9727 32.4134 14.5981C31.7205 14.2236 30.9499 14.0157 30.1627 13.9911C28.4835 13.8148 26.8555 14.9959 25.9998 14.9959C25.1275 14.9959 23.81 14.0086 22.3913 14.0378C21.4736 14.0674 20.5793 14.3343 19.7954 14.8123C19.0115 15.2904 18.3649 15.9633 17.9184 16.7656C15.9844 20.1141 17.427 25.0351 19.2796 27.7417C20.2065 29.0671 21.2898 30.5475 22.7072 30.495C24.0943 30.4375 24.6123 29.6105 26.2866 29.6105C27.9454 29.6105 28.4314 30.495 29.8776 30.4616C31.366 30.4375 32.3038 29.1304 33.1981 27.7925C33.8641 26.8481 34.3766 25.8044 34.7166 24.7C33.8518 24.3343 33.1139 23.7221 32.5948 22.9398C32.0757 22.1575 31.7983 21.2397 31.7973 20.3008Z" fill="white"/>
<path d="M29.0659 12.2111C29.8774 11.2369 30.2772 9.98469 30.1804 8.72046C28.9406 8.85068 27.7953 9.44324 26.9728 10.3801C26.5707 10.8377 26.2627 11.3702 26.0664 11.9469C25.8702 12.5237 25.7896 13.1335 25.8291 13.7415C26.4493 13.7478 27.0628 13.6134 27.6234 13.3483C28.1841 13.0833 28.6773 12.6944 29.0659 12.2111Z" fill="white"/>
<path d="M49.3306 27.1398H44.5972L43.4604 30.4962H41.4556L45.939 18.0782H48.022L52.5054 30.4962H50.4663L49.3306 27.1398ZM45.0874 25.591H48.8394L46.9898 20.1437H46.938L45.0874 25.591Z" fill="white"/>
<path d="M62.188 25.9699C62.188 28.7834 60.6822 30.591 58.4097 30.591C57.834 30.6211 57.2615 30.4885 56.7578 30.2084C56.254 29.9283 55.8392 29.5119 55.5611 29.007H55.5181V33.4914H53.6597V21.4426H55.4585V22.9485H55.4927C55.7837 22.446 56.2054 22.0318 56.713 21.7499C57.2207 21.4681 57.7952 21.3291 58.3755 21.3479C60.6733 21.3479 62.188 23.1643 62.188 25.9699ZM60.2779 25.9699C60.2779 24.1369 59.3306 22.9319 57.8853 22.9319C56.4654 22.9319 55.5103 24.1623 55.5103 25.9699C55.5103 27.7942 56.4654 29.0158 57.8853 29.0158C59.3306 29.0158 60.2779 27.8196 60.2779 25.9699Z" fill="white"/>
<path d="M72.1529 25.9699C72.1529 28.7834 70.647 30.591 68.3745 30.591C67.7989 30.6211 67.2264 30.4885 66.7226 30.2084C66.2188 29.9283 65.8041 29.5119 65.5259 29.007H65.4829V33.4914H63.6245V21.4426H65.4233V22.9484H65.4575C65.7485 22.446 66.1702 22.0318 66.6778 21.7499C67.1855 21.4681 67.76 21.3291 68.3403 21.3479C70.6382 21.3479 72.1529 23.1643 72.1529 25.9699ZM70.2427 25.9699C70.2427 24.1369 69.2954 22.9318 67.8501 22.9318C66.4302 22.9318 65.4751 24.1623 65.4751 25.9699C65.4751 27.7942 66.4302 29.0158 67.8501 29.0158C69.2954 29.0158 70.2427 27.8195 70.2427 25.9699H70.2427Z" fill="white"/>
<path d="M78.7388 27.0363C78.8765 28.2678 80.0728 29.0763 81.7076 29.0763C83.274 29.0763 84.4009 28.2677 84.4009 27.1574C84.4009 26.1935 83.7212 25.6164 82.1118 25.2208L80.5025 24.8331C78.2222 24.2824 77.1636 23.2159 77.1636 21.4855C77.1636 19.3429 79.0308 17.8712 81.6822 17.8712C84.3062 17.8712 86.105 19.3429 86.1656 21.4855H84.2896C84.1773 20.2462 83.1528 19.4982 81.6558 19.4982C80.1587 19.4982 79.1343 20.255 79.1343 21.3566C79.1343 22.2345 79.7886 22.7511 81.3892 23.1466L82.7573 23.4825C85.3052 24.0851 86.3638 25.1085 86.3638 26.9249C86.3638 29.2481 84.5132 30.7032 81.5698 30.7032C78.8159 30.7032 76.9565 29.2823 76.8364 27.0362L78.7388 27.0363Z" fill="white"/>
<path d="M90.3745 19.2999V21.4425H92.0962V22.9142H90.3745V27.9054C90.3745 28.6808 90.7192 29.0421 91.4761 29.0421C91.6805 29.0386 91.8845 29.0242 92.0874 28.9991V30.462C91.7471 30.5256 91.4013 30.5544 91.0552 30.5479C89.2222 30.5479 88.5073 29.8595 88.5073 28.1036V22.9142H87.1909V21.4425H88.5073V19.2999H90.3745Z" fill="white"/>
<path d="M93.0933 25.9698C93.0933 23.1212 94.771 21.3312 97.3872 21.3312C100.012 21.3312 101.682 23.1212 101.682 25.9698C101.682 28.8263 100.021 30.6085 97.3872 30.6085C94.7543 30.6085 93.0933 28.8263 93.0933 25.9698ZM99.7886 25.9698C99.7886 24.0157 98.8931 22.8624 97.3872 22.8624C95.8813 22.8624 94.9868 24.0245 94.9868 25.9698C94.9868 27.9318 95.8813 29.0763 97.3872 29.0763C98.8931 29.0763 99.7885 27.9318 99.7885 25.9698H99.7886Z" fill="white"/>
<path d="M103.214 21.4425H104.987V22.9835H105.03C105.15 22.5022 105.432 22.0769 105.828 21.779C106.225 21.4811 106.712 21.3288 107.208 21.3478C107.422 21.347 107.635 21.3703 107.844 21.4171V23.1554C107.574 23.0728 107.292 23.0348 107.009 23.0431C106.739 23.0321 106.47 23.0797 106.22 23.1826C105.97 23.2855 105.746 23.4412 105.562 23.6391C105.378 23.837 105.239 24.0724 105.154 24.3291C105.07 24.5857 105.042 24.8576 105.073 25.1261V30.4962H103.214L103.214 21.4425Z" fill="white"/>
<path d="M116.413 27.837C116.163 29.4806 114.562 30.6085 112.514 30.6085C109.88 30.6085 108.246 28.8439 108.246 26.0128C108.246 23.173 109.889 21.3312 112.436 21.3312C114.941 21.3312 116.516 23.0519 116.516 25.797V26.4337H110.122V26.546C110.092 26.8792 110.134 27.2149 110.244 27.5307C110.354 27.8466 110.53 28.1353 110.761 28.3779C110.991 28.6204 111.27 28.8112 111.58 28.9375C111.89 29.0638 112.223 29.1228 112.557 29.1105C112.996 29.1516 113.437 29.0499 113.814 28.8205C114.19 28.591 114.483 28.2461 114.648 27.837L116.413 27.837ZM110.13 25.1349H114.657C114.673 24.8353 114.628 24.5355 114.523 24.2543C114.419 23.9731 114.257 23.7165 114.048 23.5008C113.84 23.285 113.589 23.1147 113.312 23.0004C113.034 22.8862 112.736 22.8306 112.436 22.837C112.133 22.8352 111.833 22.8934 111.553 23.0081C111.273 23.1229 111.019 23.2919 110.804 23.5056C110.59 23.7192 110.42 23.9732 110.304 24.2528C110.189 24.5325 110.13 24.8323 110.13 25.1349V25.1349Z" fill="white"/>
<path d="M44.8545 8.73101C45.2441 8.70305 45.6351 8.76191 45.9992 8.90335C46.3633 9.04478 46.6915 9.26526 46.9601 9.54889C47.2286 9.83251 47.4309 10.1722 47.5523 10.5435C47.6737 10.9148 47.7112 11.3083 47.6621 11.6959C47.6621 13.6021 46.6318 14.6979 44.8545 14.6979H42.6992V8.73101H44.8545ZM43.626 13.854H44.751C45.0294 13.8707 45.308 13.825 45.5665 13.7204C45.8251 13.6158 46.057 13.4548 46.2455 13.2493C46.434 13.0437 46.5743 12.7987 46.6562 12.5321C46.738 12.2655 46.7594 11.9839 46.7187 11.708C46.7564 11.4332 46.7329 11.1534 46.6498 10.8887C46.5667 10.6241 46.426 10.3811 46.238 10.1771C46.0499 9.97322 45.8191 9.81341 45.562 9.70917C45.3049 9.60494 45.028 9.55885 44.751 9.57422H43.626V13.854Z" fill="white"/>
<path d="M48.7088 12.4444C48.6805 12.1485 48.7143 11.8499 48.8082 11.5679C48.902 11.2858 49.0538 11.0264 49.2537 10.8065C49.4536 10.5865 49.6974 10.4107 49.9692 10.2904C50.2411 10.1702 50.535 10.108 50.8323 10.108C51.1296 10.108 51.4236 10.1702 51.6954 10.2904C51.9673 10.4107 52.211 10.5865 52.4109 10.8065C52.6109 11.0264 52.7626 11.2858 52.8565 11.5679C52.9503 11.8499 52.9842 12.1485 52.9558 12.4444C52.9847 12.7406 52.9512 13.0396 52.8577 13.3221C52.7641 13.6047 52.6124 13.8645 52.4124 14.0849C52.2124 14.3053 51.9685 14.4814 51.6964 14.602C51.4243 14.7225 51.1299 14.7848 50.8323 14.7848C50.5347 14.7848 50.2404 14.7225 49.9682 14.602C49.6961 14.4814 49.4522 14.3053 49.2522 14.0849C49.0522 13.8645 48.9006 13.6047 48.807 13.3221C48.7134 13.0396 48.6799 12.7406 48.7088 12.4444ZM52.0418 12.4444C52.0418 11.4683 51.6033 10.8975 50.8338 10.8975C50.0613 10.8975 49.6268 11.4683 49.6268 12.4444C49.6268 13.4283 50.0613 13.9947 50.8338 13.9947C51.6033 13.9947 52.0418 13.4244 52.0418 12.4444H52.0418Z" fill="white"/>
<path d="M58.6016 14.6978H57.6797L56.749 11.3813H56.6787L55.752 14.6978H54.8389L53.5977 10.1948H54.499L55.3057 13.6308H55.3721L56.2979 10.1948H57.1504L58.0762 13.6308H58.1465L58.9492 10.1948H59.8379L58.6016 14.6978Z" fill="white"/>
<path d="M60.8818 10.1949H61.7373V10.9102H61.8037C61.9164 10.6533 62.1064 10.4379 62.3472 10.2941C62.5881 10.1503 62.8679 10.0852 63.1475 10.1079C63.3666 10.0915 63.5866 10.1245 63.7912 10.2046C63.9958 10.2847 64.1797 10.4098 64.3294 10.5707C64.4791 10.7315 64.5907 10.924 64.6559 11.1338C64.7211 11.3436 64.7382 11.5654 64.7061 11.7827V14.6977H63.8174V12.0059C63.8174 11.2823 63.5029 10.9224 62.8457 10.9224C62.6969 10.9155 62.5484 10.9408 62.4104 10.9966C62.2723 11.0525 62.148 11.1375 62.0459 11.2459C61.9437 11.3543 61.8663 11.4834 61.8187 11.6246C61.7712 11.7657 61.7547 11.9154 61.7705 12.0635V14.6978H60.8818L60.8818 10.1949Z" fill="white"/>
<path d="M66.1221 8.43701H67.0107V14.6978H66.1221V8.43701Z" fill="white"/>
<path d="M68.2459 12.4444C68.2176 12.1484 68.2514 11.8499 68.3453 11.5678C68.4392 11.2857 68.591 11.0263 68.7909 10.8064C68.9909 10.5864 69.2346 10.4106 69.5065 10.2903C69.7783 10.17 70.0724 10.1079 70.3696 10.1079C70.6669 10.1079 70.9609 10.17 71.2328 10.2903C71.5047 10.4106 71.7484 10.5864 71.9484 10.8064C72.1483 11.0263 72.3001 11.2857 72.394 11.5678C72.4878 11.8499 72.5217 12.1484 72.4934 12.4444C72.5222 12.7406 72.4888 13.0396 72.3951 13.3221C72.3015 13.6046 72.1498 13.8645 71.9498 14.0849C71.7498 14.3053 71.5059 14.4814 71.2337 14.6019C70.9616 14.7225 70.6673 14.7847 70.3696 14.7847C70.072 14.7847 69.7777 14.7225 69.5055 14.6019C69.2334 14.4814 68.9895 14.3053 68.7895 14.0849C68.5895 13.8645 68.4378 13.6046 68.3442 13.3221C68.2505 13.0396 68.2171 12.7406 68.2459 12.4444ZM71.5789 12.4444C71.5789 11.4683 71.1404 10.8975 70.3709 10.8975C69.5984 10.8975 69.1639 11.4683 69.1639 12.4444C69.1639 13.4283 69.5984 13.9947 70.3709 13.9947C71.1404 13.9947 71.5789 13.4244 71.5789 12.4444H71.5789Z" fill="white"/>
<path d="M73.4292 13.4243C73.4292 12.6138 74.0327 12.1465 75.104 12.0801L76.3237 12.0098V11.6211C76.3237 11.1455 76.0093 10.877 75.4019 10.877C74.9058 10.877 74.562 11.0591 74.4634 11.3774H73.603C73.6938 10.604 74.4214 10.1079 75.4429 10.1079C76.5718 10.1079 77.2085 10.6699 77.2085 11.6211V14.6978H76.353V14.0649H76.2827C76.14 14.2919 75.9396 14.477 75.702 14.6012C75.4643 14.7254 75.198 14.7843 74.9302 14.7719C74.7411 14.7916 74.5501 14.7714 74.3693 14.7127C74.1886 14.654 74.0221 14.5581 73.8807 14.4311C73.7393 14.3042 73.626 14.149 73.5483 13.9756C73.4705 13.8021 73.4299 13.6144 73.4292 13.4243ZM76.3237 13.0395V12.6631L75.2241 12.7334C74.604 12.7749 74.3227 12.9858 74.3227 13.3828C74.3227 13.7881 74.6743 14.0239 75.1577 14.0239C75.2994 14.0382 75.4425 14.0239 75.5785 13.9819C75.7145 13.9398 75.8406 13.8707 75.9494 13.7789C76.0582 13.6871 76.1474 13.5743 76.2117 13.4473C76.276 13.3202 76.3141 13.1816 76.3237 13.0395Z" fill="white"/>
<path d="M78.3765 12.4444C78.3765 11.0215 79.1079 10.1201 80.2456 10.1201C80.527 10.1072 80.8063 10.1746 81.0508 10.3145C81.2954 10.4544 81.495 10.661 81.6265 10.9101H81.6929V8.43701H82.5815V14.6978H81.73V13.9863H81.6597C81.5181 14.2338 81.3115 14.4378 81.0622 14.5763C80.813 14.7148 80.5306 14.7825 80.2456 14.772C79.1001 14.772 78.3765 13.8706 78.3765 12.4444ZM79.2945 12.4444C79.2945 13.3994 79.7447 13.9741 80.4976 13.9741C81.2466 13.9741 81.7095 13.3911 81.7095 12.4483C81.7095 11.5098 81.2417 10.9185 80.4976 10.9185C79.7495 10.9185 79.2944 11.4971 79.2944 12.4444H79.2945Z" fill="white"/>
<path d="M86.2581 12.4444C86.2298 12.1485 86.2636 11.8499 86.3575 11.5679C86.4513 11.2858 86.6031 11.0264 86.803 10.8065C87.003 10.5865 87.2467 10.4107 87.5185 10.2904C87.7904 10.1702 88.0844 10.108 88.3816 10.108C88.6789 10.108 88.9729 10.1702 89.2447 10.2904C89.5166 10.4107 89.7603 10.5865 89.9602 10.8065C90.1602 11.0264 90.3119 11.2858 90.4058 11.5679C90.4996 11.8499 90.5335 12.1485 90.5052 12.4444C90.534 12.7406 90.5006 13.0396 90.407 13.3221C90.3134 13.6047 90.1617 13.8645 89.9617 14.0849C89.7617 14.3053 89.5178 14.4814 89.2457 14.602C88.9736 14.7225 88.6793 14.7848 88.3816 14.7848C88.084 14.7848 87.7897 14.7225 87.5175 14.602C87.2454 14.4814 87.0015 14.3053 86.8015 14.0849C86.6015 13.8645 86.4499 13.6047 86.3563 13.3221C86.2627 13.0396 86.2292 12.7406 86.2581 12.4444ZM89.5911 12.4444C89.5911 11.4683 89.1526 10.8975 88.3831 10.8975C87.6106 10.8975 87.1761 11.4683 87.1761 12.4444C87.1761 13.4283 87.6107 13.9947 88.3831 13.9947C89.1526 13.9947 89.5911 13.4244 89.5911 12.4444Z" fill="white"/>
<path d="M91.6978 10.1949H92.5532V10.9102H92.6196C92.7323 10.6533 92.9223 10.4379 93.1632 10.2941C93.404 10.1503 93.6838 10.0852 93.9634 10.1079C94.1825 10.0915 94.4025 10.1245 94.6071 10.2046C94.8117 10.2847 94.9956 10.4098 95.1453 10.5707C95.295 10.7315 95.4066 10.924 95.4718 11.1338C95.537 11.3436 95.5541 11.5654 95.522 11.7827V14.6977H94.6333V12.0059C94.6333 11.2823 94.3189 10.9224 93.6616 10.9224C93.5129 10.9155 93.3644 10.9408 93.2263 10.9966C93.0883 11.0525 92.9639 11.1375 92.8618 11.2459C92.7597 11.3543 92.6822 11.4834 92.6346 11.6246C92.5871 11.7657 92.5707 11.9154 92.5864 12.0635V14.6978H91.6978V10.1949Z" fill="white"/>
<path d="M100.543 9.07373V10.2153H101.519V10.9639H100.543V13.2793C100.543 13.751 100.738 13.9575 101.18 13.9575C101.293 13.9572 101.407 13.9503 101.519 13.937V14.6772C101.359 14.7058 101.198 14.721 101.036 14.7226C100.047 14.7226 99.6538 14.375 99.6538 13.5068V10.9638H98.939V10.2153H99.6538V9.07373H100.543Z" fill="white"/>
<path d="M102.733 8.43701H103.614V10.9185H103.684C103.802 10.6591 103.997 10.4425 104.243 10.2982C104.489 10.1539 104.773 10.0888 105.057 10.1118C105.275 10.1 105.493 10.1364 105.695 10.2184C105.897 10.3004 106.079 10.4261 106.227 10.5864C106.375 10.7468 106.486 10.9378 106.552 11.146C106.618 11.3541 106.637 11.5742 106.608 11.7905V14.6978H105.718V12.0098C105.718 11.2905 105.383 10.9263 104.755 10.9263C104.603 10.9137 104.449 10.9347 104.305 10.9878C104.161 11.0408 104.031 11.1247 103.923 11.2334C103.815 11.3421 103.732 11.4732 103.68 11.6173C103.628 11.7614 103.608 11.9152 103.622 12.0679V14.6977H102.733L102.733 8.43701Z" fill="white"/>
<path d="M111.79 13.4819C111.669 13.8934 111.407 14.2494 111.051 14.4876C110.694 14.7257 110.265 14.8309 109.839 14.7846C109.542 14.7924 109.247 14.7356 108.975 14.6181C108.702 14.5006 108.458 14.3251 108.26 14.104C108.063 13.8829 107.915 13.6213 107.828 13.3375C107.742 13.0537 107.718 12.7544 107.758 12.4604C107.719 12.1655 107.743 11.8656 107.83 11.5809C107.916 11.2962 108.063 11.0335 108.26 10.8104C108.457 10.5873 108.699 10.4092 108.971 10.2879C109.243 10.1667 109.537 10.1053 109.835 10.1079C111.088 10.1079 111.843 10.9639 111.843 12.3779V12.688H108.664V12.7378C108.65 12.903 108.671 13.0693 108.725 13.2261C108.779 13.3828 108.865 13.5265 108.978 13.648C109.091 13.7694 109.228 13.866 109.38 13.9314C109.533 13.9968 109.697 14.0296 109.863 14.0278C110.076 14.0533 110.291 14.015 110.482 13.9178C110.672 13.8206 110.83 13.6688 110.934 13.4819L111.79 13.4819ZM108.664 12.0307H110.938C110.949 11.8796 110.929 11.7278 110.878 11.5851C110.827 11.4423 110.747 11.3119 110.642 11.202C110.538 11.0922 110.412 11.0053 110.272 10.9472C110.132 10.889 109.981 10.8607 109.83 10.8642C109.676 10.8623 109.523 10.8911 109.381 10.9491C109.239 11.007 109.109 11.0929 109.001 11.2016C108.892 11.3103 108.806 11.4397 108.748 11.5821C108.691 11.7245 108.662 11.877 108.664 12.0307H108.664Z" fill="white"/>
</svg>
