<svg width="22" height="22" viewBox="0 0 22 22" fill="none" xmlns="http://www.w3.org/2000/svg">
<g clip-path="url(#clip0)">
<path fill-rule="evenodd" clip-rule="evenodd" d="M19.2415 3.60477C20.3935 3.73354 21.3505 4.59673 21.6198 5.76673C22.0001 7.41935 22 9.2221 22 10.9253V10.9672C22 12.6825 21.9986 14.5011 21.6151 16.1673C21.3457 17.3373 20.3885 18.2005 19.2371 18.3293C16.5095 18.634 13.7487 18.6356 10.9992 18.634C8.2502 18.6356 5.4887 18.634 2.76082 18.3293C1.60875 18.2003 0.652222 17.3371 0.383339 16.1673C0 14.5013 0 12.6827 0 10.9672C0 9.25176 0.00431485 7.43294 0.387654 5.76673C0.656991 4.59673 1.6133 3.73354 2.76468 3.60477C5.49279 3.30024 8.25451 3.29865 11.0035 3.30024C13.7521 3.29865 16.5133 3.30024 19.2415 3.60477ZM8.27889 14.5734L15.0089 11.3179C15.2117 11.2204 15.2117 10.9279 15.0143 10.825L8.28423 7.36366C8.1081 7.27158 7.89462 7.40158 7.89462 7.60742V14.3242C7.89462 14.5301 8.09743 14.6601 8.27889 14.5734Z" fill="black"/>
</g>
<defs>
<clipPath id="clip0">
<rect width="22" height="22" fill="white"/>
</clipPath>
</defs>
</svg>
