<svg width="22" height="22" viewBox="0 0 22 22" fill="none" xmlns="http://www.w3.org/2000/svg">
<path fill-rule="evenodd" clip-rule="evenodd" d="M21.4952 5.29384C21.6481 4.77862 21.4952 4.40002 20.7673 4.40002H18.3605C17.7485 4.40002 17.4664 4.72707 17.3134 5.08771C17.3134 5.08771 16.0895 8.10174 14.3556 10.0596C13.7946 10.6263 13.5396 10.8066 13.2336 10.8066C13.0807 10.8066 12.8512 10.6263 12.8512 10.1111V5.29384C12.8512 4.67557 12.6816 4.40002 12.1716 4.40002H8.38945C8.00703 4.40002 7.77703 4.68698 7.77703 4.95893C7.77703 5.54504 8.64393 5.68021 8.73328 7.32893V10.9097C8.73328 11.6948 8.59295 11.8371 8.28696 11.8371C7.47104 11.8371 5.48631 8.8096 4.30919 5.34534C4.0785 4.67201 3.84712 4.40002 3.23201 4.40002H0.8252C0.13754 4.40002 0 4.72707 0 5.08771C0 5.73175 0.815963 8.92611 3.79925 13.1509C5.7881 16.036 8.59025 17.6 11.1401 17.6C12.67 17.6 12.8592 17.2527 12.8592 16.6543V14.4737C12.8592 13.779 13.0042 13.6403 13.4886 13.6403C13.8456 13.6403 14.4576 13.8206 15.8855 15.2117C17.5174 16.8604 17.7864 17.6 18.7043 17.6H21.1112C21.7988 17.6 22.1426 17.2527 21.9443 16.5671C21.7272 15.8839 20.9481 14.8927 19.9143 13.7176C19.3533 13.0478 18.5118 12.3265 18.2568 11.9658C17.8999 11.5022 18.0019 11.2961 18.2568 10.8839C18.2568 10.8839 21.1892 6.71066 21.4952 5.29384Z" fill="black"/>
</svg>
