<svg width="22" height="22" viewBox="0 0 22 22" fill="none" xmlns="http://www.w3.org/2000/svg">
<path d="M11 0C8.01337 0 7.63605 0.0127944 6.4657 0.0639721C5.29535 0.11515 4.49593 0.300669 3.79884 0.575749C3.06977 0.857226 2.45581 1.23466 1.84826 1.84879C1.2343 2.45653 0.856977 3.07066 0.575581 3.79354C0.300581 4.49084 0.115116 5.29049 0.0639535 6.46118C0.0127907 7.63187 0 8.00931 0 10.9968C0 13.9843 0.0127907 14.3617 0.0639535 15.5324C0.115116 16.7031 0.300581 17.5028 0.575581 18.2001C0.856977 18.9229 1.2343 19.5371 1.84186 20.1512C2.45581 20.7653 3.06977 21.1428 3.79244 21.4243C4.48954 21.6993 5.28895 21.8848 6.4657 21.936C7.63605 21.9872 8.01337 22 11 22C13.9866 22 14.364 21.9872 15.5343 21.936C16.7047 21.8848 17.5041 21.6993 18.2076 21.4243C18.9302 21.1428 19.5442 20.7653 20.1517 20.1512C20.7657 19.5371 21.1366 18.9229 21.4244 18.2001C21.693 17.5028 21.8785 16.7031 21.936 15.5324C21.9872 14.3617 22 13.9843 22 10.9968C22 8.00931 21.9872 7.63187 21.936 6.46118C21.8785 5.29049 21.693 4.49084 21.4244 3.79354C21.143 3.07066 20.7657 2.45653 20.1517 1.8424C19.5378 1.22826 18.9302 0.857226 18.2012 0.575749C17.4977 0.300669 16.6983 0.11515 15.5279 0.0639721C14.3576 0.0127944 13.9866 0 11 0ZM10.0151 1.98313C10.3093 1.98313 10.6355 1.98313 11 1.98313C13.9355 1.98313 14.2872 1.99593 15.4448 2.04711C16.5192 2.09828 17.1012 2.27741 17.4849 2.42454C17.9965 2.62286 18.361 2.85955 18.7512 3.24978C19.1349 3.63361 19.3715 4.00465 19.5762 4.51643C19.7297 4.90666 19.9087 5.4888 19.9535 6.55714C20.0047 7.71503 20.0174 8.06688 20.0174 11.0032C20.0174 13.9395 20.0047 14.285 19.9535 15.4493C19.9023 16.524 19.7233 17.1061 19.5762 17.49C19.3779 18.0017 19.1349 18.3664 18.7512 18.7566C18.3674 19.1404 18.0029 19.3771 17.4849 19.5819C17.0948 19.7354 16.5128 19.9145 15.4448 19.9593C14.2872 20.0105 13.9355 20.0233 11 20.0233C8.06454 20.0233 7.71279 20.0105 6.55523 19.9593C5.48081 19.9081 4.89884 19.729 4.51512 19.5819C4.00349 19.3835 3.63256 19.1468 3.24884 18.7566C2.86512 18.3728 2.62849 18.0081 2.42384 17.49C2.27035 17.0997 2.09128 16.5176 2.04651 15.4493C1.99535 14.2914 1.98256 13.9395 1.98256 11.0032C1.98256 8.06688 1.99535 7.72143 2.04651 6.55714C2.09767 5.48241 2.27674 4.90026 2.42384 4.51643C2.62209 4.00465 2.86512 3.63361 3.24884 3.24978C3.63256 2.86595 4.00349 2.62925 4.51512 2.42454C4.90523 2.27101 5.48721 2.09189 6.55523 2.04711C7.57209 1.99593 7.96221 1.98313 10.0151 1.98313ZM16.8709 3.81274C16.1419 3.81274 15.5535 4.40128 15.5535 5.13056C15.5535 5.85984 16.1419 6.44839 16.8709 6.44839C17.6 6.44839 18.1884 5.85984 18.1884 5.13056C18.1884 4.40128 17.6 3.80634 16.8709 3.81274ZM11 5.35446C7.87907 5.35446 5.35291 7.88136 5.35291 11.0032C5.35291 14.125 7.87907 16.6519 11 16.6519C14.1209 16.6519 16.6471 14.125 16.6471 11.0032C16.6471 7.88136 14.1209 5.35446 11 5.35446ZM11 7.3376C13.0273 7.3376 14.6645 8.98168 14.6645 11.0032C14.6645 13.0311 13.0209 14.6688 11 14.6688C8.97267 14.6688 7.33546 13.0247 7.33546 11.0032C7.33546 8.97528 8.97267 7.3376 11 7.3376Z" fill="black"/>
</svg>
