<svg width="22" height="22" viewBox="0 0 22 22" fill="none" xmlns="http://www.w3.org/2000/svg">
<path d="M0 18.0794C1.98985 19.3403 4.35403 20.0758 6.88896 20.0758C14.0012 20.0758 19.7737 14.3098 19.7737 7.191C19.7737 7.01368 19.7672 6.83637 19.7606 6.65906C20.0167 6.45547 21.6125 5.18144 22 4.36055C22 4.36055 20.7063 4.89906 19.4454 5.02383H19.4388C19.4388 5.02383 19.4388 5.02383 19.4454 5.01727C19.5636 4.93846 21.1922 3.82861 21.4155 2.50861C21.4155 2.50861 20.5027 2.99458 19.2221 3.42144C19.0119 3.49368 18.7887 3.55935 18.5588 3.62503C17.7248 2.75159 16.5493 2.19995 15.249 2.19995C12.7534 2.19995 10.7307 4.22264 10.7307 6.71816C10.7307 7.07279 10.7702 7.41428 10.849 7.74264C10.5009 7.72951 5.18806 7.42742 1.56955 3.05368C1.56955 3.05368 -0.591045 6.00234 2.85672 9.03637C2.85672 9.03637 1.80597 8.99697 0.906268 8.45189C0.906268 8.45189 0.571344 12.0244 4.47881 12.9373C4.47881 12.9373 3.71045 13.2262 2.48239 13.0226C2.48239 13.0226 3.16537 15.9122 6.6394 16.1814C6.63284 16.1814 3.89433 18.6638 0 18.0794Z" fill="black"/>
</svg>
