<svg width="22" height="22" viewBox="0 0 22 22" fill="none" xmlns="http://www.w3.org/2000/svg">
<path fill-rule="evenodd" clip-rule="evenodd" d="M15.9545 0V0.0185718C15.9545 0.353387 16.0548 5.19513 21.1973 5.49725C21.1973 10.0016 21.1997 5.49725 21.1997 9.23777C20.8134 9.26052 17.8141 9.04629 15.9479 7.40177L15.942 14.6845C15.9881 17.9822 14.1298 21.2163 10.6507 21.8679C9.67603 22.051 8.79719 22.0709 7.32496 21.7528C-1.16237 19.2448 1.65844 6.80931 10.1799 8.1402C10.1799 12.1548 10.1823 8.1402 10.1823 12.1548C6.6606 11.6432 5.48387 14.5352 6.41964 16.6079C7.2712 18.4938 10.7765 18.9029 11.9993 16.2417C12.1375 15.7217 12.2066 15.1283 12.2066 14.4617V0H15.9545Z" fill="black"/>
</svg>
