<svg width="341" height="171" viewBox="0 0 341 171" fill="none" xmlns="http://www.w3.org/2000/svg">
<g clip-path="url(#clip0)">
<path d="M333.276 158.871L328.47 155.786V149.166L332.8 151.823L333.268 151.061L328.47 148.117V141.464L332.808 143.993L333.259 143.221L328.47 140.429V133.763L332.818 136.154L333.25 135.37L328.47 132.741V126.247L332.827 128.52L333.241 127.727L328.47 125.237V119.065L332.832 121.268L333.236 120.47L328.47 118.063V111.186L332.848 113.19L333.22 112.376L328.47 110.202V103.433L332.863 105.242L333.204 104.415L328.47 102.466V95.2321L332.889 96.7415L333.179 95.8962L328.47 94.2877V87.6984L332.906 89.0142L333.161 88.1567L328.47 86.7652V79.9899L332.93 81.0542L333.138 80.1845L328.47 79.0706V72.012L332.963 72.734L333.105 71.8512L328.47 71.1064V63.8204L333.006 64.1043L333.062 63.2118L328.47 62.9244V56.1335L333.042 56.0547L333.026 55.1606L328.47 55.2391V48.3901L333.083 47.8817L332.985 46.9927L328.47 47.4903V40.7119L333.126 39.7301L332.941 38.855L328.47 39.7978V33.657L333.155 32.3389L332.912 31.4779L328.47 32.7276V26.3879L333.192 24.6007L332.876 23.7642L328.47 25.4316V18.703L333.209 16.6958L332.859 15.8723L328.47 17.7315V12.7789H327.576V18.1105L323.996 19.6268V15.3432H323.101V20.0059L319.969 21.3327V18.6396H319.075V21.7118L316.195 22.9316L316.545 23.755L319.075 22.6833V28.9879L315.088 30.4969H311.495L312.368 25.1317H315.17V24.2375H312.514L313.265 19.6159L316.257 17.531H319.713V16.6369H317.541L320.749 14.4014H324.174V13.5072H322.032L325.24 11.2717H329.634V10.3775H326.524L328.4 9.07028L327.888 8.33679L324.959 10.3775H318.684L320.339 9.0523L319.78 8.35467L317.254 10.3775H310.805L312.277 9.03354L311.674 8.37345L309.48 10.3775H302.896L304.213 9.01397L303.569 8.39302L301.654 10.3775H294.964L296.146 8.99383L295.466 8.41317L293.788 10.3775H287.014L288.078 8.97337L287.365 8.4337L285.892 10.3775H279.05L280.009 8.95323L279.266 8.45371L277.971 10.3775H271.075L271.938 8.93278L271.169 8.4743L270.032 10.3775H263.089L263.864 8.91263L263.073 8.49433L262.075 10.3775H255.095L255.79 8.89299L254.979 8.51401L254.107 10.3775H247.096L247.714 8.87331L246.886 8.53368L246.128 10.3775H239.091L239.637 8.85419L238.795 8.55289L238.141 10.3775H231.082L231.558 8.8354L230.704 8.57159L230.145 10.3775H223.069L223.479 8.81703L222.614 8.58999L222.144 10.3775H215.054L215.399 8.79905L214.526 8.60789L214.138 10.3775H207.037L207.319 8.78123L206.438 8.62577L206.128 10.3775H199.017L199.236 8.76374L198.35 8.64323L198.115 10.3775H190.998L191.155 8.74634L190.263 8.66074L190.098 10.3775H182.977L183.072 8.72927L182.178 8.67773L182.081 10.3775H174.956L174.988 8.71228L174.093 8.69472L174.061 10.3775H166.936L166.904 8.69472L166.009 8.71228L166.041 10.3775H158.916L158.818 8.67773L157.925 8.72927L158.02 10.3775H150.898L150.733 8.66074L149.842 8.74634L149.999 10.3775H142.882L142.646 8.64323L141.759 8.76374L141.979 10.3775H134.868L134.559 8.62577L133.678 8.78123L133.96 10.3775H126.858L126.471 8.60789L125.597 8.79905L125.942 10.3775H118.852L118.382 8.58999L117.517 8.81703L117.927 10.3775H110.851L110.293 8.57159L109.438 8.8354L109.915 10.3775H102.856L102.202 8.55289L101.36 8.85419L101.906 10.3775H94.8678L94.1102 8.53368L93.2827 8.87331L93.9007 10.3775H86.8893L86.0177 8.51401L85.2068 8.89299L85.9011 10.3775H78.9204L77.923 8.49433L77.1322 8.91263L77.908 10.3775H70.9649L69.8276 8.4743L69.0594 8.93278L69.9228 10.3775H63.0253L61.7302 8.45371L60.9875 8.95323L61.9463 10.3775H55.1047L53.6313 8.4337L52.9182 8.97337L53.9825 10.3775H47.2088L45.5304 8.41317L44.8497 8.99383L46.032 10.3775H39.3436L37.4279 8.39302L36.7838 9.01397L38.1001 10.3775H31.5175L29.3232 8.37345L28.7193 9.03354L30.1909 10.3775H23.7428L21.2167 8.35467L20.6574 9.0523L22.3124 10.3775H16.0374L13.1085 8.33679L12.5964 9.07028L14.4726 10.3775H11.3621V11.2717H15.7559L18.9642 13.5072H16.822V14.4014H20.2475L23.4559 16.6369H21.2836V17.531H24.7392L27.7308 19.6155L28.4826 24.2375H25.8264V25.1317H28.628L29.5007 30.4969H25.9094L21.9219 28.9877V22.6833L24.4519 23.755L24.8014 22.9316L21.9219 21.7118V18.6396H21.0271V21.3327L17.8951 20.006V15.3432H17.0003V19.6269L13.4209 18.1106V12.7784H12.5261V17.7316L8.13709 15.8723L7.78756 16.6958L12.5261 18.7031V25.4315L8.12097 23.7642L7.80376 24.6007L12.5261 26.3881V32.7277L8.08381 31.4779L7.84089 32.3389L12.5261 33.6571V39.7979L8.05445 38.855L7.87015 39.7301L12.5261 40.7119V47.4903L8.01127 46.9927L7.91333 47.8817L12.5261 48.3901V55.2391L7.97017 55.1606L7.95445 56.0547L12.5261 56.1335V62.9244L7.9344 63.2118L7.99033 64.1043L12.5261 63.8204V71.1062L7.89109 71.8512L8.03351 72.734L12.5261 72.012V79.0705L7.85831 80.1845L8.06629 81.0542L12.5261 79.9899V86.7653L7.83515 88.1567L8.08945 89.0142L12.5261 87.6982V94.2878L7.81768 95.8962L8.10692 96.7415L12.5261 95.2319V102.466L7.79192 104.415L8.13268 105.242L12.5261 103.432V110.202L7.77619 112.376L8.14846 113.19L12.5261 111.186V118.063L7.76044 120.47L8.16416 121.268L12.5261 119.065V125.237L7.75523 127.727L8.16948 128.52L12.5261 126.246V132.741L7.74647 135.37L8.17813 136.154L12.5261 133.762V140.429L7.7369 143.221L8.18778 143.993L12.5261 141.464V148.117L7.72813 151.061L8.19652 151.823L12.5261 149.165V155.786L7.7207 158.871L8.2039 159.623L12.5261 156.849V162.553H13.4209V156.275L17.0003 153.977V159.573H17.8951V153.403L21.0271 151.393V156.892H21.9219V150.818L24.6065 149.095V154.508H25.5013V148.521L28.0067 146.913V152.243H28.9016V146.338L30.6912 145.19V150.455H31.5861V144.615L33.197 143.581V148.786H34.0919V143.007L35.6129 142.031V147.177H36.5077V141.456L37.85 140.595V145.687H38.7448V140.02L39.6397 139.446V144.495H40.5345V138.872L42.2039 137.8H46.9534L47.9104 143.684L48.7939 143.541L47.8602 137.8H53.2577L54.1739 143.681L55.0582 143.543L54.1635 137.8H59.5633L60.4373 143.678L61.3226 143.547L60.468 137.8H65.8699L66.7008 143.675L67.5869 143.55L66.7739 137.8H72.1778L72.9643 143.672L73.8513 143.553L73.0808 137.8H78.4869L79.2278 143.668L80.1156 143.557L79.3888 137.8H84.7969L85.4913 143.665L86.3799 143.56L85.6979 137.8H91.1078L91.7547 143.661L92.6443 143.564L92.0082 137.8H97.4197L98.0182 143.658L98.9086 143.567L98.3194 137.8H103.732L104.282 143.654L105.173 143.571L104.632 137.8H110.046L110.546 143.65L111.437 143.574L110.944 137.8H116.361L116.809 143.647L117.701 143.578L117.258 137.8H122.675L123.072 143.643L123.966 143.582L123.573 137.8H128.991L129.336 143.639L130.229 143.586L129.887 137.8H135.307L135.6 143.635L136.494 143.59L136.203 137.8H141.624L141.864 143.631L142.758 143.594L142.519 137.8H147.941L148.128 143.626L149.022 143.599L148.836 137.8H154.257L154.391 143.623L155.286 143.602L155.153 137.8H160.575L160.655 143.619L161.55 143.606L161.47 137.8H166.892L166.919 143.614L167.814 143.611L167.787 137.8H173.209L173.183 143.611L174.078 143.614L174.104 137.8H179.527L179.447 143.606L180.342 143.619L180.422 137.8H185.844L185.711 143.602L186.605 143.623L186.739 137.8H192.161L191.974 143.599L192.869 143.626L193.056 137.8H198.477L198.238 143.594L199.133 143.631L199.373 137.8H204.794L204.503 143.59L205.396 143.635L205.689 137.8H211.109L210.767 143.586L211.66 143.639L212.005 137.8H217.424L217.031 143.582L217.924 143.643L218.321 137.8H223.738L223.295 143.578L224.187 143.647L224.636 137.8H230.052L229.56 143.574L230.451 143.65L230.95 137.8H236.365L235.824 143.571L236.715 143.654L237.264 137.8H242.678L242.088 143.567L242.978 143.658L243.576 137.8H248.988L248.352 143.564L249.242 143.661L249.889 137.8H255.299L254.617 143.56L255.505 143.665L256.199 137.8H261.608L260.881 143.557L261.769 143.668L262.51 137.8H267.916L267.146 143.553L268.032 143.672L268.818 137.8H274.223L273.41 143.55L274.296 143.675L275.127 137.8H280.529L279.674 143.547L280.559 143.678L281.433 137.8H286.833L285.938 143.543L286.823 143.681L287.739 137.8H293.137L292.203 143.541L293.086 143.684L294.043 137.8H298.792L300.462 138.872V144.495H301.357V139.446L302.252 140.021V145.687H303.147V140.595L304.489 141.457V147.177H305.384V142.031L306.905 143.008V148.786H307.8V143.582L309.41 144.616V150.455H310.305V145.19L312.095 146.339V152.243H312.99V146.913L315.495 148.521V154.508H316.39V149.096L319.075 150.819V156.892H319.969V151.393L323.101 153.403V159.573H323.996V153.978L327.576 156.275V162.553H328.47V156.85L332.792 159.623L333.276 158.871ZM327.576 147.568L323.996 145.371V138.856L327.576 140.942V147.568ZM300.462 130.28V130.926L300.114 130.713L299.88 131.094V130.647H295.206L296.079 125.281H300.715L302.252 126.178V132.025L301.357 131.476V130.28H300.462ZM41.117 130.647V131.094L40.8828 130.713L40.5345 130.927V130.28H39.6397V131.476L38.7448 132.025V126.178L40.282 125.281H44.9173L45.7899 130.647H41.117ZM21.0271 36.0488V41.5906L17.8951 40.9301V35.1676L21.0271 36.0488ZM17.8951 34.2383V28.4202L21.0271 29.6057V35.1194L17.8951 34.2383ZM30.6642 37.6504L31.5368 43.0156H27.7849L25.5013 42.5341V37.3076L26.6609 37.6338L26.7825 37.2031V37.6504H30.6642ZM314.214 37.6504V37.2032L314.336 37.6338L315.495 37.3076V42.5341L313.212 43.0156H309.459L310.332 37.6504H314.214ZM323.101 35.1676V40.93L319.969 41.5905V36.0487L323.101 35.1676ZM319.969 35.1194V29.6056L323.101 28.4201V34.2382L319.969 35.1194ZM296.224 124.387L297.097 119.022H301.675L302.252 119.339V125.143L301.061 124.448L300.835 124.834V124.387H296.224ZM40.1613 124.387V124.834L39.9359 124.448L38.7448 125.143V119.339L39.3213 119.022H43.8992L44.7718 124.387H40.1613ZM31.6823 43.9098L32.5549 49.275H28.7189L25.5013 48.9203V43.448L27.6458 43.9002L27.738 43.4629V43.9098H31.6823ZM43.1151 21.1052L42.6727 21.1709L42.9744 20.841L42.777 20.6607H48.027L49.5234 22.2108L49.81 24.2375H43.5809L43.1151 21.1052ZM298.325 21.1711L297.882 21.1052L297.417 24.2375H291.187L291.473 22.2102L292.969 20.6607H298.22L298.023 20.841L298.325 21.1711ZM313.259 43.9098V43.4629L313.352 43.9002L315.495 43.4481V48.9203L312.278 49.275H308.441L309.314 43.9098H313.259ZM302.688 118.558L302.007 118.183L301.791 118.575V118.128H297.242L298.115 112.763H302.636L304.489 113.73V119.548L303.147 118.81V118.558H302.688ZM39.2054 118.128V118.575L38.9896 118.183L38.3087 118.558H37.85V118.81L36.5077 119.548V113.729L38.3597 112.763H42.8811L43.7537 118.128H39.2054ZM32.7003 50.1691L33.573 55.5343H29.6571L28.9016 55.5213V54.0817H28.0067V55.5059L25.5013 55.4627V49.8201L28.6446 50.1665L28.6936 49.7221V50.1691H32.7003ZM50.3891 21.9422L49.9461 22.0046L50.2682 21.6942L49.2706 20.6607H54.8182L56.7991 22.9791L56.9677 24.2375H50.7137L50.3891 21.9422ZM291.05 22.0046L290.607 21.9422L290.283 24.2375H284.028L284.197 22.979L286.177 20.6607H291.726L290.729 21.6942L291.05 22.0046ZM312.303 50.1691V49.7221L312.352 50.1665L315.495 49.82V55.4627L312.99 55.5059V54.0817H312.095V55.5213L311.339 55.5343H307.423L308.296 50.1691H312.303ZM298.26 111.869L299.133 106.503H303.596L304.489 106.955V112.721L302.953 111.919L302.746 112.316V111.869H298.26ZM38.2498 111.869V112.316L38.0427 111.919L36.5077 112.72V106.955L37.401 106.503H41.863L42.7357 111.869H38.2498ZM64.9937 23.7904H70.9756L71.2765 24.2375H65.0502L64.9937 23.7904ZM275.946 24.2375H269.72L270.021 23.7904H276.003L275.946 24.2375ZM311.347 55.9807L311.355 56.4285L312.095 56.4158V61.8994L310.42 61.7946L310.392 62.2397V61.7937H306.405L307.278 56.4285H311.347V55.9807ZM304.489 103.904V105.952L303.904 105.657L303.702 106.056V105.609H299.279L300.151 100.244H304.562L306.905 101.316V107.173L305.384 106.404V103.904H304.489ZM37.2942 105.609V106.056L37.0923 105.657L36.5077 105.952V103.904H35.6129V106.404L34.0919 107.172V101.317L36.4371 100.244H40.845L41.7176 105.609H37.2942ZM32.569 75.2066H36.7726L37.6453 80.5718H33.4718V81.0186L33.3448 80.5901L31.5861 81.1117V75.4411L32.569 75.2066ZM101.259 26.4435L100.995 26.466L101.259 26.3577V26.4435ZM101.483 26.9201H107.832L107.861 27.001L108.129 30.4969H101.788L101.483 26.9201ZM239.738 26.3578L240.002 26.466L239.738 26.4435V26.3578ZM239.209 30.4969H232.867L233.135 26.9995L233.164 26.9201H239.514L239.209 30.4969ZM308.428 75.2066L309.41 75.4411V81.1116L307.652 80.5901L307.525 81.0187V80.5718H303.351L304.223 75.2066H308.428ZM300.297 99.3498L301.169 93.9847H305.526L306.905 94.5526V100.333L304.844 99.39L304.658 99.7966V99.3498H300.297ZM36.3387 99.3498V99.797L36.1525 99.39L34.0919 100.333V94.5524L35.4707 93.9847H39.8269L40.6995 99.3498H36.3387ZM34.5003 87.7253H38.8088L39.6814 93.0905H35.3831V93.5376L35.2127 93.1246L34.0919 93.5861V88.0781H33.4676L34.5003 87.7253ZM306.496 87.7253L307.529 88.0781H306.905V93.5863L305.784 93.1246L305.613 93.5376V93.0905H301.315L302.187 87.7253H306.496ZM300.409 93.0905H294.704L295.54 87.7253H301.281L300.409 93.0905ZM53.0217 87.7253H58.7884L59.5471 93.0905H53.8195L53.0217 87.7253ZM52.9148 93.0905H47.1986L46.3627 87.7253H52.117L52.9148 93.0905ZM65.5355 81.466H71.374L72.0514 86.8311H66.2541L65.5355 81.466ZM65.3512 86.8311H59.5658L58.807 81.466H64.6327L65.3512 86.8311ZM72.2759 81.466H78.1267L78.762 86.8311H72.9533L72.2759 81.466ZM79.0278 81.466H84.8902L85.4823 86.8311H79.6631L79.0278 81.466ZM85.7906 81.466H91.6639L92.2121 86.8311H86.3827L85.7906 81.466ZM248.525 80.5718H242.633L243.137 75.2066H249.073L248.525 80.5718ZM249.972 75.2066H255.897L255.305 80.5718H249.424L249.972 75.2066ZM229.089 68.0531H223.062L223.427 62.6879H229.5L229.089 68.0531ZM230.398 62.6879H236.462L236.004 68.0531H229.986L230.398 62.6879ZM222.165 68.0531H216.129L216.446 62.6879H222.529L222.165 68.0531ZM215.233 68.0531H209.189L209.459 62.6879H215.55L215.233 68.0531ZM208.294 68.0531H202.245L202.466 62.6879H208.563L208.294 68.0531ZM201.348 68.0531H195.294L195.466 62.6879H201.569L201.348 68.0531ZM153.428 62.6879H159.539L159.613 68.0531H153.551L153.428 62.6879ZM152.656 68.0531H146.597L146.425 62.6879H152.533L152.656 68.0531ZM160.434 62.6879H166.547L166.571 68.0531H160.508L160.434 62.6879ZM167.441 62.6879H173.555L173.53 68.0531H167.466L167.441 62.6879ZM174.45 62.6879H180.562L180.488 68.0531H174.425L174.45 62.6879ZM181.457 62.6879H187.568L187.445 68.0531H181.383L181.457 62.6879ZM188.463 62.6879H194.571L194.398 68.0531H188.34L188.463 62.6879ZM195.495 61.7937L195.667 56.4285H201.827L201.606 61.7937H195.495ZM194.599 61.7937H188.484L188.607 56.4285H194.771L194.599 61.7937ZM187.588 61.7937H181.47L181.544 56.4285H187.712L187.588 61.7937ZM180.575 61.7937H174.454L174.479 56.4285H180.648L180.575 61.7937ZM173.559 61.7937H167.437L167.413 56.4285H173.584L173.559 61.7937ZM166.543 61.7937H160.422L160.348 56.4285H166.518L166.543 61.7937ZM159.527 61.7937H153.408L153.285 56.4285H159.453L159.527 61.7937ZM152.512 61.7937H146.397L146.224 56.4285H152.389L152.512 61.7937ZM145.502 61.7937H139.39L139.169 56.4285H145.329L145.502 61.7937ZM145.53 62.6879L145.702 68.0531H139.648L139.427 62.6879H145.53ZM138.752 68.0531H132.703L132.434 62.6879H138.531L138.752 68.0531ZM131.807 68.0531H125.764L125.447 62.6879H131.538L131.807 68.0531ZM124.868 68.0531H118.832L118.467 62.6879H124.55L124.868 68.0531ZM117.935 68.0531H111.908L111.496 62.6879H117.57L117.935 68.0531ZM111.01 68.0531H104.993L104.535 62.6879H110.599L111.01 68.0531ZM111.079 68.9472L111.49 74.3124H105.527L105.069 68.9472H111.079ZM111.976 68.9472H117.996L118.36 74.3124H112.388L111.976 68.9472ZM118.893 68.9472H124.92L125.238 74.3124H119.257L118.893 68.9472ZM125.817 68.9472H131.852L132.121 74.3124H126.134L125.817 68.9472ZM132.748 68.9472H138.789L139.01 74.3124H133.017L132.748 68.9472ZM139.685 68.9472H145.731L145.903 74.3124H139.905L139.685 68.9472ZM146.626 68.9472H152.677L152.8 74.3124H146.798L146.626 68.9472ZM153.572 68.9472H159.625L159.699 74.3124H153.695L153.572 68.9472ZM160.52 68.9472H166.575L166.6 74.3124H160.594L160.52 68.9472ZM167.47 68.9472H173.526L173.502 74.3124H167.495L167.47 68.9472ZM174.421 68.9472H180.476L180.402 74.3124H174.396L174.421 68.9472ZM181.371 68.9472H187.424L187.301 74.3124H181.297L181.371 68.9472ZM188.32 68.9472H194.37L194.198 74.3124H188.196L188.32 68.9472ZM195.265 68.9472H201.312L201.091 74.3124H195.093L195.265 68.9472ZM202.208 68.9472H208.249L207.98 74.3124H201.987L202.208 68.9472ZM209.145 68.9472H215.18L214.863 74.3124H208.875L209.145 68.9472ZM216.076 68.9472H222.104L221.739 74.3124H215.759L216.076 68.9472ZM223.001 68.9472H229.02L228.608 74.3124H222.637L223.001 68.9472ZM229.918 68.9472H235.928L235.47 74.3124H229.506L229.918 68.9472ZM236.825 68.9472H242.825L242.322 74.3124H236.368L236.825 68.9472ZM236.902 68.0531L237.36 62.6879H243.412L242.909 68.0531H236.902ZM237.436 61.7937L237.894 56.4285H243.999L243.496 61.7937H237.436ZM236.538 61.7937H230.466L230.878 56.4285H236.996L236.538 61.7937ZM229.569 61.7937H223.487L223.852 56.4285H229.98L229.569 61.7937ZM222.59 61.7937H216.499L216.816 56.4285H222.955L222.59 61.7937ZM215.603 61.7937H209.503L209.773 56.4285H215.92L215.603 61.7937ZM208.608 61.7937H202.502L202.723 56.4285H208.877L208.608 61.7937ZM202.76 55.5343L202.981 50.1691H209.191L208.922 55.5343H202.76ZM201.864 55.5343H195.696L195.868 50.1691H202.085L201.864 55.5343ZM194.8 55.5343H188.627L188.751 50.1691H194.972L194.8 55.5343ZM187.732 55.5343H181.556L181.63 50.1691H187.855L187.732 55.5343ZM180.661 55.5343H174.483L174.508 50.1691H180.735L180.661 55.5343ZM173.588 55.5343H167.409L167.384 50.1691H173.613L173.588 55.5343ZM166.514 55.5343H160.335L160.261 50.1691H166.489L166.514 55.5343ZM159.44 55.5343H153.264L153.141 50.1691H159.366L159.44 55.5343ZM152.369 55.5343H146.196L146.023 50.1691H152.246L152.369 55.5343ZM145.301 55.5343H139.132L138.912 50.1691H145.129L145.301 55.5343ZM138.237 55.5343H132.075L131.806 50.1691H138.016L138.237 55.5343ZM138.274 56.4285L138.495 61.7937H132.389L132.12 56.4285H138.274ZM131.493 61.7937H125.394L125.077 56.4285H131.223L131.493 61.7937ZM124.497 61.7937H118.407L118.042 56.4285H124.18L124.497 61.7937ZM117.509 61.7937H111.428L111.016 56.4285H117.145L117.509 61.7937ZM110.53 61.7937H104.458L104.001 56.4285H110.119L110.53 61.7937ZM103.561 61.7937H97.5005L96.9971 56.4285H103.103L103.561 61.7937ZM103.637 62.6879L104.095 68.0531H98.0877L97.5844 62.6879H103.637ZM104.171 68.9472L104.629 74.3124H98.675L98.1716 68.9472H104.171ZM104.705 75.2066L105.163 80.5718H99.2623L98.7589 75.2066H104.705ZM105.603 75.2066H111.559L111.971 80.5718H106.061L105.603 75.2066ZM112.456 75.2066H118.421L118.786 80.5718H112.868L112.456 75.2066ZM119.318 75.2066H125.29L125.608 80.5718H119.683L119.318 75.2066ZM126.187 75.2066H132.166L132.435 80.5718H126.504L126.187 75.2066ZM133.062 75.2066H139.047L139.268 80.5718H133.331L133.062 75.2066ZM139.942 75.2066H145.932L146.104 80.5718H140.163L139.942 75.2066ZM146.827 75.2066H152.82L152.944 80.5718H146.999L146.827 75.2066ZM153.716 75.2066H159.712L159.786 80.5718H153.839L153.716 75.2066ZM160.607 75.2066H166.604L166.629 80.5718H160.681L160.607 75.2066ZM167.499 75.2066H173.497L173.473 80.5718H167.524L167.499 75.2066ZM174.392 75.2066H180.39L180.316 80.5718H174.368L174.392 75.2066ZM181.285 75.2066H187.281L187.157 80.5718H181.211L181.285 75.2066ZM188.176 75.2066H194.169L193.997 80.5718H188.053L188.176 75.2066ZM195.065 75.2066H201.054L200.833 80.5718H194.892L195.065 75.2066ZM201.95 75.2066H207.935L207.666 80.5718H201.729L201.95 75.2066ZM208.83 75.2066H214.81L214.493 80.5718H208.561L208.83 75.2066ZM215.706 75.2066H221.679L221.314 80.5718H215.389L215.706 75.2066ZM222.576 75.2066H228.54L228.128 80.5718H222.211L222.576 75.2066ZM229.437 75.2066H235.394L234.936 80.5718H229.026L229.437 75.2066ZM236.291 75.2066H242.238L241.734 80.5718H235.834L236.291 75.2066ZM243.221 74.3124L243.724 68.9472H249.712L249.164 74.3124H243.221ZM243.808 68.0531L244.311 62.6879H250.352L249.804 68.0531H243.808ZM244.395 61.7937L244.899 56.4285H250.991L250.443 61.7937H244.395ZM244.983 55.5343L245.486 50.1691H251.631L251.083 55.5343H244.983ZM244.083 55.5343H237.97L238.428 50.1691H244.587L244.083 55.5343ZM237.072 55.5343H230.946L231.358 50.1691H237.53L237.072 55.5343ZM230.049 55.5343H223.913L224.278 50.1691H230.461L230.049 55.5343ZM223.016 55.5343H216.869L217.186 50.1691H223.38L223.016 55.5343ZM215.973 55.5343H209.818L210.087 50.1691H216.29L215.973 55.5343ZM210.132 49.275L210.401 43.9098H216.66L216.343 49.275H210.132ZM209.236 49.275H203.018L203.239 43.9098H209.506L209.236 49.275ZM202.121 49.275H195.897L196.069 43.9098H202.342L202.121 49.275ZM195.001 49.275H188.771L188.894 43.9098H195.173L195.001 49.275ZM187.876 49.275H181.642L181.716 43.9098H187.999L187.876 49.275ZM180.747 49.275H174.512L174.536 43.9098H180.821L180.747 49.275ZM173.617 49.275H167.38L167.355 43.9098H173.641L173.617 49.275ZM166.485 49.275H160.249L160.175 43.9098H166.46L166.485 49.275ZM159.354 49.275H153.12L152.997 43.9098H159.28L159.354 49.275ZM152.225 49.275H145.995L145.823 43.9098H152.102L152.225 49.275ZM145.1 49.275H138.875L138.654 43.9098H144.928L145.1 49.275ZM137.979 49.275H131.761L131.491 43.9098H137.758L137.979 49.275ZM130.864 49.275H124.654L124.336 43.9098H130.595L130.864 49.275ZM130.909 50.1691L131.179 55.5343H125.024L124.706 50.1691H130.909ZM124.127 55.5343H117.981L117.617 50.1691H123.81L124.127 55.5343ZM117.084 55.5343H110.947L110.536 50.1691H116.719L117.084 55.5343ZM110.05 55.5343H103.924L103.467 50.1691H109.638L110.05 55.5343ZM103.027 55.5343H96.9132L96.4098 50.1691H102.569L103.027 55.5343ZM96.014 55.5343H89.9141L89.366 50.1691H95.5106L96.014 55.5343ZM96.0979 56.4285L96.6012 61.7937H90.5536L90.0055 56.4285H96.0979ZM96.6851 62.6879L97.1885 68.0531H91.1932L90.645 62.6879H96.6851ZM97.2724 68.9472L97.7758 74.3124H91.8327L91.2845 68.9472H97.2724ZM97.8597 75.2066L98.363 80.5718H92.4723L91.9241 75.2066H97.8597ZM91.5726 80.5718H85.6919L85.0997 75.2066H91.0244L91.5726 80.5718ZM92.5636 81.466H98.4469L98.9503 86.8311H93.1118L92.5636 81.466ZM99.3462 81.466H105.239L105.697 86.8311H99.8495L99.3462 81.466ZM106.137 81.466H112.039L112.451 86.8311H106.595L106.137 81.466ZM112.937 81.466H118.846L119.211 86.8311H113.348L112.937 81.466ZM119.744 81.466H125.661L125.978 86.8311H120.108L119.744 81.466ZM126.557 81.466H132.48L132.749 86.8311H126.874L126.557 81.466ZM133.376 81.466H139.304L139.525 86.8311H133.645L133.376 81.466ZM140.2 81.466H146.133L146.305 86.8311H140.421L140.2 81.466ZM147.028 81.466H152.964L153.087 86.8311H147.2L147.028 81.466ZM153.859 81.466H159.798L159.872 86.8311H153.983L153.859 81.466ZM160.693 81.466H166.633L166.658 86.8311H160.767L160.693 81.466ZM167.528 81.466H173.469L173.444 86.8311H167.553L167.528 81.466ZM174.364 81.466H180.303L180.229 86.8311H174.339L174.364 81.466ZM181.198 81.466H187.137L187.014 86.8311H181.124L181.198 81.466ZM188.032 81.466H193.968L193.796 86.8311H187.909L188.032 81.466ZM194.864 81.466H200.796L200.575 86.8311H194.692L194.864 81.466ZM201.692 81.466H207.621L207.352 86.8311H201.472L201.692 81.466ZM208.516 81.466H214.44L214.123 86.8311H208.247L208.516 81.466ZM215.336 81.466H221.253L220.888 86.8311H215.019L215.336 81.466ZM222.15 81.466H228.06L227.648 86.8311H221.786L222.15 81.466ZM228.957 81.466H234.859L234.402 86.8311H228.546L228.957 81.466ZM235.757 81.466H241.65L241.147 86.8311H235.299L235.757 81.466ZM242.55 81.466H248.433L247.885 86.8311H242.046L242.55 81.466ZM249.332 81.466H255.206L254.614 86.8311H248.784L249.332 81.466ZM256.106 81.466H261.969L261.334 86.8311H255.514L256.106 81.466ZM262.869 81.466H268.721L268.043 86.8311H262.234L262.869 81.466ZM269.623 81.466H275.461L274.743 86.8311H268.945L269.623 81.466ZM276.363 81.466H282.19L281.431 86.8311H275.645L276.363 81.466ZM283.093 81.466H288.906L288.108 86.8311H282.335L283.093 81.466ZM283.22 80.5718L283.979 75.2066H289.837L289.039 80.5718H283.22ZM282.316 80.5718H276.483L277.202 75.2066H283.075L282.316 80.5718ZM275.581 80.5718H269.735L270.413 75.2066H276.3L275.581 80.5718ZM268.834 80.5718H262.975L263.611 75.2066H269.511L268.834 80.5718ZM262.075 80.5718H256.205L256.797 75.2066H262.71L262.075 80.5718ZM256.896 74.3124L257.488 68.9472H263.451L262.816 74.3124H256.896ZM255.996 74.3124H250.063L250.611 68.9472H256.588L255.996 74.3124ZM250.703 68.0531L251.251 62.6879H257.279L256.686 68.0531H250.703ZM251.342 61.7937L251.89 56.4285H257.969L257.377 61.7937H251.342ZM251.982 55.5343L252.53 50.1691H258.66L258.068 55.5343H251.982ZM252.621 49.275L253.169 43.9098H259.351L258.759 49.275H252.621ZM251.722 49.275H245.57L246.073 43.9098H252.27L251.722 49.275ZM244.671 49.275H238.504L238.962 43.9098H245.174L244.671 49.275ZM237.606 49.275H231.427L231.838 43.9098H238.064L237.606 49.275ZM230.529 49.275H224.338L224.703 43.9098H230.941L230.529 49.275ZM223.441 49.275H217.239L217.556 43.9098H223.806L223.441 49.275ZM217.609 43.0156L217.926 37.6504H224.231L223.867 43.0156H217.609ZM216.713 43.0156H210.446L210.715 37.6504H217.03L216.713 43.0156ZM209.55 43.0156H203.275L203.496 37.6504H209.82L209.55 43.0156ZM202.379 43.0156H196.098L196.27 37.6504H202.6L202.379 43.0156ZM195.202 43.0156H188.915L189.038 37.6504H195.374L195.202 43.0156ZM188.019 43.0156H181.728L181.802 37.6504H188.143L188.019 43.0156ZM180.833 43.0156H174.54L174.565 37.6504H180.907L180.833 43.0156ZM173.646 43.0156H167.351L167.326 37.6504H173.67L173.646 43.0156ZM166.456 43.0156H160.163L160.089 37.6504H166.431L166.456 43.0156ZM159.268 43.0156H152.977L152.854 37.6504H159.194L159.268 43.0156ZM152.081 43.0156H145.794L145.622 37.6504H151.958L152.081 43.0156ZM144.899 43.0156H138.617L138.396 37.6504H144.727L144.899 43.0156ZM137.722 43.0156H131.447L131.177 37.6504H137.501L137.722 43.0156ZM130.55 43.0156H124.284L123.966 37.6504H130.281L130.55 43.0156ZM123.387 43.0156H117.13L116.766 37.6504H123.07L123.387 43.0156ZM123.44 43.9098L123.757 49.275H117.556L117.191 43.9098H123.44ZM116.659 49.275H110.467L110.056 43.9098H116.294L116.659 49.275ZM109.57 49.275H103.39L102.932 43.9098H109.158L109.57 49.275ZM102.492 49.275H96.3259L95.8226 43.9098H102.035L102.492 49.275ZM95.4267 49.275H89.2746L88.7264 43.9098H94.9233L95.4267 49.275ZM88.3749 49.275H82.2376L81.6455 43.9098H87.8267L88.3749 49.275ZM88.4662 50.1691L89.0144 55.5343H82.9285L82.3363 50.1691H88.4662ZM89.1058 56.4285L89.6539 61.7937H83.6193L83.0272 56.4285H89.1058ZM89.7453 62.6879L90.2935 68.0531H84.3102L83.718 62.6879H89.7453ZM90.3848 68.9472L90.933 74.3124H85.001L84.4089 68.9472H90.3848ZM84.1006 74.3124H78.1808L77.5456 68.9472H83.5085L84.1006 74.3124ZM84.1993 75.2066L84.7915 80.5718H78.9219L78.2867 75.2066H84.1993ZM78.0208 80.5718H72.163L71.4856 75.2066H77.3856L78.0208 80.5718ZM71.2611 80.5718H65.4157L64.6972 75.2066H70.5837L71.2611 80.5718ZM64.5129 80.5718H58.6806L57.9218 75.2066H63.7943L64.5129 80.5718ZM57.7768 80.5718H51.958L51.1601 75.2066H57.018L57.7768 80.5718ZM57.9032 81.466L58.6619 86.8311H52.8887L52.0909 81.466H57.9032ZM59.6922 87.7253H65.471L66.1896 93.0905H60.451L59.6922 87.7253ZM66.3739 87.7253H72.1643L72.8417 93.0905H67.0925L66.3739 87.7253ZM73.0662 87.7253H78.8678L79.5031 93.0905H73.7436L73.0662 87.7253ZM79.7689 87.7253H85.581L86.1732 93.0905H80.4042L79.7689 87.7253ZM86.4814 87.7253H92.3034L92.8516 93.0905H87.0736L86.4814 87.7253ZM93.2032 87.7253H99.0342L99.5376 93.0905H93.7513L93.2032 87.7253ZM99.9334 87.7253H105.773L106.231 93.0905H100.437L99.9334 87.7253ZM106.671 87.7253H112.519L112.931 93.0905H107.129L106.671 87.7253ZM113.417 87.7253H119.272L119.637 93.0905H113.828L113.417 87.7253ZM120.169 87.7253H126.031L126.348 93.0905H120.534L120.169 87.7253ZM126.927 87.7253H132.794L133.063 93.0905H127.244L126.927 87.7253ZM133.69 87.7253H139.562L139.783 93.0905H133.96L133.69 87.7253ZM140.458 87.7253H146.334L146.506 93.0905H140.679L140.458 87.7253ZM147.229 87.7253H153.108L153.231 93.0905H147.401L147.229 87.7253ZM154.003 87.7253H159.884L159.958 93.0905H154.126L154.003 87.7253ZM160.779 87.7253H166.662L166.686 93.0905H160.853L160.779 87.7253ZM167.557 87.7253H173.44L173.415 93.0905H167.581L167.557 87.7253ZM174.335 87.7253H180.217L180.143 93.0905H174.31L174.335 87.7253ZM181.112 87.7253H186.993L186.87 93.0905H181.038L181.112 87.7253ZM187.888 87.7253H193.767L193.595 93.0905H187.765L187.888 87.7253ZM194.663 87.7253H200.538L200.318 93.0905H194.491L194.663 87.7253ZM201.435 87.7253H207.307L207.037 93.0905H201.214L201.435 87.7253ZM208.202 87.7253H214.07L213.752 93.0905H207.933L208.202 87.7253ZM214.966 87.7253H220.828L220.463 93.0905H214.649L214.966 87.7253ZM221.725 87.7253H227.58L227.168 93.0905H221.36L221.725 87.7253ZM228.477 87.7253H234.325L233.867 93.0905H228.065L228.477 87.7253ZM235.223 87.7253H241.063L240.56 93.0905H234.765L235.223 87.7253ZM241.962 87.7253H247.794L247.246 93.0905H241.459L241.962 87.7253ZM248.693 87.7253H254.515L253.923 93.0905H248.145L248.693 87.7253ZM255.416 87.7253H261.228L260.593 93.0905H254.823L255.416 87.7253ZM262.128 87.7253H267.93L267.253 93.0905H261.493L262.128 87.7253ZM268.832 87.7253H274.623L273.904 93.0905H268.155L268.832 87.7253ZM275.525 87.7253H281.304L280.546 93.0905H274.806L275.525 87.7253ZM282.208 87.7253H287.975L287.178 93.0905H281.449L282.208 87.7253ZM288.879 87.7253H294.634L293.798 93.0905H288.081L288.879 87.7253ZM295.679 86.8311L296.515 81.466H302.299L301.427 86.8311H295.679ZM294.773 86.8311H289.012L289.81 81.466H295.609L294.773 86.8311ZM289.943 80.5718L290.741 75.2066H296.584L295.748 80.5718H289.943ZM290.874 74.3124L291.672 68.9472H297.559L296.724 74.3124H290.874ZM289.97 74.3124H284.105L284.864 68.9472H290.768L289.97 74.3124ZM283.201 74.3124H277.321L278.04 68.9472H283.96L283.201 74.3124ZM276.419 74.3124H270.526L271.203 68.9472H277.138L276.419 74.3124ZM269.624 74.3124H263.716L264.352 68.9472H270.301L269.624 74.3124ZM264.458 68.0531L265.093 62.6879H271.092L270.414 68.0531H264.458ZM263.557 68.0531H257.587L258.179 62.6879H264.193L263.557 68.0531ZM258.278 61.7937L258.87 56.4285H264.934L264.298 61.7937H258.278ZM258.968 55.5343L259.561 50.1691H265.675L265.04 55.5343H258.968ZM259.659 49.275L260.251 43.9098H266.416L265.781 49.275H259.659ZM260.35 43.0156L260.942 37.6504H267.157L266.522 43.0156H260.35ZM259.45 43.0156H253.261L253.809 37.6504H260.042L259.45 43.0156ZM252.362 43.0156H246.157L246.661 37.6504H252.91L252.362 43.0156ZM245.258 43.0156H239.038L239.496 37.6504H245.761L245.258 43.0156ZM238.14 43.0156H231.907L232.318 37.6504H238.598L238.14 43.0156ZM231.009 43.0156H224.764L225.128 37.6504H231.421L231.009 43.0156ZM225.189 36.7562L225.554 31.3911H231.901L231.49 36.7562H225.189ZM224.292 36.7562H217.979L218.297 31.3911H224.657L224.292 36.7562ZM217.083 36.7562H210.76L211.029 31.3911H217.4L217.083 36.7562ZM209.865 36.7562H203.533L203.754 31.3911H210.134L209.865 36.7562ZM202.637 36.7562H196.298L196.47 31.3911H202.858L202.637 36.7562ZM195.403 36.7562H189.058L189.182 31.3911H195.575L195.403 36.7562ZM188.163 36.7562H181.815L181.889 31.3911H188.286L188.163 36.7562ZM180.92 36.7562H174.569L174.594 31.3911H180.994L180.92 36.7562ZM173.674 36.7562H167.322L167.298 31.3911H173.699L173.674 36.7562ZM166.427 36.7562H160.076L160.002 31.3911H166.403L166.427 36.7562ZM159.181 36.7562H152.833L152.71 31.3911H159.107L159.181 36.7562ZM151.938 36.7562H145.593L145.421 31.3911H151.814L151.938 36.7562ZM144.698 36.7562H138.359L138.138 31.3911H144.526L144.698 36.7562ZM137.464 36.7562H131.132L130.863 31.3911H137.243L137.464 36.7562ZM130.236 36.7562H123.913L123.596 31.3911H129.967L130.236 36.7562ZM123.017 36.7562H116.705L116.34 31.3911H122.7L123.017 36.7562ZM115.808 36.7562H109.507L109.095 31.3911H115.443L115.808 36.7562ZM115.868 37.6504L116.233 43.0156H109.987L109.576 37.6504H115.868ZM109.09 43.0156H102.856L102.398 37.6504H108.678L109.09 43.0156ZM101.958 43.0156H95.7387L95.2353 37.6504H101.5L101.958 43.0156ZM94.8394 43.0156H88.6351L88.0869 37.6504H94.336L94.8394 43.0156ZM87.7354 43.0156H81.5468L80.9546 37.6504H87.1872L87.7354 43.0156ZM80.6464 43.0156H74.4752L73.8399 37.6504H80.0542L80.6464 43.0156ZM80.7451 43.9098L81.3372 49.275H75.2163L74.5811 43.9098H80.7451ZM81.4359 50.1691L82.0281 55.5343H75.9574L75.3222 50.1691H81.4359ZM82.1268 56.4285L82.7189 61.7937H76.6986L76.0633 56.4285H82.1268ZM82.8176 62.6879L83.4098 68.0531H77.4397L76.8045 62.6879H82.8176ZM76.5386 68.0531H70.5824L69.905 62.6879H75.9033L76.5386 68.0531ZM76.6444 68.9472L77.2797 74.3124H71.3727L70.6953 68.9472H76.6444ZM70.4708 74.3124H64.5774L63.8588 68.9472H69.7934L70.4708 74.3124ZM63.6745 74.3124H57.7954L57.0366 68.9472H62.9559L63.6745 74.3124ZM56.8916 74.3124H51.0272L50.2294 68.9472H56.1328L56.8916 74.3124ZM50.1224 74.3124H44.2733L43.4375 68.9472H49.3246L50.1224 74.3124ZM50.2554 75.2066L51.0532 80.5718H45.2483L44.4125 75.2066H50.2554ZM51.1862 81.466L51.984 86.8311H46.2234L45.3876 81.466H51.1862ZM45.3177 86.8311H39.5701L38.6975 81.466H44.4819L45.3177 86.8311ZM45.457 87.7253L46.2927 93.0905H40.5882L39.7156 87.7253H45.457ZM40.7337 93.9847H46.4321L47.2678 99.3498H41.6063L40.7337 93.9847ZM47.3379 93.9847H53.0478L53.8456 99.3498H48.1737L47.3379 93.9847ZM53.9525 93.9847H59.6736L60.4323 99.3498H54.7503L53.9525 93.9847ZM60.5774 93.9847H66.3094L67.0279 99.3498H61.3362L60.5774 93.9847ZM67.2122 93.9847H72.9546L73.632 99.3498H67.9308L67.2122 93.9847ZM73.8566 93.9847H79.609L80.2442 99.3498H74.534L73.8566 93.9847ZM80.5101 93.9847H86.2719L86.864 99.3498H81.1453L80.5101 93.9847ZM87.1722 93.9847H92.943L93.4911 99.3498H87.7644L87.1722 93.9847ZM93.8427 93.9847H99.6215L100.125 99.3498H94.3908L93.8427 93.9847ZM100.521 93.9847H106.308L106.765 99.3498H101.024L100.521 93.9847ZM107.205 93.9847H112.999L113.411 99.3498H107.663L107.205 93.9847ZM113.897 93.9847H119.697L120.062 99.3498H114.309L113.897 93.9847ZM120.595 93.9847H126.401L126.718 99.3498H120.959L120.595 93.9847ZM127.297 93.9847H133.108L133.377 99.3498H127.614L127.297 93.9847ZM134.004 93.9847H139.82L140.041 99.3498H134.274L134.004 93.9847ZM140.715 93.9847H146.535L146.707 99.3498H140.936L140.715 93.9847ZM147.43 93.9847H153.251L153.375 99.3498H147.602L147.43 93.9847ZM154.147 93.9847H159.971L160.045 99.3498H154.27L154.147 93.9847ZM160.866 93.9847H166.691L166.715 99.3498H160.94L160.866 93.9847ZM167.585 93.9847H173.411L173.386 99.3498H167.61L167.585 93.9847ZM174.306 93.9847H180.131L180.057 99.3498H174.281L174.306 93.9847ZM181.026 93.9847H186.849L186.726 99.3498H180.952L181.026 93.9847ZM187.745 93.9847H193.566L193.394 99.3498H187.622L187.745 93.9847ZM194.462 93.9847H200.281L200.06 99.3498H194.29L194.462 93.9847ZM201.177 93.9847H206.993L206.723 99.3498H200.956L201.177 93.9847ZM207.888 93.9847H213.7L213.382 99.3498H207.619L207.888 93.9847ZM214.596 93.9847H220.402L220.038 99.3498H214.279L214.596 93.9847ZM221.299 93.9847H227.099L226.688 99.3498H220.935L221.299 93.9847ZM227.997 93.9847H233.791L233.333 99.3498H227.585L227.997 93.9847ZM234.689 93.9847H240.476L239.972 99.3498H234.231L234.689 93.9847ZM241.375 93.9847H247.154L246.606 99.3498H240.872L241.375 93.9847ZM248.053 93.9847H253.824L253.232 99.3498H247.505L248.053 93.9847ZM254.725 93.9847H260.487L259.852 99.3498H254.133L254.725 93.9847ZM261.387 93.9847H267.14L266.463 99.3498H260.752L261.387 93.9847ZM268.042 93.9847H273.785L273.066 99.3498H267.365L268.042 93.9847ZM274.687 93.9847H280.419L279.66 99.3498H273.968L274.687 93.9847ZM281.323 93.9847H287.045L286.247 99.3498H280.564L281.323 93.9847ZM287.949 93.9847H293.659L292.823 99.3498H287.151L287.949 93.9847ZM294.565 93.9847H300.263L299.391 99.3498H293.729L294.565 93.9847ZM307.8 94.9211L309.41 95.5843V101.48L307.8 100.743V94.9211ZM307.8 93.9547V88.1707L309.41 88.7209V94.6179L307.8 93.9547ZM306.715 86.8555L306.57 87.2781V86.8311H302.333L303.205 81.466H307.459L309.41 82.0448V87.7765L306.715 86.8555ZM302.445 80.5718H296.654L297.49 75.2066H303.318L302.445 80.5718ZM297.629 74.3124L298.465 68.9472H304.336L303.463 74.3124H297.629ZM298.604 68.0531L299.44 62.6879H305.354L304.481 68.0531H298.604ZM297.699 68.0531H291.805L292.603 62.6879H298.534L297.699 68.0531ZM290.901 68.0531H284.99L285.749 62.6879H291.699L290.901 68.0531ZM284.086 68.0531H278.16L278.878 62.6879H284.845L284.086 68.0531ZM277.258 68.0531H271.316L271.994 62.6879H277.976L277.258 68.0531ZM272.106 61.7937L272.784 56.4285H278.815L278.096 61.7937H272.106ZM271.204 61.7937H265.199L265.834 56.4285H271.882L271.204 61.7937ZM265.94 55.5343L266.575 50.1691H272.672L271.995 55.5343H265.94ZM266.681 49.275L267.316 43.9098H273.463L272.785 49.275H266.681ZM267.422 43.0156L268.057 37.6504H274.253L273.575 43.0156H267.422ZM268.163 36.7562L268.798 31.3911H275.043L274.366 36.7562H268.163ZM267.263 36.7562H261.041L261.633 31.3911H267.898L267.263 36.7562ZM260.141 36.7562H253.9L254.449 31.3911H260.733L260.141 36.7562ZM253.001 36.7562H246.744L247.248 31.3911H253.55L253.001 36.7562ZM245.845 36.7562H239.572L240.03 31.3911H246.349L245.845 36.7562ZM238.675 36.7562H232.387L232.799 31.3911H239.132L238.675 36.7562ZM231.97 30.4969H225.615L225.827 27.3803L225.969 26.9201H232.244L231.97 30.4969ZM225.383 27.2995L224.937 27.2694L224.718 30.4969H218.349L218.514 27.7129L218.722 26.9201H225.033L224.956 27.1676L225.383 27.2995ZM218.07 27.6427L217.623 27.6165L217.453 30.4969H211.074L211.2 27.9972L211.435 26.9201H217.798L217.638 27.5291L218.07 27.6427ZM210.755 27.937L210.308 27.9147L210.179 30.4969H203.791L203.884 28.2263L204.115 26.9201H210.52L210.318 27.8414L210.755 27.937ZM203.438 28.1819L202.991 28.1636L202.894 30.4969H196.499L196.566 28.4101L196.769 26.9201H203.207L202.997 28.1042L203.438 28.1819ZM196.119 28.378L195.672 28.3635L195.603 30.4969H189.202L189.247 28.5537L189.404 26.9201H195.866L195.676 28.3177L196.119 28.378ZM188.8 28.5251L188.352 28.5151L188.307 30.4969H181.901L181.927 28.6368L182.025 26.9201H188.505L188.354 28.4823L188.8 28.5251ZM181.478 28.6233L181.032 28.6172L181.006 30.4969H174.598L174.606 28.681H174.606L174.64 26.9201H181.129L181.033 28.5976L181.478 28.6233ZM174.159 28.6722L173.712 28.67L173.703 30.4969H167.293L167.285 28.67L166.838 28.6722L167.285 28.6635L167.252 26.9201H173.745L173.712 28.6635L174.159 28.6722ZM166.39 28.681H166.39L166.399 30.4969H159.99L159.964 28.6172L159.518 28.6233L159.963 28.5976L159.867 26.9201H166.357L166.39 28.681ZM159.069 28.635L159.095 30.4969H152.689L152.644 28.5151L152.197 28.5251L152.642 28.4823L152.491 26.9201H158.971L159.069 28.635ZM151.749 28.5476L151.794 30.4969H145.392L145.324 28.3635L144.877 28.378L145.32 28.3177L145.13 26.9201H151.592L151.749 28.5476ZM144.431 28.4187L144.497 30.4969H138.102L138.006 28.1636L137.559 28.1819L137.999 28.1042L137.79 26.9201H144.227L144.431 28.4187ZM137.113 28.2293L137.206 30.4969H130.818L130.689 27.9147L130.242 27.937L130.679 27.8414L130.477 26.9201H136.882L137.113 28.2293ZM129.796 27.9944L129.922 30.4969H123.543L123.373 27.6165L122.926 27.6427L123.359 27.5291L123.199 26.9201H129.561L129.796 27.9944ZM122.483 27.7129L122.647 30.4969H116.279L116.06 27.2694L115.613 27.2995L116.041 27.1676L115.964 26.9201H122.274L122.483 27.7129ZM115.17 27.3807L115.382 30.4969H109.027L108.753 26.9201H115.028L115.17 27.3807ZM108.198 31.3911L108.61 36.7562H102.322L101.864 31.3911H108.198ZM101.424 36.7562H95.1514L94.648 31.3911H100.966L101.424 36.7562ZM94.2522 36.7562H87.9955L87.4474 31.3911H93.7488L94.2522 36.7562ZM87.0958 36.7562H80.8559L80.2638 31.3911H86.5476L87.0958 36.7562ZM79.9555 36.7562H73.7341L73.0988 31.3911H79.3634L79.9555 36.7562ZM72.8329 36.7562H66.6308L65.9534 31.3911H72.1977L72.8329 36.7562ZM72.9388 37.6504L73.5741 43.0156H67.4211L66.7437 37.6504H72.9388ZM73.6799 43.9098L74.3152 49.275H68.2114L67.534 43.9098H73.6799ZM74.4211 50.1691L75.0563 55.5343H69.0018L68.3243 50.1691H74.4211ZM75.1622 56.4285L75.7974 61.7937H69.7921L69.1147 56.4285H75.1622ZM68.8901 61.7937H62.9007L62.1821 56.4285H68.2127L68.8901 61.7937ZM69.003 62.6879L69.6804 68.0531H63.739L63.0204 62.6879H69.003ZM62.8362 68.0531H56.9101L56.1514 62.6879H62.1176L62.8362 68.0531ZM56.0064 68.0531H50.0964L49.2986 62.6879H55.2476L56.0064 68.0531ZM49.1916 68.0531H43.2982L42.4624 62.6879H48.3938L49.1916 68.0531ZM42.3924 68.0531H36.5159L35.6433 62.6879H41.5566L42.3924 68.0531ZM42.5317 68.9472L43.3675 74.3124H37.534L36.6613 68.9472H42.5317ZM43.5068 75.2066L44.3426 80.5718H38.5521L37.6794 75.2066H43.5068ZM33.5371 81.466H37.7907L38.6634 86.8311H34.4275V87.2782L34.2829 86.8555L31.5861 87.7768V82.0447L33.5371 81.466ZM33.197 88.1705V93.9546L31.5861 94.6179V88.7208L33.197 88.1705ZM33.197 94.9209V100.743L31.5861 101.48V95.5842L33.197 94.9209ZM33.197 101.727V107.624L31.5861 108.438V102.464L33.197 101.727ZM41.7518 100.244H47.4071L48.2429 105.609H42.6244L41.7518 100.244ZM48.313 100.244H53.9785L54.7764 105.609H49.1488L48.313 100.244ZM54.8833 100.244H60.5588L61.3175 105.609H55.6811L54.8833 100.244ZM61.4626 100.244H67.1477L67.8663 105.609H62.2214L61.4626 100.244ZM68.0506 100.244H73.7449L74.4224 105.609H68.7692L68.0506 100.244ZM74.6469 100.244H80.3501L80.9854 105.609H75.3243L74.6469 100.244ZM81.2512 100.244H86.9627L87.5549 105.609H81.8864L81.2512 100.244ZM87.8631 100.244H93.5825L94.1307 105.609H88.4552L87.8631 100.244ZM94.4822 100.244H100.209L100.712 105.609H95.0304L94.4822 100.244ZM101.108 100.244H106.842L107.299 105.609H101.611L101.108 100.244ZM107.739 100.244H113.48L113.891 105.609H108.197L107.739 100.244ZM114.377 100.244H120.123L120.487 105.609H114.789L114.377 100.244ZM121.02 100.244H126.771L127.088 105.609H121.385L121.02 100.244ZM127.667 100.244H133.422L133.691 105.609H127.984L127.667 100.244ZM134.319 100.244H140.078L140.298 105.609H134.588L134.319 100.244ZM140.973 100.244H146.736L146.908 105.609H141.194L140.973 100.244ZM147.63 100.244H153.395L153.518 105.609H147.803L147.63 100.244ZM154.29 100.244H160.057L160.131 105.609H154.414L154.29 100.244ZM160.952 100.244H166.719L166.744 105.609H161.026L160.952 100.244ZM167.614 100.244H173.382L173.358 105.609H167.639L167.614 100.244ZM174.277 100.244H180.044L179.971 105.609H174.252L174.277 100.244ZM180.939 100.244H186.706L186.583 105.609H180.865L180.939 100.244ZM187.601 100.244H193.366L193.193 105.609H187.478L187.601 100.244ZM194.261 100.244H200.023L199.802 105.609H194.089L194.261 100.244ZM200.919 100.244H206.678L206.409 105.609H200.699L200.919 100.244ZM207.574 100.244H213.33L213.012 105.609H207.305L207.574 100.244ZM214.226 100.244H219.977L219.612 105.609H213.909L214.226 100.244ZM220.874 100.244H226.619L226.208 105.609H220.509L220.874 100.244ZM227.517 100.244H233.257L232.799 105.609H227.105L227.517 100.244ZM234.155 100.244H239.889L239.385 105.609H233.697L234.155 100.244ZM240.788 100.244H246.515L245.967 105.609H240.284L240.788 100.244ZM247.414 100.244H253.133L252.541 105.609H246.865L247.414 100.244ZM254.034 100.244H259.746L259.111 105.609H253.442L254.034 100.244ZM260.646 100.244H266.35L265.672 105.609H260.011L260.646 100.244ZM267.252 100.244H272.946L272.228 105.609H266.574L267.252 100.244ZM273.848 100.244H279.534L278.775 105.609H273.13L273.848 100.244ZM280.438 100.244H286.114L285.316 105.609H279.679L280.438 100.244ZM287.018 100.244H292.684L291.848 105.609H286.22L287.018 100.244ZM293.59 100.244H299.245L298.373 105.609H292.754L293.59 100.244ZM307.8 101.726L309.41 102.463V108.438L307.8 107.625V101.726ZM310.305 102.873L312.095 103.692V109.794L310.305 108.89V102.873ZM310.305 101.889V95.9527L312.095 96.6897V102.708L310.305 101.889ZM310.305 94.9864V89.0266L312.095 89.6379V95.7233L310.305 94.9864ZM310.305 88.0822V82.3103L312.095 82.8411V88.6936L310.305 88.0822ZM310.305 81.377V75.6546L312.095 76.0818V81.9079L310.305 81.377ZM310.305 74.7353V71.666H309.41V74.5217L308.585 74.3246L308.481 74.7595V74.3124H304.369L305.242 68.9472H309.401L312.095 69.3803V75.1624L310.305 74.7353ZM309.507 68.0587L309.436 68.5001V68.0531H305.387L306.26 62.6879H310.378L312.095 62.7953V68.4747L309.507 68.0587ZM305.499 61.7937H299.58L300.415 56.4285H306.372L305.499 61.7937ZM298.674 61.7937H292.736L293.533 56.4285H299.51L298.674 61.7937ZM291.832 61.7937H285.875L286.634 56.4285H292.63L291.832 61.7937ZM284.972 61.7937H278.998L279.717 56.4285H285.73L284.972 61.7937ZM279.836 55.5343L280.555 50.1691H286.616L285.857 55.5343H279.836ZM278.934 55.5343H272.897L273.574 50.1691H279.653L278.934 55.5343ZM273.687 49.275L274.365 43.9098H280.491L279.773 49.275H273.687ZM274.477 43.0156L275.155 37.6504H281.33L280.611 43.0156H274.477ZM275.268 36.7562L275.945 31.3911H282.168L281.449 36.7562H275.268ZM276.058 30.4969L276.735 25.1317H283.006L282.288 30.4969H276.058ZM275.156 30.4969H268.904L269.54 25.1317H275.833L275.156 30.4969ZM269.198 24.2109L268.755 24.1585L268.745 24.2375H263.816V25.1317H268.639L268.004 30.4969H261.732L262.339 24.9942L263.059 23.7904H268.942L268.827 23.9611L269.198 24.2109ZM261.905 24.8479L261.46 24.799L260.831 30.4969H254.54L255.043 25.5702L255.986 23.7904H262.016L261.521 24.6186L261.905 24.8479ZM254.607 25.4365L254.163 25.391L253.641 30.4969H247.332L247.745 26.0947L248.822 23.7904H254.972L254.212 25.2273L254.607 25.4365ZM246.901 25.7862L247.306 25.9757L246.861 25.9338L246.432 30.4969H240.107L240.441 26.5737L241.585 23.7904H247.834L246.901 25.7862ZM239.698 26.0259H233.484L234.285 23.7904H240.617L239.698 26.0259ZM232.534 26.0259H226.245L226.936 23.7904H233.335L232.534 26.0259ZM225.309 26.0259H218.957L219.545 23.7904H226L225.309 26.0259ZM218.033 26.0259H211.631L212.12 23.7904H218.62L218.033 26.0259ZM210.715 26.0259H204.273L204.668 23.7904H211.204L210.715 26.0259ZM203.365 26.0259H196.89L197.194 23.7904H203.759L203.365 26.0259ZM195.988 26.0259H189.49L189.706 23.7904H196.292L195.988 26.0259ZM188.591 26.0259H182.077L182.205 23.7904H188.806L188.591 26.0259ZM181.181 26.0259H174.657L174.7 23.7904H181.309L181.181 26.0259ZM173.762 26.0259H167.235L167.192 23.7904H173.805L173.762 26.0259ZM166.339 26.0259H159.815L159.687 23.7904H166.297L166.339 26.0259ZM158.919 26.0259H152.405L152.19 23.7904H158.791L158.919 26.0259ZM151.506 26.0259H145.009L144.705 23.7904H151.291L151.506 26.0259ZM144.105 26.0259H137.632L137.237 23.7904H143.802L144.105 26.0259ZM136.724 26.0259H130.281L129.792 23.7904H136.329L136.724 26.0259ZM129.366 26.0259H122.964L122.377 23.7904H128.877L129.366 26.0259ZM122.039 26.0259H115.688L114.997 23.7904H121.452L122.039 26.0259ZM114.752 26.0259H108.462L107.661 23.7904H114.061L114.752 26.0259ZM107.512 26.0259H101.298L100.379 23.7904H106.711L107.512 26.0259ZM100.555 26.5725L100.89 30.4969H94.5641L94.136 25.9338L93.6902 25.9757L94.0958 25.7862L93.1624 23.7904H99.412L100.555 26.5725ZM93.2518 26.0946L93.6649 30.4969H87.356L86.8343 25.391L86.3891 25.4364L86.7846 25.2273L86.0237 23.7904H92.1742L93.2518 26.0946ZM85.9527 25.5682L86.4563 30.4969H80.1651L79.5362 24.799L79.0913 24.8479L79.4755 24.6186L78.9806 23.7904H85.0112L85.9527 25.5682ZM78.6572 24.9932L79.2647 30.4969H72.9929L72.3577 25.1317H77.1808V24.2375H72.2518L72.2425 24.1585L71.7981 24.2109L72.1695 23.9611L72.0546 23.7904H77.9385L78.6572 24.9932ZM71.4565 25.1317L72.0918 30.4969H65.8405L65.1631 25.1317H71.4565ZM64.9385 30.4969H58.7089L57.9903 25.1317H64.2611L64.9385 30.4969ZM65.0514 31.3911L65.7288 36.7562H59.5472L58.8286 31.3911H65.0514ZM65.8417 37.6504L66.5191 43.0156H60.3856L59.667 37.6504H65.8417ZM66.632 43.9098L67.3095 49.275H61.2239L60.5054 43.9098H66.632ZM67.4224 50.1691L68.0998 55.5343H62.0623L61.3437 50.1691H67.4224ZM61.1595 55.5343H55.1397L54.381 50.1691H60.4409L61.1595 55.5343ZM61.2792 56.4285L61.9978 61.7937H56.025L55.2662 56.4285H61.2792ZM55.1212 61.7937H49.1656L48.3678 56.4285H54.3624L55.1212 61.7937ZM48.2608 61.7937H42.3231L41.4873 56.4285H47.463L48.2608 61.7937ZM41.4173 61.7937H35.4978L34.6252 56.4285H40.5815L41.4173 61.7937ZM34.591 61.7937H30.6047V62.2395L30.5768 61.7946L28.9016 61.8994V56.4158L29.6413 56.4285L29.6492 55.9837V56.4285H33.7184L34.591 61.7937ZM30.6181 62.6879H34.7365L35.6091 68.0531H31.5603V68.5003L31.4891 68.0587L28.9016 68.4745V62.7953L30.6181 62.6879ZM31.596 68.9472H35.7546L36.6272 74.3124H32.5159V74.7576L32.4124 74.3246L31.5861 74.5218V71.666H30.6912V74.7354L28.9016 75.1625V69.3803L31.596 68.9472ZM30.6912 75.6547V81.3772L28.9016 81.908V76.0818L30.6912 75.6547ZM30.6912 82.3101V88.0825L28.9016 88.6938V82.841L30.6912 82.3101ZM30.6912 89.0265V94.9863L28.9016 95.7233V89.6379L30.6912 89.0265ZM30.6912 95.9527V101.889L28.9016 102.708V96.6896L30.6912 95.9527ZM30.6912 102.873V108.89L28.9016 109.794V103.693L30.6912 102.873ZM30.6912 109.892V115.756L28.9016 116.69V110.796L30.6912 109.892ZM31.5861 109.44L33.197 108.626V114.448L31.5861 115.289V109.44ZM34.0919 108.175L35.6129 107.406V113.187L34.0919 113.981V108.175ZM42.7698 106.503H48.3822L49.218 111.869H43.6425L42.7698 106.503ZM49.2881 106.503H54.9093L55.7072 111.869H50.1238L49.2881 106.503ZM55.8141 106.503H61.444L62.2027 111.869H56.6119L55.8141 106.503ZM62.3478 106.503H67.9861L68.7047 111.869H63.1066L62.3478 106.503ZM68.889 106.503H74.5353L75.2127 111.869H69.6076L68.889 106.503ZM75.4372 106.503H81.0912L81.7265 111.869H76.1146L75.4372 106.503ZM81.9923 106.503H87.6536L88.2457 111.869H82.6276L81.9923 106.503ZM88.5539 106.503H94.222L94.7702 111.869H89.1461L88.5539 106.503ZM95.1217 106.503H100.796L101.299 111.869H95.6699L95.1217 106.503ZM101.695 106.503H107.376L107.834 111.869H102.199L101.695 106.503ZM108.274 106.503H113.96L114.371 111.869H108.731L108.274 106.503ZM114.857 106.503H120.548L120.913 111.869H115.269L114.857 106.503ZM121.445 106.503H127.141L127.458 111.869H121.81L121.445 106.503ZM128.037 106.503H133.736L134.006 111.869H128.354L128.037 106.503ZM134.633 106.503H140.335L140.556 111.869H134.902L134.633 106.503ZM141.231 106.503H146.936L147.109 111.869H141.452L141.231 106.503ZM147.831 106.503H153.539L153.662 111.869H148.003L147.831 106.503ZM154.434 106.503H160.143L160.217 111.869H154.557L154.434 106.503ZM161.038 106.503H166.748L166.773 111.869H161.112L161.038 106.503ZM167.643 106.503H173.353L173.329 111.869H167.668L167.643 106.503ZM174.248 106.503H179.958L179.884 111.869H174.224L174.248 106.503ZM180.853 106.503H186.562L186.439 111.869H180.779L180.853 106.503ZM187.457 106.503H193.165L192.993 111.869H187.334L187.457 106.503ZM194.06 106.503H199.765L199.544 111.869H193.888L194.06 106.503ZM200.662 106.503H206.364L206.095 111.869H200.441L200.662 106.503ZM207.26 106.503H212.959L212.642 111.869H206.991L207.26 106.503ZM213.856 106.503H219.551L219.187 111.869H213.539L213.856 106.503ZM220.449 106.503H226.139L225.727 111.869H220.084L220.449 106.503ZM227.036 106.503H232.723L232.265 111.869H226.625L227.036 106.503ZM233.621 106.503H239.301L238.798 111.869H233.163L233.621 106.503ZM240.201 106.503H245.875L245.327 111.869H239.697L240.201 106.503ZM246.774 106.503H252.443L251.85 111.869H246.226L246.774 106.503ZM253.343 106.503H259.005L258.369 111.869H252.751L253.343 106.503ZM259.905 106.503H265.559L264.882 111.869H259.27L259.905 106.503ZM266.461 106.503H272.108L271.389 111.869H265.784L266.461 106.503ZM273.01 106.503H278.649L277.89 111.869H272.291L273.01 106.503ZM279.553 106.503H285.183L284.385 111.869H278.794L279.553 106.503ZM286.087 106.503H291.709L290.873 111.869H285.289L286.087 106.503ZM292.614 106.503H298.227L297.355 111.869H291.779L292.614 106.503ZM305.384 107.406L306.905 108.175V113.982L305.384 113.188V107.406ZM307.8 108.627L309.41 109.44V115.289L307.8 114.449V108.627ZM310.305 109.892L312.095 110.796V116.69L310.305 115.756V109.892ZM312.99 111.248L315.495 112.513V118.465L312.99 117.158V111.248ZM312.99 110.246V104.101L315.495 105.248V111.511L312.99 110.246ZM312.99 103.118V97.0581L315.495 98.0898V104.264L312.99 103.118ZM312.99 96.0918V89.9436L315.495 90.7995V97.1234L312.99 96.0918ZM312.99 88.9993V83.1065L315.495 83.8497V89.8552L312.99 88.9993ZM312.99 82.1733V76.2953L315.495 76.8932V82.9165L312.99 82.1733ZM312.99 75.376V69.5241L315.495 69.9267V75.9739L312.99 75.376ZM312.99 68.6185V62.8513L315.495 63.0082V69.0211L312.99 68.6185ZM312.99 61.9554V56.4004L315.495 56.3572V62.1123L312.99 61.9554ZM306.517 55.5343H300.555L301.391 50.1691H307.39L306.517 55.5343ZM299.649 55.5343H293.666L294.464 50.1691H300.485L299.649 55.5343ZM292.763 55.5343H286.761L287.519 50.1691H293.56L292.763 55.5343ZM287.646 49.275L288.405 43.9098H294.491L293.693 49.275H287.646ZM286.742 49.275H280.675L281.393 43.9098H287.501L286.742 49.275ZM281.513 43.0156L282.232 37.6504H288.386L287.627 43.0156H281.513ZM282.351 36.7562L283.07 31.3911H289.271L288.512 36.7562H282.351ZM283.19 30.4969L283.908 25.1317H290.156L289.398 30.4969H283.19ZM283.431 22.4985L283.771 22.7888L283.328 22.7294L283.126 24.2375H276.848L276.905 23.7904H278.23V22.8963H277.525L279.219 20.6607H285.001L283.431 22.4985ZM276.403 22.8963H270.623L272.128 20.6607H278.097L276.403 22.8963ZM269.544 22.8963H263.593L264.929 20.6607H271.049L269.544 22.8963ZM262.55 22.8963H256.459L257.643 20.6607H263.886L262.55 22.8963ZM255.446 22.8963H249.241L250.286 20.6607H256.63L255.446 22.8963ZM248.252 22.8963H241.952L242.871 20.6607H249.298L248.252 22.8963ZM240.984 22.8963H234.606L235.407 20.6607H241.903L240.984 22.8963ZM233.655 22.8963H227.212L227.903 20.6607H234.456L233.655 22.8963ZM226.276 22.8963H219.78L220.367 20.6607H226.967L226.276 22.8963ZM218.855 22.8963H212.315L212.805 20.6607H219.442L218.855 22.8963ZM211.4 22.8963H204.826L205.221 20.6607H211.889L211.4 22.8963ZM203.917 22.8963H197.316L197.619 20.6607H204.312L203.917 22.8963ZM196.413 22.8963H189.792L190.007 20.6607H196.717L196.413 22.8963ZM188.892 22.8963H182.257L182.385 20.6607H189.107L188.892 22.8963ZM181.361 22.8963H174.717L174.76 20.6607H181.489L181.361 22.8963ZM173.822 22.8963H167.175L167.132 20.6607H173.865L173.822 22.8963ZM166.28 22.8963H159.636L159.507 20.6607H166.237L166.28 22.8963ZM158.74 22.8963H152.104L151.888 20.6607H158.611L158.74 22.8963ZM151.205 22.8963H144.583L144.28 20.6607H150.99L151.205 22.8963ZM143.68 22.8963H137.079L136.684 20.6607H143.376L143.68 22.8963ZM136.171 22.8963H129.597L129.108 20.6607H135.776L136.171 22.8963ZM128.681 22.8963H122.142L121.554 20.6607H128.192L128.681 22.8963ZM121.217 22.8963H114.72L114.029 20.6607H120.629L121.217 22.8963ZM113.784 22.8963H107.341L106.54 20.6607H113.093L113.784 22.8963ZM106.391 22.8963H100.012L99.0932 20.6607H105.59L106.391 22.8963ZM99.0446 22.8963H92.7442L91.6987 20.6607H98.1261L99.0446 22.8963ZM91.756 22.8963H85.5501L84.3662 20.6607H90.7104L91.756 22.8963ZM84.5377 22.8963H78.4462L77.1102 20.6607H83.3538L84.5377 22.8963ZM77.4041 22.8963H71.4527L69.9478 20.6607H76.0681L77.4041 22.8963ZM70.3736 22.8963H64.5939L62.8994 20.6607H68.8687L70.3736 22.8963ZM63.4719 22.8963H62.7666V23.7904H64.0917L64.1482 24.2375H57.8705L57.6685 22.7294L57.225 22.7888L57.5653 22.4985L55.9951 20.6607H61.7773L63.4719 22.8963ZM57.0874 25.1317L57.806 30.4969H51.5989L50.8402 25.1317H57.0874ZM57.9258 31.3911L58.6444 36.7562H52.4841L51.7254 31.3911H57.9258ZM58.7641 37.6504L59.4827 43.0156H53.3694L52.6106 37.6504H58.7641ZM59.6025 43.9098L60.3211 49.275H54.2545L53.4958 43.9098H59.6025ZM53.3508 49.275H47.304L46.5062 43.9098H52.592L53.3508 49.275ZM53.4772 50.1691L54.236 55.5343H48.2348L47.437 50.1691H53.4772ZM47.3301 55.5343H41.348L40.5122 50.1691H46.5322L47.3301 55.5343ZM40.4422 55.5343H34.4797L33.6071 50.1691H39.6064L40.4422 55.5343ZM28.0067 56.4004V61.9554L25.5013 62.1122V56.3572L28.0067 56.4004ZM28.0067 62.8513V68.6183L25.5013 69.021V63.0082L28.0067 62.8513ZM28.0067 69.5241V75.3761L25.5013 75.974V69.9267L28.0067 69.5241ZM28.0067 76.2954V82.1734L25.5013 82.9166V76.8933L28.0067 76.2954ZM28.0067 83.1064V88.9995L25.5013 89.8554V83.8495L28.0067 83.1064ZM28.0067 89.9435V96.0917L25.5013 97.1234V90.7994L28.0067 89.9435ZM28.0067 97.0581V103.118L25.5013 104.264V98.0897L28.0067 97.0581ZM28.0067 104.102V110.245L25.5013 111.511V105.249L28.0067 104.102ZM28.0067 111.248V117.157L25.5013 118.465V112.513L28.0067 111.248ZM28.0067 118.166V124.225L25.5013 125.603V119.474L28.0067 118.166ZM28.9016 117.699L30.6912 116.765V122.748L28.9016 123.732V117.699ZM31.5861 116.298L33.197 115.457V121.369L31.5861 122.256V116.298ZM34.0919 114.99L35.6129 114.196V120.04L34.0919 120.877V114.99ZM43.7879 112.763H49.3573L50.1931 118.128H44.6606L43.7879 112.763ZM50.2631 112.763H55.8401L56.638 118.128H51.0989L50.2631 112.763ZM56.7449 112.763H62.3292L63.0879 118.128H57.5427L56.7449 112.763ZM63.233 112.763H68.8244L69.543 118.128H63.9918L63.233 112.763ZM69.7273 112.763H75.3256L76.003 118.128H70.4459L69.7273 112.763ZM76.2275 112.763H81.8323L82.4676 118.128H76.9049L76.2275 112.763ZM82.7334 112.763H88.3444L88.9366 118.128H83.3687L82.7334 112.763ZM89.2448 112.763H94.8615L95.4097 118.128H89.8369L89.2448 112.763ZM95.7613 112.763H101.383L101.887 118.128H96.3094L95.7613 112.763ZM102.283 112.763H107.91L108.368 118.128H102.786L102.283 112.763ZM108.808 112.763H114.44L114.851 118.128H109.266L108.808 112.763ZM115.337 112.763H120.974L121.338 118.128H115.749L115.337 112.763ZM121.871 112.763H127.511L127.828 118.128H122.235L121.871 112.763ZM128.407 112.763H134.05L134.32 118.128H128.724L128.407 112.763ZM134.947 112.763H140.593L140.814 118.128H135.216L134.947 112.763ZM141.488 112.763H147.137L147.309 118.128H141.709L141.488 112.763ZM148.032 112.763H153.683L153.806 118.128H148.204L148.032 112.763ZM154.578 112.763H160.229L160.303 118.128H154.701L154.578 112.763ZM161.124 112.763H166.777L166.802 118.128H161.198L161.124 112.763ZM167.672 112.763H173.325L173.3 118.128H167.697L167.672 112.763ZM174.22 112.763H179.872L179.798 118.128H174.195L174.22 112.763ZM180.767 112.763H186.418L186.295 118.128H180.693L180.767 112.763ZM187.314 112.763H192.964L192.792 118.128H187.191L187.314 112.763ZM193.86 112.763H199.508L199.287 118.128H193.687L193.86 112.763ZM200.404 112.763H206.05L205.781 118.128H200.183L200.404 112.763ZM206.946 112.763H212.589L212.272 118.128H206.676L206.946 112.763ZM213.486 112.763H219.126L218.761 118.128H213.168L213.486 112.763ZM220.023 112.763H225.659L225.247 118.128H219.658L220.023 112.763ZM226.556 112.763H232.189L231.731 118.128H226.145L226.556 112.763ZM233.087 112.763H238.714L238.211 118.128H232.629L233.087 112.763ZM239.613 112.763H245.236L244.688 118.128H239.11L239.613 112.763ZM246.135 112.763H251.752L251.16 118.128H245.586L246.135 112.763ZM252.652 112.763H258.264L257.628 118.128H252.06L252.652 112.763ZM259.164 112.763H264.769L264.092 118.128H258.528L259.164 112.763ZM265.671 112.763H271.27L270.551 118.128H264.994L265.671 112.763ZM272.172 112.763H277.764L277.005 118.128H271.453L272.172 112.763ZM278.667 112.763H284.252L283.454 118.128H277.909L278.667 112.763ZM285.156 112.763H290.733L289.898 118.128H284.358L285.156 112.763ZM291.639 112.763H297.209L296.336 118.128H290.804L291.639 112.763ZM305.384 114.197L306.905 114.991V120.877L305.384 120.04V114.197ZM307.8 115.458L309.41 116.298V122.256L307.8 121.37V115.458ZM310.305 116.765L312.095 117.7V123.732L310.305 122.748V116.765ZM312.99 118.167L315.495 119.474V125.603L312.99 124.225V118.167ZM316.39 119.941L319.075 121.343V127.572L316.39 126.095V119.941ZM316.39 118.932V112.965L319.075 114.32V120.333L316.39 118.932ZM316.39 111.963V105.658L319.075 106.886V113.318L316.39 111.963ZM316.39 104.674V98.4583L319.075 99.5637V105.902L316.39 104.674ZM316.39 97.4919V91.1052L319.075 92.0223V98.5973L316.39 97.4919ZM316.39 90.1609V84.1151L319.075 84.9114V91.0779L316.39 90.1609ZM316.39 83.1819V77.1068L319.075 77.7475V83.9782L316.39 83.1819ZM316.39 76.1875V70.0705L319.075 70.502V76.8282L316.39 76.1875ZM316.39 69.165V63.0642L319.075 63.2322V69.5964L316.39 69.165ZM316.39 62.1683V56.3417L319.075 56.2955V62.3363L316.39 62.1683ZM316.39 55.4473V49.7214L319.075 49.4255V55.401L316.39 55.4473ZM316.39 48.8217V43.2594L319.075 42.6933V48.5258L316.39 48.8217ZM307.535 49.275H301.53L302.366 43.9098H308.408L307.535 49.275ZM300.624 49.275H294.597L295.395 43.9098H301.46L300.624 49.275ZM295.528 43.0156L296.326 37.6504H302.435L301.599 43.0156H295.528ZM294.624 43.0156H288.531L289.29 37.6504H295.422L294.624 43.0156ZM289.416 36.7562L290.175 31.3911H296.353L295.555 36.7562H289.416ZM290.301 30.4969L291.06 25.1317H297.284L296.486 30.4969H290.301ZM293.832 19.7666L295.99 17.531H301.647L299.199 19.7666H293.832ZM292.59 19.7666H286.941L288.852 17.531H294.748L292.59 19.7666ZM285.765 19.7666H279.897L281.592 17.531H287.675L285.765 19.7666ZM278.775 19.7666H272.73L274.235 17.531H280.469L278.775 19.7666ZM271.651 19.7666H265.463L266.799 17.531H273.156L271.651 19.7666ZM264.42 19.7666H258.117L259.3 17.531H265.756L264.42 19.7666ZM257.103 19.7666H250.704L251.75 17.531H258.287L257.103 19.7666ZM249.716 19.7666H243.238L244.157 17.531H250.762L249.716 19.7666ZM242.27 19.7666H235.727L236.528 17.531H243.189L242.27 19.7666ZM234.777 19.7666H228.18L228.871 17.531H235.578L234.777 19.7666ZM227.244 19.7666H220.602L221.19 17.531H227.935L227.244 19.7666ZM219.677 19.7666H213L213.489 17.531H220.265L219.677 19.7666ZM212.084 19.7666H205.378L205.773 17.531H212.574L212.084 19.7666ZM204.47 19.7666H197.741L198.045 17.531H204.865L204.47 19.7666ZM196.838 19.7666H190.093L190.309 17.531H197.142L196.838 19.7666ZM189.194 19.7666H182.437L182.565 17.531H189.409L189.194 19.7666ZM181.541 19.7666H174.777L174.82 17.531H181.669L181.541 19.7666ZM173.882 19.7666H167.115L167.072 17.531H173.924L173.882 19.7666ZM166.22 19.7666H159.456L159.327 17.531H166.177L166.22 19.7666ZM158.56 19.7666H151.802L151.587 17.531H158.431L158.56 19.7666ZM150.904 19.7666H144.158L143.854 17.531H150.688L150.904 19.7666ZM143.255 19.7666H136.527L136.132 17.531H142.951L143.255 19.7666ZM135.618 19.7666H128.912L128.423 17.531H135.223L135.618 19.7666ZM127.996 19.7666H121.319L120.732 17.531H127.507L127.996 19.7666ZM120.394 19.7666H113.753L113.062 17.531H119.807L120.394 19.7666ZM112.817 19.7666H106.22L105.419 17.531H112.126L112.817 19.7666ZM105.269 19.7666H98.7258L97.8072 17.531H104.468L105.269 19.7666ZM97.7587 19.7666H91.2805L90.2349 17.531H96.8401L97.7587 19.7666ZM90.2923 19.7666H83.8927L82.7088 17.531H89.2467L90.2923 19.7666ZM82.8803 19.7666H76.5759L75.2399 17.531H81.6964L82.8803 19.7666ZM75.5338 19.7666H69.3458L67.8409 17.531H74.1978L75.5338 19.7666ZM68.2668 19.7666H62.2216L60.5271 17.531H66.7619L68.2668 19.7666ZM61.0995 19.7666H55.2311L53.321 17.531H59.405L61.0995 19.7666ZM54.0542 19.7666H48.4074L46.2493 17.531H52.1441L54.0542 19.7666ZM47.1638 19.7666H41.7979L39.3502 17.531H45.0058L47.1638 19.7666ZM49.9365 25.1317L50.6952 30.4969H44.5117L43.7138 25.1317H49.9365ZM50.8217 31.3911L51.5804 36.7562H45.4424L44.6446 31.3911H50.8217ZM51.7068 37.6504L52.4656 43.0156H46.3732L45.5754 37.6504H51.7068ZM45.4685 43.0156H39.3978L38.562 37.6504H44.6707L45.4685 43.0156ZM45.6014 43.9098L46.3993 49.275H40.3729L39.5371 43.9098H45.6014ZM39.4671 49.275H33.4617L32.589 43.9098H38.6313L39.4671 49.275ZM24.6065 48.8217L21.9219 48.5258V42.6932L24.6065 43.2593V48.8217ZM24.6065 49.7214V55.4473L21.9219 55.401V49.4256L24.6065 49.7214ZM24.6065 56.3418V62.1683L21.9219 62.3363V56.2955L24.6065 56.3418ZM24.6065 63.0642V69.1648L21.9219 69.5962V63.2322L24.6065 63.0642ZM24.6065 70.0705V76.1875L21.9219 76.8282V70.502L24.6065 70.0705ZM24.6065 77.1069V83.182L21.9219 83.9783V77.7475L24.6065 77.1069ZM24.6065 84.115V90.161L21.9219 91.0781V84.9112L24.6065 84.115ZM24.6065 91.1051V97.4918L21.9219 98.5972V92.0222L24.6065 91.1051ZM24.6065 98.4582V104.674L21.9219 105.902V99.5636L24.6065 98.4582ZM24.6065 105.658V111.963L21.9219 113.318V106.887L24.6065 105.658ZM24.6065 112.965V118.932L21.9219 120.333V114.32L24.6065 112.965ZM24.6065 119.941V126.095L21.9219 127.572V121.342L24.6065 119.941ZM24.6065 127.117V133.386L21.9219 134.951V128.594L24.6065 127.117ZM25.5013 126.625L28.0067 125.246V131.403L25.5013 132.864V126.625ZM28.9016 124.754L30.6912 123.77V129.838L28.9016 130.882V124.754ZM31.5861 123.277L33.197 122.391V128.377L31.5861 129.317V123.277ZM34.0919 121.899L35.6129 121.062V126.969L34.0919 127.856V121.899ZM36.5077 120.57L37.85 119.832V125.665L36.5077 126.447V120.57ZM44.806 119.022H50.3324L51.1682 124.387H45.6786L44.806 119.022ZM51.2382 119.022H56.7709L57.5688 124.387H52.074L51.2382 119.022ZM57.6757 119.022H63.2144L63.9731 124.387H58.4735L57.6757 119.022ZM64.1182 119.022H69.6628L70.3814 124.387H64.877L64.1182 119.022ZM70.5657 119.022H76.1159L76.7933 124.387H71.2843L70.5657 119.022ZM77.0178 119.022H82.5735L83.2087 124.387H77.6952L77.0178 119.022ZM83.4745 119.022H89.0353L89.6274 124.387H84.1098L83.4745 119.022ZM89.9356 119.022H95.5011L96.0493 124.387H90.5278L89.9356 119.022ZM96.4008 119.022H101.971L102.474 124.387H96.949L96.4008 119.022ZM102.87 119.022H108.444L108.902 124.387H103.373L102.87 119.022ZM109.342 119.022H114.92L115.332 124.387H109.8L109.342 119.022ZM115.818 119.022H121.399L121.764 124.387H116.229L115.818 119.022ZM122.296 119.022H127.881L128.198 124.387H122.661L122.296 119.022ZM128.777 119.022H134.365L134.634 124.387H129.094L128.777 119.022ZM135.261 119.022H140.851L141.071 124.387H135.53L135.261 119.022ZM141.746 119.022H147.338L147.51 124.387H141.967L141.746 119.022ZM148.233 119.022H153.826L153.949 124.387H148.405L148.233 119.022ZM154.722 119.022H160.316L160.39 124.387H154.845L154.722 119.022ZM161.211 119.022H166.806L166.83 124.387H161.285L161.211 119.022ZM167.701 119.022H173.296L173.271 124.387H167.725L167.701 119.022ZM174.191 119.022H179.786L179.712 124.387H174.166L174.191 119.022ZM180.681 119.022H186.275L186.152 124.387H180.607L180.681 119.022ZM187.17 119.022H192.763L192.591 124.387H187.047L187.17 119.022ZM193.659 119.022H199.25L199.029 124.387H193.487L193.659 119.022ZM200.146 119.022H205.736L205.467 124.387H199.925L200.146 119.022ZM206.632 119.022H212.219L211.902 124.387H206.362L206.632 119.022ZM213.116 119.022H218.7L218.336 124.387H212.798L213.116 119.022ZM219.598 119.022H225.179L224.767 124.387H219.233L219.598 119.022ZM226.076 119.022H231.655L231.197 124.387H225.665L226.076 119.022ZM232.553 119.022H238.127L237.623 124.387H232.095L232.553 119.022ZM239.026 119.022H244.596L244.048 124.387H238.523L239.026 119.022ZM245.495 119.022H251.061L250.469 124.387H244.947L245.495 119.022ZM251.961 119.022H257.522L256.887 124.387H251.369L251.961 119.022ZM258.423 119.022H263.979L263.301 124.387H257.787L258.423 119.022ZM264.881 119.022H270.431L269.713 124.387H264.203L264.881 119.022ZM271.333 119.022H276.878L276.12 124.387H270.615L271.333 119.022ZM277.782 119.022H283.321L282.524 124.387H277.023L277.782 119.022ZM284.225 119.022H289.758L288.923 124.387H283.427L284.225 119.022ZM290.664 119.022H296.191L295.318 124.387H289.828L290.664 119.022ZM303.147 119.831L304.489 120.57V126.447L303.147 125.665V119.831ZM305.384 121.062L306.905 121.899V127.856L305.384 126.969V121.062ZM307.8 122.391L309.41 123.277V129.317L307.8 128.378V122.391ZM310.305 123.77L312.095 124.754V130.882L310.305 129.838V123.77ZM312.99 125.246L315.495 126.625V132.864L312.99 131.404V125.246ZM316.39 127.117L319.075 128.594V134.951L316.39 133.386V127.117ZM319.969 129.086L323.101 130.809V137.299L319.969 135.473V129.086ZM319.969 128.064V121.81L323.101 123.444V129.787L319.969 128.064ZM319.969 120.8V114.772L323.101 116.354V122.435L319.969 120.8ZM319.969 113.77V107.296L323.101 108.729V115.352L319.969 113.77ZM319.969 106.312V99.9321L323.101 101.222V107.745L319.969 106.312ZM319.969 98.9658V92.328L323.101 93.3979V100.255L319.969 98.9658ZM319.969 91.3836V85.1768L323.101 86.1058V92.4535L319.969 91.3836ZM319.969 84.2436V77.9611L323.101 78.7086V85.1727L319.969 84.2436ZM319.969 77.0417V70.6458L323.101 71.1491V77.7892L319.969 77.0417ZM319.969 69.7402V63.2882L323.101 63.4843V70.2435L319.969 69.7402ZM319.969 62.3923V56.2801L323.101 56.2261V62.5883L319.969 62.3923ZM319.969 55.3856V49.3269L323.101 48.9818V55.3316L319.969 55.3856ZM319.969 48.4272V42.5046L323.101 41.8441V48.082L319.969 48.4272ZM319.075 41.7792L316.39 42.3454V37.0558L319.075 36.3005V41.7792ZM308.553 43.0156H302.505L303.341 37.6504H309.426L308.553 43.0156ZM303.48 36.7562L304.316 31.3911H310.444L309.571 36.7562H303.48ZM302.574 36.7562H296.459L297.257 31.3911H303.41L302.574 36.7562ZM297.39 30.4969L298.188 25.1317H304.385L303.549 30.4969H297.39ZM298.32 24.2375L298.743 21.394L299.546 20.6607H305.082L304.524 24.2375H298.32ZM305.529 19.7666H300.525L302.973 17.531H308.321L305.529 19.7666ZM303.952 16.6369L306.4 14.4014H312.229L309.438 16.6369H303.952ZM302.626 16.6369H296.854L299.012 14.4014H305.074L302.626 16.6369ZM295.611 16.6369H289.616L291.526 14.4014H297.769L295.611 16.6369ZM288.44 16.6369H282.269L283.964 14.4014H290.35L288.44 16.6369ZM281.147 16.6369H274.837L276.341 14.4014H282.842L281.147 16.6369ZM273.758 16.6369H267.334L268.67 14.4014H275.262L273.758 16.6369ZM266.291 16.6369H259.774L260.958 14.4014H267.627L266.291 16.6369ZM258.761 16.6369H252.168L253.214 14.4014H259.945L258.761 16.6369ZM251.18 16.6369H244.524L245.443 14.4014H252.225L251.18 16.6369ZM243.556 16.6369H236.849L237.65 14.4014H244.475L243.556 16.6369ZM235.898 16.6369H229.147L229.838 14.4014H236.699L235.898 16.6369ZM228.211 16.6369H221.424L222.012 14.4014H228.902L228.211 16.6369ZM220.5 16.6369H213.685L214.174 14.4014H221.087L220.5 16.6369ZM212.769 16.6369H205.931L206.326 14.4014H213.258L212.769 16.6369ZM205.023 16.6369H198.166L198.47 14.4014H205.418L205.023 16.6369ZM197.264 16.6369H190.395L190.61 14.4014H197.568L197.264 16.6369ZM189.495 16.6369H182.617L182.745 14.4014H189.71L189.495 16.6369ZM181.721 16.6369H174.837L174.879 14.4014H181.849L181.721 16.6369ZM173.941 16.6369H167.055L167.013 14.4014H173.984L173.941 16.6369ZM166.16 16.6369H159.276L159.147 14.4014H166.117L166.16 16.6369ZM158.38 16.6369H151.501L151.286 14.4014H158.251L158.38 16.6369ZM150.602 16.6369H143.733L143.429 14.4014H150.387L150.602 16.6369ZM142.829 16.6369H135.974L135.579 14.4014H142.525L142.829 16.6369ZM135.066 16.6369H128.227L127.738 14.4014H134.671L135.066 16.6369ZM127.312 16.6369H120.497L119.909 14.4014H126.823L127.312 16.6369ZM119.572 16.6369H112.786L112.095 14.4014H118.985L119.572 16.6369ZM111.849 16.6369H105.098L104.298 14.4014H111.158L111.849 16.6369ZM104.148 16.6369H97.4398L96.5212 14.4014H103.347L104.148 16.6369ZM96.4727 16.6369H89.8167L88.7712 14.4014H95.5541L96.4727 16.6369ZM88.8285 16.6369H82.2352L81.0513 14.4014H87.783L88.8285 16.6369ZM81.2228 16.6369H74.7055L73.3696 14.4014H80.0389L81.2228 16.6369ZM73.6634 16.6369H67.239L65.7341 14.4014H72.3275L73.6634 16.6369ZM66.16 16.6369H59.8493L58.1548 14.4014H64.6551L66.16 16.6369ZM58.7272 16.6369H52.557L50.6469 14.4014H57.0326L58.7272 16.6369ZM51.3801 16.6369H45.3861L43.2281 14.4014H49.47L51.3801 16.6369ZM44.1426 16.6369H38.3711L35.9233 14.4014H41.9845L44.1426 16.6369ZM37.0445 16.6369H31.5594L28.7677 14.4014H34.5967L37.0445 16.6369ZM38.0235 17.531L40.4713 19.7666H35.4677L32.676 17.531H38.0235ZM41.4503 20.6607L42.2533 21.3941L42.6761 24.2375H36.4725L35.9153 20.6607H41.4503ZM42.8091 25.1317L43.6069 30.4969H37.4476L36.6118 25.1317H42.8091ZM43.7399 31.3911L44.5377 36.7562H38.4227L37.5869 31.3911H43.7399ZM37.5169 36.7562H31.4255L30.5529 31.3911H36.6811L37.5169 36.7562ZM37.6562 37.6504L38.492 43.0156H32.4436L31.5709 37.6504H37.6562ZM24.6065 42.3454L21.9219 41.7793V36.3005L24.6065 37.0558V42.3454ZM21.0271 42.5045V48.4272L17.8951 48.082V41.844L21.0271 42.5045ZM21.0271 49.3269V55.3856L17.8951 55.3316V48.9818L21.0271 49.3269ZM21.0271 56.2801V62.3923L17.8951 62.5883V56.2261L21.0271 56.2801ZM21.0271 63.2882V69.74L17.8951 70.2434V63.4843L21.0271 63.2882ZM21.0271 70.6458V77.0417L17.8951 77.7892V71.1491L21.0271 70.6458ZM21.0271 77.9611V84.2437L17.8951 85.1727V78.7085L21.0271 77.9611ZM21.0271 85.1766V91.3838L17.8951 92.4537V86.1056L21.0271 85.1766ZM21.0271 92.3278V98.9657L17.8951 100.255V93.3977L21.0271 92.3278ZM21.0271 99.9321V106.312L17.8951 107.745V101.222L21.0271 99.9321ZM21.0271 107.296V113.77L17.8951 115.352V108.729L21.0271 107.296ZM21.0271 114.772V120.8L17.8951 122.435V116.354L21.0271 114.772ZM21.0271 121.809V128.064L17.8951 129.787V123.444L21.0271 121.809ZM21.0271 129.086V135.473L17.8951 137.299V130.809L21.0271 129.086ZM21.0271 136.508V142.899L17.8951 144.821V138.334L21.0271 136.508ZM21.9219 135.986L24.6065 134.421V140.702L21.9219 142.35V135.986ZM25.5013 133.899L28.0067 132.438V138.615L25.5013 140.153V133.899ZM28.9016 131.917L30.6912 130.873V136.968L28.9016 138.066V131.917ZM31.5861 130.351L33.197 129.412V135.43L31.5861 136.419V130.351ZM34.0919 128.89L35.6129 128.004V133.947L34.0919 134.881V128.89ZM36.5077 127.482L37.85 126.699V132.574L36.5077 133.398V127.482ZM45.8241 125.281H51.3075L52.1433 130.647H46.6967L45.8241 125.281ZM52.2133 125.281H57.7017L58.4995 130.647H53.0491L52.2133 125.281ZM58.6065 125.281H64.0996L64.8583 130.647H59.4043L58.6065 125.281ZM65.0034 125.281H70.5011L71.2197 130.647H65.7622L65.0034 125.281ZM71.404 125.281H76.9062L77.5837 130.647H72.1226L71.404 125.281ZM77.8081 125.281H83.3146L83.9499 130.647H78.4855L77.8081 125.281ZM84.2157 125.281H89.7261L90.3183 130.647H84.8509L84.2157 125.281ZM90.6265 125.281H96.1406L96.6888 130.647H91.2186L90.6265 125.281ZM97.0403 125.281H102.558L103.061 130.647H97.5885L97.0403 125.281ZM103.457 125.281H108.978L109.436 130.647H103.96L103.457 125.281ZM109.876 125.281H115.4L115.812 130.647H110.334L109.876 125.281ZM116.298 125.281H121.824L122.189 130.647H116.709L116.298 125.281ZM122.722 125.281H128.251L128.568 130.647H123.086L122.722 125.281ZM129.147 125.281H134.679L134.948 130.647H129.464L129.147 125.281ZM135.575 125.281H141.108L141.329 130.647H135.844L135.575 125.281ZM142.004 125.281H147.539L147.711 130.647H142.225L142.004 125.281ZM148.434 125.281H153.97L154.093 130.647H148.606L148.434 125.281ZM154.865 125.281H160.402L160.476 130.647H154.988L154.865 125.281ZM161.297 125.281H166.835L166.859 130.647H161.371L161.297 125.281ZM167.729 125.281H173.267L173.242 130.647H167.754L167.729 125.281ZM174.162 125.281H179.699L179.625 130.647H174.137L174.162 125.281ZM180.594 125.281H186.131L186.008 130.647H180.52L180.594 125.281ZM187.026 125.281H192.562L192.39 130.647H186.903L187.026 125.281ZM193.458 125.281H198.992L198.771 130.647H193.286L193.458 125.281ZM199.889 125.281H205.422L205.153 130.647H199.668L199.889 125.281ZM206.317 125.281H211.849L211.532 130.647H206.048L206.317 125.281ZM212.746 125.281H218.275L217.91 130.647H212.428L212.746 125.281ZM219.172 125.281H224.699L224.287 130.647H218.808L219.172 125.281ZM225.596 125.281H231.121L230.663 130.647H225.184L225.596 125.281ZM232.018 125.281H237.54L237.036 130.647H231.561L232.018 125.281ZM238.439 125.281H243.957L243.408 130.647H237.935L238.439 125.281ZM244.856 125.281H250.37L249.778 130.647H244.307L244.856 125.281ZM251.27 125.281H256.781L256.146 130.647H250.678L251.27 125.281ZM257.682 125.281H263.188L262.511 130.647H257.046L257.682 125.281ZM264.09 125.281H269.593L268.874 130.647H263.413L264.09 125.281ZM270.495 125.281H275.993L275.234 130.647H269.776L270.495 125.281ZM276.897 125.281H282.391L281.593 130.647H276.138L276.897 125.281ZM283.294 125.281H288.783L287.947 130.647H282.497L283.294 125.281ZM289.689 125.281H295.173L294.3 130.647H288.853L289.689 125.281ZM303.147 126.699L304.489 127.482V133.398L303.147 132.574V126.699ZM305.384 128.004L306.905 128.891V134.881L305.384 133.947V128.004ZM307.8 129.412L309.41 130.352V136.419L307.8 135.43V129.412ZM310.305 130.873L312.095 131.917V138.066L310.305 136.968V130.873ZM312.99 132.438L315.495 133.899V140.153L312.99 138.615V132.438ZM316.39 134.421L319.075 135.986V142.35L316.39 140.702V134.421ZM319.969 136.508L323.101 138.334V144.821L319.969 142.899V136.508ZM327.576 139.908L323.996 137.821V131.301L327.576 133.27V139.908ZM327.576 132.249L323.996 130.28V123.911L327.576 125.78V132.249ZM327.576 124.77L323.996 122.902V116.806L327.576 118.614V124.77ZM327.576 117.612L323.996 115.804V109.139L327.576 110.777V117.612ZM327.576 109.793L323.996 108.155V101.59L327.576 103.064V109.793ZM327.576 102.098L323.996 100.624V93.7036L327.576 94.9264V102.098ZM327.576 93.982L323.996 92.7592V86.3713L327.576 87.433V93.982ZM327.576 86.4998L323.996 85.4381V78.9221L327.576 79.7764V86.4998ZM327.576 78.857L323.996 78.0028V71.2929L327.576 71.8682V78.857ZM327.576 70.9626L323.996 70.3874V63.5403L327.576 63.7644V70.9626ZM327.576 62.8684L323.996 62.6444V56.2106L327.576 56.149V62.8684ZM327.576 55.2545L323.996 55.3162V48.8831L327.576 48.4887V55.2545ZM327.576 47.5889L323.996 47.9834V41.6554L327.576 40.9006V47.5889ZM327.576 39.9865L323.996 40.7413V34.9158L327.576 33.9088V39.9865ZM327.576 32.9794L323.996 33.9864V28.0814L327.576 26.7266V32.9794ZM327.576 19.082V25.7703L323.996 27.1251V20.5983L327.576 19.082ZM319.969 22.3042L323.101 20.9774V27.4638L319.969 28.6492V22.3042ZM315.17 31.3911V30.944L315.328 31.3623L319.075 29.9443V35.3711L316.39 36.1264V31.8085H315.495V36.3782L314.152 36.7562H310.477L311.35 31.3911H315.17ZM310.589 30.4969H304.455L305.291 25.1317H311.462L310.589 30.4969ZM312.598 18.9902L312.854 19.357L312.413 19.2854L311.608 24.2375H305.43L305.987 20.6607H306.115V20.443L309.751 17.531H314.692L312.598 18.9902ZM315.976 16.6369H310.868L313.66 14.4014H319.184L315.976 16.6369ZM323.676 11.2717L320.467 13.5072H314.776L317.568 11.2717H323.676ZM316.137 11.2717L313.346 13.5072H307.379L309.826 11.2717H316.137ZM308.501 11.2717L306.053 13.5072H299.875L302.033 11.2717H308.501ZM300.79 11.2717L298.632 13.5072H292.29L294.2 11.2717H300.79ZM293.024 11.2717L291.114 13.5072H284.642L286.336 11.2717H293.024ZM285.214 11.2717L283.52 13.5072H276.943L278.448 11.2717H285.214ZM277.369 11.2717L275.864 13.5072H269.204L270.54 11.2717H277.369ZM269.497 11.2717L268.161 13.5072H261.431L262.615 11.2717H269.497ZM261.602 11.2717L260.418 13.5072H253.632L254.677 11.2717H261.602ZM253.689 11.2717L252.644 13.5072H245.81L246.729 11.2717H253.689ZM245.761 11.2717L244.842 13.5072H237.97L238.771 11.2717H245.761ZM237.821 11.2717L237.02 13.5072H230.114L230.805 11.2717H237.821ZM229.869 11.2717L229.178 13.5072H222.247L222.834 11.2717H229.869ZM221.909 11.2717L221.322 13.5072H214.369L214.859 11.2717H221.909ZM213.943 11.2717L213.454 13.5072H206.484L206.879 11.2717H213.943ZM205.971 11.2717L205.576 13.5072H198.592L198.896 11.2717H205.971ZM197.993 11.2717L197.689 13.5072H190.696L190.912 11.2717H197.993ZM190.012 11.2717L189.797 13.5072H182.797L182.925 11.2717H190.012ZM182.029 11.2717L181.901 13.5072H174.897L174.939 11.2717H182.029ZM174.044 11.2717L174.001 13.5072H166.996L166.953 11.2717H174.044ZM166.058 11.2717L166.1 13.5072H159.096L158.967 11.2717H166.058ZM158.071 11.2717L158.2 13.5072H151.199L150.984 11.2717H158.071ZM150.085 11.2717L150.301 13.5072H143.307L143.003 11.2717H150.085ZM142.1 11.2717L142.404 13.5072H135.421L135.026 11.2717H142.1ZM134.118 11.2717L134.513 13.5072H127.543L127.054 11.2717H134.118ZM126.138 11.2717L126.627 13.5072H119.674L119.087 11.2717H126.138ZM118.162 11.2717L118.75 13.5072H111.818L111.127 11.2717H118.162ZM110.191 11.2717L110.882 13.5072H103.977L103.176 11.2717H110.191ZM102.226 11.2717L103.027 13.5072H96.1538L95.2353 11.2717H102.226ZM94.2682 11.2717L95.1867 13.5072H88.353L87.3075 11.2717H94.2682ZM86.3193 11.2717L87.3648 13.5072H80.5778L79.3939 11.2717H86.3193ZM78.3815 11.2717L79.5654 13.5072H72.8352L71.4993 11.2717H78.3815ZM70.4572 11.2717L71.7931 13.5072H65.1321L63.6272 11.2717H70.4572ZM62.5482 11.2717L64.0531 13.5072H57.477L55.7825 11.2717H62.5482ZM54.6603 11.2717L56.3548 13.5072H49.8829L47.9728 11.2717H54.6603ZM46.796 11.2717L48.706 13.5072H42.3649L40.2068 11.2717H46.796ZM38.9633 11.2717L41.1213 13.5072H34.9443L32.4966 11.2717H38.9633ZM31.17 11.2717L33.6177 13.5072H27.6511L24.8595 11.2717H31.17ZM17.3207 11.2717H23.429L26.2206 13.5072H20.529L17.3207 11.2717ZM21.8123 14.4014H27.3372L30.1289 16.6369H25.0207L21.8123 14.4014ZM28.5839 19.2854L28.1422 19.357L28.3982 18.9902L26.304 17.531H31.2455L34.8814 20.4426V20.6607H35.0095L35.5667 24.2375H29.3893L28.5839 19.2854ZM29.5348 25.1317H35.706L36.5418 30.4969H30.4074L29.5348 25.1317ZM25.6682 31.3623L25.8264 30.9451V31.3911H29.6461L30.5187 36.7562H26.845L25.5013 36.3782V31.8085H24.6065V36.1264L21.9219 35.3712V29.9443L25.6682 31.3623ZM21.0271 22.3042V28.649L17.8951 27.4636V20.9775L21.0271 22.3042ZM13.4209 19.0821L17.0003 20.5984V27.1249L13.4209 25.7702V19.0821ZM13.4209 26.7268L17.0003 28.0815V33.9865L13.4209 32.9795V26.7268ZM13.4209 33.9088L17.0003 34.9159V40.7414L13.4209 39.9866V33.9088ZM13.4209 40.9006L17.0003 41.6553V47.9834L13.4209 47.5889V40.9006ZM13.4209 48.4887L17.0003 48.8832V55.3162L13.4209 55.2545V48.4887ZM13.4209 56.149L17.0003 56.2106V62.6443L13.4209 62.8684V56.149ZM13.4209 63.7644L17.0003 63.5403V70.3872L13.4209 70.9624V63.7644ZM13.4209 71.8682L17.0003 71.2929V78.0027L13.4209 78.857V71.8682ZM13.4209 79.7763L17.0003 78.9221V85.4381L13.4209 86.4998V79.7763ZM13.4209 87.4328L17.0003 86.3711V92.7594L13.4209 93.9821V87.4328ZM13.4209 94.9262L17.0003 93.7034V100.624L13.4209 102.098V94.9262ZM13.4209 103.064L17.0003 101.59V108.155L13.4209 109.793V103.064ZM13.4209 110.777L17.0003 109.139V115.804L13.4209 117.611V110.777ZM13.4209 118.613L17.0003 116.806V122.902L13.4209 124.77V118.613ZM13.4209 125.779L17.0003 123.911V130.279L13.4209 132.248V125.779ZM13.4209 133.27L17.0003 131.301V137.82L13.4209 139.907V133.27ZM13.4209 140.942L17.0003 138.855V145.371L13.4209 147.567V140.942ZM13.4209 155.212V148.616L17.0003 146.419V152.914L13.4209 155.212ZM17.8951 152.34V145.87L21.0271 143.948V150.33L17.8951 152.34ZM21.9219 149.755V143.399L24.6065 141.751V148.032L21.9219 149.755ZM25.5013 147.458V141.202L28.0067 139.664V145.85L25.5013 147.458ZM28.9016 145.275V139.115L30.6912 138.017V144.127L28.9016 145.275ZM31.5861 143.552V137.468L33.197 136.479V142.518L31.5861 143.552ZM34.0919 141.944V135.93L35.6129 134.996V140.968L34.0919 141.944ZM36.5077 140.393V134.447L37.85 133.623V139.532L36.5077 140.393ZM38.7448 138.958V133.074L39.6397 132.525V138.383L38.7448 138.958ZM42.0726 136.906V137.353L41.8309 136.977L40.5345 137.809V131.976L41.2431 131.541H45.9353L46.808 136.906H42.0726ZM47.7148 136.906L46.8422 131.541H52.2826L53.1184 136.906H47.7148ZM54.0242 136.906L53.1884 131.541H58.6325L59.4303 136.906H54.0242ZM60.335 136.906L59.5372 131.541H64.9848L65.7435 136.906H60.335ZM66.6474 136.906L65.8886 131.541H71.3395L72.0581 136.906H66.6474ZM72.961 136.906L72.2424 131.541H77.6966L78.374 136.906H72.961ZM79.2758 136.906L78.5984 131.541H84.0557L84.691 136.906H79.2758ZM85.592 136.906L84.9568 131.541H90.417L91.0091 136.906H85.592ZM91.9095 136.906L91.3173 131.541H96.7802L97.3283 136.906H91.9095ZM98.2281 136.906L97.6799 131.541H103.145L103.648 136.906H98.2281ZM104.548 136.906L104.044 131.541H109.512L109.97 136.906H104.548ZM110.868 136.906L110.41 131.541H115.88L116.292 136.906H110.868ZM117.189 136.906L116.778 131.541H122.25L122.615 136.906H117.189ZM123.512 136.906L123.147 131.541H128.621L128.938 136.906H123.512ZM129.835 136.906L129.517 131.541H134.993L135.262 136.906H129.835ZM136.158 136.906L135.889 131.541H141.366L141.587 136.906H136.158ZM142.482 136.906L142.262 131.541H147.74L147.912 136.906H142.482ZM148.807 136.906L148.635 131.541H154.114L154.237 136.906H148.807ZM155.132 136.906L155.009 131.541H160.488L160.562 136.906H155.132ZM161.457 136.906L161.383 131.541H166.863L166.888 136.906H161.457ZM167.783 136.906L167.758 131.541H173.238L173.214 136.906H167.783ZM174.108 136.906L174.133 131.541H179.613L179.539 136.906H174.108ZM180.434 136.906L180.508 131.541H185.987L185.864 136.906H180.434ZM186.76 136.906L186.883 131.541H192.361L192.189 136.906H186.76ZM193.085 136.906L193.257 131.541H198.735L198.514 136.906H193.085ZM199.41 136.906L199.631 131.541H205.108L204.839 136.906H199.41ZM205.734 136.906L206.003 131.541H211.479L211.162 136.906H205.734ZM212.058 136.906L212.375 131.541H217.849L217.485 136.906H212.058ZM218.382 136.906L218.747 131.541H224.218L223.807 136.906H218.382ZM224.704 136.906L225.116 131.541H230.586L230.129 136.906H224.704ZM231.027 136.906L231.484 131.541H236.952L236.449 136.906H231.027ZM237.348 136.906L237.851 131.541H243.317L242.769 136.906H237.348ZM243.668 136.906L244.216 131.541H249.679L249.087 136.906H243.668ZM249.987 136.906L250.58 131.541H256.04L255.405 136.906H249.987ZM256.305 136.906L256.94 131.541H262.398L261.721 136.906H256.305ZM262.623 136.906L263.3 131.541H268.755L268.036 136.906H262.623ZM268.938 136.906L269.657 131.541H275.108L274.349 136.906H268.938ZM275.253 136.906L276.012 131.541H281.46L280.662 136.906H275.253ZM281.566 136.906L282.364 131.541H287.808L286.972 136.906H281.566ZM287.878 136.906L288.714 131.541H294.155L293.282 136.906H287.878ZM299.166 136.977L298.924 137.353V136.906H294.188L295.061 131.541H299.754L300.462 131.975V137.809L299.166 136.977ZM301.357 138.383V132.525L302.252 133.074V138.957L301.357 138.383ZM303.147 139.532V133.623L304.489 134.447V140.393L303.147 139.532ZM305.384 140.968V134.996L306.905 135.93V141.944L305.384 140.968ZM307.8 142.519V136.479L309.41 137.468V143.552L307.8 142.519ZM310.305 144.127V138.017L312.095 139.115V145.275L310.305 144.127ZM312.99 145.85V139.664L315.495 141.202V147.458L312.99 145.85ZM316.39 148.032V141.751L319.075 143.399V149.755L316.39 148.032ZM319.969 150.33V143.948L323.101 145.87V152.34L319.969 150.33ZM323.996 152.914V146.42L327.576 148.616V155.212L323.996 152.914Z" fill="#E6E6E6"/>
<path d="M170.499 29.5883C120.835 29.5883 71.1704 26.1962 21.8535 19.4129L22.0973 17.6411C120.57 31.1859 220.429 31.1859 318.9 17.6411L319.144 19.4129C269.827 26.1962 220.163 29.5883 170.499 29.5883Z" fill="#E6E6E6"/>
<path d="M297.972 141.824H43.0312V145.401H297.972V141.824Z" fill="#E6E6E6"/>
<path d="M6.5597 170.049L44.9702 144.469L26.5399 23.7511C25.8709 19.371 23.2812 15.5942 19.4352 13.3902L8.94311 7.3757L7.16219 10.4784L17.6543 16.4919C20.549 18.1519 22.4978 20.9943 23.0016 24.2907L41.0876 142.756L4.57422 167.073L6.5597 170.049Z" fill="#E6E6E6"/>
<path d="M334.438 170.049L296.027 144.469L314.458 23.7511C315.127 19.371 317.716 15.5942 321.562 13.3902L332.054 7.3757L333.835 10.4784L323.343 16.4919C320.449 18.1519 318.5 20.9943 317.996 24.2907L299.91 142.756L336.423 167.073L334.438 170.049Z" fill="#E6E6E6"/>
<path d="M297.97 141.824H43.0293V145.401H297.97V141.824Z" fill="#E6E6E6"/>
<path d="M6.5597 170.049L44.9702 144.469L26.5399 23.7511C25.8709 19.371 23.2812 15.5942 19.4352 13.3902L8.94311 7.3757L7.16219 10.4784L17.6543 16.4919C20.549 18.1519 22.4978 20.9943 23.0016 24.2907L41.0876 142.756L4.57422 167.073L6.5597 170.049Z" fill="#E6E6E6"/>
<path d="M8.05361 170.203V8.92707H332.946V170.203H341V4.45607C341 2.48074 339.397 0.879303 337.421 0.879303H3.57936C1.60259 0.879303 0 2.48074 0 4.45607V170.203H8.05361Z" fill="#E6E6E6"/>
</g>
<defs>
<clipPath id="clip0">
<rect width="341" height="169.324" fill="white" transform="translate(0 0.879303)"/>
</clipPath>
</defs>
</svg>
