<svg width="64" height="220" viewBox="0 0 64 220" fill="none" xmlns="http://www.w3.org/2000/svg">
<path fill-rule="evenodd" clip-rule="evenodd" d="M15.3636 94.6309C14.4231 95.0035 13.4942 95.0764 12.577 94.8496C12.3042 94.3838 11.9639 93.8577 11.5563 93.2712C11.479 93.83 11.6358 94.2638 12.0264 94.5732C13.75 96.3254 15.7645 97.4891 18.0703 98.0642C18.1289 97.8043 18.1901 97.5507 18.2537 97.3038C18.174 97.3009 18.0935 97.2971 18.0129 97.2924C17.5694 96.9391 17.0112 96.4012 16.3384 95.6793C15.9625 95.2605 15.6378 94.911 15.3636 94.6309ZM16.3615 94.1239C16.774 94.0665 17.1868 93.9474 17.5999 93.7667C18.5173 93.3518 19.2666 92.7451 19.8478 91.9462C19.9719 91.7702 20.0828 91.5936 20.1802 91.4162C20.1466 90.9243 20.1121 90.4405 20.0772 89.9645C20.029 89.4456 19.9793 88.9347 19.928 88.432C19.588 88.8249 19.263 89.232 18.9532 89.6533C18.9532 89.7201 18.9532 89.7854 18.9532 89.8493C18.938 90.8169 18.6092 91.7387 17.967 92.6145C17.5159 93.2332 16.9808 93.7364 16.3615 94.1239Z" fill="#B67A69"/>
<path fill-rule="evenodd" clip-rule="evenodd" d="M46.0524 34.3945C47.0151 34.3589 47.8026 33.9901 48.4148 33.2884C48.7335 32.9268 49.005 32.4774 49.229 31.9402C49.4431 31.4793 49.7565 30.5193 50.1693 29.0597C50.383 28.3043 50.5931 27.6744 50.8001 27.1703C50.9356 26.8407 51.0693 26.5641 51.2014 26.3406C51.2897 25.6358 51.3737 24.9713 51.4539 24.3475C51.7238 22.1455 51.9303 20.4287 52.0732 19.1971C52.3789 16.4012 52.226 14.0584 51.6145 12.1687C51.2285 9.72103 50.2423 7.53952 48.6556 5.62445C48.6771 7.61197 48.3178 9.47077 47.5776 11.2009C47.4859 11.4007 47.287 11.4621 46.9813 11.3854C43.8618 10.4789 40.735 9.61097 37.6003 8.78126C36.9888 8.62779 36.3999 8.68922 35.8341 8.96579C35.8496 11.8078 35.6202 14.6498 35.146 17.492C34.7944 19.3969 33.831 20.9944 32.2561 22.285C32.2391 22.2506 32.2199 22.2162 32.1988 22.1813C32.307 22.7464 32.4102 23.4339 32.5084 24.2437C32.5238 24.3205 32.539 24.4051 32.5543 24.4971C32.7377 25.8798 33.0818 26.932 33.5864 27.6542C34.6109 29.3287 36.2393 30.7189 38.4718 31.825C39.3615 32.2796 41.5557 33.1052 45.0546 34.3022C45.102 34.318 45.148 34.3333 45.1923 34.3483C45.4914 34.3909 45.7781 34.4062 46.0524 34.3945ZM15.9942 38.4733C16.5383 38.5016 17.0543 38.5592 17.5424 38.6461C17.2595 38.5864 16.9652 38.5403 16.6595 38.5077C16.4547 38.4834 16.2444 38.4643 16.0287 38.4501C16.0157 38.458 16.0043 38.4656 15.9942 38.4733ZM2.02617 81.2309C3.12706 82.8286 4.53393 84.6183 6.24631 86.6C8.59347 89.3358 10.3634 91.5596 11.5561 93.2712C11.9638 93.8577 12.3041 94.3838 12.5769 94.8496C13.4941 95.0765 14.423 95.0036 15.3635 94.6309C15.4452 94.5972 15.5254 94.5627 15.6045 94.5272C15.8706 94.4106 16.1228 94.2763 16.3614 94.1239C16.9807 93.7364 17.5158 93.2332 17.9669 92.6146C18.6091 91.7387 18.9379 90.817 18.9531 89.8493C18.9531 89.7854 18.9531 89.7201 18.9531 89.6533C18.907 88.674 18.5248 87.7945 17.8063 87.0148C17.2253 86.1544 16.4684 84.4262 15.5355 81.8299C14.7406 79.5717 13.8307 77.9204 12.8062 76.8755L12.875 76.6912C11.086 77.2597 8.57063 77.3672 5.32886 77.0139C4.71738 77.5824 3.61648 78.9879 2.02617 81.2309ZM1.42969 71.0225C1.65657 71.1933 1.85905 71.3432 2.03759 71.4719C1.84181 71.2219 1.66217 70.9685 1.49868 70.7113C1.49937 70.7221 1.49937 70.7336 1.49868 70.746C1.46799 70.8227 1.44515 70.915 1.42969 71.0225ZM14.6181 161.308C14.817 162.137 15.0232 162.783 15.2374 163.244C15.3904 163.612 15.5814 163.958 15.8108 164.281C16.1168 164.711 16.476 165.102 16.8888 165.456C16.9195 165.471 16.9424 165.494 16.9576 165.525C17.0647 165.602 17.1717 165.679 17.2788 165.755C17.7068 166.047 18.1732 166.301 18.6778 166.516C20.0847 167.115 21.8584 167.414 23.9991 167.414C25.987 167.414 27.539 166.408 28.6551 164.396C29.1598 162.076 29.8861 159.664 30.8341 157.16C31.2776 155.931 31.8127 154.625 32.4396 153.243C31.1857 153.442 29.8172 153.542 28.3341 153.542C25.9946 153.542 22.9058 152.589 19.0678 150.685H19.0449C18.6474 151.945 18.0204 153.496 17.1641 155.339C15.9407 157.951 15.161 159.748 14.8246 160.732C14.7634 160.916 14.6947 161.108 14.6181 161.308Z" fill="#F2BBAE"/>
<path fill-rule="evenodd" clip-rule="evenodd" d="M29.2972 23.7138C30.4913 24.7919 31.5655 25.0606 32.5199 24.5203C32.5316 24.5113 32.5432 24.5037 32.5542 24.4971C32.539 24.4051 32.5237 24.3205 32.5083 24.2437C32.4102 23.4338 32.3069 22.7463 32.1987 22.1813C31.8151 21.4231 31.3525 20.728 30.8111 20.0958C30.1994 19.3584 29.6491 18.8975 29.1597 18.7132C28.8385 18.5904 28.5327 18.5595 28.2422 18.621C27.9105 18.6664 27.6621 18.9198 27.4968 19.3814C27.4999 19.4797 27.5037 19.5796 27.5082 19.6811C27.5694 21.0637 27.9365 22.0469 28.6091 22.6307C28.9303 22.9687 29.1597 23.3296 29.2972 23.7138ZM1.42961 71.0225C1.29208 71.7291 1.0168 72.6662 0.603988 73.8339C0.573305 73.8953 0.542845 73.9644 0.512156 74.0411C0.481697 74.164 0.435778 74.2948 0.374625 74.4329C-0.0534067 75.8923 -0.114784 77.1444 0.191186 78.189C0.649912 79.0955 1.26139 80.1095 2.02609 81.2308C3.6164 78.9879 4.7173 77.5823 5.32878 77.0139C8.57055 77.3672 11.0859 77.2596 12.8749 76.6912L13.6089 74.0987C13.1184 74.403 12.5833 74.6449 12.0034 74.8247C10.8413 75.1933 9.61791 75.2856 8.33357 75.1013C8.01237 75.0399 7.69901 74.9705 7.39304 74.8938C7.25551 74.8477 7.11799 74.8094 6.98024 74.7786H6.95739C6.89624 74.7477 6.8351 74.7248 6.77395 74.7095C6.72803 74.6942 6.68973 74.6863 6.65927 74.6863C6.41444 74.5943 6.16985 74.502 5.92526 74.41C5.74181 74.333 5.55814 74.2563 5.3747 74.1795C4.16673 73.5803 3.11937 72.7584 2.23238 71.7138C2.16407 71.6321 2.09912 71.5514 2.03751 71.4719C1.85898 71.3432 1.65649 71.1933 1.42961 71.0225ZM53.4493 142.481C52.7001 142.696 51.9506 142.803 51.2014 142.803C45.9117 142.803 41.615 142.166 38.3114 140.891C38.2363 141.103 38.1599 141.318 38.082 141.536C37.6689 142.688 37.0344 144.378 36.1781 146.606C34.9397 147.359 33.5787 147.865 32.0955 148.127C30.7804 148.342 29.3584 148.357 27.8294 148.173L27.4854 148.127C25.8339 147.897 24.2895 147.451 22.8522 146.79C21.7665 146.299 20.742 145.684 19.7786 144.947L19.7099 144.901C19.6772 144.874 19.6465 144.847 19.6183 144.82C19.8299 146.459 19.7076 148.176 19.2512 149.97C19.2512 149.986 19.2435 150.001 19.2283 150.016C19.1976 150.139 19.1595 150.285 19.1136 150.454C19.0829 150.531 19.0601 150.608 19.0449 150.685H19.0677C22.9057 152.589 25.9945 153.542 28.3341 153.542C29.8171 153.542 31.1856 153.442 32.4395 153.242C33.271 151.41 34.2419 149.436 35.3525 147.32C35.2521 147.596 35.1451 147.88 35.0313 148.173C34.9244 148.465 34.8174 148.734 34.7103 148.979C34.8174 149.164 34.9014 149.371 34.9625 149.601C35.1614 150.216 35.3372 151.314 35.49 152.897C35.5971 153.573 35.7501 154.164 35.9487 154.671C36.224 155.316 36.5911 155.839 37.0499 156.238C37.5086 156.668 38.0972 157.006 38.8158 157.252C39.7028 157.544 40.7884 157.698 42.0728 157.713C45.1463 157.713 47.5087 156.353 49.1602 153.634C49.2061 153.558 49.2442 153.481 49.2749 153.404C49.3819 152.083 49.4507 150.838 49.4811 149.671C51.041 147.843 52.2335 145.823 53.0593 143.61C53.2121 143.226 53.3422 142.85 53.4493 142.481ZM25.6733 30.7421C28.074 33.7992 30.7576 36.1418 33.7241 37.7704C36.7363 39.3988 38.9994 40.1439 40.5131 40.0055C42.0423 39.8673 43.1049 39.4141 43.7014 38.6461C44.2976 37.8778 44.5958 37.3555 44.5958 37.0791C44.6569 36.8946 44.787 36.3493 44.9857 35.4429C44.9407 35.442 44.895 35.442 44.8482 35.4429C41.6019 35.359 38.7042 34.4986 36.1552 32.8619C34.5038 31.7867 33.5404 31.1874 33.2654 31.0646C32.1949 30.527 31.071 30.258 29.8937 30.258C28.5175 30.258 27.2291 30.3926 26.0288 30.6613C25.9101 30.6858 25.7916 30.7126 25.6733 30.7421ZM46.3505 107.766C46.4179 107.602 46.4829 107.437 46.5453 107.27V107.247C46.4811 107.421 46.4159 107.594 46.3505 107.766Z" fill="#E09785"/>
<path fill-rule="evenodd" clip-rule="evenodd" d="M1.49801 70.7112C1.6615 70.9684 1.84114 71.2218 2.03692 71.4718C2.09853 71.5513 2.16349 71.6321 2.23179 71.7137C3.11878 72.7584 4.16615 73.5802 5.37411 74.1795C5.55755 74.2562 5.74123 74.333 5.92467 74.4099C6.16927 74.502 6.41386 74.5942 6.65868 74.6863C6.68914 74.6863 6.72744 74.6941 6.77336 74.7094C6.83451 74.7247 6.89566 74.7477 6.95681 74.7785H6.97965C7.11741 74.8094 7.25493 74.8476 7.39246 74.8937C7.69843 74.9705 8.01178 75.0398 8.33298 75.1012C9.61732 75.2855 10.8407 75.1933 12.0028 74.8247C12.5827 74.6449 13.1178 74.403 13.6083 74.0987C14.4938 73.553 15.2278 72.804 15.8101 71.8519C15.9172 71.6676 16.0166 71.491 16.1082 71.322V71.3105L19.6177 63.7866L22.129 58.3945L22.2554 58.118C25.1538 52.596 25.4557 47.5647 23.1612 43.0243C22.9795 42.6471 22.777 42.2745 22.5535 41.9065C22.4605 41.7407 22.3613 41.5832 22.2554 41.4342C21.1321 39.9595 19.561 39.0301 17.5418 38.646C17.0537 38.5591 16.5376 38.5015 15.9936 38.4732C15.2669 38.4354 14.4946 38.4547 13.6771 38.5308C11.0777 39.7597 9.08222 41.7261 7.69081 44.4299C4.8007 49.8528 2.60652 56.0208 1.10805 62.934V62.9571C1.00098 63.4027 0.901532 63.8481 0.809925 64.2936C0.733318 64.6931 0.65694 65.0925 0.580562 65.4919C0.48872 65.8759 0.404732 66.2676 0.328125 66.6671C0.328125 66.8669 0.33574 67.0665 0.351199 67.2664C0.443724 68.4879 0.826072 69.6362 1.49801 70.7112ZM18.2529 97.3038C18.1893 97.5506 18.1282 97.8042 18.0695 98.0642C17.3223 101.595 17.372 106.23 18.2184 111.971C19.3805 119.852 19.7859 126.189 19.434 130.982C19.0824 135.76 18.7231 139.025 18.3562 140.776C18.3562 140.822 18.3483 140.86 18.3331 140.891C18.0885 142.212 18.3255 143.326 19.0443 144.232C19.2163 144.445 19.4074 144.641 19.6177 144.82C19.6459 144.847 19.6766 144.874 19.7093 144.901C19.7093 144.885 19.7017 144.87 19.6864 144.854C19.7169 144.762 19.7476 144.663 19.7781 144.555C19.8004 144.474 19.8235 144.393 19.847 144.313C21.4678 138.355 22.2782 132.928 22.2782 128.032C22.2782 125.022 22.0641 121.903 21.636 118.677C21.2232 115.451 21.0167 112.685 21.0167 110.381C21.0167 107.8 21.1773 105.696 21.4983 104.067C21.8347 102.439 22.3853 100.227 23.1497 97.4305C23.2487 97.0758 23.3327 96.734 23.4022 96.405C23.522 95.8352 23.5946 95.3091 23.6199 94.8266C23.2431 94.6344 22.8724 94.4269 22.5076 94.2043C21.6544 93.7453 20.909 93.1883 20.2713 92.5337C19.9644 93.1393 19.6242 93.8191 19.2506 94.5732C18.8469 95.3842 18.5143 96.2945 18.2529 97.3038ZM15.4202 175.779C15.7107 176.086 16.1161 176.401 16.636 176.724C17.0335 176.955 17.4768 177.185 17.9662 177.415C17.9967 177.431 18.0274 177.438 18.0578 177.438C18.3331 177.561 18.6008 177.684 18.8606 177.807C20.3286 178.391 21.6665 178.683 22.8745 178.683C23.4402 178.683 24.2966 178.322 25.4434 177.599C25.9787 177.261 26.4296 177.008 26.7967 176.839C27.0565 174.397 27.4313 171.862 27.9204 169.235C27.9359 169.112 27.9435 168.989 27.9435 168.866C27.974 168.636 27.997 168.413 28.0123 168.198C28.1653 166.984 28.3639 165.755 28.6085 164.511C28.624 164.465 28.6392 164.426 28.6544 164.396C27.5383 166.408 25.9863 167.414 23.9984 167.414C21.8578 167.414 20.084 167.115 18.6772 166.516C18.1725 166.3 17.7062 166.047 17.2781 165.755C17.1711 165.678 17.064 165.601 16.9569 165.525C16.9417 165.494 16.9189 165.471 16.8882 165.456C16.4754 165.102 16.1161 164.711 15.8101 164.28C15.5808 163.958 15.3897 163.612 15.2367 163.244C15.0226 162.783 14.8163 162.137 14.6174 161.308C14.5869 161.415 14.5486 161.523 14.5027 161.63C14.2277 162.567 14.0288 163.482 13.9065 164.373C13.8146 165.095 13.7765 165.786 13.7918 166.447C13.9904 168.183 14.5334 171.294 15.4202 175.779ZM26.4986 180.595C26.4831 180.672 26.4755 180.749 26.4755 180.826C25.1146 181.701 23.6544 182.139 22.0948 182.139C19.9387 182.139 18.0809 181.855 16.5213 181.286C16.9928 183.662 17.352 185.836 17.5991 187.808C17.6757 188.484 17.7369 189.129 17.7828 189.744C17.7828 189.652 17.7828 189.567 17.7828 189.49C17.8592 189.613 17.9432 189.736 18.035 189.859C18.8149 190.981 19.4112 191.71 19.824 192.048C21.1849 193.154 23.0427 193.707 25.3974 193.707C26.0551 193.707 26.6361 193.715 27.1407 193.73C26.4527 189.69 26.2385 185.311 26.4986 180.595ZM48.5403 35.996C48.0663 36.3493 47.5157 36.5259 46.8888 36.5259C46.7665 36.5259 46.5371 36.3263 46.2007 35.9269C46.2007 35.9422 46.2007 35.9575 46.2007 35.9728C46.2007 37.0329 46.0173 37.97 45.6504 38.7842C44.8857 40.4281 43.4867 41.2499 41.4529 41.2499C38.6853 41.2499 36.0171 40.5433 33.4482 39.1298C33.3564 39.3756 33.2341 39.6598 33.0811 39.9825C32.9436 40.2744 32.7982 40.5277 32.6455 40.7429C35.7035 42.4482 38.6394 43.3009 41.4529 43.3009C44.9699 43.3009 47.1948 41.7952 48.1274 38.7842C48.372 37.9394 48.5096 37.0098 48.5403 35.996ZM22.8516 146.79C24.2889 147.451 25.8333 147.896 27.4848 148.127L27.8288 148.173C29.3578 148.357 30.7799 148.342 32.0949 148.127C33.5781 147.865 34.9391 147.359 36.1775 146.606C37.0338 144.378 37.6684 142.688 38.0814 141.536C38.1593 141.318 38.2357 141.103 38.3108 140.891C38.8996 139.147 39.2896 137.61 39.4804 136.282L39.7212 135.28C39.734 135.238 39.7456 135.196 39.7557 135.153C39.7813 135.049 39.8079 134.946 39.8359 134.842L43.7924 115.9C44.0012 114.65 44.2001 113.41 44.3889 112.178C44.5392 111.879 44.6843 111.58 44.8245 111.28L46.3499 107.766C46.4153 107.594 46.4805 107.421 46.5448 107.247C47.025 105.956 47.4378 104.665 47.7834 103.376C47.8172 103.249 47.8479 103.123 47.875 102.996L48.8843 97.6494C48.9376 97.1771 48.9835 96.7047 49.0218 96.2322C45.3677 97.7613 41.3919 98.4526 37.095 98.3061C33.2112 98.1832 29.5031 97.3843 25.9709 95.9097L25.8105 95.8406C25.7155 97.2844 25.4555 99.2276 25.0306 101.671C24.48 104.851 24.2049 107.754 24.2049 110.381C24.2049 111.487 24.4571 114.529 24.9618 119.506C25.4664 124.484 25.7186 127.326 25.7186 128.032C25.7186 128.063 25.5657 129.484 25.2599 132.296C24.8471 135.66 24.396 138.771 23.9066 141.628C23.6156 143.303 23.3135 144.817 23.0008 146.168C22.9506 146.38 22.9009 146.587 22.8516 146.79Z" fill="#F0F0F0"/>
<path fill-rule="evenodd" clip-rule="evenodd" d="M16.521 181.287C18.0807 181.855 19.9384 182.139 22.0945 182.139C23.6541 182.139 25.1143 181.702 26.4753 180.826C26.4753 180.749 26.4829 180.672 26.4983 180.595L26.7965 176.839C26.4293 177.008 25.9785 177.262 25.4431 177.6C24.2963 178.322 23.44 178.683 22.8742 178.683C21.6663 178.683 20.3284 178.391 18.8604 177.807C18.6005 177.684 18.3329 177.561 18.0576 177.438C18.0271 177.438 17.9964 177.431 17.966 177.415C17.4766 177.185 17.0333 176.955 16.6357 176.724C16.1159 176.401 15.7104 176.086 15.4199 175.779C15.6647 177.008 15.9398 178.353 16.2458 179.812L16.4521 180.918C16.4769 181.042 16.5 181.165 16.521 181.287ZM35.0994 172.461C36.5979 173.091 38.3486 173.406 40.3517 173.406C42.6001 173.421 44.6299 173.033 46.4413 172.242C46.4525 172.24 46.4639 172.236 46.4758 172.231C46.4758 172.169 46.4758 172.108 46.4758 172.046L47.1867 168.221C46.6823 168.436 46.1317 168.644 45.5355 168.843C43.4405 169.565 41.6898 169.926 40.283 169.926C39.809 169.926 39.2815 169.834 38.7003 169.649C37.9817 169.419 37.1789 169.05 36.2919 168.544C36.2767 168.528 36.2539 168.521 36.2232 168.521C35.5199 168.106 34.9541 167.707 34.526 167.322H34.503C34.5337 167.522 34.5565 167.714 34.5717 167.898L35.0305 171.539C35.0305 171.555 35.0305 171.578 35.0305 171.608C35.0611 171.7 35.0688 171.785 35.0535 171.862C35.0688 172.061 35.084 172.261 35.0994 172.461Z" fill="#565656"/>
<path fill-rule="evenodd" clip-rule="evenodd" d="M20.6046 199.03C20.834 199.061 21.071 199.084 21.3156 199.1C22.0496 199.161 22.7529 199.107 23.4258 198.938C23.9609 198.816 24.4731 198.623 24.9625 198.362C25.9564 197.993 26.7056 197.786 27.2102 197.74C27.5221 197.703 27.7973 197.718 28.0359 197.786C27.6793 196.474 27.3812 195.122 27.1415 193.73C26.6368 193.715 26.0558 193.707 25.3982 193.707C23.0434 193.707 21.1857 193.154 19.8247 192.048C19.4119 191.71 18.8157 190.981 18.0357 189.859C17.9439 189.736 17.8599 189.613 17.7835 189.49C17.7835 189.567 17.7835 189.652 17.7835 189.744C17.8447 190.281 17.8904 190.804 17.9211 191.311C17.9437 191.72 17.9627 192.111 17.9784 192.486C18.0192 192.425 18.0613 192.364 18.1045 192.302C18.1963 192.855 18.0969 193.792 17.8064 195.113C17.5311 196.296 17.5387 197.202 17.8292 197.832C18.6551 198.431 19.5801 198.831 20.6046 199.03ZM34.527 167.322C34.9551 167.706 35.5209 168.106 36.2242 168.521C36.2549 168.521 36.2777 168.528 36.2929 168.544C37.1799 169.05 37.9827 169.419 38.7012 169.649C39.2825 169.834 39.81 169.926 40.2839 169.926C41.6908 169.926 43.4415 169.565 45.5364 168.843C46.1327 168.644 46.6833 168.436 47.1877 168.221C47.2488 167.852 47.3102 167.476 47.3713 167.092C47.9676 163.82 48.4416 160.809 48.7932 158.059C48.9921 156.399 49.1527 154.848 49.275 153.404C49.2443 153.481 49.2063 153.558 49.1603 153.634C47.5089 156.353 45.1465 157.713 42.0729 157.713C40.7886 157.698 39.7029 157.544 38.8159 157.252C38.0974 157.006 37.5087 156.668 37.05 156.238C36.5913 155.839 36.2242 155.316 35.9489 154.671C35.7502 154.164 35.5972 153.573 35.4902 152.897C35.3374 151.314 35.1616 150.216 34.9627 149.601C34.9015 149.371 34.8175 149.164 34.7105 148.979C34.114 150.608 33.6631 151.906 33.3571 152.874C33.296 153.135 33.2348 153.373 33.1737 153.588C32.669 155.647 32.5315 157.529 32.7609 159.234C33.5101 162.122 34.0988 164.818 34.527 167.322ZM46.4422 172.242C44.6309 173.033 42.6011 173.421 40.3527 173.406C38.3496 173.406 36.5989 173.091 35.1004 172.461C35.3603 175.933 35.2227 179.167 34.6874 182.162C35.3603 182.869 36.553 183.714 38.2656 184.697C40.0853 185.757 41.0943 186.287 41.2932 186.287C41.3696 186.272 42.2642 186.103 43.9766 185.78C44.0684 185.749 44.1603 185.734 44.2519 185.734C44.2366 185.304 44.2826 184.866 44.3896 184.421C44.5863 182.869 45.2706 178.81 46.4422 172.242ZM58.7705 93.8819C58.3113 94.415 57.8947 94.9258 57.5207 95.4142C57.3291 95.663 57.1495 95.905 56.9815 96.1401C53.5258 100.764 50.9876 106.441 49.3666 113.169C47.5929 120.636 46.6602 128.302 46.5686 136.167V138.241C47.6847 138.425 48.7168 138.517 49.665 138.517C51.4074 138.531 52.9403 138.266 54.2637 137.723C55.9888 137.014 57.3612 135.835 58.3808 134.185C58.4265 133.816 58.48 133.417 58.5411 132.987C60.0092 127.195 60.6744 121.296 60.5366 115.289C60.3684 108.115 59.7798 100.979 58.7705 93.8819Z" fill="#EFEFEF"/>
<path fill-rule="evenodd" clip-rule="evenodd" d="M44.9856 35.4429C45.0008 35.4123 45.0084 35.3738 45.0084 35.3276L45.215 34.4059C45.215 34.3906 45.215 34.3753 45.215 34.3598L45.1921 34.3483C45.1478 34.3332 45.1018 34.3179 45.0544 34.3022C41.5555 33.1052 39.3613 32.2795 38.4716 31.825C36.2391 30.7189 34.6107 29.3286 33.5862 27.6541C33.0816 26.932 32.7375 25.8797 32.5541 24.4971C32.5431 24.5036 32.5315 24.5113 32.5198 24.5203C31.5654 25.0606 30.4911 24.7919 29.2971 23.7137C29.5571 24.4204 29.5264 25.2269 29.2055 26.1333C28.9674 26.8062 27.8168 28.2426 25.7536 30.4423C25.6967 30.504 25.6394 30.5654 25.5816 30.6269C25.612 30.6728 25.6427 30.7113 25.6732 30.7421C25.7914 30.7126 25.9099 30.6858 26.0287 30.6613C27.229 30.3926 28.5174 30.258 29.8936 30.258C31.0708 30.258 32.1948 30.5269 33.2652 31.0646C33.5403 31.1874 34.5037 31.7867 36.1551 32.8619C38.7041 34.4986 41.6018 35.3589 44.8481 35.4429C44.8949 35.4419 44.9406 35.4419 44.9856 35.4429ZM38.3112 140.891C41.6148 142.166 45.9116 142.803 51.2012 142.803C51.9505 142.803 52.6999 142.696 53.4492 142.481C53.9348 140.905 54.2063 139.318 54.2634 137.723C52.94 138.266 51.4071 138.531 49.6647 138.517C48.7165 138.517 47.6844 138.425 46.5683 138.241C45.9566 138.149 45.3144 138.018 44.6415 137.849C43.9535 137.696 43.2501 137.519 42.5314 137.319C41.5528 137.027 40.5359 136.682 39.4809 136.282C39.2901 137.611 38.9001 139.147 38.3112 140.891ZM20.1799 91.4162C20.0825 91.5935 19.9716 91.7702 19.8475 91.9462C19.2663 92.745 18.517 93.3517 17.5996 93.7667C17.1865 93.9474 16.7737 94.0665 16.3611 94.1238C16.1226 94.2762 15.8704 94.4105 15.6043 94.5271C15.5252 94.5626 15.445 94.5971 15.3633 94.6308C15.6375 94.911 15.9622 95.2605 16.3381 95.6793C17.0109 96.4012 17.5691 96.939 18.0126 97.2924C18.0932 97.2971 18.1737 97.3009 18.2534 97.3038C18.5148 96.2946 18.8474 95.3843 19.251 94.5732C19.6247 93.8191 19.9649 93.1393 20.2717 92.5337L20.2603 92.5222C20.2341 92.1491 20.2075 91.7803 20.1799 91.4162ZM19.7328 86.6346C19.7093 86.6474 19.6865 86.6589 19.6638 86.669C19.6912 86.6976 19.7181 86.7246 19.7443 86.7498C19.74 86.7127 19.7362 86.6742 19.7328 86.6346Z" fill="#B57A6B"/>
<path fill-rule="evenodd" clip-rule="evenodd" d="M34.3429 183.994C34.367 183.974 34.3899 183.955 34.4119 183.937C33.9836 185.304 34.2206 186.618 35.1228 187.877C35.9179 188.999 37.0495 189.828 38.5173 190.366C39.4959 190.734 40.3981 190.896 41.2238 190.85C41.6673 190.819 42.0877 190.742 42.4852 190.619C42.8983 190.481 43.2576 190.305 43.5633 190.09C44.2626 189.596 44.7099 188.855 44.9052 187.866C44.4953 187.183 44.2774 186.472 44.2514 185.734C44.1598 185.734 44.0679 185.749 43.9761 185.78C42.2637 186.103 41.3691 186.272 41.2927 186.287C41.0938 186.287 40.0848 185.757 38.2651 184.697C36.5525 183.714 35.3598 182.869 34.6869 182.162C34.5951 182.785 34.4804 183.396 34.3429 183.994ZM46.545 107.247V107.27C46.4825 107.437 46.4176 107.602 46.3502 107.766L44.8248 111.28C44.6846 111.58 44.5394 111.879 44.3891 112.179C44.2003 113.41 44.0014 114.651 43.7927 115.9L39.8362 134.842C39.8082 134.946 39.7815 135.049 39.756 135.153C39.7459 135.196 39.7342 135.238 39.7215 135.28L39.4807 136.282C40.5357 136.682 41.5526 137.027 42.5312 137.319C43.2499 137.519 43.9533 137.696 44.6414 137.849C45.3142 138.018 45.9564 138.149 46.5681 138.241V136.167C46.6597 128.302 47.5924 120.636 49.3661 113.169C50.9871 106.441 53.5254 100.764 56.981 96.1402C57.149 95.905 57.3287 95.6631 57.5202 95.4142C57.8942 94.9259 58.3108 94.415 58.77 93.8819C58.4795 91.7925 58.1509 89.7032 57.7838 87.614V87.5679C57.7392 87.312 57.6935 87.0622 57.6463 86.819C57.6781 87.3723 57.7088 87.86 57.7379 88.2821C57.6767 88.4358 57.608 88.5895 57.5316 88.743C56.3082 91.3087 54.3969 93.3518 51.7975 94.8728C50.8926 95.3827 49.9675 95.8359 49.0221 96.2322C48.9838 96.7048 48.9379 97.1772 48.8846 97.6495L47.8753 102.996C47.8482 103.123 47.8175 103.25 47.7837 103.376C47.4381 104.665 47.0253 105.956 46.545 107.247ZM53.9191 30.9032C54.1794 31.2905 54.4278 31.6899 54.6646 32.1016L56.6715 36.3185C57.2272 37.8046 57.6821 39.3871 58.0362 41.0657C58.0208 40.6968 58.0284 40.3282 58.0591 39.9596C58.1355 39.2683 58.3724 38.1852 58.77 36.7103C59.1831 35.3124 59.4046 34.2369 59.4353 33.4842C59.5116 32.2706 59.267 31.1875 58.7013 30.2351C57.2664 27.2498 54.8505 25.2872 51.4535 24.3475C51.3733 24.9713 51.2893 25.6358 51.201 26.3406C51.0689 26.5641 50.9352 26.8407 50.7997 27.1703C50.8216 27.1915 50.8447 27.2144 50.8687 27.2394C50.9128 27.2822 50.9587 27.3245 51.0062 27.3661L53.9191 30.9032Z" fill="#E6E6E6"/>
<path fill-rule="evenodd" clip-rule="evenodd" d="M32.645 40.7429C32.7977 40.5278 32.9431 40.2744 33.0806 39.9825C33.2336 39.6598 33.3559 39.3756 33.4477 39.1298C31.7044 38.162 30.0073 36.8716 28.3558 35.2585C27.6984 34.5981 26.4826 33.2613 24.7089 31.2488C24.1738 31.6638 23.6539 32.0709 23.1492 32.4703C23.0881 32.5162 23.0269 32.5624 22.9658 32.6085C23.0576 32.7314 23.1569 32.8543 23.2639 32.9771C24.533 34.4981 26.0546 35.9728 27.8283 37.4016C29.4643 38.7381 31.0699 39.852 32.645 40.7429ZM48.4137 33.2883C47.8015 33.99 47.0139 34.3589 46.0513 34.3944C46.1505 34.9237 46.2002 35.4345 46.2002 35.9269C46.5366 36.3263 46.766 36.5259 46.8883 36.5259C47.5152 36.5259 48.0658 36.3493 48.5398 35.996C48.555 35.8731 48.5626 35.7502 48.5626 35.6272C48.5015 34.6287 48.471 34.1064 48.471 34.0602C48.471 33.8134 48.4517 33.5562 48.4137 33.2883ZM19.7088 144.901L19.7776 144.947C20.7409 145.684 21.7654 146.299 22.8511 146.79C22.9004 146.587 22.9501 146.38 23.0003 146.168C23.313 144.817 23.6151 143.304 23.9061 141.628C24.3955 138.771 24.8466 135.66 25.2594 132.296C25.5652 129.484 25.7181 128.063 25.7181 128.033C25.7181 127.326 25.4659 124.484 24.9613 119.506C24.4566 114.529 24.2044 111.487 24.2044 110.381C24.2044 107.754 24.4795 104.851 25.0301 101.671C25.455 99.2276 25.715 97.2845 25.81 95.8406L25.9704 95.9097C26.047 95.3874 26.1081 94.7958 26.154 94.1353C26.1758 93.4433 26.1948 92.8328 26.2114 92.3033C26.2649 90.5948 26.2916 89.723 26.2916 89.6879C26.2916 89.2036 26.1883 87.8595 25.982 85.6552C25.945 85.2484 25.9029 84.8105 25.8557 84.3417C25.7179 82.8551 25.5421 81.0654 25.3282 78.9726C24.6708 72.6124 24.189 68.4568 23.8832 66.5058C23.6053 64.6827 23.0547 62.1211 22.2318 58.8208C22.1957 58.6813 22.1615 58.5393 22.1285 58.3946L19.6172 63.7866C20.5499 67.4889 21.1461 70.4387 21.4062 72.6355C21.9872 78.0276 22.5147 82.3677 22.9886 85.6552C22.9904 85.6678 22.9942 85.6831 23.0003 85.7014V85.7243C23.0538 86.1418 23.1035 86.7026 23.1492 87.4065C23.198 88.083 23.244 88.8933 23.287 89.8376C23.3278 90.7274 23.3661 91.7376 23.4017 92.8679C23.4108 93.0549 23.4185 93.2471 23.4245 93.444C23.4552 93.9202 23.4857 94.3581 23.5164 94.7575C23.5531 94.7733 23.5874 94.7886 23.6194 94.8037C23.6893 94.8399 23.7542 94.8784 23.8145 94.9189C23.7491 94.8871 23.6839 94.8563 23.6194 94.8266C23.5941 95.3091 23.5215 95.8352 23.4017 96.405C23.3322 96.734 23.2482 97.0759 23.1492 97.4305C22.3848 100.227 21.8342 102.439 21.4978 104.067C21.1768 105.696 21.0162 107.8 21.0162 110.381C21.0162 112.686 21.2227 115.451 21.6355 118.677C22.0636 121.903 22.2777 125.022 22.2777 128.033C22.2777 132.928 21.4673 138.355 19.8466 144.313C19.823 144.393 19.7999 144.474 19.7776 144.555C19.7471 144.663 19.7164 144.762 19.6859 144.854C19.7012 144.87 19.7088 144.885 19.7088 144.901Z" fill="#565656"/>
<path fill-rule="evenodd" clip-rule="evenodd" d="M46.2014 35.9269C46.2014 35.4345 46.1516 34.9237 46.0524 34.3944C45.778 34.4061 45.4913 34.3908 45.1923 34.3483L45.2151 34.3597C45.2151 34.3753 45.2151 34.3906 45.2151 34.4059L45.0086 35.3276C45.0086 35.3738 45.001 35.4122 44.9858 35.4429C44.7871 36.3493 44.657 36.8946 44.5958 37.0791C44.5958 37.3554 44.2977 37.8777 43.7014 38.646C43.105 39.4141 42.0424 39.8673 40.5132 40.0055C38.9995 40.1439 36.7363 39.3988 33.7241 37.7704C30.7577 36.1418 28.0741 33.7992 25.6734 30.7421C25.6429 30.7112 25.6122 30.6728 25.5818 30.6268C25.6396 30.5654 25.6969 30.504 25.7538 30.4423C25.7419 30.4354 25.7305 30.4277 25.7193 30.4194C25.3676 30.6959 25.0312 30.9725 24.71 31.2488C26.4838 33.2613 27.6996 34.5981 28.357 35.2585C30.0084 36.8716 31.7056 38.162 33.4489 39.1298C36.0178 40.5433 38.6859 41.2499 41.4535 41.2499C43.4873 41.2499 44.8863 40.4281 45.651 38.7842C46.0179 37.97 46.2014 37.033 46.2014 35.9728C46.2014 35.9575 46.2014 35.9422 46.2014 35.9269ZM49.0225 96.2322C49.9679 95.8359 50.893 95.3826 51.7979 94.8727C54.3973 93.3517 56.3085 91.3086 57.532 88.743C57.6083 88.5895 57.6771 88.4358 57.7383 88.2821C57.7091 87.8599 57.6784 87.3723 57.6466 86.8189C57.5962 85.9262 57.5427 84.8622 57.486 83.6274C57.1496 75.0857 57.4554 67.8654 58.4035 61.9663C59.3362 56.067 59.8332 52.718 59.8944 51.9191C60.093 48.7083 59.665 45.8049 58.61 43.2086C58.2736 42.5482 58.0823 41.8337 58.0366 41.0656C57.6825 39.3871 57.2276 37.8046 56.6719 36.3185L54.6649 32.1015C54.5505 31.9154 54.4358 31.7311 54.3209 31.5486C54.1865 31.331 54.0528 31.1158 53.9195 30.9032L51.0065 27.3661C50.9591 27.3245 50.9132 27.2821 50.869 27.2394C50.845 27.2144 50.822 27.1914 50.8 27.1703C50.5931 27.6743 50.383 28.3042 50.1693 29.0597C49.7565 30.5193 49.4431 31.4793 49.229 31.9402C49.005 32.4773 48.7335 32.9267 48.4148 33.2884C48.4529 33.5562 48.4721 33.8134 48.4721 34.0602C48.4721 34.1064 48.5026 34.6287 48.5637 35.6272C48.5637 35.7503 48.5561 35.8731 48.5409 35.996C48.5102 37.0098 48.3727 37.9394 48.1281 38.7842C47.1954 41.7952 44.9705 43.3009 41.4535 43.3009C38.64 43.3009 35.7042 42.4482 32.6461 40.7429C31.071 39.852 29.4655 38.7381 27.8295 37.4016C26.0557 35.9728 24.5342 34.4982 23.2651 32.9771C23.158 32.8543 23.0588 32.7314 22.9669 32.6085C21.759 33.5303 20.635 34.3368 19.5953 35.0281C17.3016 36.5797 15.4439 37.6858 14.0218 38.3465C13.9147 38.3924 13.8 38.4462 13.6777 38.5076C14.5168 38.4246 15.3005 38.4054 16.0287 38.45C16.2444 38.4642 16.4547 38.4833 16.6595 38.5076C16.9652 38.5403 17.2595 38.5864 17.5424 38.646C19.5617 39.0302 21.1327 39.9596 22.256 41.4342C22.362 41.5832 22.4612 41.7407 22.5541 41.9066C22.7777 42.2745 22.9801 42.6472 23.1618 43.0243C25.4563 47.5647 25.1544 52.5961 22.256 58.118L22.1297 58.3946C22.1626 58.5393 22.1969 58.6813 22.2329 58.8208C23.0558 62.1211 23.6064 64.6827 23.8844 66.5058C24.1901 68.4568 24.6719 72.6124 25.3293 78.9726C25.5432 81.0654 25.7191 82.8551 25.8568 84.3417C25.9041 84.8105 25.9462 85.2484 25.9832 85.6552C26.1894 87.8595 26.2927 89.2036 26.2927 89.6879C26.2927 89.723 26.266 90.5948 26.2125 92.3033C26.196 92.8328 26.1769 93.4433 26.1552 94.1353C26.1093 94.7958 26.0481 95.3874 25.9715 95.9097C29.5038 97.3844 33.2119 98.1833 37.0956 98.3061C41.3926 98.4526 45.3683 97.7613 49.0225 96.2322ZM16.1089 71.3105C17.7388 74.6847 18.9468 79.7928 19.733 86.6346C19.7364 86.6742 19.7402 86.7127 19.7444 86.7498C19.7876 87.1342 19.8298 87.5222 19.8705 87.9135C19.8705 87.9443 19.8782 87.9826 19.8934 88.0287C19.9066 88.164 19.918 88.2983 19.9279 88.432C19.9792 88.9347 20.0289 89.4455 20.0771 89.9645C20.112 90.4404 20.1465 90.9242 20.1801 91.4162C20.2077 91.7803 20.2343 92.1491 20.2605 92.5222L20.2719 92.5337C20.9096 93.1883 21.655 93.7453 22.5082 94.2044C22.8731 94.4269 23.2438 94.6344 23.6205 94.8266C23.685 94.8563 23.7502 94.8871 23.8156 94.9189C23.7553 94.8784 23.6904 94.8399 23.6205 94.8036C23.5885 94.7886 23.5542 94.7733 23.5175 94.7575C23.4868 94.3581 23.4564 93.9202 23.4257 93.444C23.4196 93.2471 23.412 93.0549 23.4028 92.8679C23.3672 91.7375 23.3289 90.7274 23.2881 89.8375C23.2451 88.8933 23.1992 88.083 23.1504 87.4065C23.1047 86.7026 23.055 86.1418 23.0014 85.7243V85.7014C22.9954 85.6831 22.9916 85.6678 22.9898 85.6552C22.5158 82.3677 21.9883 78.0276 21.4073 72.6355C21.1473 70.4387 20.551 67.4889 19.6183 63.7866L16.1089 71.3105Z" fill="#F0F0F0"/>
<path fill-rule="evenodd" clip-rule="evenodd" d="M15.1449 197.141C15.0072 197.648 14.946 197.947 14.9613 198.04C14.9613 198.509 14.9958 198.963 15.0645 199.399C15.2587 200.561 15.706 201.606 16.4064 202.533C18.2566 204.945 19.5333 206.811 20.2366 208.132C20.2366 208.164 20.3667 208.84 20.6266 210.16C20.8866 211.405 21.2766 212.457 21.7965 213.317C21.9839 213.617 22.1905 213.902 22.4156 214.17C22.6084 214.397 22.8149 214.612 23.0349 214.815C24.0115 215.718 25.1305 216.491 26.2555 217.12C26.284 217.127 26.3146 217.134 26.3471 217.144C27.0908 217.547 28.5817 218.295 29.9386 218.365C29.983 218.371 30.0287 218.375 30.0764 218.377C30.4818 218.4 32.1159 218.682 32.5437 218.682C33.3857 218.654 34.1847 218.623 34.9406 218.59C34.967 218.591 34.9937 218.591 35.021 218.59C35.48 218.567 35.9235 218.544 36.3513 218.521C37.1453 218.506 37.5334 218.099 37.5334 217.762C37.8056 217.554 37.8554 217.259 37.8976 217.258L37.9665 217.028C37.9665 216.997 37.9742 216.966 37.9894 216.935C37.9894 216.613 37.9587 216.267 37.8976 215.898C37.7141 214.839 37.1407 213.456 36.1773 211.751C35.6575 210.905 35.1835 210.153 34.7555 209.492C34.5729 209.895 34.3664 210.255 34.1361 210.575C33.7972 211.026 33.4073 211.391 32.9663 211.67C32.2426 212.13 31.3786 212.357 30.3745 212.35C28.6401 212.358 27.0386 211.513 25.5693 209.815C24.6751 208.784 23.8303 207.44 23.0349 205.782C22.9536 205.433 22.8046 205.114 22.5876 204.826C22.5009 204.618 22.4129 204.407 22.324 204.192C21.9539 203.293 21.6099 202.356 21.2918 201.381C21.047 200.62 20.8176 199.837 20.6037 199.03C19.5792 198.831 18.6541 198.431 17.8283 197.832C17.5378 197.202 17.5302 196.296 17.8054 195.113C18.096 193.792 18.1954 192.855 18.1036 192.302C18.0604 192.364 18.0183 192.425 17.9775 192.486C16.4904 194.633 15.5463 196.185 15.1449 197.141ZM23.4248 198.938C23.5778 199.215 23.723 199.499 23.8607 199.791C24.1654 200.382 24.4521 200.939 24.7208 201.461C25.8553 203.631 26.7002 205.186 27.2553 206.128C28.5091 208.171 29.4494 209.193 30.0764 209.193C31.0005 209.193 31.6656 208.593 32.0719 207.395C32.0862 207.341 32.1015 207.287 32.1178 207.234C32.2401 206.789 32.3241 206.274 32.37 205.69C32.3089 205.582 32.2553 205.498 32.2094 205.437C30.8028 203.009 29.7171 200.782 28.9524 198.754C28.7824 198.241 28.4767 197.918 28.035 197.786C27.7964 197.718 27.5211 197.703 27.2093 197.74C26.7047 197.786 25.9555 197.993 24.9616 198.362C24.4722 198.623 23.96 198.815 23.4248 198.938ZM43.5629 190.089C44.3121 190.75 45.0157 191.334 45.673 191.841C45.8565 191.985 46.0399 192.127 46.2236 192.267C49.5919 194.809 52.5967 196.081 55.2375 196.081C55.5585 196.081 55.8033 196.042 55.9715 195.966C56.0479 195.873 56.1091 195.827 56.155 195.827L56.1319 194.514C56.192 194.538 56.2531 194.565 56.3156 194.594C55.5014 194.116 54.6222 193.62 53.6779 193.108C49.4268 190.834 46.5065 189.06 44.9162 187.785C44.9113 187.813 44.9075 187.84 44.9048 187.866C44.7095 188.855 44.2621 189.596 43.5629 190.089ZM41.2233 190.85C40.3977 190.896 39.4955 190.734 38.5169 190.366C37.0491 189.828 35.9175 188.998 35.1224 187.877C34.2201 186.618 33.9832 185.304 34.4114 183.937C34.3894 183.955 34.3666 183.974 34.3424 183.994C32.8805 185.254 31.8331 186.664 31.2003 188.223C30.999 188.648 30.9287 189.238 30.9287 189.641C30.9442 189.692 30.9686 190.367 30.999 190.5C31.0707 190.763 31.2686 191.074 31.2686 191.074C31.2686 191.074 31.42 191.503 31.6237 191.841C31.7933 192.122 32.0536 193.284 32.2632 193.675C33.1337 194.376 33.4337 194.832 34.4336 195.39C34.7225 195.55 35.0361 195.696 35.3741 195.827C35.4995 195.88 35.6294 195.93 35.7638 195.977C36.0124 196.066 37.1517 196.592 39.4802 196.738C40.0436 197.004 40.6743 197.304 41.3725 197.636C42.393 198.125 42.689 198.362 43.5629 199.219C43.5629 199.399 43.9214 199.969 44.2281 200.117C44.6947 200.338 45.1762 200.568 45.673 200.808C46.4733 201.195 47.2342 201.556 47.9553 201.891C48.16 201.99 48.3627 202.086 48.5629 202.179C50.0589 202.873 51.3625 203.449 52.4735 203.907C52.5573 203.941 52.6415 203.976 52.726 204.011C54.7134 204.809 57.1674 205.437 57.8636 205.437C57.9247 205.437 57.9859 205.437 58.047 205.437C58.2168 205.436 58.385 205.432 58.5517 205.425C60.2623 205.347 61.1653 204.17 62.3218 203.412C62.5747 203.245 62.7336 202.439 62.9625 202.236C62.9625 202.129 62.9625 202.014 62.9625 201.891C62.8706 200.324 62.7772 199.38 62.1643 198.8C61.3537 198.032 60.3216 197.218 59.0679 196.357C59.0525 196.419 59.0449 196.488 59.0449 196.565C58.9909 196.758 58.9259 196.943 58.85 197.118C58.2743 198.395 57.0626 199.04 55.2145 199.054H55.203C52.0383 199.05 48.6631 197.564 45.0768 194.594C44.8696 194.427 44.6631 194.254 44.4575 194.076C44.1855 193.841 43.9217 193.603 43.6661 193.361C42.7722 192.544 41.958 191.707 41.2233 190.85Z" fill="#333333"/>
<path fill-rule="evenodd" clip-rule="evenodd" d="M20.6055 199.03C20.8194 199.837 21.0487 200.62 21.2936 201.381C21.6116 202.356 21.9557 203.293 22.3257 204.192C22.4146 204.407 22.5026 204.618 22.5893 204.826C22.8063 205.114 22.9553 205.433 23.0366 205.782C23.832 207.44 24.6769 208.784 25.571 209.815C27.0404 211.513 28.6419 212.358 30.3762 212.35C31.3804 212.357 32.2443 212.13 32.968 211.67C33.409 211.391 33.799 211.026 34.1379 210.575C34.3682 210.255 34.5746 209.895 34.7572 209.492C33.5645 207.587 32.7693 206.32 32.3717 205.69C32.3258 206.274 32.2418 206.789 32.1195 207.234C32.1032 207.287 32.0879 207.341 32.0736 207.395C31.6673 208.593 31.0023 209.193 30.0781 209.193C29.4512 209.193 28.5109 208.171 27.257 206.128C26.7019 205.186 25.8571 203.631 24.7226 201.461C24.4538 200.939 24.1671 200.382 23.8625 199.791C23.7247 199.499 23.5796 199.215 23.4266 198.938C22.7537 199.107 22.0504 199.161 21.3164 199.099C21.0718 199.084 20.8348 199.061 20.6055 199.03ZM43.5646 190.089C43.2589 190.305 42.8996 190.481 42.4866 190.619C42.089 190.742 41.6686 190.819 41.2251 190.85C41.9598 191.707 42.7739 192.544 43.6679 193.361C43.9234 193.603 44.1873 193.841 44.4592 194.076C44.6648 194.254 44.8713 194.427 45.0785 194.594C48.6648 197.564 52.0401 199.05 55.2048 199.054H55.2162C57.0643 199.04 58.2761 198.395 58.8517 197.118C58.9277 196.943 58.9926 196.758 59.0466 196.565C59.0466 196.488 59.0542 196.419 59.0697 196.357L56.363 194.629L56.3173 194.594C56.2548 194.565 56.1937 194.538 56.1336 194.514L56.1567 195.827C56.1108 195.827 56.0497 195.873 55.9733 195.966C55.8051 196.042 55.5602 196.081 55.2393 196.081C52.5985 196.081 49.5937 194.809 46.2254 192.267C46.0417 192.127 45.8582 191.985 45.6748 191.841C45.0174 191.334 44.3138 190.75 43.5646 190.089Z" fill="#666666"/>
<path fill-rule="evenodd" clip-rule="evenodd" d="M27.4964 19.3813C27.6618 18.9198 27.9102 18.6664 28.2419 18.6209C28.5324 18.5595 28.8381 18.5903 29.1593 18.7132C29.6487 18.8975 30.1991 19.3584 30.8108 20.0958C31.3522 20.728 31.8147 21.4231 32.1984 22.1812C32.2194 22.2161 32.2387 22.2506 32.2557 22.285C33.8306 20.9944 34.7939 19.3969 35.1456 17.4919C35.6198 14.6497 35.8491 11.8077 35.8337 8.96574C36.3995 8.68917 36.9883 8.62774 37.5998 8.78121C40.7345 9.61092 43.8614 10.4789 46.9809 11.3853C47.2866 11.4621 47.4855 11.4006 47.5771 11.2008C48.3174 9.47073 48.6767 7.61193 48.6552 5.6244C48.6556 5.60256 48.6556 5.57938 48.6552 5.55509C48.6093 5.49365 48.5712 5.43987 48.5405 5.39397C46.9809 3.50433 45.1612 2.09088 43.0817 1.15383C40.8492 0.13981 38.5404 -0.205846 36.1549 0.116859C32.7144 0.546901 30.0309 2.39828 28.1043 5.67031C26.2083 8.86583 25.5735 12.2072 26.2004 15.6943C26.3993 16.8927 26.8274 18.1295 27.485 19.4045L27.4964 19.3813Z" fill="url(#paint0_linear)"/>
<defs>
<linearGradient id="paint0_linear" x1="37.9728" y1="-0.0230147" x2="36.3145" y2="23.5843" gradientUnits="userSpaceOnUse">
<stop stop-color="#3A3E47"/>
<stop offset="0.247059" stop-color="#363A45"/>
<stop offset="0.47451" stop-color="#3F4249"/>
<stop offset="1" stop-color="#C58371"/>
</linearGradient>
</defs>
</svg>
