<svg width="48" height="48" viewBox="0 0 48 48" fill="none" xmlns="http://www.w3.org/2000/svg">
<mask id="mask0" mask-type="alpha" maskUnits="userSpaceOnUse" x="0" y="0" width="48" height="48">
<circle cx="24" cy="24" r="24" fill="#9A9A9A"/>
</mask>
<g mask="url(#mask0)">
<path d="M24.0005 35.2463C30.8355 35.2463 36.377 28.6993 36.377 20.6231C36.377 9.42368 30.8358 6 24.0005 6C17.1649 6 11.624 9.42368 11.624 20.6231C11.6241 28.6993 17.1651 35.2463 24.0005 35.2463Z" fill="#E6E6E6"/>
<path d="M51.3304 56.7698L45.0863 42.5708C44.8007 41.921 44.299 41.3821 43.6745 41.0539L33.984 35.9617C33.7703 35.8496 33.5116 35.8714 33.3195 36.0182C30.5786 38.1109 27.3561 39.2169 24.0005 39.2169C20.6444 39.2169 17.4221 38.1109 14.6813 36.0182C14.4886 35.8714 14.2299 35.8496 14.0162 35.9617L4.32636 41.0539C3.7016 41.3821 3.20041 41.9207 2.91454 42.5708L-3.32958 56.7698C-3.76007 57.7487 -3.67184 58.8687 -3.09349 59.7665C-2.5154 60.6643 -1.53705 61.2 -0.476258 61.2H48.4769C49.5376 61.2 50.5163 60.664 51.0944 59.7664C51.6724 58.8687 51.7609 57.7483 51.3304 56.7698Z" fill="#E6E6E6"/>
</g>
</svg>
