<svg width="12" height="10" viewBox="0 0 12 10" fill="none" xmlns="http://www.w3.org/2000/svg">
<path d="M3.79429 4.46673C4.19779 4.46673 4.52608 4.13846 4.52608 3.73496C4.52608 3.33146 4.19779 3.00317 3.79429 3.00317C3.39079 3.00317 3.0625 3.33144 3.0625 3.73496C3.06252 4.13844 3.39079 4.46673 3.79429 4.46673Z" fill="#9A9A9A"/>
<path d="M4.74067 4.81274C4.48795 5.03479 4.15701 5.16986 3.79495 5.16986C3.43288 5.16986 3.10195 5.03479 2.84922 4.81274C2.48927 4.89086 2.21875 5.21174 2.21875 5.59476V6.99691H5.37114V5.59476C5.37112 5.21174 5.10063 4.89088 4.74067 4.81274Z" fill="#9A9A9A"/>
<path d="M0 0.78125V9.21875H12V0.78125H0ZM7.20129 3.04562H9.3304V3.74874H7.20129V3.04562ZM6.07402 7.69998H1.51537V5.5947C1.51537 4.97073 1.89762 4.43466 2.44012 4.20753C2.3883 4.05943 2.35978 3.9005 2.35978 3.73494C2.35978 2.94373 3.00349 2.30002 3.7947 2.30002C4.5859 2.30002 5.22961 2.94371 5.22961 3.73494C5.22961 3.90043 5.20111 4.05931 5.14931 4.20737C5.69184 4.43448 6.07402 4.97073 6.07402 5.5947V7.69998ZM10.5828 6.95438H7.20129V6.25126H10.5828V6.95438ZM10.5828 5.35156H7.20129V4.64844H10.5828V5.35156Z" fill="#9A9A9A"/>
</svg>
