<svg width="30" height="30" viewBox="0 0 30 30" fill="none" xmlns="http://www.w3.org/2000/svg">
<path d="M21.7642 4.16773L20.9746 3.24869C20.9746 3.24869 17.8752 2.17335 14.9744 2.14282C12.0735 2.17335 8.97403 3.24869 8.97403 3.24869L8.18439 4.16773L4.45703 6.03752C4.54511 15.2617 6.08596 22.8063 14.5044 27.5994C14.5533 27.6273 14.9566 27.8564 14.9728 27.8571C14.9956 27.8581 15.4012 27.624 15.4551 27.5933C23.8549 22.8072 25.4026 15.338 25.4916 6.03752L21.7642 4.16773Z" fill="white"/>
<path d="M21.7642 4.16773L20.9746 3.24869C20.9746 3.24869 17.8752 2.17335 14.9744 2.14282C12.0735 2.17335 8.97403 3.24869 8.97403 3.24869L8.18439 4.16773L4.45703 6.03752C4.54511 15.2617 6.08596 22.8063 14.5044 27.5994C14.5533 27.6273 14.9566 27.8564 14.9728 27.8571C14.9956 27.8581 15.4012 27.624 15.4551 27.5933C23.8549 22.8072 25.4026 15.338 25.4916 6.03752L21.7642 4.16773V4.16773Z" stroke="#2B2B2A" stroke-width="0.0761046" stroke-miterlimit="22.9256"/>
<path d="M21.3123 4.98784L20.5812 4.13686C20.5812 4.13686 17.7113 3.14113 15.0253 3.11279C12.3393 3.14113 9.46941 4.13686 9.46941 4.13686L8.73829 4.98784L5.28711 6.71916C5.28711 6.71916 5.37562 15.9867 7.59765 19.6822C8.49881 21.181 9.62329 22.7725 10.9538 23.9958C12.8411 25.7312 14.889 26.8515 15.0187 26.9218C15.0155 26.9189 15.0144 26.9145 15.0253 26.9082C15.0362 26.9143 15.035 26.9189 15.0318 26.9218C15.1614 26.8515 17.2095 25.7312 19.0968 23.9958C20.4271 22.7725 21.5516 21.181 22.4529 19.6822C24.6749 15.9867 24.7635 6.71916 24.7635 6.71916L21.3123 4.98784Z" fill="#00755B"/>
<path d="M14.9744 7.65308C11.1843 7.65308 8.11182 10.7358 8.11182 14.5386C8.11182 18.3413 11.1843 21.424 14.9744 21.424C18.7645 21.424 21.8372 18.3413 21.8372 14.5386C21.8372 10.7358 18.7647 7.65308 14.9744 7.65308ZM14.9744 21.1487C11.3359 21.1487 8.38624 18.1892 8.38624 14.5386C8.38624 10.8878 11.3359 7.92856 14.9744 7.92856C18.613 7.92856 21.5626 10.8878 21.5626 14.5386C21.5626 18.1892 18.613 21.1487 14.9744 21.1487Z" fill="white"/>
<path fill-rule="evenodd" clip-rule="evenodd" d="M11.1978 19.2505C11.1978 19.2505 11.6425 19.6124 12.5237 19.5194C13.4049 19.4265 14.1093 18.8689 14.7612 18.7955C15.4131 18.7221 15.7522 18.8394 16.2796 19.2357C16.8071 19.6318 16.9411 19.7624 17.3812 19.7297C17.972 19.6857 18.751 19.2553 18.751 19.2553C18.751 19.2553 18.1846 19.8568 17.4738 20.0232C16.9848 20.1377 16.7075 19.9644 16.4112 19.7151C16.115 19.4658 15.5617 19.0451 14.9196 19.1625C14.2774 19.2798 14.1529 19.3483 13.874 19.4755C13.5951 19.6026 12.9196 19.8667 12.4458 19.8717C11.972 19.8766 11.7301 19.7396 11.6122 19.6418C11.4943 19.5439 11.1979 19.2506 11.1979 19.2506L11.1978 19.2505Z" fill="white"/>
<path fill-rule="evenodd" clip-rule="evenodd" d="M12.5771 20.3655L13.0793 20.6002C13.0793 20.6002 13.5386 20.4486 13.708 20.3607C13.8775 20.2726 14.4795 19.9939 14.9242 19.9841C15.369 19.9743 15.6396 20.0526 15.9042 20.2091C16.1684 20.3657 16.6062 20.7324 16.6062 20.7324L17.0301 20.5856C17.0301 20.5856 16.5513 20.258 16.299 20.0672C16.0467 19.8765 15.5032 19.5636 14.9879 19.6124C14.4723 19.6613 14.2895 19.72 14.0154 19.8275C13.7412 19.9352 13.4023 20.121 13.2208 20.1943C13.0394 20.2676 12.5773 20.3655 12.5773 20.3655H12.5771Z" fill="white"/>
<path fill-rule="evenodd" clip-rule="evenodd" d="M13.6401 20.8156L14.2203 20.9378C14.2203 20.9378 14.7284 20.7043 15.0952 20.7079C15.5838 20.7129 15.885 20.9573 15.885 20.9573L16.3042 20.8498C16.3042 20.8498 15.7227 20.3607 14.9782 20.3949C14.2337 20.4291 13.6401 20.8156 13.6401 20.8156Z" fill="white"/>
<path fill-rule="evenodd" clip-rule="evenodd" d="M18.4988 22.3854C18.4988 22.3854 18.3095 22.5175 18.1625 22.5371C18.0154 22.5566 17.5337 22.5029 17.5337 22.5029C17.5337 22.5029 17.2618 22.3169 16.9732 22.3023C16.7813 22.2925 16.3357 22.1801 15.8714 22.5029C15.4073 22.8257 15.8666 23.3978 15.8666 23.3978L15.4669 23.3832C15.4669 23.3832 15.5021 23.2218 15.4816 23.0115C15.4609 22.8011 15.2281 22.7719 15.2281 22.7719C15.2281 22.7719 15.239 22.7378 15.2184 22.5764C15.1977 22.415 14.9745 22.3514 14.9745 22.3514C14.9745 22.3514 14.7513 22.415 14.7307 22.5764C14.71 22.7378 14.7209 22.7719 14.7209 22.7719C14.7209 22.7719 14.4881 22.8013 14.4674 23.0115C14.4468 23.2218 14.4821 23.3832 14.4821 23.3832L14.0824 23.3978C14.0824 23.3978 14.5417 22.8257 14.0776 22.5029C13.6134 22.1801 13.1678 22.2925 12.9759 22.3023C12.6874 22.3169 12.4153 22.5029 12.4153 22.5029C12.4153 22.5029 11.9337 22.5566 11.7865 22.5371C11.6393 22.5176 11.4502 22.3854 11.4502 22.3854C11.4502 22.3854 11.4414 22.7326 11.689 22.9136C11.9366 23.0946 12.0691 23.1042 12.0691 23.1042C12.0691 23.1042 12.1774 23.3341 12.2397 23.427C12.3022 23.5199 12.4591 23.6276 12.4591 23.6276C12.4591 23.6276 12.3578 22.9037 12.8004 22.7473C13.2429 22.5907 13.8404 22.8007 13.673 23.3439C13.6065 23.5595 13.2897 23.5901 13.1879 23.4343C13.0864 23.2791 13.1952 23.0016 13.1952 23.0016C13.1952 23.0016 12.5041 23.1482 12.7662 23.8232C13.0284 24.498 13.6691 24.1508 13.7459 24.0922C13.8229 24.0335 14.1127 23.9063 14.2773 23.8623C14.442 23.8182 14.6331 23.8281 14.6331 23.8281L14.5015 23.9554C14.5015 23.9554 14.0722 23.9571 13.8775 24.1951C13.4572 24.7086 13.7947 24.9873 13.7947 24.9873C13.7947 24.9873 13.8982 24.5227 14.3846 24.464C14.8708 24.4052 14.8294 24.6547 14.833 24.777C14.8366 24.8992 14.797 25.1814 14.3797 25.1144C14.2275 25.0899 14.0579 24.8601 14.0579 24.8601C14.0579 24.8601 13.9566 25.3345 14.2089 25.5399C14.4613 25.7453 14.6379 25.7159 14.6379 25.7159C14.6379 25.7159 14.6878 25.9164 14.7598 26.0239C14.8317 26.1316 14.9744 26.2587 14.9744 26.2587C14.9744 26.2587 15.117 26.1314 15.1889 26.0239C15.2609 25.9163 15.3108 25.7159 15.3108 25.7159C15.3108 25.7159 15.4874 25.7453 15.7398 25.5399C15.9921 25.3345 15.8908 24.8601 15.8908 24.8601C15.8908 24.8601 15.7213 25.09 15.5691 25.1144C15.1517 25.1814 15.1121 24.8991 15.1159 24.777C15.1195 24.6547 15.078 24.4052 15.5643 24.464C16.0505 24.5227 16.154 24.9873 16.154 24.9873C16.154 24.9873 16.4915 24.7085 16.0712 24.1951C15.8765 23.9573 15.4472 23.9554 15.4472 23.9554L15.3156 23.8281C15.3156 23.8281 15.5069 23.8184 15.6714 23.8623C15.8361 23.9063 16.1259 24.0335 16.2028 24.0922C16.2797 24.1509 16.9204 24.4981 17.1826 23.8232C17.4447 23.1482 16.7535 23.0016 16.7535 23.0016C16.7535 23.0016 16.8623 23.2791 16.7609 23.4343C16.6592 23.5901 16.3424 23.5595 16.2759 23.3439C16.1084 22.8007 16.7059 22.5908 17.1485 22.7473C17.5911 22.9037 17.4897 23.6276 17.4897 23.6276C17.4897 23.6276 17.6467 23.5199 17.7091 23.427C17.7716 23.3341 17.8798 23.1042 17.8798 23.1042C17.8798 23.1042 18.0122 23.0945 18.26 22.9136C18.5076 22.7326 18.4988 22.3854 18.4988 22.3854Z" fill="white"/>
<path d="M14.9745 10.5819C13.3161 10.5819 11.9717 11.9307 11.9717 13.5945C11.9717 15.2585 13.3161 16.6073 14.9745 16.6073C16.6328 16.6073 17.9773 15.2585 17.9773 13.5945C17.9773 11.9307 16.6328 10.5819 14.9745 10.5819ZM16.5746 11.4598C16.7625 11.6067 17.001 11.8682 17.001 11.8682C17.001 11.8682 17.0742 12.1518 17.0717 12.3817C17.0693 12.6116 17.0302 12.8512 17.0302 12.8512L16.0895 13.1544C16.0895 13.1544 15.802 12.9049 15.6142 12.7656C15.4265 12.6262 15.0414 12.3987 15.0414 12.3987L15.0464 11.4009C15.0464 11.4009 15.2926 11.2836 15.507 11.2101C15.7215 11.1367 15.9969 11.1221 15.9969 11.1221C15.9969 11.1221 16.3431 11.2785 16.5746 11.4595V11.4598ZM15.9203 13.5945C15.9203 14.1179 15.4959 14.5436 14.9745 14.5436C14.4528 14.5436 14.0286 14.1179 14.0286 13.5945C14.0286 13.0712 14.453 12.6455 14.9745 12.6455C15.4959 12.6455 15.9203 13.0713 15.9203 13.5945ZM14.0861 10.8881C14.1289 10.8352 14.1956 10.7874 14.1956 10.7874C14.1956 10.7874 14.6778 10.6438 15.0973 10.6777C15.5169 10.7116 15.7293 10.7757 15.7293 10.7757C15.7293 10.7757 15.7836 10.8217 15.8271 10.8694C15.8707 10.917 15.9052 11.0002 15.9052 11.0002C15.9052 11.0002 15.5931 11.0254 15.3804 11.1095C15.1767 11.1898 14.9625 11.2998 14.9625 11.2998C14.9625 11.2998 14.6255 11.1375 14.5124 11.0991C14.3255 11.0356 14.0245 11.007 14.0245 11.007C14.0245 11.007 14.0433 10.9411 14.0861 10.8882V10.8881ZM12.9481 11.8541C12.9481 11.8541 13.2033 11.5722 13.4464 11.4072C13.6438 11.2731 13.9654 11.1263 13.9654 11.1263C13.9654 11.1263 14.2569 11.1443 14.4741 11.2176C14.6913 11.2911 14.9063 11.4022 14.9063 11.4022L14.9031 12.3937C14.9031 12.3937 14.5778 12.591 14.3876 12.727C14.1975 12.863 13.8629 13.1603 13.8629 13.1603L12.9187 12.8472C12.9187 12.8472 12.8835 12.5761 12.8803 12.3487C12.8769 12.1214 12.9482 11.8541 12.9482 11.8541H12.9481ZM12.1356 13.6052C12.0988 13.5479 12.074 13.4696 12.074 13.4696C12.074 13.4696 12.0868 12.9651 12.2487 12.5751C12.4105 12.1854 12.537 12.0024 12.537 12.0024C12.537 12.0024 12.5974 11.9649 12.6559 11.938C12.7144 11.9113 12.8041 11.9039 12.8041 11.9039C12.8041 11.9039 12.7315 12.2094 12.7453 12.4385C12.7587 12.6578 12.7966 12.896 12.7966 12.896C12.7966 12.896 12.5386 13.1674 12.4672 13.2635C12.3492 13.4222 12.2291 13.7004 12.2291 13.7004C12.2291 13.7004 12.1724 13.6621 12.1355 13.605L12.1356 13.6052ZM12.3243 13.794C12.3243 13.794 12.4313 13.5215 12.568 13.3369C12.7045 13.1524 12.8765 12.9815 12.8765 12.9815L13.8152 13.291C13.8152 13.291 13.9017 13.6624 13.9718 13.8858C14.042 14.1094 14.2204 14.5204 14.2204 14.5204L13.6319 15.3247C13.6319 15.3247 13.364 15.2744 13.1476 15.2074C12.9311 15.1403 12.6996 14.9897 12.6996 14.9897C12.6996 14.9897 12.5114 14.659 12.43 14.3761C12.3639 14.1462 12.3241 13.7942 12.3241 13.7942L12.3243 13.794ZM14.1084 16.3059C14.0427 16.3235 13.9609 16.3227 13.9609 16.3227C13.9609 16.3227 13.4866 16.1546 13.1671 15.8797C12.8475 15.6048 12.7131 15.4276 12.7131 15.4276C12.7131 15.4276 12.6961 15.3584 12.6888 15.2943C12.6815 15.2302 12.7024 15.1424 12.7024 15.1424C12.7024 15.1424 12.9695 15.306 13.1909 15.3635C13.4029 15.4184 13.6405 15.456 13.6405 15.456C13.6405 15.456 13.8181 15.7859 13.887 15.8838C14.0011 16.0455 14.2276 16.2462 14.2276 16.2462C14.2276 16.2462 14.1739 16.2884 14.1083 16.3059H14.1084ZM14.9301 16.2631C14.6919 16.2551 14.3457 16.1844 14.3457 16.1844C14.3457 16.1844 14.1203 15.998 13.9877 15.8106C13.8551 15.6232 13.7462 15.4063 13.7462 15.4063L14.3297 14.6062C14.3297 14.6062 14.7085 14.6384 14.942 14.6405C15.1754 14.6427 15.6203 14.5996 15.6203 14.5996L16.2007 15.4095C16.2007 15.4095 16.0703 15.6497 15.9398 15.8356C15.8094 16.0214 15.5951 16.1957 15.5951 16.1957C15.5951 16.1957 15.2234 16.2732 14.9301 16.2633V16.2631ZM17.2782 15.2581C17.2745 15.3261 17.2486 15.404 17.2486 15.404C17.2486 15.404 16.9426 15.8045 16.5833 16.0245C16.224 16.2444 16.0147 16.3178 16.0147 16.3178C16.0147 16.3178 15.9438 16.3126 15.8807 16.2998C15.8175 16.2869 15.7408 16.2401 15.7408 16.2401C15.7408 16.2401 15.9787 16.0356 16.1016 15.8422C16.2192 15.657 16.3281 15.4417 16.3281 15.4417C16.3281 15.4417 16.6957 15.3743 16.81 15.3387C16.9984 15.2798 17.2585 15.1254 17.2585 15.1254C17.2585 15.1254 17.2821 15.1898 17.2783 15.2579L17.2782 15.2581ZM17.4916 14.461C17.4104 14.6858 17.2362 14.9941 17.2362 14.9941C17.2362 14.9941 16.9901 15.1514 16.7713 15.2202C16.5526 15.2887 16.3134 15.3258 16.3134 15.3258L15.7351 14.5217C15.7351 14.5217 15.8826 14.1703 15.9569 13.9481C16.031 13.726 16.1276 13.2882 16.1276 13.2882L17.0749 12.9845C17.0749 12.9845 17.2622 13.1832 17.3981 13.3652C17.534 13.5472 17.633 13.8054 17.633 13.8054C17.633 13.8054 17.5915 14.184 17.4916 14.461ZM17.7203 13.6803C17.7203 13.6803 17.6001 13.3902 17.4546 13.2131C17.3154 13.0437 17.1451 12.8732 17.1451 12.8732C17.1451 12.8732 17.1949 12.5015 17.1964 12.3817C17.1987 12.1837 17.133 11.8877 17.133 11.8877C17.133 11.8877 17.2013 11.8853 17.2646 11.9098C17.328 11.9342 17.3938 11.9831 17.3938 11.9831C17.3938 11.9831 17.679 12.3988 17.7765 12.8097C17.8739 13.2204 17.8788 13.443 17.8788 13.443C17.8788 13.443 17.8519 13.5092 17.8203 13.5653C17.7886 13.6215 17.7205 13.6803 17.7205 13.6803H17.7203Z" fill="white"/>
<path d="M14.1182 13.5945C14.1182 14.0682 14.5024 14.4537 14.9745 14.4537C15.4466 14.4537 15.8308 14.0682 15.8308 13.5945C15.8308 13.1208 15.4468 12.7354 14.9745 12.7354C14.5024 12.7354 14.1182 13.1208 14.1182 13.5945ZM14.9228 14.3254C14.8416 14.3898 14.7335 14.3808 14.6546 14.2984C14.5782 14.2185 14.5498 13.9537 14.5254 13.8535C14.501 13.7533 14.4677 13.6969 14.384 13.6969C14.3003 13.6969 14.3076 13.7556 14.3132 13.7825C14.3189 13.8095 14.3766 13.8273 14.4034 13.7899C14.4301 13.7524 14.3888 13.736 14.3888 13.736C14.3888 13.736 14.4612 13.7263 14.4789 13.7875C14.4946 13.8414 14.4619 13.8828 14.4619 13.8828C14.4619 13.8828 14.4757 13.9024 14.4863 13.9195C14.4968 13.9366 14.531 13.9832 14.5204 14.0613C14.5098 14.1396 14.4716 14.1518 14.4716 14.1518C14.4716 14.1518 14.4684 14.1037 14.4473 14.0515C14.4328 14.0155 14.3994 13.9766 14.379 13.9562C14.368 13.9452 14.3141 13.9202 14.2694 13.878C14.2274 13.8381 14.2077 13.773 14.2134 13.7387C14.2323 13.6246 14.3119 13.5982 14.3641 13.5935C14.3119 13.5887 14.2323 13.5624 14.2134 13.4483C14.2077 13.414 14.2274 13.3488 14.2694 13.309C14.3143 13.2667 14.368 13.2419 14.379 13.2308C14.3993 13.2105 14.4326 13.1716 14.4473 13.1354C14.4684 13.0833 14.4716 13.0352 14.4716 13.0352C14.4716 13.0352 14.5098 13.0475 14.5204 13.1256C14.5309 13.2039 14.4968 13.2504 14.4863 13.2675C14.4757 13.2846 14.4619 13.3041 14.4619 13.3041C14.4619 13.3041 14.4948 13.3456 14.4789 13.3994C14.461 13.4606 14.3888 13.4508 14.3888 13.4508C14.3888 13.4508 14.4301 13.4346 14.4034 13.397C14.3766 13.3595 14.3189 13.3775 14.3132 13.4043C14.3076 13.4312 14.3003 13.4899 14.384 13.4899C14.4677 13.4899 14.501 13.4337 14.5254 13.3335C14.5498 13.2333 14.5781 12.9683 14.6546 12.8884C14.7334 12.8062 14.8414 12.7971 14.9228 12.8616C15.01 12.9306 14.965 13.0523 14.9448 13.0792C14.9244 13.1061 14.8582 13.1553 14.8448 13.1623C14.8171 13.1771 14.7852 13.1927 14.7497 13.2625C14.7274 13.3065 14.7132 13.3775 14.7132 13.3775C14.7132 13.3775 14.6589 13.3462 14.6669 13.2331C14.6709 13.1762 14.7254 13.1109 14.7254 13.1109C14.7254 13.1109 14.6856 13.0514 14.7229 12.9911C14.7481 12.9504 14.7985 12.9642 14.7985 12.9642C14.7985 12.9642 14.7758 12.9683 14.7765 12.9936C14.7774 13.0189 14.813 13.049 14.852 13.0327C14.8911 13.0164 14.8943 12.9374 14.8349 12.9276C14.7756 12.9178 14.7407 12.9276 14.713 12.9644C14.6854 13.001 14.6635 13.0728 14.652 13.1306C14.6407 13.1884 14.6212 13.3386 14.5912 13.4216C14.5612 13.5047 14.537 13.5254 14.5083 13.5513C14.4693 13.5862 14.4108 13.5928 14.4108 13.5928C14.4108 13.5928 14.4082 13.5932 14.4035 13.5936C14.4082 13.5941 14.4108 13.5945 14.4108 13.5945C14.4108 13.5945 14.4693 13.6009 14.5083 13.6361C14.537 13.662 14.5612 13.6827 14.5912 13.7658C14.6213 13.849 14.6407 13.9988 14.652 14.0567C14.6634 14.1145 14.6854 14.1864 14.713 14.223C14.7407 14.2597 14.7756 14.2695 14.8349 14.2597C14.8943 14.2499 14.8909 14.1707 14.852 14.1547C14.813 14.1383 14.7774 14.1685 14.7765 14.1938C14.7758 14.2191 14.7985 14.2232 14.7985 14.2232C14.7985 14.2232 14.7481 14.2371 14.7229 14.1962C14.6856 14.136 14.7254 14.0764 14.7254 14.0764C14.7254 14.0764 14.6709 14.0112 14.6669 13.9543C14.6589 13.8411 14.7132 13.81 14.7132 13.81C14.7132 13.81 14.7274 13.8809 14.7497 13.9249C14.7852 13.9947 14.8171 14.0105 14.8448 14.0251C14.8582 14.0323 14.9244 14.0813 14.9448 14.1082C14.965 14.1352 15.01 14.2568 14.9228 14.326V14.3254ZM14.6571 13.5933C14.6571 13.4175 14.7992 13.2749 14.9745 13.2749C15.1498 13.2749 15.2919 13.4176 15.2919 13.5933C15.2919 13.7692 15.1498 13.9118 14.9745 13.9118C14.7992 13.9118 14.6571 13.7692 14.6571 13.5933ZM15.0262 12.8613C15.1074 12.7968 15.2154 12.8059 15.2943 12.8881C15.3708 12.968 15.3991 13.233 15.4235 13.3332C15.4479 13.4334 15.4811 13.4896 15.5648 13.4896C15.6485 13.4896 15.6413 13.4309 15.6356 13.404C15.6299 13.3772 15.5721 13.3592 15.5453 13.3967C15.5185 13.4341 15.56 13.4505 15.56 13.4505C15.56 13.4505 15.4877 13.4603 15.4699 13.3991C15.4542 13.3452 15.4869 13.3038 15.4869 13.3038C15.4869 13.3038 15.4731 13.2843 15.4625 13.2672C15.4518 13.2499 15.4178 13.2036 15.4284 13.1253C15.4389 13.0472 15.4772 13.0349 15.4772 13.0349C15.4772 13.0349 15.4804 13.083 15.5015 13.1351C15.5162 13.1712 15.5495 13.2101 15.5698 13.2305C15.5808 13.2416 15.6347 13.2664 15.6794 13.3087C15.7215 13.3485 15.7411 13.4138 15.7354 13.448C15.7165 13.5621 15.6369 13.5885 15.5848 13.5932C15.6369 13.5979 15.7165 13.6243 15.7354 13.7384C15.7411 13.7729 15.7215 13.8379 15.6794 13.8777C15.6347 13.9199 15.5807 13.9449 15.5698 13.9559C15.5495 13.9763 15.5162 14.0152 15.5015 14.0513C15.4804 14.1034 15.4772 14.1515 15.4772 14.1515C15.4772 14.1515 15.439 14.1392 15.4284 14.061C15.4178 13.9829 15.452 13.9363 15.4625 13.9192C15.4731 13.9021 15.4869 13.8826 15.4869 13.8826C15.4869 13.8826 15.454 13.8411 15.4699 13.7872C15.4878 13.726 15.56 13.7358 15.56 13.7358C15.56 13.7358 15.5185 13.752 15.5453 13.7897C15.5721 13.827 15.6299 13.8092 15.6356 13.7822C15.6413 13.7553 15.6485 13.6966 15.5648 13.6966C15.4811 13.6966 15.4479 13.753 15.4235 13.8532C15.399 13.9534 15.3708 14.2182 15.2943 14.2981C15.2156 14.3805 15.1074 14.3895 15.0262 14.3251C14.939 14.256 14.9839 14.1344 15.0043 14.1073C15.0246 14.0805 15.0908 14.0314 15.1042 14.0242C15.1319 14.0096 15.1639 13.9939 15.1993 13.924C15.2215 13.8801 15.2358 13.8091 15.2358 13.8091C15.2358 13.8091 15.2901 13.8402 15.2821 13.9534C15.278 14.0104 15.2236 14.0755 15.2236 14.0755C15.2236 14.0755 15.2633 14.1351 15.226 14.1953C15.2009 14.236 15.1505 14.2223 15.1505 14.2223C15.1505 14.2223 15.1732 14.2182 15.1725 14.1929C15.1717 14.1677 15.1359 14.1376 15.0969 14.1538C15.0579 14.17 15.0547 14.249 15.114 14.2588C15.1732 14.2686 15.2081 14.2588 15.2358 14.2222C15.2635 14.1855 15.2853 14.1138 15.2967 14.0558C15.308 13.9979 15.3275 13.8479 15.3577 13.765C15.3876 13.6819 15.4118 13.6611 15.4405 13.6353C15.4795 13.6002 15.538 13.5936 15.538 13.5936C15.538 13.5936 15.5407 13.5932 15.5453 13.5928C15.5407 13.5923 15.538 13.5919 15.538 13.5919C15.538 13.5919 15.4795 13.5855 15.4405 13.5504C15.4118 13.5245 15.3876 13.5038 15.3577 13.4207C15.3275 13.3376 15.3082 13.1876 15.2967 13.1297C15.2853 13.0719 15.2633 13.0002 15.2358 12.9635C15.2081 12.9267 15.1732 12.9169 15.114 12.9267C15.0547 12.9365 15.0579 13.0157 15.0969 13.0319C15.1359 13.0481 15.1716 13.018 15.1725 12.9927C15.1733 12.9674 15.1505 12.9634 15.1505 12.9634C15.1505 12.9634 15.2009 12.9495 15.226 12.9902C15.2633 13.0506 15.2236 13.11 15.2236 13.11C15.2236 13.11 15.278 13.1753 15.2821 13.2323C15.2903 13.3453 15.2358 13.3766 15.2358 13.3766C15.2358 13.3766 15.2215 13.3056 15.1993 13.2616C15.1639 13.1917 15.1319 13.1762 15.1042 13.1614C15.0908 13.1544 15.0246 13.1052 15.0043 13.0783C14.9839 13.0514 14.939 12.9299 15.0262 12.8607V12.8613Z" fill="white"/>
<path d="M14.0625 13.5944C14.0625 14.0989 14.4716 14.5095 14.9746 14.5095C15.4774 14.5095 15.8867 14.0989 15.8867 13.5944C15.8867 13.0899 15.4776 12.6793 14.9746 12.6793C14.4717 12.6793 14.0625 13.0899 14.0625 13.5944ZM15.8648 13.5944C15.8648 14.087 15.4655 14.4876 14.9746 14.4876C14.4838 14.4876 14.0843 14.087 14.0843 13.5944C14.0843 13.102 14.4837 12.7014 14.9746 12.7014C15.4653 12.7014 15.8648 13.102 15.8648 13.5944Z" fill="white"/>
<path d="M15.5449 13.5933C15.5531 13.594 15.5672 13.5949 15.5842 13.5933C15.5672 13.5918 15.5529 13.5925 15.5449 13.5933Z" fill="white"/>
<path d="M14.4036 13.5933C14.3956 13.5925 14.3813 13.5918 14.3643 13.5933C14.3814 13.5949 14.3956 13.594 14.4036 13.5933Z" fill="white"/>
<path d="M15.2425 13.6263C15.2425 13.6263 15.2473 13.6092 15.2473 13.5944C15.2473 13.5797 15.2425 13.5626 15.2425 13.5626C15.2425 13.5626 15.206 13.57 15.1717 13.57C15.1618 13.57 15.0883 13.5642 15.0719 13.548C15.0532 13.5297 15.032 13.4901 15.0474 13.4672C15.0888 13.406 15.1645 13.4599 15.1645 13.4599C15.1645 13.4599 15.176 13.4297 15.1474 13.3962C15.1011 13.3417 15.0256 13.3668 15.0256 13.3668L14.9745 13.2983L14.9209 13.3668C14.9209 13.3668 14.8932 13.3496 14.8381 13.3693C14.7685 13.394 14.782 13.4597 14.782 13.4597C14.782 13.4597 14.8831 13.398 14.9039 13.4817C14.9084 13.4995 14.8995 13.523 14.888 13.5373C14.8713 13.558 14.8349 13.563 14.804 13.5672C14.7512 13.5746 14.7065 13.5599 14.7065 13.5599C14.7065 13.5599 14.7017 13.5802 14.7017 13.5966C14.7017 13.613 14.7041 13.626 14.7041 13.626C14.7041 13.626 14.7731 13.6121 14.848 13.626C14.8863 13.633 14.9283 13.6945 14.8918 13.7335C14.8552 13.7728 14.7846 13.7286 14.7846 13.7286C14.7846 13.7286 14.7676 13.7792 14.8334 13.8166C14.8682 13.8364 14.9211 13.8215 14.9211 13.8215L14.9746 13.8876L15.0282 13.8215C15.0282 13.8215 15.0738 13.8345 15.1135 13.8191C15.17 13.7969 15.1646 13.7286 15.1646 13.7286C15.1646 13.7286 15.1158 13.7571 15.0793 13.7457C15.0428 13.7343 15.0298 13.6984 15.0646 13.648C15.0995 13.5975 15.2426 13.626 15.2426 13.626L15.2425 13.6263ZM14.9743 13.685L14.9036 13.5946L14.9743 13.5041L15.0451 13.5946L14.9743 13.685Z" fill="white"/>
<path d="M14.9282 13.5945L14.9741 13.6532L15.0199 13.5945L14.9741 13.5359L14.9282 13.5945Z" fill="white"/>
<path fill-rule="evenodd" clip-rule="evenodd" d="M12.7543 9.05438L12.6988 9.08257C12.6988 9.08257 12.6508 9.08082 12.6325 9.0814C12.6141 9.08184 12.5923 9.0817 12.5923 9.0817C12.5923 9.0817 12.5707 9.11325 12.5655 9.12902C12.5602 9.1448 12.5533 9.16817 12.5533 9.16817L12.5064 9.18146L12.4722 9.15108C12.4722 9.15108 12.4864 9.07556 12.4955 9.05292C12.5043 9.03014 12.5236 8.99786 12.5236 8.99786C12.5236 8.99786 12.6 8.98573 12.6301 8.98895C12.6603 8.99216 12.7112 9.00034 12.7112 9.00034L12.7543 9.05438Z" fill="white"/>
<path fill-rule="evenodd" clip-rule="evenodd" d="M14.9402 9.55066C12.2453 9.55066 10.0605 11.7262 10.0605 14.4097C10.0605 15.7398 10.5975 16.9449 11.467 17.8224C11.4793 17.8346 11.682 17.7607 11.682 17.7607C10.8026 16.9128 10.2556 15.7249 10.2556 14.4095C10.2556 12.4258 11.4993 10.7315 13.2524 10.0571C13.2836 10.0676 13.3644 10.1018 13.3742 10.1706C13.3864 10.2562 13.3376 10.3369 13.2644 10.3467C13.1913 10.3565 13.1817 10.2785 13.1961 10.2465C13.2206 10.1928 13.2936 10.2072 13.2936 10.2072C13.2936 10.2072 13.2382 10.0946 13.1278 10.2097C13.067 10.2734 13.0962 10.3759 13.0962 10.3759C13.0962 10.3759 12.9744 10.4127 12.9354 10.4884C12.8964 10.5642 12.8891 10.6523 12.8891 10.6523C12.8891 10.6523 12.9476 10.5521 13.0475 10.5373C13.1473 10.5227 13.2727 10.4922 13.3132 10.4788C13.379 10.4566 13.4253 10.3661 13.4253 10.3661L13.5446 10.4713L13.6032 10.3074C13.6032 10.3074 13.6518 10.3588 13.7468 10.3344C13.8419 10.3099 13.9408 10.2478 13.9882 10.2293C14.1003 10.1853 14.1904 10.2269 14.1904 10.2269C14.1904 10.2269 14.1294 10.1462 14.0564 10.112C13.9833 10.0777 13.8833 10.1193 13.8833 10.1193C13.8833 10.1193 13.8483 10.0188 13.7809 10.0043C13.6323 9.97264 13.6347 10.0924 13.6347 10.0924C13.6347 10.0924 13.7243 10.0299 13.7543 10.0875C13.7835 10.1437 13.7348 10.2195 13.669 10.2122C13.6032 10.2049 13.5374 10.1437 13.5446 10.0704C13.5507 10.0087 13.6016 9.95073 13.6176 9.93364C13.8103 9.87726 14.0082 9.83286 14.2104 9.80116C14.4053 9.77925 14.6975 9.75223 14.6975 9.75223C14.6975 9.75223 14.8169 9.79386 14.8266 9.88676C14.8364 9.97965 14.7584 10.0409 14.7193 10.0482C14.6803 10.0555 14.6017 10.0324 14.6243 9.94065C14.6372 9.88763 14.7364 9.92108 14.7364 9.92108C14.7364 9.92108 14.7266 9.82088 14.6096 9.86236C14.4925 9.90399 14.5145 10.0238 14.5145 10.0238C14.5145 10.0238 14.3975 10.0286 14.3439 10.0677C14.2903 10.1069 14.2463 10.2218 14.2463 10.2218C14.2463 10.2218 14.3024 10.1558 14.4292 10.1681C14.5559 10.1803 14.6455 10.1877 14.6924 10.1877C14.7582 10.1877 14.824 10.1191 14.824 10.1191L14.9214 10.2537L15.014 10.1143C15.014 10.1143 15.0652 10.1951 15.2017 10.1901C15.3382 10.1853 15.4063 10.1462 15.4869 10.1706C15.5672 10.1951 15.5892 10.222 15.5892 10.222C15.5892 10.222 15.5892 10.1487 15.5064 10.0801C15.4235 10.0116 15.3333 10.0312 15.3333 10.0312C15.3333 10.0312 15.3242 9.93204 15.2797 9.89669C15.1408 9.7867 15.0968 9.91875 15.0968 9.91875C15.0968 9.91875 15.2187 9.8723 15.2164 9.97746C15.2139 10.0826 15.0945 10.0582 15.0505 10.0093C15.0067 9.96037 15.0018 9.86748 15.0457 9.81372C15.0896 9.75983 15.1359 9.75252 15.1359 9.75252C15.1359 9.75252 15.4755 9.77998 15.6965 9.81124C15.9379 9.84542 16.2084 9.92619 16.2084 9.92619C16.2084 9.92619 16.3456 10.0128 16.2596 10.1511C16.1986 10.249 16.0963 10.1977 16.0792 10.1707C16.062 10.1438 16.066 10.0762 16.106 10.0657C16.1523 10.0534 16.1961 10.095 16.1961 10.095C16.1961 10.095 16.2105 10.0035 16.1012 9.99718C15.9719 9.98988 15.9501 10.1292 15.9501 10.1292C15.9501 10.1292 15.8453 10.0851 15.7722 10.1146C15.6991 10.144 15.6479 10.2221 15.6479 10.2221C15.6479 10.2221 15.7428 10.1928 15.8015 10.2148C15.86 10.2369 16.0379 10.3273 16.1012 10.3371C16.1645 10.3469 16.2303 10.3076 16.2303 10.3076L16.2839 10.4642L16.4132 10.364C16.4132 10.364 16.4302 10.4398 16.5375 10.4789C16.6448 10.5181 16.7565 10.5265 16.8055 10.5424C16.8957 10.5718 16.9446 10.6476 16.9446 10.6476C16.9446 10.6476 16.9355 10.5386 16.9006 10.4861C16.8518 10.4127 16.7348 10.3786 16.7348 10.3786C16.7348 10.3786 16.7611 10.2909 16.7227 10.2344C16.6161 10.078 16.5349 10.2026 16.5349 10.2026C16.5349 10.2026 16.6761 10.1945 16.6422 10.3003C16.6202 10.3688 16.5058 10.359 16.474 10.2709C16.4423 10.183 16.474 10.1047 16.5106 10.0875C16.5471 10.0704 16.6057 10.0533 16.6057 10.0533C16.6057 10.0533 16.9338 10.1806 17.2544 10.3568V10.3536C18.6696 11.1562 19.6239 12.6718 19.6239 14.4097C19.6239 15.7181 19.0826 16.9005 18.211 17.7477L18.4068 17.8282C19.2799 16.9502 19.8191 15.7428 19.8191 14.4097C19.8191 11.7262 17.6345 9.55066 14.9395 9.55066H14.9402Z" fill="white"/>
<path fill-rule="evenodd" clip-rule="evenodd" d="M19.1705 17.1547C19.1705 17.1547 19.0205 17.2781 19.1485 17.4065C19.2558 17.514 19.3411 17.4358 19.3411 17.4358C19.3411 17.4358 19.3166 17.4199 19.3191 17.3771C19.3216 17.3343 19.3411 17.3307 19.3411 17.3307C19.3411 17.3307 19.3443 17.3562 19.3533 17.3771C19.3597 17.392 19.3728 17.404 19.3728 17.404C19.3728 17.404 19.4044 17.3746 19.4166 17.3428C19.4289 17.311 19.4313 17.2793 19.4313 17.2793C19.4313 17.2793 19.3619 17.3343 19.3412 17.272C19.3206 17.2096 19.3839 17.1595 19.407 17.1595C19.4302 17.1595 19.4992 17.1645 19.4947 17.2695C19.491 17.3587 19.4168 17.448 19.4168 17.448L19.4388 17.47C19.4388 17.47 19.4875 17.4309 19.5022 17.3967C19.5168 17.3625 19.5254 17.3441 19.5388 17.3356C19.5522 17.327 19.7119 17.2598 19.7119 17.2598C19.7119 17.2598 19.6424 17.4103 19.6339 17.4237C19.6253 17.4372 19.5924 17.4567 19.5705 17.4654C19.5485 17.4738 19.49 17.5264 19.49 17.5264L19.512 17.5485C19.512 17.5485 19.6132 17.475 19.6752 17.4775C19.7374 17.48 19.8045 17.4934 19.7995 17.5631C19.7947 17.6327 19.708 17.6459 19.685 17.6316C19.6301 17.5973 19.68 17.5387 19.68 17.5387C19.68 17.5387 19.6507 17.5362 19.6046 17.5583C19.5582 17.5803 19.5557 17.5924 19.5557 17.5924C19.5557 17.5924 19.574 17.6108 19.5924 17.6193C19.6106 17.6278 19.6264 17.6316 19.6264 17.6316C19.6264 17.6316 19.5948 17.6571 19.5704 17.6512C19.5459 17.645 19.5241 17.6243 19.5241 17.6243C19.5241 17.6243 19.4182 17.7303 19.5849 17.8517C19.6873 17.9263 19.7971 17.8077 19.7971 17.8077C19.7971 17.8077 19.8275 17.9214 19.7532 18.0327C19.6788 18.144 19.54 18.1598 19.4608 18.0962C19.3816 18.0327 19.3322 17.9309 19.3584 17.7905C19.3816 17.6671 19.4755 17.5777 19.4755 17.5777L19.4583 17.5581C19.4583 17.5581 19.395 17.6034 19.3439 17.7391C19.2926 17.8748 19.2843 17.9523 19.2073 17.9861C19.1294 18.0203 18.8247 18.1181 18.8247 18.1181C18.8247 18.1181 18.9135 17.8786 18.9246 17.8394C18.9355 17.8003 18.9697 17.7135 19.0269 17.6805C19.0841 17.6475 19.214 17.6154 19.2657 17.5949C19.3278 17.5705 19.407 17.5045 19.407 17.5045L19.3875 17.4824C19.3875 17.4824 19.2804 17.5924 19.1462 17.5974C19.0122 17.6024 18.8744 17.5461 18.8391 17.4141C18.8037 17.282 18.9332 17.1912 19.0025 17.1621C19.084 17.1279 19.1706 17.1548 19.1706 17.1548L19.1705 17.1547Z" fill="white"/>
<path fill-rule="evenodd" clip-rule="evenodd" d="M20.771 14.868C20.771 14.868 20.909 14.7983 20.9074 14.5647C20.9049 14.1978 20.6247 14.264 20.6247 14.264C20.6247 14.264 20.7576 14.3887 20.7416 14.4914C20.7209 14.6248 20.5807 14.6724 20.4759 14.6798C20.3711 14.6871 20.3163 14.681 20.2906 14.6822C20.2651 14.6833 20.237 14.7263 20.2248 14.7409C20.2125 14.7556 20.1955 14.7825 20.1882 14.7825C20.1808 14.7825 20.1613 14.6652 20.215 14.4793C20.2686 14.2935 20.4319 14.0281 20.51 13.8949C20.588 13.7615 20.7451 13.4253 20.7342 13.127C20.7232 12.8286 20.4905 12.7284 20.4905 12.7284C20.4905 12.7284 20.5174 12.6746 20.5295 12.6355C20.5417 12.5963 20.5437 12.5479 20.5437 12.5479L20.4447 12.5915C20.4447 12.5915 20.4346 12.6257 20.4321 12.6403C20.4297 12.6551 20.415 12.6941 20.415 12.6941C20.415 12.6941 20.2612 12.6575 20.108 12.7234C19.9715 12.7821 19.8397 12.9665 19.8595 13.1929C19.8784 13.4108 19.9496 13.4032 19.9666 13.5915C19.9837 13.7798 19.9252 13.9755 19.9252 13.9755C19.9252 13.9755 20.0836 13.8947 20.1128 13.6894C20.1333 13.5456 20.1323 13.5145 20.1298 13.5087C20.1284 13.5084 20.1275 13.5084 20.1275 13.5084C20.1275 13.5084 20.1288 13.5062 20.1298 13.5087C20.1489 13.511 20.2871 13.5231 20.3687 13.3958C20.4564 13.2589 20.3687 13.1146 20.3687 13.1146C20.3687 13.1146 20.3379 13.3474 20.1469 13.2441C20.0499 13.1917 20.1347 13.0142 20.1347 13.0142C20.1347 13.0142 20.2418 12.8357 20.4466 12.9751C20.6513 13.1144 20.449 13.6109 20.2833 13.8529C20.1175 14.0951 19.9495 14.4648 19.9713 14.65C19.9981 14.878 20.0499 14.9785 20.0518 14.968C20.0518 14.968 19.8227 15.2517 19.9324 15.6184C20.0421 15.9852 20.2322 16.3732 20.2322 16.5893C20.2322 16.7801 20.2077 16.9561 19.9934 16.9709C19.7346 16.9885 19.7618 16.6822 19.8423 16.6456C19.9228 16.6089 19.9888 16.613 20.0349 16.6822C20.0642 16.7264 20.0495 16.7874 20.0495 16.7874C20.0495 16.7874 20.1562 16.676 20.108 16.5331C20.0495 16.3596 19.8838 16.3719 19.8838 16.3719C19.8838 16.3719 19.9051 16.2743 19.8936 16.1346C19.8789 15.9573 19.7644 15.8876 19.7644 15.8876C19.7644 15.8876 19.7781 16.1488 19.74 16.274C19.695 16.422 19.5682 16.5404 19.5596 16.6897C19.5512 16.8388 19.5292 17.0638 19.7863 17.1812C20.0435 17.2986 20.2945 17.125 20.3762 16.9342C20.4578 16.7434 20.4542 16.461 20.3737 16.2128C20.2932 15.9646 20.1361 15.6222 20.1275 15.4426C20.1189 15.2629 20.1518 15.176 20.1518 15.176C20.1518 15.176 20.1763 15.1798 20.1884 15.2225C20.2006 15.2653 20.2406 15.2923 20.259 15.291C20.2772 15.2897 20.5015 15.3031 20.5807 15.3839C20.6599 15.4646 20.6771 15.5454 20.6125 15.6333C20.548 15.7213 20.5004 15.7384 20.5004 15.7384C20.5004 15.7384 20.6587 15.7885 20.7538 15.6675C20.8489 15.5463 20.8489 15.3411 20.8148 15.2664C20.7806 15.1919 20.7465 15.1637 20.7465 15.1637L20.8707 15.0218L20.7708 14.8678L20.771 14.868ZM20.4613 15.105C20.35 15.1043 20.2492 14.9828 20.2492 14.9828C20.2492 14.9828 20.3674 14.8691 20.4979 14.8874C20.6283 14.9056 20.6978 15.0096 20.6978 15.0096C20.6978 15.0096 20.6111 15.106 20.4613 15.1049V15.105Z" fill="white"/>
<path fill-rule="evenodd" clip-rule="evenodd" d="M20.4784 14.9145C20.3906 14.9047 20.3101 14.9903 20.3101 14.9903C20.3101 14.9903 20.3869 15.0721 20.4686 15.0782C20.5503 15.0844 20.6416 15.0047 20.6416 15.0047C20.6416 15.0047 20.566 14.9241 20.4784 14.9143V14.9145Z" fill="white"/>
<path fill-rule="evenodd" clip-rule="evenodd" d="M9.04408 15.0051L9.1684 15.1469C9.1684 15.1469 9.13434 15.1751 9.10013 15.2496C9.06606 15.3242 9.06606 15.5296 9.16112 15.6507C9.25619 15.7718 9.41458 15.7217 9.41458 15.7217C9.41458 15.7217 9.36712 15.7046 9.30249 15.6165C9.23799 15.5284 9.25503 15.4478 9.33422 15.3672C9.41342 15.2864 9.63762 15.273 9.65596 15.2743C9.6743 15.2756 9.71448 15.2486 9.72671 15.2058C9.73894 15.163 9.76326 15.1593 9.76326 15.1593C9.76326 15.1593 9.79616 15.2462 9.78771 15.4257C9.77912 15.6055 9.62189 15.9479 9.54153 16.1961C9.46103 16.4444 9.45739 16.7267 9.53906 16.9175C9.62073 17.1083 9.87171 17.2819 10.129 17.1645C10.3861 17.0471 10.3642 16.8221 10.3556 16.673C10.3472 16.5237 10.2204 16.4051 10.1754 16.2573C10.1373 16.1323 10.1509 15.8709 10.1509 15.8709C10.1509 15.8709 10.0364 15.9405 10.0218 16.1179C10.0103 16.2576 10.0316 16.3552 10.0316 16.3552C10.0316 16.3552 9.86589 16.3429 9.80737 16.5166C9.75918 16.6596 9.86589 16.771 9.86589 16.771C9.86589 16.771 9.85119 16.7098 9.88045 16.6658C9.92645 16.5965 9.99255 16.5925 10.0731 16.6292C10.1536 16.6658 10.1809 16.9721 9.92194 16.9545C9.7075 16.9397 9.68304 16.7637 9.68304 16.5729C9.68304 16.3568 9.87317 15.969 9.98279 15.602C10.0924 15.2353 9.86342 14.9516 9.86342 14.9516C9.86516 14.9623 9.91699 14.8616 9.94378 14.6336C9.96562 14.4484 9.79761 14.0786 9.63179 13.8365C9.46598 13.5944 9.26376 13.098 9.46845 12.9585C9.67314 12.8192 9.78043 12.9977 9.78043 12.9977C9.78043 12.9977 9.86531 13.175 9.76821 13.2276C9.57735 13.3309 9.54648 13.098 9.54648 13.098C9.54648 13.098 9.4587 13.2423 9.54648 13.3792C9.62801 13.5066 9.76631 13.4943 9.78538 13.492C9.7864 13.4896 9.78771 13.4917 9.78771 13.4917C9.78771 13.4917 9.78684 13.4918 9.78538 13.492C9.78291 13.4978 9.78189 13.5289 9.80242 13.6727C9.83168 13.8782 9.99007 13.9588 9.99007 13.9588C9.99007 13.9588 9.93155 13.7631 9.94858 13.5748C9.96562 13.3864 10.037 13.3941 10.0559 13.1762C10.0755 12.9498 9.94378 12.7654 9.80722 12.7067C9.65392 12.6407 9.50019 12.6774 9.50019 12.6774C9.50019 12.6774 9.48548 12.6382 9.48315 12.6235C9.48068 12.6089 9.47049 12.5747 9.47049 12.5747L9.37135 12.531C9.37135 12.531 9.37338 12.5794 9.38561 12.6185C9.39784 12.6576 9.42463 12.7114 9.42463 12.7114C9.42463 12.7114 9.19184 12.8116 9.18092 13.11C9.17001 13.4083 9.32709 13.7447 9.40512 13.8779C9.48315 14.0111 9.6465 14.2763 9.70007 14.4623C9.75365 14.6482 9.73414 14.7655 9.72686 14.7655C9.71958 14.7655 9.7024 14.7386 9.69032 14.7239C9.67809 14.7093 9.64999 14.6665 9.62451 14.6652C9.59889 14.6639 9.54401 14.6701 9.43919 14.6628C9.33437 14.6554 9.19432 14.6078 9.17365 14.4744C9.15763 14.3717 9.29055 14.247 9.29055 14.247C9.29055 14.247 9.0103 14.181 9.00783 14.5477C9.00622 14.7813 9.14438 14.851 9.14438 14.851L9.04437 15.0049L9.04408 15.0051ZM9.21717 14.9929C9.21717 14.9929 9.28662 14.8889 9.41691 14.8707C9.54721 14.8523 9.66557 14.9659 9.66557 14.9659C9.66557 14.9659 9.56497 15.0874 9.45346 15.0882C9.30365 15.0892 9.21717 14.9928 9.21717 14.9928V14.9929Z" fill="white"/>
<path fill-rule="evenodd" clip-rule="evenodd" d="M9.43629 14.8975C9.52408 14.8877 9.60444 14.9733 9.60444 14.9733C9.60444 14.9733 9.52772 15.0551 9.44605 15.0612C9.36438 15.0674 9.27295 14.9879 9.27295 14.9879C9.27295 14.9879 9.34851 14.9071 9.43615 14.8975H9.43629Z" fill="white"/>
<path fill-rule="evenodd" clip-rule="evenodd" d="M19.3168 10.4329L19.1318 10.3982C19.1318 10.3982 19.1413 10.3549 19.1223 10.275C19.1033 10.1953 18.977 10.0334 18.8278 9.99707C18.6786 9.9607 18.5847 10.0982 18.5847 10.0982C18.5847 10.0982 18.6326 10.0822 18.7376 10.1116C18.8425 10.1409 18.8786 10.215 18.866 10.3275C18.8531 10.4399 18.6848 10.5894 18.6699 10.5997C18.6547 10.6101 18.6396 10.6561 18.6563 10.6975C18.6731 10.7386 18.656 10.7566 18.656 10.7566C18.656 10.7566 18.5768 10.7087 18.473 10.5618C18.3692 10.415 18.2826 10.0482 18.1934 9.8031C18.1041 9.558 17.9335 9.33335 17.7518 9.23373C17.5703 9.13412 17.266 9.15281 17.1357 9.40434C17.0054 9.65572 17.161 9.81931 17.2594 9.93149C17.3579 10.0435 17.5304 10.0586 17.6569 10.1471C17.7637 10.222 17.9136 10.436 17.9136 10.436C17.9136 10.436 17.9609 10.3104 17.8633 10.1617C17.7866 10.0447 17.7099 9.98101 17.7099 9.98101C17.7099 9.98101 17.8479 9.88811 17.7873 9.71517C17.7374 9.5729 17.5848 9.55114 17.5848 9.55114C17.5848 9.55114 17.6339 9.59013 17.638 9.64301C17.6444 9.72612 17.5949 9.77009 17.509 9.79098C17.4231 9.81186 17.2133 9.5878 17.428 9.44144C17.6058 9.3202 17.7333 9.44378 17.8505 9.59393C17.9834 9.76395 18.0722 10.1871 18.2114 10.5435C18.3506 10.9002 18.7052 10.9816 18.7052 10.9816C18.6974 10.9743 18.7183 11.0856 18.8374 11.2816C18.9341 11.4408 19.2937 11.628 19.5729 11.716C19.8521 11.8039 20.3167 12.0697 20.2411 12.3061C20.1656 12.5424 19.9715 12.4682 19.9715 12.4682C19.9715 12.4682 19.7958 12.3812 19.8398 12.2798C19.9267 12.0803 20.0941 12.2446 20.0941 12.2446C20.0941 12.2446 20.0744 12.0768 19.9213 12.0233C19.7788 11.9735 19.6774 12.0687 19.6639 12.0823C19.6646 12.0849 19.6621 12.0841 19.6621 12.0841C19.6621 12.0841 19.6629 12.0833 19.6639 12.0823C19.6623 12.0763 19.6438 12.051 19.5394 11.9506C19.3902 11.8068 19.2158 11.8414 19.2158 11.8414C19.2158 11.8414 19.3822 11.9593 19.4844 12.1181C19.5867 12.2769 19.526 12.315 19.645 12.4982C19.7686 12.6886 19.9858 12.7523 20.1292 12.7139C20.2903 12.671 20.3889 12.5469 20.3889 12.5469C20.3889 12.5469 20.4246 12.5687 20.4353 12.5788C20.4463 12.5887 20.4614 12.608 20.4614 12.608L20.5604 12.5643C20.5604 12.5643 20.5489 12.5455 20.5151 12.5221C20.4815 12.4989 20.4273 12.4732 20.4273 12.4732C20.4273 12.4732 20.549 12.2501 20.3742 12.0087C20.1995 11.7671 19.869 11.5997 19.7258 11.5429C19.5825 11.4862 19.2908 11.3786 19.1343 11.2654C18.9779 11.1523 18.9211 11.0477 18.9268 11.0432C18.9325 11.0385 18.9625 11.0492 18.9811 11.0533C18.9997 11.0572 19.0481 11.0736 19.069 11.0587C19.0899 11.0438 19.1293 11.0051 19.2164 10.9461C19.3034 10.8869 19.443 10.8377 19.5412 10.9298C19.6169 11.0008 19.5889 11.1812 19.5889 11.1812C19.5889 11.1812 19.8501 11.0597 19.6266 10.7695C19.4842 10.5846 19.3328 10.6152 19.3328 10.6152L19.3168 10.4321V10.4329ZM19.1881 10.5496C19.1881 10.5496 19.1973 10.6745 19.1059 10.7696C19.0146 10.8649 18.8515 10.8483 18.8515 10.8483C18.8515 10.8483 18.8562 10.6904 18.9433 10.6208C19.0606 10.5273 19.188 10.5495 19.188 10.5495L19.1881 10.5496Z" fill="white"/>
<path fill-rule="evenodd" clip-rule="evenodd" d="M19.0746 10.7603C19.0115 10.8224 18.8955 10.8047 18.8955 10.8047C18.8955 10.8047 18.9056 10.6928 18.9661 10.6373C19.0267 10.582 19.1474 10.588 19.1474 10.588C19.1474 10.588 19.1375 10.6984 19.0746 10.7603Z" fill="white"/>
<path fill-rule="evenodd" clip-rule="evenodd" d="M14.9392 8.49188L14.7871 8.60303C14.7871 8.60303 14.7623 8.56637 14.6914 8.52547C14.6205 8.48457 14.4166 8.46573 14.2877 8.54957C14.1589 8.63341 14.1941 8.79628 14.1941 8.79628C14.1941 8.79628 14.2155 8.75041 14.3089 8.69403C14.4022 8.6375 14.4806 8.66204 14.5534 8.74851C14.6262 8.83498 14.6189 9.06036 14.6162 9.07848C14.6133 9.09659 14.6363 9.13924 14.6776 9.15531C14.719 9.17137 14.7204 9.19606 14.7204 9.19606C14.7204 9.19606 14.6312 9.22104 14.4536 9.19591C14.276 9.17094 13.9506 8.98236 13.7117 8.87939C13.4728 8.77627 13.1927 8.74661 12.996 8.81074C12.7992 8.87486 12.6038 9.10973 12.6967 9.37733C12.7896 9.64506 13.0149 9.6436 13.1637 9.64901C13.3125 9.65412 13.4418 9.53844 13.5927 9.50689C13.7204 9.4803 13.9784 9.51813 13.9784 9.51813C13.9784 9.51813 13.9197 9.39719 13.7452 9.36637C13.6076 9.34198 13.5089 9.35439 13.5089 9.35439C13.5089 9.35439 13.5362 9.18992 13.3693 9.11543C13.2318 9.05423 13.1114 9.15063 13.1114 9.15063C13.1114 9.15063 13.1735 9.14158 13.2145 9.17488C13.279 9.22717 13.277 9.29363 13.2331 9.37046C13.1893 9.44744 12.8829 9.44671 12.9242 9.18978C12.9584 8.97681 13.1355 8.96863 13.3247 8.98602C13.5392 9.00588 13.9068 9.23155 14.2608 9.3747C14.6147 9.51799 14.9172 9.31496 14.9172 9.31496C14.9065 9.31583 15.0015 9.37674 15.2254 9.42451C15.4073 9.46321 15.7897 9.32942 16.0454 9.18598C16.3009 9.04254 16.812 8.88611 16.9315 9.10331C17.0512 9.32065 16.8641 9.41151 16.8641 9.41151C16.8641 9.41151 16.6802 9.48001 16.6372 9.3782C16.5521 9.17795 16.7861 9.16845 16.7861 9.16845C16.7861 9.16845 16.651 9.06752 16.507 9.1426C16.3732 9.21256 16.3726 9.35176 16.3731 9.37105C16.3754 9.37221 16.3732 9.37353 16.3732 9.37353C16.3732 9.37353 16.3732 9.37251 16.3731 9.37105C16.3675 9.36798 16.3368 9.36418 16.1921 9.37148C15.9857 9.38185 15.891 9.53259 15.891 9.53259C15.891 9.53259 16.0905 9.49213 16.2758 9.52646C16.4613 9.56078 16.4472 9.63119 16.6616 9.67019C16.8845 9.71065 17.0797 9.59584 17.1503 9.46497C17.2298 9.31788 17.2077 9.16086 17.2077 9.16086C17.2077 9.16086 17.2453 9.1499 17.2595 9.14552C17.2764 9.14026 17.3016 9.14026 17.3016 9.14026C17.3016 9.14026 17.309 9.15808 17.3081 9.18963C17.3074 9.22074 17.3028 9.24148 17.3028 9.24148L17.3841 9.20424C17.3841 9.20424 17.3888 9.17911 17.3809 9.1334C17.3754 9.10185 17.3566 9.05321 17.3566 9.05321C17.3566 9.05321 17.3162 9.04327 17.2763 9.05175C17.2362 9.06036 17.1805 9.08227 17.1805 9.08227C17.1805 9.08227 17.1023 8.84053 16.8072 8.80212C16.5121 8.76385 16.164 8.89005 16.0245 8.95563C15.8851 9.02136 15.6069 9.16013 15.4175 9.19664C15.2281 9.23316 15.1133 9.20292 15.1141 9.19577C15.1148 9.18832 15.143 9.17386 15.1586 9.1629C15.1743 9.15209 15.2193 9.12814 15.223 9.10258C15.2265 9.07701 15.2254 9.0218 15.2423 8.9178C15.2592 8.81366 15.3195 8.67811 15.4536 8.66964C15.5569 8.66306 15.6686 8.80738 15.6686 8.80738C15.6686 8.80738 15.7597 8.53336 15.3961 8.49728C15.1643 8.4742 15.0825 8.60566 15.0825 8.60566L14.9388 8.49173L14.9392 8.49188ZM14.9354 8.66584C14.9354 8.66584 15.0323 8.74486 15.0385 8.87676C15.0448 9.00866 14.921 9.11645 14.921 9.11645C14.921 9.11645 14.8097 9.00471 14.8191 8.89326C14.8318 8.74355 14.9354 8.66584 14.9354 8.66584Z" fill="white"/>
<path fill-rule="evenodd" clip-rule="evenodd" d="M15.0097 8.89375C15.0113 8.98226 14.919 9.05486 14.919 9.05486C14.919 9.05486 14.8448 8.97072 14.8462 8.88849C14.8477 8.8064 14.9349 8.72241 14.9349 8.72241C14.9349 8.72241 15.008 8.80523 15.0097 8.89375Z" fill="white"/>
<path fill-rule="evenodd" clip-rule="evenodd" d="M10.5788 10.5989C10.5788 10.5989 10.4272 10.5684 10.285 10.7533C10.0614 11.0436 10.3227 11.1651 10.3227 11.1651C10.3227 11.1651 10.2947 10.9846 10.3704 10.9137C10.4686 10.8217 10.6083 10.8708 10.6952 10.9298C10.7823 10.9889 10.8216 11.0276 10.8424 11.0425C10.8634 11.0574 10.9117 11.0411 10.9304 11.037C10.949 11.0331 10.979 11.0224 10.9847 11.0271C10.9905 11.0316 10.9337 11.136 10.7772 11.2492C10.6207 11.3623 10.3291 11.4701 10.1857 11.5268C10.0424 11.5836 9.71197 11.7508 9.53727 11.9926C9.36258 12.2341 9.48414 12.457 9.48414 12.457C9.48414 12.457 9.42983 12.4828 9.39635 12.506C9.36272 12.5292 9.35107 12.548 9.35107 12.548L9.45007 12.5917C9.45007 12.5917 9.46521 12.5724 9.47613 12.5624C9.48705 12.5524 9.52257 12.5307 9.52257 12.5307C9.52257 12.5307 9.62128 12.6547 9.78244 12.6976C9.92598 12.7359 10.143 12.6723 10.2668 12.4817C10.3859 12.2986 10.3252 12.2604 10.4274 12.1017C10.5297 11.943 10.696 11.825 10.696 11.825C10.696 11.825 10.5217 11.7905 10.3723 11.9341C10.268 12.0346 10.2496 12.0597 10.2479 12.0659C10.2489 12.0669 10.2496 12.0675 10.2496 12.0675C10.2496 12.0675 10.2473 12.0684 10.2479 12.0659C10.2343 12.0522 10.1329 11.9571 9.99047 12.0067C9.83718 12.0603 9.81767 12.2282 9.81767 12.2282C9.81767 12.2282 9.98509 12.0638 10.0719 12.2634C10.116 12.3646 9.9401 12.4518 9.9401 12.4518C9.9401 12.4518 9.74589 12.526 9.67048 12.2897C9.59507 12.0533 10.0593 11.7876 10.3387 11.6995C10.6179 11.6115 10.9777 11.4244 11.0743 11.2651C11.1934 11.0691 11.2144 10.9578 11.2064 10.9651C11.2064 10.9651 11.5612 10.8835 11.7002 10.5269C11.8394 10.1704 11.9282 9.74738 12.0611 9.57736C12.1784 9.42721 12.3057 9.30363 12.4836 9.42487C12.6983 9.57108 12.4885 9.79529 12.4026 9.7744C12.3167 9.75352 12.2672 9.7094 12.2736 9.62644C12.2777 9.57356 12.3268 9.53456 12.3268 9.53456C12.3268 9.53456 12.1744 9.55633 12.1244 9.6986C12.0637 9.87154 12.2017 9.96444 12.2017 9.96444C12.2017 9.96444 12.125 10.0281 12.0483 10.1451C11.9509 10.2937 11.9982 10.4194 11.9982 10.4194C11.9982 10.4194 12.148 10.2053 12.255 10.1304C12.3814 10.0418 12.554 10.027 12.6525 9.91477C12.7509 9.80259 12.9065 9.639 12.7762 9.38748C12.6459 9.1361 12.3416 9.1174 12.1601 9.21702C11.9786 9.31678 11.8078 9.54128 11.7185 9.78638C11.6293 10.0315 11.5425 10.3983 11.4389 10.545C11.3351 10.6918 11.2559 10.7398 11.2559 10.7398C11.2559 10.7398 11.239 10.7218 11.2557 10.6806C11.2725 10.6394 11.2573 10.5932 11.2422 10.5829C11.2271 10.5725 11.0589 10.4232 11.0461 10.3106C11.0334 10.1981 11.0695 10.1241 11.1745 10.0947C11.2795 10.0654 11.3274 10.0813 11.3274 10.0813C11.3274 10.0813 11.2335 9.94384 11.0842 9.98036C10.935 10.0167 10.8086 10.1786 10.7897 10.2583C10.7708 10.3382 10.7804 10.3815 10.7804 10.3815L10.5954 10.4162L10.5794 10.5994L10.5788 10.5989ZM10.9682 10.6038C11.0554 10.6733 11.0599 10.8312 11.0599 10.8312C11.0599 10.8312 10.897 10.8474 10.8057 10.7525C10.7143 10.6574 10.7236 10.5326 10.7236 10.5326C10.7236 10.5326 10.851 10.5103 10.9684 10.6038H10.9682Z" fill="white"/>
<path fill-rule="evenodd" clip-rule="evenodd" d="M10.8381 10.7433C10.9011 10.8054 11.017 10.7878 11.017 10.7878C11.017 10.7878 11.007 10.6759 10.9464 10.6204C10.8858 10.565 10.7651 10.571 10.7651 10.571C10.7651 10.571 10.775 10.6813 10.8381 10.7433Z" fill="white"/>
<path fill-rule="evenodd" clip-rule="evenodd" d="M19.1825 18.8729C19.1614 18.8431 19.1288 18.8295 19.0997 18.8264C19.0378 18.8197 18.9778 18.8508 18.9778 18.8508C18.9778 18.8508 19.0144 18.8656 19.0412 18.885C19.068 18.9046 19.0924 18.9437 19.0752 18.9779C19.0582 19.0121 18.9997 19.0169 18.9729 18.9925C18.9527 18.9741 18.9288 18.91 18.9241 18.8263C18.9225 18.7984 18.9193 18.7553 18.9241 18.7284C18.9436 18.6209 18.9559 18.5231 18.9168 18.3787C18.8778 18.2344 18.6926 18.1563 18.6926 18.1563C18.6926 18.1563 18.7122 18.149 18.6926 18.0072C18.673 17.8653 18.5366 17.7577 18.4805 17.7333C18.4245 17.7089 18.2805 17.6404 18.2124 17.589C18.1441 17.5376 18.1125 17.4642 18.1563 17.4301C18.2001 17.3959 18.2295 17.413 18.2514 17.4471C18.2734 17.4815 18.2563 17.5596 18.2563 17.5596C18.2563 17.5596 18.3961 17.4838 18.344 17.3591C18.2971 17.2466 18.1246 17.2204 18.0369 17.3372C17.9493 17.4537 18.0125 17.5694 18.0125 17.5694C18.0125 17.5694 17.9857 17.5947 17.9807 17.6183C17.9759 17.642 17.9905 17.677 17.9905 17.677C17.9905 17.677 17.9149 17.7064 17.9247 17.7749C17.9366 17.858 18.0198 17.8434 18.0198 17.8434C18.0198 17.8434 18.0125 17.876 18.0393 17.9094C18.0662 17.9429 18.1173 17.9338 18.1173 17.9338C18.1173 17.9338 18.1531 18.0333 18.2172 18.0561C18.3022 18.0863 18.3633 18.0244 18.3633 18.0244C18.3633 18.0244 18.2975 18.0098 18.2804 17.9902C18.2295 17.9318 18.2504 17.894 18.2975 17.8607C18.3446 17.8272 18.4259 17.8363 18.4974 17.9144C18.529 17.949 18.5439 17.9915 18.5462 18.0221C18.549 18.0605 18.534 18.0831 18.534 18.0831C18.534 18.0831 18.52 18.0819 18.4999 18.0783C18.4837 18.0754 18.4638 18.0695 18.4414 18.071C18.391 18.0742 18.3446 18.1395 18.2317 18.1541C18.1188 18.1689 18.0538 18.0954 18.0538 18.0954C18.0538 18.0954 18.0221 18.1906 18.0758 18.2495C18.1431 18.323 18.2196 18.3376 18.2196 18.3376L18.1391 18.4819L18.3 18.4844C18.3 18.4844 18.2716 18.5886 18.3048 18.6628C18.3457 18.754 18.4194 18.7533 18.4194 18.7533C18.4194 18.7533 18.421 18.7597 18.4169 18.7239C18.4127 18.6881 18.4152 18.6392 18.4559 18.5748C18.4915 18.5185 18.5746 18.4737 18.6022 18.4598C18.6298 18.4459 18.651 18.4134 18.6583 18.3888C18.6656 18.3644 18.6778 18.3376 18.6778 18.3376C18.6778 18.3376 18.7729 18.3555 18.7997 18.4573C18.8264 18.5593 18.8021 18.6081 18.7679 18.6431C18.7337 18.6782 18.6761 18.6905 18.6388 18.6431C18.6014 18.5958 18.6413 18.5184 18.6413 18.5184C18.6413 18.5184 18.6241 18.5225 18.6095 18.5307C18.5948 18.5388 18.5324 18.5878 18.5363 18.6579C18.5404 18.728 18.5875 18.7803 18.5875 18.7803C18.5875 18.7803 18.5583 18.8095 18.5656 18.8536C18.5737 18.903 18.6143 18.9123 18.6143 18.9123C18.6143 18.9123 18.5677 18.9781 18.6143 19.0248C18.6695 19.0803 18.741 19.0223 18.741 19.0223C18.741 19.0223 18.7548 19.0581 18.7848 19.0639C18.8045 19.0677 18.841 19.0615 18.841 19.0615C18.841 19.0615 18.8604 19.0956 18.9141 19.13C18.9678 19.1641 19.0531 19.1618 19.1042 19.1447C19.1317 19.1355 19.1777 19.1002 19.2018 19.0445C19.2224 18.9966 19.2275 18.9373 19.1822 18.8733L19.1825 18.8729ZM18.4878 18.3749C18.4002 18.4337 18.3002 18.3995 18.3002 18.3995C18.3002 18.3995 18.3347 18.2929 18.3927 18.2625C18.4773 18.2185 18.5708 18.2454 18.5708 18.2454C18.5708 18.2454 18.5391 18.3408 18.4878 18.3749Z" fill="white"/>
<path fill-rule="evenodd" clip-rule="evenodd" d="M18.4003 18.2795C18.3628 18.3023 18.3296 18.3822 18.3296 18.3822C18.3296 18.3822 18.4133 18.3999 18.4612 18.3699C18.5149 18.3363 18.5368 18.2623 18.5368 18.2623C18.5368 18.2623 18.4578 18.2443 18.4003 18.2794V18.2795Z" fill="white"/>
<path fill-rule="evenodd" clip-rule="evenodd" d="M10.8701 17.162C10.9396 17.1911 11.0689 17.2819 11.0335 17.414C10.9981 17.546 10.8604 17.6023 10.7265 17.5973C10.5924 17.5925 10.4851 17.4823 10.4851 17.4823L10.4656 17.5044C10.4656 17.5044 10.5448 17.5704 10.6069 17.5948C10.6588 17.6151 10.7885 17.6474 10.8457 17.6804C10.9029 17.7134 10.9371 17.8003 10.948 17.8393C10.959 17.8785 11.0479 18.118 11.0479 18.118C11.0479 18.118 10.7432 18.0203 10.6653 17.986C10.5883 17.9522 10.58 17.8747 10.5288 17.739C10.4775 17.6033 10.4142 17.558 10.4142 17.558L10.3971 17.5776C10.3971 17.5776 10.4911 17.6668 10.5142 17.7904C10.5405 17.9306 10.4911 18.0326 10.4119 18.0961C10.3327 18.1597 10.1938 18.1439 10.1194 18.0326C10.045 17.9213 10.0756 17.8076 10.0756 17.8076C10.0756 17.8076 10.1852 17.9262 10.2877 17.8516C10.4544 17.7302 10.3487 17.6242 10.3487 17.6242C10.3487 17.6242 10.3267 17.6449 10.3024 17.6511C10.2781 17.6572 10.2463 17.6315 10.2463 17.6315C10.2463 17.6315 10.2622 17.6277 10.2804 17.6192C10.2987 17.6106 10.3169 17.5923 10.3169 17.5923C10.3169 17.5923 10.3145 17.5801 10.2682 17.5582C10.2219 17.5361 10.1926 17.5386 10.1926 17.5386C10.1926 17.5386 10.2425 17.5973 10.1877 17.6315C10.1647 17.6458 10.078 17.6326 10.0731 17.563C10.0681 17.4933 10.1352 17.4799 10.1974 17.4774C10.2596 17.4749 10.3608 17.5484 10.3608 17.5484L10.3827 17.5263C10.3827 17.5263 10.3242 17.4737 10.3024 17.4653C10.2804 17.4566 10.2475 17.4372 10.239 17.4236C10.2305 17.4102 10.161 17.2597 10.161 17.2597C10.161 17.2597 10.3206 17.3269 10.3341 17.3356C10.3475 17.344 10.3561 17.3624 10.3707 17.3966C10.3852 17.4308 10.434 17.4699 10.434 17.4699L10.456 17.4479C10.456 17.4479 10.3817 17.3586 10.3781 17.2694C10.3739 17.1644 10.4427 17.1594 10.4659 17.1594C10.489 17.1594 10.5525 17.2095 10.5317 17.2719C10.511 17.3342 10.4416 17.2792 10.4416 17.2792C10.4416 17.2792 10.444 17.311 10.4561 17.3427C10.4683 17.3744 10.5001 17.4039 10.5001 17.4039C10.5001 17.4039 10.5132 17.3919 10.5196 17.377C10.5285 17.3561 10.5318 17.3306 10.5318 17.3306C10.5318 17.3306 10.5513 17.3342 10.5538 17.377C10.5563 17.4198 10.5318 17.4358 10.5318 17.4358C10.5318 17.4358 10.6171 17.5139 10.7244 17.4064C10.8524 17.278 10.7024 17.1546 10.7024 17.1546C10.7024 17.1546 10.7889 17.1277 10.8706 17.1619L10.8701 17.162Z" fill="white"/>
<path fill-rule="evenodd" clip-rule="evenodd" d="M10.6701 19.0441C10.6941 19.0997 10.7401 19.1351 10.7676 19.1443C10.8188 19.1614 10.904 19.1639 10.9577 19.1295C11.0115 19.0954 11.0308 19.061 11.0308 19.061C11.0308 19.061 11.0672 19.0673 11.0869 19.0635C11.117 19.0578 11.1308 19.0219 11.1308 19.0219C11.1308 19.0219 11.2022 19.0799 11.2575 19.0244C11.3041 18.9776 11.2575 18.9119 11.2575 18.9119C11.2575 18.9119 11.2981 18.9026 11.3063 18.8532C11.3135 18.8092 11.2843 18.7799 11.2843 18.7799C11.2843 18.7799 11.3314 18.7276 11.3355 18.6575C11.3396 18.5873 11.277 18.5384 11.2624 18.5302C11.2479 18.5222 11.2308 18.518 11.2308 18.518C11.2308 18.518 11.2706 18.5954 11.2332 18.6427C11.1958 18.69 11.1383 18.6778 11.104 18.6427C11.07 18.6076 11.0455 18.5587 11.0723 18.4569C11.0991 18.355 11.1942 18.3371 11.1942 18.3371C11.1942 18.3371 11.2064 18.364 11.2137 18.3884C11.2209 18.4129 11.2421 18.4455 11.2697 18.4594C11.2972 18.4733 11.3805 18.5181 11.4159 18.5743C11.4565 18.6388 11.459 18.6877 11.4549 18.7235C11.4508 18.7593 11.4524 18.7528 11.4524 18.7528C11.4524 18.7528 11.5261 18.7534 11.567 18.6624C11.6003 18.5882 11.5719 18.4839 11.5719 18.4839L11.7328 18.4814L11.6523 18.3371C11.6523 18.3371 11.7289 18.3227 11.7961 18.2491C11.8497 18.1903 11.8181 18.095 11.8181 18.095C11.8181 18.095 11.7532 18.1683 11.6402 18.1537C11.5273 18.1389 11.481 18.0738 11.4306 18.0706C11.4082 18.0691 11.3882 18.0749 11.3721 18.0779C11.3518 18.0815 11.338 18.0827 11.338 18.0827C11.338 18.0827 11.323 18.06 11.3258 18.0216C11.328 17.9911 11.3429 17.9486 11.3745 17.914C11.446 17.8358 11.5273 17.8268 11.5744 17.8602C11.6214 17.8937 11.6424 17.9315 11.5915 17.9898C11.5744 18.0094 11.5085 18.024 11.5085 18.024C11.5085 18.024 11.5698 18.086 11.6548 18.0557C11.719 18.0329 11.7547 17.9334 11.7547 17.9334C11.7547 17.9334 11.8058 17.9423 11.8327 17.909C11.8595 17.8756 11.8522 17.843 11.8522 17.843C11.8522 17.843 11.9355 17.8576 11.9473 17.7745C11.957 17.706 11.8815 17.6766 11.8815 17.6766C11.8815 17.6766 11.896 17.6416 11.8912 17.6179C11.8864 17.5942 11.8595 17.569 11.8595 17.569C11.8595 17.569 11.9229 17.4533 11.835 17.3367C11.7472 17.2202 11.5749 17.2462 11.528 17.3586C11.476 17.4834 11.6158 17.5592 11.6158 17.5592C11.6158 17.5592 11.5986 17.481 11.6206 17.4467C11.6426 17.4125 11.6718 17.3953 11.7156 17.4296C11.7595 17.4638 11.7279 17.5371 11.6596 17.5885C11.5913 17.64 11.4476 17.7083 11.3914 17.7329C11.3354 17.7574 11.199 17.8649 11.1795 18.0067C11.1599 18.1486 11.1795 18.1559 11.1795 18.1559C11.1795 18.1559 10.9941 18.234 10.9553 18.3783C10.9162 18.5226 10.9285 18.6205 10.948 18.728C10.9528 18.7549 10.9496 18.798 10.948 18.8259C10.9433 18.9096 10.9193 18.9738 10.8992 18.9921C10.8724 19.0165 10.8139 19.0117 10.7969 18.9775C10.7798 18.9433 10.8041 18.9042 10.8309 18.8846C10.8577 18.865 10.8943 18.8504 10.8943 18.8504C10.8943 18.8504 10.8341 18.8192 10.7724 18.826C10.7433 18.8291 10.7107 18.8425 10.6896 18.8725C10.6443 18.9364 10.6494 18.9957 10.6701 19.0437V19.0441ZM11.3015 18.2454C11.3015 18.2454 11.3948 18.2185 11.4794 18.2625C11.5374 18.2927 11.5719 18.3995 11.5719 18.3995C11.5719 18.3995 11.4721 18.4337 11.3843 18.375C11.333 18.3408 11.3015 18.2454 11.3015 18.2454Z" fill="white"/>
<path fill-rule="evenodd" clip-rule="evenodd" d="M11.4723 18.2795C11.5099 18.3023 11.5431 18.3822 11.5431 18.3822C11.5431 18.3822 11.4594 18.3999 11.4115 18.3699C11.3578 18.3363 11.3359 18.2623 11.3359 18.2623C11.3359 18.2623 11.4147 18.2443 11.4725 18.2794L11.4723 18.2795Z" fill="white"/>
<path fill-rule="evenodd" clip-rule="evenodd" d="M11.7622 17.427C11.7622 17.427 11.36 17.087 10.897 16.241C10.6373 15.7663 10.4524 14.9755 10.4705 14.2162C10.4923 13.3026 10.798 12.6054 11.1382 12.079C11.6926 11.2213 12.3788 10.8342 12.3788 10.8342C12.3788 10.8342 10.7693 11.8614 10.5874 14.0036C10.4012 16.1966 11.8011 17.4002 11.8011 17.4002L11.7621 17.427H11.7622Z" fill="white"/>
<path fill-rule="evenodd" clip-rule="evenodd" d="M18.0694 17.4002C18.0694 17.4002 19.4694 16.1966 19.2832 14.0036C19.1013 11.8614 17.4917 10.8342 17.4917 10.8342C17.4917 10.8342 18.178 11.2213 18.7322 12.079C19.0726 12.6054 19.3785 13.3026 19.4001 14.2162C19.4182 14.9755 19.2335 15.7664 18.9736 16.241C18.5105 17.087 18.1084 17.427 18.1084 17.427L18.0692 17.4002H18.0694Z" fill="white"/>
<path fill-rule="evenodd" clip-rule="evenodd" d="M10.7681 18.8891C9.60995 17.7776 8.88858 16.2116 8.88858 14.4765C8.88858 11.1043 11.6135 8.37036 14.9745 8.37036C18.3357 8.37036 21.0605 11.1041 21.0605 14.4765C21.0605 16.2375 20.3176 17.8242 19.129 18.9386C19.1423 18.9543 19.1555 18.9701 19.1686 18.986C20.3704 17.8602 21.1219 16.2566 21.1219 14.4765C21.1219 11.0701 18.3697 8.30872 14.9745 8.30872C11.5794 8.30872 8.82715 11.0701 8.82715 14.4765C8.82715 16.2373 9.56249 17.8256 10.7419 18.9495C10.7513 18.9585 10.7819 18.9026 10.7679 18.8891H10.7681Z" fill="white"/>
<path fill-rule="evenodd" clip-rule="evenodd" d="M10.7123 19.0486C10.7251 19.0321 10.7381 19.0157 10.7513 18.9994C9.54867 17.8685 8.79717 16.2606 8.79717 14.4763C8.79717 11.0534 11.5628 8.27858 14.9744 8.27858C18.386 8.27858 21.1516 11.0534 21.1516 14.4763C21.1516 16.2656 20.3959 17.8777 19.1873 19.009C19.196 19.02 19.1616 19.0841 19.1702 19.095C19.1745 19.1006 19.2221 19.0528 19.2261 19.0582C20.449 17.9153 21.2141 16.2853 21.2141 14.4763C21.2141 11.0189 18.4205 8.21606 14.9744 8.21606C11.5283 8.21606 8.73486 11.0189 8.73486 14.4763C8.73486 16.2803 9.49539 17.9061 10.7123 19.0486Z" fill="white"/>
<path d="M14.1179 17.239H14.0769H14.1179C14.2304 17.2392 14.3166 17.2621 14.3762 17.3091C14.4421 17.3608 14.4848 17.4289 14.5034 17.513C14.5092 17.5401 14.5123 17.5685 14.5123 17.5983C14.5123 17.6392 14.5065 17.6776 14.4942 17.7134C14.4778 17.7621 14.4498 17.805 14.4107 17.8424C14.3712 17.8798 14.3258 17.9059 14.2747 17.921C14.2367 17.9319 14.1836 17.9376 14.1144 17.9376H14.0805H14.1144H14.0805C14.0113 17.9376 13.9581 17.9321 13.9202 17.921C13.869 17.9059 13.8235 17.8799 13.7842 17.8424C13.7451 17.8052 13.717 17.7621 13.7007 17.7134C13.6884 17.6776 13.6826 17.6394 13.6826 17.5983C13.6826 17.5685 13.6855 17.5399 13.6915 17.513C13.7101 17.429 13.7528 17.361 13.8187 17.3091C13.8783 17.2621 13.9645 17.2392 14.077 17.239H14.1181H14.1179Z" fill="white"/>
<path d="M14.0972 17.3413H14.1172C14.2028 17.3413 14.2648 17.3574 14.3029 17.3888C14.3635 17.439 14.3934 17.505 14.3934 17.5886C14.3934 17.632 14.3855 17.6701 14.3698 17.704C14.3542 17.7377 14.3305 17.7664 14.2989 17.7897C14.2583 17.8195 14.1965 17.8349 14.1137 17.8349H14.0809H14.1137H14.0809C13.9981 17.8349 13.9364 17.8195 13.8958 17.7897C13.8642 17.7665 13.8404 17.7377 13.8249 17.704C13.8091 17.67 13.8013 17.6318 13.8013 17.5886C13.8014 17.5049 13.8313 17.4389 13.8917 17.3888C13.9298 17.3572 13.9918 17.3413 14.0774 17.3413H14.0972Z" fill="#00755B"/>
<path d="M17.4558 17.9103L17.4574 17.281L17.4552 17.2732C17.4545 17.2721 17.452 17.2698 17.4487 17.268L17.4298 17.2558L17.4277 17.2545V17.2407H17.6384V17.2545L17.6184 17.2679C17.6151 17.2702 17.6129 17.2726 17.6122 17.2742L17.6109 17.9012L17.6136 17.9112C17.615 17.9129 17.6168 17.9151 17.6189 17.9166L17.6369 17.929L17.6388 17.9303V17.9439H17.4282V17.9303L17.4488 17.9167C17.4531 17.9142 17.4554 17.9119 17.4558 17.9106V17.9103Z" fill="white"/>
<path d="M17.0923 17.6515L17.0933 17.2741C17.094 17.2726 17.0962 17.2701 17.0994 17.2678L17.1195 17.2544V17.2405H16.9088V17.2544L16.9109 17.2557L16.9297 17.2681C16.933 17.2698 16.9353 17.272 16.9361 17.2732L16.9382 17.2811L16.9364 17.9077C16.9358 17.909 16.9334 17.9114 16.9294 17.9138L16.9087 17.9274V17.941H17.1194V17.9274L17.1175 17.9261L17.0994 17.9137C17.0974 17.9122 17.0953 17.91 17.0942 17.9083L17.0914 17.8984L17.0917 17.8231C17.1779 17.7336 17.297 17.6132 17.3823 17.5196V17.5335H17.4146V17.3011L17.0921 17.6514L17.0923 17.6515Z" fill="white"/>
<path d="M12.5727 17.9217V17.9373H12.3735V17.9217L12.3975 17.8988L12.3971 17.2836L12.3959 17.2745L12.3903 17.2678L12.3725 17.2543L12.3706 17.2529V17.237L12.5446 17.238L12.8668 17.2368L12.9557 17.3808L12.9422 17.3864L12.9404 17.3871L12.913 17.3664C12.9071 17.3621 12.9026 17.3594 12.8994 17.3582C12.8965 17.357 12.8921 17.3563 12.8866 17.3563L12.5427 17.3544L12.5463 17.8986L12.5725 17.9216L12.5727 17.9217Z" fill="white"/>
<path d="M15.2491 17.9066L15.2475 17.2797L15.2493 17.2718C15.2498 17.2707 15.2519 17.2685 15.2546 17.2667L15.2704 17.2544L15.2721 17.253V17.2393H15.0967V17.253L15.1133 17.2664C15.116 17.2689 15.1179 17.2712 15.1185 17.2727L15.1198 17.8973L15.1176 17.9072C15.1166 17.909 15.115 17.9112 15.1133 17.9126L15.0983 17.925L15.0967 17.9264V17.9399H15.2721V17.9262L15.2549 17.9126C15.2514 17.9101 15.2495 17.9078 15.2491 17.9065V17.9066Z" fill="white"/>
<path d="M15.6789 17.9264V17.9399H15.8547V17.9264L15.8335 17.9065L15.8313 17.2797L15.8323 17.272L15.8374 17.2661L15.853 17.2544L15.8547 17.2531V17.2393H15.6789V17.253L15.696 17.2666C15.7017 17.2711 15.7036 17.2749 15.7036 17.2796V17.4924H15.3311L15.2524 17.6176L15.2644 17.6224L15.2658 17.623L15.29 17.605C15.2952 17.6014 15.2993 17.5989 15.3021 17.598C15.3047 17.597 15.3085 17.5962 15.3134 17.5962H15.7036L15.7019 17.9062L15.6789 17.9262V17.9264Z" fill="white"/>
<path d="M16.8328 17.9073L16.8312 17.2806L16.8331 17.2727C16.8337 17.2717 16.8357 17.2693 16.8383 17.2676L16.8542 17.2552L16.8559 17.2538V17.2401H16.6807V17.2538L16.6973 17.2673C16.7 17.2696 16.7018 17.2721 16.7024 17.2736L16.7038 17.8981L16.7016 17.9081C16.7006 17.9098 16.699 17.912 16.6971 17.9135L16.6821 17.9259L16.6807 17.9272V17.9408H16.8559V17.9272L16.8388 17.9136C16.8353 17.911 16.8334 17.9087 16.8328 17.9075V17.9073Z" fill="white"/>
<path fill-rule="evenodd" clip-rule="evenodd" d="M15.9683 17.9175L15.9453 17.9289V17.9403L16.0385 17.9402L16.3184 17.9399C16.3867 17.9399 16.4661 17.9326 16.5252 17.9004C16.5703 17.8759 16.6052 17.843 16.624 17.7999L16.6249 17.8002L16.6298 17.7843C16.63 17.784 16.63 17.7839 16.6301 17.7836L16.6349 17.7687L16.6341 17.7684C16.6364 17.7571 16.6377 17.7456 16.6377 17.7341C16.6377 17.711 16.6328 17.6883 16.6224 17.667C16.6076 17.6366 16.5828 17.6121 16.5528 17.5924C16.5198 17.5706 16.4822 17.5562 16.4422 17.5481C16.4167 17.543 16.3896 17.5407 16.3631 17.5398L16.1681 17.5415C16.1659 17.5436 16.1638 17.5456 16.1622 17.5478C16.1608 17.55 16.1599 17.5524 16.1598 17.5553C16.1599 17.5775 16.1599 17.603 16.16 17.6257C16.2119 17.6257 16.2637 17.6258 16.3154 17.6258C16.3563 17.6258 16.411 17.6292 16.4468 17.6473C16.4659 17.6571 16.4828 17.6698 16.494 17.6866C16.5049 17.7028 16.5094 17.7205 16.5094 17.7392C16.5094 17.7799 16.4873 17.8088 16.449 17.8308C16.4154 17.85 16.3575 17.8531 16.318 17.8531H16.1643L16.0398 17.8534L16.0046 17.8535L15.968 17.8537L15.9683 17.9174V17.9175Z" fill="white"/>
<path d="M16.1234 17.2677L16.1221 17.783L16.1238 17.7895C16.1244 17.7903 16.1265 17.7922 16.1294 17.7937L16.1455 17.8038L16.1473 17.8048V17.8162H15.9681V17.8048L15.985 17.7937C15.9879 17.7918 15.9896 17.7899 15.9903 17.7886L15.9915 17.275L15.9893 17.2668C15.9883 17.2654 15.9866 17.2636 15.9848 17.2623L15.9694 17.2522L15.9678 17.2512V17.2401H16.1468V17.2512L16.1294 17.2623C16.1259 17.2644 16.1238 17.2663 16.1234 17.2674V17.2677Z" fill="white"/>
<path fill-rule="evenodd" clip-rule="evenodd" d="M12.9982 17.2605L12.9751 17.2491V17.2375L13.0683 17.2377L13.3479 17.238C13.4161 17.238 13.4956 17.2453 13.5545 17.2774C13.5996 17.302 13.6346 17.3348 13.6534 17.3779L13.6544 17.3776L13.6593 17.3935C13.6595 17.3938 13.6595 17.394 13.6596 17.3943L13.6644 17.4092L13.6636 17.4095C13.6659 17.4207 13.6671 17.4323 13.6671 17.4438C13.6671 17.4669 13.6622 17.4895 13.6518 17.5108C13.6369 17.5411 13.612 17.5658 13.5822 17.5855C13.5491 17.6072 13.5116 17.6217 13.4714 17.6297C13.4459 17.635 13.4188 17.637 13.3923 17.6381L13.1973 17.6363C13.1951 17.6341 13.193 17.6322 13.1914 17.63C13.19 17.628 13.1891 17.6256 13.189 17.6227C13.1891 17.6005 13.1891 17.575 13.1891 17.5523C13.2409 17.5523 13.2928 17.5522 13.3446 17.5522C13.3853 17.5522 13.4402 17.5488 13.476 17.5306C13.4951 17.5208 13.512 17.5081 13.5232 17.4913C13.5341 17.4751 13.5386 17.4574 13.5386 17.4387C13.5386 17.3979 13.5167 17.369 13.4782 17.347C13.4446 17.3277 13.3867 17.3246 13.3472 17.3246H13.1935L13.0693 17.3243L13.0339 17.3242L12.9975 17.324L12.9978 17.2602L12.9982 17.2605Z" fill="white"/>
<path d="M13.1532 17.9104L13.1519 17.3951L13.1538 17.3886C13.1544 17.3878 13.1564 17.3859 13.1593 17.3844L13.1753 17.3743L13.1771 17.3733V17.3621H12.9978V17.3733L13.0147 17.3844C13.0175 17.3863 13.0194 17.3884 13.02 17.3895L13.0211 17.9031L13.019 17.9113C13.0179 17.9127 13.0162 17.9145 13.0144 17.9158L12.9992 17.9259L12.9976 17.9269V17.938H13.1768V17.9268L13.1593 17.9157C13.1558 17.9135 13.1538 17.9116 13.1533 17.9105L13.1532 17.9104Z" fill="white"/>
<path fill-rule="evenodd" clip-rule="evenodd" d="M14.5699 17.2366L14.5373 17.2367V17.358H14.5511L14.5647 17.3448C14.567 17.3426 14.5695 17.3413 14.5709 17.3409L14.6455 17.3384L14.6801 17.3386H14.7996C14.8285 17.3386 14.8721 17.3413 14.8963 17.3584C14.9247 17.3784 14.9394 17.4038 14.9394 17.439C14.9394 17.4553 14.9363 17.4709 14.9285 17.4852C14.9208 17.4997 14.9087 17.5109 14.895 17.5197C14.8774 17.5308 14.8528 17.5357 14.8293 17.5376L14.7078 17.539C14.6974 17.539 14.6871 17.539 14.6766 17.539H14.6676V17.548C14.6676 17.5517 14.6676 17.5552 14.6675 17.5598C14.6675 17.5758 14.6675 17.5902 14.6675 17.6047C14.6675 17.6083 14.6675 17.612 14.6675 17.6158C14.6675 17.6209 14.6675 17.625 14.6675 17.6291V17.6381H14.6766C14.687 17.6381 14.6973 17.6381 14.7076 17.6381L14.8293 17.6396C14.8528 17.6416 14.8774 17.6465 14.8949 17.6576C14.9087 17.6663 14.9206 17.6774 14.9285 17.6919C14.9362 17.7063 14.9394 17.7218 14.9394 17.738C14.9394 17.7732 14.9246 17.7987 14.8963 17.8188C14.8721 17.8359 14.8285 17.8387 14.7996 17.8387H14.6801L14.5746 17.839C14.5715 17.839 14.5869 17.839 14.5839 17.839L14.5465 17.8384L14.5385 17.8369C14.5375 17.8365 14.5353 17.8349 14.5334 17.8327L14.5203 17.8197L14.5059 17.8191V17.9408L14.5408 17.9409C14.5479 17.9409 14.5123 17.9409 14.5194 17.9409L14.6009 17.9408L14.7999 17.9406C14.8557 17.9405 14.9184 17.933 14.9658 17.9012C15.0273 17.8597 15.0572 17.8029 15.0572 17.7337C15.0572 17.7104 15.0533 17.6875 15.0448 17.6657C15.0329 17.6355 15.0129 17.6105 14.987 17.5895C15.0129 17.5669 15.033 17.5417 15.045 17.5116C15.0535 17.49 15.0575 17.4669 15.0575 17.4437C15.0575 17.372 15.0256 17.3163 14.966 17.2762C14.9187 17.2443 14.856 17.2369 14.8004 17.2367L14.6014 17.2365H14.5465C14.5386 17.2365 14.5781 17.2365 14.5702 17.2365L14.5699 17.2366Z" fill="white"/>
<path d="M17.2995 17.2845L17.3663 17.2171L17.4022 17.2042L17.4064 17.1895L17.1982 17.1912L17.1946 17.2042L17.219 17.2179L17.1592 17.2841L17.2995 17.2845Z" fill="white"/>
<path d="M14.5685 6.58567L14.928 6.22825L15.5298 6.82873L15.532 6.83472C15.5314 6.84114 15.5176 6.85195 15.4687 6.85224H15.4583V6.88569H16.0156L15.5334 6.40484C15.525 6.39637 15.5684 6.43815 15.5596 6.42968L15.28 6.16384L15.1369 6.01982L15.8061 5.35229H15.249V5.38574H15.2593C15.3082 5.38589 15.3221 5.39685 15.3226 5.40313L15.317 5.41934C15.3146 5.42504 15.313 5.42591 15.3088 5.42825L14.928 5.81006L14.5471 5.42825C14.5429 5.42591 14.5413 5.42504 14.539 5.41934L14.5333 5.40313C14.5339 5.39685 14.5477 5.38589 14.5966 5.38574H14.6069V5.35229H14.0498L14.719 6.01982L14.5759 6.16384L14.381 6.34525L14.5685 6.58567ZM14.5317 5.833L14.5058 5.80831L14.2592 5.56L14.5058 5.80831L14.5317 5.833ZM15.5596 6.42968L15.28 6.16384L15.1369 6.01982L15.8061 5.35229H15.249V5.38574H15.2593C15.3082 5.38589 15.3221 5.39685 15.3226 5.40313L15.317 5.41934C15.3146 5.42504 15.313 5.42591 15.3088 5.42825L14.928 5.81006L14.5471 5.42825C14.5429 5.42591 14.5413 5.42504 14.539 5.41934L14.5333 5.40313C14.5339 5.39685 14.5477 5.38589 14.5966 5.38574H14.6069V5.35229H14.0498L14.719 6.01982L14.5759 6.16384L14.3516 6.37271L14.5398 6.61416L14.928 6.22825L15.5298 6.82873L15.532 6.83472C15.5314 6.84114 15.5176 6.85195 15.4687 6.85224H15.4583V6.88569H16.0156L15.5334 6.40484C15.525 6.39637 15.5684 6.43815 15.5596 6.42968Z" fill="white"/>
<path d="M12.7521 6.85206C12.735 6.84812 12.7286 6.84242 12.727 6.83701L13.4743 5.85867L13.3148 5.64526L12.3696 6.8877H12.7813V6.85425H12.7738C12.7652 6.85425 12.7573 6.85337 12.7521 6.85206Z" fill="white"/>
<path d="M13.3705 5.57171L13.555 5.81812L13.7642 6.08206L13.4181 6.08236L13.2471 6.31811L13.2683 6.33198L13.2718 6.33446L13.3124 6.30759C13.3174 6.30438 13.3223 6.30248 13.3258 6.30189C13.3298 6.30087 13.3483 6.30072 13.3782 6.30087H13.9281L14.3126 6.8121C14.3158 6.81458 14.317 6.81546 14.3187 6.82101L14.3229 6.83708C14.3225 6.84336 14.3122 6.85431 14.2755 6.85431H14.2678V6.88776H14.6847L13.5311 5.36108L13.3705 5.57171Z" fill="white"/>
<path d="M19.2026 5.62301L19.2284 5.63396L19.2313 5.63528L19.284 5.60168C19.3018 5.58751 19.3184 5.58065 19.3354 5.58065H20.0566V6.7946L20.052 6.8149C20.0488 6.81972 20.0443 6.82454 20.0418 6.82615L20.008 6.85376L20.0045 6.85653V6.88618H20.3881V6.85624L20.349 6.82644L20.3366 6.81227C20.3373 6.81271 20.3363 6.80512 20.3363 6.7946V5.58065H20.9777C21.0048 5.58459 21.0128 5.59394 21.0121 5.60168V5.63455H21.0361L21.2201 5.35352H19.3738L19.2026 5.62301Z" fill="white"/>
<path fill-rule="evenodd" clip-rule="evenodd" d="M16.5126 5.94662V5.97715H16.4536V5.46869L17.0489 6.26709L17.6721 5.43115V5.92661H17.6146V5.89696L17.0457 6.64233C16.8918 6.44572 16.6995 6.19347 16.5126 5.94676V5.94662Z" fill="white"/>
<path d="M16.3855 6.81305L16.3821 5.44193L16.3861 5.4247C16.3874 5.42221 16.3917 5.41739 16.3979 5.41345L16.4324 5.38643L16.436 5.38351V5.35327H16.0522V5.38351L16.0886 5.41301C16.0946 5.41827 16.0985 5.42338 16.1 5.42674L16.1031 6.79289L16.0982 6.81466C16.0961 6.81846 16.0923 6.82328 16.0886 6.82649L16.0557 6.85351L16.0524 6.85629V6.88594H16.4361V6.85614L16.3986 6.82634C16.391 6.82079 16.3866 6.81568 16.3856 6.81291L16.3855 6.81305Z" fill="white"/>
<path d="M18.0106 6.8489C17.9935 6.84481 17.987 6.83911 17.9855 6.83371L18.7351 5.85244L18.5751 5.63831L17.627 6.88483H18.0398V6.85138H18.0324C18.0237 6.85138 18.0158 6.85036 18.0106 6.84919V6.8489Z" fill="white"/>
<path d="M18.6309 5.56438L18.816 5.81153L19.0257 6.07634L18.6787 6.07664L18.5073 6.31297L18.5284 6.32699L18.5321 6.32948L18.5727 6.30245C18.5778 6.29924 18.5826 6.2972 18.5861 6.29676C18.5902 6.29574 18.6086 6.29559 18.6386 6.29574H19.1903L19.5759 6.80857C19.5791 6.81091 19.5803 6.81193 19.582 6.81748L19.5862 6.83355C19.5859 6.83998 19.5755 6.85093 19.5386 6.85093H19.5309V6.88438H19.949L18.7918 5.35303L18.6308 5.56438H18.6309Z" fill="white"/>
<path d="M18.0137 6.3143L18.0134 5.4287L18.0155 5.41147L18.0266 5.39876L18.0608 5.37334L18.0645 5.37057V5.34033H17.6797V5.37028L17.7174 5.39993C17.7299 5.40971 17.734 5.41804 17.7341 5.42826C17.7341 5.6551 17.732 6.68531 17.7324 6.68487C18.0004 6.33139 17.9548 6.39595 18.0135 6.31415L18.0137 6.3143Z" fill="white"/>
<path d="M10.6035 5.92346L10.6023 5.42406C10.6009 5.4207 10.5971 5.41559 10.591 5.41033L10.5546 5.38082V5.35059H10.9385V5.38082L10.9348 5.38374L10.9003 5.41076C10.8944 5.41471 10.89 5.41967 10.8886 5.42201L10.8846 5.43925L10.8837 6.72696C10.8837 6.73003 10.8837 6.7144 10.8837 6.71747V6.79678L10.8877 6.81402C10.8891 6.81636 10.8935 6.82132 10.8995 6.82527L10.934 6.85229L10.9376 6.85536V6.88544H10.5537V6.85536L10.5901 6.82585C10.5962 6.82074 10.6002 6.81548 10.6015 6.81212L10.6035 5.87584C10.6035 5.85992 10.6035 5.93952 10.6035 5.9236V5.92346Z" fill="white"/>
<path fill-rule="evenodd" clip-rule="evenodd" d="M10.9285 6.01076L10.9287 5.92706L11.3558 5.42635H11.3316V5.35229H11.7366L11.1007 6.10074L11.7666 6.88438H11.372V6.81208H11.3957L10.9284 6.26462L10.9282 6.0112L10.9285 6.01076Z" fill="white"/>
<path d="M9.40345 6.32709L9.40243 6.80414C9.40097 6.80765 9.39704 6.8132 9.39107 6.8186L9.35467 6.84986V6.88185H9.73858V6.84986L9.73494 6.84665L9.70043 6.81802C9.69447 6.81378 9.6901 6.80867 9.68864 6.80619L9.68471 6.78793L9.68398 5.79293L9.68413 5.46545L9.68806 5.44369C9.68952 5.44062 9.69374 5.43448 9.69985 5.42952L9.73435 5.39519L9.73799 5.39154V5.35327H9.35409V5.39154L9.39049 5.42879C9.3966 5.43536 9.40053 5.44193 9.40184 5.44617L9.4033 6.38815L9.40315 6.18482C9.40315 6.1375 9.4033 6.27962 9.4033 6.32695L9.40345 6.32709ZM9.82869 5.50445H9.72795H9.82869ZM9.40214 5.50021L9.40228 5.6974L9.40214 5.50021ZM9.26121 5.5046L9.36559 5.50387V5.69507L9.16105 5.69521C9.09714 5.69521 9.00324 5.70193 8.94864 5.74429C8.88634 5.79264 8.85081 5.85618 8.85081 5.94557C8.85081 5.98676 8.85809 6.02532 8.87571 6.06096C8.89391 6.09777 8.92128 6.12581 8.95228 6.14714C9.01037 6.18716 9.09918 6.19461 9.16527 6.19461C9.24738 6.19446 9.2848 6.19592 9.36545 6.19607V6.37997C9.23209 6.3823 9.0868 6.39969 8.95985 6.36507C8.89478 6.34739 8.83393 6.31555 8.7805 6.26793C8.73187 6.22455 8.69169 6.17066 8.66767 6.1039C8.65078 6.05716 8.64307 6.00735 8.64307 5.95652C8.64307 5.93125 8.64481 5.90598 8.64802 5.88086L8.6553 5.84727L8.66447 5.81163C8.69562 5.71727 8.7524 5.64496 8.82548 5.59107C8.92113 5.52066 9.04982 5.5046 9.16047 5.5046L9.36588 5.50445L9.2615 5.5046H9.26121ZM9.72809 5.69521L9.929 5.69536C9.99291 5.69536 10.0868 5.70208 10.1414 5.74429C10.2036 5.79278 10.2392 5.85618 10.2392 5.94571C10.2392 5.9869 10.2318 6.02547 10.2143 6.06111C10.1961 6.09791 10.1688 6.12596 10.1378 6.14728C10.0797 6.18731 9.99087 6.19461 9.92478 6.19461C9.84078 6.19461 9.81195 6.19534 9.72809 6.19549C9.72795 6.24544 9.72795 6.30153 9.7278 6.35017L9.72809 6.37938C9.86276 6.38128 10.0018 6.40027 10.1302 6.36507C10.1953 6.34725 10.2561 6.31555 10.3096 6.26779C10.3582 6.22455 10.3984 6.17051 10.4224 6.1039C10.4393 6.05702 10.447 6.00735 10.447 5.95652C10.447 5.93125 10.4452 5.90598 10.442 5.88086L10.4348 5.84712L10.4256 5.81163C10.3944 5.71727 10.3376 5.64496 10.2646 5.59107C10.1689 5.52052 10.0402 5.5046 9.92958 5.50445L9.7278 5.50416V5.69507L9.72809 5.69521Z" fill="white"/>
<path d="M14.4489 18.1468V18.6165H14.5412V18.1099C14.5412 18.0999 14.5364 18.0908 14.5269 18.0826C14.5174 18.0744 14.5067 18.0704 14.495 18.0704H14.4489V18.1469V18.1468ZM14.4278 18.0702H14.4019V18.1399H14.4278V18.0702ZM14.8157 18.1399H14.9105V18.1098C14.9105 18.0997 14.9053 18.0907 14.8947 18.0825C14.884 18.0743 14.87 18.0702 14.8524 18.0702H14.6438C14.6269 18.0702 14.6148 18.0743 14.608 18.0825C14.601 18.0907 14.5977 18.0997 14.5977 18.1098V18.3283C14.5977 18.3434 14.6012 18.3537 14.608 18.3594C14.6148 18.3651 14.6269 18.3679 14.6438 18.3679H14.8173V18.5476H14.7111V18.6165H14.8524C14.87 18.6165 14.884 18.6137 14.8947 18.608C14.9053 18.6023 14.9105 18.592 14.9105 18.5769V18.1611H14.8173V18.3086H14.69V18.1399H14.8173C14.8178 18.1399 14.8152 18.1399 14.8156 18.1399H14.8157ZM14.69 18.5426V18.4478H14.5975V18.5768C14.5975 18.5918 14.6023 18.6022 14.6119 18.6079C14.6214 18.6136 14.6322 18.6164 14.6438 18.6164H14.6898L14.69 18.5426ZM15.1851 18.5474V18.3385H14.9653L14.9733 18.1609H15.0685L15.0586 18.2681H15.221C15.2379 18.2681 15.2518 18.2712 15.2624 18.2773C15.273 18.2835 15.2783 18.2938 15.2783 18.3084V18.5768C15.2783 18.5918 15.273 18.6022 15.2624 18.6079C15.2518 18.6136 15.2379 18.6164 15.221 18.6164H15.1852V18.5373C15.1852 18.534 15.1852 18.5508 15.1852 18.5474H15.1851ZM15.0704 18.1397H15.2439L15.2781 18.0701H14.9772L14.9741 18.1397H15.0782C15.0809 18.1397 15.0678 18.1397 15.0704 18.1397ZM15.1638 18.5474H15.0584V18.4382H14.9653V18.5768C14.9653 18.5918 14.9706 18.6022 14.9813 18.6079C14.9919 18.6136 15.006 18.6164 15.0235 18.6164H15.164V18.5474H15.1638ZM15.4214 18.5474V18.3583H15.5488V18.5474H15.4426V18.6164H15.5951C15.6121 18.6164 15.6239 18.6136 15.6309 18.6079C15.6379 18.6022 15.6413 18.5918 15.6413 18.5768V18.3282C15.6413 18.326 15.64 18.3231 15.6373 18.3197C15.6347 18.3163 15.6319 18.313 15.6293 18.3098C15.6261 18.3061 15.6223 18.3025 15.6181 18.2988C15.6223 18.2928 15.6261 18.2874 15.6293 18.2824C15.6319 18.2779 15.6345 18.2732 15.6373 18.2689C15.64 18.2643 15.6413 18.2608 15.6413 18.2586V18.1609H15.5489V18.2886H15.4327V18.1397H15.6413V18.1097C15.6413 18.0996 15.6365 18.0905 15.6271 18.0823C15.6175 18.0742 15.6068 18.0701 15.5952 18.0701H15.3875C15.3694 18.0701 15.357 18.0742 15.3505 18.0823C15.3438 18.0905 15.3406 18.0996 15.3406 18.1097V18.2585C15.3406 18.2607 15.3417 18.2642 15.3441 18.2687C15.3465 18.2732 15.349 18.2778 15.3516 18.2823C15.3548 18.2873 15.3588 18.2928 15.3636 18.2987C15.3572 18.3023 15.3513 18.306 15.3461 18.3096C15.3419 18.3128 15.338 18.316 15.3342 18.3195C15.3304 18.3231 15.3286 18.3258 15.3286 18.328V18.5766C15.3286 18.5917 15.3339 18.602 15.3445 18.6077C15.3551 18.6134 15.3694 18.6162 15.3875 18.6162H15.4217V18.5433C15.4217 18.5419 15.4217 18.5486 15.4217 18.5473L15.4214 18.5474Z" fill="white"/>
</svg>
