<svg width="30" height="30" viewBox="0 0 30 30" fill="none" xmlns="http://www.w3.org/2000/svg">
<path d="M12.203 27.389C10.1179 26.9514 8.32452 26.0333 6.89156 24.6947C5.47575 23.3733 4.4375 21.6572 3.87976 19.5979C3.38208 17.753 3.30486 15.7709 3.48505 13.7974C3.66525 11.841 4.10286 9.90176 4.64343 8.12557C4.69492 7.96254 4.73782 7.91964 4.72924 7.90248C4.72066 7.86815 4.69492 7.9368 4.56621 7.89389C4.14576 7.74802 3.88834 7.47344 3.73389 7.14738C3.57944 6.80416 3.57086 6.40087 3.66525 6.01474L4.18008 3.89533V3.86959L4.18866 3.84385C4.31737 3.4663 4.56621 3.17456 4.89227 2.99436C5.20117 2.83133 5.5873 2.77127 5.99059 2.86566L9.60303 3.62933L10.0921 3.7323L10.0406 4.22997L10.0149 4.59036L9.96341 5.28539L9.66309 5.21674L9.68884 7.42196H20.4575L20.4489 5.21674L20.08 5.31113L20.0542 4.59894L20.0456 4.23855L20.0371 3.75804L20.5004 3.66365L24.1815 2.87424C24.5848 2.77985 24.9537 2.83991 25.2798 3.00295C25.5973 3.18314 25.8547 3.4663 25.9834 3.85243L25.992 3.87817V3.90391L26.5068 6.02332C26.6012 6.40087 26.5926 6.81274 26.4382 7.15596C26.2837 7.49919 26.0177 7.76519 25.6059 7.90248C25.4772 7.95396 25.46 7.86815 25.4428 7.91106C25.4343 7.9368 25.4772 7.97112 25.5286 8.13415C26.0606 9.91034 26.4897 11.8496 26.687 13.8059C26.8758 15.7795 26.79 17.7702 26.2923 19.6064C25.7346 21.6572 24.6963 23.3819 23.2805 24.7033C21.8476 26.0419 20.0371 26.9686 17.9691 27.3976C17.4114 27.5178 16.9051 27.6036 16.4418 27.6636C15.9784 27.7237 15.5237 27.7494 15.0603 27.7494H15.0517C14.5884 27.7494 14.1422 27.7237 13.6702 27.6636C13.267 27.6036 12.7779 27.5092 12.203 27.389Z" fill="#231F20"/>
<path fill-rule="evenodd" clip-rule="evenodd" d="M23.3319 16.5002C23.5206 16.5002 23.6751 16.6547 23.6751 16.8435C23.6751 17.0322 23.5206 17.1867 23.3319 17.1867C23.1431 17.1867 22.9886 17.0322 22.9886 16.8435C22.98 16.6547 23.1345 16.5002 23.3319 16.5002ZM12.3229 26.8313C13.4041 27.0544 14.2536 27.1659 15.1116 27.1659H15.1202C15.9783 27.1659 16.8277 27.063 17.9089 26.8313C21.8388 26.0076 24.7219 23.3733 25.7945 19.4434C26.7555 15.891 26.0948 11.7723 25.0308 8.28001C24.8506 7.70511 24.8849 7.54208 25.4684 7.33614C25.9918 7.15595 26.112 6.64111 25.9918 6.13486L25.477 4.01545C25.314 3.53493 24.8849 3.28609 24.3529 3.42338L21.0494 4.12699V4.47022C22.1563 4.20422 23.2804 3.98112 24.3958 3.77519C24.8163 3.67222 25.0308 3.83525 25.1338 4.13557C25.314 4.87351 25.477 5.52563 25.6572 6.27215C25.7516 6.57247 25.6658 6.88137 25.3569 7.0015C24.5589 7.2675 24.4473 7.61072 24.6618 8.35724C25.6829 11.8152 26.3694 15.8653 25.4255 19.3576C24.4044 23.1502 21.5986 25.6815 17.8145 26.4795C16.7763 26.694 15.9439 26.797 15.0945 26.797H15.0859C14.2536 26.797 13.4041 26.694 12.3658 26.4795C8.56462 25.6815 5.77592 23.1416 4.75482 19.3576C3.81096 15.8653 4.48882 11.8152 5.5185 8.35724C5.74159 7.61072 5.62147 7.25892 4.82347 7.0015C4.51457 6.88137 4.42876 6.57247 4.52315 6.27215C4.70334 5.53421 4.86637 4.88209 5.04656 4.13557C5.14095 3.83525 5.36405 3.67222 5.7845 3.77519C6.8914 3.98112 7.9983 4.19564 9.09661 4.45306L9.08803 4.10983L5.83598 3.4148C5.31256 3.29467 4.88353 3.54351 4.71192 4.00686L4.19708 6.12628C4.07695 6.62395 4.19708 7.14737 4.7205 7.32756C5.31256 7.5335 5.3383 7.69653 5.15811 8.27143C4.11128 11.7723 3.43341 15.8824 4.39444 19.4348C5.50992 23.3647 8.393 26.0076 12.3229 26.8313ZM15.3862 26.5653C16.7934 26.5052 18.5696 26.1878 19.7709 25.6472C26.7984 22.5067 26.3866 14.4495 24.4559 8.4173C24.2157 7.47343 24.2157 7.15595 25.2882 6.7355C25.4427 6.67544 25.4942 6.52957 25.4169 6.35795L24.9193 4.27286C24.8506 4.05835 24.6962 3.99828 24.4902 4.05835C23.3319 4.24712 22.1906 4.4788 21.058 4.77054L21.0666 7.41337V17.9589C21.0666 22.5067 16.2614 20.9278 15.1888 23.2703C15.1545 23.3218 15.1288 23.3991 15.0945 23.4334C15.0687 23.3819 15.0344 23.3047 15.0087 23.2703C13.9361 20.9364 9.13094 22.5238 9.13094 17.9589V7.40479L9.10519 4.7448C7.98113 4.46164 6.85707 4.22996 5.70727 4.04119C5.50134 3.98112 5.34689 4.04119 5.27824 4.2557L4.78057 6.34079C4.7205 6.52098 4.77198 6.65827 4.90927 6.71834C5.98185 7.14737 5.98185 7.45627 5.74159 8.40014C3.81096 14.4323 3.39051 22.4723 10.4266 25.63C11.6279 26.162 13.4041 26.4881 14.8113 26.5481C14.9314 26.5653 15.2403 26.5653 15.3862 26.5653ZM23.3319 16.1141C22.9286 16.1141 22.6025 16.4316 22.6025 16.8435C22.6025 17.2468 22.92 17.5728 23.3319 17.5728C23.7351 17.5728 24.0612 17.2553 24.0612 16.8435C24.0612 16.4402 23.7266 16.1141 23.3319 16.1141ZM7.04585 5.21673C7.44914 5.21673 7.7752 5.53421 7.7752 5.94608C7.7752 6.35795 7.45772 6.67544 7.04585 6.67544C6.63398 6.67544 6.31649 6.35795 6.31649 5.94608C6.31649 5.53421 6.64256 5.21673 7.04585 5.21673ZM23.0573 5.24247C23.4606 5.24247 23.7866 5.55996 23.7866 5.97183C23.7866 6.38369 23.4691 6.70118 23.0573 6.70118C22.654 6.70118 22.3279 6.38369 22.3279 5.97183C22.3279 5.55996 22.6626 5.24247 23.0573 5.24247ZM6.86565 16.1141C7.26894 16.1141 7.59501 16.4316 7.59501 16.8435C7.59501 17.2468 7.27752 17.5728 6.86565 17.5728C6.45378 17.5728 6.1363 17.2553 6.1363 16.8435C6.14488 16.4402 6.46237 16.1141 6.86565 16.1141ZM8.90784 21.4427C9.31113 21.4427 9.63719 21.7602 9.63719 22.172C9.63719 22.5753 9.31971 22.9014 8.90784 22.9014C8.50455 22.9014 8.17849 22.5839 8.17849 22.172C8.17849 21.7687 8.49597 21.4427 8.90784 21.4427ZM21.2725 21.4427C21.6758 21.4427 22.0019 21.7602 22.0019 22.172C22.0019 22.5753 21.6844 22.9014 21.2725 22.9014C20.8692 22.9014 20.5432 22.5839 20.5432 22.172C20.5432 21.7687 20.8778 21.4427 21.2725 21.4427ZM7.04585 5.5857C7.23462 5.5857 7.38907 5.74015 7.38907 5.92892C7.38907 6.1177 7.23462 6.27215 7.04585 6.27215C6.85707 6.27215 6.70262 6.1177 6.70262 5.92892C6.68546 5.74015 6.85707 5.5857 7.04585 5.5857ZM23.0573 5.61144C23.246 5.61144 23.4005 5.76589 23.4005 5.95466C23.4005 6.14344 23.246 6.31505 23.0573 6.31505C22.8685 6.31505 22.714 6.1606 22.714 5.95466C22.714 5.76589 22.8685 5.61144 23.0573 5.61144ZM6.86565 16.5002C7.05443 16.5002 7.20888 16.6547 7.20888 16.8435C7.20888 17.0322 7.05443 17.1867 6.86565 17.1867C6.67688 17.1867 6.52243 17.0322 6.52243 16.8435C6.52243 16.6547 6.67688 16.5002 6.86565 16.5002ZM8.90784 21.8116C9.09661 21.8116 9.25107 21.9661 9.25107 22.1549C9.25107 22.3436 9.09661 22.4981 8.90784 22.4981C8.71907 22.4981 8.56462 22.3436 8.56462 22.1549C8.54745 21.9833 8.70191 21.8116 8.90784 21.8116ZM21.2725 21.8116C21.4613 21.8116 21.6157 21.9661 21.6157 22.1549C21.6157 22.3436 21.4613 22.4981 21.2725 22.4981C21.0837 22.4981 20.9293 22.3436 20.9293 22.1549C20.9293 21.9833 21.0837 21.8116 21.2725 21.8116Z" fill="#FFCA05"/>
<path d="M4.7807 12.0897L7.71527 7.40467H9.42281V3.66352H9.37133H8.92514V3.20875V2.60811V2.31636H9.36275C10.1693 2.31636 10.4439 2.50514 11.0274 3.20017C11.6109 2.50514 11.8597 2.31636 12.692 2.31636H12.958V2.59952V3.20875V3.61204H12.8122C12.7778 3.61204 12.7607 3.61204 12.7435 3.61204V5.41397H13.3785V3.61204H13.327H13.1811V3.20875V2.60811V2.31636H13.4471C14.3138 2.34211 14.5283 2.50514 15.1118 3.20017C15.6952 2.50514 15.9441 2.29062 16.7764 2.31636H17.0424V2.59952V3.20875V3.61204H16.8965C16.8622 3.61204 16.845 3.61204 16.8279 3.61204V5.41397H17.4199V3.61204H17.3685H17.2483V3.20875V2.60811V2.31636H17.4714C18.3037 2.29062 18.5526 2.50514 19.1361 3.20017C19.7195 2.50514 20.0027 2.29062 20.8007 2.31636H21.2383V2.59952V3.20875V3.66352H20.7835C20.7492 3.66352 20.7321 3.66352 20.7149 3.66352L20.7235 7.40467H22.4053L25.3742 12.0382L26.2322 11.7207C26.2837 11.4976 26.4124 11.3003 26.6012 11.2059C26.9959 11.0171 27.4936 11.2659 27.7338 11.755C27.9741 12.2441 27.854 12.8019 27.4593 12.9821C27.2533 13.0765 27.0216 13.0679 26.8071 12.9477L24.8164 14.1233L25.1597 15.316L25.0309 15.5906H24.4475L23.6237 14.7411L20.7321 15.8223L20.7406 17.873V17.8816C24.662 19.6063 26.2923 21.8458 20.5862 20.0868L20.2258 19.9581C19.0932 21.8716 16.3045 20.9449 15.086 22.9184C14.1593 21.1079 11.1046 21.7944 9.91191 19.9152L9.41423 20.104C3.62232 21.8887 5.38992 19.572 9.42281 17.8301V15.8995L6.37669 14.7583L5.55295 15.6077H4.96947L4.84076 15.3332L5.18399 14.1405L3.19328 12.9649C2.97877 13.085 2.73851 13.0936 2.54116 12.9992C2.14645 12.8105 2.02632 12.2613 2.26658 11.7722C2.50684 11.2831 3.01309 11.0343 3.39922 11.223C3.60515 11.3174 3.7167 11.5062 3.76819 11.7379L4.7807 12.0897Z" fill="#231F20"/>
<path fill-rule="evenodd" clip-rule="evenodd" d="M9.71453 7.40483V3.44059C9.70595 3.31188 9.62872 3.21749 9.37988 3.21749V2.83137C10.2122 2.82279 10.727 3.10595 11.0359 3.71517C11.3448 3.10595 11.8683 2.82279 12.692 2.83137V3.20891C12.4432 3.20891 12.3488 3.3033 12.3316 3.43201V5.85174H13.7817V3.44059C13.7732 3.31188 13.6959 3.21749 13.4471 3.21749V2.83137C14.2794 2.82279 14.7942 3.10595 15.1032 3.71517C15.4121 3.10595 15.9355 2.82279 16.7592 2.83137V3.20891C16.5104 3.20891 16.416 3.3033 16.3988 3.43201V5.85174H17.806V3.44059C17.7975 3.31188 17.7202 3.21749 17.4714 3.21749V2.83137C18.3037 2.82279 18.8186 3.10595 19.1275 3.71517C19.4364 3.10595 19.9598 2.82279 20.7835 2.83137V3.20891C20.5175 3.20891 20.4403 3.3033 20.4231 3.43201V7.39625H12.4432C12.1257 7.39625 11.8511 7.48206 11.6795 7.70515C11.4993 7.49922 11.3019 7.42199 11.0874 7.39625H9.71453V7.40483ZM9.78317 12.6647C10.5726 12.5789 11.3534 12.5103 12.1428 12.4588C11.3792 13.2053 10.9158 14.2607 10.9158 15.4105C10.9158 17.7187 12.7864 19.5893 15.0946 19.5893C17.4028 19.5893 19.2733 17.7187 19.2733 15.4105C19.2733 14.2522 18.81 13.2225 18.0463 12.4588C18.8357 12.5103 19.6166 12.5618 20.3974 12.6476V17.796C20.4489 19.4434 19.7796 20.516 18.2522 20.8678C15.3949 21.5628 15.6866 21.7602 15.0946 22.3694C14.5025 21.7602 14.7942 21.5628 11.9369 20.8678C10.4096 20.5074 9.74885 19.4349 9.79175 17.796V12.6647H9.78317Z" fill="#EF4E23"/>
<path fill-rule="evenodd" clip-rule="evenodd" d="M26.7212 11.3862C26.6182 11.4377 26.5324 11.5321 26.4809 11.6522C26.4809 11.6522 26.4895 11.6436 26.5067 11.6436C26.7727 11.5149 27.1159 11.678 27.2704 12.0126C27.3733 12.2357 27.3733 12.4931 27.2789 12.6647C27.2875 12.6647 27.3133 12.6562 27.3304 12.639C27.605 12.5103 27.6908 12.1156 27.5192 11.7724C27.3476 11.4377 26.9872 11.2575 26.7212 11.3862ZM3.31329 11.3862C3.41626 11.4377 3.50206 11.5321 3.55355 11.6522C3.55355 11.6522 3.54497 11.6436 3.52781 11.6436C3.26181 11.5149 2.91858 11.678 2.76413 12.0126C2.66116 12.2357 2.66116 12.4931 2.75555 12.6647C2.74697 12.6647 2.72123 12.6562 2.70407 12.639C2.42949 12.5103 2.34368 12.1156 2.51529 11.7724C2.6869 11.4377 3.04729 11.2575 3.31329 11.3862ZM7.93824 14.2951L9.41411 14.8528V13.8317L7.14882 12.9736C7.09734 13.5228 7.41482 14.1149 7.93824 14.2951ZM20.5689 19.0573L23.9325 20.3186C23.3833 19.5121 22.1906 18.8085 20.7405 18.1306C20.7234 18.4566 20.689 18.7226 20.5689 19.0573ZM7.22605 11.8153L7.01153 12.6733L6.82276 12.6133L5.89605 14.5439L6.20496 14.6469L5.45844 15.3934L5.17528 15.3848L5.48419 14.5267L6.93431 11.8667L7.22605 11.8153ZM5.24393 12.6991C4.99509 12.8621 4.9007 13.1538 5.00367 13.3683C5.02941 13.2053 5.14954 13.0337 5.36406 12.9307C5.57857 12.8278 5.81883 12.7849 6.01618 12.8363C6.0076 12.8106 5.99044 12.802 5.98186 12.7763C5.87889 12.6218 5.67296 12.5618 5.46702 12.5961C5.46702 12.5875 5.45844 12.5875 5.45844 12.5703C5.36406 12.4245 5.15812 12.3644 4.96935 12.4159C4.96935 12.4073 4.96077 12.3902 4.96077 12.3816C4.86638 12.2357 4.67761 12.1928 4.49741 12.2357C4.49741 12.2271 4.48883 12.21 4.48883 12.21C4.39445 12.0813 4.22283 12.0298 4.05122 12.0813C4.05122 12.0727 4.04264 12.0555 4.04264 12.0555C3.92251 11.8753 3.66509 11.8496 3.45058 11.9954C3.26181 12.1242 3.176 12.3558 3.26181 12.5274C3.27039 12.3987 3.38193 12.2614 3.54497 12.1671C3.69942 12.0813 3.86245 12.0641 4.02548 12.0813C3.974 12.0898 3.93967 12.1156 3.90535 12.1413C3.71658 12.27 3.63077 12.5017 3.71658 12.6733C3.72516 12.5446 3.83671 12.4073 3.99974 12.3129C4.15419 12.2271 4.33438 12.21 4.48883 12.2271C4.43735 12.2357 4.39445 12.2614 4.34296 12.2958C4.12845 12.4416 4.04264 12.6905 4.12845 12.8792C4.13703 12.7334 4.25716 12.5961 4.43735 12.5017C4.60038 12.4159 4.79774 12.3816 4.96077 12.4073C4.90928 12.4159 4.86638 12.4416 4.8149 12.476C4.5918 12.6304 4.506 12.8964 4.60038 13.0852C4.60896 12.9393 4.72909 12.7849 4.93503 12.6819C5.09806 12.5961 5.29541 12.5618 5.46702 12.5875C5.36406 12.6304 5.30399 12.6476 5.24393 12.6991ZM22.0963 14.2951L20.7577 14.7927V13.7716L22.8771 12.9736C22.9372 13.5228 22.6197 14.1149 22.0963 14.2951ZM9.61146 19.0144L6.11057 20.3358C6.66831 19.4863 7.94682 18.7741 9.47417 18.0705C9.43985 18.3451 9.49133 18.7141 9.61146 19.0144ZM22.8084 11.8153L23.023 12.6733L23.2117 12.6133L24.1384 14.5353L23.8295 14.6383L24.5761 15.3848L24.8592 15.3762L24.5503 14.5181L23.1002 11.8582L22.8084 11.8153ZM24.7906 12.6991C25.0308 12.8621 25.1338 13.1538 25.0308 13.3683C25.0051 13.2053 24.885 13.0337 24.6704 12.9307C24.4559 12.8278 24.2157 12.7849 24.0183 12.8363C24.0269 12.8106 24.0441 12.802 24.0526 12.7763C24.1556 12.6218 24.3615 12.5618 24.5675 12.5961C24.5675 12.5875 24.5761 12.5875 24.5761 12.5703C24.6704 12.4245 24.8764 12.3644 25.0651 12.4159C25.0651 12.4073 25.0737 12.3902 25.0737 12.3816C25.1681 12.2357 25.3569 12.1928 25.5371 12.2357C25.5371 12.2271 25.5457 12.21 25.5457 12.21C25.6315 12.0813 25.8117 12.0298 25.9833 12.0813C25.9833 12.0727 25.9919 12.0555 25.9919 12.0555C26.112 11.8753 26.3694 11.8496 26.5839 11.9954C26.7727 12.1242 26.8585 12.3558 26.7727 12.5274C26.7641 12.3987 26.6526 12.2614 26.4895 12.1671C26.3351 12.0813 26.1549 12.0641 26.009 12.0813C26.0605 12.0898 26.0948 12.1156 26.1291 12.1413C26.3179 12.27 26.4037 12.5017 26.3179 12.6733C26.3093 12.5446 26.1978 12.4073 26.0348 12.3129C25.8803 12.2271 25.7001 12.21 25.5457 12.2271C25.5971 12.2357 25.64 12.2614 25.6915 12.2958C25.906 12.4416 25.9919 12.6905 25.906 12.8792C25.8975 12.7334 25.7773 12.5961 25.5971 12.5017C25.4341 12.4159 25.2368 12.3816 25.0737 12.4073C25.1252 12.4159 25.1681 12.4416 25.2196 12.476C25.4427 12.6304 25.5285 12.8964 25.4341 13.0852C25.4255 12.9393 25.3054 12.7849 25.0995 12.6819C24.9364 12.5961 24.7391 12.5618 24.5675 12.5875C24.6704 12.6304 24.7305 12.6476 24.7906 12.6991Z" fill="#A6A8AB"/>
<path fill-rule="evenodd" clip-rule="evenodd" d="M9.40567 13.969L7.44929 13.231C7.50936 13.4198 7.66381 13.6687 7.98129 13.7802L9.41425 14.3122V13.969H9.40567ZM6.66846 19.9497C7.07175 19.4348 8.04136 18.8256 9.45716 18.1821C9.45716 18.3108 9.46574 18.4481 9.49148 18.5596C8.3331 19.0573 7.80968 19.3233 6.66846 19.9497ZM23.5036 20.0097C23.1003 19.4949 22.1307 18.8857 20.7235 18.2421C20.7149 18.3708 20.6978 18.5081 20.672 18.6197C21.8304 19.1088 22.371 19.3833 23.5036 20.0097ZM20.775 13.9175L22.74 13.1796C22.6799 13.3683 22.5254 13.6172 22.208 13.7287L20.775 14.2607V13.9175Z" fill="white"/>
<path d="M12.4176 7.63651H13.5931V9.08663H12.8809V8.62328H12.5977L12.4519 10.245C12.5806 10.245 12.7608 10.2364 12.8809 10.2364V9.64437L13.6103 9.63579C13.6103 10.1678 13.6103 10.7084 13.6103 11.2404L12.2974 11.2919C12.2459 11.2919 12.203 11.2919 12.1516 11.2919C11.6625 11.2404 11.4479 10.8371 11.4994 10.3737L11.7225 8.19425C11.7654 7.79096 12.0486 7.63651 12.4176 7.63651ZM6.00784 12.5532L6.59132 11.5922L6.5999 11.5664H6.62564L7.58667 11.4978L7.67248 11.4892L7.64674 11.575L7.3979 12.5017L8.47906 12.373V12.3644H8.51338C9.86053 12.2357 11.2077 12.1499 12.5377 12.0984C12.4862 12.1328 12.4347 12.1842 12.3832 12.2186C11.1047 12.27 9.83479 12.3473 8.55628 12.4674V12.476H8.52196L7.30351 12.6304L7.2177 12.639L7.24345 12.5532L7.49228 11.6265L6.63422 11.6866L6.09364 12.6133L6.00784 12.5532ZM17.6174 12.0898C19.2992 12.1499 20.981 12.2786 22.6371 12.5103L21.6846 8.73483H22.0278L24.1044 12.5103L23.9499 12.5704L21.9506 8.82922H21.8477L22.8001 12.6304C21.1355 12.4073 19.4622 12.27 17.7804 12.2014C17.7204 12.1757 17.6775 12.1413 17.6174 12.0898ZM25.0139 12.1842L25.1683 12.1242L22.3196 7.63651H20.5691L21.4358 11.7466C19.8055 11.6179 18.158 11.5321 16.5019 11.4978C16.6049 11.5321 16.7079 11.5836 16.8108 11.6179C18.4068 11.6522 19.9942 11.738 21.5902 11.8668L21.5817 11.7809L20.7236 7.73948H22.2509L25.0139 12.1842ZM13.3614 11.6179C13.4558 11.5664 13.5674 11.5321 13.6703 11.4978C11.9885 11.5321 10.3067 11.6179 8.60776 11.7724L9.49157 7.63651H7.81835L5.05539 12.107L5.00391 12.1928L5.12403 12.2443L7.89557 7.75664H9.3457L8.47906 11.8067L8.47047 11.8753L8.55628 11.8668C10.1523 11.7295 11.7654 11.6522 13.3614 11.6179ZM8.09293 8.72625L8.34176 8.73483L7.85267 10.5968L7.05467 10.6655L8.09293 8.72625ZM8.21306 8.86354L7.77544 10.4939L7.27777 10.5453L8.15299 8.84638L8.21306 8.86354ZM9.59453 8.6147L9.21699 10.4252L9.02821 10.451L8.8137 11.5579C9.3457 11.5064 9.89486 11.4549 10.444 11.412L10.5899 10.3394C10.444 10.348 10.3153 10.348 10.1694 10.3651L10.1952 10.2364L10.7529 10.1764C11.0876 10.1506 11.345 10.1163 11.405 9.68728L11.5595 8.46883C11.5938 8.16851 11.5681 7.97115 11.4651 7.83386C11.3621 7.68799 11.1648 7.62793 10.9074 7.62793H9.6546L9.44008 8.6147H9.59453ZM10.5813 9.38696L10.341 9.4127L10.4698 8.62328H10.6843L10.5813 9.38696ZM13.9449 8.6147H13.7647V7.63651H15.9699V8.87212H15.3006V8.60612H14.8201V9.01799C15.0346 9.01799 15.1891 9.01799 15.4036 9.01799V9.78166H14.8201V10.2021C14.9488 10.2021 15.1634 10.2021 15.3006 10.2021V9.93611H16.0043V10.0562V11.2318C15.3006 11.206 14.4512 11.206 13.7561 11.2404C13.7561 10.8971 13.7561 10.5453 13.7561 10.2021H13.9449V8.6147ZM16.193 7.63651V11.2318C16.5019 11.2318 16.8108 11.2575 17.1197 11.2661V9.89321H17.4286C17.4286 10.3566 17.4286 10.8199 17.4286 11.2747C17.7375 11.2833 18.0379 11.309 18.3468 11.3262L18.3382 7.63651H17.4286V8.94934H17.1197V7.63651H16.193ZM18.5098 10.2793V11.3262C18.8444 11.3348 19.2134 11.3777 19.548 11.3948L19.6167 10.5711L19.9513 10.5968L20.0457 11.4463L20.1401 11.4549C20.5005 11.4806 20.8695 11.5235 21.2213 11.5493L21.0068 10.4424L20.8437 10.4338L20.286 7.63651H18.7758L18.6299 8.6147H18.8959C18.8444 9.17244 18.8015 9.73876 18.7329 10.2965L18.5098 10.2793ZM19.651 9.66154H19.8398L19.754 8.87212H19.6853L19.651 9.66154Z" fill="#EC1C24"/>
<path d="M12.4172 7.75658C12.1083 7.75658 11.8852 7.87671 11.8423 8.21135L11.6192 10.3908C11.5591 10.9228 11.868 11.1974 12.2971 11.1802L13.4898 11.1288C13.4898 10.674 13.4898 10.2106 13.4898 9.75586C13.2838 9.75586 13.2066 9.75586 13.0007 9.76444C13.0007 9.98754 13.0007 10.1334 13.0007 10.3479C12.8119 10.3479 12.5116 10.3565 12.3228 10.3737L12.4858 8.51167C12.6489 8.51167 12.8291 8.51167 13.0007 8.51167C13.0007 8.6747 13.0007 8.81199 13.0007 8.97502C13.1894 8.97502 13.2838 8.97502 13.4898 8.97502C13.4898 8.57174 13.4898 8.16845 13.4898 7.75658C13.1122 7.75658 12.8033 7.75658 12.4172 7.75658ZM8.09256 8.72619L8.3414 8.73477L7.85231 10.5968L7.05431 10.6654L8.09256 8.72619ZM12.5716 12.0812C11.2245 12.1327 9.89449 12.2099 8.54734 12.3472H8.51301V12.3558L7.43186 12.4845L7.6807 11.5578L7.70644 11.472L7.62063 11.4806L6.6596 11.5492H6.63386L6.62528 11.5749L6.0418 12.536L5.14941 12.2013L7.90379 7.73083H9.35391L8.47011 11.8066L8.46153 11.8753L8.54734 11.8667C10.1691 11.7208 11.7736 11.6436 13.3696 11.5921C13.0865 11.7294 12.8291 11.901 12.5716 12.0812ZM25.0135 12.1842L22.2334 7.748H20.7061L21.5641 11.7895L21.5727 11.8753C19.9853 11.7466 18.3893 11.6608 16.7933 11.6264C17.0765 11.7551 17.351 11.9268 17.5999 12.1069C19.2817 12.167 20.9635 12.2957 22.6195 12.5274L21.6671 8.75193H22.0103L24.0868 12.5274L25.0135 12.1842ZM9.58559 8.49451H9.74004L9.31101 10.5281L9.12224 10.5539L8.95921 11.4119C9.55127 11.3604 9.81727 11.3261 10.3407 11.2918L10.4437 10.4595C10.3149 10.4681 10.1004 10.4852 10.0232 10.4852L10.0918 10.1248L10.6238 10.0648C10.9585 10.0304 11.2331 10.0562 11.276 9.66147L11.4218 8.46019C11.4819 7.93677 11.336 7.75658 10.8727 7.75658C10.478 7.75658 10.1262 7.75658 9.7143 7.75658L9.58559 8.49451ZM10.8212 8.49451L10.3664 8.50309L10.1948 9.53276L10.6753 9.48128L10.8212 8.49451ZM13.8759 8.49451C13.9274 8.49451 14.0046 8.49451 14.0561 8.49451C14.0561 9.12947 14.0561 9.67005 14.0561 10.3136H13.8673V11.1116C14.4851 11.103 15.2574 11.0773 15.8838 11.103C15.8838 10.734 15.8838 10.408 15.8838 10.039C15.6778 10.039 15.6178 10.039 15.4204 10.039C15.4204 10.1591 15.4204 10.1935 15.4204 10.305C15.2316 10.305 14.897 10.305 14.7082 10.305C14.7082 10.0991 14.7082 9.86741 14.7082 9.65289C14.8712 9.65289 15.1115 9.65289 15.2917 9.65289C15.2917 9.44696 15.2917 9.33541 15.2917 9.12948C15.1287 9.12948 14.8712 9.12948 14.7082 9.12948C14.7082 8.91496 14.7082 8.70044 14.7082 8.48593C14.8369 8.48593 15.2831 8.48593 15.4204 8.48593C15.4204 8.61464 15.4204 8.60606 15.4204 8.75193C15.6092 8.75193 15.6607 8.75193 15.8494 8.75193C15.8494 8.39154 15.8494 8.10838 15.8494 7.748C15.2402 7.748 14.4765 7.748 13.8759 7.748C13.8759 7.97967 13.8759 8.26283 13.8759 8.49451ZM16.3128 11.1116V7.75658C16.5359 7.75658 16.7676 7.75658 17.0078 7.75658C17.0078 8.19419 17.0078 8.62322 17.0078 9.06941C17.1365 9.06941 17.4111 9.06941 17.5398 9.06941C17.5398 8.6318 17.5398 8.18561 17.5398 7.75658H18.2177V10.3908V11.1974C17.9946 11.1888 17.7801 11.1631 17.5398 11.1631C17.5398 10.7083 17.5398 10.2364 17.5398 9.7816C17.4111 9.7816 17.1365 9.7816 17.0078 9.7816C17.0078 10.2364 17.0078 10.6997 17.0078 11.1545C16.7676 11.1288 16.5531 11.1116 16.3128 11.1116ZM18.6296 10.3994H18.8441C18.9127 9.7816 18.9642 9.12089 19.0328 8.49451H18.7926L18.8956 7.75658H20.1912L20.749 10.5367L20.912 10.5453L21.075 11.4033C20.7747 11.3776 20.4401 11.3433 20.1483 11.3175L20.0539 10.4681L19.5048 10.4337L19.4361 11.2575C19.1701 11.2489 18.8784 11.206 18.6296 11.1974C18.6124 10.9743 18.6296 10.6397 18.6296 10.3994ZM19.9767 9.7816L19.5391 9.77302L19.5992 8.76051H19.8823L19.9767 9.7816Z" fill="white"/>
<path fill-rule="evenodd" clip-rule="evenodd" d="M15.086 19.5979C17.3856 19.5979 19.2647 17.7187 19.2647 15.4191C19.2647 13.1195 17.3856 11.2404 15.086 11.2404C12.7864 11.2404 10.9072 13.1195 10.9072 15.4191C10.9072 17.7273 12.7864 19.5979 15.086 19.5979Z" fill="#231F20"/>
<path fill-rule="evenodd" clip-rule="evenodd" d="M15.0859 19.349C17.2396 19.349 19.0072 17.5814 19.0072 15.4277C19.0072 13.274 17.2482 11.5063 15.0859 11.5063C12.9236 11.5063 11.1646 13.274 11.1646 15.4277C11.1731 17.5814 12.9322 19.349 15.0859 19.349Z" fill="white" stroke="#231F20" stroke-width="0.1172" stroke-miterlimit="22.9256"/>
<path fill-rule="evenodd" clip-rule="evenodd" d="M12.2287 13.6257C11.8254 13.6257 11.3449 13.9603 11.1904 14.724C11.3363 13.7029 12.0571 12.5445 13.1468 11.9611C13.0524 12.1155 13.0524 12.2442 13.1211 12.3901C12.692 12.7076 12.3831 13.1023 12.2287 13.6257Z" fill="#E6E7E8"/>
<path fill-rule="evenodd" clip-rule="evenodd" d="M15.0776 15.4019C14.7172 15.0072 14.3826 14.5954 14.0908 14.1492C14.2453 13.7116 14.5542 13.3426 15.0004 13.0251C15.5838 12.9994 16.0815 13.171 16.502 13.5142C16.7251 14.0119 16.7165 14.4752 16.5964 14.93C16.0987 15.1274 15.601 15.2818 15.0776 15.4019Z" fill="#231F20"/>
<path fill-rule="evenodd" clip-rule="evenodd" d="M14.0734 14.1492C13.6186 14.2006 13.1639 14.2779 12.7263 14.5096C12.5032 14.2436 12.323 13.9604 12.2114 13.6257C12.6061 12.4073 13.6787 11.8753 14.4767 12.2099C14.6912 12.4502 14.8371 12.7419 14.9658 13.0337C14.5797 13.3254 14.2536 13.6858 14.0734 14.1492Z" fill="#F1F1F2"/>
<path fill-rule="evenodd" clip-rule="evenodd" d="M12.2374 15.9854C11.9714 15.9253 11.7397 15.9511 11.5252 15.9768C11.345 15.7623 11.1563 15.4963 11.1648 15.0673C11.1648 14.9729 11.1648 14.8613 11.1906 14.767C11.2163 14.6382 11.2506 14.5181 11.285 14.398C11.4909 13.8832 11.8599 13.6343 12.2374 13.6257C12.3318 13.9432 12.5034 14.235 12.7522 14.5095C12.409 14.9643 12.2288 15.4362 12.2374 15.9854Z" fill="#231F20"/>
<path fill-rule="evenodd" clip-rule="evenodd" d="M12.7434 14.501C13.1381 14.2951 13.6014 14.1921 14.0905 14.1406C14.3908 14.5782 14.7255 14.9987 15.0773 15.3934C14.8714 15.8739 14.7341 16.3544 14.6225 16.8349C14.0734 17.0495 13.5843 17.1009 13.0866 17.1181C12.5718 16.7577 12.3229 16.3802 12.2371 15.9769C12.2285 15.462 12.4087 14.9729 12.7434 14.501Z" fill="#F1F1F2"/>
<path fill-rule="evenodd" clip-rule="evenodd" d="M11.5249 15.9597C11.2245 15.6165 11.0873 15.2218 11.1816 14.7584C11.1473 14.9815 11.1216 15.2132 11.1216 15.4363C11.1216 16.1485 11.3275 16.8264 11.7308 17.4699C11.5506 17.0151 11.4562 16.5089 11.5249 15.9597Z" fill="#D0D2D3"/>
<path fill-rule="evenodd" clip-rule="evenodd" d="M11.5252 15.9596C11.7397 15.9339 11.98 15.9339 12.2374 15.9682C12.3661 16.4659 12.6579 16.852 13.0869 17.1094C13.0182 17.6329 13.0869 18.0018 13.2928 18.2678C12.7008 18.4738 12.1859 18.182 11.7312 17.4698C11.5424 16.9979 11.4394 16.5002 11.5252 15.9596Z" fill="#E6E7E8"/>
<path fill-rule="evenodd" clip-rule="evenodd" d="M13.0864 17.1181C13.6785 17.0924 14.1847 17.0152 14.6224 16.835C14.8712 17.2554 15.2144 17.6244 15.6349 17.9419C15.3174 18.4739 15.0514 18.7742 14.8455 18.7913C14.1161 18.8514 13.6871 18.5854 13.2838 18.2765C13.0864 18.0105 13.0178 17.6158 13.0864 17.1181Z" fill="#231F20"/>
<path fill-rule="evenodd" clip-rule="evenodd" d="M12.6577 18.2937C12.7521 18.6969 13.2755 18.9458 13.9191 19.1603C14.5884 19.3748 15.3005 19.3662 15.3863 19.1603C15.1375 19.1002 14.9916 18.9544 14.8629 18.7913C14.3653 18.8171 13.859 18.7227 13.3013 18.2765C13.0782 18.3451 12.8636 18.3537 12.6577 18.2937Z" fill="#BBBDBF"/>
<path fill-rule="evenodd" clip-rule="evenodd" d="M12.6577 18.2936C12.4689 18.2335 12.1686 18.0533 11.894 17.7101C12.1086 18.0447 12.6406 18.5167 12.958 18.714C12.8036 18.5939 12.692 18.4652 12.6577 18.2936Z" fill="#231F20"/>
<path fill-rule="evenodd" clip-rule="evenodd" d="M15.069 15.3934C15.601 15.2904 16.1072 15.1274 16.5963 14.9301C16.9739 15.2132 17.2913 15.565 17.523 15.9683C17.5316 16.5003 17.42 17.0151 17.0597 17.4699C16.622 17.7102 16.1759 17.9075 15.6439 17.9504C15.2663 17.6501 14.9145 17.2811 14.6313 16.8435C14.7086 16.3802 14.8544 15.8911 15.069 15.3934Z" fill="#D0D2D3"/>
<path fill-rule="evenodd" clip-rule="evenodd" d="M14.8545 18.7828C15.1377 18.7313 15.3865 18.3451 15.6439 17.9333C16.1673 17.8989 16.6307 17.7102 17.0597 17.4528C17.2399 17.693 17.4544 17.8303 17.6775 17.9504C17.6175 18.328 17.4544 18.6455 16.6393 18.9973C15.9099 19.3491 15.1977 19.3233 14.8545 18.7828Z" fill="#929497"/>
<path fill-rule="evenodd" clip-rule="evenodd" d="M14.6226 19.3147C14.9572 19.3233 15.2918 19.3233 15.3605 19.186C15.7037 19.2718 16.004 19.2461 16.27 19.1603C15.8753 19.2804 15.4806 19.3491 15.0945 19.3491C14.9315 19.3491 14.777 19.3319 14.6226 19.3147Z" fill="#231F20"/>
<path fill-rule="evenodd" clip-rule="evenodd" d="M17.5058 15.9597C17.8748 15.9254 18.1837 15.7795 18.4497 15.5822C19.2563 16.3544 18.1751 18.0276 17.6603 17.9761C17.4114 17.8474 17.2055 17.6758 17.0425 17.4785C17.3857 17.0323 17.5402 16.5346 17.5058 15.9597Z" fill="#231F20"/>
<path fill-rule="evenodd" clip-rule="evenodd" d="M17.1108 18.7742C17.4197 18.5682 17.5742 18.3709 17.6686 17.9762C17.9861 17.9848 18.5266 17.3841 18.6897 16.6891C18.724 16.6891 18.7755 16.6891 18.8098 16.6977C18.5438 17.4957 17.9946 18.1907 17.1108 18.7742Z" fill="#6D6E70"/>
<path fill-rule="evenodd" clip-rule="evenodd" d="M16.5876 14.9387C16.7077 14.4839 16.6819 14.012 16.4932 13.5229C16.7334 13.2826 17.0423 13.1539 17.3855 13.1024C18.0634 13.377 18.3466 13.7374 18.4495 14.1235C18.6126 14.87 18.5783 15.2819 18.4581 15.5736C18.1835 15.7967 17.8746 15.934 17.5143 15.9512C17.2912 15.5565 16.9737 15.2218 16.5876 14.9387Z" fill="#BBBDBF"/>
<path fill-rule="evenodd" clip-rule="evenodd" d="M18.6898 16.689C18.7584 16.2857 18.7584 15.8996 18.4495 15.5821C18.5782 15.3075 18.5696 14.8098 18.4409 14.132C18.561 14.0805 18.6554 14.0033 18.7412 13.8917C19.1445 14.93 19.1102 15.8481 18.8099 16.689C18.767 16.6976 18.7327 16.689 18.6898 16.689Z" fill="#808184"/>
<path fill-rule="evenodd" clip-rule="evenodd" d="M14.9827 13.0338C14.854 12.7335 14.7082 12.4503 14.4937 12.2101C14.7082 11.721 15.3002 11.6266 16.1411 11.8668C17.0593 12.1328 17.4625 12.5619 17.3939 13.1024C17.0507 13.1625 16.7418 13.2826 16.5015 13.5229C16.0639 13.1711 15.5748 12.9823 14.9827 13.0338Z" fill="#DBDCDD"/>
<path fill-rule="evenodd" clip-rule="evenodd" d="M17.3858 13.1023C17.4201 12.802 17.3171 12.5188 16.9653 12.2442C17.0855 12.1842 17.2313 12.1756 17.4201 12.2099C17.995 12.6904 18.4669 13.2224 18.7329 13.9003C18.6386 14.0204 18.5442 14.089 18.4326 14.1405C18.3382 13.6858 17.9864 13.3425 17.3858 13.1023Z" fill="#231F20"/>
<path fill-rule="evenodd" clip-rule="evenodd" d="M16.9739 12.2358C16.4591 11.9269 15.9271 11.7381 15.3436 11.7381C15.2492 11.5922 15.069 11.515 14.8545 11.4378C15.7726 11.3863 16.6307 11.6179 17.4201 12.2014C17.2485 12.1585 17.1026 12.1843 16.9739 12.2358Z" fill="#A6A8AB"/>
<path fill-rule="evenodd" clip-rule="evenodd" d="M13.1211 12.3902C13.0525 12.2443 13.0353 12.107 13.1469 11.9611C13.6446 11.6522 14.2195 11.4806 14.8716 11.4463C15.0775 11.5149 15.2491 11.6007 15.3521 11.7466C14.9231 11.7466 14.6399 11.9011 14.5026 12.21C14.0736 12.0555 13.636 12.0555 13.1211 12.3902Z" fill="#231F20"/>
<path fill-rule="evenodd" clip-rule="evenodd" d="M15.069 15.3934C15.601 15.2904 16.1072 15.1274 16.5963 14.9301H16.6049C16.0557 15.299 15.129 15.3677 15.1548 15.6422C15.1805 15.9082 15.0089 16.3544 14.7944 16.7062C14.6399 16.9551 15.5066 17.7188 15.6439 17.9333C15.2663 17.6329 14.9145 17.264 14.6313 16.8264C14.7086 16.3802 14.8544 15.8911 15.069 15.3934Z" fill="white"/>
<path fill-rule="evenodd" clip-rule="evenodd" d="M16.5791 14.9386C16.9738 15.2218 17.2742 15.5736 17.5058 15.9769C17.5659 16.4402 17.4029 17.0237 17.0425 17.4785C16.6134 17.7187 16.1587 17.9161 15.6353 17.959C17.42 17.6587 17.892 16.0455 16.5791 14.9386Z" fill="#808184"/>
<path fill-rule="evenodd" clip-rule="evenodd" d="M17.5571 13.171C18.1149 13.437 18.3637 13.7545 18.4495 14.1235C18.6125 14.87 18.5782 15.2819 18.4581 15.5736C18.2093 15.7881 17.9089 15.9168 17.5915 15.9511C18.6984 15.6079 18.5353 15.0588 18.338 14.2093C18.2693 13.9004 17.9604 13.437 17.5571 13.171Z" fill="#808184"/>
<path fill-rule="evenodd" clip-rule="evenodd" d="M16.5876 14.9387C16.7077 14.4839 16.6819 14.012 16.4932 13.5229C16.6562 13.3598 16.8707 13.2483 17.111 13.1625C16.9308 13.2311 16.6476 13.48 16.6476 13.5829C16.6476 13.6773 16.7935 13.9261 16.7763 14.0978C16.7677 14.338 16.7506 14.5525 16.845 14.8271C16.9908 15.2819 17.5915 15.6165 17.5143 15.9855C17.2654 15.5736 16.9737 15.2218 16.5876 14.9387Z" fill="white"/>
<path fill-rule="evenodd" clip-rule="evenodd" d="M18.6898 16.689C18.7584 16.2857 18.7584 15.8996 18.4495 15.5821C18.5696 15.2989 18.5696 14.8098 18.4409 14.132C18.8185 14.8441 18.5267 15.3247 18.5696 15.5478C18.5782 15.6164 19.0244 16.2514 18.6898 16.689Z" fill="#BBBDBF"/>
<path fill-rule="evenodd" clip-rule="evenodd" d="M14.8628 18.7828C15.1374 18.7227 15.3776 18.328 15.635 17.9333C16.1585 17.899 16.6132 17.7102 17.0509 17.4528C17.231 17.693 17.4456 17.8303 17.6687 17.9504C17.4456 17.9161 17.231 17.8217 17.0938 17.6415C16.6647 17.8904 16.2014 18.0706 15.678 18.122C15.472 18.4739 15.2232 18.7399 14.8628 18.7828Z" fill="#BBBDBF"/>
<path fill-rule="evenodd" clip-rule="evenodd" d="M17.6002 18.1992C17.4801 18.5081 17.2913 18.7226 16.6392 19.023C16.0299 19.2975 15.4379 19.3233 15.0518 19.0144C15.455 19.1946 16.0557 19.1088 16.6735 18.8256C17.1626 18.5853 17.4372 18.3966 17.6002 18.1992Z" fill="#6D6E70"/>
<path fill-rule="evenodd" clip-rule="evenodd" d="M17.5058 15.9597C17.8491 15.9254 18.1494 15.7966 18.3982 15.6165C18.2352 15.8996 17.7032 16.0197 17.7032 16.1141C17.7289 16.3973 17.6946 16.5517 17.6345 16.792C17.5659 17.0151 17.4543 17.221 17.2913 17.4355C17.2055 17.5299 17.4114 17.7702 17.6603 17.9675C17.3857 17.8388 17.1969 17.6586 17.0425 17.4699C17.3771 17.0237 17.5316 16.526 17.5058 15.9597Z" fill="#58595B"/>
<path fill-rule="evenodd" clip-rule="evenodd" d="M15.0776 15.402C14.7172 15.0073 14.3826 14.5954 14.0908 14.1492C14.2453 13.7116 14.5542 13.3426 15.0004 13.0251C15.0519 13.0251 15.1033 13.0251 15.1548 13.0251C13.7819 13.9433 14.2624 14.4753 15.2235 15.3591C15.1634 15.3762 15.1205 15.3934 15.0776 15.402Z" fill="#58595B"/>
<path fill-rule="evenodd" clip-rule="evenodd" d="M12.7434 14.501C13.0179 14.3551 13.3268 14.2607 13.6615 14.2007C13.4212 14.2865 13.1981 14.3809 12.9922 14.501C12.6575 14.7069 12.2972 15.4535 12.3486 15.9683C12.4087 16.5174 12.7777 16.792 13.078 17.1267C12.6404 16.8778 12.3143 16.3887 12.2285 15.9855C12.2285 15.462 12.4087 14.9729 12.7434 14.501Z" fill="#D0D2D3"/>
<path fill-rule="evenodd" clip-rule="evenodd" d="M14.3478 14.5353C14.3993 14.5868 15.0257 15.359 15.06 15.4019C14.8541 15.8824 14.7168 16.3629 14.6053 16.8435C14.0561 17.058 13.567 17.1095 13.0693 17.1266C13.936 16.9464 14.4766 16.8606 14.7254 16.1141C14.9828 15.4019 14.7683 15.2131 14.3478 14.5353Z" fill="#BBBDBF"/>
<path fill-rule="evenodd" clip-rule="evenodd" d="M13.0866 17.1181C13.6787 17.0924 14.185 17.0152 14.6226 16.835C14.8113 17.1524 15.0516 17.4442 15.3519 17.7016C14.9229 17.367 14.7427 17.2468 14.5024 17.1439C14.1935 16.998 13.4299 17.2468 13.3269 17.4099C13.2068 17.5729 13.1124 17.8046 13.3355 18.3022C13.3269 18.2937 13.3097 18.2765 13.3012 18.2765C13.0866 18.0105 13.018 17.6158 13.0866 17.1181Z" fill="#58595B"/>
<path fill-rule="evenodd" clip-rule="evenodd" d="M12.649 14.3894C12.4602 14.1663 12.3315 13.9003 12.2285 13.6172C12.546 12.5532 13.4212 12.0212 14.1592 12.1156C12.9836 12.1413 11.9797 13.3512 12.649 14.3894Z" fill="#E6E7E8"/>
<path fill-rule="evenodd" clip-rule="evenodd" d="M14.0734 14.1492C14.0391 14.1492 13.713 14.2007 13.6787 14.2007C13.9876 14.1492 14.1335 13.8317 14.348 13.5228C14.7684 12.905 14.9057 13.0852 14.5368 12.27C14.717 12.4931 14.8543 12.7505 14.9658 13.0165C14.5797 13.3254 14.2536 13.6858 14.0734 14.1492Z" fill="#D0D2D3"/>
<path fill-rule="evenodd" clip-rule="evenodd" d="M13.0868 17.1438C13.0182 17.6586 13.0954 18.0276 13.2928 18.2764C12.7007 18.4823 12.1859 18.1906 11.7311 17.4784C11.671 17.3325 11.4222 16.7062 11.5252 15.9768C11.5509 16.4745 11.6539 16.8692 11.7912 17.1695C12.1086 17.916 12.6235 18.1477 12.7951 18.0619C12.9581 17.9675 12.8294 17.6071 13.0868 17.1438Z" fill="#BBBDBF"/>
<path fill-rule="evenodd" clip-rule="evenodd" d="M12.6577 18.2937C12.692 18.4481 12.7864 18.5682 12.9237 18.6884C12.7693 18.4052 13.0524 18.3537 13.3184 18.4653C13.6616 18.6111 14.1679 18.8342 14.5798 18.7999C14.2108 18.7484 13.8504 18.7141 13.2927 18.2765C13.0782 18.3451 12.8636 18.3537 12.6577 18.2937Z" fill="#E6E7E8"/>
<path fill-rule="evenodd" clip-rule="evenodd" d="M13.3096 18.9286C13.4898 19.0144 13.6871 19.0916 13.9188 19.1688C14.5881 19.3834 15.3003 19.3834 15.3689 19.1774C15.1029 19.0916 14.9914 18.9543 14.8455 18.7827C14.7854 18.7827 14.5795 18.7827 14.5109 18.7827C14.794 18.9286 14.8283 19.0487 14.7769 19.1174C14.6481 19.2461 14.1247 19.2117 13.6442 19.0573C13.5241 19.0144 13.4211 18.9801 13.3096 18.9286Z" fill="#6D6E70"/>
<path fill-rule="evenodd" clip-rule="evenodd" d="M14.9829 13.0337C15.8667 12.9136 16.0469 13.3941 16.905 13.1281C17.4284 12.9651 16.7848 12.0813 15.8667 11.8153C15.7981 11.7895 15.738 11.781 15.6608 11.7638C15.8152 11.7895 15.9697 11.8239 16.1413 11.8668C17.0594 12.1328 17.4627 12.5618 17.3941 13.1024C17.0508 13.1624 16.7419 13.2826 16.5017 13.5228C16.0641 13.171 15.575 13.0166 14.9829 13.0337Z" fill="#929497"/>
<path fill-rule="evenodd" clip-rule="evenodd" d="M12.2288 13.6258C12.04 13.6258 11.8255 13.6945 11.6367 13.8661C11.7654 13.703 11.937 13.6258 12.1001 13.5314C12.3403 13.3856 12.3403 13.0767 12.4948 12.8793C12.6406 12.6905 12.8123 12.5704 12.9753 12.3645C13.0268 12.2958 13.0268 12.1242 13.104 12.0212C13.0354 12.1499 13.0439 12.2701 13.104 12.3988C12.6921 12.6991 12.3832 13.1024 12.2288 13.6258Z" fill="white"/>
<path fill-rule="evenodd" clip-rule="evenodd" d="M11.5249 15.9596C11.7394 15.9339 11.9797 15.9339 12.2371 15.9682C12.3658 16.4659 12.6575 16.852 13.0866 17.1094V17.118C12.6661 16.9292 12.3143 16.6289 12.1427 16.1999C12.0655 15.994 11.7652 16.0369 11.5249 15.9596Z" fill="white"/>
<path d="M10.418 22.4637C10.418 22.8241 10.418 23.1674 10.418 23.5277C10.5724 23.5964 10.7355 23.6565 10.8985 23.7165C10.8985 23.5363 10.8985 23.3561 10.8985 23.1845C10.9843 23.2188 11.0615 23.2446 11.1473 23.2789C11.1473 23.7423 11.1473 24.2228 11.1473 24.6861C11.0444 24.6518 10.9414 24.6175 10.847 24.5832C10.847 24.7462 10.847 24.9264 10.847 25.098C11.276 25.2439 11.7051 25.364 12.1255 25.4584C12.1255 25.2953 12.1255 25.1237 12.1255 24.9693C12.0311 24.9435 11.9196 24.9178 11.8252 24.9006C11.8252 24.4373 11.8252 23.9825 11.8252 23.5192C11.911 23.5449 11.9882 23.5706 12.074 23.5878C12.074 23.768 12.074 23.931 12.074 24.1112C12.2285 24.1455 12.3915 24.1799 12.5545 24.2142C12.5545 23.8795 12.5545 23.5449 12.5545 23.2103C11.8338 23.0043 11.1302 22.7641 10.418 22.4637ZM13.8931 24.2056C13.8073 23.931 13.7129 23.6479 13.6271 23.3733C13.3783 23.339 13.1294 23.3046 12.8634 23.2703C12.8634 23.4334 12.8634 23.5878 12.8634 23.7594C12.9492 23.768 13.0179 23.7852 13.1037 23.7937C13.2582 24.197 13.4212 24.6175 13.5842 25.0208C13.5585 25.0808 13.5327 25.1409 13.5156 25.201C13.3954 25.1924 13.2925 25.1752 13.1723 25.1666C13.1723 25.3297 13.1723 25.4841 13.1723 25.6557C13.4555 25.6901 13.7301 25.7158 14.0218 25.7415C14.2363 25.1495 14.4509 24.5488 14.674 23.9568C14.7426 23.9568 14.8284 23.9568 14.897 23.9568C14.897 23.8023 14.897 23.6393 14.897 23.4763C14.6482 23.4763 14.408 23.4677 14.1591 23.4505C14.0905 23.6822 13.9961 23.9482 13.8931 24.2056C13.9103 24.2056 13.8931 24.2056 13.8931 24.2056ZM15.3347 23.9224C15.3347 23.768 15.3347 23.605 15.3347 23.4419C15.9439 23.4162 16.4759 23.3561 17.0851 23.2789C17.0851 23.4419 17.0851 23.5964 17.0851 23.768C17.025 23.7766 16.9821 23.7937 16.9221 23.7937C16.9221 24.2485 16.9221 24.7033 16.9221 25.1495C16.9821 25.1409 17.025 25.1409 17.0851 25.1237C17.0851 25.2868 17.0851 25.4412 17.0851 25.6128C16.8105 25.6472 16.5274 25.6815 16.2528 25.7072C16.2528 25.098 16.2528 24.4888 16.2528 23.8881C16.2185 23.8881 16.2528 23.8967 16.227 23.8967C16.0383 24.5059 15.8667 25.1237 15.6779 25.7415C15.3089 25.7673 15.5234 25.7501 15.2231 25.7673C15.0687 25.7673 14.9228 25.7673 14.7683 25.7673C14.7683 25.6128 14.7683 25.4498 14.7683 25.2868C14.897 25.2868 15.0172 25.2868 15.1459 25.2868C15.2918 24.832 15.4205 24.3944 15.5663 23.9396C15.4977 23.9224 15.4205 23.9224 15.3347 23.9224ZM17.6514 25.0208C17.5656 25.0293 17.4884 25.0551 17.4026 25.0723C17.4026 25.2353 17.4026 25.3897 17.4026 25.5613C17.6772 25.5099 17.9603 25.4584 18.2349 25.3983C18.2606 25.1924 18.295 24.995 18.3207 24.8063C18.4666 24.7719 18.5953 24.7204 18.7412 24.6861C18.7669 24.8749 18.8012 25.0551 18.827 25.2439C19.1015 25.1581 19.3847 25.0637 19.6593 24.9607C19.6593 24.7977 19.6593 24.6175 19.6593 24.4459C19.5735 24.4802 19.4963 24.5059 19.419 24.5403C19.3332 24.1026 19.256 23.6565 19.1702 23.2188C19.2303 23.1931 19.2989 23.1674 19.359 23.1502C19.359 22.9872 19.359 22.8156 19.359 22.6354C18.8098 22.8499 18.2778 23.0301 17.7287 23.1845C17.7287 23.3475 17.7287 23.5192 17.7287 23.6736C17.7887 23.665 17.8574 23.6393 17.9174 23.6221C17.8145 24.0683 17.7372 24.5403 17.6514 25.0208ZM18.6897 24.2657C18.5867 24.3 18.4752 24.3257 18.3808 24.3601C18.4323 24.0168 18.4837 23.6565 18.5352 23.3132C18.5781 23.6221 18.6296 23.9482 18.6897 24.2657Z" fill="#EC1C24"/>
<path d="M19.342 4.67621L19.0417 5.35408H19.0331V4.67621H18.4754V4.98512H18.6298V5.86892H18.4754V6.1864H19.0503V5.60292H19.2734V6.1864H19.8483V5.86892H19.6852V5.33692H19.4621L19.6166 4.9937H19.8054V4.68479L19.342 4.67621ZM10.3667 5.01086H10.5211V5.89466H10.3667V6.20356H10.9416V5.01086H11.1561V6.20356H11.731V5.88608H11.568V5.01086H11.7224V4.70196H10.3667V5.01086ZM15.884 4.84783C15.884 4.66763 15.7296 4.62473 15.5751 4.62473H15.2748V4.47886H15.4807V4.16138H14.657V4.47028H14.8715V4.61615H14.5712C14.4082 4.61615 14.2623 4.66763 14.2623 4.83925L14.2537 5.6115C14.2537 5.82602 14.3738 5.89466 14.5884 5.89466H14.8715V6.04911H14.657V6.3666H15.4807V6.04911H15.2748V5.89466H15.558C15.7639 5.89466 15.8926 5.82602 15.8926 5.6115L15.884 4.84783ZM15.4807 5.59434H15.2748V4.86499H15.4807V5.59434ZM14.8715 5.59434H14.657V4.86499H14.8629V5.59434H14.8715Z" fill="#FFF100"/>
<path d="M8.06678 8.74341L8.3242 8.75199L7.84369 10.614L7.03711 10.6826L8.06678 8.74341Z" fill="#EC1C24"/>
<path d="M8.18675 8.86353L7.74914 10.5024L7.25146 10.5539L8.12669 8.86353H8.18675Z" fill="#231F20"/>
<path d="M10.8214 8.49463L10.3838 8.50321L10.2036 9.53288L10.6841 9.48998L10.8214 8.49463Z" fill="#EC1C24"/>
<path d="M10.5813 9.387L10.3496 9.39558L10.4783 8.62333L10.6928 8.61475L10.5813 9.387Z" fill="#231F20"/>
<path d="M19.977 9.78163L19.5308 9.76447L19.5908 8.75195L19.8826 8.76911L19.977 9.78163Z" fill="#EC1C24"/>
<path d="M19.6509 9.66149H19.8397L19.771 8.87207H19.7024L19.6509 9.66149Z" fill="#231F20"/>
</svg>
