<svg width="30" height="30" viewBox="0 0 30 30" fill="none" xmlns="http://www.w3.org/2000/svg">
<path d="M16.2763 4.53795C16.2137 4.53795 16.1516 4.51875 16.0988 4.48064C15.9924 4.40383 15.9478 4.26705 15.9883 4.14239L16.4072 2.84904L15.3124 2.04874C15.2069 1.97134 15.1629 1.83515 15.2036 1.71078C15.2441 1.58641 15.3605 1.50221 15.4911 1.50221H16.8417L17.2583 0.210044C17.2987 0.0850811 17.4148 0.00029542 17.5463 0.00029542C17.6778 0.00029542 17.7939 0.0850811 17.8337 0.210044L18.2506 1.50221H19.6003C19.7315 1.50221 19.8476 1.58641 19.8881 1.71048C19.9288 1.83515 19.8848 1.97134 19.7794 2.04874L18.6854 2.84904L19.1049 4.14209C19.1457 4.26676 19.1011 4.40354 18.9947 4.48035C18.9419 4.51875 18.8798 4.53795 18.8172 4.53795C18.7549 4.53795 18.6919 4.51875 18.639 4.47976L17.546 3.68271L16.4541 4.47976C16.401 4.51875 16.3383 4.53795 16.2757 4.53795H16.2763ZM11.2572 4.53795C11.1951 4.53795 11.1325 4.51875 11.0796 4.48035C10.9736 4.40354 10.9293 4.26676 10.9694 4.14209L11.3889 2.84874L10.295 2.04845C10.1895 1.97105 10.1455 1.83486 10.1863 1.71019C10.2268 1.58582 10.3429 1.50192 10.4737 1.50192H11.8235L12.2409 0.209749C12.2808 0.0847857 12.3972 0 12.5284 0C12.6598 0 12.7759 0.0847857 12.8164 0.209749L13.2332 1.50192H14.5836C14.7144 1.50192 14.8302 1.58611 14.871 1.71048C14.9115 1.83515 14.8678 1.97134 14.7617 2.04845L13.6669 2.84904L14.0858 4.14209C14.1263 4.26676 14.0817 4.40324 13.9753 4.48035C13.9224 4.51875 13.8601 4.53766 13.7978 4.53766C13.7351 4.53766 13.6728 4.51816 13.6193 4.47946L12.5278 3.68271L11.4347 4.47976C11.3812 4.51875 11.3189 4.53795 11.2563 4.53795H11.2572ZM14.6604 8.80855C15.0317 8.82598 15.4007 8.86261 15.7626 8.91845C15.8417 7.91727 15.7132 7.71432 15.6237 7.68684C15.6084 7.68211 15.5927 7.68005 15.5768 7.68005C15.3762 7.68005 14.9871 8.03337 14.6604 8.80855ZM14.2214 10.6995C14.2143 10.8074 14.2102 10.9149 14.2093 11.0215C14.2084 11.0703 14.2075 11.1161 14.2084 11.1619C14.2108 11.3122 14.2187 11.4605 14.232 11.6053C14.2684 11.5755 14.3038 11.5456 14.3384 11.5158C14.6131 11.2762 14.8462 11.0266 15.0421 10.7601C14.9658 10.7489 14.8902 10.7391 14.8149 10.7306C14.6382 10.7099 14.458 10.6992 14.2781 10.6992C14.2595 10.6992 14.2403 10.6992 14.2214 10.6998V10.6995ZM14.4285 23.1078C14.6941 23.1539 14.941 23.1763 15.1759 23.1763C15.4881 23.1763 15.7812 23.1347 16.0474 23.0525C19.0881 22.0989 19.7888 19.4242 19.8408 17.3483C19.9188 14.3016 18.772 12.1273 16.606 11.1944C16.2595 11.7122 15.8385 12.2372 15.3525 12.758C15.1629 12.9586 14.9664 13.156 14.7667 13.3462C15.2875 14.2003 16.1652 14.7397 17.3797 14.9521C17.4636 14.9666 17.5377 15.0162 17.5832 15.0883C17.6287 15.1604 17.642 15.2484 17.619 15.3308C16.5989 19.0174 15.6042 21.4484 14.4282 23.1081L14.4285 23.1078ZM9.85217 23.6372C9.88467 23.9379 10.0309 23.976 10.2971 24.0195C10.3358 24.0257 10.3727 24.0322 10.4049 24.0387C10.5 24.0369 10.5954 24.0271 10.6897 24.0091C10.9257 23.9663 11.1476 23.8732 11.355 23.7311C11.0205 23.5589 10.6533 23.3896 10.4723 23.3896V23.0868L10.4643 23.3896C10.0014 23.4094 9.88821 23.5489 9.85188 23.6372H9.85217ZM10.222 25.714C9.32367 25.714 8.49532 25.3754 8.00611 24.8085C7.63093 24.3737 7.4782 23.8322 7.56535 23.2425C7.72163 22.179 8.73461 21.6942 9.60963 21.6942C9.64922 21.6942 9.68851 21.6954 9.72662 21.6975C10.3813 21.7099 11.1857 22.0221 12.0374 22.3527C12.1316 22.3893 12.227 22.4263 12.3233 22.4632C12.4944 22.0726 12.6173 21.6363 12.6758 21.2088C12.9877 18.8762 13.0394 17.2133 12.8601 15.2786C12.8492 15.153 12.8379 15.0289 12.8264 14.9046C12.3239 15.2369 11.8371 15.5057 11.3996 15.6919C11.3615 15.7084 11.3213 15.7161 11.2811 15.7161C11.2232 15.7161 11.1653 15.6995 11.1151 15.667C11.0309 15.6115 10.9792 15.5178 10.9786 15.4165L10.9623 13.6685C10.9612 13.5536 11.025 13.4481 11.1275 13.3961C11.308 13.304 11.4882 13.2139 11.666 13.1246C11.9913 12.9616 12.3018 12.8062 12.6028 12.6467C12.5647 12.278 12.5257 11.8975 12.4832 11.5001C12.477 11.431 12.4699 11.3681 12.4628 11.3043L12.4545 11.2263C12.4504 11.184 12.4465 11.1412 12.4433 11.0969C11.0947 11.7184 10.2693 12.9654 10.2622 14.4366C10.2601 14.815 10.3201 15.3288 10.6182 15.6286C10.8046 15.8159 11.0654 15.9069 11.4161 15.9069C11.5044 15.9069 11.5996 15.9007 11.6979 15.8886C11.7103 15.8871 11.7225 15.8865 11.7349 15.8865C11.812 15.8865 11.887 15.9161 11.9437 15.9704C12.009 16.0328 12.0433 16.1217 12.0362 16.2121C11.9328 17.5678 10.8055 18.5518 9.35528 18.5518C8.83151 18.5518 8.28499 18.4295 7.73019 18.189C7.70361 18.1775 7.67849 18.1616 7.65604 18.143C6.53375 17.1979 6.15149 15.6242 6.63242 13.9335C7.18781 11.9834 9.07995 9.52997 12.5966 8.92968C13.0592 6.55833 14.2814 5.1477 15.8905 5.14327C17.1327 5.21506 17.777 6.59792 17.7809 7.92702C17.7835 8.37783 17.7002 8.85789 17.5336 9.35744C21.1141 10.5967 23.4989 13.6532 23.6407 17.2245C23.7846 21.8706 20.6816 25.4833 16.4222 25.6304C16.38 25.6322 16.3372 25.633 16.2943 25.633C15.1782 25.633 13.9892 25.1175 13.0415 24.6339C12.4563 25.1119 11.8276 25.4345 11.1706 25.5952C10.9446 25.6499 10.7145 25.6865 10.4861 25.7042C10.3987 25.7113 10.3107 25.7143 10.2223 25.7143L10.222 25.714Z" fill="white"/>
<path d="M12.5286 0.302612L13.0133 1.80423H14.5838L13.3123 2.73392L13.7983 4.23525L12.5286 3.30793L11.2571 4.23525L11.7439 2.73392L10.4736 1.80423H12.0441L12.5286 0.302612Z" fill="#AF9C68"/>
<path d="M17.5464 0.302612L18.0309 1.80423H19.6008L18.3308 2.73392L18.8176 4.23525L17.5464 3.30793L16.2761 4.23525L16.7624 2.73392L15.4912 1.80423H17.0619L17.5464 0.302612Z" fill="#AF9C68"/>
<path fill-rule="evenodd" clip-rule="evenodd" d="M20.1438 17.3554C20.0714 20.2358 18.8445 22.4922 16.137 23.3412C15.4298 23.5593 14.6667 23.4952 13.9043 23.3052C15.4041 21.3918 16.4582 18.3935 17.3279 15.2497C15.7796 14.9794 14.875 14.229 14.387 13.2875C14.6413 13.0526 14.891 12.806 15.1314 12.5513C15.6404 12.006 16.109 11.4204 16.4889 10.8201C19.0439 11.7894 20.2226 14.2559 20.1441 17.3554H20.1438ZM13.9066 11.0187C13.9084 10.8133 13.9214 10.608 13.9442 10.4074C14.2384 10.3879 14.5433 10.3936 14.8487 10.4296C15.0889 10.4565 15.3211 10.4961 15.5453 10.5436C15.2735 11.0113 14.9297 11.4018 14.5362 11.7445C14.3681 11.8899 14.1905 12.0266 14.005 12.1569C13.9424 11.8317 13.9117 11.5002 13.9058 11.1667C13.9049 11.1176 13.9058 11.068 13.9066 11.0187ZM15.7125 7.3977C16.085 7.51202 16.161 8.05766 16.0333 9.27155C15.4511 9.16224 14.847 9.10375 14.2278 9.09991C14.5947 7.99888 15.205 7.24201 15.7125 7.39799V7.3977ZM10.7454 24.3064C10.6257 24.3291 10.5017 24.3415 10.3723 24.3415C10.1404 24.2813 9.58853 24.3179 9.5457 23.6018C9.65116 23.2154 10.0393 23.1049 10.4532 23.0872C10.7507 23.076 11.2591 23.3315 11.8901 23.6727C11.5779 23.9912 11.1974 24.224 10.7454 24.3064ZM23.3381 17.2364C23.196 13.6591 20.6732 10.6485 17.1426 9.54717C17.3574 9.00124 17.4809 8.45471 17.4782 7.92768C17.4744 6.66623 16.8838 5.50316 15.8907 5.44556C14.0546 5.45058 13.1607 7.41601 12.8552 9.19474C7.38295 9.99592 5.21193 15.6887 7.8503 17.9114C9.97878 18.8352 11.6163 17.7327 11.7341 16.1888C10.3986 16.3528 9.95278 15.5117 9.95928 14.4352C9.96755 12.6193 11.1333 11.2122 12.7282 10.6565C12.73 10.8518 12.7386 11.032 12.7551 11.1944C12.7646 11.2863 12.7755 11.3764 12.7835 11.4677C12.834 11.9386 12.8798 12.3859 12.9241 12.8172C12.3971 13.1037 11.8358 13.3746 11.2644 13.6656L11.2813 15.4139C11.8272 15.1814 12.4464 14.8187 13.0789 14.3628C13.1066 14.66 13.1365 14.9546 13.1613 15.2509C13.3318 17.089 13.3105 18.7472 12.9758 21.2497C12.9067 21.7596 12.7424 22.3324 12.4768 22.8458C11.429 22.4517 10.4538 22.0142 9.71113 21.9997C9.01011 21.9634 8.00923 22.3064 7.86477 23.2872C7.65178 24.73 9.12768 25.5073 10.4627 25.4027C10.6804 25.3858 10.8928 25.3513 11.0987 25.3014C11.7974 25.1309 12.4272 24.7746 13.0006 24.2724C14.0706 24.831 15.3004 25.3684 16.4118 25.3285C20.573 25.1847 23.4743 21.6358 23.3384 17.237L23.3381 17.2364Z" fill="#1D4E9B"/>
</svg>
