<svg width="30" height="30" viewBox="0 0 30 30" fill="none" xmlns="http://www.w3.org/2000/svg">
<path fill-rule="evenodd" clip-rule="evenodd" d="M24.3704 6.84539C24.4767 13.1041 23.9553 18.0776 22.1507 21.6265C20.6468 24.5839 18.1294 26.5862 15.0969 27.857C12.6628 26.7832 9.89307 24.6706 8.36201 22.1548C6.01964 18.3058 5.46979 13.1389 5.70829 6.86556C11.0099 3.36115 19.1936 3.25658 24.3704 6.84539Z" fill="#1D1D1B"/>
<path fill-rule="evenodd" clip-rule="evenodd" d="M24.2065 6.95198C24.3114 13.1326 23.7842 18.0162 22.002 21.5209C20.5167 24.4416 18.0884 26.3692 15.0938 27.6241C12.6901 26.5637 10.0572 24.5025 8.5452 22.0179C6.232 18.217 5.68943 13.1444 5.92496 6.94935C11.1231 3.52622 19.0565 3.44602 24.2065 6.95198Z" fill="white"/>
<path fill-rule="evenodd" clip-rule="evenodd" d="M6.18898 7.10594C11.1638 3.96893 18.3117 3.62506 23.9348 7.10594C24.0306 13.6806 23.192 18.35 21.7293 21.4539C21.4485 22.0499 20.9954 22.5992 20.578 23.1434C18.9609 25.2516 16.4418 26.7173 15.1011 27.3232C12.2942 25.9287 9.9791 24.0309 8.59804 21.5718C7.30698 19.2728 6.69181 16.534 6.40254 13.4712C6.21364 11.4713 6.14018 9.3214 6.18898 7.10594Z" fill="black"/>
<path fill-rule="evenodd" clip-rule="evenodd" d="M6.52783 7.50112C6.43265 8.63482 6.49933 11.5423 6.88969 14.8384C7.32018 18.4736 8.56552 22.4426 12.0953 24.9626C13.0132 25.6179 13.9421 26.2636 15.0882 26.8062C15.638 26.5455 16.1563 26.2626 16.6605 25.9588C18.9831 24.5595 20.8075 22.9729 21.8849 20.3167C23.0419 17.464 23.5764 13.3507 23.6029 7.49825C18.4784 4.19578 11.264 4.49823 6.52783 7.50112Z" fill="white"/>
<path fill-rule="evenodd" clip-rule="evenodd" d="M7.36829 16.5392C11.957 13.3227 18.2921 13.3427 22.685 16.5455C23.1692 13.9536 23.3962 10.9594 23.3984 7.61381C18.0415 4.46494 11.69 4.70458 6.72715 7.62049C6.61673 10.7205 6.9346 13.8479 7.36829 16.5392Z" fill="#DF2A31"/>
<path fill-rule="evenodd" clip-rule="evenodd" d="M16.5171 3.70069L16.7593 3.54626L16.6859 3.69713L16.5171 3.70069Z" fill="white"/>
<path fill-rule="evenodd" clip-rule="evenodd" d="M12.6484 2.14282L17.5081 2.15401L17.5173 7.28742C17.2718 8.11274 16.6892 8.10041 16.171 8.08281C15.8049 8.07036 15.4173 8.05057 15.113 8.59489C14.9711 8.31043 14.7647 8.13734 14.5018 8.09947C13.8108 7.99998 12.9007 8.39224 12.6652 7.14931L12.6484 2.14282Z" fill="white"/>
<path fill-rule="evenodd" clip-rule="evenodd" d="M12.9365 2.42676H17.2465L17.2396 7.20342C16.9171 8.37094 15.8752 7.35449 15.1169 8.14618C14.4915 7.3464 13.0959 8.3954 12.9365 7.11817V2.42676Z" fill="black"/>
<path fill-rule="evenodd" clip-rule="evenodd" d="M16.1464 4.30005L16.2487 4.30078L15.8963 4.77643L15.7495 4.77999L16.1464 4.30005Z" fill="white"/>
<path fill-rule="evenodd" clip-rule="evenodd" d="M16.6001 3.22602L16.4472 3.30681L16.291 3.20911L16.383 3.36875L16.2971 3.51865L16.4499 3.4381L16.6062 3.53556L16.5142 3.37592L16.6001 3.22602Z" fill="white"/>
<path fill-rule="evenodd" clip-rule="evenodd" d="M15.3301 2.61042L15.1772 2.69121L15.021 2.59351L15.113 2.75315L15.0271 2.90304L15.1798 2.82249L15.3362 2.91996L15.2442 2.76031L15.3301 2.61042Z" fill="white"/>
<path fill-rule="evenodd" clip-rule="evenodd" d="M17.1001 4.80366L16.9472 4.88445L16.791 4.78674L16.883 4.94639L16.7971 5.09628L16.9499 5.01573L17.1062 5.1132L17.0142 4.95355L17.1001 4.80366Z" fill="white"/>
<path fill-rule="evenodd" clip-rule="evenodd" d="M13.4951 4.77814L13.3422 4.85893L13.186 4.76123L13.278 4.92087L13.1921 5.07077L13.3449 4.99022L13.5012 5.08769L13.4092 4.92804L13.4951 4.77814Z" fill="white"/>
<path fill-rule="evenodd" clip-rule="evenodd" d="M16.626 6.37445L16.4731 6.45524L16.3169 6.35754L16.4089 6.51719L16.323 6.66707L16.4757 6.58653L16.6321 6.68399L16.5401 6.52435L16.626 6.37445Z" fill="white"/>
<path fill-rule="evenodd" clip-rule="evenodd" d="M15.2837 7.05L15.1308 7.13079L14.9746 7.03308L15.0666 7.19273L14.9807 7.34262L15.1335 7.26207L15.2898 7.35954L15.1978 7.19989L15.2837 7.05Z" fill="white"/>
<path fill-rule="evenodd" clip-rule="evenodd" d="M13.9443 6.35346L13.7915 6.43425L13.6353 6.33655L13.7273 6.49619L13.6413 6.64609L13.7941 6.56554L13.9504 6.663L13.8584 6.50336L13.9443 6.35346Z" fill="white"/>
<path fill-rule="evenodd" clip-rule="evenodd" d="M13.4492 4.69871L13.4871 4.51187L13.6862 4.30422L14.1729 4.30574L14.338 4.48876L14.2631 4.24356L14.182 4.2841L13.8886 4.27787L14.1561 4.0846L14.351 4.07938L14.4978 4.36222L14.7394 4.30554L14.9211 4.12753L14.9525 3.87277L14.6019 3.76552L14.4628 3.3709L14.4138 3.37333C14.2989 3.41486 14.2157 3.43876 14.1631 3.47981C14.0535 3.56521 14.0589 3.67398 14.0663 3.8054C14.0708 3.88622 14.0786 3.9868 14.032 4.10446C14.0278 4.11501 14.0242 4.12209 14.0161 4.13261C14.0008 4.15201 13.9595 4.14921 13.9682 4.10895C13.9743 4.08038 13.9866 4.0329 13.992 4.00627C14.03 3.81954 13.8848 3.58713 14.0498 3.40553C14.092 3.35908 14.1591 3.32342 14.2488 3.28624C14.2758 3.27503 14.3094 3.25944 14.3407 3.24415L14.348 3.20005L14.4533 3.10664L14.4791 3.11235C14.7485 2.69719 15.0014 3.03096 15.3014 3.02398C15.3161 3.02367 15.3345 3.02405 15.3497 3.02467C15.3903 3.02526 15.3861 3.06687 15.3587 3.07842C15.1013 3.13566 14.9157 2.94935 14.7383 3.03637C14.6815 3.06428 14.6312 3.12245 14.5727 3.2234L14.566 3.29489L14.7247 3.63375L15.021 3.65831L15.2304 3.78482L15.2562 3.74861L15.1716 3.66616L15.1605 3.64184L15.1952 3.60681L15.2127 3.6147L15.2063 3.57921L15.236 3.55418L15.1951 3.50745L15.2872 3.46335L15.329 3.45145L15.3277 3.42618C15.4028 3.36281 15.4749 3.39485 15.5324 3.42431C15.5975 3.45768 15.6396 3.50358 15.6577 3.53087C15.6674 3.54746 15.666 3.55871 15.6722 3.57551C15.6935 3.63292 15.6951 3.69335 15.6624 3.72813L15.5307 3.78292L15.4823 3.83393L15.8019 3.83632L15.9004 3.72931L17.1431 3.72575L17.044 3.85465L16.8451 3.85634L16.8082 3.90235L17.0009 3.90351L16.8837 4.04386L16.7194 4.041L16.6709 4.09319L16.8434 4.09298L16.7335 4.22617L16.0126 4.23167L15.9475 4.30312H16.1042L16.0431 4.37485L15.8896 4.37464L15.8351 4.43754L15.988 4.4373L15.9264 4.51021H15.7734L15.7144 4.58004H15.8677L15.7901 4.66415L15.1913 4.66322L15.2863 4.49852L15.1338 4.37772L15.2756 4.27621L15.3724 4.06462L15.3984 4.19255L15.6418 4.19517L15.6691 4.0846L15.7446 4.07915L15.7521 3.97189L15.5553 3.97642L15.5105 4.15444L15.4367 4.15419L15.4382 3.9843L15.2463 3.98262L15.1537 4.18826L15.0371 4.2114L15.0316 4.449L15.1952 4.51547L15.0779 4.67106L15.1143 4.88981L15.3715 5.1739C15.6353 5.22167 15.78 5.40635 15.7788 5.77441L15.8898 5.77537L16.1269 5.93405L16.1359 6.4843L16.2261 6.80051L15.8355 6.58245L15.8403 5.94477L15.7635 5.94003C15.7366 6.05087 15.6797 6.13761 15.5996 6.19143L15.603 6.6568L15.5935 6.71616L15.1528 6.70353L15.1379 6.91108L14.8814 6.91059L14.9412 6.69042L15.0633 6.59867L15.3905 6.5765L15.393 6.55336L14.9287 6.54576L14.8578 6.73331L14.6184 6.73209L14.7079 6.53767L14.8614 6.39085L15.2837 6.4035L15.3109 6.3601L15.09 6.05679L15.012 5.83658C14.6309 5.71764 14.471 5.43235 14.4926 4.9437L14.3781 4.93938L14.1051 4.4914L14.052 4.47283L13.9865 4.61365L13.9947 4.79951L13.7654 4.79212L13.7961 4.57623L13.8437 4.49043L13.9817 4.48949L13.9965 4.46878L13.7866 4.44252L13.6984 4.48638L13.6794 4.69942L13.4492 4.69871ZM15.0275 5.59615L15.0909 5.50989L15.1909 5.58971L15.1586 5.71958L15.3251 5.51916L15.5344 5.56399L15.4199 5.859L15.712 5.91212L15.4553 6.07298L15.3957 5.8976L15.3408 5.92689L15.277 5.80346L15.1443 5.79034L15.0275 5.59615ZM14.8929 4.72325L14.8316 4.81238L14.7092 4.81813L14.7053 4.88245L14.754 4.96798L14.8022 5.10598L14.8196 5.30114L15.1079 5.29422L15.2082 5.40835L15.2761 5.38431L15.1748 5.23442L15.0736 5.197L15.0077 5.05496L14.9338 5.03542L14.8929 4.72325ZM16.4601 3.77506L15.9208 3.77435L15.9323 4.07174L16.0916 4.12988L16.2167 4.07675L16.4601 3.77506Z" fill="white"/>
<path fill-rule="evenodd" clip-rule="evenodd" d="M13.8028 14.6633C14.677 14.5629 15.5384 14.56 16.3856 14.6643V22.4306C15.5769 22.7988 14.7193 22.8225 13.8027 22.4306L13.8028 14.6633Z" fill="black"/>
<path fill-rule="evenodd" clip-rule="evenodd" d="M17.6011 14.7778C18.6071 14.9563 19.4775 15.2254 20.1841 15.604V22.0156C19.4858 22.9292 18.5968 23.6436 17.6011 24.2463V14.7778Z" fill="black"/>
<path fill-rule="evenodd" clip-rule="evenodd" d="M12.5816 14.7778C11.5756 14.9563 10.7052 15.2254 9.99854 15.604V22.0156C10.6969 22.9292 11.5858 23.6436 12.5816 24.2463V14.7778Z" fill="black"/>
<path fill-rule="evenodd" clip-rule="evenodd" d="M8.5127 14.2966L8.80151 14.1682L9.23272 14.5761L9.2331 13.9761L9.50117 13.8567L9.51403 13.8853L9.48007 13.9003C9.46413 13.9075 9.45195 13.9182 9.44338 13.9327C9.4348 13.9473 9.43601 13.9668 9.44694 13.9916L9.68894 14.5351C9.70789 14.5775 9.7379 14.5898 9.77893 14.5716L9.81289 14.5563L9.82551 14.5852L9.47184 14.7425L9.45922 14.7138L9.49308 14.6988C9.50915 14.6917 9.5213 14.6808 9.52977 14.6663C9.53824 14.6515 9.53703 14.6318 9.52621 14.6076L9.27896 14.0523L9.28159 14.8273L9.25479 14.8393L8.68464 14.2954L8.93975 14.8688C8.9587 14.9111 8.98873 14.9233 9.02981 14.9053L9.06343 14.89L9.07629 14.9188L8.83703 15.0253L8.82427 14.9965L8.85799 14.9815C8.87408 14.9743 8.88635 14.9636 8.89458 14.9488C8.90316 14.934 8.90198 14.9145 8.89126 14.8904L8.64913 14.3466C8.6383 14.3223 8.62457 14.3083 8.60791 14.3049C8.59158 14.3014 8.57539 14.303 8.55932 14.3104L8.52546 14.3254L8.5127 14.2966Z" fill="white"/>
<path fill-rule="evenodd" clip-rule="evenodd" d="M9.81739 14.162C9.83825 14.2161 9.86339 14.2666 9.89295 14.313C9.92249 14.3598 9.95847 14.3953 10.0009 14.4193C10.0432 14.4438 10.09 14.4463 10.1415 14.4265C10.1928 14.4067 10.2261 14.3736 10.2412 14.3271C10.2562 14.2809 10.2592 14.2303 10.2499 14.176C10.2407 14.1217 10.2257 14.0674 10.2049 14.013C10.1841 13.9592 10.159 13.9087 10.1294 13.8622C10.0999 13.8155 10.0641 13.78 10.022 13.7557C9.97956 13.7313 9.93273 13.729 9.88127 13.7487C9.82991 13.7685 9.79668 13.8014 9.78153 13.8479C9.76617 13.8943 9.7632 13.9449 9.7725 13.9992C9.78167 14.0535 9.79678 14.1079 9.81739 14.162ZM9.63187 14.2332C9.61044 14.1775 9.59961 14.1224 9.59961 14.0681C9.59947 14.0137 9.60936 13.963 9.62949 13.9153C9.64952 13.8679 9.67929 13.8257 9.71886 13.7883C9.75843 13.7514 9.80633 13.7221 9.86266 13.7004C9.93965 13.6708 10.0135 13.6622 10.0842 13.6744C10.1548 13.6868 10.2167 13.7163 10.2698 13.7637C10.323 13.8114 10.3631 13.8708 10.3905 13.942C10.418 14.0137 10.4279 14.085 10.4201 14.1558C10.4121 14.2265 10.386 14.2899 10.3417 14.3462C10.2973 14.4023 10.2368 14.4453 10.1599 14.4748C10.083 14.5044 10.0091 14.5132 9.93844 14.5008C9.86792 14.4888 9.80584 14.4591 9.75282 14.4117C9.6997 14.3645 9.65941 14.3049 9.63187 14.2332Z" fill="white"/>
<path fill-rule="evenodd" clip-rule="evenodd" d="M10.971 13.3253L11.0506 13.5853L11.0193 13.5948C11.0014 13.5581 10.9774 13.5274 10.9475 13.5026C10.9176 13.4778 10.8846 13.4611 10.8485 13.4526C10.8125 13.4442 10.777 13.4452 10.7419 13.4561C10.7003 13.4687 10.6653 13.4912 10.6369 13.5236C10.6084 13.5562 10.5911 13.6012 10.5851 13.6592C10.5788 13.7168 10.5883 13.7866 10.6135 13.8693C10.6299 13.9227 10.65 13.9687 10.6737 14.0075C10.6977 14.0461 10.7243 14.0766 10.7542 14.0988C10.7838 14.1212 10.8161 14.1348 10.8506 14.1405C10.8853 14.1458 10.9213 14.1429 10.9585 14.1315C11.0072 14.1167 11.0457 14.0898 11.0741 14.0512C11.1023 14.0128 11.1243 13.9611 11.1398 13.8962L11.1785 13.9044C11.1625 13.9982 11.132 14.0678 11.0873 14.1129C11.0425 14.1577 10.992 14.1889 10.9357 14.2061C10.8784 14.2237 10.8223 14.2294 10.7674 14.2237C10.7122 14.2182 10.6619 14.2022 10.6161 14.1762C10.5703 14.1503 10.5307 14.1157 10.4973 14.0731C10.4639 14.0302 10.4389 13.9818 10.4223 13.928C10.4059 13.8739 10.3991 13.8202 10.402 13.7661C10.4049 13.7123 10.4177 13.662 10.44 13.6153C10.4624 13.5686 10.4943 13.5276 10.5359 13.4921C10.5773 13.4568 10.6275 13.4301 10.6862 13.4123C10.7199 13.402 10.7488 13.3963 10.7724 13.3958C10.7962 13.3949 10.8222 13.3961 10.8504 13.399C10.8822 13.402 10.9027 13.402 10.9119 13.3994C10.9349 13.3923 10.9443 13.3706 10.9399 13.3348L10.971 13.3253Z" fill="white"/>
<path fill-rule="evenodd" clip-rule="evenodd" d="M11.4255 13.6172L11.5882 13.2909C11.5981 13.2705 11.6015 13.2547 11.5988 13.2438C11.5937 13.223 11.5781 13.2159 11.5521 13.2226L11.5132 13.2321L11.5056 13.2018L11.7954 13.1294L11.803 13.1599C11.7728 13.1675 11.7479 13.1775 11.7277 13.1899C11.7077 13.2021 11.6915 13.2166 11.6786 13.2328C11.6659 13.2492 11.6526 13.2709 11.6382 13.2983L11.5418 13.4863L11.9095 13.8331C11.9258 13.8483 11.9402 13.8591 11.9528 13.865C11.9655 13.871 11.9801 13.8724 11.9968 13.8688L12.0043 13.8993L11.6721 13.982L11.6645 13.9518L11.6889 13.9455C11.7155 13.9391 11.7268 13.9272 11.7226 13.9108C11.7209 13.9043 11.711 13.8915 11.693 13.8726L11.4593 13.6451L11.4411 13.6796L11.5011 13.9205C11.5123 13.9656 11.5398 13.9827 11.5833 13.972L11.6119 13.9648L11.6196 13.9951L11.2515 14.0868L11.2439 14.0566L11.2797 14.0476C11.2968 14.0432 11.3107 14.0347 11.3214 14.0218C11.3324 14.0087 11.3347 13.9892 11.3282 13.9634L11.1843 13.3863C11.1777 13.36 11.1667 13.3441 11.1509 13.3379C11.1354 13.3314 11.119 13.3305 11.102 13.3348L11.0662 13.3436L11.0586 13.3131L11.4338 13.2197L11.4414 13.25L11.4056 13.259C11.3887 13.2633 11.3747 13.2716 11.3637 13.2845C11.3529 13.2974 11.3506 13.3169 11.3572 13.3431L11.4255 13.6172Z" fill="white"/>
<path fill-rule="evenodd" clip-rule="evenodd" d="M12.0757 13.4756C12.0868 13.5326 12.1028 13.5867 12.1237 13.6376C12.1448 13.6887 12.174 13.7299 12.2117 13.7611C12.2491 13.7925 12.2948 13.8028 12.3488 13.7923C12.4029 13.7818 12.4414 13.7551 12.4644 13.7118C12.4872 13.6689 12.4988 13.6198 12.4992 13.5647C12.4995 13.5094 12.4942 13.4534 12.4831 13.3965C12.472 13.3395 12.456 13.2857 12.4349 13.2347C12.4141 13.1835 12.3848 13.1425 12.3476 13.111C12.3101 13.0798 12.2643 13.0693 12.2103 13.0798C12.1563 13.0903 12.1178 13.117 12.0948 13.1603C12.0717 13.2033 12.06 13.2523 12.0597 13.3076C12.0593 13.3627 12.0646 13.4189 12.0757 13.4756ZM11.8806 13.5135C11.8691 13.4551 11.8681 13.3989 11.8773 13.3453C11.8868 13.2919 11.9053 13.2435 11.9335 13.2001C11.9613 13.1568 11.998 13.1206 12.0434 13.0905C12.0888 13.061 12.141 13.0405 12.2002 13.0291C12.2813 13.0133 12.3556 13.0176 12.423 13.0419C12.4905 13.0662 12.5462 13.1062 12.5903 13.162C12.6343 13.218 12.6636 13.2836 12.6781 13.3586C12.6929 13.4339 12.6903 13.5059 12.6701 13.574C12.65 13.6424 12.6133 13.7005 12.5599 13.748C12.5065 13.7959 12.4394 13.8276 12.3586 13.8433C12.2777 13.8591 12.2035 13.8547 12.136 13.8304C12.0686 13.8064 12.0127 13.7663 11.9686 13.7106C11.9245 13.6546 11.8952 13.589 11.8806 13.5135V13.5135Z" fill="white"/>
<path fill-rule="evenodd" clip-rule="evenodd" d="M12.9931 13.3393L13.0283 13.5903C13.0356 13.642 13.0618 13.6649 13.107 13.6584C13.1539 13.6517 13.1882 13.6313 13.2098 13.5967C13.2315 13.5619 13.2389 13.5193 13.2317 13.4685C13.2262 13.4299 13.2099 13.3953 13.1823 13.3646C13.1548 13.3339 13.1053 13.3236 13.034 13.3336L12.9931 13.3393ZM12.9427 12.9807L12.9858 13.2881L13.029 13.2833C13.0653 13.2781 13.0934 13.2666 13.1139 13.2486C13.1342 13.2307 13.1477 13.2095 13.1539 13.1844C13.1604 13.1597 13.1615 13.1337 13.1577 13.1068C13.1499 13.05 13.1274 13.0126 13.0903 12.9943C13.0533 12.9759 13.0123 12.97 12.9672 12.9762C12.9556 12.9778 12.9475 12.9795 12.9427 12.9807ZM12.7667 13.7585L12.7624 13.7275L12.7988 13.7223C12.8164 13.7199 12.831 13.7128 12.8431 13.7011C12.8553 13.6892 12.8596 13.6701 12.8559 13.6439L12.7731 13.0546C12.7693 13.0281 12.76 13.0107 12.745 13.0029C12.7302 12.995 12.714 12.9924 12.6966 12.9948L12.66 12.9998L12.6558 12.9688L13.0245 12.9171C13.0885 12.908 13.1414 12.9083 13.1832 12.9183C13.2252 12.9278 13.2571 12.9423 13.2792 12.9616C13.3011 12.9812 13.3162 13.0005 13.3245 13.0198C13.333 13.0391 13.3382 13.057 13.3406 13.0737C13.3459 13.111 13.3412 13.1444 13.3266 13.173C13.3119 13.2018 13.2914 13.2247 13.2647 13.2421C13.2382 13.2595 13.2102 13.2707 13.1805 13.2759L13.1823 13.2891C13.2171 13.2862 13.2516 13.29 13.2859 13.3C13.3204 13.3101 13.3503 13.3279 13.376 13.3539C13.4014 13.3798 13.417 13.4135 13.4228 13.4547C13.4423 13.5929 13.3469 13.677 13.1368 13.7066L12.7667 13.7585Z" fill="white"/>
<path fill-rule="evenodd" clip-rule="evenodd" d="M14.124 12.7931L14.1431 13.0643L14.1105 13.0667C14.1011 13.0269 14.0848 12.9916 14.0612 12.9609C14.0376 12.9297 14.0093 12.9061 13.9759 12.8896C13.9429 12.8734 13.9079 12.8665 13.8713 12.8691C13.8279 12.872 13.7889 12.8861 13.7538 12.9113C13.7188 12.9365 13.6919 12.9768 13.6728 13.0317C13.6537 13.0864 13.6472 13.1568 13.6534 13.2428C13.6572 13.2986 13.6665 13.3481 13.6809 13.391C13.6956 13.4341 13.7146 13.4699 13.7387 13.4983C13.7627 13.5266 13.7909 13.5473 13.8234 13.5604C13.8559 13.5733 13.8917 13.5786 13.9305 13.5759C13.9813 13.5724 14.0249 13.555 14.0612 13.5237C14.0973 13.4925 14.1305 13.4472 14.16 13.3874L14.1961 13.4041C14.1591 13.492 14.1138 13.5528 14.0602 13.5866C14.0064 13.6202 13.9502 13.6393 13.8914 13.6434C13.8318 13.6477 13.7756 13.6407 13.7234 13.6229C13.671 13.605 13.6255 13.5783 13.5868 13.5425C13.5479 13.5068 13.5172 13.4644 13.4942 13.4151C13.4713 13.366 13.4577 13.3133 13.4538 13.2568C13.45 13.2006 13.4555 13.1468 13.4705 13.0948C13.4854 13.0431 13.5091 12.9969 13.5414 12.9563C13.5737 12.9158 13.6139 12.8832 13.6626 12.8579C13.7108 12.8329 13.7657 12.8181 13.827 12.8138C13.8621 12.8115 13.8914 12.8124 13.9147 12.8172C13.938 12.8215 13.9629 12.8286 13.99 12.8379C14.0202 12.8479 14.0403 12.8527 14.0498 12.852C14.0737 12.8503 14.0877 12.8315 14.0916 12.7955L14.124 12.7931Z" fill="white"/>
<path fill-rule="evenodd" clip-rule="evenodd" d="M14.4689 13.1842L14.7007 12.9028C14.7149 12.8852 14.7219 12.8709 14.7217 12.8594C14.7213 12.8382 14.7077 12.8278 14.6809 12.8282L14.6409 12.8289L14.6404 12.7975L14.939 12.7922L14.9395 12.8237C14.9083 12.8244 14.8818 12.8284 14.8595 12.8358C14.8371 12.8434 14.8181 12.8537 14.8019 12.8668C14.7858 12.8797 14.7678 12.898 14.7479 12.9214L14.6117 13.083L14.8918 13.5035C14.9042 13.5221 14.9158 13.5357 14.927 13.5443C14.9379 13.5531 14.9518 13.5579 14.9688 13.5579L14.9693 13.5894L14.627 13.5953L14.6264 13.5641L14.6515 13.5636C14.6789 13.5631 14.6925 13.5543 14.6922 13.5369C14.692 13.5302 14.6854 13.516 14.672 13.4933L14.4954 13.219L14.4699 13.2486L14.4742 13.4967C14.475 13.5433 14.4979 13.5662 14.5428 13.5655L14.5723 13.5648L14.5729 13.5963L14.1936 13.6029L14.193 13.5715L14.23 13.571C14.2476 13.5705 14.263 13.5653 14.2764 13.555C14.29 13.5448 14.2966 13.5264 14.2961 13.4997L14.2857 12.9049C14.2852 12.878 14.278 12.8599 14.2641 12.8501C14.2503 12.8406 14.2346 12.8358 14.2171 12.8363L14.1801 12.8368L14.1797 12.8056L14.5663 12.7987L14.5669 12.8301L14.53 12.8308C14.5126 12.8311 14.4971 12.8363 14.4835 12.8463C14.4699 12.8563 14.4634 12.8747 14.4638 12.9019L14.4689 13.1842Z" fill="white"/>
<path fill-rule="evenodd" clip-rule="evenodd" d="M15.3174 13.034L15.2132 13.29L15.4237 13.2936L15.3174 13.034ZM14.9854 13.5817L14.9859 13.5505H14.9925C15.0084 13.5507 15.0212 13.5485 15.0316 13.5438C15.0421 13.5393 15.0516 13.5299 15.0605 13.5166C15.0695 13.5035 15.079 13.4842 15.0896 13.4589L15.3721 12.7748L15.398 12.7753L15.6926 13.5114C15.707 13.5457 15.7285 13.5633 15.757 13.5638H15.7602L15.7596 13.5952L15.3938 13.5888L15.3943 13.5576L15.428 13.5581C15.458 13.5586 15.4779 13.5552 15.4878 13.5476C15.4975 13.5404 15.5023 13.5299 15.5026 13.5164C15.5027 13.5111 15.5003 13.5016 15.4955 13.4875L15.4404 13.3458L15.1916 13.3412L15.1428 13.4599C15.1352 13.4751 15.1314 13.4906 15.1312 13.5059C15.1309 13.5252 15.139 13.538 15.1556 13.5445C15.1724 13.5507 15.1948 13.554 15.2227 13.5545H15.2269L15.2263 13.5859L14.9854 13.5817Z" fill="white"/>
<path fill-rule="evenodd" clip-rule="evenodd" d="M16.3122 13.2305L16.3355 12.8952L16.2871 12.8919C16.1806 12.8842 16.1238 12.9336 16.1164 13.0394C16.1136 13.0806 16.1167 13.1137 16.126 13.1394C16.1353 13.1649 16.1482 13.1838 16.1646 13.1962C16.1811 13.2085 16.1977 13.2164 16.2144 13.22C16.2309 13.2236 16.2501 13.2262 16.272 13.2276L16.3122 13.2305ZM16.2906 13.5381L16.3085 13.2822C16.2895 13.2808 16.2748 13.281 16.2643 13.2829C16.2539 13.2846 16.2443 13.2893 16.2355 13.2967C16.2264 13.3041 16.2163 13.3162 16.2048 13.3332L16.0117 13.6201L15.7764 13.6036L15.7782 13.5779C15.7966 13.5774 15.8135 13.5727 15.829 13.5638C15.8444 13.5548 15.8565 13.5443 15.8653 13.5322L16.0096 13.3368C16.0264 13.3143 16.0419 13.297 16.0566 13.2846C16.0711 13.2719 16.0907 13.2643 16.1152 13.2619L16.1157 13.2536C16.0791 13.2507 16.0459 13.24 16.0163 13.2217C15.9868 13.2033 15.9643 13.1778 15.9485 13.1451C15.9328 13.1125 15.9266 13.0746 15.9296 13.0315C15.9327 12.9872 15.9459 12.9493 15.9691 12.9183C15.9921 12.8871 16.0237 12.8645 16.0631 12.8501C16.1028 12.8359 16.1482 12.8304 16.1993 12.834L16.621 12.8633L16.6188 12.8947L16.5819 12.8921C16.5644 12.8909 16.5486 12.8947 16.5343 12.9035C16.5198 12.9126 16.5116 12.9302 16.5098 12.9571L16.4684 13.5505C16.4652 13.5972 16.4859 13.6218 16.5307 13.6251L16.5675 13.6275L16.5654 13.659L16.1797 13.6318L16.1819 13.6005L16.2185 13.6032C16.2361 13.6044 16.252 13.6006 16.2663 13.5918C16.2806 13.5824 16.2887 13.5648 16.2906 13.5381Z" fill="white"/>
<path fill-rule="evenodd" clip-rule="evenodd" d="M17.0017 13.3187C16.9936 13.3764 16.9912 13.4326 16.9944 13.4877C16.9976 13.5427 17.0118 13.5911 17.0372 13.6328C17.0624 13.6747 17.1023 13.6995 17.1568 13.7072C17.2113 13.715 17.2564 13.7022 17.2923 13.6688C17.3278 13.6357 17.3549 13.5928 17.3731 13.5408C17.3915 13.4889 17.4046 13.4341 17.4127 13.3767C17.4207 13.3192 17.4231 13.263 17.4199 13.2079C17.4167 13.1529 17.4024 13.1045 17.3774 13.0628C17.3522 13.0209 17.3123 12.9961 17.2579 12.9885C17.2033 12.9808 17.1581 12.9934 17.1224 13.0268C17.0865 13.0599 17.0595 13.1026 17.0412 13.1548C17.0229 13.2067 17.0097 13.2616 17.0017 13.3187ZM16.8049 13.2911C16.8131 13.2322 16.8304 13.1786 16.8566 13.1312C16.8828 13.0836 16.9162 13.0437 16.9569 13.0121C16.9974 12.9801 17.0439 12.9577 17.0965 12.9444C17.1491 12.931 17.2052 12.9286 17.2649 12.937C17.3466 12.9484 17.4154 12.9768 17.4713 13.0218C17.5271 13.0666 17.5668 13.1229 17.5903 13.1901C17.6137 13.2573 17.6202 13.3288 17.6095 13.4043C17.5989 13.4803 17.5729 13.5475 17.5317 13.6054C17.4905 13.6636 17.437 13.7065 17.3708 13.7341C17.3047 13.762 17.231 13.7701 17.1494 13.7586C17.0678 13.747 16.999 13.7188 16.9432 13.6741C16.8873 13.6292 16.8474 13.5732 16.8239 13.506C16.8005 13.4388 16.7941 13.3674 16.8049 13.2911Z" fill="white"/>
<path fill-rule="evenodd" clip-rule="evenodd" d="M17.8831 13.4635L17.8367 13.7268C17.8277 13.7776 17.8457 13.8069 17.8906 13.8148C17.9137 13.8188 17.9375 13.8176 17.9619 13.8112C17.9864 13.8045 18.0086 13.7902 18.0284 13.7676C18.0484 13.7452 18.0618 13.7135 18.069 13.673C18.0807 13.607 18.0714 13.5583 18.0412 13.5269C18.0107 13.4957 17.9721 13.4759 17.9254 13.4676C17.9091 13.4647 17.8949 13.4633 17.8831 13.4635ZM18.2887 13.1277L18.2496 13.3503L18.2184 13.3448C18.2209 13.2986 18.2101 13.2557 18.1865 13.2159C18.1627 13.1761 18.1179 13.1501 18.0519 13.1387L17.9437 13.1196L17.8927 13.4097C17.9153 13.4103 17.9501 13.4151 17.9972 13.4235C18.0851 13.4389 18.1485 13.4659 18.1878 13.504C18.2269 13.5421 18.2494 13.5791 18.2553 13.6146C18.261 13.6503 18.2619 13.6801 18.2577 13.7039C18.2487 13.7554 18.2293 13.7945 18.2 13.8212C18.1705 13.8479 18.1368 13.865 18.0989 13.8726C18.0609 13.88 18.0252 13.8827 17.992 13.88C17.959 13.8779 17.9246 13.8734 17.8893 13.8672L17.5371 13.805L17.5426 13.7742L17.5789 13.7807C17.5962 13.7835 17.6125 13.7814 17.6277 13.7738C17.6429 13.7664 17.6528 13.7497 17.6575 13.7237L17.7608 13.1375C17.7654 13.1113 17.7618 13.0918 17.7501 13.0798C17.7384 13.0677 17.7238 13.0601 17.7065 13.057L17.6702 13.0505L17.6757 13.0198L18.2887 13.1277Z" fill="white"/>
<path fill-rule="evenodd" clip-rule="evenodd" d="M18.6572 14.0399L18.6644 14.0094L18.7005 14.0177C18.7175 14.0215 18.7338 14.0203 18.7493 14.0137C18.765 14.007 18.7758 13.9908 18.7817 13.9651L18.9267 13.3369L18.735 13.2926L18.648 13.6696C18.6335 13.7322 18.6146 13.7894 18.5908 13.8416C18.567 13.8936 18.5365 13.9343 18.4993 13.9634C18.4621 13.9925 18.4186 14.001 18.3687 13.9896C18.3247 13.9796 18.2946 13.961 18.2783 13.9338C18.2622 13.9067 18.2576 13.879 18.264 13.8507C18.2687 13.8304 18.2785 13.8137 18.2937 13.8011C18.3087 13.7887 18.3286 13.7852 18.3535 13.7909C18.378 13.7966 18.3942 13.8073 18.4023 13.823C18.4102 13.839 18.4126 13.8543 18.4092 13.8688C18.4077 13.8752 18.4063 13.8795 18.4047 13.8821C18.4036 13.8843 18.4024 13.8876 18.4015 13.8924C18.3968 13.9126 18.4043 13.925 18.424 13.9295C18.4548 13.9367 18.4855 13.9167 18.5162 13.8697C18.5471 13.8225 18.5758 13.7406 18.6027 13.6236L18.6715 13.3264C18.6762 13.3057 18.6736 13.2881 18.6637 13.2735C18.6539 13.2592 18.6392 13.2495 18.62 13.2449L18.5882 13.2378L18.5952 13.207L19.2137 13.35L19.2066 13.3805L19.1706 13.3722C19.1537 13.3681 19.1374 13.3695 19.1218 13.376C19.1062 13.3824 19.0953 13.3989 19.0892 13.4251L18.9554 14.0051C18.945 14.0501 18.9615 14.078 19.0054 14.088L19.0414 14.0964L19.0343 14.1269L18.6572 14.0399Z" fill="white"/>
<path fill-rule="evenodd" clip-rule="evenodd" d="M19.5363 13.7132L19.3694 13.9334L19.5718 13.9913L19.5363 13.7132ZM19.0737 14.1562L19.0825 14.126L19.0889 14.1279C19.104 14.1324 19.1171 14.1333 19.1284 14.1317C19.1396 14.1298 19.1512 14.1235 19.1633 14.1128C19.1752 14.1024 19.1897 14.0862 19.2062 14.0645L19.6563 13.4768L19.6811 13.484L19.7751 14.2713C19.7802 14.3083 19.7964 14.3309 19.8237 14.3387L19.8268 14.3395L19.8182 14.3697L19.4665 14.2687L19.475 14.2387L19.5075 14.248C19.5364 14.2563 19.5563 14.258 19.5679 14.2535C19.5792 14.2489 19.5865 14.2399 19.5903 14.227C19.5917 14.222 19.5919 14.212 19.5909 14.1972L19.5744 14.0459L19.3353 13.9775L19.2575 14.0792C19.2461 14.0921 19.2386 14.1059 19.2343 14.1205C19.2291 14.1393 19.2336 14.1538 19.248 14.1643C19.2625 14.1746 19.2832 14.1836 19.31 14.1915L19.3141 14.1924L19.3056 14.2227L19.0737 14.1562Z" fill="white"/>
<path fill-rule="evenodd" clip-rule="evenodd" d="M20.6553 13.8171L20.5623 14.0726L20.5317 14.0614C20.5392 14.0214 20.5387 13.9825 20.5296 13.9446C20.5208 13.9067 20.5045 13.8736 20.4808 13.845C20.4571 13.8166 20.428 13.7961 20.3935 13.7835C20.3527 13.7687 20.3111 13.7656 20.269 13.7744C20.2267 13.7833 20.1858 13.809 20.146 13.8514C20.1062 13.8936 20.0718 13.9553 20.0423 14.0364C20.0232 14.089 20.0116 14.1379 20.0073 14.1831C20.0031 14.2284 20.0061 14.2687 20.0163 14.3044C20.0267 14.3402 20.0441 14.3705 20.0685 14.3957C20.0929 14.421 20.1235 14.4403 20.16 14.4533C20.2077 14.4708 20.2547 14.4727 20.3006 14.4588C20.3462 14.4453 20.3949 14.4172 20.4463 14.3747L20.4724 14.4045C20.4031 14.4698 20.3368 14.507 20.2741 14.516C20.2114 14.5248 20.1522 14.5193 20.0969 14.4993C20.0406 14.4788 19.9923 14.4498 19.9518 14.4122C19.9111 14.3745 19.8805 14.3316 19.8597 14.2832C19.8387 14.2346 19.8278 14.1836 19.8267 14.1293C19.8258 14.075 19.835 14.0214 19.8544 13.9682C19.8737 13.9153 19.9007 13.8681 19.9354 13.8269C19.9702 13.7857 20.0106 13.753 20.0566 13.7292C20.1025 13.7053 20.1526 13.6918 20.2071 13.6887C20.2617 13.6853 20.3177 13.6941 20.3753 13.7154C20.4086 13.7273 20.4349 13.7401 20.4542 13.754C20.4737 13.7673 20.4936 13.784 20.5146 13.8035C20.538 13.825 20.5544 13.8374 20.5634 13.8407C20.586 13.8491 20.6065 13.8374 20.6245 13.8059L20.6553 13.8171Z" fill="white"/>
<path fill-rule="evenodd" clip-rule="evenodd" d="M21.0886 14.0714L20.8471 14.6693C20.8297 14.7122 20.8419 14.7423 20.8834 14.7591L20.9247 14.7756L20.913 14.8046L20.5405 14.6543L20.5522 14.6253L20.5936 14.6418C20.6096 14.6483 20.6259 14.6495 20.6425 14.6455C20.6589 14.6412 20.6721 14.6269 20.6819 14.6026L20.9234 14.0047L20.8933 13.9925C20.8616 13.9797 20.8338 13.9716 20.8103 13.9682C20.7863 13.9649 20.7606 13.9713 20.7328 13.9878C20.7049 14.0042 20.6779 14.0357 20.6519 14.0828L20.6226 14.0709L20.7072 13.8615L21.3438 14.1188L21.2591 14.3283L21.23 14.3164C21.2439 14.2644 21.2464 14.223 21.2378 14.1917C21.229 14.1608 21.2151 14.1384 21.1957 14.1241C21.1763 14.11 21.1507 14.0967 21.1187 14.0838L21.0886 14.0714Z" fill="white"/>
<path fill-rule="evenodd" clip-rule="evenodd" d="M21.4534 14.6163L21.3364 14.8565C21.3138 14.9027 21.323 14.936 21.3639 14.9562C21.3852 14.9664 21.4085 14.9718 21.4337 14.9723C21.4591 14.9728 21.4842 14.965 21.5095 14.9487C21.5348 14.9325 21.5565 14.9058 21.5744 14.869C21.6014 14.8137 21.6059 14.766 21.5883 14.7257C21.5706 14.6854 21.5393 14.6545 21.494 14.6322C21.4802 14.6257 21.4667 14.6202 21.4534 14.6163ZM21.0259 14.8489L21.0396 14.8205L21.0727 14.8368C21.0886 14.8444 21.1048 14.8467 21.1214 14.8437C21.1381 14.8408 21.1523 14.8275 21.1638 14.8037L21.4249 14.2687C21.4365 14.2446 21.4384 14.225 21.4303 14.2103C21.4224 14.1955 21.4107 14.1841 21.3949 14.1764L21.3616 14.1602L21.3754 14.1321L21.723 14.3015L21.7094 14.3299L21.676 14.3137C21.6606 14.306 21.6443 14.3035 21.6276 14.3063C21.611 14.3092 21.5967 14.3225 21.5849 14.3467L21.4776 14.567C21.499 14.5742 21.5312 14.5882 21.5742 14.6092C21.6545 14.6485 21.708 14.6917 21.7352 14.7393C21.7623 14.7867 21.7738 14.8284 21.7696 14.8642C21.7652 14.9002 21.7578 14.929 21.7473 14.9507C21.7244 14.9975 21.6952 15.03 21.6597 15.0474C21.6238 15.065 21.5866 15.0722 21.5482 15.0691C21.5094 15.0657 21.4745 15.0583 21.4434 15.0467C21.412 15.0352 21.3806 15.0217 21.3482 15.006L21.0259 14.8489Z" fill="white"/>
<path fill-rule="evenodd" clip-rule="evenodd" d="M8.0366 11.2773L8.53496 12.5375C8.85224 12.3816 8.86014 12.0332 8.73908 11.7332C8.61815 11.4329 8.33385 11.188 8.0366 11.2773ZM8.24247 12.6542L7.74324 11.3953C7.4537 11.5423 7.45584 11.9441 7.55939 12.2036C7.6628 12.4631 7.94698 12.7477 8.24247 12.6542ZM7.96054 11.0867C8.42215 10.9178 8.8804 11.1181 9.07259 11.6002C9.26489 12.0821 9.10008 12.5153 8.62457 12.7226L8.64256 12.7679C8.68676 12.8787 8.75264 12.9552 8.8767 12.9059L8.94615 12.878L8.98869 12.9847L8.22982 13.2874L8.18728 13.1806L8.25676 13.153C8.29978 13.1358 8.35232 13.1065 8.35803 13.0553C8.36422 13.0002 8.3498 12.9435 8.32956 12.8925L8.31158 12.8475C7.8414 13.0181 7.40127 12.8043 7.21624 12.3404C7.03121 11.8764 7.22813 11.4229 7.67279 11.219L7.66684 11.204C7.64267 11.1432 7.59775 11.034 7.53449 10.9726C7.48527 10.9249 7.42095 10.9123 7.37124 10.932L7.30166 10.9599L7.25912 10.8532L8.0181 10.5505L8.06063 10.6573L7.98904 10.6859C7.93934 10.7057 7.89397 10.7669 7.88968 10.8324C7.88418 10.9165 7.93066 11.0117 7.95484 11.0722L7.96054 11.0867Z" fill="white"/>
<path fill-rule="evenodd" clip-rule="evenodd" d="M9.95107 11.2542L10.3422 10.3598C10.3926 10.2447 10.4032 10.1377 10.3398 10.1258C10.3148 10.1206 10.2854 10.1246 10.2609 10.1306L10.2275 10.1385L10.2008 10.0267L10.8313 9.8761L10.8567 9.98237L10.8304 9.99382C10.7753 10.0177 10.7308 10.0548 10.6944 10.1022C10.6511 10.1599 10.6102 10.2257 10.5834 10.2924L10.2551 11.0719L11.1078 11.8451C11.1978 11.9345 11.3062 12.0375 11.414 12.1049C11.4781 12.1456 11.5512 12.174 11.6283 12.1678L11.6575 12.1654L11.6831 12.2724L10.8819 12.464L10.8561 12.3568L10.8839 12.3458C10.9016 12.3389 10.9193 12.3317 10.937 12.3251C10.9482 12.3208 10.9597 12.3156 10.9691 12.3084C10.9748 12.3039 10.9779 12.2974 10.9798 12.2903C10.9834 12.2784 10.9806 12.2612 10.9779 12.2493C10.9747 12.2362 10.9697 12.2236 10.9622 12.2124C10.9545 12.2009 10.9456 12.1902 10.9354 12.1807C10.9227 12.1683 10.9097 12.1561 10.8974 12.1437L9.96726 11.3137L10.2017 12.2831C10.2144 12.3363 10.236 12.3899 10.2726 12.4311C10.3078 12.4704 10.3693 12.4638 10.4154 12.4528L10.4906 12.4349L10.5174 12.5464L9.71382 12.7388L9.68716 12.627L9.75995 12.6096C9.80533 12.5986 9.85157 12.5782 9.87278 12.5338C9.89661 12.4838 9.88637 12.413 9.87399 12.3613L9.43932 10.5443C9.42704 10.4928 9.40453 10.4249 9.36102 10.3908C9.32221 10.3613 9.27047 10.3644 9.22545 10.3751L9.15278 10.3925L9.12598 10.2807L9.92949 10.0887L9.95619 10.2002L9.8809 10.2183C9.83515 10.2292 9.77677 10.2509 9.76328 10.3017C9.749 10.3551 9.75436 10.413 9.76712 10.4659L9.95107 11.2542Z" fill="white"/>
<path fill-rule="evenodd" clip-rule="evenodd" d="M19.3382 11.136L20.1029 10.5296C20.2015 10.4517 20.261 10.3621 20.2105 10.3218C20.191 10.3053 20.1631 10.2951 20.1386 10.2889L20.1054 10.2803L20.1343 10.169L20.7618 10.3316L20.7344 10.4374L20.7058 10.435C20.646 10.4304 20.5891 10.4421 20.5348 10.4672C20.4696 10.4979 20.4026 10.5367 20.3476 10.5832L19.6922 11.1177L20.0827 12.2005C20.1205 12.3216 20.168 12.4631 20.2314 12.5735C20.269 12.6395 20.3202 12.699 20.3912 12.7296L20.4182 12.7412L20.3906 12.8475L19.593 12.6411L19.6208 12.5344L19.6502 12.5377C19.6692 12.5398 19.6882 12.542 19.707 12.5444C19.7188 12.5458 19.7314 12.5465 19.7431 12.5446C19.7502 12.5432 19.7559 12.5392 19.7611 12.5337C19.7698 12.5248 19.7754 12.5082 19.7786 12.4965C19.7819 12.4834 19.7835 12.4698 19.782 12.4565C19.7807 12.4426 19.7778 12.4293 19.7732 12.4159C19.7679 12.399 19.7621 12.3824 19.7569 12.3654L19.3245 11.1963L19.0772 12.1624C19.0634 12.2153 19.0574 12.2727 19.0705 12.3266C19.0831 12.3778 19.1404 12.4007 19.1863 12.4126L19.2613 12.4319L19.2324 12.5432L18.4326 12.3361L18.4615 12.2251L18.5339 12.2437C18.5792 12.2556 18.6297 12.2589 18.6691 12.2296C18.7135 12.1967 18.7377 12.1293 18.7509 12.078L19.2191 10.2691C19.2323 10.2179 19.2442 10.1474 19.2216 10.0968C19.2014 10.0525 19.1543 10.0311 19.1094 10.0194L19.0371 10.0005L19.0657 9.88953L19.8656 10.0963L19.8367 10.2076L19.7618 10.1883C19.7163 10.1764 19.6545 10.1683 19.6188 10.2069C19.5813 10.2472 19.5589 10.3008 19.5452 10.3535L19.3382 11.136Z" fill="white"/>
<path fill-rule="evenodd" clip-rule="evenodd" d="M13.0071 10.4953L13.2413 9.92338C13.2609 9.87524 13.2814 9.81139 13.2763 9.75847C13.2695 9.68841 13.2104 9.68319 13.1508 9.68914L13.1168 9.69221L13.1057 9.57808L13.6905 9.52136L13.7009 9.62954L13.6741 9.63768C13.6231 9.65293 13.577 9.67914 13.5458 9.72345C13.502 9.78445 13.4647 9.87333 13.4363 9.94244L13.1275 10.7067L13.648 11.6232C13.7031 11.7192 13.824 11.9129 13.9505 11.9203L13.9799 11.922L13.9905 12.0314L13.2362 12.1045L13.2251 11.9911L13.258 11.987C13.2918 11.9828 13.3397 11.9753 13.3709 11.9601C13.3867 11.953 13.3861 11.9303 13.3847 11.9158C13.3804 11.8712 13.3659 11.8295 13.3436 11.7907L12.9571 11.113L12.64 11.8908C12.6287 11.9184 12.6243 11.9468 12.6272 11.9766C12.6336 12.0423 12.705 12.0407 12.7563 12.0357L12.7904 12.0323L12.8015 12.1465L12.2169 12.2032L12.2062 12.0924L12.2364 12.0862C12.2811 12.0769 12.318 12.0561 12.3449 12.0188C12.3854 11.9627 12.4198 11.8841 12.447 11.8205L12.8402 10.8952L12.3603 10.0683C12.2935 9.95008 12.1829 9.79615 12.0308 9.79732L11.9995 9.79756L11.9888 9.68626L12.7956 9.6081L12.8066 9.72227L12.7726 9.72559C12.7384 9.72895 12.6958 9.73631 12.6661 9.75419C12.6449 9.76706 12.6448 9.7978 12.647 9.81949C12.6505 9.85643 12.6672 9.89336 12.6861 9.92528L13.0071 10.4953Z" fill="white"/>
<path fill-rule="evenodd" clip-rule="evenodd" d="M14.6562 11.2369L15.3886 9.86974V9.839C15.3886 9.78442 15.3801 9.72819 15.3545 9.67911C15.3303 9.63214 15.2678 9.62477 15.2207 9.62477L15.1452 9.62474V9.50989H15.9695V9.62474H15.8938C15.8466 9.62474 15.784 9.63239 15.7596 9.67932C15.734 9.72819 15.7255 9.78442 15.7255 9.839V11.7075C15.7255 11.7621 15.734 11.8183 15.7596 11.8674C15.784 11.9146 15.8464 11.9222 15.8938 11.9222H15.9695V12.037H15.1452V11.9222H15.2207C15.268 11.9222 15.3303 11.9148 15.3546 11.8671C15.3801 11.8183 15.3886 11.7621 15.3886 11.7075L15.3886 10.2865L14.6562 11.6503V11.7075C14.6562 11.7621 14.6645 11.8183 14.6901 11.8674C14.7147 11.9148 14.7772 11.9222 14.8248 11.9222H14.9V12.037H14.0757V11.9222H14.1505C14.1978 11.9222 14.261 11.9148 14.2852 11.8671C14.3107 11.8183 14.3192 11.7621 14.3192 11.7075V9.839C14.3192 9.78442 14.3107 9.72819 14.2852 9.67911C14.261 9.63214 14.1976 9.62477 14.1505 9.62477L14.0757 9.62474V9.50989H14.9V9.62474H14.8248C14.7774 9.62474 14.7147 9.63214 14.6901 9.67932C14.6645 9.72819 14.6562 9.78442 14.6562 9.839L14.6562 11.2369Z" fill="white"/>
<path fill-rule="evenodd" clip-rule="evenodd" d="M21.2631 12.3392L22.4651 11.3591L22.477 11.3307C22.498 11.2802 22.5119 11.2252 22.5071 11.1702C22.5028 11.1175 22.4479 11.0865 22.4045 11.0684L22.3347 11.0393L22.3789 10.9333L23.1397 11.2504L23.0954 11.3565L23.0258 11.3274C22.9822 11.3091 22.9216 11.2921 22.8808 11.326C22.8385 11.3612 22.8091 11.4099 22.788 11.4604L22.069 13.1849C22.048 13.2355 22.0342 13.2905 22.0389 13.3458C22.0432 13.3987 22.0979 13.4297 22.1417 13.448L22.2114 13.4771L22.1672 13.5831L21.4065 13.266L21.4506 13.1599L21.5203 13.189C21.5641 13.2074 21.6245 13.2243 21.6651 13.1897C21.7074 13.1544 21.737 13.1058 21.758 13.0553L22.3048 11.744L21.1039 12.7208L21.0819 12.7734C21.0609 12.8239 21.047 12.8792 21.0518 12.9343C21.0562 12.9874 21.1111 13.0184 21.155 13.0367L21.2243 13.0656L21.1801 13.1716L20.4194 12.8544L20.4636 12.7484L20.5325 12.7772C20.5763 12.7953 20.6373 12.8127 20.6781 12.7782C20.7204 12.7429 20.7499 12.6943 20.7711 12.6438L21.4899 10.9192C21.5109 10.8687 21.5247 10.8137 21.5199 10.7586C21.5157 10.7059 21.46 10.6747 21.4167 10.6566L21.3477 10.6278L21.3918 10.5217L22.1527 10.8389L22.1084 10.9449L22.0389 10.9159C21.9954 10.8978 21.9346 10.8806 21.8939 10.9144C21.8514 10.9497 21.8219 10.9985 21.8009 11.0489L21.2631 12.3392Z" fill="white"/>
<path fill-rule="evenodd" clip-rule="evenodd" d="M17.3039 11.4205L18.0499 9.73268L18.6155 9.79915L18.602 9.91332L18.527 9.9045C18.4814 9.899 18.4294 9.90188 18.3948 9.93593C18.3555 9.97477 18.341 10.0451 18.3349 10.0978L18.1165 11.9534C18.1103 12.006 18.1084 12.0775 18.1376 12.1242C18.1635 12.1659 18.2124 12.181 18.2585 12.1864L18.3335 12.1952L18.3201 12.3091L17.4996 12.2126L17.513 12.0985L17.5899 12.1076C17.6365 12.113 17.6996 12.1128 17.7293 12.0694C17.7607 12.0241 17.7754 11.9682 17.7819 11.9138L17.9629 10.3758L17.1674 12.1736L17.0968 12.1652L16.7459 10.2283L16.5644 11.7706C16.558 11.8249 16.5594 11.8826 16.5793 11.9343C16.5983 11.9832 16.6595 11.9982 16.706 12.0036L16.783 12.0127L16.7695 12.1266L16.105 12.0485L16.1184 11.9345L16.1927 11.9431C16.2396 11.9489 16.3032 11.9486 16.3328 11.9043C16.3639 11.8588 16.3789 11.804 16.3853 11.7496L16.6037 9.89398C16.6101 9.83969 16.6082 9.78273 16.5885 9.73102C16.57 9.68167 16.5079 9.6669 16.4612 9.66143L16.3869 9.65258L16.4003 9.53845L16.9678 9.60541L17.3039 11.4205Z" fill="white"/>
<path fill-rule="evenodd" clip-rule="evenodd" d="M13.6201 23.5231C13.6718 23.5353 13.6969 23.5468 13.7484 23.5596L13.7498 24.5621V24.6138C13.7498 24.6317 13.7541 24.6461 13.763 24.6558C13.772 24.6661 13.7957 24.6784 13.8343 24.6924C13.8495 24.6979 13.8799 24.7101 13.9253 24.7284C13.9266 24.7349 13.9272 24.7406 13.9272 24.7461C13.9272 24.7528 13.9266 24.7671 13.9253 24.7892L13.8844 24.7794C13.8567 24.773 13.8161 24.7628 13.763 24.7478C13.731 24.7384 13.7086 24.7321 13.6967 24.7291C13.6814 24.7258 13.6438 24.7139 13.5473 24.6946C13.5363 24.6924 13.5273 24.6908 13.5203 24.6891L13.5034 24.6853L13.4759 24.6769L13.4504 24.6726L13.4027 24.6599C13.3965 24.6584 13.3835 24.6563 13.3639 24.6531C13.3626 24.6398 13.362 24.6291 13.362 24.6219C13.362 24.6153 13.3626 24.6055 13.3639 24.5924C13.389 24.5919 13.4186 24.5919 13.4523 24.5933C13.4983 24.5948 13.5266 24.5926 13.5371 24.5861C13.5475 24.58 13.5526 24.5696 13.5526 24.5552L13.5535 23.6945C13.5084 23.7161 13.4612 23.736 13.4037 23.7548C13.3975 23.7567 13.369 23.7626 13.3182 23.772C13.2981 23.738 13.2851 23.7133 13.2793 23.6973C13.3464 23.68 13.3921 23.6658 13.4159 23.6558C13.4557 23.6388 13.499 23.6153 13.5452 23.5863C13.5647 23.5735 13.5897 23.5522 13.6201 23.5231Z" fill="black"/>
<path fill-rule="evenodd" clip-rule="evenodd" d="M14.3857 24.9625C14.3692 24.9635 14.3539 24.9727 14.3411 24.9477C14.3204 24.9072 14.3825 24.8812 14.4005 24.8687C14.7061 24.6556 14.9014 24.5069 14.8977 24.1466C14.8967 24.0417 14.831 23.7422 14.6335 23.7546C14.4653 23.7651 14.4335 23.9302 14.4282 24.0703C14.419 24.3136 14.6039 24.3837 14.6918 24.4202C14.7006 24.4237 14.7052 24.4326 14.7052 24.4464C14.7052 24.4704 14.6838 24.4802 14.6639 24.4797C14.3569 24.4736 14.2197 24.2898 14.2197 24.0711C14.2197 23.8258 14.4092 23.6576 14.6551 23.6576C14.976 23.6576 15.1221 23.9211 15.1123 24.2111C15.102 24.5143 14.8847 24.7614 14.59 24.8919C14.5038 24.9302 14.4783 24.9406 14.3857 24.9625Z" fill="black"/>
<path fill-rule="evenodd" clip-rule="evenodd" d="M15.3924 24.9625C15.376 24.9635 15.3607 24.9727 15.348 24.9477C15.3272 24.9072 15.3893 24.8812 15.4072 24.8687C15.7128 24.6556 15.9081 24.5069 15.9045 24.1466C15.9035 24.0417 15.8378 23.7422 15.6404 23.7546C15.472 23.7651 15.4402 23.9302 15.4349 24.0703C15.4258 24.3136 15.6106 24.3837 15.6986 24.4202C15.7074 24.4237 15.712 24.4326 15.712 24.4464C15.712 24.4704 15.6905 24.4802 15.6706 24.4797C15.3636 24.4736 15.2266 24.2898 15.2266 24.0711C15.2266 23.8258 15.4159 23.6576 15.6619 23.6576C15.9827 23.6576 16.1288 23.9211 16.119 24.2111C16.1087 24.5143 15.8914 24.7614 15.5968 24.8919C15.5106 24.9302 15.4851 24.9406 15.3924 24.9625H15.3924Z" fill="black"/>
<path fill-rule="evenodd" clip-rule="evenodd" d="M16.3019 23.6114C16.3271 23.6054 16.3666 23.5954 16.4204 23.5811L16.653 23.5323L16.8492 23.4841L17.0248 23.4434L17.0636 23.4326C17.0716 23.4303 17.0836 23.4286 17.0996 23.4263C17.1015 23.4486 17.1024 23.4668 17.1024 23.4813C17.1024 23.4991 17.0895 23.5444 17.0636 23.6181C16.9991 23.8003 16.7241 24.5896 16.6769 24.78L16.6523 24.7857L16.5517 24.8012C16.5478 24.8019 16.5367 24.8041 16.5186 24.8091C16.5001 24.8142 16.4855 24.8181 16.4749 24.8205C16.3937 24.8389 16.4652 24.7197 16.4851 24.673C16.526 24.5767 16.5818 24.4734 16.6083 24.4087L16.8037 23.9334L16.8465 23.8149C16.8533 23.7961 16.8639 23.7718 16.874 23.7401C16.8771 23.7303 16.8834 23.7129 16.8921 23.6881C16.8299 23.6998 16.7539 23.7203 16.7154 23.7298L16.5742 23.7641L16.4612 23.7884C16.4259 23.7966 16.4015 23.8068 16.389 23.8189C16.3703 23.8376 16.3406 23.9504 16.2779 23.8978C16.2536 23.8773 16.2773 23.8068 16.2808 23.7808C16.2849 23.7491 16.2889 23.7189 16.2918 23.6891C16.2947 23.6595 16.2979 23.6338 16.3019 23.6114H16.3019Z" fill="black"/>
</svg>
