<svg width="30" height="30" viewBox="0 0 30 30" fill="none" xmlns="http://www.w3.org/2000/svg">
<path fill-rule="evenodd" clip-rule="evenodd" d="M27.8574 23.2038C26.8448 22.2841 25.8832 21.5626 24.4573 21.1732C24.4832 21.1166 24.5079 21.0597 24.531 21.0025C24.9171 20.1301 25.3862 19.084 24.6698 18.5577C24.5362 18.4598 23.8756 18.1907 23.7362 18.141C23.8856 17.4879 23.9893 16.838 24.048 16.1691C24.1073 15.495 24.1137 14.824 24.0893 14.1479C24.0513 13.0966 23.9702 12.1576 23.9225 11.1058C23.7877 8.13587 24.3497 5.45045 24.4465 4.92557C22.7851 4.25608 19.6186 2.40618 15.0003 2.40002H15.0002C10.3818 2.40618 7.21532 4.25608 5.55389 4.92475C5.65077 5.44973 6.21276 8.13505 6.07795 11.1047C6.03018 12.1568 5.94914 13.096 5.91116 14.1472C5.88681 14.8233 5.89322 15.4942 5.95237 16.1685C6.01111 16.838 6.11486 17.4874 6.26423 18.141C6.1248 18.1907 5.46419 18.4603 5.33061 18.5582C4.61417 19.0846 5.08329 20.1308 5.46942 21.0032C5.49248 21.0606 5.51719 21.1175 5.54312 21.1739C4.11722 21.563 3.15552 22.2842 2.14307 23.2042C3.00492 23.194 3.81152 23.216 4.67102 23.2714C4.18919 24.0603 3.98744 25.2259 3.91393 26.0029C6.26105 23.9644 8.92534 23.8732 8.92534 23.8732C10.9823 26.6836 14.6781 27.5058 15.0002 27.573H15.0003C15.3224 27.5058 19.018 26.6836 21.0751 23.8737C21.0751 23.8737 23.7394 23.9649 26.0866 26.004C26.013 25.2269 25.8112 24.0613 25.3294 23.2724C26.1888 23.2176 26.9955 23.195 27.8574 23.2058" fill="#FFFFFE"/>
<path fill-rule="evenodd" clip-rule="evenodd" d="M22.5706 22.8755L22.6347 22.853C22.7566 22.853 22.7331 22.8539 22.8089 22.8371C22.914 22.8138 23.156 22.7517 23.2049 22.4238C23.2286 22.2654 23.2311 22.1621 23.2303 22.1559L23.2293 22.1466L23.1658 21.8211C23.4661 21.7601 23.6763 21.6218 23.6763 21.6218C24.3273 21.6603 25.354 22.0637 26.1454 22.6177C25.3668 22.6385 24.7896 22.6143 24.2683 22.8237C24.7204 23.2401 24.6973 23.7059 25.048 24.5136C24.0233 23.8726 23.0376 23.5141 21.9555 23.3902C21.5342 23.3421 20.9545 23.2659 20.751 23.1766C20.8222 23.0721 21.1257 22.7272 21.1954 22.6177C21.4737 22.6659 22.1775 22.8755 22.5722 22.8755" fill="#005534"/>
<path fill-rule="evenodd" clip-rule="evenodd" d="M21.6364 22.2009C21.663 22.1547 21.6897 22.108 21.7162 22.061C21.797 21.9183 21.8773 21.772 21.9576 21.6218L22.8045 21.8485C22.7975 21.8511 22.7907 21.8541 22.7837 21.8566L22.8134 21.851L22.896 21.8736L22.9546 22.1744C22.957 22.197 22.9672 22.3108 22.9492 22.4261C22.9287 22.5558 22.9118 22.6932 22.8451 22.708C22.7867 22.7209 22.6668 22.725 22.5607 22.725C22.2172 22.725 21.7226 22.6199 21.415 22.5691C21.4827 22.4579 21.5678 22.3185 21.6349 22.2026" fill="#005534"/>
<path fill-rule="evenodd" clip-rule="evenodd" d="M20.5936 23.085C20.8203 23.1173 21.3847 23.1904 21.8286 23.2578C22.9261 23.4244 23.9302 23.6932 24.9554 24.3342C24.716 23.7277 24.4807 23.2138 24.0922 22.7196C24.595 22.6224 25.0943 22.5482 25.8734 22.5274C25.0856 21.9967 24.2414 21.7798 23.6345 21.7149C23.6345 21.7149 23.4545 21.756 23.1547 21.8168L23.2182 22.1423L23.2198 22.1517C23.2203 22.1578 23.2382 22.3054 23.2147 22.4638C23.1654 22.7917 22.9819 22.8797 22.8764 22.903C22.8005 22.9199 22.7041 22.9281 22.5821 22.9281C22.1874 22.9281 21.5975 22.8265 21.3191 22.7783C21.3458 22.7365 21.3499 22.6943 21.3765 22.6518C21.4027 22.6098 21.4596 22.5776 21.4852 22.5348C21.7758 22.5825 22.2515 22.6651 22.5765 22.6651C22.6764 22.6651 22.7554 22.659 22.8102 22.6467C22.8733 22.6327 22.9061 22.5708 22.8758 22.517C22.821 22.421 22.9461 22.211 22.944 22.1896L22.8881 21.9052L22.8097 21.8841L22.801 21.8816L21.9993 21.6668C22.0214 21.6253 22.0434 21.5838 22.0654 21.5412C22.087 21.4997 22.109 21.4577 22.1305 21.4156L23.125 21.6817L23.1347 21.7304V21.7299C23.228 21.6791 23.3602 21.5992 23.4371 21.5233L23.5227 21.4351L23.6468 21.4423C25.3824 21.6156 26.7151 22.7566 26.7151 22.7566C26.7151 22.7566 25.5049 22.7725 24.6181 22.9216C25.3552 24.1518 25.4823 25.0304 25.4823 25.0304L24.775 24.5916C23.7939 24.0078 23.0035 23.7238 21.906 23.5511C21.5119 23.4885 20.8465 23.3845 20.4893 23.3286C20.5421 23.2548 20.5374 23.1595 20.5897 23.0831" fill="#1A1919"/>
<path fill-rule="evenodd" clip-rule="evenodd" d="M7.45998 22.8755L7.3959 22.853C7.27401 22.853 7.29749 22.8539 7.22162 22.8371C7.11655 22.8138 6.87461 22.7517 6.82566 22.4238C6.80192 22.2654 6.79951 22.1621 6.80018 22.1559L6.80172 22.1466L6.86518 21.8211C6.5649 21.7601 6.35464 21.6218 6.35464 21.6218C5.70367 21.6603 4.67696 22.0637 3.88574 22.6177C4.66476 22.6385 5.24167 22.6143 5.76323 22.8237C5.31128 23.2401 5.33455 23.7059 4.98359 24.5136C6.00845 23.8726 6.99419 23.5141 8.0761 23.3902C8.4977 23.3421 9.07753 23.2659 9.28067 23.1766C9.20967 23.0721 8.90633 22.7272 8.83646 22.6177C8.55813 22.6659 7.85446 22.8755 7.45998 22.8755Z" fill="#005534"/>
<path fill-rule="evenodd" clip-rule="evenodd" d="M8.38684 22.2009C8.36019 22.1547 8.33353 22.108 8.30698 22.061C8.22625 21.9183 8.14588 21.772 8.06566 21.6218L7.21872 21.8485C7.22569 21.8511 7.23256 21.8541 7.23953 21.8566L7.2098 21.851L7.12717 21.8736L7.06874 22.1744C7.06669 22.197 7.05643 22.3108 7.07437 22.4261C7.09488 22.5558 7.11179 22.6932 7.17792 22.708C7.23635 22.7209 7.35629 22.725 7.46189 22.725C7.80532 22.725 8.29996 22.6199 8.60751 22.5691C8.53985 22.4579 8.45424 22.3185 8.38761 22.2026" fill="#005534"/>
<path fill-rule="evenodd" clip-rule="evenodd" d="M9.44764 23.085C9.22088 23.1173 8.65653 23.1904 8.21258 23.2578C7.11483 23.4244 6.11079 23.6932 5.08583 24.3342C5.32505 23.7277 5.55997 23.2138 5.94871 22.7196C5.44535 22.6224 4.9461 22.5482 4.16749 22.5274C4.95481 21.9967 5.79903 21.7798 6.40644 21.7149C6.40644 21.7149 6.58585 21.756 6.88622 21.8168L6.82266 22.1423L6.82112 22.1517C6.8201 22.1578 6.80216 22.3054 6.82625 22.4638C6.87494 22.7917 7.05896 22.8797 7.16404 22.903C7.2399 22.9199 7.33576 22.9281 7.45775 22.9281C7.85193 22.9281 8.44191 22.8265 8.72024 22.7783C8.69358 22.7365 8.68897 22.6943 8.66232 22.6518C8.63618 22.6098 8.57928 22.5776 8.55314 22.5348C8.2625 22.5825 7.78631 22.6651 7.46185 22.6651C7.36138 22.6651 7.28296 22.659 7.2276 22.6467C7.16455 22.6327 7.13124 22.5708 7.16199 22.517C7.21632 22.421 7.09125 22.211 7.09382 22.1896L7.14918 21.9052L7.22709 21.8841L7.23529 21.8816L8.03697 21.6668C8.01441 21.6253 7.99237 21.5838 7.97033 21.5412C7.94829 21.4997 7.92676 21.4577 7.90472 21.4156L6.91031 21.6817L6.90057 21.7304C6.90006 21.7304 6.90006 21.7299 6.90006 21.7299C6.80677 21.6791 6.67452 21.5992 6.59764 21.5233L6.51204 21.4351L6.38748 21.4423C4.65449 21.6171 3.32178 22.7582 3.32178 22.7582C3.32178 22.7582 4.53214 22.774 5.41896 22.9236C4.68161 24.1538 4.55459 25.0326 4.55459 25.0326L5.26298 24.5932C6.24406 24.0099 7.03446 23.726 8.1319 23.5527C8.52607 23.4907 9.1914 23.3861 9.54816 23.3308C9.49537 23.2569 9.49998 23.1621 9.44821 23.0852" fill="#1A1919"/>
<path fill-rule="evenodd" clip-rule="evenodd" d="M23.7642 5.46326C23.7453 5.58105 23.7272 5.69751 23.7098 5.81233C23.6925 5.92714 23.6759 6.04053 23.66 6.15237C23.6443 6.26422 23.6293 6.37453 23.615 6.4835C23.6007 6.59258 23.5872 6.70012 23.5744 6.80612C22.856 12.751 24.3602 14.357 22.8999 19.2439C22.8737 19.3316 22.8467 19.4197 22.8187 19.5094C22.7905 19.5991 22.7613 19.6894 22.7316 19.7811C22.7013 19.8729 22.6706 19.9656 22.6383 20.06C22.6081 20.1256 22.5783 20.1907 22.5481 20.2547C22.5178 20.3193 22.4881 20.3829 22.4584 20.4459L22.3692 20.6335C22.3395 20.6956 22.3097 20.7565 22.28 20.8175C22.2503 20.8785 22.2205 20.9385 22.1913 20.998C22.1616 21.0579 22.1319 21.1169 22.1027 21.1748C20.9514 23.4522 19.8181 24.8603 18.0266 25.888C17.9805 25.9141 17.9343 25.9403 17.8872 25.9664C17.8405 25.9926 17.7929 26.0182 17.7452 26.0433C17.6975 26.0689 17.6493 26.0941 17.6006 26.1192C17.552 26.1443 17.5027 26.1689 17.4535 26.1935C17.4038 26.2181 17.3536 26.2422 17.3034 26.2663C17.2526 26.2904 17.2019 26.3145 17.1501 26.3381C17.0983 26.3616 17.0465 26.3852 16.9938 26.4088C16.941 26.4324 16.8882 26.4554 16.8343 26.478C16.7805 26.5011 16.7267 26.5236 16.6718 26.5462C16.6175 26.5687 16.5622 26.5913 16.5063 26.6133C16.4504 26.6354 16.394 26.6574 16.3371 26.6794C15.8825 26.8542 15.537 27.0193 15.0054 27.1782C14.4067 26.9998 14.0064 26.8132 13.5051 26.6138C13.4492 26.5918 13.3939 26.5692 13.3396 26.5467C13.2847 26.5241 13.2309 26.5016 13.1771 26.4785C13.1232 26.4559 13.0704 26.4329 13.0177 26.4093C12.9654 26.3862 12.9131 26.3627 12.8613 26.3391C12.8101 26.3155 12.7588 26.2914 12.7081 26.2673C12.6578 26.2432 12.6076 26.2191 12.5579 26.1945C12.5081 26.1699 12.4595 26.1453 12.4108 26.1207C12.3621 26.0956 12.3144 26.0705 12.2662 26.0454C12.2185 26.0197 12.1709 25.9941 12.1242 25.9685C12.0771 25.9423 12.0309 25.9162 11.9848 25.8901C11.9387 25.8639 11.8936 25.8373 11.8485 25.8101C11.8033 25.7829 11.7588 25.7558 11.7147 25.7286C11.6701 25.7014 11.6265 25.6737 11.5829 25.6456C11.5394 25.6174 11.4963 25.5897 11.4538 25.561C11.4112 25.5328 11.3687 25.5041 11.3266 25.4749C11.2846 25.4456 11.2431 25.4164 11.2021 25.3867C11.1606 25.357 11.1201 25.3272 11.0796 25.297C11.0391 25.2668 10.9991 25.2365 10.9591 25.2052C10.9197 25.1745 10.8802 25.1432 10.8412 25.1114C9.74738 24.2293 8.91187 23.0924 8.08559 21.5208C8.05586 21.4649 8.02664 21.408 7.99691 21.3506C7.96718 21.2937 7.93745 21.2358 7.90824 21.1774C7.87851 21.1195 7.84929 21.0605 7.81956 21.0005C7.78983 20.9411 7.7601 20.8811 7.73088 20.8206C7.70115 20.7596 7.67142 20.6981 7.64169 20.6366C7.61197 20.5746 7.58224 20.512 7.55251 20.449C7.52278 20.386 7.49305 20.3224 7.4628 20.2578C7.43256 20.1937 7.40283 20.1286 7.37259 20.0635C7.3403 19.9697 7.30954 19.877 7.2793 19.7852C7.24906 19.6935 7.22035 19.6032 7.19216 19.5141C7.16412 19.4244 7.13731 19.3362 7.11117 19.249C5.65083 14.3621 7.155 12.7562 6.43661 6.81125C6.4238 6.70555 6.41022 6.59801 6.39612 6.48883C6.38177 6.38006 6.3669 6.26945 6.35101 6.1577C6.33512 6.04596 6.31872 5.93268 6.30129 5.81786C6.28387 5.70304 6.26593 5.58669 6.24696 5.46879C6.22799 5.3508 6.20831 5.23147 6.1875 5.11029C6.56168 4.98984 7.38571 4.53518 7.68014 4.40601C10.1405 3.29063 12.5722 2.75395 15.0044 2.76369C17.4363 2.75344 19.8683 3.29012 22.3222 4.40191C22.6221 4.53328 23.4463 4.9883 23.7893 5.09902C23.7996 5.22973 23.78 5.34916 23.7611 5.46705L23.7642 5.46326Z" fill="#005534"/>
<path fill-rule="evenodd" clip-rule="evenodd" d="M22.1397 18.733C22.1439 18.6759 22.1477 18.6192 22.1508 18.5628C20.0328 17.9644 17.6023 17.6237 15.0172 17.6237C12.4322 17.6237 10.0018 17.9644 7.88379 18.5627C7.88686 18.6191 7.89076 18.6759 7.89496 18.7329L7.88379 18.736C7.92567 19.4986 8.06832 20.3263 8.41687 21.3548C8.4384 21.4181 8.46044 21.482 8.48351 21.5469C8.50647 21.6116 8.53031 21.6771 8.55496 21.7434C8.57957 21.8097 8.60494 21.877 8.63134 21.945C8.65594 21.9924 8.68055 22.0394 8.70515 22.0859C8.72975 22.1326 8.75436 22.1787 8.77871 22.2243C8.8028 22.2701 8.8274 22.3153 8.85149 22.36C8.87558 22.4049 8.90019 22.4492 8.92428 22.4933C8.94837 22.5374 8.97297 22.5808 8.99707 22.6238L9.06985 22.7515C9.09394 22.7935 9.11804 22.8355 9.14264 22.8771L9.21491 23.0001C9.89357 24.138 10.5794 24.9612 11.478 25.6004C11.5097 25.623 11.542 25.6455 11.5748 25.6681C11.6071 25.6901 11.6399 25.7121 11.6733 25.7342C11.7061 25.7562 11.7399 25.7778 11.7737 25.7993C11.807 25.8208 11.8414 25.8418 11.8757 25.8628C11.9101 25.8839 11.9449 25.9044 11.9798 25.9249C12.0151 25.9454 12.0505 25.9659 12.0859 25.9859C12.1218 26.0059 12.1576 26.0258 12.194 26.0458C12.2304 26.0658 12.2668 26.0853 12.3037 26.1048C12.3406 26.1243 12.3781 26.1432 12.416 26.1627C12.4534 26.1817 12.4918 26.2006 12.5303 26.2191C12.5687 26.2375 12.6072 26.256 12.6466 26.2744C12.6856 26.2929 12.7256 26.3108 12.7651 26.3293C12.805 26.3472 12.845 26.3652 12.886 26.3826C12.9265 26.4005 12.968 26.418 13.009 26.4354C13.0506 26.4528 13.0926 26.4697 13.1351 26.4872C13.1777 26.5046 13.2202 26.5215 13.2633 26.5384C13.3063 26.5548 13.3499 26.5717 13.394 26.5881C13.4381 26.6046 13.4822 26.621 13.5273 26.6374L13.6631 26.6855C14.0752 26.8301 14.5232 26.9649 15.0148 27.0941C15.4515 26.9787 15.8544 26.8598 16.2275 26.7327C16.2742 26.7168 16.3203 26.7009 16.3665 26.685C16.4121 26.6686 16.4572 26.6527 16.5023 26.6363C16.5469 26.6199 16.5915 26.6035 16.6356 26.5871C16.6796 26.5702 16.7232 26.5538 16.7663 26.5369C16.8093 26.52 16.8519 26.5025 16.8944 26.4856C16.9364 26.4682 16.9785 26.4513 17.02 26.4333C17.0615 26.4164 17.1025 26.3985 17.143 26.3811C17.1835 26.3631 17.224 26.3452 17.264 26.3272C17.304 26.3088 17.3434 26.2909 17.3824 26.2724C17.4213 26.2539 17.4603 26.2355 17.4987 26.217C17.5372 26.1981 17.5751 26.1791 17.6131 26.1601C19.0842 25.4159 20.015 24.3963 20.9602 22.7474L21.033 22.6192C21.0571 22.5762 21.0812 22.5326 21.1058 22.4885C21.1299 22.4444 21.1545 22.3998 21.1786 22.3552L21.2519 22.2194C21.2765 22.1738 21.3006 22.1277 21.3252 22.081C21.3498 22.0344 21.3744 21.9872 21.399 21.9401C21.4251 21.8719 21.4508 21.8047 21.4754 21.7381C21.5 21.6715 21.5235 21.6064 21.5466 21.5418C21.5697 21.4767 21.5917 21.4126 21.6132 21.3496C21.9618 20.3208 22.1048 19.493 22.1463 18.7308L22.134 18.7272H22.1356" fill="#FFFFFE"/>
<path fill-rule="evenodd" clip-rule="evenodd" d="M6.03857 5.13227C7.36063 12.881 5.17451 14.0743 7.22346 20.0861C9.1479 24.281 10.7444 25.9316 14.9997 27.2023C11.5137 25.5651 9.11678 23.1441 8.02268 19.8416C6.61615 15.5948 8.84076 8.85797 7.75116 4.39954C7.42772 4.52973 6.34925 5.0418 6.03863 5.13253L6.03857 5.13227ZM23.9703 5.13253C22.6483 12.8812 24.8345 14.0745 22.7857 20.0866C20.861 24.281 19.2643 25.9316 15.0093 27.2023C18.4954 25.5651 20.8922 23.1441 21.9866 19.8416C23.3931 15.5948 21.1685 8.85797 22.2583 4.39954C22.5822 4.53024 23.6607 5.04231 23.9713 5.13304" fill="#1A1919"/>
<path fill-rule="evenodd" clip-rule="evenodd" d="M14.0767 26.7384C14.3704 26.8944 14.6253 27.049 14.9993 27.2027C15.0019 27.2037 15.0062 27.2017 15.0087 27.2027C15.4564 26.9873 15.778 26.8256 15.9735 26.7174L15.0436 25.791L14.0767 26.7384Z" fill="#005534"/>
<path fill-rule="evenodd" clip-rule="evenodd" d="M7.75707 18.789C7.75409 18.7728 7.463 17.1508 7.42507 15.3119C7.40005 14.1001 7.55296 12.4725 7.70073 10.8984C7.78787 9.97542 7.87758 9.02094 7.92576 8.19302C8.05595 5.97272 7.7725 4.22856 7.76993 4.21118L8.18302 4.1427C8.19502 4.21549 8.47673 5.95083 8.34397 8.21752C8.29512 9.05277 8.20517 10.011 8.11813 10.9376C7.97143 12.4999 7.8197 14.1154 7.84415 15.3033C7.88106 17.1075 8.16657 18.6982 8.16913 18.714L7.7565 18.789H7.75707ZM22.2938 18.789C22.2969 18.7728 22.5881 17.1508 22.626 15.3119C22.6506 14.1001 22.4978 12.4725 22.3502 10.8984C22.2636 9.97542 22.1739 9.02094 22.1252 8.19302C21.995 5.97272 22.2785 4.22856 22.281 4.21118L21.8684 4.1427C21.8565 4.21549 21.5747 5.95083 21.7075 8.21752C21.7563 9.05277 21.8463 10.011 21.9333 10.9376C22.0799 12.4999 22.2317 14.1154 22.2072 15.3033C22.1703 17.1075 21.8847 18.6982 21.8822 18.714L22.2947 18.789" fill="#FFFFFE"/>
<path fill-rule="evenodd" clip-rule="evenodd" d="M22.0726 18.7513L20.5449 20.2486L21.2585 20.9483C21.5705 20.2725 21.8424 19.5423 22.0726 18.7513Z" fill="#24784C"/>
<path fill-rule="evenodd" clip-rule="evenodd" d="M21.2593 20.9486L20.5449 20.249L22.0734 18.7513C21.8433 19.5423 21.5708 20.2729 21.2592 20.9486H21.2593Z" fill="#24784C"/>
<path fill-rule="evenodd" clip-rule="evenodd" d="M7.83252 18.4095L7.99209 18.29V18.8926L7.83252 19.012V18.4095Z" fill="#1A1919"/>
<path fill-rule="evenodd" clip-rule="evenodd" d="M16.8736 23.9636L15.0442 25.793L13.2148 23.9636L15.0443 22.1343L16.8736 23.9636ZM16.8736 20.273L15.0442 22.1024L13.2148 20.273L15.0443 18.4437L16.8736 20.273Z" fill="#005534"/>
<path fill-rule="evenodd" clip-rule="evenodd" d="M12.0316 25.1204L13.1898 23.9636L11.3604 22.1343L10.242 23.2512C10.7608 23.9308 11.2905 24.469 12.0316 25.1204ZM18.0124 25.1204L16.8543 23.9636L18.6837 22.1343L19.8022 23.2512C19.2833 23.9308 18.7536 24.469 18.0125 25.1204H18.0124ZM13.1818 20.2704L11.3524 22.0998L9.42188 20.4513L11.2209 18.3925L13.1818 20.2704V20.2704ZM20.513 20.273L18.6837 22.1024L16.8543 20.273L18.6837 18.4437L20.513 20.273V20.273ZM7.22633 21.878L7.21777 21.8803L7.24597 21.8856C7.2393 21.8831 7.23289 21.88 7.22628 21.878" fill="#005534"/>
<path fill-rule="evenodd" clip-rule="evenodd" d="M15.5161 24.4675C15.3993 24.5904 15.2062 24.6638 14.9997 24.6638C14.7877 24.6638 14.5991 24.5934 14.4825 24.4705C14.381 24.3639 14.3342 24.2181 14.3434 24.0371C14.3521 23.871 14.4198 23.6531 14.5161 23.4804C14.4695 23.6198 14.4203 23.7885 14.4106 23.911C14.4018 24.0212 14.4044 24.1078 14.4449 24.2257C14.5828 24.585 14.899 24.5988 15.0072 24.6029C15.2763 24.5901 15.4608 24.462 15.5572 24.22C15.5977 24.1032 15.5956 24.0084 15.59 23.913C15.5833 23.7915 15.5357 23.6255 15.489 23.4871C15.5828 23.6588 15.649 23.8725 15.6572 24.0355C15.6664 24.2139 15.6192 24.3584 15.5177 24.4656L15.5161 24.4675ZM15.5032 23.4119L15.4439 23.3144L15.5341 23.2721L15.527 23.2621L15.3814 23.3428C15.4357 23.4834 15.529 23.7477 15.5387 23.9174C15.5444 24.0071 15.5459 24.0966 15.5085 24.2044C15.4209 24.4246 15.2517 24.5409 15.0052 24.5526C14.9062 24.5484 14.6187 24.5354 14.4931 24.2078C14.4562 24.0998 14.4536 24.019 14.4618 23.9152C14.4757 23.7466 14.5674 23.4833 14.6197 23.3432L14.4725 23.2621L14.4654 23.2721L14.5555 23.3144L14.4962 23.4119C14.3836 23.5973 14.3017 23.8475 14.2922 24.0345C14.2824 24.2298 14.3339 24.3887 14.4453 24.5056C14.5717 24.6383 14.7738 24.7147 14.9997 24.7147C15.2201 24.7147 15.427 24.6352 15.5534 24.5025C15.6651 24.3846 15.7169 24.2272 15.7071 24.034C15.6977 23.8469 15.6157 23.5967 15.5031 23.4112L15.5032 23.4119Z" fill="#1A1919"/>
<path fill-rule="evenodd" clip-rule="evenodd" d="M15.5533 24.4672C15.427 24.6002 15.22 24.6796 14.9996 24.6796C14.7737 24.6796 14.5716 24.6033 14.4452 24.4703C14.3335 24.3531 14.2822 24.1946 14.292 23.999C14.3012 23.8119 14.3832 23.5617 14.496 23.3764L14.5549 23.2788L14.4647 23.2365L14.4719 23.2265L14.6185 23.3076C14.5657 23.4476 14.4739 23.711 14.4606 23.8797C14.4519 23.9832 14.4545 24.0642 14.4919 24.1718C14.6175 24.4994 14.9045 24.5122 15.0039 24.5163C15.251 24.5045 15.4202 24.3882 15.5073 24.1677C15.5442 24.0596 15.5427 23.9704 15.5375 23.8807C15.5273 23.711 15.434 23.4465 15.3802 23.3061L15.5258 23.2251L15.5329 23.2348L15.4427 23.2769L15.5017 23.3743C15.6139 23.5598 15.6959 23.81 15.7057 23.9965C15.7154 24.1893 15.6636 24.3471 15.5519 24.4645L15.5533 24.4672ZM15.547 23.3497L15.5172 23.301L15.6117 23.2564L15.5418 23.159L15.3171 23.283L15.3331 23.3245C15.3865 23.4635 15.4776 23.7213 15.4872 23.8838C15.4921 23.9678 15.4937 24.0519 15.4605 24.1488C15.3802 24.3502 15.2303 24.4538 15.0067 24.4645C14.9103 24.4604 14.6541 24.4492 14.5408 24.1539C14.5065 24.054 14.5043 23.9812 14.5121 23.8822C14.5252 23.7203 14.6148 23.4629 14.667 23.324L14.6826 23.2825L14.4573 23.158L14.3878 23.2553L14.4819 23.2994L14.4524 23.3481C14.3357 23.5398 14.2508 23.7997 14.241 23.9945C14.2304 24.2047 14.2866 24.3759 14.4081 24.5035C14.5441 24.6465 14.7598 24.7285 14.9996 24.7285C15.2337 24.7285 15.4547 24.6429 15.5904 24.5004C15.7124 24.3723 15.7688 24.2021 15.7586 23.9945C15.7488 23.7997 15.6637 23.5398 15.5474 23.3476L15.547 23.3497Z" fill="#1A1919"/>
<path fill-rule="evenodd" clip-rule="evenodd" d="M15.8096 24.0094C15.7985 23.7901 15.7035 23.5243 15.5908 23.3387L15.6893 23.2926L15.5571 23.1083L15.2524 23.2768C15.2524 23.2768 15.4233 23.687 15.436 23.9034C15.4413 23.9935 15.4416 24.0631 15.4113 24.1511C15.3113 24.4021 15.1023 24.4254 14.9997 24.4302C14.8972 24.4254 14.6861 24.4062 14.5881 24.1511C14.5578 24.0631 14.556 23.9956 14.5634 23.9034C14.5807 23.6874 14.7471 23.2768 14.7471 23.2768L14.4423 23.1083L14.3103 23.2926L14.4087 23.3387C14.2959 23.5243 14.201 23.7901 14.1898 24.0094C14.1611 24.5778 14.6062 24.7976 14.9997 24.7976C15.3815 24.7976 15.8383 24.5778 15.8096 24.0094Z" fill="#FFFFFE"/>
<path d="M9.84237 13.8635C9.6217 13.6766 9.65871 13.4188 9.81233 13.1313C10.4751 11.3819 11.3425 10.5833 12.2967 10.3965C13.2106 9.75837 13.718 10.2747 14.3003 10.5127C15.4014 10.7473 16.5603 10.4225 17.6208 10.6095C17.9627 10.6415 18.279 10.8124 18.8428 10.9133C19.2206 10.9707 19.5948 10.9335 19.8029 10.7169C19.9203 10.5935 20.0366 10.3853 19.9695 10.1647C19.7511 9.55836 18.6947 9.76626 18.2042 9.8372C17.2318 10.311 16.6413 9.78082 16.8817 8.90979C17.0247 9.65765 17.8459 9.13825 18.219 9.69835C19.072 9.5171 20.0541 9.47548 20.256 10.0777C20.4042 10.6003 20.0044 11.1016 19.052 11.2781C19.3754 11.6462 19.4713 12.0903 19.2365 12.6457C19.0925 13.0317 19.4784 13.6004 19.9454 13.5896C20.1053 13.5752 20.1576 13.6913 20.1745 13.8646C20.4359 15.2134 20.9285 15.3789 20.7486 15.7973L20.6056 15.765C20.5349 15.763 20.5144 15.8896 20.5626 16.0659L20.4078 16.3401L19.686 16.234C19.7414 16.0403 19.805 15.8183 19.9997 15.6374C19.9997 15.6374 19.9818 15.5615 19.9787 15.461C20.0018 15.2914 19.89 14.6599 19.6461 14.2801C19.5128 14.0899 19.1642 14.2847 18.501 13.9617C18.3236 13.8556 18.28 13.7603 18.2201 13.6158C18.1514 13.667 18.1462 13.9192 18.3677 14.1986C18.4425 14.3062 18.4461 14.4154 18.38 14.5287C18.0724 14.9577 17.4589 14.8993 17.2385 15.7102L17.1149 15.5928L16.9899 16.0203L16.22 15.9803C16.2902 15.7122 16.6095 15.6112 16.6428 15.3729L17.3446 14.7419C17.4584 14.6337 17.4599 14.5148 17.3246 14.3754C17.0662 14.1406 16.9591 13.9161 17.0047 13.7024C16.5572 13.604 16.282 13.6824 15.8135 13.91C15.4803 14.116 15.5398 13.8618 15.3229 13.831C14.8493 13.7941 13.4715 13.9428 13.1153 14.0151C12.8144 14.0755 12.5955 14.2457 12.5622 14.3928C12.6145 14.4272 12.7139 14.4754 12.8169 14.5886C12.9851 14.786 13.1245 14.9341 13.3172 15.0269C13.5146 15.1422 13.5064 15.2309 13.3844 15.3001C13.4992 15.3862 13.5689 15.3893 13.6709 15.3309L13.7903 15.256L14.1845 15.9403C13.8554 15.9813 13.5971 15.9244 13.351 15.7404C12.7308 15.6661 12.76 15.1919 12.4351 14.8921C12.3382 14.8065 12.2269 14.8916 12.0624 14.7398C11.9056 14.9577 11.8071 15.1294 11.6934 15.3903C11.6621 15.4641 11.6231 15.5656 11.516 15.5067C11.4965 15.723 11.4622 16.069 11.3781 16.1254L10.6625 16.2012C10.6907 16.0418 10.7902 15.7409 10.987 15.5441C11.4601 14.9474 11.7026 14.3052 12.0727 13.6393C12.1019 13.5681 12.0137 13.423 11.9097 13.3836C11.8189 13.3364 11.5903 13.3513 11.5375 13.4281C11.6098 13.6388 11.5831 13.849 11.4555 14.0581C11.4386 14.2052 11.4606 14.338 11.5232 14.4461L11.4196 14.602C11.2838 14.5584 11.3381 14.3554 11.2648 14.2324C11.1054 14.3359 11.333 14.6102 11.2331 14.7891C11.1956 14.8583 10.8148 15.134 10.7317 15.0315C10.5303 14.8362 10.3447 14.3303 10.0967 14.1247C9.80244 14.3313 9.47643 14.4472 9.11865 14.4672C9.39852 14.2754 9.65994 14.0791 9.84703 13.8597L9.84237 13.8635Z" fill="#1A1919"/>
<path fill-rule="evenodd" clip-rule="evenodd" d="M9.99136 13.7511C9.79576 13.4527 10.3397 13.3249 10.286 13.7183C10.2031 13.9958 9.97501 14.1783 9.47314 14.3395C9.87773 14.0612 10.14 13.822 10.0925 13.6616C10.0747 13.571 9.94887 13.6384 9.99136 13.7511ZM11.5532 13.4035C11.4222 12.8649 11.2697 12.8449 10.9084 12.6517C11.1608 12.6773 11.2974 12.6901 11.4157 12.8209C11.4865 12.9132 11.619 13.0793 11.5532 13.4036V13.4035ZM12.0466 11.5624C12.0603 11.2743 12.0776 10.8596 12.2616 10.6008C11.4102 10.8248 10.9699 11.3358 10.6008 11.9202C11.0536 11.365 11.59 10.9832 11.9876 10.8899C11.866 11.1354 12.0132 11.3394 12.0419 11.5619H12.0466L12.0466 11.5624ZM11.092 6.3869L11.5049 6.81214L11.293 7.37675C11.5062 7.37572 11.7777 7.34548 12.0404 7.29371C12.0885 7.28448 12.1359 7.27423 12.182 7.26346C12.2748 7.24194 12.3604 7.21836 12.4366 7.19324L12.4523 7.18965L12.6676 7.16249L12.928 6.95182L13.194 7.02819C13.3632 6.82418 13.4759 6.73397 13.7343 6.63914C13.9957 6.54329 14.2771 6.5151 14.5529 6.55764L14.495 6.39976L14.6252 6.40848C14.6677 6.41155 14.7087 6.41565 14.7487 6.42129L14.4493 5.60629C14.3996 5.5986 14.3355 5.5945 14.2622 5.5945C14.0547 5.5945 13.7256 5.62884 13.4237 5.72418C13.1812 5.80107 12.9306 5.97842 12.7373 6.21011L12.6794 6.27931L12.6143 6.21729C12.5466 6.15321 12.4687 6.10913 12.3959 6.09324C12.3785 6.09068 12.3554 6.08914 12.3334 6.09017L12.3124 6.09119L12.2698 6.07069L12.0505 6.18807C11.9567 6.2219 11.8598 6.25112 11.7629 6.27623C11.7183 6.28802 11.6742 6.29827 11.6307 6.3075C11.4159 6.35466 11.2257 6.37721 11.094 6.38849L11.092 6.3869ZM11.28 7.54595C11.2406 7.54595 11.2026 7.54492 11.1673 7.54287L11.0525 7.53647L11.3093 6.85309L10.7033 6.22928L10.9012 6.22774C10.9043 6.22774 11.2121 6.22436 11.5929 6.14096C11.6342 6.13199 11.6763 6.122 11.719 6.11103C11.8089 6.08796 11.8985 6.06054 11.9856 6.02963L12.2628 5.87996L12.3457 5.91912H12.3462C12.3734 5.91912 12.4006 5.92142 12.4272 5.92604C12.5097 5.94346 12.5892 5.98088 12.663 6.03624C12.8685 5.81122 13.1233 5.64053 13.3724 5.56108C13.6928 5.45959 14.0418 5.42371 14.2622 5.42371C14.3576 5.42371 14.4381 5.42986 14.5016 5.44165L14.5759 5.45549L15.0106 6.64058L14.7805 6.59649L14.7472 6.59034L14.8158 6.77692L14.5795 6.73182C14.3171 6.68158 14.0454 6.70414 13.7948 6.79589C13.5528 6.88508 13.4657 6.96094 13.2924 7.17571L13.2571 7.21928L12.968 7.13624L12.7389 7.3218L12.4841 7.35358C12.4052 7.37921 12.3175 7.40278 12.2232 7.42483C12.175 7.4361 12.1258 7.44635 12.0756 7.45661C11.7972 7.51145 11.5081 7.54272 11.2826 7.54272L11.28 7.54595ZM13.4436 7.42334C13.4166 7.43549 13.3915 7.44666 13.3688 7.45666C13.3915 7.44666 13.4166 7.43549 13.4436 7.42334Z" fill="#FFFFFE"/>
<path fill-rule="evenodd" clip-rule="evenodd" d="M12.3433 7.22282L12.3481 7.21923C12.3471 7.21897 12.3461 7.21861 12.3451 7.2182L12.3433 7.22282ZM12.3456 7.16756L12.344 7.16694L12.3433 7.16874L12.3456 7.16756ZM12.7021 6.39807C12.7146 6.41637 12.7271 6.43528 12.7392 6.4563C12.7271 6.43528 12.7146 6.41632 12.7021 6.39807Z" fill="#1A1919"/>
<path fill-rule="evenodd" clip-rule="evenodd" d="M13.3547 5.75058L13.3529 5.74981C13.2729 5.78538 13.198 5.82178 13.1324 5.85755C13.0627 5.89559 13.0035 5.93275 12.9585 5.96735L13.1979 6.07638L13.3547 5.75058ZM13.6478 6.64196L13.3697 6.54405L13.2241 6.84504C13.2472 6.85017 13.2699 6.85376 13.2915 6.85324C13.294 6.85324 13.2967 6.85376 13.2992 6.85427C13.3336 6.85478 13.3629 6.84812 13.3843 6.83428C13.386 6.83274 13.3882 6.8312 13.3899 6.83018C13.3915 6.82915 13.393 6.82915 13.3945 6.82813C13.4167 6.81634 13.4263 6.82044 13.4432 6.80455L13.4494 6.80045C13.4407 6.74048 13.5558 6.7333 13.617 6.69844C13.6303 6.69076 13.6532 6.67538 13.6856 6.65231L13.6478 6.64104V6.64196ZM13.3547 5.75058L13.6856 5.8941L13.8449 5.56584C13.7402 5.59803 13.6333 5.63504 13.5299 5.67554C13.4882 5.69194 13.4473 5.70875 13.4074 5.72587C13.3898 5.73336 13.3728 5.74099 13.3557 5.74858L13.3547 5.75063L13.3547 5.75058ZM13.9129 5.99252L13.6856 5.8941L13.5277 6.21908L13.8573 6.36188L13.955 6.1611L13.8735 6.11456L13.9135 5.99257L13.9129 5.99252ZM13.7414 6.64196C13.7744 6.62535 14.1367 6.55108 14.1749 6.53626L13.8576 6.36188C13.7695 6.5541 13.7305 6.64755 13.7418 6.64201L13.7414 6.64196ZM13.5276 6.21908L13.1979 6.07638L13.04 6.40125L13.3697 6.54426L13.5277 6.21928L13.5276 6.21908ZM13.0536 6.08058L13.0369 5.98206C13.2019 5.77959 13.449 5.70398 13.6884 5.61454C13.9288 5.52443 14.184 5.50331 14.4296 5.55288L14.4531 5.55774L14.7458 6.49423L14.671 6.47911C15.1077 6.56779 13.5489 6.68917 13.3624 6.81706L13.3188 6.81167L13.0522 6.08058H13.0536Z" fill="#FFFFFE"/>
<path fill-rule="evenodd" clip-rule="evenodd" d="M12.8047 6.55189L12.8064 6.55686L12.8047 6.55189ZM12.7534 6.50063L12.758 6.51011L12.7534 6.50063ZM12.7672 6.23122L13.0763 7.07288C13.2547 6.87471 13.4791 6.72253 13.7299 6.63031C13.9823 6.53743 14.2496 6.50796 14.5168 6.54405L14.2078 5.70239C13.9416 5.65702 13.6704 5.68219 13.4164 5.77569C13.1635 5.86862 12.9397 6.02583 12.7673 6.23122H12.7672ZM13.0415 7.2755L12.6509 6.21169L12.6692 6.18914C12.8556 5.95832 13.1016 5.78215 13.3808 5.67948C13.6615 5.57624 13.9627 5.55133 14.2554 5.60679L14.2839 5.61222L14.6744 6.67599L14.5855 6.65907C14.3105 6.60679 14.0281 6.62985 13.7654 6.72673C13.504 6.8231 13.2733 6.98866 13.0983 7.20548L13.0415 7.27622V7.2755Z" fill="#1A1919"/>
<path fill-rule="evenodd" clip-rule="evenodd" d="M12.2861 6.71313C12.1454 6.4694 12.1469 6.28205 12.2903 6.19937C12.4 6.13601 12.5858 6.18486 12.7341 6.44182C12.8813 6.69647 12.83 6.88069 12.7203 6.94405C12.5705 7.03047 12.4245 6.95276 12.2861 6.71313ZM14.1635 7.6613C14.1804 7.59785 14.1645 7.55074 14.1481 7.5225C14.1127 7.46114 14.043 7.42885 13.9513 7.43141L13.9221 7.43228L13.392 6.58729L13.39 6.57781C13.3418 6.32244 13.1547 5.94236 13.0179 5.6648L12.9328 5.49334C12.7723 5.17108 12.6211 4.86712 12.513 4.53809C12.5053 4.51246 12.5104 4.47966 12.5253 4.41523C12.5422 4.34167 12.5612 4.25838 12.5201 4.18046L12.5145 4.17072C12.411 3.99132 12.1147 3.99727 11.7605 4.18677C11.4663 4.34393 11.1685 4.61836 11.2951 4.87486L11.2987 4.88219C11.3586 4.98598 11.4601 5.01689 11.5339 5.03955C11.555 5.04585 11.5801 5.05365 11.597 5.06144L11.6067 5.06585L11.6913 5.16083C11.8548 5.34382 11.984 5.48837 12.1121 5.64112L12.1516 5.68879L12.0875 5.72518C11.7144 5.94046 11.6534 6.41255 11.9353 6.90053C12.2167 7.38799 12.656 7.57099 13.0286 7.3557C13.083 7.32443 13.1327 7.28907 13.1762 7.25165L13.2239 7.21064L13.2542 7.26549C13.3459 7.43003 13.4182 7.56073 13.4679 7.65402L13.4823 7.68068L13.4659 7.70631C13.4141 7.78627 13.4059 7.86521 13.4428 7.92877C13.5125 8.05025 13.7057 8.05179 13.9123 7.93287C14.0399 7.85957 14.1348 7.75603 14.1599 7.66325L14.1635 7.6613Z" fill="#FFFFFE"/>
<path fill-rule="evenodd" clip-rule="evenodd" d="M12.2736 5.98804L12.8802 6.27483L13.0324 6.97686L12.7051 7.24238L12.3919 7.28185L11.8306 6.36684L11.9811 6.14607L12.2736 5.98804Z" fill="#1A1919"/>
<path fill-rule="evenodd" clip-rule="evenodd" d="M13.8431 7.70208C13.7957 7.73606 13.7648 7.74427 13.7648 7.74427C13.7528 7.69824 13.7582 7.6621 13.7609 7.64226C13.7143 7.56245 13.3985 6.98206 13.3985 6.98206C13.3985 6.98206 13.3891 6.96729 13.398 6.96217C13.4055 6.95791 13.4106 6.96524 13.4106 6.96524L13.8151 7.60874C13.8356 7.6113 13.8833 7.62002 13.9089 7.64001C13.9089 7.64001 13.8899 7.66717 13.8428 7.70152L13.8431 7.70208ZM13.218 6.73617C13.218 6.73617 13.1961 6.56369 13.0683 6.32139C13.0683 6.32139 12.2118 4.77811 12.1261 4.62305C12.0403 4.46825 12.1768 4.38931 11.939 4.35087C12.0558 4.28987 12.2336 4.2381 12.3053 4.26014C12.3513 4.2745 12.2988 4.35395 12.2792 4.39854C12.2447 4.47645 12.2503 4.53848 12.3009 4.65176L12.3136 4.68046C12.5814 5.27352 12.9187 5.86042 13.1146 6.28279C13.2156 6.50064 13.2422 6.6457 13.2179 6.73745L13.218 6.73617ZM12.7702 7.03275C12.6024 7.12963 12.3902 7.10051 12.1961 6.76436C12.0021 6.42811 12.07 6.20734 12.2377 6.11051C12.4056 6.01364 12.651 6.09514 12.8217 6.39059C12.9924 6.68609 12.938 6.93598 12.7702 7.03285V7.03275ZM14.0584 7.57388C14.0338 7.53083 13.9608 7.52263 13.8721 7.5462L13.2935 6.62356C13.2585 6.38418 13.0615 5.98488 12.9256 5.70911C12.7391 5.3298 12.5462 4.96587 12.4146 4.56554C12.381 4.4538 12.4751 4.31386 12.4294 4.22672C12.2718 3.92635 11.2207 4.49019 11.3875 4.82798C11.4526 4.94126 11.5951 4.92691 11.6766 4.98739C11.9503 5.29443 12.5813 6.05459 12.5813 6.05459L12.2333 5.76396C12.1974 5.77882 12.1779 5.78907 12.1395 5.81111C11.8109 6.00077 11.7761 6.41596 12.0247 6.84653C12.2733 7.2771 12.6459 7.45035 12.9781 7.26377C13.2144 7.13101 13.283 6.93059 13.283 6.93059C13.3143 6.99877 13.282 7.10026 13.282 7.10026C13.3809 7.2771 13.5373 7.55851 13.607 7.69331C13.5383 7.75944 13.506 7.82915 13.5316 7.87323C13.5686 7.93833 13.7167 7.92346 13.8618 7.83991C14.0063 7.75688 14.094 7.63642 14.0565 7.57183L14.0584 7.57388Z" fill="#1A1919"/>
<path fill-rule="evenodd" clip-rule="evenodd" d="M12.7271 7.04759C12.7294 7.04534 12.7316 7.04267 12.7338 7.04016C12.8371 6.96379 12.8911 6.78951 12.7949 6.5285C12.7052 6.28503 12.562 6.17031 12.4351 6.14888C12.4325 6.14837 12.4297 6.14709 12.4272 6.14658C12.3918 6.13925 12.3606 6.14043 12.3366 6.15017L12.3301 6.15304C12.3284 6.15355 12.3267 6.15365 12.3252 6.15416C12.3006 6.16134 12.2786 6.17134 12.259 6.18353L12.252 6.18646C12.1839 6.2149 12.1156 6.23925 12.0475 6.26191C11.9563 6.29225 11.8662 6.31778 11.7789 6.33915C11.7374 6.34889 11.6969 6.35812 11.6569 6.36683C11.5113 6.39708 11.377 6.41707 11.2671 6.42886L11.5202 6.88198L11.4246 7.35304C11.605 7.34638 11.8118 7.32177 12.0076 7.28589C12.0529 7.27769 12.0974 7.26847 12.141 7.25924C12.2512 7.23566 12.3544 7.20901 12.4436 7.18081C12.5799 7.13776 12.6837 7.09111 12.7271 7.04652" fill="#FFFFFE"/>
<path fill-rule="evenodd" clip-rule="evenodd" d="M12.1385 6.68673L12.5256 6.88859L12.74 6.54874L12.353 6.34689L12.1385 6.68673ZM11.9841 6.19312H11.984C11.9681 6.19886 11.95 6.20542 11.9308 6.21208C11.91 6.21962 11.8893 6.22669 11.8686 6.23376C11.8274 6.24786 11.7865 6.26144 11.7552 6.27108C11.7084 6.28594 11.6624 6.29927 11.6173 6.31157C11.5676 6.32541 11.5194 6.3372 11.4722 6.34848L11.7618 6.49969L11.9841 6.19368V6.19312ZM12.1399 6.68935L11.7615 6.50066L11.5234 6.87587L11.9064 7.05579" fill="#005534"/>
<path fill-rule="evenodd" clip-rule="evenodd" d="M11.9057 7.05519L11.728 7.39437C11.8566 7.37248 11.9882 7.34547 12.1158 7.31405C12.1673 7.30149 12.2177 7.28816 12.2672 7.27442C12.2889 7.26843 12.3101 7.26222 12.3312 7.25597L12.2672 7.27442L11.9057 7.05514V7.05519ZM11.9855 6.19549V6.19559L12.3646 6.36357L12.5461 6.09892C12.5184 6.0899 12.5209 6.08354 12.4948 6.08113C12.4917 6.08062 12.4087 6.13752 12.4302 6.08288C12.4456 6.04443 12.4107 6.05263 12.3677 6.03931C12.3651 6.04084 12.3626 6.04187 12.3605 6.04341L12.3549 6.04495C12.3272 6.0552 12.3159 6.04956 12.2944 6.06442L12.2867 6.06852C12.2108 6.10543 12.1345 6.13772 12.0581 6.16796C12.033 6.17822 12.0084 6.18642 11.9832 6.19616L11.9843 6.19667" fill="#005534"/>
<path fill-rule="evenodd" clip-rule="evenodd" d="M12.2945 7.25279C12.3937 7.22377 12.4865 7.19333 12.5684 7.16216C12.6552 7.12915 12.7411 7.06718 12.7979 7.03473L12.5283 6.88762L12.2925 7.25156L12.2945 7.25258L12.2945 7.25279ZM12.8125 6.40405L12.7418 6.55152L12.8825 6.58669C12.8819 6.56531 12.8199 6.41625 12.8127 6.40405H12.8125Z" fill="#005534"/>
<path fill-rule="evenodd" clip-rule="evenodd" d="M12.7326 6.99852C12.7303 7.00108 12.7281 7.00365 12.7259 7.006C12.7071 7.02538 12.6765 7.04506 12.6374 7.06469C12.586 7.09032 12.5197 7.11595 12.4423 7.14035C12.3695 7.16342 12.2871 7.18546 12.1995 7.20545L12.1964 7.20647C12.1777 7.21109 12.159 7.21519 12.1398 7.21929C12.0961 7.22852 12.0516 7.23774 12.0063 7.24594C11.8939 7.26645 11.7783 7.28285 11.6657 7.29464C11.5822 7.30386 11.5001 7.31053 11.4233 7.31309L11.6109 6.79897L11.2654 6.38942C11.3423 6.38122 11.4309 6.3684 11.5273 6.35149C11.5688 6.34431 11.6114 6.33611 11.6549 6.32688C11.6949 6.31868 11.7354 6.30946 11.7769 6.2992C11.8097 6.291 11.8436 6.28178 11.8774 6.27255C11.8959 6.26742 11.9148 6.2623 11.9328 6.25717C11.9481 6.25307 11.9635 6.24795 11.9789 6.24282C12.0009 6.23616 12.023 6.23001 12.045 6.22232C12.1132 6.19976 12.1814 6.17567 12.2495 6.14697L12.2562 6.1444C12.3146 6.11314 12.389 6.10032 12.4243 6.1075C12.4269 6.10801 12.4295 6.10955 12.432 6.11006C12.4546 6.11416 12.4771 6.12185 12.5002 6.13159C12.5935 6.17157 12.6888 6.26179 12.7611 6.4171C12.7713 6.44016 12.7821 6.46426 12.7918 6.4904C12.8006 6.515 12.8077 6.53858 12.8144 6.56113L12.8175 6.57292C12.8231 6.59548 12.8282 6.61752 12.8318 6.63853C12.8318 6.64058 12.8323 6.64212 12.8329 6.64417C12.84 6.68928 12.8426 6.73029 12.8405 6.76822C12.8344 6.87893 12.7908 6.95787 12.7303 7.00247L12.7326 6.99852ZM12.9133 6.46174C12.9122 6.45857 12.9113 6.45559 12.9102 6.45241L12.9099 6.4519C12.8114 6.185 12.6193 6.02964 12.4521 5.99376C12.3947 5.98386 12.3378 5.98679 12.2835 6.00268C12.2553 6.01575 12.2266 6.02759 12.1979 6.03958C12.061 6.09668 11.9216 6.14087 11.7883 6.17516C11.7453 6.18644 11.7027 6.19669 11.6607 6.20591C11.2701 6.29151 10.9595 6.29357 10.9595 6.29357L11.4587 6.82563L11.227 7.42637C11.4592 7.4397 11.795 7.40587 12.1015 7.3459C12.1502 7.33667 12.1979 7.32642 12.2445 7.31565C12.5111 7.25363 12.7361 7.17213 12.8196 7.08602C12.9242 6.97837 13.0175 6.75386 12.9145 6.46323L12.9133 6.46174Z" fill="#1A1919"/>
<path fill-rule="evenodd" clip-rule="evenodd" d="M17.4014 7.16249L17.6323 7.19304C17.7085 7.21764 17.7942 7.24122 17.8869 7.26275C17.933 7.27351 17.9807 7.28325 18.0289 7.29299C18.2918 7.34476 18.563 7.375 18.7762 7.37603L18.5645 6.81116L18.9776 6.38572C18.8459 6.37444 18.6552 6.35189 18.4405 6.30524C18.3974 6.29551 18.3533 6.28525 18.3087 6.27346C18.2118 6.24835 18.1155 6.21862 18.0217 6.1853L18.0099 6.17966L17.8023 6.06741L17.7598 6.08791L17.7387 6.08688C17.7167 6.08586 17.6947 6.0874 17.6726 6.09099C17.6034 6.10585 17.5255 6.14993 17.4578 6.21452L17.3927 6.27654L17.3348 6.20734C17.1416 5.97514 16.8909 5.7983 16.6485 5.72141C16.3471 5.62556 16.018 5.59173 15.8104 5.59173C15.7371 5.59173 15.673 5.59583 15.6233 5.60352L15.324 6.41904C15.3639 6.4134 15.4055 6.4093 15.4475 6.40622L15.5777 6.39751L15.5198 6.55538C15.7955 6.51233 16.0769 6.54052 16.3384 6.63689C16.5962 6.73171 16.709 6.82141 16.8786 7.02593L17.1452 6.94956L17.405 7.16023L17.4014 7.16249ZM18.7889 7.54574C18.5632 7.54574 18.2741 7.51427 17.9959 7.45937C17.9458 7.44964 17.8965 7.43913 17.8485 7.4279C17.7542 7.40637 17.6664 7.38228 17.5875 7.35665L17.3328 7.32487L17.1036 7.13932L16.8146 7.22236L16.7797 7.17879C16.6064 6.96402 16.5193 6.88764 16.2774 6.79896C16.0267 6.7067 15.755 6.68466 15.4926 6.73438L15.2563 6.77949L15.325 6.59291C15.3137 6.59444 15.3024 6.59649 15.2917 6.59854L15.0615 6.64263L15.4967 5.45805L15.5705 5.44421C15.6341 5.43242 15.7146 5.42627 15.8099 5.42627C16.0303 5.42627 16.3794 5.46266 16.6992 5.56364C16.9488 5.64258 17.2036 5.81378 17.4086 6.0388C17.4824 5.98345 17.5614 5.94603 17.6408 5.92911C17.6711 5.92399 17.6982 5.92194 17.7249 5.92194L17.8079 5.88247L18.0852 6.03214C18.1724 6.06341 18.2621 6.09058 18.3518 6.11364C18.3948 6.12492 18.4369 6.13466 18.4779 6.14388C18.8587 6.22743 19.1668 6.23051 19.1699 6.23051L19.3677 6.23205L18.7624 6.85586L19.0187 7.53964L18.9038 7.5458C18.8685 7.54785 18.831 7.54887 18.7911 7.54887L18.7889 7.54574ZM16.5977 7.42324C16.6246 7.43539 16.6498 7.44656 16.6725 7.45655C16.6498 7.44656 16.6246 7.43539 16.5977 7.42324Z" fill="#FFFFFE"/>
<path fill-rule="evenodd" clip-rule="evenodd" d="M17.7304 7.22282L17.7255 7.21923C17.7265 7.21897 17.7275 7.21861 17.7286 7.2182L17.7304 7.22282ZM17.6742 7.16746L17.6758 7.16684L17.6765 7.16864L17.6742 7.16746ZM17.3526 6.39807C17.34 6.41637 17.3276 6.43528 17.3154 6.4563C17.3276 6.43528 17.34 6.41632 17.3526 6.39807Z" fill="#1A1919"/>
<path fill-rule="evenodd" clip-rule="evenodd" d="M16.8355 6.07638L17.0749 5.96735C17.0298 5.93275 16.9707 5.89559 16.9009 5.85756C16.8353 5.82178 16.7605 5.78538 16.6804 5.74981L16.6786 5.75058L16.8354 6.07638H16.8355ZM16.3529 6.65252L16.3662 6.65201C16.3862 6.66277 16.394 6.65201 16.4141 6.66328C16.4752 6.69793 16.5926 6.74109 16.584 6.80117L16.5901 6.80527C16.607 6.82085 16.6168 6.81696 16.6388 6.82854C16.6404 6.82931 16.6419 6.82977 16.6434 6.83049C16.6455 6.83182 16.6475 6.83326 16.6491 6.83459C16.6706 6.84843 16.6998 6.8553 16.7342 6.85458C16.7367 6.85448 16.7398 6.85376 16.7418 6.85355C16.7639 6.85396 16.7864 6.85048 16.8095 6.84505L16.6639 6.54365L16.3861 6.64155L16.3538 6.6518L16.3529 6.65252ZM16.6776 5.74858C16.6606 5.741 16.6435 5.73336 16.6259 5.72587C16.5859 5.70875 16.5451 5.69194 16.5034 5.67564C16.4001 5.63504 16.2931 5.59804 16.1885 5.56585L16.3477 5.89415L16.6786 5.75063L16.6776 5.74858H16.6776ZM16.1601 6.11456L16.0786 6.16111L16.1765 6.36189L16.5066 6.21908L16.3487 5.8941L16.1216 5.99252L16.1616 6.11451L16.1601 6.11456ZM16.176 6.36189L15.8587 6.53627C15.8971 6.55113 15.9796 6.55333 16.0196 6.57035C16.056 6.58573 16.1109 6.57368 16.1488 6.59116C16.1744 6.6028 16.217 6.59306 16.2503 6.60972C16.2672 6.61802 16.2836 6.62638 16.3005 6.63509L16.3436 6.65729H16.3441L16.178 6.36189H16.176ZM16.6639 6.54406L16.994 6.40125L16.8362 6.07679L16.5066 6.2198L16.6644 6.54477L16.6639 6.54406ZM16.6701 6.81706C16.484 6.68917 15.8366 6.49244 16.0606 6.5763C16.118 6.59783 14.9253 6.56779 15.362 6.47911L15.2877 6.49423L15.5803 5.55775L15.6044 5.55288C15.85 5.50331 16.1052 5.52443 16.3456 5.61449C16.585 5.70399 16.8321 5.77964 16.9976 5.98201L16.9807 6.08058L16.7147 6.81168L16.6711 6.81706H16.6701Z" fill="#FFFFFE"/>
<path fill-rule="evenodd" clip-rule="evenodd" d="M17.2659 6.55187L17.2642 6.55684C17.2647 6.55515 17.2653 6.55351 17.2659 6.55187ZM17.32 6.50061C17.3184 6.50379 17.3164 6.50697 17.3154 6.51009C17.3164 6.50702 17.3184 6.50379 17.32 6.50061Z" fill="#1A1919"/>
<path fill-rule="evenodd" clip-rule="evenodd" d="M16.6258 5.77571C16.3718 5.68222 16.1006 5.65705 15.8344 5.70241L15.5253 6.54407C15.7926 6.50799 16.0599 6.53741 16.3122 6.63034C16.5631 6.72261 16.7874 6.87474 16.9659 7.0729L17.2744 6.23125C17.1017 6.02585 16.8782 5.86865 16.6255 5.77571H16.6258ZM16.9439 7.2051C16.7689 6.98807 16.5382 6.82261 16.2767 6.7265C16.014 6.62983 15.7316 6.60671 15.4566 6.6591L15.3677 6.67601L15.7583 5.61241L15.7868 5.60728C16.0794 5.55192 16.3806 5.57704 16.6613 5.68007C16.9405 5.7831 17.1865 5.95891 17.3729 6.19009L17.3914 6.21264L17.0008 7.27676L16.9439 7.20654L16.9439 7.2051Z" fill="#1A1919"/>
<path fill-rule="evenodd" clip-rule="evenodd" d="M17.3307 6.94402C17.221 6.88066 17.1697 6.69644 17.3168 6.44184C17.4652 6.18483 17.6509 6.13598 17.7607 6.19939C17.904 6.28207 17.9055 6.46937 17.7648 6.7131C17.6264 6.95273 17.4803 7.03039 17.3307 6.94402ZM16.1353 7.93115C16.3419 8.04986 16.5351 8.04827 16.605 7.9272C16.6416 7.86415 16.6333 7.78522 16.5816 7.70525L16.5651 7.68014L16.5795 7.65348C16.6297 7.56019 16.7017 7.42948 16.7932 7.26494L16.824 7.2101L16.8715 7.25162C16.9153 7.28955 16.965 7.3244 17.0193 7.35567C17.392 7.57096 17.8314 7.38796 18.1128 6.9005C18.3942 6.41303 18.3332 5.94043 17.9606 5.72515L17.896 5.68927L17.9354 5.64211C18.0636 5.48936 18.1928 5.34481 18.3563 5.16233L18.4409 5.06751L18.4506 5.06341C18.4675 5.05572 18.4926 5.04803 18.5136 5.04136C18.5875 5.01881 18.6889 4.98806 18.7489 4.884L18.7525 4.87683C18.8791 4.62053 18.5808 4.34579 18.2871 4.18894C17.9329 3.99929 17.6366 3.99365 17.5331 4.17305L17.5274 4.18279C17.4864 4.2607 17.5054 4.34425 17.5223 4.41755C17.5367 4.48214 17.5423 4.51494 17.5346 4.54057C17.4259 4.86965 17.2747 5.17361 17.1148 5.49602C17.0866 5.55292 17.0579 5.60982 17.0297 5.66774C16.8929 5.94505 16.7058 6.32538 16.6576 6.58065L16.6555 6.59039L16.1271 7.4341L16.0978 7.43307C16.0066 7.43051 15.9369 7.4628 15.9015 7.52431C15.8851 7.5525 15.8692 7.59966 15.8861 7.66322C15.9107 7.756 16.0061 7.85954 16.1337 7.93284L16.1353 7.93115Z" fill="#FFFFFE"/>
<path fill-rule="evenodd" clip-rule="evenodd" d="M17.7665 5.98804L17.16 6.27483L17.0078 6.97681L17.3351 7.24197L17.6486 7.28144L18.2099 6.36684L18.0597 6.14607L17.7669 5.98804" fill="#1A1919"/>
<path fill-rule="evenodd" clip-rule="evenodd" d="M16.1408 7.64043C16.1664 7.62008 16.214 7.61136 16.2346 7.60875L16.6391 6.96495C16.6391 6.96495 16.6443 6.95726 16.6517 6.96187C16.6609 6.967 16.6517 6.98186 16.6517 6.98186C16.6517 6.98186 16.3359 7.5621 16.2893 7.64207C16.2923 7.66155 16.2975 7.69794 16.2857 7.74407C16.2857 7.74407 16.2549 7.73587 16.2078 7.70153C16.1606 7.66718 16.1421 7.6395 16.1421 7.6395L16.1408 7.64043ZM16.9351 6.28157C17.1314 5.8592 17.4687 5.27209 17.7363 4.67924C17.7409 4.66971 17.745 4.66028 17.7491 4.6509C17.7998 4.53792 17.8055 4.476 17.7711 4.39794C17.7517 4.35334 17.6994 4.27389 17.745 4.25954C17.8168 4.23699 17.9946 4.28927 18.1115 4.35027C17.8737 4.38871 18.0105 4.46765 17.9244 4.62245C17.8388 4.77725 16.9823 6.32063 16.9823 6.32063C16.8546 6.56257 16.8326 6.73531 16.8326 6.73531C16.8085 6.64305 16.8352 6.4985 16.9361 6.28065L16.9351 6.28157ZM17.2283 6.3906C17.399 6.09509 17.6445 6.0137 17.8121 6.11057C17.9798 6.20745 18.0479 6.42838 17.8537 6.76463C17.6599 7.10088 17.4477 7.1301 17.2796 7.03322C17.112 6.93634 17.0576 6.68672 17.2283 6.39096V6.3906ZM16.1867 7.84223C16.3318 7.92558 16.4799 7.94065 16.5168 7.87565C16.5425 7.83172 16.5102 7.76196 16.4415 7.69573C16.5112 7.56108 16.6675 7.27983 16.767 7.10268C16.767 7.10268 16.7352 7.00103 16.7665 6.93301C16.7665 6.93301 16.8357 7.13318 17.072 7.26588C17.4041 7.45236 17.7768 7.2789 18.0254 6.84833C18.274 6.41787 18.2391 6.00283 17.9111 5.81312C17.8726 5.79088 17.8531 5.78073 17.8178 5.76597L17.4692 6.05639C17.4692 6.05639 18.1002 5.29593 18.3744 4.98899C18.4559 4.92882 18.5979 4.94286 18.6635 4.82948C18.8306 4.49169 17.7793 3.92754 17.622 4.22791C17.5764 4.31474 17.6707 4.45478 17.6368 4.56642C17.5051 4.96665 17.3124 5.33042 17.1258 5.70968C16.99 5.98535 16.7926 6.38465 16.7578 6.62413L16.1796 7.54668C16.0909 7.52294 16.0176 7.53099 15.9935 7.57395C15.9561 7.63853 16.0437 7.75899 16.1888 7.84228L16.1867 7.84223Z" fill="#1A1919"/>
<path fill-rule="evenodd" clip-rule="evenodd" d="M17.3308 7.04759C17.3286 7.04534 17.3264 7.04267 17.3241 7.04016C17.2209 6.96379 17.1669 6.78951 17.2631 6.5285C17.3528 6.28503 17.496 6.17031 17.623 6.14888C17.6255 6.14837 17.6283 6.14709 17.6307 6.14658C17.6661 6.13925 17.6974 6.14043 17.7214 6.15017C17.7233 6.15109 17.7258 6.15211 17.7279 6.15304C17.7295 6.15355 17.7312 6.15365 17.7328 6.15416C17.7574 6.16134 17.7793 6.17134 17.7989 6.18353L17.8059 6.18646C17.8741 6.2149 17.9424 6.23925 18.0105 6.26191C18.1017 6.29225 18.1917 6.31778 18.2791 6.33915C18.3206 6.34889 18.3612 6.35812 18.4011 6.36683C18.5466 6.39708 18.6809 6.41707 18.7909 6.42886L18.5378 6.88198L18.6334 7.35304C18.4529 7.34638 18.2462 7.32177 18.0504 7.28589C18.0048 7.27769 17.9602 7.26847 17.9166 7.25924C17.8064 7.23566 17.7034 7.20901 17.6142 7.18081C17.4778 7.13776 17.3738 7.09111 17.3307 7.04652" fill="#FFFFFE"/>
<path fill-rule="evenodd" clip-rule="evenodd" d="M17.9169 6.68673L17.5298 6.88859L17.3154 6.54874L17.7024 6.34689L17.9169 6.68673ZM18.0843 6.19312H18.0844C18.1003 6.19886 18.1183 6.20542 18.1376 6.21208C18.1581 6.21962 18.1791 6.22669 18.1996 6.23376C18.2406 6.24786 18.2816 6.26144 18.3129 6.27108C18.3595 6.28594 18.4056 6.29927 18.4507 6.31157C18.5005 6.32541 18.5487 6.3372 18.5958 6.34848L18.3062 6.49969L18.0843 6.19312ZM18.1725 7.05579L17.9305 6.70262L18.3174 6.50066L18.5555 6.87587L18.1725 7.05579" fill="#005534"/>
<path fill-rule="evenodd" clip-rule="evenodd" d="M17.7896 7.27448L18.1401 7.06448L18.3287 7.39448C18.2002 7.37259 18.0686 7.34558 17.9409 7.31416C17.8895 7.30186 17.839 7.28853 17.7896 7.27469C17.7678 7.26905 17.7467 7.26239 17.7255 7.25624L17.7896 7.27469V7.27448ZM18.0814 6.1957V6.19622L17.7023 6.36434L17.5205 6.09929C17.5479 6.09026 17.5455 6.08391 17.5716 6.0815C17.5746 6.08099 17.6576 6.13788 17.6358 6.08324C17.6205 6.0447 17.6551 6.05274 17.6984 6.03967C17.7006 6.04101 17.7033 6.04224 17.7057 6.04352L17.7112 6.04505C17.7389 6.05505 17.7501 6.04946 17.7717 6.06453L17.7794 6.06833C17.8552 6.10523 17.9317 6.13752 18.008 6.16777C18.033 6.17776 18.0577 6.18622 18.0826 6.19575L18.0816 6.19627H18.0814" fill="#005534"/>
<path fill-rule="evenodd" clip-rule="evenodd" d="M17.7579 7.25162L17.7558 7.25265C17.6567 7.22369 17.5638 7.19319 17.482 7.16208C17.3951 7.12906 17.321 7.09559 17.2642 7.06315L17.5447 6.91065L17.758 7.25162H17.7579ZM17.1617 6.63668C17.1627 6.5948 17.1579 6.60008 17.1705 6.55097C17.1711 6.54882 17.1867 6.55313 17.1872 6.55097C17.1934 6.52801 17.1843 6.51802 17.1933 6.49357C17.1948 6.48946 17.2092 6.46045 17.2108 6.4563C17.2204 6.43139 17.2078 6.45784 17.2204 6.43139C17.2339 6.4033 17.2397 6.42288 17.2542 6.39807L17.3138 6.55738L17.1617 6.63668Z" fill="#005534"/>
<path fill-rule="evenodd" clip-rule="evenodd" d="M17.2257 6.76423C17.2236 6.7266 17.2259 6.68529 17.2334 6.64044C17.2337 6.63839 17.234 6.63654 17.2344 6.63454C17.238 6.61353 17.2428 6.59179 17.2489 6.56929L17.2521 6.55776C17.2585 6.53479 17.2658 6.51132 17.2748 6.48687C17.2841 6.46088 17.2948 6.43715 17.3056 6.41398C17.3774 6.25882 17.4727 6.1683 17.566 6.12857C17.5891 6.11883 17.6116 6.11104 17.6342 6.10725C17.6367 6.10674 17.6393 6.10546 17.6418 6.10494C17.6772 6.09777 17.7515 6.11058 17.81 6.14236L17.8166 6.14544C17.8848 6.17414 17.953 6.19823 18.0212 6.22079C18.0432 6.22848 18.0652 6.23463 18.0873 6.2418C18.1027 6.24693 18.118 6.25154 18.1334 6.25615C18.1508 6.26128 18.1698 6.26692 18.1883 6.27204C18.2221 6.28178 18.2559 6.29101 18.2887 6.2987C18.3302 6.30895 18.3707 6.31818 18.4107 6.32638C18.4543 6.3356 18.4968 6.34381 18.5384 6.35098C18.6342 6.3679 18.7234 6.38071 18.8003 6.38891L18.4548 6.79898L18.6424 7.31361C18.5655 7.31105 18.4835 7.30438 18.4 7.29516C18.2872 7.28337 18.1719 7.26697 18.0591 7.24646C18.014 7.23826 17.9694 7.22955 17.9258 7.22032C17.9063 7.21622 17.8879 7.21212 17.8694 7.20751C17.8684 7.20699 17.8674 7.20699 17.8664 7.20699C17.7787 7.187 17.6962 7.16548 17.6234 7.14241C17.546 7.1178 17.4794 7.09218 17.4281 7.06655C17.3891 7.04707 17.3584 7.02708 17.3394 7.0076C17.3369 7.00555 17.3348 7.00299 17.3328 7.00042C17.2718 6.95532 17.2287 6.87638 17.2226 6.76617L17.2257 6.76423ZM17.2499 7.08459C17.3334 7.17086 17.5585 7.25236 17.8249 7.31443C17.8714 7.3252 17.9192 7.33545 17.9677 7.34493C18.2741 7.40531 18.6099 7.43894 18.8421 7.42592L18.6101 6.82507L19.1091 6.29316C19.1091 6.29316 18.7984 6.29096 18.4081 6.20551C18.3664 6.19639 18.3238 6.18629 18.2806 6.17517C18.1473 6.14134 18.008 6.09674 17.871 6.03984C17.8423 6.02806 17.8135 6.01627 17.785 6.00294C17.731 5.98705 17.6738 5.98397 17.6164 5.99423C17.4492 6.03011 17.2571 6.18542 17.1585 6.45247L17.1583 6.45299L17.1552 6.46273C17.0519 6.75336 17.1455 6.97787 17.2499 7.08551V7.08459Z" fill="#1A1919"/>
<path fill-rule="evenodd" clip-rule="evenodd" d="M16.1321 5.38339C15.9397 4.7912 15.3038 4.4672 14.7115 4.65962C14.1194 4.852 13.7952 5.48796 13.9877 6.08014C14.1801 6.67228 14.8161 6.99638 15.4082 6.80401C16.0005 6.61159 16.3245 5.97552 16.1321 5.38339ZM15.0321 15.9834C13.3408 15.9841 9.90218 16.2158 7.62744 16.7455L7.81679 16.7929C7.84842 16.7844 7.87779 16.7796 7.90649 16.7764L9.38821 18.2435L8.19953 19.7271C8.31589 19.7552 8.43378 19.796 8.54963 19.8555C9.13858 19.693 9.74394 19.552 10.3606 19.4309L9.59063 18.551L9.59709 18.1723L11.2418 16.3228H11.2419L13.1321 18.0533L15.0295 16.107H15.0321V15.9834Z" fill="#FFFFFE"/>
<path fill-rule="evenodd" clip-rule="evenodd" d="M15.0088 15.9834C16.7002 15.9841 20.1387 16.2158 22.4135 16.7455L22.2241 16.7929C22.1925 16.7844 22.1632 16.7796 22.1344 16.7764L20.6528 18.2435L21.8415 19.7271C21.7251 19.7552 21.6072 19.7959 21.4914 19.8554C20.9024 19.693 20.297 19.552 19.6809 19.4308L20.4498 18.5509L20.2981 18.1721L18.7983 16.3227H18.7977L16.9073 18.0532L15.0098 16.1064H15.0088V15.9834Z" fill="#FFFFFE"/>
<path fill-rule="evenodd" clip-rule="evenodd" d="M24.4897 19.0641C24.3779 18.8558 23.5527 18.484 21.7394 18.0328C18.9828 17.3468 16.7257 17.2648 15.04 17.2648C13.3513 17.2648 11.086 17.3468 8.32949 18.0328C6.51597 18.484 5.69071 18.8558 5.57897 19.0641C5.37548 19.4428 5.80758 20.4018 6.02184 20.9219C6.34016 21.6943 7.00805 22.6059 7.00805 22.6059C7.00805 22.6059 6.88093 22.2629 7.85073 21.9651C11.5136 20.8406 15.0187 20.9298 15.0387 20.9298C15.0648 20.9298 18.5534 20.8406 22.2164 21.9651C23.1862 22.2629 23.059 22.6059 23.059 22.6059C23.059 22.6059 23.7269 21.6943 24.0452 20.9219C24.2595 20.4018 24.6911 19.4428 24.4881 19.0641" fill="#005534"/>
<path fill-rule="evenodd" clip-rule="evenodd" d="M15.0231 17.3875C14.2739 17.3875 13.2626 17.4018 12.082 17.5137C10.8087 17.6342 9.58712 17.8427 8.34749 18.1513C7.50634 18.3606 6.83466 18.5629 6.3515 18.7526C5.76039 18.9846 5.68837 19.1088 5.68565 19.1139C5.64188 19.1954 5.61512 19.381 5.73625 19.8017C5.82595 20.1145 5.96588 20.4501 6.07865 20.7197C6.09813 20.7668 6.11709 20.8118 6.13452 20.8538C6.34981 21.3766 6.73424 21.9723 6.94901 22.287C7.08946 22.1047 7.37343 21.9471 7.79529 21.8176C10.9477 20.8493 13.9755 20.7745 14.8284 20.7745C14.8787 20.7745 14.953 20.7745 15.0222 20.776H15.0268C15.0837 20.775 15.1488 20.7745 15.2205 20.7745C16.0704 20.7745 19.089 20.8493 22.2419 21.817C22.6637 21.9462 22.9477 22.1041 23.0882 22.2861C23.3024 21.9713 23.6874 21.3752 23.9027 20.8529C23.9196 20.8108 23.9385 20.7657 23.958 20.7186C24.0703 20.449 24.2107 20.1132 24.3004 19.8005C24.4214 19.3797 24.3947 19.1942 24.3507 19.1127C24.3476 19.1075 24.2758 18.983 23.6848 18.7513C23.2014 18.5616 22.53 18.3592 21.6888 18.15C20.4489 17.8415 19.2284 17.6328 17.9577 17.5119C16.7798 17.4001 15.7705 17.3858 15.0227 17.3858H15.0212L15.0231 17.3875ZM23.1566 22.672L22.9157 22.5423C22.9129 22.5499 22.9124 22.5534 22.9124 22.5534C22.9124 22.5511 22.9262 22.3163 22.1614 22.0816C19.0454 21.1252 16.0612 21.0508 15.2211 21.0508C15.1508 21.0508 15.0873 21.0513 15.0319 21.0524L15.0237 21.0529H15.0165C14.9494 21.0519 14.8771 21.0513 14.8279 21.0513C13.9847 21.0513 10.9917 21.1257 7.87576 22.0821C7.11099 22.3169 7.12483 22.5517 7.12483 22.5542C7.12483 22.5542 7.14585 22.6516 7.14328 22.6439L6.91365 22.729C6.88597 22.6916 6.19859 21.7392 5.87772 20.9601L5.82236 20.8274C5.5061 20.0703 5.23904 19.3598 5.44049 18.9846C5.49021 18.8918 5.62809 18.7401 6.24883 18.4966C6.74296 18.3029 7.42623 18.0968 8.27916 17.8846C9.53191 17.573 10.7667 17.3623 12.0543 17.2403C13.2461 17.1275 14.2661 17.1127 15.0212 17.1127H15.0227C15.7767 17.1132 16.7947 17.1275 17.9839 17.2403C19.2684 17.3623 20.5022 17.573 21.7555 17.8851C22.6084 18.0973 23.2911 18.3034 23.7858 18.4977C24.4065 18.7411 24.5444 18.8929 24.5941 18.9856C24.7956 19.3609 24.5285 20.0713 24.2123 20.8284C24.1928 20.875 24.1738 20.9196 24.1569 20.9611C23.8355 21.7403 23.182 22.6368 23.1543 22.6742L23.1566 22.672Z" fill="#1A1919"/>
<path fill-rule="evenodd" clip-rule="evenodd" d="M9.88538 17.656C9.87579 17.6971 9.86472 17.7348 9.85452 17.7673C9.81321 17.8996 9.75533 18.0318 9.6785 18.1692C9.72976 18.101 9.77702 18.0282 9.81997 17.9513C9.87302 17.8565 9.92085 17.7523 9.96231 17.6417C9.95001 17.644 9.93771 17.6462 9.92592 17.6486C9.91208 17.6512 9.89875 17.6536 9.88492 17.656H9.88538ZM7.63647 18.3846C7.64396 18.4121 7.65067 18.439 7.65657 18.4653C7.65734 18.4415 7.65708 18.4165 7.6559 18.3897L7.63642 18.3846L7.63647 18.3846ZM12.8852 18.6291C12.8793 18.6768 12.8702 18.7243 12.8574 18.774C12.8514 18.7976 12.8448 18.8209 12.8378 18.8441L12.8393 18.841C12.9025 18.7006 12.9632 18.5694 13.0228 18.4443L13.0101 18.4453C13.0019 18.4592 12.9932 18.474 12.983 18.4889L12.8851 18.6298L12.8852 18.6291ZM7.14686 18.2916C7.1325 18.3219 7.11943 18.3542 7.10739 18.3892C7.07714 18.477 7.06623 18.5689 7.07407 18.67C7.08058 18.7537 7.08981 18.8117 7.13015 18.8755C7.14434 18.8981 7.16131 18.9234 7.18294 18.9329C7.21011 18.9377 7.22087 18.9096 7.23225 18.8846C7.24353 18.8597 7.25035 18.8303 7.25301 18.7949C7.25988 18.7013 7.24645 18.6 7.21057 18.4758C7.19263 18.4138 7.17131 18.3522 7.14686 18.2916ZM17.733 18.8041C17.6838 18.9538 17.6134 19.0927 17.5222 19.2188C17.6121 19.1245 17.6735 19.0179 17.7099 18.8938C17.7137 18.881 17.7186 18.8677 17.7235 18.8549L17.733 18.8292V18.8046V18.8041ZM16.5613 19.1906C16.5685 19.2019 16.5746 19.2142 16.5792 19.2265C16.5797 19.2219 16.5808 19.2173 16.5813 19.2126C16.592 19.1516 16.6105 19.0901 16.6372 19.024C16.6669 18.9502 16.7007 18.879 16.7386 18.8118C16.6648 18.9056 16.6161 19.004 16.591 19.1112C16.5838 19.1404 16.5736 19.167 16.5603 19.1921L16.5613 19.1906ZM11.1971 19.1024C11.1694 19.1814 11.1377 19.2572 11.1008 19.3295C11.1079 19.3208 11.1156 19.3121 11.1249 19.3029C11.15 19.2777 11.1756 19.2526 11.2007 19.2275C11.192 19.1998 11.1884 19.1716 11.191 19.1424C11.1915 19.1368 11.1925 19.1219 11.1966 19.1035L11.1971 19.1024ZM14.8775 18.9456L14.6606 19.4033C14.6545 19.4161 14.6499 19.4259 14.6448 19.4356L14.6406 19.4428H14.695L14.7139 19.4049C14.7816 19.2685 14.8493 19.1317 14.9174 18.9953C14.9256 18.9753 14.9492 18.9215 15.0087 18.88L15.0482 18.7836C15.0538 18.7688 15.0594 18.7554 15.0661 18.7426L15.0881 18.6996C15.1112 18.6539 15.1348 18.6088 15.1594 18.5642C15.1932 18.5022 15.2281 18.4407 15.2624 18.3787H15.2035L15.1989 18.3864C15.0712 18.5965 14.9697 18.7729 14.878 18.942L14.8749 18.9476L14.8775 18.9456ZM15.6212 19.4546C15.6279 19.4587 15.6335 19.4602 15.6407 19.4612C15.6981 19.4695 15.753 19.4623 15.8093 19.4392L15.817 19.4361C15.8088 19.4208 15.8016 19.4038 15.796 19.3859C15.7811 19.3398 15.7776 19.2921 15.7842 19.2439C15.7914 19.1921 15.8083 19.1414 15.8355 19.0896L15.8749 19.0143C15.9093 18.9482 15.9441 18.882 15.978 18.8159C16.0569 18.6621 16.1282 18.5283 16.1968 18.4043H16.1953L16.1666 18.4028L16.1297 18.4633C16.0538 18.5878 15.9785 18.7124 15.9042 18.8369C15.8755 18.8851 15.8401 18.9251 15.7986 18.9579L15.8257 19.0071L15.7032 19.2357C15.6822 19.2742 15.6612 19.3126 15.6417 19.3521C15.6156 19.4038 15.6161 19.4366 15.6192 19.4566V19.4577L15.6212 19.4546ZM13.4125 19.2608L13.4243 19.289C13.4299 19.3018 13.4361 19.3157 13.4417 19.33C13.452 19.3546 13.4617 19.3772 13.4715 19.3956C13.4812 19.4136 13.4996 19.4372 13.555 19.4556C13.5719 19.4618 13.5883 19.4659 13.6052 19.4694C13.5765 19.4341 13.554 19.392 13.5376 19.3434C13.5242 19.3044 13.516 19.268 13.513 19.2326C13.5017 19.1081 13.5125 18.9994 13.5453 18.9005L13.554 18.8733C13.4966 18.9871 13.4576 19.0922 13.4361 19.1937C13.431 19.2178 13.4228 19.2408 13.4115 19.2624L13.4125 19.2608ZM18.3015 19.0942L18.2923 19.1142C18.2764 19.1481 18.2615 19.1804 18.2513 19.2096C18.2149 19.3131 18.2021 19.3972 18.2113 19.4741L18.2144 19.4966L18.2113 19.4705L18.221 19.4151C18.2251 19.3885 18.2303 19.3598 18.2374 19.3311C18.26 19.2393 18.2979 19.146 18.3533 19.0466C18.402 18.9589 18.4543 18.88 18.5112 18.8077L18.484 18.8267L18.3256 19.0568C18.322 19.0625 18.3184 19.0671 18.3148 19.0722L18.3046 19.0871L18.2989 19.0953L18.3015 19.0942ZM12.5611 19.3818L12.576 19.5171L12.578 19.5381C12.5852 19.5376 12.5944 19.5351 12.6047 19.5315C12.6339 19.5207 12.6652 19.5007 12.7041 19.4746L12.7502 19.4423C12.7154 19.3967 12.6949 19.3387 12.6923 19.2736C12.6908 19.2367 12.6944 19.2003 12.7021 19.1655C12.6605 19.2408 12.6134 19.3136 12.5601 19.3823L12.5611 19.3818ZM11.6708 19.2106V19.3336C11.6702 19.39 11.6738 19.4341 11.682 19.473C11.6907 19.5151 11.7025 19.5479 11.7179 19.574C11.7307 19.595 11.742 19.6017 11.7589 19.6058C11.7702 19.6089 11.7815 19.6109 11.7933 19.6125C11.7707 19.5802 11.7543 19.5427 11.7456 19.5012C11.7348 19.4515 11.7317 19.4018 11.7374 19.3541C11.7492 19.247 11.7733 19.1455 11.8091 19.0522C11.8425 18.9666 11.8778 18.8872 11.9173 18.8123C11.8307 18.9087 11.7692 19.003 11.7297 19.1019C11.7133 19.1424 11.6938 19.1788 11.6702 19.2116L11.6708 19.2106ZM17.7864 19.5704L17.7741 19.5832C17.7156 19.6437 17.651 19.697 17.5803 19.7421C17.6321 19.7309 17.6869 19.7232 17.7459 19.7196C17.7736 19.7181 17.8007 19.717 17.8284 19.7165C17.8089 19.6709 17.7946 19.6222 17.7859 19.5709L17.7864 19.5704ZM8.931 20.1138C8.93971 20.1174 8.9474 20.1189 8.95509 20.1194C8.99456 20.123 9.033 20.1179 9.07247 20.1035C9.12014 20.0866 9.1673 20.0589 9.20882 20.0318C9.16986 19.9928 9.14372 19.9462 9.13142 19.8934C9.12014 19.8462 9.11758 19.7985 9.12271 19.7503C9.12937 19.6883 9.14218 19.6273 9.16166 19.5684C9.18985 19.4812 9.21907 19.3936 9.24829 19.3064L9.25803 19.2767C9.26418 19.2583 9.27084 19.2398 9.27699 19.2214C9.28571 19.1968 9.29442 19.1722 9.30211 19.1475C9.30672 19.1327 9.30929 19.1142 9.29545 19.0825C9.28417 19.0563 9.26367 19.0322 9.23137 19.0076C9.2242 19.002 9.21753 18.9974 9.20984 18.9917L9.09349 18.9066C9.05812 18.9374 9.02224 18.9666 8.98533 18.9943C9.03608 19.0307 9.08939 19.0886 9.12117 19.1804C9.15039 19.2665 9.14936 19.3603 9.11809 19.452C9.09298 19.5253 9.06888 19.593 9.04377 19.6581C8.98636 19.8098 8.95048 19.9272 8.9269 20.0384C8.92126 20.0651 8.92024 20.0856 8.92382 20.101C8.92536 20.1086 8.9269 20.1133 8.92792 20.1163L8.931 20.1138ZM8.22774 17.7667C8.27848 17.8374 8.31795 17.9179 8.34871 18.0122C8.42867 18.2623 8.41996 18.5099 8.32257 18.7482C8.28771 18.8338 8.25439 18.9107 8.22159 18.9835C8.14265 19.1568 8.06269 19.33 7.98221 19.5023C7.85817 19.7683 7.73976 20.0353 7.64032 20.2609L7.59162 20.3716C7.64903 20.3572 7.70644 20.3429 7.76385 20.329C7.78333 20.2819 7.80332 20.2352 7.82331 20.1881L7.92275 19.9544C8.0063 19.758 8.08934 19.5617 8.17238 19.3654C8.20262 19.2936 8.25337 19.2398 8.32359 19.2039C8.36408 19.1834 8.40407 19.1624 8.44353 19.1404C8.43687 19.1342 8.43021 19.1281 8.42457 19.1209L8.3605 19.0476L8.37126 18.9584C8.37229 18.9435 8.37536 18.9169 8.38869 18.8861C8.43328 18.7841 8.46301 18.6755 8.49018 18.5729C8.51888 18.4627 8.53119 18.3735 8.52914 18.292C8.5276 18.2223 8.52247 18.1706 8.51273 18.1244C8.49992 18.0634 8.47173 18.0035 8.42457 17.9363C8.3687 17.8579 8.3036 17.802 8.2262 17.7672L8.22774 17.7667ZM18.607 20.2921L18.6019 20.3003C18.566 20.3552 18.527 20.4141 18.484 20.4741C18.4963 20.4618 18.5081 20.4485 18.5199 20.4352C18.566 20.3824 18.606 20.3229 18.6362 20.2768C18.6429 20.2665 18.6501 20.2563 18.6578 20.245L18.7792 20.063L19.1514 19.473C19.178 19.4305 19.2052 19.3885 19.2324 19.3464C19.259 19.3054 19.2852 19.2644 19.3118 19.2234C19.339 19.1814 19.3667 19.1393 19.3938 19.0978L19.4025 19.0845C19.4271 19.0471 19.4523 19.0092 19.4774 18.9717C19.4963 18.9435 19.5158 18.9153 19.5353 18.8866L19.6235 18.757C19.6106 18.7549 19.5978 18.7529 19.585 18.7503C19.5666 18.7729 19.5481 18.7872 19.5394 18.7939L19.4261 18.8892C19.4164 18.9328 19.403 18.9763 19.3866 19.0194C19.2969 19.2521 19.1606 19.451 18.9807 19.6119L18.6132 20.2942L18.6044 20.2927L18.607 20.2921ZM9.83827 19.8559L9.84545 19.9426C9.84955 19.9887 9.84186 20.0343 9.82289 20.0779L9.78752 20.1599C9.72807 20.2978 9.66861 20.4352 9.60863 20.5725L9.54559 20.7166C9.56199 20.714 9.57788 20.7109 9.59377 20.7084L9.84647 20.0969C9.8762 20.0256 9.90542 19.9544 9.93515 19.8831C9.96847 19.7816 10.0418 19.7416 10.0833 19.7263L10.1366 19.7068C10.1258 19.6586 10.1243 19.6073 10.131 19.5504C10.1412 19.4638 10.1617 19.3746 10.192 19.2854C10.2571 19.0912 10.3478 18.9133 10.4616 18.7575L10.4621 18.757L10.4077 18.7662L10.4067 18.7682C10.3749 18.8369 10.3432 18.9056 10.3119 18.9743C10.2868 19.0297 10.2622 19.0855 10.2371 19.1409C10.2012 19.2208 10.1658 19.3008 10.1294 19.3803C10.0551 19.5422 9.97257 19.6827 9.87774 19.8093C9.86492 19.8257 9.85211 19.8421 9.83827 19.8585V19.8559ZM8.83002 21.2866L9.15192 20.5331C9.07452 20.5525 8.9961 20.5592 8.91665 20.5525C8.87 20.5484 8.82387 20.5382 8.7803 20.5223C8.63421 20.469 8.53477 20.3506 8.50043 20.1896C8.48454 20.1138 8.48557 20.0348 8.50351 19.9482C8.52965 19.8231 8.56809 19.695 8.62653 19.5366C8.60346 19.5494 8.58039 19.5617 8.55681 19.5735C8.47942 19.7575 8.0755 20.7043 8.0755 20.7043C8.0755 20.7043 7.63058 20.8104 7.47322 20.8498L6.83967 21.001L7.24255 20.0871C7.33277 19.8821 7.43887 19.6437 7.55062 19.4018C7.42401 19.473 7.28561 19.5207 7.13799 19.5443C7.00728 19.5653 6.88118 19.5571 6.76483 19.5202C6.56287 19.4561 6.40858 19.3152 6.31786 19.1142C6.2748 19.0189 6.25071 18.9153 6.24456 18.7975C6.23072 18.5514 6.29325 18.3141 6.43063 18.0921C6.52853 17.9343 6.6536 17.7969 6.80276 17.6836C7.04162 17.5027 7.31175 17.3797 7.60649 17.3187C7.72336 17.2946 7.83151 17.2823 7.93659 17.2807H7.95248C8.09908 17.2807 8.23799 17.3064 8.36511 17.3561C8.53067 17.4212 8.6701 17.5329 8.77979 17.6877C8.8618 17.8041 8.91408 17.9184 8.9392 18.0383C8.95868 18.1331 8.96278 18.2239 8.96432 18.2844C8.96534 18.3331 8.96329 18.3828 8.95817 18.434C8.98021 18.4094 9.00225 18.3843 9.02378 18.3577C9.10938 18.2536 9.18678 18.1444 9.25393 18.0337C9.33799 17.8953 9.39847 17.7672 9.43692 17.6411C9.49535 17.4499 9.48664 17.2961 9.48664 17.2961L10.5508 17.1141C10.5508 17.1141 10.499 17.3269 10.4713 17.4448C10.4488 17.5534 10.4149 17.6677 10.3678 17.7938C10.318 17.9261 10.2606 18.0511 10.1966 18.166C10.0812 18.373 9.93925 18.556 9.77471 18.7108C9.73114 18.7518 9.68911 18.7898 9.64759 18.8262C9.66604 18.8544 9.68142 18.8836 9.69475 18.9143C9.7337 19.0056 9.74703 19.1004 9.73473 19.1932C9.76958 19.1173 9.80341 19.0409 9.83776 18.9646C9.86287 18.9087 9.88799 18.8523 9.91362 18.7964C9.9454 18.7267 9.97769 18.657 10.0095 18.5873L10.0402 18.5201C10.0448 18.5099 10.05 18.5002 10.0556 18.4889L10.1089 18.3812L10.214 18.3607C10.2791 18.3479 10.3454 18.3372 10.4118 18.3264C10.4118 18.3264 10.5169 18.309 10.5381 18.3049C10.6027 18.2936 10.9625 18.2341 11.0069 18.227C11.172 18.2003 11.3145 18.2321 11.4329 18.3187C11.5051 18.372 11.5615 18.4371 11.601 18.5135C11.7143 18.3894 11.8286 18.2926 11.9495 18.2177C12.0762 18.1393 12.1976 18.0937 12.3181 18.064C12.5144 18.0153 13.6903 17.9753 13.6903 17.9753L13.6226 18.147C13.7297 18.0752 13.8451 18.0224 13.9686 17.9891C14.1014 17.9527 14.2357 17.9384 14.3694 17.9466C14.4361 17.9502 14.5022 17.965 14.5658 17.9896C14.6734 18.0317 14.7564 18.0988 14.8118 18.187L14.8262 18.1624L14.8472 18.1275C14.8556 18.1132 14.8641 18.0988 14.8728 18.0845C14.879 18.0742 14.8861 18.064 14.8938 18.0527L14.9646 17.9471L15.0799 17.9461C15.1173 17.9461 15.1547 17.9455 15.1926 17.9455C15.3521 17.9455 15.4961 17.9486 15.6324 17.9553C15.6324 17.9553 16.2757 17.9758 16.305 17.9763C16.3495 17.9773 16.3941 17.9799 16.4392 17.9824C16.4787 17.9845 16.5192 17.9866 16.5606 17.9876L16.8927 17.9958L16.8005 18.1936C16.9072 18.1367 17.0234 18.0947 17.1475 18.0686C17.2533 18.0465 17.351 18.0373 17.4499 18.0409C17.5809 18.0455 17.7026 18.0737 17.8113 18.1234C17.8707 18.1511 17.9256 18.187 17.9733 18.2295C18.0635 18.31 18.1224 18.412 18.1486 18.533C18.166 18.5212 18.1829 18.5089 18.2003 18.4966C18.2254 18.4786 18.2511 18.4607 18.2762 18.4433C18.4141 18.3479 18.5663 18.2818 18.7298 18.2459C18.8401 18.2218 18.9528 18.2141 19.064 18.2236C19.1799 18.2334 19.5971 18.3154 19.6361 18.3225L19.8283 18.3554C19.8539 18.3595 19.879 18.3636 19.9047 18.3682C19.9334 18.3731 19.9621 18.3784 19.9918 18.3841L20.3393 18.4476L20.1811 18.7154C20.1586 18.7533 20.1355 18.7856 20.115 18.8138C20.1058 18.8266 20.0966 18.8389 20.0879 18.8517C20.0703 18.8781 20.052 18.9045 20.0335 18.9307L19.8936 19.1357C19.875 19.163 19.8562 19.1906 19.8377 19.2179C19.8134 19.2543 19.7893 19.2909 19.7653 19.3274L19.7566 19.3407C19.7294 19.3823 19.7022 19.4235 19.6756 19.4649C19.6494 19.5054 19.6228 19.5459 19.5967 19.5864C19.57 19.6279 19.5431 19.6695 19.5167 19.711L19.5728 19.9001C19.5841 19.9027 19.6056 19.9083 19.6302 19.9206L20.1146 20.1651L20.1813 20.199L20.211 20.261L20.4729 20.2512C20.4729 20.2512 20.356 20.4296 20.0941 20.5788C20.0159 20.6229 19.925 20.6587 19.8194 20.6885C19.6789 20.7274 19.5328 20.7408 19.3878 20.7285C19.2222 20.7141 19.0664 20.6803 18.9249 20.6275L18.9239 20.6273C18.8998 20.6596 18.8737 20.6929 18.8449 20.7257C18.6615 20.9344 18.4344 21.0651 18.1695 21.1138C18.0338 21.1389 17.8999 21.145 17.7697 21.1332C17.7025 21.1271 17.6133 21.1168 17.5226 21.0917C17.4254 21.0651 17.3427 21.028 17.2689 20.9784C17.1053 20.8682 17.0074 20.7052 16.9849 20.5069C16.9752 20.4197 16.9859 20.3316 17.0197 20.2296C17.0664 20.0886 17.1486 19.9733 17.2624 19.8876C17.248 19.8917 17.2331 19.8953 17.2186 19.8994C17.1243 19.9229 17.0243 19.9352 16.9213 19.9352H16.9146C16.8044 19.9347 16.7055 19.9183 16.6122 19.886C16.4764 19.8384 16.3677 19.7604 16.2898 19.6554C16.2565 19.6805 16.2237 19.7035 16.1909 19.7251C16.1104 19.7784 16.0405 19.8163 15.9714 19.8445C15.8453 19.8963 15.7115 19.9137 15.5777 19.8953C15.5121 19.8865 15.4511 19.865 15.3962 19.8327C15.2804 19.7635 15.2061 19.6522 15.1876 19.5189C15.184 19.4921 15.182 19.4651 15.182 19.4384C15.1548 19.4928 15.1279 19.5471 15.1009 19.6014L15.0758 19.6522C15.0619 19.6804 15.0476 19.7091 15.0337 19.7378C14.9922 19.8254 14.9066 19.8798 14.8113 19.8798L14.6852 19.8808L14.4663 19.8823L14.3812 19.8839L14.3146 19.8854C14.3059 19.8854 14.2977 19.8854 14.289 19.8849L14.1378 19.8808L14.1101 19.8095C14.0383 19.8429 13.966 19.8685 13.8933 19.8869C13.7313 19.929 13.5673 19.9228 13.4125 19.87C13.3012 19.8321 13.212 19.7726 13.1459 19.6927C13.0793 19.7439 13.0137 19.7916 12.9486 19.8362C12.8922 19.8752 12.8291 19.9151 12.7533 19.9428C12.6907 19.9659 12.6313 19.9772 12.5708 19.9772L12.5636 19.9766C12.5036 19.9756 12.4452 19.9628 12.3888 19.9382C12.3545 19.9233 12.3232 19.9049 12.296 19.8834C12.2053 19.9536 12.1131 20.0007 12.0131 20.0269C11.8937 20.0581 11.7712 20.0597 11.6517 20.0294C11.5205 19.9966 11.4139 19.9172 11.3437 19.7998C11.3355 19.786 11.3278 19.7721 11.3206 19.7578C11.2509 19.8418 11.1822 19.911 11.1099 19.9715C10.9695 20.0884 10.8142 20.1684 10.6486 20.2088C10.5538 20.2319 10.4538 20.2401 10.3529 20.234C10.3233 20.2319 10.294 20.2278 10.2652 20.2222L10.2478 20.2642L9.90075 21.0972L8.82895 21.2894L8.83002 21.2866Z" fill="#1A1919"/>
<path fill-rule="evenodd" clip-rule="evenodd" d="M21.095 19.2525C21.0819 19.2923 21.0658 19.3325 21.0468 19.3734C21.0341 19.4006 21.0209 19.4272 21.0069 19.4534L21.014 19.4436C21.0834 19.3487 21.1529 19.2537 21.2231 19.1594C21.2418 19.1342 21.2607 19.1091 21.2797 19.0842L21.2674 19.0815C21.2571 19.0795 21.2469 19.0769 21.2366 19.0748L21.099 19.2573L21.095 19.2532V19.2525ZM20.2374 19.0326C20.1605 19.0771 20.0994 19.1229 20.0505 19.1721C19.9893 19.2336 19.9392 19.3118 19.8971 19.4115C19.8624 19.4937 19.848 19.5762 19.8528 19.6637C19.8554 19.7099 19.8651 19.7523 19.8821 19.7937L19.8836 19.7973L19.8821 19.7821C19.881 19.77 19.881 19.7575 19.881 19.7451C19.8795 19.6732 19.8969 19.6107 19.9138 19.5592C19.9451 19.4649 19.9902 19.3727 20.0553 19.2691C20.1107 19.1815 20.1706 19.103 20.2357 19.0328L20.2374 19.0326ZM20.7145 19.9183C20.7162 19.9303 20.7187 19.9553 20.7139 19.9856C20.7122 19.9964 20.7111 20.003 20.7339 20.0235C20.7434 20.0317 20.7499 20.0343 20.7631 20.0343C20.771 20.0343 20.7804 20.0328 20.7907 20.0307C20.819 20.0246 20.851 20.0107 20.8864 19.9943C20.8342 19.92 20.8164 19.8241 20.8387 19.737C20.8438 19.7175 20.85 19.698 20.8574 19.6801C20.8185 19.7283 20.7769 19.7734 20.7324 19.8154C20.724 19.8231 20.7156 19.8313 20.7073 19.8385L20.7145 19.9174V19.9183ZM22.8892 19.7248C22.8564 19.8035 22.8122 19.882 22.7532 19.9669C22.7071 20.0333 22.6548 20.0954 22.5964 20.1532C22.6447 20.1148 22.6888 20.0717 22.7292 20.024C22.7943 19.9466 22.8401 19.8703 22.869 19.7908C22.8777 19.7667 22.8844 19.7452 22.8892 19.7247V19.7248ZM20.9578 20.8124C20.9761 20.8155 20.9944 20.8191 21.0127 20.8221L21.0309 20.797C21.1059 20.6945 21.1809 20.592 21.2556 20.4895C21.2976 20.4315 21.3392 20.3736 21.3807 20.3157L21.4552 20.2116C21.5177 20.1112 21.6136 20.0999 21.6525 20.0999H21.6704C21.6735 20.0604 21.6812 20.0215 21.693 19.9841C21.7145 19.9154 21.7448 19.8487 21.7858 19.779C21.9001 19.5848 22.0359 19.4315 22.201 19.3105L22.2081 19.3049C22.1682 19.2946 22.1287 19.2839 22.0887 19.2736C22.0559 19.3136 22.0236 19.3536 21.9918 19.3946C21.9103 19.4981 21.815 19.6222 21.7279 19.7519C21.6792 19.8236 21.6279 19.8836 21.5705 19.9349C21.5387 19.9636 21.5064 19.9887 21.4736 20.0107L21.5049 20.0435L21.0528 20.675C21.0405 20.6924 21.0277 20.7104 21.0154 20.7273C21.0036 20.7432 20.9918 20.7596 20.9795 20.7755L20.9549 20.8088L20.9578 20.8124ZM20.2157 21.1097L20.6325 20.5207L20.6653 20.4761L20.676 20.4602C20.5904 20.4449 20.512 20.4069 20.4449 20.3475C20.4187 20.3244 20.3957 20.2998 20.3757 20.2742C20.3311 20.2931 20.286 20.3085 20.2393 20.3193C20.0128 20.3726 19.7975 20.3167 19.6181 20.1578C19.5596 20.1061 19.5145 20.0415 19.4807 19.96C19.4438 19.8733 19.4228 19.7811 19.4177 19.6857C19.4089 19.533 19.4351 19.3833 19.4951 19.2408C19.5591 19.0886 19.6396 18.9656 19.7406 18.8641C19.819 18.7846 19.9133 18.7144 20.0286 18.6483C20.1245 18.5934 20.2173 18.5534 20.3126 18.5273C20.4695 18.4832 20.635 18.4812 20.8021 18.5206L21.531 18.6939C21.5469 18.6975 21.5633 18.7011 21.5792 18.7041C21.6212 18.7134 22.0636 18.82 22.0636 18.82C22.0774 18.8225 22.366 18.8969 22.4967 18.9307C22.5188 18.9363 22.5403 18.942 22.5629 18.9481L22.7361 18.9948C23.1134 19.0886 23.2682 19.2301 23.321 19.5314C23.343 19.6581 23.3281 19.7903 23.2753 19.9354C23.2287 20.064 23.158 20.1829 23.059 20.3003C22.9078 20.4797 22.7151 20.6145 22.4865 20.7027C22.3922 20.7391 22.2896 20.7601 22.1815 20.7657C22.0897 20.7698 22.0006 20.7565 21.938 20.7442C21.8873 20.7345 21.8432 20.7232 21.8032 20.7094C21.753 20.6924 21.7094 20.6719 21.6715 20.6489C21.6489 20.6796 21.6269 20.7109 21.6043 20.7417C21.5295 20.8447 21.4541 20.9472 21.3788 21.0502L21.2076 21.286L20.2127 21.1056L20.2157 21.1097Z" fill="#1A1919"/>
<path fill-rule="evenodd" clip-rule="evenodd" d="M18.4141 20.1641C18.4078 20.161 18.4025 20.1573 18.3965 20.1556C18.2687 20.1176 18.1392 20.0952 18.0052 20.112C17.9261 20.1217 17.8519 20.1452 17.7827 20.1844C17.7342 20.2118 17.6923 20.2469 17.659 20.2918C17.5942 20.3795 17.5722 20.4781 17.5849 20.585C17.589 20.6216 17.6023 20.6559 17.6233 20.6869C17.6449 20.7196 17.6746 20.7428 17.7115 20.7554C17.7412 20.7657 17.773 20.7685 17.8048 20.7643C17.876 20.7551 17.9416 20.7315 17.998 20.6848C18.036 20.6531 18.0729 20.6197 18.1062 20.5823C18.219 20.4578 18.3153 20.3209 18.4066 20.18C18.4091 20.1758 18.4107 20.1707 18.4132 20.1646L18.4141 20.1641ZM11.0407 18.7201C11.039 18.7068 11.0376 18.6832 11.0328 18.6604C11.0238 18.6183 10.9996 18.6012 10.9564 18.6042C10.9487 18.6047 10.9405 18.6057 10.9335 18.6087C10.9096 18.619 10.8851 18.6287 10.8626 18.6418C10.8182 18.6677 10.7786 18.7003 10.7443 18.7385C10.7059 18.781 10.6671 18.8241 10.633 18.8702C10.5248 19.0163 10.4442 19.1772 10.3861 19.35C10.3617 19.4217 10.3441 19.4956 10.3351 19.5714C10.3313 19.6027 10.331 19.6339 10.3392 19.6647C10.3508 19.7083 10.386 19.7319 10.4308 19.7262C10.436 19.7252 10.4411 19.7237 10.4462 19.7226C10.4855 19.7139 10.5189 19.6934 10.5506 19.6698C10.6045 19.6293 10.651 19.5817 10.6944 19.5304C10.842 19.3572 10.9428 19.1593 11.0071 18.942C11.0276 18.8728 11.0373 18.8015 11.0406 18.7185L11.0407 18.7201ZM12.6628 18.5291C12.6607 18.5158 12.6592 18.4921 12.6533 18.4695C12.6431 18.4311 12.6118 18.4114 12.5723 18.4184C12.5529 18.4218 12.5339 18.4278 12.516 18.4353C12.4816 18.4494 12.4514 18.4697 12.4222 18.4927C12.3371 18.5602 12.2663 18.6406 12.2053 18.7294C12.1203 18.8529 12.0541 18.9862 11.9998 19.1258C11.9685 19.2055 11.9501 19.2883 11.9408 19.3731C11.9378 19.3998 11.9398 19.4259 11.9455 19.4516C11.9511 19.4787 11.9649 19.5003 11.9916 19.511C12.0024 19.5151 12.0141 19.5172 12.0259 19.5182C12.0639 19.5208 12.0977 19.5059 12.1295 19.4875C12.1705 19.4644 12.2074 19.4347 12.2412 19.4019C12.2899 19.3547 12.333 19.3019 12.3745 19.2476C12.4965 19.0887 12.5826 18.9123 12.6323 18.7186C12.6472 18.6601 12.658 18.6012 12.6605 18.5305L12.6628 18.5291ZM17.5527 18.542C17.5537 18.5202 17.5527 18.4969 17.544 18.4743C17.5368 18.4549 17.5235 18.4404 17.504 18.4332C17.4861 18.4262 17.4661 18.4212 17.4466 18.4263C17.424 18.4319 17.401 18.4371 17.3789 18.4453C17.3379 18.4601 17.3015 18.4832 17.2662 18.5083C17.1908 18.5616 17.1252 18.6257 17.0663 18.6964C16.9653 18.8184 16.8874 18.9543 16.8284 19.1009C16.8095 19.148 16.7941 19.1967 16.7849 19.2469C16.7787 19.2803 16.7756 19.3141 16.7802 19.3484C16.7874 19.4028 16.8233 19.4346 16.8781 19.4366C16.9104 19.4376 16.9407 19.4294 16.9699 19.4171C17.0263 19.3935 17.076 19.3597 17.1216 19.3197C17.3236 19.1434 17.463 18.9276 17.5348 18.6693C17.5465 18.6272 17.5553 18.5852 17.5547 18.5396L17.5527 18.542ZM18.42 19.4729C18.4225 19.4934 18.4236 19.5078 18.4266 19.5219C18.4333 19.5552 18.4538 19.5788 18.4851 19.5911C18.5082 19.6003 18.5328 19.6037 18.5584 19.5993C18.5989 19.5923 18.6368 19.5783 18.6727 19.5586C18.7224 19.5314 18.768 19.4981 18.8106 19.4612C18.9766 19.3177 19.0966 19.1419 19.175 18.9373C19.1981 18.8784 19.2129 18.8174 19.2191 18.7544C19.2212 18.7303 19.2196 18.7072 19.2145 18.6841C19.2078 18.6544 19.1889 18.636 19.1607 18.6267C19.1417 18.6206 19.1227 18.6185 19.1027 18.6216C19.0664 18.6272 19.032 18.639 18.9987 18.6554C18.9397 18.6846 18.8859 18.7221 18.8362 18.7651C18.7122 18.8728 18.6148 19.0024 18.5353 19.1455C18.4948 19.2188 18.4605 19.2951 18.44 19.3771C18.4318 19.41 18.4277 19.4438 18.422 19.4715L18.42 19.4729ZM18.4902 20.0446L18.6009 19.8409C18.5907 19.842 18.585 19.842 18.5794 19.8433C18.5092 19.8609 18.4384 19.8727 18.3657 19.8693C18.3185 19.8671 18.2724 19.858 18.2278 19.841C18.1447 19.8089 18.0842 19.7512 18.0412 19.6744C18.0104 19.6189 17.9925 19.5591 17.9853 19.4958C17.9705 19.3704 17.9951 19.2506 18.0361 19.1335C18.053 19.0867 18.0745 19.0418 18.0955 18.9966C18.1032 18.98 18.1145 18.9651 18.1242 18.9498C18.1314 18.939 18.1391 18.9287 18.1473 18.9164C18.0181 18.9482 17.9879 18.9349 17.9197 18.9205C17.9161 18.9313 17.9115 18.9416 17.9084 18.9528C17.8613 19.1143 17.7782 19.2553 17.6609 19.3757L17.6091 19.4295C17.4845 19.5587 17.3323 19.6387 17.1595 19.6822C17.078 19.7032 16.9945 19.712 16.9104 19.7114C16.8315 19.7114 16.7536 19.7007 16.6787 19.6745C16.5234 19.6202 16.424 19.5146 16.382 19.3552L16.3697 19.306C16.3691 19.3039 16.3666 19.3024 16.363 19.2988C16.3533 19.3075 16.3435 19.3157 16.3343 19.325C16.2502 19.4024 16.1626 19.4752 16.0672 19.5382C16.0093 19.5766 15.9493 19.6115 15.8848 19.6382C15.7945 19.6751 15.7007 19.6879 15.6039 19.6745C15.5685 19.6699 15.5352 19.6587 15.5044 19.6402C15.4444 19.6043 15.4091 19.5515 15.3993 19.4823C15.3876 19.4003 15.406 19.3234 15.4429 19.2506C15.4732 19.1912 15.5054 19.1327 15.5372 19.0738L15.5736 19.0061C15.568 18.9959 15.5613 19 15.5557 19.002C15.5157 19.0179 15.4757 19.0348 15.4347 19.0487C15.3778 19.0682 15.3189 19.08 15.2574 19.0784C15.2138 19.0774 15.1718 19.0682 15.1302 19.0548C15.1164 19.063 15.1128 19.0779 15.1067 19.0902L14.8883 19.53C14.8704 19.5664 14.8519 19.6028 14.8345 19.6392C14.8288 19.6515 14.8206 19.6576 14.8073 19.6576C14.7981 19.6576 14.7889 19.6581 14.7796 19.6581C14.6735 19.6592 14.5669 19.6597 14.4608 19.6607C14.4121 19.6612 14.3639 19.6628 14.3152 19.6638C14.305 19.6638 14.2947 19.6633 14.285 19.6628C14.2793 19.6474 14.2896 19.6387 14.2947 19.6289C14.345 19.531 14.3957 19.4336 14.4459 19.3357C14.4516 19.3245 14.4567 19.3132 14.4649 19.2952C14.4454 19.305 14.4367 19.3162 14.4265 19.3255C14.3609 19.386 14.2922 19.4429 14.2184 19.4931C14.1005 19.5731 13.9744 19.6371 13.836 19.6725C13.716 19.7032 13.5966 19.7007 13.4792 19.6602C13.3921 19.6305 13.3193 19.5807 13.2747 19.4982C13.2537 19.4593 13.2378 19.4172 13.2198 19.3767C13.2173 19.3711 13.2152 19.3655 13.2111 19.3567C13.1999 19.3655 13.1906 19.3721 13.1819 19.3793C13.0661 19.4757 12.9461 19.5674 12.8221 19.653C12.7754 19.6848 12.7283 19.715 12.675 19.735C12.6388 19.7484 12.6022 19.7566 12.5635 19.756C12.5317 19.7555 12.5015 19.7484 12.4722 19.7361C12.4112 19.7094 12.3733 19.6643 12.362 19.5982C12.3573 19.57 12.3554 19.5413 12.3521 19.5126C12.3404 19.5115 12.3383 19.5228 12.3332 19.5295C12.287 19.5956 12.2307 19.652 12.1681 19.7022C12.1041 19.754 12.0341 19.794 11.9539 19.815C11.8698 19.8375 11.7856 19.8381 11.7012 19.817C11.6247 19.7981 11.5669 19.7535 11.5264 19.6863C11.4951 19.6341 11.4761 19.5772 11.4638 19.5177C11.4515 19.4572 11.448 19.3957 11.4484 19.3342C11.4487 19.3214 11.4484 19.308 11.4484 19.2957C11.4395 19.2916 11.4354 19.2978 11.4309 19.3019C11.3786 19.3537 11.3264 19.4049 11.2746 19.4572C11.2628 19.4695 11.253 19.4834 11.2428 19.4972C11.1618 19.6089 11.0737 19.7145 10.9674 19.8032C10.8571 19.895 10.7339 19.9626 10.5937 19.997C10.5178 20.0154 10.4409 20.021 10.363 20.0164C10.3292 20.0139 10.2956 20.0077 10.2631 19.9975C10.221 19.9841 10.1839 19.9626 10.1534 19.9313C10.1387 19.9365 10.1385 19.9503 10.1344 19.9606C10.0865 20.0754 10.0396 20.1902 9.99212 20.3055C9.91625 20.4896 9.84039 20.6731 9.76417 20.8571C9.75802 20.8714 9.75166 20.8858 9.74433 20.9027C9.65207 20.9186 9.5598 20.936 9.46667 20.9514C9.37389 20.9663 9.28265 20.9883 9.18834 21.0016C9.18423 20.9847 9.19295 20.9739 9.19756 20.9627C9.26676 20.8043 9.33647 20.6459 9.40516 20.4875C9.47692 20.323 9.54817 20.1584 9.61942 19.9939C9.62352 19.9847 9.62608 19.9749 9.62506 19.9628L9.59481 19.992C9.51752 20.0668 9.43745 20.1381 9.34775 20.1986C9.28265 20.2426 9.2155 20.2831 9.14067 20.3098C9.07249 20.3339 9.00278 20.3434 8.93153 20.3375C8.90437 20.3352 8.87669 20.3293 8.85106 20.3197C8.77007 20.29 8.7265 20.228 8.70907 20.1455C8.69831 20.0947 8.70164 20.044 8.71215 19.9936C8.74188 19.8527 8.7875 19.7158 8.83824 19.581C8.86336 19.5149 8.88714 19.4482 8.91 19.3816C8.92487 19.3385 8.92794 19.2945 8.91277 19.2504C8.89934 19.2109 8.87628 19.1786 8.83537 19.1586C8.82809 19.1627 8.81948 19.1658 8.81231 19.1709C8.6857 19.2555 8.55396 19.3314 8.41813 19.3995C8.39455 19.4113 8.37953 19.4267 8.36892 19.4513C8.25513 19.7214 8.1398 19.9911 8.02549 20.2612C7.9932 20.3371 7.96091 20.4129 7.93015 20.4893C7.92246 20.5088 7.91119 20.517 7.8912 20.5221C7.68411 20.5728 7.47703 20.6251 7.26995 20.6769C7.25385 20.681 7.23765 20.6846 7.22074 20.6887C7.21638 20.6748 7.22279 20.6661 7.22689 20.6574C7.29711 20.4965 7.36713 20.3355 7.43787 20.1751C7.55012 19.9198 7.66392 19.6656 7.7813 19.4124C7.86126 19.2406 7.94122 19.0684 8.01965 18.8957C8.05399 18.8208 8.08628 18.7447 8.11755 18.6686C8.19649 18.4754 8.20162 18.279 8.13806 18.0807C8.11653 18.014 8.08808 17.951 8.04682 17.8946C7.97147 17.7913 7.86946 17.7347 7.74285 17.7197C7.63347 17.7068 7.52834 17.7217 7.42659 17.7612C7.28204 17.8176 7.15697 17.9011 7.05856 18.0221C6.98526 18.1116 6.93503 18.2128 6.89761 18.3214C6.8566 18.4412 6.84327 18.5644 6.85301 18.6895C6.86224 18.8031 6.89402 18.9105 6.95553 19.0078C6.98167 19.0493 7.01243 19.0866 7.05087 19.117C7.07599 19.1366 7.10315 19.1513 7.13391 19.1605C7.17645 19.173 7.21746 19.1687 7.25641 19.1501C7.33433 19.1137 7.39071 19.0553 7.42608 18.9774C7.44966 18.9251 7.46145 18.8708 7.46555 18.8139C7.4758 18.6791 7.45273 18.5478 7.41532 18.4187C7.38456 18.3131 7.34612 18.21 7.29947 18.1101C7.2964 18.1034 7.29332 18.0963 7.28871 18.0855C7.29845 18.0855 7.30614 18.0834 7.31229 18.085C7.42044 18.1116 7.5286 18.1378 7.63675 18.1649C7.70287 18.1815 7.76848 18.1995 7.83461 18.2169C7.83973 18.2179 7.84435 18.22 7.85101 18.222C7.85409 18.2333 7.85767 18.2446 7.85921 18.2564C7.86977 18.3451 7.8751 18.4339 7.86792 18.5229C7.85665 18.6601 7.82025 18.7908 7.75388 18.912C7.69595 19.0176 7.61343 19.1011 7.5145 19.1683C7.38892 19.2539 7.25052 19.3072 7.10085 19.3311C7.00884 19.3459 6.91734 19.3429 6.82815 19.3145C6.67899 19.2668 6.57699 19.1672 6.51343 19.0262C6.47908 18.9499 6.46319 18.8689 6.45858 18.7863C6.44679 18.5767 6.50266 18.3845 6.61261 18.2071C6.69668 18.0708 6.80329 17.9539 6.93093 17.857C7.14518 17.6945 7.38405 17.5862 7.64751 17.5315C7.74285 17.5116 7.83871 17.4992 7.9361 17.4982C8.05502 17.4967 8.17086 17.5146 8.2826 17.5585C8.41485 17.6103 8.51839 17.6979 8.59989 17.8133C8.65781 17.8953 8.70292 17.9829 8.72342 18.0824C8.73778 18.1505 8.74239 18.2192 8.74444 18.2889C8.747 18.4053 8.72701 18.5186 8.69779 18.6303C8.66755 18.7467 8.63475 18.8627 8.58656 18.9732C8.58554 18.9753 8.58605 18.9784 8.58554 18.9809C8.5922 18.9881 8.59733 18.9814 8.60194 18.9789C8.83312 18.8594 9.02585 18.6939 9.18987 18.4945C9.2806 18.3838 9.36364 18.2674 9.43796 18.1454C9.52254 18.006 9.5943 17.8604 9.643 17.7046C9.66452 17.6349 9.68298 17.5636 9.6881 17.4903C9.6881 17.4852 9.69015 17.4801 9.6922 17.4739C9.75474 17.4586 9.81779 17.4498 9.88083 17.4375C9.94234 17.4257 10.0044 17.415 10.0664 17.4032C10.1289 17.3914 10.192 17.3801 10.2525 17.3724C10.2622 17.3827 10.2586 17.3904 10.2571 17.3976C10.2345 17.5067 10.2012 17.6128 10.1622 17.7174C10.1182 17.8353 10.0664 17.9496 10.0049 18.0598C9.90236 18.2428 9.77729 18.4079 9.62352 18.5519C9.53566 18.6344 9.44463 18.7139 9.34929 18.7877C9.34108 18.7938 9.3334 18.8005 9.32417 18.8087C9.33698 18.8184 9.34877 18.8266 9.36005 18.8348C9.41746 18.8784 9.4641 18.9307 9.4926 18.9973C9.52254 19.067 9.52951 19.1388 9.50644 19.2121C9.4926 19.2567 9.47569 19.3009 9.46082 19.3456C9.42853 19.4424 9.39603 19.5393 9.36446 19.6362C9.34959 19.6813 9.33985 19.7274 9.33473 19.7741C9.33217 19.7977 9.3335 19.8212 9.33883 19.8443C9.34262 19.8602 9.35062 19.8725 9.36292 19.8838C9.39009 19.9086 9.42033 19.9115 9.45416 19.8997C9.47794 19.8914 9.49896 19.8781 9.51823 19.8623C9.58538 19.8071 9.64689 19.7469 9.69917 19.6772C9.7899 19.5562 9.86423 19.4252 9.92727 19.2882C9.98878 19.1539 10.0484 19.0185 10.1098 18.8837C10.1513 18.792 10.1938 18.7007 10.2364 18.609C10.2415 18.5972 10.2476 18.5857 10.2548 18.5716C10.3384 18.5552 10.4235 18.5421 10.5085 18.528C10.5921 18.5142 10.6756 18.4972 10.7633 18.4878C10.7623 18.4965 10.7628 18.5026 10.7611 18.5083C10.7544 18.5267 10.7467 18.5447 10.7401 18.5631C10.7377 18.5688 10.7365 18.5744 10.7329 18.5877C10.7662 18.5657 10.7939 18.5488 10.8202 18.5298C10.8864 18.4816 10.9602 18.4519 11.0396 18.4391C11.1329 18.4242 11.2231 18.4329 11.3026 18.4914C11.3661 18.538 11.4092 18.5995 11.4312 18.6746C11.4548 18.7546 11.4615 18.8363 11.4526 18.9196C11.4438 18.998 11.4305 19.0752 11.4049 19.1498C11.4039 19.1534 11.4037 19.1575 11.4034 19.161C11.4034 19.1626 11.4044 19.1636 11.4054 19.1667C11.4121 19.1621 11.4182 19.158 11.4239 19.1528C11.431 19.1472 11.4372 19.14 11.4444 19.1344C11.4813 19.1036 11.5059 19.0662 11.5243 19.0211C11.5781 18.8873 11.6591 18.7694 11.7555 18.6628C11.8462 18.5623 11.9462 18.4716 12.062 18.4002C12.1553 18.3428 12.2532 18.2967 12.3611 18.2741C12.4241 18.2608 12.4882 18.2531 12.5528 18.2562C12.6421 18.2608 12.7221 18.289 12.786 18.3551C12.7896 18.3587 12.7937 18.3618 12.7993 18.3665C12.827 18.3267 12.8434 18.2824 12.867 18.2435C12.9147 18.2322 13.3293 18.205 13.3708 18.2107C13.3683 18.218 13.3667 18.2255 13.3637 18.2322C13.3457 18.2698 13.3273 18.3075 13.3088 18.345C13.213 18.5387 13.1212 18.7345 13.0331 18.9314C13.0008 19.0031 12.9669 19.0738 12.9346 19.1456C12.9249 19.1671 12.9167 19.1894 12.9111 19.2122C12.9065 19.2297 12.9049 19.2486 12.9054 19.2666C12.907 19.3158 12.9382 19.3404 12.9864 19.3312C12.9992 19.3288 13.012 19.324 13.0233 19.3178C13.0454 19.306 13.0679 19.2948 13.0869 19.2791C13.1253 19.2478 13.1622 19.214 13.1991 19.181C13.2089 19.1723 13.2166 19.1615 13.2191 19.1482C13.2494 19.0062 13.3037 18.8729 13.3714 18.7453C13.4139 18.6648 13.4631 18.5889 13.5226 18.5208C13.6584 18.3649 13.8219 18.2512 14.0234 18.1968C14.132 18.1671 14.2422 18.1548 14.3545 18.1615C14.3991 18.164 14.4427 18.1738 14.4847 18.1902C14.5995 18.2348 14.659 18.3198 14.6687 18.4408C14.6708 18.4639 14.67 18.488 14.6687 18.511C14.6677 18.5305 14.6636 18.55 14.661 18.5705C14.6538 18.5756 14.6467 18.5818 14.639 18.5859C14.5037 18.6581 14.3683 18.7299 14.233 18.8018C14.2228 18.8073 14.212 18.8105 14.2023 18.8146C14.1941 18.8049 14.1997 18.7981 14.2028 18.7911C14.2212 18.7465 14.2407 18.7019 14.2586 18.6572C14.2838 18.5936 14.3037 18.5289 14.313 18.4609C14.3166 18.4347 14.3181 18.4086 14.3104 18.3829C14.2996 18.3465 14.2735 18.3291 14.2361 18.3351C14.2043 18.3402 14.1756 18.3531 14.1489 18.37C14.0936 18.4038 14.0454 18.4458 14.0024 18.494C13.9188 18.5878 13.8537 18.6934 13.806 18.8093C13.7845 18.861 13.7661 18.9143 13.7481 18.9676C13.722 19.0476 13.7189 19.1296 13.7266 19.2127C13.7286 19.2332 13.7343 19.2537 13.7409 19.2737C13.7635 19.3396 13.8009 19.3782 13.8901 19.3859C13.9403 19.39 13.9892 19.3808 14.0372 19.3659C14.1044 19.3454 14.1669 19.3162 14.2263 19.2798C14.3637 19.196 14.4888 19.0973 14.5928 18.9733C14.6284 18.9307 14.6597 18.8861 14.6861 18.8374C14.7894 18.646 14.8994 18.4583 15.0119 18.2723C15.0275 18.2464 15.0426 18.2206 15.0584 18.1947C15.065 18.1834 15.0727 18.1731 15.0814 18.1603C15.2608 18.1588 15.4402 18.1603 15.6227 18.169C15.6202 18.1767 15.619 18.1844 15.6155 18.1906C15.5269 18.3495 15.4372 18.5084 15.349 18.6673C15.3172 18.7244 15.288 18.7831 15.258 18.8412C15.2534 18.8505 15.2503 18.8602 15.2452 18.8725C15.2626 18.8761 15.278 18.8809 15.2929 18.8817C15.4168 18.8894 15.5323 18.8628 15.6399 18.8013C15.6727 18.7828 15.6968 18.7572 15.7163 18.7244C15.8145 18.5603 15.9141 18.397 16.0131 18.2335C16.0233 18.2171 16.0341 18.2007 16.0459 18.1823C16.1309 18.1797 16.2155 18.1884 16.3006 18.19C16.3842 18.192 16.4672 18.1992 16.5554 18.2012C16.5487 18.2166 16.5446 18.2258 16.54 18.2345C16.5113 18.286 16.4821 18.3372 16.4529 18.3883C16.3544 18.5611 16.2611 18.7369 16.1699 18.9137C16.1227 19.006 16.0746 19.0972 16.0264 19.189C16.0125 19.2156 16.0018 19.2438 15.9975 19.2741C15.9952 19.29 15.9965 19.3053 16.0013 19.3207C16.0121 19.354 16.0341 19.3679 16.0674 19.3592C16.0838 19.3545 16.1002 19.3489 16.1147 19.3402C16.1362 19.3279 16.1576 19.3144 16.1762 19.2982C16.2039 19.2741 16.2305 19.2484 16.2551 19.2213C16.2903 19.1826 16.3228 19.1416 16.3572 19.1018C16.3679 19.0895 16.3741 19.0757 16.3777 19.0603C16.4156 18.9014 16.4914 18.7628 16.597 18.6393C16.6637 18.5614 16.7349 18.4886 16.821 18.4312C16.9348 18.3553 17.0594 18.3056 17.1927 18.2779C17.2752 18.2606 17.3587 18.2518 17.4428 18.2548C17.5392 18.2584 17.6325 18.2769 17.7206 18.3175C17.7606 18.3359 17.7965 18.3595 17.8288 18.3882C17.8887 18.442 17.9246 18.5087 17.9395 18.5871C17.9462 18.6225 17.9487 18.6573 17.9477 18.6927V18.7414C18.0174 18.7829 18.0892 18.7952 18.1666 18.7678C18.2019 18.7555 18.2332 18.7368 18.2634 18.7155C18.3098 18.6832 18.3555 18.6499 18.4018 18.6176C18.5164 18.5387 18.6417 18.4838 18.7779 18.4541C18.8671 18.4346 18.9573 18.4285 19.0475 18.4361C19.1562 18.4449 19.2551 18.4807 19.3371 18.5551C19.3602 18.5761 19.3802 18.6004 19.4038 18.6253C19.4079 18.6217 19.4142 18.6176 19.4186 18.612C19.4433 18.5816 19.4673 18.5505 19.4926 18.5187C19.5346 18.5195 19.5757 18.5283 19.6167 18.5356C19.6592 18.5433 19.7017 18.5503 19.7444 18.5574C19.7859 18.5641 19.8273 18.5708 19.8684 18.5779C19.9094 18.5846 19.9505 18.5928 19.9956 18.601C19.9684 18.6466 19.9366 18.6851 19.9089 18.7261C19.8813 18.7676 19.8525 18.8081 19.8244 18.8491C19.797 18.8891 19.7695 18.929 19.7423 18.9695C19.7142 19.0105 19.686 19.0516 19.6583 19.0931C19.6306 19.1341 19.6033 19.1756 19.5758 19.2173L19.4943 19.3424C19.4676 19.3829 19.4415 19.4239 19.4148 19.4644C19.3882 19.5064 19.361 19.5481 19.3343 19.5901L19.2544 19.7162C19.2277 19.7582 19.2005 19.8002 19.1739 19.8423L19.097 19.9653C19.0703 20.0073 19.0437 20.0493 19.0176 20.0919L18.9383 20.219C18.9429 20.2231 18.945 20.2262 18.948 20.2272C19.0318 20.2559 19.1172 20.2744 19.2064 20.2682C19.3233 20.2605 19.4201 20.2113 19.4996 20.1262C19.5057 20.1196 19.5116 20.1129 19.518 20.1057C19.524 20.1073 19.5293 20.1078 19.5337 20.1103C19.6952 20.1913 19.8567 20.2728 20.0181 20.3548C20.0202 20.3559 20.0207 20.3589 20.0227 20.362C20.0166 20.3743 20.0038 20.3782 19.9925 20.3844C19.9202 20.4249 19.8428 20.4536 19.7634 20.4756C19.647 20.5081 19.5281 20.519 19.4087 20.5087C19.2697 20.4967 19.1334 20.4692 19.0027 20.4208C18.9622 20.4055 18.9222 20.389 18.8817 20.3731C18.8699 20.3681 18.8579 20.3639 18.8443 20.3587C18.8351 20.3721 18.8269 20.3835 18.8192 20.3956C18.7777 20.4593 18.7341 20.5214 18.6839 20.5787C18.5362 20.7474 18.3538 20.8555 18.1328 20.8965C18.0201 20.9176 17.9068 20.9242 17.7925 20.9135C17.7217 20.9073 17.6515 20.8981 17.5834 20.8791C17.5158 20.8607 17.4517 20.8345 17.3937 20.7956C17.2809 20.7197 17.2189 20.6134 17.204 20.4798C17.1969 20.4163 17.2092 20.3542 17.2292 20.2943C17.281 20.1359 17.3907 20.0344 17.5454 19.9785C17.6146 19.9534 17.6869 19.9411 17.7607 19.9365C17.8341 19.9319 17.9078 19.9329 17.9811 19.939C18.1134 19.9493 18.2436 19.9724 18.3702 20.0118C18.405 20.0226 18.4404 20.0334 18.4752 20.0436C18.4827 20.0457 18.4905 20.0467 18.5014 20.0492L18.4902 20.0446Z" fill="#FFFFFE"/>
<path fill-rule="evenodd" clip-rule="evenodd" d="M22.719 19.5112C22.719 19.5047 22.7193 19.4982 22.719 19.4917C22.7165 19.4451 22.6887 19.4137 22.6421 19.4064C22.628 19.4042 22.6134 19.4038 22.5991 19.4043C22.5646 19.4053 22.5319 19.4149 22.4999 19.4267C22.4343 19.451 22.3743 19.4858 22.3182 19.527C22.1701 19.6355 22.0542 19.7728 21.9614 19.9302C21.9315 19.9811 21.9063 20.0341 21.8884 20.0905C21.8785 20.122 21.8737 20.1539 21.8742 20.187C21.8748 20.2326 21.9101 20.2701 21.9552 20.2798C21.9911 20.287 22.0255 20.2829 22.0603 20.2747C22.1275 20.2588 22.1874 20.2265 22.2443 20.1886C22.3689 20.106 22.476 20.0051 22.5616 19.882C22.618 19.801 22.6662 19.716 22.6969 19.6216C22.7087 19.5852 22.718 19.5489 22.7185 19.5104L22.719 19.5112ZM20.0868 19.7815C20.0868 19.7893 20.0863 19.7972 20.0868 19.805C20.0912 19.8616 20.1284 19.8987 20.1852 19.9029C20.2129 19.905 20.24 19.9027 20.2669 19.8947C20.3079 19.883 20.3453 19.865 20.3817 19.8437C20.4514 19.8031 20.5129 19.7522 20.5709 19.6973C20.6852 19.5899 20.7718 19.4629 20.8374 19.3214C20.8692 19.2537 20.8928 19.183 20.904 19.1087C20.9081 19.083 20.9086 19.0569 20.9015 19.0313C20.8938 19.002 20.8748 18.9836 20.8466 18.9749C20.8318 18.9703 20.8159 18.9672 20.8005 18.9682C20.7774 18.9697 20.7538 18.9744 20.7313 18.9805C20.6554 19.002 20.5903 19.043 20.5288 19.0902C20.4079 19.183 20.31 19.2968 20.229 19.4249C20.1808 19.5018 20.1387 19.5813 20.11 19.6674C20.0977 19.7048 20.0875 19.7427 20.088 19.7827L20.0868 19.7815ZM21.0687 18.9588C21.0918 18.9283 21.1123 18.9012 21.134 18.8724C21.1909 18.8816 21.2463 18.897 21.3022 18.9093C21.3584 18.9221 21.4147 18.9344 21.4708 18.9472C21.5265 18.9605 21.5829 18.9703 21.6379 18.9872C21.6378 19.0025 21.6277 19.0102 21.621 19.0195C21.5424 19.123 21.4626 19.225 21.3851 19.3291C21.2802 19.47 21.1772 19.612 21.0732 19.754C21.056 19.7776 21.0441 19.8037 21.0368 19.8319C21.0244 19.8811 21.0549 19.9488 21.1289 19.9508C21.1582 19.9518 21.1859 19.9457 21.2137 19.937C21.2906 19.9134 21.3555 19.8703 21.4146 19.817C21.4618 19.775 21.5016 19.7263 21.5369 19.674C21.6227 19.5469 21.7155 19.4249 21.8101 19.3045C21.8595 19.2419 21.9101 19.1799 21.9604 19.1179C21.9718 19.104 21.9841 19.0902 21.9974 19.0748C22.012 19.0779 22.026 19.0805 22.0397 19.084C22.1703 19.1179 22.3008 19.1522 22.4313 19.1861C22.4602 19.1937 22.489 19.2014 22.5193 19.2096C22.5144 19.2358 22.4919 19.2501 22.4855 19.2737C22.5001 19.2788 22.5127 19.2752 22.5253 19.2732C22.5576 19.2676 22.5896 19.2593 22.6221 19.2568C22.8713 19.2394 23.0573 19.3895 23.0967 19.6151C23.1143 19.7166 23.0953 19.8135 23.0608 19.9078C23.0206 20.0185 22.9586 20.1174 22.883 20.2071C22.7517 20.3629 22.5885 20.4737 22.3989 20.547C22.3223 20.5762 22.2427 20.5916 22.161 20.5957C22.0965 20.5987 22.0327 20.59 21.9695 20.5782C21.9337 20.5716 21.8977 20.5628 21.8631 20.5516C21.7647 20.5183 21.6867 20.4608 21.6442 20.3629C21.6314 20.3604 21.6283 20.3711 21.6237 20.3778C21.5555 20.4721 21.4879 20.5675 21.4192 20.6618C21.3177 20.8012 21.2152 20.9406 21.1132 21.0806C21.108 21.0877 21.1019 21.0944 21.0963 21.1016C21.0906 21.1016 21.085 21.1021 21.0799 21.1011C20.9179 21.0713 20.7554 21.0411 20.5934 21.0108C20.5873 21.0098 20.5811 21.0067 20.5724 21.0042C20.5903 20.9703 20.6149 20.9432 20.636 20.914C20.6575 20.8842 20.6795 20.855 20.7011 20.8253C20.7226 20.7956 20.7436 20.7653 20.7651 20.7356C20.7867 20.7059 20.8087 20.6766 20.8302 20.6469C20.8518 20.6172 20.8728 20.5869 20.8943 20.5572L20.9589 20.468C20.9804 20.4383 21.0019 20.408 21.023 20.3783L21.087 20.2891L21.1516 20.1999C21.1731 20.1702 21.1942 20.1405 21.2152 20.1107C21.2054 20.1005 21.1993 20.1102 21.1942 20.1133C21.127 20.1543 21.0583 20.1917 20.9871 20.2256C20.9353 20.2502 20.8825 20.2743 20.8256 20.2866C20.7349 20.306 20.6503 20.2922 20.5791 20.2292C20.5093 20.1671 20.474 20.0897 20.4888 19.9944C20.4894 19.9918 20.4883 19.9893 20.4883 19.9857C20.4776 19.9816 20.473 19.9918 20.4673 19.997C20.3843 20.0718 20.2894 20.1272 20.1803 20.1528C20.0183 20.1912 19.8763 20.1492 19.7533 20.0405C19.7164 20.0082 19.6913 19.9667 19.6723 19.9216C19.6451 19.857 19.6298 19.7899 19.6262 19.7196C19.6195 19.5987 19.64 19.4833 19.6872 19.3711C19.7359 19.2563 19.7984 19.1517 19.8866 19.063C19.9583 18.9913 20.0408 18.9333 20.129 18.8831C20.2033 18.8406 20.2807 18.8057 20.3633 18.7832C20.4899 18.7478 20.617 18.7488 20.7446 18.7785C20.7626 18.7826 20.7805 18.7867 20.7984 18.7914C20.901 18.8165 20.9881 18.8667 21.0568 18.9472C21.0609 18.9523 21.0655 18.9569 21.0727 18.9641L21.0687 18.9588ZM10.4755 13.8874C10.4688 13.8519 10.3829 13.9961 10.3971 14.0258C10.4429 14.0955 10.5375 14.2643 10.5839 14.339C10.615 14.3217 10.5639 14.1954 10.5592 14.1596C10.6043 14.0824 10.6048 13.9959 10.5072 13.9642L10.4756 13.8874" fill="#FFFFFE"/>
<path d="M15.7847 5.00681C15.5911 4.81316 15.3337 4.70654 15.0598 4.70654C14.786 4.70654 14.5285 4.81316 14.3349 5.00681C14.1413 5.20042 14.0347 5.45789 14.0347 5.73171C14.0347 6.00553 14.1413 6.263 14.3349 6.4566C14.5285 6.65025 14.786 6.75687 15.0598 6.75687C15.3337 6.75687 15.5911 6.65025 15.7847 6.4566C15.9784 6.263 16.085 6.00553 16.085 5.73171C16.085 5.45789 15.9784 5.20042 15.7847 5.00681ZM15.0852 5.05464L15.3847 4.9675L15.6848 5.18637L15.6942 5.49751L15.3977 5.62822L15.0852 5.40114V5.0551V5.05464ZM14.6986 5.67332L14.8164 6.03572L14.622 6.24178L14.3209 6.09928L14.2401 5.78814L14.4059 5.54518L14.6986 5.67384V5.67332ZM14.4248 5.5011L14.4346 5.17971L14.7339 4.9675L15.0377 5.05617V5.39858L14.7179 5.63078L14.4242 5.50161L14.4248 5.5011ZM14.8364 6.0839H15.2878L15.2906 6.07519L15.4767 6.27253L15.3228 6.51806H14.8001L14.6512 6.28073L14.8364 6.08493V6.0839ZM15.5095 6.23768L15.3074 6.02393L15.4227 5.66922L15.7108 5.54261L15.882 5.79429L15.7961 6.10287L15.509 6.23921L15.5095 6.23768ZM15.857 5.20021L15.7034 5.14178L15.4015 4.92188L15.3085 4.80706C15.5355 4.86806 15.7294 5.01056 15.857 5.20124V5.20021ZM14.8111 4.80655L14.7199 4.91932L14.3964 5.14895L14.2629 5.20021C14.3904 5.01004 14.5843 4.86754 14.8111 4.80655ZM14.1029 5.67384L14.2002 5.82351L14.2799 6.13055L14.2729 6.27971C14.1647 6.1244 14.1011 5.93628 14.1011 5.73278C14.1011 5.7133 14.1018 5.69383 14.1029 5.67435V5.67384ZM14.6522 6.60007L14.8298 6.56573H15.293L15.4683 6.60007C15.3443 6.65902 15.2059 6.69182 15.0598 6.69182C14.9137 6.69182 14.7758 6.65902 14.6518 6.6011L14.6522 6.60007ZM15.8498 6.27509L15.8426 6.11517L15.9272 5.81172L16.0174 5.67384C16.0189 5.69331 16.0194 5.7133 16.0194 5.73278C16.0194 5.93423 15.9574 6.12132 15.8508 6.27561L15.8498 6.27509Z" fill="black"/>
</svg>
