<svg width="30" height="30" viewBox="0 0 30 30" fill="none" xmlns="http://www.w3.org/2000/svg">
<path d="M15.6588 12.5879C14.6991 12.7164 13.7822 12.8364 13.0796 12.9307L14.6819 9.69173L15.6588 12.5879ZM24.6215 18.2517L22.8392 13.0249C22.7193 12.6565 22.4108 12.2794 21.9395 12.0652L18.5378 2.14282L18.0408 2.28849C17.2268 2.51127 16.2757 2.70835 15.2989 2.85401C14.2707 2.99968 13.2681 3.0768 12.3941 3.0768H12.2656H11.8715L11.3488 4.55916L11.1774 5.07327L11.6915 5.25321C11.94 5.34747 12.3256 5.55311 12.437 5.69878C12.5398 5.85301 12.5055 6.17005 12.3684 6.49566L7.26156 17.1721C6.88454 17.9604 6.55894 18.2603 6.05339 18.3032C5.92486 18.3117 5.23938 18.3631 5.23938 18.3631L4.8795 18.3974L4.29684 20.0511C4.29684 20.0511 4.26256 20.2739 4.31397 20.6167C4.42536 21.3536 4.9052 22.6046 6.87598 23.1958L6.97023 23.3072C7.31297 23.7356 7.92134 24.2669 8.83818 24.4725L8.93243 24.5839C9.27518 25.0123 9.88355 25.5436 10.8004 25.7492L10.8946 25.8606C11.3659 26.4347 12.2228 27.1116 13.5852 27.1116H13.8165C14.0907 27.7543 14.5448 27.8571 14.8105 27.8571H15.1361C15.4017 27.8571 15.8387 27.7457 16.13 27.1116H16.3871C17.7666 27.1116 18.6149 26.4262 19.0776 25.8606L19.1719 25.7492C20.0887 25.535 20.6885 25.0038 21.0398 24.5839L21.1341 24.4725C22.0509 24.2583 22.6507 23.7271 23.002 23.3072L23.0963 23.1958C24.4416 22.8873 25.187 21.8248 25.4441 21.2764C25.5469 21.0451 25.6154 20.8052 25.6583 20.6252C25.7268 20.2911 25.7268 20.0511 25.7268 20.0511L24.6215 18.2517Z" fill="#E6E7E8"/>
<path d="M12.2572 3.61658L11.8716 4.73906C11.8716 4.73906 12.6085 5.01326 12.8827 5.39027C13.1483 5.77586 13.0455 6.31568 12.8484 6.73554L7.75008 17.4034C7.3902 18.1489 6.95321 18.783 6.09635 18.8515C5.96782 18.8601 5.28234 18.9115 5.28234 18.9115L4.88818 20.034H11.2118C11.1175 19.6998 11.0661 19.3485 11.0661 18.9972C11.0661 18.9629 11.0661 18.9372 11.0661 18.9029C10.8605 18.8601 10.6377 18.8001 10.4749 18.7315C9.98648 18.5088 9.87509 18.1832 10.115 17.6776L14.7763 8.23504L16.2158 12.5108L21.2799 11.8595L18.178 2.8197C17.3726 3.04249 16.4129 3.24813 15.3761 3.3938C14.2194 3.5566 13.1483 3.62515 12.2572 3.61658Z" fill="url(#paint0_linear)"/>
<path d="M18.5892 20.608L18.4949 20.7794C18.1522 21.4649 17.6209 22.0218 16.9526 22.3989C16.387 22.7245 15.7701 22.8958 15.1275 22.9301C15.1275 22.9301 15.0675 22.9301 14.9989 22.9301C14.9475 22.9301 14.9304 22.9301 14.8447 22.9301C13.4994 22.8787 12.2656 22.1332 11.5886 20.9593C11.5544 20.8994 11.5201 20.8394 11.4858 20.7794L11.3916 20.608H4.8623C4.8623 20.608 4.91372 20.9936 5.35928 21.5763C5.67632 21.9961 6.25041 22.536 7.18439 22.6902L7.3986 22.9558C7.73278 23.3671 8.28973 23.8212 9.14659 23.9669L9.3608 24.2325C9.69498 24.6438 10.2519 25.098 11.1088 25.2436L11.323 25.5093C11.7172 25.9891 12.4369 26.5632 13.6022 26.5632H14.2278C14.3306 27.0002 14.5105 27.3087 14.819 27.3087H15.1446C15.4531 27.3087 15.6244 27.0002 15.7358 26.5632H16.387C17.5524 26.5632 18.2636 25.9891 18.6663 25.5093L18.8805 25.2436C19.7373 25.098 20.2857 24.6353 20.6285 24.2325L20.8427 23.9669C21.6995 23.8212 22.2479 23.3585 22.5907 22.9558L22.8049 22.6902C23.9102 22.5103 24.5015 21.7905 24.7757 21.3706C25.0327 20.9765 25.1184 20.6166 25.1184 20.6166H18.5977V20.608H18.5892Z" fill="#231F20"/>
<path d="M7.70737 22.3992H10.3465C10.4407 22.3992 10.5179 22.4677 10.5179 22.5705C10.5179 22.6648 10.4322 22.7419 10.3465 22.7419H7.63882C7.98157 23.1618 8.61564 23.6844 9.661 23.6844H11.6403C11.7346 23.6844 11.8117 23.753 11.8117 23.8558C11.8117 23.9501 11.726 24.0272 11.6403 24.0272H9.60959C9.95234 24.4471 10.5864 24.9697 11.6318 24.9697H14.6393C14.7336 24.9697 14.8107 25.0383 14.8107 25.1411C14.8107 25.2354 14.725 25.3125 14.6393 25.3125H14.4166C14.4323 26.1836 14.5703 26.8733 14.758 26.9834H14.8626C15.0532 26.8609 15.2049 26.0764 15.2049 25.1325C15.2049 24.13 15.0421 23.316 14.8279 23.2732C13.4226 23.2132 12.0688 22.4591 11.3147 21.1396C11.2719 21.0796 11.2462 21.0111 11.2033 20.9425H5.34619C5.3965 21.0564 6.02525 22.3992 7.70737 22.3992Z" fill="url(#paint1_linear)"/>
<path d="M5.34229 20.9337V20.9423H5.34603C5.3438 20.9372 5.34229 20.9337 5.34229 20.9337Z" fill="url(#paint2_linear)"/>
<path d="M14.1595 26.2464C14.1166 25.9465 14.0995 25.6209 14.0909 25.3038H11.5718C11.9145 25.7237 12.5486 26.2464 13.594 26.2464H14.1595Z" fill="url(#paint3_linear)"/>
<path d="M18.3921 25.2951H17.0383C16.944 25.2951 16.8669 25.2266 16.8669 25.1237C16.8669 25.0295 16.9526 24.9524 17.0383 24.9524H18.3321C19.3689 24.9524 20.003 24.4297 20.3543 24.0098H18.3236C18.2293 24.0098 18.1522 23.9413 18.1522 23.8385C18.1522 23.7442 18.2379 23.6671 18.3236 23.6671H20.2944C21.3311 23.6671 21.9652 23.1444 22.3165 22.7245H19.6003C19.506 22.7245 19.4289 22.656 19.4289 22.5532C19.4289 22.4589 19.5146 22.3818 19.6003 22.3818H22.2651C23.9041 22.3818 24.5432 21.1066 24.6215 20.9358V20.9337H18.8034H18.7949C18.435 21.6449 17.8694 22.2618 17.1325 22.6988C16.6356 22.9816 16.0958 23.1701 15.5474 23.2387C15.7787 23.6585 15.8473 24.4468 15.8473 25.1237C15.8473 25.4922 15.8301 25.8863 15.7787 26.2377H16.3699C17.4067 26.2377 18.0408 25.715 18.3921 25.2951Z" fill="url(#paint4_linear)"/>
<path d="M22.2907 13.2048C22.1958 12.9281 21.8668 12.5283 21.2648 12.4679H21.0381C20.9959 12.4726 20.9516 12.4765 20.9025 12.4765C20.0971 12.5707 14.956 13.2648 12.7881 13.5475L10.6288 17.9346C10.5774 18.0375 10.5688 18.0974 10.5688 18.1146C10.586 18.1232 10.6288 18.166 10.7145 18.2088C10.8088 18.2517 10.963 18.3031 11.1344 18.3288C11.3315 17.2149 11.9912 16.1952 13.0452 15.5869C13.6535 15.227 14.3219 15.0642 14.9817 15.0556H15.0245C16.3698 15.0642 17.6893 15.7668 18.4091 17.0264C18.769 17.6347 18.9318 18.3117 18.9403 18.9714V19.0143C18.9403 19.357 18.8889 19.7083 18.7947 20.0425H25.084L24.1415 18.5859L22.2907 13.2048ZM14.082 14.1388L19.9771 13.4447L20.0885 14.1388H14.082ZM21.1596 13.1877C21.391 13.1448 21.708 13.419 21.8708 13.8217C22.025 14.2159 21.965 14.5758 21.7251 14.6186C21.708 14.6186 21.6909 14.6186 21.6737 14.6186H21.6566C21.4338 14.61 21.1596 14.3444 21.0139 13.9845C20.8597 13.5904 20.9197 13.2305 21.1596 13.1877ZM21.9051 18.3973C21.8879 18.4059 21.8622 18.4059 21.8451 18.4059C21.6909 18.4145 21.5109 18.2517 21.4081 18.0032C21.2967 17.729 21.3481 17.4548 21.5109 17.4034C21.6737 17.3434 21.8965 17.5233 22.0079 17.7975C22.1193 18.0717 22.0679 18.3459 21.9051 18.3973ZM22.1964 16.7779L20.9711 15.6383L22.1278 16.1695L22.4363 15.544L22.5049 16.7693L22.1964 16.7779ZM23.3532 18.3031C23.336 18.3117 23.3103 18.3117 23.2932 18.3117C23.1646 18.3288 23.0018 18.1746 22.9162 17.9603C22.8133 17.7119 22.8562 17.4719 23.0104 17.4205C23.1561 17.3691 23.3532 17.5233 23.4474 17.7633C23.5502 18.0118 23.5074 18.2431 23.3532 18.3031Z" fill="url(#paint5_linear)"/>
<path d="M15.2211 15.5526H14.7732C12.9804 15.673 11.5547 17.1684 11.5547 18.9972C11.5547 20.8219 12.982 22.3224 14.7622 22.4417H15.2211C17.0165 22.3224 18.4438 20.8219 18.4438 18.9972C18.4438 17.1724 17.0164 15.6719 15.2211 15.5526Z" fill="url(#paint6_radial)"/>
<path d="M13.251 16.3324L13.2425 16.3238C13.2082 16.3409 13.1311 16.4266 13.0282 16.4866C12.7626 16.7094 12.6684 16.8036 12.3342 17.2492C12.2999 17.3006 12.1285 17.5662 12.1028 17.6776C12.1971 17.6691 12.3342 17.6262 12.377 17.6091C12.9168 17.3949 13.2682 17.0864 13.251 16.3324ZM17.184 19.2457L17.1926 18.663C17.5267 18.663 17.8009 18.5602 18.118 18.3031C18.1265 18.2175 18.0323 17.9604 17.9894 17.8319C17.741 17.2064 17.2525 16.6066 16.5928 16.2124C16.3271 16.281 16.0015 16.7008 15.9416 17.0007C15.8901 17.1807 15.8987 17.3349 15.8987 17.5663L15.4189 17.6348C15.376 17.5748 15.3075 17.472 15.2732 17.4549C15.1018 17.2406 14.7934 17.0693 14.4335 17.0264L14.4249 16.7694C14.5106 16.7779 14.6391 16.8036 14.7505 16.8036C15.3418 16.7608 15.6588 16.4695 15.8816 16.0753C15.9673 15.9211 15.8216 15.8954 15.5474 15.8525C15.4165 15.8316 15.2927 15.8178 15.1746 15.8097H14.8023C14.5309 15.8312 14.261 15.8914 13.9365 16.0068C13.8165 16.0496 13.6623 16.1096 13.5681 16.1696C13.688 16.4695 13.868 16.5809 14.1422 16.7351L14.1593 17.0607C13.4224 17.1721 12.9168 17.789 13.0025 18.6202L12.754 18.6545C12.6341 18.4745 12.5912 18.3974 12.4799 18.2946C12.317 18.166 12.2057 18.0804 11.9572 18.0375C11.7772 18.6373 11.743 19.3314 11.9572 19.9826C12.0086 20.1283 12.12 20.411 12.1714 20.4624C12.6512 20.2311 12.9168 19.8284 12.9083 19.2371C12.8997 19.1343 12.874 19.0143 12.8483 18.8687L13.0625 18.8344C13.191 19.1086 13.2939 19.2543 13.4738 19.3999C13.5852 19.4942 13.7052 19.5542 13.8423 19.6056L13.7737 20.0511C13.5424 20.0511 13.2853 20.094 13.0968 20.1797C12.7283 20.3767 12.3856 20.7195 12.3856 20.8052C12.4456 20.9508 12.7455 21.2422 12.8569 21.345C13.2167 21.6706 13.5938 21.9191 14.0736 22.0476C14.3771 22.1326 14.5512 22.1573 14.6454 22.1676H14.7325C14.8913 21.9994 15.0074 21.5885 14.999 21.285L15.5645 21.1993C15.6845 21.3793 15.8473 21.5078 15.8987 21.5335C16.0615 21.6535 16.4385 21.7991 16.5756 21.7649C16.7898 21.6449 17.1583 21.3536 17.2783 21.225C17.501 20.9937 17.8009 20.6252 17.938 20.2653C17.938 19.7255 17.5267 19.3999 17.184 19.2457ZM16.867 19.1771C16.687 19.1257 16.3271 19.1857 16.1558 19.2628C15.5474 19.537 15.2389 20.0768 15.376 20.8566L14.9048 20.9423C14.8191 20.6938 14.6306 20.4539 14.4592 20.3082C14.3478 20.2225 14.2621 20.1797 14.0479 20.1026L14.0993 19.6741C14.1593 19.6741 14.2193 19.6827 14.2793 19.6827C14.3821 19.6827 14.4849 19.6655 14.5963 19.6398C14.9904 19.5542 15.556 19.22 15.6159 18.3974C15.6245 18.2946 15.5988 18.0204 15.5474 17.9176L15.9844 17.849C16.1986 18.3289 16.4128 18.4745 16.8841 18.6545L16.867 19.1771Z" fill="url(#paint7_radial)"/>
<defs>
<linearGradient id="paint0_linear" x1="4.88818" y1="11.4268" x2="21.2799" y2="11.4268" gradientUnits="userSpaceOnUse">
<stop stop-color="#C3161C"/>
<stop offset="1" stop-color="#EC1C24"/>
</linearGradient>
<linearGradient id="paint1_linear" x1="5.34619" y1="23.9629" x2="15.2049" y2="23.9629" gradientUnits="userSpaceOnUse">
<stop stop-color="white"/>
<stop offset="1" stop-color="#A6A8AB"/>
</linearGradient>
<linearGradient id="paint2_linear" x1="5.34229" y1="20.938" x2="5.34603" y2="20.938" gradientUnits="userSpaceOnUse">
<stop stop-color="white"/>
<stop offset="1" stop-color="#A6A8AB"/>
</linearGradient>
<linearGradient id="paint3_linear" x1="11.5718" y1="25.7751" x2="14.1595" y2="25.7751" gradientUnits="userSpaceOnUse">
<stop stop-color="white"/>
<stop offset="1" stop-color="#A6A8AB"/>
</linearGradient>
<linearGradient id="paint4_linear" x1="15.5474" y1="23.5857" x2="24.6215" y2="23.5857" gradientUnits="userSpaceOnUse">
<stop stop-color="#A6A8AB"/>
<stop offset="1" stop-color="white"/>
</linearGradient>
<linearGradient id="paint5_linear" x1="10.5688" y1="16.2552" x2="25.084" y2="16.2552" gradientUnits="userSpaceOnUse">
<stop stop-color="#00813D"/>
<stop offset="1" stop-color="#00A84F"/>
</linearGradient>
<radialGradient id="paint6_radial" cx="0" cy="0" r="1" gradientUnits="userSpaceOnUse" gradientTransform="translate(14.9993 18.9972) scale(3.44029)">
<stop stop-color="#58595B"/>
<stop offset="1" stop-color="#231F20"/>
</radialGradient>
<radialGradient id="paint7_radial" cx="0" cy="0" r="1" gradientUnits="userSpaceOnUse" gradientTransform="translate(14.9898 18.9886) scale(3.1837)">
<stop stop-color="white"/>
<stop offset="1" stop-color="#D0D2D3"/>
</radialGradient>
</defs>
</svg>
