<svg width="30" height="30" viewBox="0 0 30 30" fill="none" xmlns="http://www.w3.org/2000/svg">
<path fill-rule="evenodd" clip-rule="evenodd" d="M8.62917 24.5189C6.52016 24.2274 2.78225 23.6016 2.21642 21.1325C1.77919 19.2292 3.39952 16.7173 4.35115 15.1312C4.83982 14.3168 6.02292 12.5679 6.06579 11.6334C6.10008 10.9733 5.93719 10.2617 5.7743 9.62726L4.07681 2.75156C6.20296 3.7632 7.33462 4.35475 9.8037 4.42334C12.0499 4.47477 13.3101 3.64318 14.999 2.31433C16.6965 3.64318 17.9482 4.47477 20.1944 4.42334C22.6635 4.36332 23.7951 3.77177 25.9213 2.75156L24.2238 9.63583C24.0609 10.2788 23.9152 10.9818 23.9323 11.642C23.9752 12.5593 25.1497 14.3168 25.6469 15.1398C26.5986 16.7087 28.2275 19.2378 27.7817 21.1411C27.2158 23.6101 23.4694 24.2445 21.3689 24.5275C18.7884 24.879 16.5594 25.4448 14.999 27.6567C13.4387 25.4362 11.2011 24.8704 8.62917 24.5189Z" fill="#FFF100"/>
<path fill-rule="evenodd" clip-rule="evenodd" d="M8.68032 24.1333C6.7685 23.8675 3.10775 23.276 2.58479 21.0298C2.18185 19.2723 3.78503 16.7946 4.66807 15.32C5.19961 14.4199 6.38271 12.6795 6.43415 11.6507C6.46844 10.9563 6.30555 10.2104 6.13408 9.53315L4.64235 3.44618C6.57132 4.37209 7.54009 4.74931 9.79484 4.80932C11.981 4.86076 13.327 4.09775 14.9988 2.81177C16.6534 4.10632 17.9908 4.86076 20.2027 4.80932C22.4574 4.75788 23.4176 4.37209 25.3552 3.45476L23.8549 9.55029C23.692 10.2276 23.5205 10.9734 23.5548 11.6679C23.5977 12.6967 24.7722 14.4456 25.3209 15.3372C26.2125 16.8118 27.8157 19.3066 27.4042 21.0469C26.8812 23.2931 23.2204 23.8761 21.3086 24.1504C19.1739 24.4505 16.3019 25.1363 14.9902 26.9967C13.6871 25.1278 10.8065 24.4333 8.68032 24.1333Z" fill="#034EA1"/>
<path fill-rule="evenodd" clip-rule="evenodd" d="M14.9988 26.328C14.4759 25.5907 12.1354 24.2361 8.73182 23.7646C6.76856 23.4988 3.40787 22.9073 2.96206 20.9612C2.61914 19.5037 3.85368 17.4633 5.00248 15.5344C5.59403 14.5656 6.76856 12.8081 6.82 11.685C6.85429 10.922 6.67425 10.0818 6.51136 9.46454L5.20824 4.14916C6.26274 4.64641 7.34296 5.1265 9.77775 5.19509C12.5469 5.2551 14.2015 3.90911 14.9988 3.30042C15.7876 3.91768 17.4508 5.26367 20.2199 5.19509C22.6547 5.13508 23.752 4.64641 24.798 4.14916L23.4948 9.46454C23.332 10.099 23.1519 10.9306 23.1862 11.685C23.2377 12.8167 24.4122 14.557 25.0037 15.5344C26.1697 17.4719 27.3871 19.5037 27.0441 20.9612C26.5983 22.9073 23.2377 23.4988 21.2744 23.7646C17.8623 24.2361 15.5218 25.5907 14.9988 26.328Z" fill="#FFF100"/>
<path fill-rule="evenodd" clip-rule="evenodd" d="M17.6483 5.98376C19.02 5.98376 20.1174 7.09828 20.1174 8.45284C20.1174 9.82455 19.02 10.9219 17.6483 10.9219C16.2766 10.9219 15.1792 9.82455 15.1792 8.45284C15.1792 7.09828 16.2851 5.98376 17.6483 5.98376Z" fill="white"/>
<path fill-rule="evenodd" clip-rule="evenodd" d="M18.1623 6.0695C18.7624 6.1981 19.2768 6.54102 19.6283 7.02112C19.5254 6.98683 19.414 6.96968 19.3197 6.93539C19.3711 7.28689 19.3111 7.61267 19.2597 7.90416C19.4911 8.0499 19.6969 8.28138 19.8598 8.58144C19.937 8.48714 20.0227 8.34996 20.0913 8.20422C20.0998 8.28995 20.0998 8.36711 20.0998 8.45284C20.0998 8.98438 19.9284 9.48163 19.6369 9.88456C19.6369 9.78169 19.6283 9.66166 19.6197 9.57593C19.3025 9.73882 18.9768 9.78169 18.6767 9.80741C18.5995 10.0817 18.4538 10.3389 18.2137 10.579C18.3338 10.6219 18.4795 10.6647 18.6338 10.6819C18.3338 10.8105 17.9994 10.8876 17.6651 10.8876C17.4079 10.8876 17.1507 10.8448 16.9278 10.7676C17.0221 10.7333 17.1335 10.6904 17.2021 10.6647C16.9535 10.4075 16.8163 10.116 16.6877 9.8417C16.3962 9.85885 16.1133 9.79883 15.8132 9.63594C15.8132 9.75597 15.8132 9.91028 15.8304 10.0646C15.4532 9.63594 15.2217 9.07869 15.2217 8.46142C15.2817 8.54715 15.3589 8.63288 15.4103 8.69289C15.5732 8.38426 15.8047 8.16135 16.0447 7.94703C15.9418 7.68126 15.9076 7.3812 15.959 7.04684C15.839 7.08113 15.6932 7.13257 15.5561 7.20973C15.8561 6.69534 16.3276 6.30955 16.902 6.12094C16.842 6.20667 16.782 6.30955 16.7306 6.38671C17.0821 6.43814 17.365 6.60104 17.6393 6.74678C17.8622 6.56674 18.128 6.44672 18.4624 6.39528C18.3766 6.30097 18.2738 6.18952 18.1623 6.0695ZM17.6479 5.87231C19.0711 5.87231 20.2284 7.02969 20.2284 8.45284C20.2284 9.87599 19.0711 11.0334 17.6479 11.0334C16.2248 11.0334 15.0674 9.87599 15.0674 8.45284C15.0674 7.02969 16.2248 5.87231 17.6479 5.87231Z" fill="#034EA1"/>
<path fill-rule="evenodd" clip-rule="evenodd" d="M17.6651 7.50122C17.9823 7.68126 18.3081 7.92131 18.591 8.19565C18.5481 8.57287 18.4195 8.94152 18.2738 9.28444C17.8537 9.32731 17.4593 9.32731 17.0736 9.28444C16.9278 8.96724 16.8164 8.5643 16.7563 8.19565C17.005 7.92988 17.3308 7.68126 17.6651 7.50122Z" fill="#034EA1"/>
<path fill-rule="evenodd" clip-rule="evenodd" d="M15.4188 6.56677C13.5242 9.02728 15.5989 12.9195 17.8279 13.854L15.6675 16.1516C13.3527 13.6654 13.0784 8.96726 15.4188 6.56677ZM14.8101 6.72966C12.7354 9.25018 13.2841 14.0426 15.4617 16.3745L13.4556 18.5006C10.6179 14.9856 11.5523 9.65312 14.8101 6.72966ZM13.2584 18.715L11.2351 20.8668C7.24859 15.38 10.2921 9.10444 14.0471 7.1326C10.9779 10.0646 10.5493 15.4057 13.2584 18.715Z" fill="#034EA1"/>
<path d="M9.24658 22.1615C9.24658 21.9729 9.29802 21.8185 9.42662 21.6985C9.54664 21.5956 9.70096 21.5271 9.88957 21.5271H9.92386V21.3813H10.3182V21.5271H10.3525C10.5411 21.5271 10.6955 21.5785 10.8155 21.6985C10.9355 21.8185 10.9955 21.9643 10.9955 22.1615C10.9955 22.3587 10.9355 22.513 10.8155 22.6244C10.6955 22.7273 10.5411 22.7959 10.3525 22.7959H10.3182V22.9759H9.92386V22.7873H9.88957C9.70953 22.7873 9.54664 22.7359 9.42662 22.6244C9.29802 22.513 9.24658 22.3501 9.24658 22.1615ZM10.3182 21.8185V22.513C10.404 22.513 10.4554 22.4958 10.4983 22.453C10.5497 22.4015 10.5754 22.3072 10.5754 22.1615C10.5754 22.0243 10.5583 21.93 10.4983 21.87C10.4554 21.8357 10.3954 21.8185 10.3182 21.8185ZM9.90672 22.513V21.8185C9.82099 21.8185 9.76955 21.8357 9.72668 21.87C9.67524 21.9214 9.64952 22.0157 9.64952 22.1615C9.64952 22.2986 9.66667 22.3929 9.72668 22.453C9.76955 22.4873 9.83813 22.513 9.90672 22.513ZM11.5785 21.3899V22.0757L11.9729 21.3899H12.3672L12.0157 21.9128L12.3586 22.9674H11.9643L11.75 22.2815L11.5785 22.5301V22.9674H11.1841V21.3813H11.5785V21.3899ZM13.576 21.6642V22.05H13.6532C13.7132 22.05 13.7818 22.0414 13.8247 22.0072C13.8761 21.9729 13.9104 21.9214 13.9104 21.8614C13.9104 21.8014 13.8932 21.7414 13.8332 21.7157C13.7904 21.6814 13.7389 21.6728 13.6618 21.6728L13.576 21.6642ZM13.1731 22.9674V21.3813H13.7732C13.9361 21.3813 14.0647 21.4156 14.159 21.4842C14.2619 21.5613 14.3219 21.6728 14.3219 21.8271C14.3219 21.9986 14.2705 22.1272 14.1504 22.2129C14.0561 22.2901 13.919 22.3329 13.7475 22.3329C13.6961 22.3329 13.6446 22.3329 13.6018 22.3244V22.9674H13.1731ZM14.4076 22.1786C14.4076 21.9471 14.4505 21.7585 14.5362 21.6128C14.6391 21.4413 14.802 21.3556 15.0163 21.3556C15.2307 21.3556 15.3936 21.4413 15.4964 21.6128C15.5822 21.75 15.625 21.9471 15.625 22.1786C15.625 22.4101 15.5822 22.5987 15.4964 22.7359C15.3936 22.9073 15.2307 22.9931 15.0163 22.9931C14.802 22.9931 14.6391 22.9073 14.5362 22.7359C14.4505 22.5987 14.4076 22.4187 14.4076 22.1786ZM14.8363 22.1786C14.8363 22.3587 14.8449 22.4873 14.8706 22.5558C14.9049 22.6501 14.9478 22.7016 15.0335 22.7016C15.1106 22.7016 15.1621 22.6501 15.1792 22.5558C15.1964 22.4787 15.2135 22.3501 15.2135 22.17C15.2135 21.99 15.2049 21.8614 15.1792 21.7843C15.1621 21.6899 15.1021 21.6385 15.0335 21.6385C14.9563 21.6385 14.9049 21.6899 14.8877 21.7843C14.862 21.87 14.8363 21.9986 14.8363 22.1786ZM16.5681 22.3929L16.911 22.4272C16.911 22.5987 16.8596 22.7359 16.7653 22.8473C16.671 22.9502 16.5338 23.0102 16.3623 23.0102C16.1394 23.0102 15.9765 22.9245 15.8737 22.753C15.7879 22.6159 15.7451 22.4187 15.7451 22.1872C15.7451 21.9643 15.7879 21.7671 15.8737 21.6299C15.9765 21.4499 16.1394 21.3642 16.3623 21.3642C16.5424 21.3642 16.6795 21.4156 16.7824 21.5356C16.8681 21.6385 16.911 21.7843 16.911 21.9557H16.5338C16.5338 21.8786 16.5252 21.8185 16.4995 21.7757C16.4652 21.6985 16.4223 21.6728 16.3623 21.6728C16.2852 21.6728 16.2337 21.7242 16.1994 21.8357C16.1823 21.9128 16.1651 22.0414 16.1651 22.2129C16.1651 22.3929 16.1737 22.5215 16.1994 22.5987C16.2337 22.693 16.2852 22.7359 16.3709 22.7359C16.4481 22.7359 16.4909 22.7187 16.5166 22.6501C16.5595 22.573 16.5681 22.4873 16.5681 22.3929ZM17.031 21.6899V21.3813H18.1455V21.6899H17.794V22.9588H17.3997V21.6899H17.031ZM18.2399 22.1786C18.2399 21.9471 18.2827 21.7585 18.3685 21.6128C18.4713 21.4413 18.6342 21.3556 18.8485 21.3556C19.0629 21.3556 19.2258 21.4413 19.3286 21.6128C19.4144 21.75 19.4572 21.9471 19.4572 22.1786C19.4572 22.4101 19.4144 22.5987 19.3286 22.7359C19.2258 22.9073 19.0629 22.9931 18.8485 22.9931C18.6342 22.9931 18.4713 22.9073 18.3685 22.7359C18.2827 22.5987 18.2399 22.4187 18.2399 22.1786ZM18.6685 22.1786C18.6685 22.3587 18.6771 22.4873 18.7028 22.5558C18.72 22.6501 18.78 22.7016 18.8657 22.7016C18.9429 22.7016 18.9943 22.6501 19.0286 22.5558C19.0457 22.4787 19.0629 22.3501 19.0629 22.17C19.0629 21.99 19.0543 21.8614 19.0286 21.7843C19.0114 21.6899 18.9514 21.6385 18.8657 21.6385C18.7885 21.6385 18.7371 21.6899 18.72 21.7843C18.6771 21.87 18.6685 21.9986 18.6685 22.1786ZM19.6459 22.9674V21.3813H20.306C20.4432 21.3813 20.5632 21.4156 20.6489 21.4842C20.7347 21.5613 20.7775 21.6471 20.7775 21.75C20.7775 21.8443 20.7432 21.9214 20.6918 21.9986C20.6403 22.0586 20.5632 22.1015 20.4775 22.1272C20.5803 22.1615 20.6575 22.2043 20.7261 22.2643C20.7775 22.3244 20.8118 22.4101 20.8118 22.5215C20.8118 22.6501 20.7689 22.753 20.6746 22.8388C20.5803 22.9159 20.4603 22.9588 20.2974 22.9588H19.6459V22.9674ZM20.0574 22.2729V22.6673H20.2031C20.2546 22.6673 20.2974 22.6587 20.3317 22.6244C20.3746 22.5901 20.4089 22.5387 20.4089 22.4615C20.4089 22.4015 20.3917 22.3587 20.3574 22.3244C20.3231 22.2901 20.2717 22.2729 20.2117 22.2729H20.0574ZM20.0574 21.6642V22.0072H20.186C20.246 22.0072 20.306 21.99 20.3317 21.9643C20.366 21.93 20.3832 21.8871 20.3832 21.8357C20.3832 21.7757 20.366 21.7157 20.3231 21.6985C20.2888 21.6814 20.246 21.6642 20.1945 21.6642H20.0574Z" fill="#034EA1"/>
<path d="M14.0304 23.696V24.5447H14.1761V24.7162H13.6274V24.5447H13.7732V23.9446L13.6274 23.9875V23.816C13.6617 23.816 13.7046 23.7989 13.756 23.7731C13.8161 23.7388 13.8589 23.7217 13.8761 23.696H14.0304ZM14.3047 24.459L14.5191 24.4247C14.5191 24.459 14.5276 24.4847 14.5362 24.5104C14.5448 24.5447 14.5791 24.5533 14.6134 24.5533C14.6562 24.5533 14.6734 24.5362 14.6991 24.4761C14.7162 24.4333 14.7334 24.3561 14.7334 24.2704C14.6991 24.2875 14.6734 24.3047 14.6391 24.3132C14.6048 24.3218 14.5791 24.3304 14.5448 24.3304C14.4676 24.3304 14.4076 24.3133 14.3647 24.2532C14.3133 24.2018 14.2876 24.1332 14.2876 24.0646C14.2876 23.9446 14.3219 23.8589 14.3819 23.7903C14.4419 23.7303 14.5276 23.6874 14.6476 23.6874C14.7762 23.6874 14.8706 23.7388 14.9391 23.8589C14.9906 23.9532 15.0163 24.0646 15.0163 24.2018C15.0163 24.339 14.982 24.459 14.9306 24.5533C14.8706 24.6733 14.7591 24.7333 14.6305 24.7333C14.4419 24.7248 14.339 24.639 14.3047 24.459ZM14.7334 24.1246C14.7334 24.0389 14.7334 23.9789 14.7248 23.9446C14.7162 23.8846 14.6819 23.8589 14.6391 23.8589C14.6048 23.8589 14.5791 23.876 14.5533 23.9103C14.5448 23.9446 14.5362 23.9703 14.5362 24.0132C14.5362 24.0561 14.5448 24.0989 14.5533 24.1161C14.5619 24.1332 14.5962 24.1589 14.6305 24.1589C14.6477 24.1589 14.6648 24.1589 14.6819 24.1504C14.6991 24.1504 14.7248 24.1332 14.7334 24.1246ZM15.2563 24.2875V24.1161H15.3078C15.3592 24.1161 15.3935 24.1075 15.4278 24.0818C15.4621 24.0646 15.4707 24.0303 15.4707 23.9789C15.4707 23.9446 15.4621 23.9189 15.4535 23.8932C15.4364 23.876 15.4107 23.8589 15.3764 23.8589C15.3421 23.8589 15.3164 23.8674 15.2906 23.8932C15.2735 23.9103 15.2563 23.9446 15.2478 23.9789L15.0592 23.8932C15.0935 23.816 15.1363 23.7646 15.1963 23.7303C15.2563 23.6874 15.3249 23.6788 15.4021 23.6788C15.4878 23.6788 15.5736 23.696 15.625 23.756C15.685 23.8074 15.7193 23.8846 15.7193 23.9703C15.7193 24.0218 15.7022 24.0732 15.6593 24.1161C15.6164 24.1504 15.5736 24.1675 15.5135 24.1932C15.5907 24.2018 15.6507 24.2275 15.685 24.2532C15.7364 24.2961 15.7622 24.3475 15.7622 24.4247C15.7622 24.519 15.7193 24.5962 15.6336 24.6476C15.5564 24.699 15.4707 24.7248 15.3764 24.7248C15.2992 24.7248 15.2306 24.7076 15.1706 24.6733C15.1192 24.639 15.0763 24.5876 15.0334 24.5104L15.2135 24.4161C15.2306 24.4676 15.2563 24.5019 15.2735 24.5104C15.2906 24.519 15.3164 24.5276 15.3507 24.5276C15.4364 24.5276 15.4792 24.4847 15.4792 24.4076C15.4792 24.3561 15.4621 24.3132 15.4278 24.2875C15.4107 24.279 15.3678 24.2704 15.3078 24.2704H15.2563V24.2875ZM15.8136 24.2018C15.8136 24.0561 15.8307 23.936 15.8736 23.8417C15.9251 23.7388 16.0194 23.6788 16.1651 23.6788C16.2937 23.6788 16.388 23.7303 16.4566 23.8417C16.4995 23.9275 16.5338 24.0475 16.5338 24.2018C16.5338 24.3475 16.5166 24.4761 16.448 24.5619C16.388 24.6648 16.3023 24.7076 16.1737 24.7076C16.0365 24.7076 15.9422 24.6562 15.8822 24.5619C15.8308 24.4847 15.8136 24.3647 15.8136 24.2018ZM16.1651 23.8503C16.1308 23.8503 16.1137 23.8589 16.1051 23.8932C16.0965 23.9275 16.0879 23.9703 16.0879 24.0389V24.3475C16.0879 24.4247 16.0965 24.4761 16.1051 24.5104C16.1137 24.5447 16.1394 24.5533 16.1823 24.5533C16.2165 24.5533 16.2337 24.5447 16.2423 24.5104C16.2508 24.4761 16.2594 24.4333 16.2594 24.3647V24.0561C16.2594 23.9789 16.2508 23.9275 16.2423 23.8932C16.2251 23.8674 16.1994 23.8503 16.1651 23.8503Z" fill="#034EA1"/>
<path fill-rule="evenodd" clip-rule="evenodd" d="M8.58612 5.55523C7.62592 5.40949 6.73431 5.19516 5.8427 4.83508L7.06866 9.76467C7.27442 10.5791 7.30014 11.1364 7.30014 11.5565C7.30014 12.5938 6.57142 13.9741 5.91986 15.1058C4.90822 16.8804 3.91373 18.3207 3.74227 20.0954C3.55366 22.1786 7.01722 22.8988 8.58612 23.0445V5.55523Z" fill="#034EA1"/>
<path fill-rule="evenodd" clip-rule="evenodd" d="M21.4204 5.55523C22.3806 5.40949 23.2722 5.19516 24.1638 4.83508L22.9379 9.76467C22.7321 10.5791 22.7064 11.1364 22.7064 11.5565C22.7064 12.5938 23.4351 13.9741 24.0867 15.1058C25.0983 16.8804 26.0928 18.3207 26.2643 20.0954C26.4529 22.1786 22.9893 22.8988 21.4204 23.0445V5.55523Z" fill="#034EA1"/>
</svg>
