<svg width="30" height="30" viewBox="0 0 30 30" fill="none" xmlns="http://www.w3.org/2000/svg">
<path fill-rule="evenodd" clip-rule="evenodd" d="M15.1009 27.6155L15.0706 27.625L15.0021 27.6367H14.9614L14.8929 27.625L14.8626 27.6155C10.5562 25.6158 8.0498 23.0523 6.63119 20.3636C5.21215 17.6741 4.88354 14.8641 4.93092 12.3684L4.93206 12.3094L4.97972 12.2736C5.29064 12.0402 5.62479 11.7148 5.88086 11.3306C6.11166 10.9842 6.27815 10.5903 6.3038 10.1746C6.32923 9.76198 6.28068 9.19511 5.95259 8.75814C5.73506 8.46837 5.37996 8.0911 4.95249 7.80626L4.86719 7.7494L4.90843 7.65657C5.31648 6.73848 5.67948 6.08826 6.06426 5.22107C6.44368 4.36595 6.73661 3.57543 7.13895 2.67018L7.19893 2.53521L7.31943 2.61997C9.00364 3.80451 9.85836 3.35098 10.7238 2.91314C11.6629 2.43807 12.7097 1.90896 14.9818 3.0207C17.2539 1.90896 18.3006 2.43807 19.2397 2.91314C20.1051 3.35098 20.9598 3.76119 22.6441 2.57663L22.7646 2.49187L22.8245 2.62684C23.2243 3.52637 23.515 4.3551 23.892 5.2048C24.2792 6.07743 24.6444 6.68938 25.0551 7.61321L25.0963 7.70605L25.011 7.76292C24.5835 8.04776 24.2284 8.55507 24.0109 8.84486C23.6828 9.28181 23.6342 9.76199 23.6597 10.1746C23.6853 10.5903 23.8518 10.9842 24.0826 11.3306C24.3387 11.7148 24.6728 12.0402 24.9838 12.2736L25.0315 12.3094L25.0326 12.3684C25.08 14.8641 24.7513 17.6741 23.3323 20.3636C21.9137 23.0523 19.4073 25.6158 15.1009 27.6155Z" fill="white"/>
<path fill-rule="evenodd" clip-rule="evenodd" d="M14.9821 27.5509C17.1273 26.55 18.8253 25.4111 20.1639 24.1879C21.506 22.9615 22.4858 21.6515 23.1926 20.3119C23.8949 18.9806 24.3296 17.6177 24.5835 16.2771C24.8329 14.9602 24.908 13.6623 24.8912 12.4357C24.7321 12.3084 24.5703 12.1611 24.4162 11.9974C24.2608 11.8325 24.1127 11.6504 23.9822 11.4545C23.8404 11.2417 23.7189 11.012 23.6307 10.7692C23.5494 10.5455 23.4963 10.3124 23.4816 10.0732C23.4653 9.80879 23.4954 9.53545 23.5849 9.25727C23.6666 9.00365 23.798 8.74769 23.9892 8.49303C24.1096 8.33266 24.253 8.17368 24.4215 8.01726C24.5561 7.89236 24.7076 7.76823 24.8775 7.64522C24.692 7.22788 24.511 6.82018 24.3323 6.41759C24.1378 5.97936 23.9459 5.54699 23.754 5.11453C23.5704 4.70058 23.3866 4.28639 23.2003 3.86677C23.0372 3.49927 22.8722 3.12755 22.7035 2.74808C21.8666 3.28858 21.2313 3.46612 20.6879 3.45109C20.1099 3.43509 19.6527 3.20392 19.169 2.95923C18.7237 2.73395 18.2526 2.49565 17.6281 2.45025C16.9983 2.40444 16.2032 2.55165 15.1029 3.0979L15.048 3.12516L14.9821 3.15792L14.9161 3.12516L14.8613 3.0979C13.761 2.55168 12.9658 2.40446 12.336 2.45025C11.7115 2.49567 11.2405 2.73395 10.7952 2.95923C10.3115 3.20392 9.85431 3.43509 9.27623 3.45109C8.73291 3.46614 8.09768 3.28856 7.26068 2.74809C7.09077 3.13048 6.92442 3.50499 6.76008 3.87523C6.5726 4.29759 6.38759 4.71447 6.20269 5.13122C6.01205 5.56087 5.82139 5.99055 5.6281 6.42602C5.45062 6.8259 5.27084 7.2308 5.08669 7.64522C5.25652 7.76819 5.40802 7.89233 5.54256 8.01717C5.71119 8.17364 5.8545 8.33264 5.97491 8.49301C6.1661 8.74767 6.29753 9.0036 6.37919 9.25722C6.46874 9.53542 6.49884 9.80879 6.48255 10.0732C6.46781 10.3124 6.41481 10.5455 6.33347 10.7693C6.2452 11.012 6.12374 11.2417 5.98198 11.4545C5.85145 11.6504 5.70326 11.8325 5.54794 11.9974C5.39377 12.1611 5.23204 12.3084 5.07296 12.4357C5.05619 13.6624 5.13124 14.9602 5.38064 16.2771C5.63454 17.6178 6.06921 18.9807 6.77157 20.3119C7.47839 21.6515 8.45818 22.9615 9.80029 24.1879C11.1389 25.4111 12.8369 26.55 14.9821 27.5509ZM20.3658 24.4085C19.0008 25.6559 17.2682 26.8167 15.0774 27.8356L15.0595 27.8439L15.0401 27.8472L15.0072 27.8528L14.9821 27.8571L14.957 27.8528L14.9241 27.8472L14.9047 27.8439L14.8867 27.8356C12.696 26.8167 10.9634 25.6559 9.59833 24.4085C8.23063 23.1587 7.23058 21.8208 6.50774 20.4508C5.79051 19.0914 5.34676 17.7002 5.08763 16.3319C4.82876 14.9651 4.75417 13.6235 4.77509 12.3606L4.77628 12.2893L4.83348 12.245C4.99851 12.1173 5.16879 11.9652 5.33083 11.7931C5.47527 11.6398 5.61272 11.4709 5.73335 11.2899C5.86318 11.0951 5.9738 10.8863 6.05328 10.6677C6.12427 10.4724 6.17063 10.2676 6.1837 10.0557C6.19797 9.82406 6.17234 9.58686 6.09554 9.34829C6.02361 9.12491 5.90701 8.89838 5.73678 8.67163C5.62802 8.52674 5.49638 8.3811 5.33944 8.23547C5.1881 8.09505 5.01436 7.9558 4.81615 7.81862L4.71436 7.74814L4.76421 7.63592C4.96561 7.18269 5.16165 6.74127 5.35495 6.30577C5.54825 5.8703 5.73891 5.44063 5.92955 5.01097C6.11444 4.59422 6.29945 4.17734 6.48693 3.75498C6.6744 3.33263 6.86447 2.90468 7.05947 2.46585L7.13228 2.30207L7.2801 2.40224C8.13175 2.97942 8.75188 3.16652 9.26805 3.15223C9.78121 3.13803 10.2087 2.92185 10.6609 2.69307C11.1337 2.45391 11.6338 2.20095 12.315 2.15139C12.9888 2.10239 13.831 2.2554 14.9821 2.82516C16.1331 2.25536 16.9754 2.10237 17.6491 2.15139C18.3304 2.20093 18.8305 2.45391 19.3032 2.69307C19.7555 2.92185 20.183 3.13803 20.6961 3.15223C21.2123 3.1665 21.8324 2.97942 22.6841 2.40222L22.8319 2.30205L22.9048 2.46584C23.0985 2.90173 23.2873 3.3269 23.4735 3.74653C23.6597 4.16614 23.8435 4.58033 24.0272 4.99428C24.219 5.42674 24.4109 5.85912 24.6055 6.29734C24.8 6.73555 24.9973 7.17977 25.2 7.63592L25.2499 7.74814L25.148 7.81862C24.9498 7.95583 24.776 8.09509 24.6247 8.23555C24.4677 8.38117 24.3361 8.52681 24.2274 8.67165C24.0571 8.89842 23.9405 9.12495 23.8686 9.34834C23.7918 9.58687 23.7662 9.82406 23.7805 10.0557C23.7935 10.2675 23.8399 10.4724 23.9109 10.6677C23.9904 10.8863 24.101 11.0951 24.2308 11.2899C24.3514 11.4709 24.4889 11.6398 24.6333 11.7931C24.7953 11.9651 24.9656 12.1172 25.1307 12.245L25.1879 12.2893L25.1891 12.3605C25.21 13.6235 25.1354 14.9651 24.8765 16.3319C24.6174 17.7002 24.1736 19.0914 23.4564 20.4508C22.7336 21.8208 21.7335 23.1587 20.3658 24.4085Z" fill="#1A1A18"/>
<path fill-rule="evenodd" clip-rule="evenodd" d="M6.02734 7.51953H14.9349V9.72252H7.27159C7.25431 9.34956 7.1676 8.97532 6.98994 8.61868C6.79166 8.2206 6.48055 7.84527 6.02734 7.51953Z" fill="#E2000F"/>
<path fill-rule="evenodd" clip-rule="evenodd" d="M6.81823 5.3147H14.9351V7.51769H6.02499C5.99669 7.49738 5.9679 7.47727 5.93848 7.45735C6.29348 6.65613 6.50965 6.10341 6.72583 5.55073C6.7565 5.47231 6.78716 5.39385 6.81823 5.3147Z" fill="#008AD1"/>
<path fill-rule="evenodd" clip-rule="evenodd" d="M14.9353 3.84861V5.31475H6.81836C7.00383 4.8424 7.20369 4.34439 7.50321 3.6675C8.87086 4.50968 9.66986 4.12949 10.5652 3.70341C11.5674 3.22644 12.6943 2.69015 14.9353 3.84861Z" fill="white"/>
<path fill-rule="evenodd" clip-rule="evenodd" d="M15.0688 26.9533L15.0702 26.9526C15.0345 26.9703 15.0107 26.9792 14.9821 26.9792C14.9535 26.9792 14.9298 26.9703 14.8941 26.9526L14.8955 26.9533C11.8954 25.5649 9.51142 23.6122 7.90902 21.1693C6.36063 18.8087 5.5424 15.9915 5.60326 12.7848L5.60399 12.7469L5.63776 12.7301C5.93993 12.5796 6.26545 12.2628 6.53861 11.8476C6.81841 11.4223 7.04172 10.8954 7.12744 10.3397C7.21279 9.7862 7.16161 9.20406 6.89344 8.66567C6.68578 8.24875 6.34733 7.85699 5.84072 7.52368L5.79676 7.49477L5.81812 7.44669C6.18535 6.62044 6.40505 6.05881 6.62474 5.49716C6.8451 4.93378 7.0655 4.37033 7.43299 3.54347L7.46233 3.47745L7.5231 3.51601C8.87022 4.37082 9.65037 3.99957 10.5261 3.58278C11.5508 3.09509 12.7027 2.54726 14.9822 3.71756C17.2616 2.54726 18.4135 3.09509 19.4382 3.58278C20.314 3.99957 21.0941 4.37082 22.4412 3.51601L22.502 3.47745L22.5313 3.54347C22.8988 4.37033 23.1192 4.93378 23.3396 5.49716C23.5593 6.05881 23.779 6.62044 24.1462 7.44669L24.1676 7.49477L24.1236 7.52368C23.617 7.85699 23.2785 8.24875 23.0709 8.66567C22.8027 9.20404 22.7515 9.7862 22.8369 10.3397C22.9226 10.8954 23.1459 11.4223 23.4257 11.8476C23.6989 12.2628 24.0244 12.5796 24.3266 12.7301L24.3603 12.7469L24.361 12.7848C24.4219 15.9915 23.6037 18.8087 22.0553 21.1692C20.4529 23.6121 18.069 25.5649 15.0688 26.9533ZM15.0153 26.8414L15.0168 26.8406C17.9957 25.4621 20.3619 23.5244 21.9514 21.1013C23.4801 18.7706 24.2906 15.9896 24.2372 12.8239C23.9257 12.6578 23.5966 12.3338 23.3218 11.9161C23.0331 11.4772 22.8026 10.9331 22.714 10.3586C22.625 9.78174 22.6789 9.17396 22.9596 8.61029C23.1707 8.18663 23.5094 7.78878 24.0113 7.44899C23.6563 6.64775 23.4402 6.09503 23.224 5.54236C23.0102 4.9959 22.7964 4.44939 22.4467 3.65907C21.0791 4.50126 20.2801 4.12105 19.3847 3.69498C18.3819 3.2177 17.2543 2.68104 15.0106 3.84228L14.9822 3.857L14.9537 3.84228C12.7101 2.68104 11.5824 3.2177 10.5796 3.69498C9.68424 4.12105 8.88525 4.50126 7.51759 3.65907C7.16788 4.44939 6.95409 4.9959 6.74035 5.54236C6.52417 6.09503 6.30799 6.64775 5.95299 7.44899C6.45489 7.78878 6.79366 8.18663 7.00469 8.61029C7.28546 9.17396 7.33931 9.78174 7.25034 10.3586C7.16171 10.9332 6.93125 11.4772 6.64255 11.9161C6.36771 12.3338 6.03862 12.6578 5.72708 12.8239C5.67369 15.9896 6.48424 18.7706 8.01297 21.1013C9.6024 23.5244 11.9686 25.4621 14.9475 26.8406L14.949 26.8414C14.967 26.8503 14.9771 26.8548 14.9821 26.8548C14.9872 26.8548 14.9973 26.8503 15.0153 26.8414Z" fill="#1A1A18"/>
<path fill-rule="evenodd" clip-rule="evenodd" d="M13.4668 12.7959H16.4276V26.1194C15.9741 26.3743 15.5036 26.6148 15.0166 26.8401L15.0152 26.8408C14.9971 26.8498 14.987 26.8543 14.982 26.8543C14.977 26.8543 14.9669 26.8498 14.9488 26.8408L14.9474 26.8401C14.4355 26.6032 13.9417 26.3498 13.4668 26.0803V12.7959Z" fill="#008AD1"/>
<path fill-rule="evenodd" clip-rule="evenodd" d="M10.6631 12.791H13.4702V26.0821C12.4432 25.4995 11.5047 24.8413 10.6631 24.1115V12.791Z" fill="#A0D8F7"/>
<path fill-rule="evenodd" clip-rule="evenodd" d="M7.85986 12.7861H10.6669V24.1151C9.63002 23.2167 8.73998 22.2096 8.01266 21.1008C7.96088 21.0218 7.91 20.9423 7.85986 20.8623V12.7861Z" fill="#008AD1"/>
<path fill-rule="evenodd" clip-rule="evenodd" d="M5.78749 12.7893H7.87661V20.8886C6.43613 18.6019 5.67531 15.8936 5.72709 12.8234C5.74717 12.8127 5.76729 12.8013 5.78749 12.7893Z" fill="#A0D8F7"/>
<path fill-rule="evenodd" clip-rule="evenodd" d="M19.2378 12.7955H16.4307V26.1176C17.4566 25.5406 18.3951 24.8889 19.2378 24.166V12.7955Z" fill="#A0D8F7"/>
<path fill-rule="evenodd" clip-rule="evenodd" d="M22.0527 12.8044H19.2456V24.1591C20.3044 23.2496 21.2117 22.2277 21.951 21.1007C21.9853 21.0484 22.0191 20.9957 22.0527 20.943V12.8044Z" fill="#008AD1"/>
<path fill-rule="evenodd" clip-rule="evenodd" d="M24.1944 12.7996H22.0513V20.9459C23.5153 18.6472 24.2894 15.9193 24.2372 12.8233C24.223 12.8157 24.2087 12.8078 24.1944 12.7996Z" fill="#A0D8F7"/>
<path d="M22.6887 9.72314H7.23535V9.84178H22.6887V9.72314Z" fill="#1A1A18"/>
<path d="M24.2732 12.719H5.72266V12.8376H24.2732V12.719Z" fill="#1A1A18"/>
<path d="M15.0386 3.78394H14.9199V9.73094H15.0386V3.78394Z" fill="#1A1A18"/>
<path d="M14.9965 5.27283H6.72705V5.42226H14.9965V5.27283Z" fill="#1A1A18"/>
<path d="M14.9966 7.43762H5.9375V7.58705H14.9966V7.43762Z" fill="#1A1A18"/>
<path d="M7.90577 12.7999H7.75635V20.9254H7.90577V12.7999Z" fill="#1A1A18"/>
<path d="M10.7334 12.7999H10.584V24.1885H10.7334V12.7999Z" fill="#1A1A18"/>
<path d="M13.541 12.7999H13.3916V26.1599H13.541V12.7999Z" fill="#1A1A18"/>
<path d="M22.1343 12.8324H21.9849V21.0324H22.1343V12.8324Z" fill="#1A1A18"/>
<path d="M19.3321 12.8324H19.1826V24.231H19.3321V12.8324Z" fill="#1A1A18"/>
<path d="M16.5117 12.8324H16.3623V26.1781H16.5117V12.8324Z" fill="#1A1A18"/>
<path fill-rule="evenodd" clip-rule="evenodd" d="M20.3631 5.02389C21.0606 5.02905 21.6195 5.56493 21.6195 6.26251C21.6195 7.54441 20.4675 7.53084 19.569 7.53084V9.48054C19.7643 9.48054 19.84 9.48054 20.0752 9.48054C20.0752 9.39143 20.0721 8.1546 20.0752 8.15453C21.2101 8.13133 22.1974 7.53323 22.1974 6.28348C22.1974 4.18234 19.9668 4.45587 18.5571 4.4687L19.5601 5.01795L20.3631 5.02389Z" fill="#0095D4"/>
<path fill-rule="evenodd" clip-rule="evenodd" d="M18.7827 9.48054H19.2889V7.69067L18.7827 7.90556V9.48054Z" fill="#0095D4"/>
<path fill-rule="evenodd" clip-rule="evenodd" d="M20.411 5.78497C20.6468 5.78497 20.8397 5.94075 20.8397 6.13116V6.30355C20.8397 6.49395 20.6468 6.64974 20.411 6.64974H20.1639C20.1279 6.64974 20.0928 6.64608 20.0593 6.63924V5.79548C20.0928 5.78862 20.1279 5.78497 20.1639 5.78497H20.411ZM20.4047 5.26086H19.9335C19.8647 5.26086 19.7978 5.2695 19.7339 5.2857V7.27947C19.7978 7.29567 19.8647 7.30431 19.9335 7.30431H20.4047C21.6166 7.30431 21.6003 5.26086 20.4047 5.26086Z" fill="#0095D4"/>
<path fill-rule="evenodd" clip-rule="evenodd" d="M20.0729 6.29432C20.0729 5.27645 19.2506 4.45129 18.2361 4.45129C17.2217 4.45129 16.3994 5.27645 16.3994 6.29432C16.3994 7.31219 17.2217 8.13735 18.2361 8.13735C19.2506 8.13735 20.0729 7.31219 20.0729 6.29432ZM19.1545 7.54915C18.9948 7.66425 18.8821 7.79095 18.8724 7.85959C18.6796 7.93695 18.4692 7.97955 18.2488 7.97955C18.0383 7.97955 17.8369 7.94065 17.6513 7.8698C17.6036 7.67191 17.1978 7.35544 16.9741 7.39218C16.7221 7.09796 16.5698 6.71554 16.5698 6.29748C16.5698 6.26177 16.571 6.22634 16.5732 6.19119L16.5731 6.19114C16.5776 6.19556 16.5827 6.19867 16.5883 6.2003C16.6501 6.21841 16.7537 6.05072 16.8196 5.82574C16.8822 5.61171 16.8882 5.42294 16.8353 5.38947C17.0627 5.035 17.4192 4.77161 17.8384 4.66611C17.8387 4.73052 18.0286 4.78272 18.2628 4.78272C18.4883 4.78272 18.6727 4.73435 18.6864 4.67326C19.1073 4.78682 19.4627 5.06014 19.6839 5.42427C19.6381 5.46766 19.6568 5.65128 19.7306 5.85548C19.7884 6.01531 19.8641 6.14383 19.9245 6.19408C19.9266 6.22828 19.9277 6.26275 19.9277 6.29748C19.9277 6.70936 19.7799 7.0866 19.5345 7.37901C19.4646 7.36946 19.3114 7.43603 19.1545 7.54915ZM18.8785 7.89211C18.8779 7.89132 18.8774 7.89052 18.8769 7.88968C18.8774 7.89052 18.8779 7.89132 18.8785 7.89211ZM18.8768 7.88954C18.8758 7.88791 18.875 7.88622 18.8744 7.88443C18.875 7.88621 18.8758 7.88792 18.8768 7.88954ZM18.8742 7.88391C18.8739 7.88308 18.8736 7.88224 18.8733 7.88137C18.8736 7.88224 18.8739 7.88308 18.8742 7.88391Z" fill="#0095D4"/>
<path fill-rule="evenodd" clip-rule="evenodd" d="M16.8353 5.38937C16.8882 5.42285 16.8822 5.61161 16.8196 5.82564C16.7537 6.05063 16.6501 6.21831 16.5882 6.2002C16.5827 6.19858 16.5776 6.19547 16.5732 6.19109C16.571 6.22624 16.5698 6.26167 16.5698 6.29739C16.5698 6.71545 16.7221 7.09786 16.9741 7.39208C17.1978 7.35535 17.6035 7.67182 17.6513 7.86971C17.8369 7.94056 18.0383 7.97946 18.2487 7.97946C18.4691 7.97946 18.6796 7.93686 18.8724 7.8595C18.8821 7.79085 18.9948 7.66416 19.1545 7.54906C19.3114 7.43593 19.4645 7.36937 19.5345 7.37892C19.7798 7.0865 19.9277 6.70926 19.9277 6.29739C19.9277 6.26266 19.9266 6.22819 19.9245 6.19398C19.8641 6.14373 19.7884 6.01521 19.7306 5.85539C19.6567 5.65119 19.638 5.46756 19.6839 5.42417C19.4626 5.06004 19.1073 4.78673 18.6864 4.67317C18.6727 4.73425 18.4883 4.78262 18.2628 4.78262C18.0286 4.78262 17.8387 4.73042 17.8384 4.66602C17.4192 4.77152 17.0627 5.0349 16.8353 5.38937Z" fill="white"/>
<path fill-rule="evenodd" clip-rule="evenodd" d="M18.2152 7.07242L18.214 6.94591C17.9666 6.92987 17.758 6.76927 17.6686 6.54626L17.5469 6.5947C17.654 6.86294 17.9147 7.05678 18.2152 7.07242Z" fill="#0095D4"/>
<path fill-rule="evenodd" clip-rule="evenodd" d="M17.6221 6.30352C17.6221 6.11076 17.7053 5.93779 17.8373 5.8198L17.7754 5.72217C17.6067 5.86196 17.499 6.15775 17.499 6.31141C17.499 6.46508 17.5058 6.43941 17.5233 6.50374L17.6418 6.46345C17.6289 6.41231 17.6221 6.35873 17.6221 6.30352Z" fill="#0095D4"/>
<path fill-rule="evenodd" clip-rule="evenodd" d="M17.9058 5.7662C18.0058 5.69886 18.1257 5.65965 18.2546 5.65965C18.3857 5.65965 18.5075 5.70022 18.6085 5.76969L18.6691 5.67394C18.5501 5.59507 18.4076 5.54919 18.2546 5.54919C18.1037 5.54919 17.9632 5.59376 17.8452 5.67054L17.9058 5.7662Z" fill="#0095D4"/>
<path fill-rule="evenodd" clip-rule="evenodd" d="M18.6768 5.82392C18.806 5.94179 18.8873 6.17956 18.8873 6.30342C18.8873 6.42729 18.8754 6.43448 18.8616 6.48732L18.9802 6.52581C18.9987 6.4598 19.0104 6.46489 19.0104 6.31132C19.0104 6.15776 18.9047 5.86587 18.7387 5.72607L18.6768 5.82392Z" fill="#0095D4"/>
<path fill-rule="evenodd" clip-rule="evenodd" d="M18.8389 6.55164C18.749 6.77035 18.5439 6.92783 18.3008 6.94557L18.302 7.07202C18.5972 7.0537 18.849 6.85659 18.9564 6.59338L18.8389 6.55164Z" fill="#0095D4"/>
<path fill-rule="evenodd" clip-rule="evenodd" d="M17.5998 5.48948L17.5269 5.38757C17.415 5.4584 17.2806 5.49972 17.1359 5.49972C17.0691 5.49972 17.0045 5.49092 16.9434 5.47449V5.60169C17.0051 5.61544 17.0695 5.62272 17.1358 5.62272C17.308 5.62272 17.4679 5.57353 17.5998 5.48948Z" fill="#0095D4"/>
<path fill-rule="evenodd" clip-rule="evenodd" d="M17.6016 5.31644L17.6689 5.42327C17.8431 5.29235 17.9582 5.09552 17.9692 4.87076C17.9693 4.86915 17.9694 4.86755 17.9694 4.86595L17.8542 4.83276C17.8542 4.8341 17.8541 4.83544 17.854 4.83678C17.8446 5.03111 17.7479 5.20168 17.6016 5.31644Z" fill="#0095D4"/>
<path fill-rule="evenodd" clip-rule="evenodd" d="M16.7937 6.10596L16.7412 6.21976C16.858 6.28198 16.9796 6.41237 17.0319 6.50427C17.0841 6.59617 17.0839 6.60353 17.0998 6.66485L17.2157 6.62125C17.1971 6.56079 17.1716 6.50116 17.1389 6.44356C17.0538 6.29382 16.932 6.17916 16.7937 6.10596Z" fill="#0095D4"/>
<path fill-rule="evenodd" clip-rule="evenodd" d="M18.9004 5.49571L18.9734 5.3938C19.0852 5.46463 19.2197 5.50593 19.3644 5.50593C19.4311 5.50593 19.4957 5.49715 19.5569 5.48071V5.60791C19.4952 5.62166 19.4307 5.62894 19.3644 5.62894C19.1922 5.62894 19.0324 5.57976 18.9004 5.49571Z" fill="#0095D4"/>
<path fill-rule="evenodd" clip-rule="evenodd" d="M19.7068 6.11218L19.7593 6.226C19.6425 6.28822 19.5209 6.41861 19.4686 6.51051C19.4164 6.60241 19.4188 6.6016 19.4028 6.66292L19.2856 6.62488C19.3042 6.56442 19.3027 6.55346 19.3616 6.44978C19.4206 6.34611 19.5685 6.1854 19.7068 6.11218Z" fill="#0095D4"/>
<path fill-rule="evenodd" clip-rule="evenodd" d="M19.257 6.68713L19.3761 6.72607C19.3423 6.85405 19.3571 7.02501 19.389 7.1258C19.4209 7.22658 19.437 7.24835 19.4711 7.30173L19.3499 7.34011C19.3181 7.28541 19.3077 7.27668 19.2717 7.163C19.2357 7.04929 19.2166 6.83832 19.257 6.68713Z" fill="#0095D4"/>
<path fill-rule="evenodd" clip-rule="evenodd" d="M18.9143 7.63496L18.8216 7.7194C18.727 7.62678 18.566 7.55019 18.4626 7.52813C18.3593 7.50606 18.3523 7.50854 18.2891 7.51185L18.2957 7.38822C18.3589 7.38765 18.4234 7.39398 18.4882 7.40781C18.6567 7.44376 18.8027 7.52523 18.9143 7.63496Z" fill="#0095D4"/>
<path fill-rule="evenodd" clip-rule="evenodd" d="M17.2472 6.69373L17.1284 6.73431C17.1622 6.86231 17.1453 7.0246 17.1134 7.12538C17.0815 7.22616 17.0654 7.24794 17.0312 7.30131L17.1525 7.3397C17.1843 7.285 17.1947 7.27627 17.2306 7.16259C17.2666 7.04888 17.2875 6.84491 17.2472 6.69373Z" fill="#0095D4"/>
<path fill-rule="evenodd" clip-rule="evenodd" d="M17.5884 7.6346L17.681 7.71903C17.7756 7.62641 17.9366 7.54982 18.04 7.52776C18.1434 7.50569 18.1403 7.50764 18.2036 7.51095L18.207 7.38785C18.1438 7.38728 18.0792 7.39363 18.0144 7.40745C17.846 7.44339 17.6999 7.52486 17.5884 7.6346Z" fill="#0095D4"/>
<path fill-rule="evenodd" clip-rule="evenodd" d="M18.812 5.4409L18.8906 5.34326C18.7923 5.25452 18.7165 5.13604 18.6777 4.99667C18.6598 4.93237 18.6509 4.86779 18.6504 4.80444L18.5278 4.83855C18.5311 4.90169 18.5414 4.96573 18.5592 5.02957C18.6054 5.1955 18.6956 5.33629 18.812 5.4409Z" fill="#0095D4"/>
<path fill-rule="evenodd" clip-rule="evenodd" d="M18.2083 7.17465C17.8716 7.15875 17.5505 6.92784 17.4258 6.63269L17.3716 6.6538C17.3913 6.72584 17.4054 6.7752 17.4054 6.89616C17.4054 7.01712 17.3595 7.21264 17.2798 7.34259C17.4 7.38964 17.5048 7.46467 17.5849 7.55903C17.7309 7.38816 17.9696 7.27407 18.2083 7.25931V7.17465Z" fill="#0095D4"/>
<path fill-rule="evenodd" clip-rule="evenodd" d="M17.4027 6.54598C17.3799 6.4689 17.3676 6.38726 17.3676 6.30277C17.3676 6.03533 17.4904 5.79658 17.6826 5.63975L17.6505 5.58936C17.5153 5.67897 17.3531 5.73116 17.1787 5.73116C17.0947 5.73116 17.0136 5.71905 16.9369 5.69648C16.9226 5.83029 16.8694 5.95332 16.7881 6.05539C17.0425 6.12891 17.2513 6.3237 17.3483 6.56726L17.4027 6.54598Z" fill="#0095D4"/>
<path fill-rule="evenodd" clip-rule="evenodd" d="M18.8027 5.66782C18.9886 5.82471 19.1067 6.15136 19.1067 6.32175C19.1067 6.49213 19.0936 6.48395 19.0738 6.55613L19.1355 6.57614C19.2287 6.33004 19.4366 6.1269 19.6901 6.0496C19.62 5.95072 19.5751 5.83463 19.5642 5.70948C19.4805 5.73682 19.3911 5.75161 19.2983 5.75161C19.1279 5.75161 18.9691 5.70175 18.8358 5.61584L18.8027 5.66782Z" fill="#0095D4"/>
<path fill-rule="evenodd" clip-rule="evenodd" d="M19.0526 6.62451C18.9331 6.92433 18.6316 7.15523 18.2944 7.17611V7.26078C18.5477 7.27275 18.7829 7.39404 18.9316 7.57945C19.001 7.47253 19.0992 7.38396 19.216 7.32321C19.1328 7.19133 19.0847 6.98813 19.0847 6.86775C19.0847 6.74736 19.0975 6.71333 19.1149 6.64538L19.0526 6.62451Z" fill="#0095D4"/>
<path fill-rule="evenodd" clip-rule="evenodd" d="M17.7747 5.56672C17.8423 5.52317 17.8172 5.52185 17.9861 5.47242C18.155 5.42299 18.5064 5.44801 18.7109 5.58843L18.7503 5.53398C18.6263 5.42937 18.5179 5.25454 18.4816 5.13056C18.4453 5.00659 18.4468 4.96866 18.4469 4.88873C18.3145 4.91255 18.2004 4.93421 18.0607 4.88489C18.0616 5.14972 17.9506 5.35423 17.7441 5.5157L17.7747 5.56672Z" fill="#0095D4"/>
<path fill-rule="evenodd" clip-rule="evenodd" d="M12.2396 11.2708L12.4203 11.4316V11.7692L12.0728 11.4652V11.0951L12.4139 10.7689L12.4171 11.1194L12.2396 11.2708ZM12.6711 11.2677L12.8519 11.4284V11.7661L12.5043 11.4621V11.0919L12.8454 10.7657L12.8487 11.1162L12.6711 11.2677Z" fill="#000003"/>
<path fill-rule="evenodd" clip-rule="evenodd" d="M12.4108 10.7754L12.414 11.1182L12.235 11.2709L12.4172 11.4329V11.7632L12.0752 11.4641V11.0964L12.4108 10.7754Z" fill="#1A1A18"/>
<path fill-rule="evenodd" clip-rule="evenodd" d="M12.8425 10.7723L12.8456 11.1151L12.6666 11.2678L12.8489 11.4298V11.7602L12.5068 11.461V11.0933L12.8425 10.7723Z" fill="#1A1A18"/>
<path fill-rule="evenodd" clip-rule="evenodd" d="M13.6467 11.4817V12.0716H13.2959V10.5017H13.8561C13.9419 10.5017 14.0283 10.5026 14.114 10.5073C14.162 10.51 14.2176 10.5133 14.2644 10.5243C14.3662 10.5483 14.4508 10.6001 14.518 10.68C14.5913 10.7671 14.6182 10.8748 14.6182 10.9869C14.6182 11.0901 14.5942 11.1894 14.5318 11.273C14.4757 11.3482 14.4041 11.4031 14.3159 11.4349C14.1946 11.4787 13.9998 11.4817 13.8717 11.4817H13.6467ZM14.8257 11.2961C14.8257 11.137 14.8527 10.9724 14.9368 10.8348C15.0083 10.7178 15.104 10.6253 15.2272 10.5642C15.3609 10.4979 15.513 10.4755 15.661 10.4755C15.885 10.4755 16.0946 10.5334 16.2631 10.6863C16.4361 10.8431 16.4962 11.0584 16.4962 11.2866C16.4962 11.5239 16.4285 11.7404 16.2495 11.9019C16.0871 12.0484 15.8764 12.0978 15.6624 12.0978C15.4485 12.0978 15.2354 12.0503 15.0724 11.9041C14.8946 11.7445 14.8257 11.5317 14.8257 11.2961ZM17.1495 10.7716H16.6403V10.5017H18.0094V10.7716H17.5003V12.0716H17.1495V10.7716ZM18.1589 11.2961C18.1589 11.137 18.186 10.9724 18.2701 10.8348C18.3415 10.7178 18.4372 10.6253 18.5604 10.5642C18.6941 10.4979 18.8462 10.4755 18.9942 10.4755C19.2182 10.4755 19.4278 10.5334 19.5964 10.6863C19.7693 10.8431 19.8294 11.0584 19.8294 11.2866C19.8294 11.5239 19.7617 11.7404 19.5827 11.9019C19.4203 12.0484 19.2097 12.0978 18.9956 12.0978C18.7818 12.0978 18.5686 12.0503 18.4056 11.9041C18.2278 11.7445 18.1589 11.5317 18.1589 11.2961ZM20.4473 11.4817V12.0716H20.0965V10.5017H20.6566C20.7425 10.5017 20.8289 10.5026 20.9146 10.5073C20.9625 10.51 21.0182 10.5133 21.065 10.5243C21.1667 10.5483 21.2513 10.6001 21.3186 10.68C21.3918 10.7671 21.4187 10.8748 21.4187 10.9869C21.4187 11.0901 21.3947 11.1894 21.3323 11.273C21.2763 11.3482 21.2047 11.4031 21.1165 11.4349C20.9952 11.4787 20.8003 11.4817 20.6722 11.4817H20.4473ZM13.6467 10.7716V11.2118H13.8366C13.9104 11.2118 14.0282 11.2121 14.0992 11.1915C14.1439 11.1785 14.182 11.1549 14.2119 11.1192C14.2429 11.0822 14.2556 11.0385 14.2556 10.9906C14.2556 10.942 14.2424 10.8976 14.2105 10.8606C14.1803 10.8256 14.1428 10.8017 14.0982 10.7897C14.0662 10.7811 14.0268 10.7783 13.9937 10.7762C13.9338 10.7724 13.8732 10.7716 13.8132 10.7716H13.6467ZM15.1883 11.2856C15.1883 11.4297 15.2177 11.5826 15.3245 11.6874C15.418 11.7792 15.5322 11.8213 15.6629 11.8213C15.7929 11.8213 15.9073 11.7807 15.9999 11.6885C16.1063 11.5826 16.1337 11.4243 16.1337 11.2801C16.1337 11.1399 16.1076 10.984 16.0038 10.8811C15.9105 10.7888 15.7928 10.7519 15.6629 10.7519C15.5323 10.7519 15.4145 10.7895 15.3206 10.8819C15.2148 10.9858 15.1883 11.1433 15.1883 11.2856ZM18.5215 11.2856C18.5215 11.4297 18.551 11.5826 18.6577 11.6874C18.7512 11.7792 18.8654 11.8213 18.9961 11.8213C19.1262 11.8213 19.2405 11.7806 19.3331 11.6885C19.4395 11.5826 19.4669 11.4243 19.4669 11.2801C19.4669 11.1399 19.4408 10.984 19.337 10.8811C19.2437 10.7888 19.1261 10.7519 18.9961 10.7519C18.8656 10.7519 18.7477 10.7895 18.6538 10.8819C18.548 10.9858 18.5215 11.1433 18.5215 11.2856ZM20.4473 10.7716V11.2118H20.6371C20.711 11.2118 20.8288 11.2121 20.8997 11.1915C20.9444 11.1785 20.9825 11.1549 21.0125 11.1192C21.0434 11.0822 21.0562 11.0385 21.0562 10.9906C21.0562 10.9421 21.0429 10.8976 21.011 10.8606C20.9809 10.8256 20.9434 10.8017 20.8988 10.7897C20.8668 10.7811 20.8273 10.7783 20.7943 10.7762C20.7344 10.7724 20.6738 10.7716 20.6137 10.7716H20.4473Z" fill="#000003"/>
<path fill-rule="evenodd" clip-rule="evenodd" d="M13.2988 12.0687V10.5044H13.8562C14.064 10.5044 14.2001 10.512 14.2639 10.5269C14.3658 10.551 14.4497 10.6027 14.5161 10.6817C14.5824 10.7604 14.6155 10.8623 14.6155 10.9869C14.6155 11.0998 14.5868 11.1948 14.5297 11.2713C14.4727 11.3477 14.401 11.4013 14.3151 11.4322C14.2293 11.4632 14.0815 11.4788 13.8718 11.4788H13.6441V12.0687H13.2988ZM13.6441 10.7687V11.2145H13.8367C13.9655 11.2145 14.0537 11.2075 14.1001 11.1941C14.1464 11.1806 14.1844 11.1562 14.2142 11.1209C14.2439 11.0852 14.2586 11.0419 14.2586 10.9905C14.2586 10.9384 14.2435 10.8944 14.2127 10.8587C14.182 10.823 14.144 10.799 14.0991 10.7869C14.0542 10.7749 13.9591 10.7687 13.8133 10.7687H13.6441ZM14.8287 11.296C14.8287 11.1099 14.8657 10.9566 14.9394 10.8361C15.013 10.7156 15.1095 10.6256 15.2285 10.5666C15.3475 10.5077 15.4919 10.4781 15.6611 10.4781C15.9069 10.4781 16.1068 10.5481 16.2614 10.6883C16.416 10.8285 16.4936 11.0276 16.4936 11.2866C16.4936 11.548 16.4116 11.7527 16.2478 11.8998C16.1044 12.0298 15.9088 12.095 15.6626 12.095C15.4139 12.095 15.2178 12.0305 15.0744 11.902C14.9106 11.7548 14.8287 11.5527 14.8287 11.296ZM15.1856 11.2855C15.1856 11.465 15.2315 11.5997 15.3227 11.6893C15.4143 11.7792 15.528 11.824 15.6631 11.824C15.7996 11.824 15.9127 11.7796 16.002 11.6904C16.0917 11.6015 16.1366 11.4646 16.1366 11.28C16.1366 11.0994 16.0932 10.9654 16.0059 10.8791C15.9186 10.7924 15.8045 10.7491 15.6631 10.7491C15.5221 10.7491 15.4075 10.7928 15.3188 10.8798C15.23 10.9672 15.1856 11.1023 15.1856 11.2855ZM17.1524 12.0687V10.7687H16.6433V10.5044H18.0068V10.7687H17.4977V12.0687H17.1524ZM18.1619 11.296C18.1619 11.1099 18.1989 10.9566 18.2726 10.8361C18.3462 10.7156 18.4428 10.6256 18.5618 10.5666C18.6808 10.5077 18.8251 10.4781 18.9943 10.4781C19.2401 10.4781 19.4401 10.5481 19.5947 10.6883C19.7492 10.8285 19.8268 11.0276 19.8268 11.2866C19.8268 11.548 19.7448 11.7527 19.581 11.8998C19.4376 12.0298 19.2421 12.095 18.9958 12.095C18.7471 12.095 18.551 12.0305 18.4077 11.902C18.2438 11.7548 18.1619 11.5527 18.1619 11.296ZM18.5189 11.2855C18.5189 11.465 18.5647 11.5997 18.6559 11.6893C18.7476 11.7792 18.8612 11.824 18.9963 11.824C19.1328 11.824 19.246 11.7796 19.3352 11.6904C19.4249 11.6015 19.4698 11.4646 19.4698 11.28C19.4698 11.0994 19.4264 10.9654 19.3391 10.8791C19.2518 10.7924 19.1377 10.7491 18.9963 10.7491C18.8553 10.7491 18.7407 10.7928 18.652 10.8798C18.5632 10.9672 18.5189 11.1023 18.5189 11.2855ZM20.0994 12.0687V10.5044H20.6568C20.8645 10.5044 21.0006 10.512 21.0645 10.5269C21.1664 10.551 21.2503 10.6027 21.3166 10.6817C21.3829 10.7604 21.4161 10.8623 21.4161 10.9869C21.4161 11.0998 21.3873 11.1948 21.3303 11.2713C21.2732 11.3477 21.2015 11.4013 21.1157 11.4322C21.0299 11.4632 20.8821 11.4788 20.6724 11.4788H20.4447V12.0687H20.0994ZM20.4447 10.7687V11.2145H20.6373C20.766 11.2145 20.8543 11.2075 20.9006 11.1941C20.947 11.1806 20.985 11.1562 21.0148 11.1209C21.0445 11.0852 21.0591 11.0419 21.0591 10.9905C21.0591 10.9384 21.044 10.8944 21.0133 10.8587C20.9825 10.823 20.9445 10.799 20.8997 10.7869C20.8548 10.7749 20.7597 10.7687 20.6139 10.7687H20.4447Z" fill="#1A1A18"/>
<path fill-rule="evenodd" clip-rule="evenodd" d="M10.2679 11.174L10.838 10.5056L11.2701 10.5045L10.6342 11.2518L11.2794 12.0775L10.8451 12.0705L10.267 11.3735L10.2712 12.071L9.90712 12.0716L9.8999 10.5072L10.2605 10.508L10.2679 11.174Z" fill="#000003"/>
<path fill-rule="evenodd" clip-rule="evenodd" d="M9.90283 10.51L10.2579 10.5108L10.2654 11.1814L10.8394 10.5084L11.2642 10.5073L10.6307 11.2517L11.2738 12.0746L10.8466 12.0677L10.2643 11.3657L10.2685 12.0682L9.91003 12.0688L9.90283 10.51Z" fill="#1A1A18"/>
<path fill-rule="evenodd" clip-rule="evenodd" d="M22.2612 11.3581L22.0836 11.2066L22.0869 10.8561L22.428 11.1824V11.5525L22.0805 11.8565V11.5189L22.2612 11.3581ZM21.8297 11.355L21.6521 11.2035L21.6554 10.853L21.9965 11.1792V11.5494L21.6489 11.8534V11.5157L21.8297 11.355Z" fill="#000003"/>
<path fill-rule="evenodd" clip-rule="evenodd" d="M22.0899 10.8625L22.0867 11.2053L22.2657 11.358L22.0835 11.5201V11.8504L22.4255 11.5512V11.1835L22.0899 10.8625Z" fill="#1A1A18"/>
<path fill-rule="evenodd" clip-rule="evenodd" d="M21.6582 10.8594L21.6551 11.2022L21.8341 11.3548L21.6519 11.5169V11.8472L21.9939 11.5481V11.1803L21.6582 10.8594Z" fill="#1A1A18"/>
<path fill-rule="evenodd" clip-rule="evenodd" d="M9.21736 11.4921L9.5192 11.5848C9.47285 11.7548 9.39559 11.8809 9.28779 11.9635C9.17999 12.0458 9.04343 12.0871 8.87777 12.0871C8.67259 12.0871 8.50406 12.0171 8.37183 11.8769C8.23994 11.7368 8.17383 11.5453 8.17383 11.302C8.17383 11.045 8.24031 10.8453 8.37291 10.703C8.5055 10.5607 8.68014 10.4895 8.89647 10.4895C9.08549 10.4895 9.23892 10.5456 9.35678 10.6573C9.4272 10.7234 9.47967 10.8183 9.51489 10.9423L9.20657 11.0156C9.18826 10.9358 9.15016 10.8726 9.09231 10.8262C9.0341 10.7799 8.96366 10.7569 8.88101 10.7569C8.76638 10.7569 8.6733 10.7978 8.60217 10.8801C8.53065 10.962 8.49508 11.095 8.49508 11.279C8.49508 11.4738 8.53029 11.6128 8.60036 11.6955C8.67079 11.7785 8.76207 11.8198 8.87455 11.8198C8.95755 11.8198 9.02907 11.7936 9.08871 11.7407C9.14836 11.6879 9.19148 11.6053 9.21736 11.4921Z" fill="#1A1A18" stroke="#000003" stroke-width="0.216" stroke-miterlimit="22.9256"/>
</svg>
