<svg width="30" height="30" viewBox="0 0 30 30" fill="none" xmlns="http://www.w3.org/2000/svg">
<path d="M14.9674 27.8571L14.9276 27.8408C6.63769 24.4652 5.3999 19.9897 5.3999 17.6223V2.14282H24.5335V17.6223C24.5335 19.9896 23.2959 24.465 15.0072 27.8408L14.9674 27.8571ZM5.61109 2.35401V17.6223C5.61109 19.9328 6.82831 24.3021 14.9674 27.629C23.1053 24.3018 24.3223 19.9327 24.3223 17.6223V2.35401H5.61109Z" fill="#B2B3B3"/>
<path fill-rule="evenodd" clip-rule="evenodd" d="M14.9673 27.7431C6.09195 24.129 5.50537 19.2967 5.50537 17.6223V2.24841H24.4278V17.6223C24.4278 19.2964 23.8407 24.129 14.9673 27.7431Z" fill="#FEFEFE"/>
<path fill-rule="evenodd" clip-rule="evenodd" d="M21.5128 4.68063H22.6874V6.21049H23.523V3.24069H22.6874V4.16125H21.9226C21.6947 4.16095 21.5128 4.33836 21.5128 4.58458V4.68063ZM21.3816 3.24069H20.5462V6.21049H21.3816C21.3816 5.29054 21.3816 4.16063 21.3816 3.24069ZM6.34619 3.24174H8.61156C9.02067 3.24174 9.32304 3.52211 9.32304 3.82691V4.71149C9.32304 5.01282 9.01385 5.28982 8.62996 5.28982H7.72667C7.5023 5.28982 7.31303 5.10717 7.31303 4.87618V4.76627H8.48733V3.76548H7.18191V6.21049H6.34619V3.24174ZM15.7054 6.21119H13.4399L13.4399 3.24066L16.2212 3.24048V3.35527C16.2212 3.56722 16.0559 3.76465 15.8278 3.76465H14.2754V5.68735H15.5811V4.68422H14.4066V4.58108C14.4066 4.30259 14.6252 4.16143 14.8165 4.16143H15.7237C16.1076 4.16143 16.4168 4.43869 16.4168 4.73989V5.62596C16.4168 5.9303 16.1141 6.21119 15.7054 6.21119ZM19.9696 3.24069H19.679C19.4899 3.24069 19.2809 3.31905 19.1484 3.4677L17.8287 5.06045V3.24069H16.9932V6.21049H17.4392C17.7284 6.21049 17.9082 6.04992 17.9766 5.97673L19.1339 4.51631V6.21049H19.9696V3.24069ZM10.7224 4.76627V3.24071H9.88625V4.73188C9.88625 5.02153 10.2047 5.28982 10.6026 5.28982H12.0275V5.68934H10.4222C10.1678 5.68934 10.0129 5.91267 10.0129 6.08553V6.21049H12.1598C12.5228 6.21049 12.8634 5.96329 12.8634 5.61003V3.24071H12.0275V4.76627H10.7224Z" fill="#7F1E34"/>
<path fill-rule="evenodd" clip-rule="evenodd" d="M14.9347 26.8684C12.4894 25.8209 11.5425 25.2876 9.46282 23.6235C6.4758 21.2348 6.34619 18.115 6.34619 16.637V7.0083H9.91855V8.16632H7.50421V16.6225C7.50421 17.2494 7.25511 20.4187 10.1979 22.7812C12.0001 24.2503 12.8196 24.7212 14.9347 25.6459C17.0497 24.7212 17.8693 24.2503 19.6697 22.7812C22.6158 20.4187 22.3666 17.2496 22.3666 16.6225V8.16632H19.9507V7.0083H23.523L23.5231 16.637C23.5231 18.1149 23.3922 21.2348 20.4063 23.6235C18.3262 25.2876 17.3787 25.8209 14.9347 26.8684Z" fill="#7F1E34"/>
<path fill-rule="evenodd" clip-rule="evenodd" d="M18.3941 7.63688V7.96646H18.5207C18.6615 7.96646 18.7319 7.91058 18.7319 7.79887C18.7319 7.69078 18.6633 7.63688 18.5257 7.63688H18.3941ZM18.1138 8.16581V7.00423H18.3941V7.43917H18.5769C18.8769 7.43917 19.0266 7.55309 19.0266 7.78094C19.0266 7.90258 18.9864 7.99711 18.9053 8.06461C18.8245 8.1321 18.7103 8.16581 18.563 8.16581H18.1138ZM17.6661 8.16581H17.3853V7.69266H16.8705V8.16581H16.5903V7.00423H16.8705V7.46764H17.3853V7.00423H17.6661V8.16581ZM13.8266 8.12294V7.89375C13.9254 7.95565 14.0378 7.98693 14.1638 7.98693C14.3198 7.98693 14.3979 7.9341 14.3979 7.82877C14.3979 7.72199 14.3121 7.66836 14.1401 7.66836H13.9807V7.47234H14.1334C14.2861 7.47234 14.3621 7.42232 14.3621 7.32169C14.3621 7.22982 14.2973 7.18394 14.1671 7.18394C14.0742 7.18394 13.9748 7.21163 13.8692 7.26661V7.0529C13.9754 7.00758 14.0929 6.98486 14.2219 6.98486C14.3577 6.98486 14.463 7.01111 14.5378 7.0637C14.6127 7.1165 14.65 7.18783 14.65 7.27793C14.65 7.34872 14.6287 7.40879 14.5864 7.45823C14.5438 7.50774 14.4834 7.54094 14.4047 7.55833V7.56222C14.4932 7.573 14.5624 7.60284 14.6124 7.65184C14.6624 7.70075 14.6873 7.76126 14.6873 7.83377C14.6873 7.94547 14.6441 8.03222 14.5574 8.09363C14.4707 8.1553 14.3458 8.18601 14.1828 8.18601C14.0281 8.18601 13.9091 8.16496 13.8266 8.12294ZM12.9856 7.70656L12.8268 7.24114L12.6675 7.70656H12.9856ZM13.4434 8.16581H13.1383L13.0498 7.90728H12.6078L12.5202 8.16581H12.2166L12.6693 7.00423H13.0013L13.4434 8.16581ZM11.8758 8.16581H11.5219L11.1224 7.60909V8.16581H10.8423V7.00423H11.1224V7.54382L11.5047 7.00423H11.8385L11.405 7.55833L11.8758 8.16581ZM15.754 7.70656L15.5952 7.24114L15.436 7.70656H15.754ZM16.2118 8.16581H15.9067L15.8183 7.90728H15.3762L15.2886 8.16581H14.985L15.4377 7.00423H15.7698L16.2118 8.16581Z" fill="#7F1E34"/>
<path fill-rule="evenodd" clip-rule="evenodd" d="M14.9354 25.0649C8.40064 22.4039 7.96875 18.5993 7.96875 17.3665V8.56714H21.9011V17.3665C21.9011 18.5991 21.4687 22.4039 14.9354 25.0649Z" fill="#7F1E34"/>
<path fill-rule="evenodd" clip-rule="evenodd" d="M13.5435 23.8024V22.9523L13.3169 23.0016V22.8111L13.7778 22.7183V23.8024H13.5435ZM14.0497 23.7794V23.586C14.1054 23.6226 14.173 23.6409 14.252 23.6409C14.3342 23.6409 14.3976 23.613 14.4424 23.5575C14.4875 23.5015 14.51 23.4225 14.5105 23.3198L14.5063 23.3183C14.459 23.3881 14.3874 23.4233 14.2914 23.4233C14.204 23.4233 14.1316 23.3928 14.0744 23.3319C14.0172 23.2707 13.9887 23.1918 13.9887 23.0944C13.9887 22.981 14.0234 22.8899 14.0935 22.821C14.1633 22.7527 14.2537 22.7183 14.3649 22.7183C14.4788 22.7183 14.5697 22.7611 14.6376 22.8475C14.7049 22.9337 14.7391 23.0573 14.7391 23.2177C14.7391 23.4082 14.6982 23.5565 14.6168 23.6623C14.535 23.7682 14.4211 23.821 14.2748 23.821C14.1881 23.821 14.1131 23.8071 14.0497 23.7794ZM14.3582 22.8975C14.3174 22.8975 14.2842 22.9141 14.2577 22.9468C14.2317 22.9798 14.2183 23.0224 14.2183 23.0743C14.2183 23.1286 14.2314 23.171 14.2575 23.2019C14.2835 23.2329 14.3186 23.2482 14.3634 23.2482C14.4041 23.2482 14.4372 23.2336 14.463 23.2041C14.4887 23.1746 14.5016 23.1377 14.5016 23.093C14.5016 23.037 14.4883 22.9904 14.461 22.953C14.4343 22.9161 14.3998 22.8975 14.3582 22.8975ZM14.9543 23.7749V23.5743C15.0274 23.6187 15.1049 23.6409 15.1871 23.6409C15.2493 23.6409 15.2978 23.6263 15.3325 23.5969C15.3676 23.5674 15.385 23.5273 15.385 23.4767C15.385 23.3713 15.3104 23.3183 15.1611 23.3183C15.1128 23.3183 15.0539 23.3227 14.985 23.3317V22.7361H15.5754V22.928H15.1859V23.1412C15.217 23.1385 15.2465 23.1368 15.274 23.1368C15.3837 23.1368 15.4696 23.1655 15.5315 23.2232C15.5935 23.2807 15.6244 23.3579 15.6244 23.4552C15.6244 23.5627 15.5875 23.6506 15.5137 23.7187C15.4399 23.7868 15.3396 23.821 15.2131 23.821C15.1106 23.821 15.0244 23.8056 14.9543 23.7749ZM16.0103 23.2482V23.2447C15.8882 23.1945 15.8272 23.1135 15.8272 23.0016C15.8272 22.9191 15.8599 22.8512 15.9255 22.798C15.9909 22.7447 16.0756 22.7183 16.1791 22.7183C16.2846 22.7183 16.3688 22.7433 16.432 22.793C16.4949 22.8426 16.5263 22.9072 16.5263 22.9859C16.5263 23.1023 16.459 23.1883 16.324 23.2432V23.2462C16.3963 23.2675 16.4528 23.3027 16.4926 23.3515C16.5325 23.4003 16.5526 23.4552 16.5526 23.5162C16.5526 23.6103 16.5174 23.6845 16.4478 23.7392C16.3782 23.7937 16.2809 23.821 16.1561 23.821C16.0479 23.821 15.9607 23.7942 15.8946 23.741C15.8285 23.6878 15.7953 23.6174 15.7953 23.5295C15.7953 23.4022 15.8669 23.3084 16.0103 23.2482ZM16.3054 23.006C16.3054 22.9699 16.294 22.9409 16.271 22.9193C16.248 22.8978 16.2173 22.8871 16.1791 22.8871C16.1417 22.8871 16.111 22.8983 16.0865 22.9208C16.062 22.9433 16.0496 22.9721 16.0496 23.0075C16.0496 23.0738 16.0922 23.1241 16.1777 23.1585C16.2628 23.1232 16.3054 23.0724 16.3054 23.006ZM16.1673 23.3376C16.0677 23.3767 16.0177 23.4369 16.0177 23.5176C16.0177 23.5562 16.0328 23.5882 16.0632 23.6134C16.0939 23.6387 16.1311 23.6514 16.1744 23.6514C16.2217 23.6514 16.2596 23.639 16.2886 23.6142C16.3171 23.5895 16.3317 23.5568 16.3317 23.5162C16.3317 23.4349 16.2767 23.3752 16.1673 23.3376Z" fill="#FEFEFE"/>
<path fill-rule="evenodd" clip-rule="evenodd" d="M19.0167 17.0732L16.0431 20.0246C15.7715 20.2942 15.4338 19.9022 15.6684 19.6687L18.5295 16.8205C19.651 15.7039 20.0452 14.3228 20.0126 12.8087L14.3292 18.4269C13.8028 18.9472 13.4098 20.2718 14.3982 21.2174C15.2599 22.0418 16.2539 21.8687 16.9577 21.4457C18.5913 20.4636 19.2696 18.8191 19.0167 17.0732ZM14.6411 22.0274C12.9128 21.9816 11.9662 20.7424 11.8103 19.1937C11.6707 17.8075 12.2381 17.0429 13.3202 15.9691L20.0193 9.32153C20.1224 10.858 19.6647 12.4198 18.5381 13.5371L14.0504 17.988C12.9244 19.1047 13.0051 21.146 14.6411 22.0274ZM11.6373 20.6386C10.7684 19.623 10.5583 18.5949 10.5316 17.9354C10.4779 16.6064 10.9594 15.5104 11.7762 14.6999L12.8168 13.6671C13.0615 13.4243 12.9065 12.9287 12.4859 12.8773C12.2878 12.853 12.0916 12.9375 11.8046 13.1746H11.5598L11.3116 12.4195L12.4165 12.4166C12.261 11.8339 11.5435 11.6899 11.0458 11.8488L10.7715 11.0465H12.2259C12.306 10.9875 12.4033 10.8695 12.5341 10.8695H14.4637L14.1579 11.2357C15.2211 11.9742 15.1952 13.4667 14.3908 14.2087L12.65 15.9177C11.5509 16.9969 10.7671 18.3798 11.6373 20.6386ZM12.6183 11.3379L12.7256 11.6529L12.8875 11.4725L13.3465 11.3379H12.6183ZM12.8 10.5679L13.7781 10.5679L13.7789 9.71275L13.2891 10.0838L12.8003 9.71143L12.8 10.5679ZM11.4336 12.2356C10.7089 11.8031 10.3442 12.2859 9.63428 11.925C10.0373 12.995 10.8974 12.0819 11.4336 12.2356Z" fill="#FEFEFE"/>
</svg>
