<svg width="30" height="30" viewBox="0 0 30 30" fill="none" xmlns="http://www.w3.org/2000/svg">
<path d="M14.6262 27.6858C11.8941 25.7312 9.71223 23.4409 8.13408 20.8732L6.66899 22.1086L6.18645 22.0107C5.26917 21.8242 4.53138 21.4396 3.99289 20.8673C3.42994 20.2671 3.12689 19.5013 3.08726 18.5898C3.06852 17.8828 3.19507 17.1795 3.45907 16.5233C3.71391 15.8439 4.06736 15.2058 4.50807 14.6293C4.78479 14.2766 5.08919 13.9465 5.41836 13.6421C5.33094 13.1211 5.27616 12.6829 5.23537 12.36L5.19108 12.0103C5.09764 11.1488 5.05871 10.2823 5.07452 9.41583C5.07452 8.34936 5.11065 7.30852 5.1328 6.7817L5.14445 6.51013L5.39971 6.41338C6.15892 6.13419 6.93817 5.91288 7.7308 5.75135C7.68215 5.53427 7.66566 5.31121 7.68185 5.08932C7.7716 3.92378 8.71685 3.01698 9.97914 2.89693C10.0782 2.88761 10.1808 2.88294 10.2845 2.88294C10.5463 2.88427 10.8072 2.91278 11.0631 2.96803L11.323 3.02281L11.5783 2.9587C13.5151 2.43994 15.5094 2.16585 17.5144 2.14282C20.138 2.14282 21.5239 2.69179 21.581 2.71511L21.9691 2.87129L21.701 3.17783C22.0262 3.39437 22.265 3.71817 22.3759 4.09278L22.3864 4.13008V5.49493C22.3844 5.60741 22.3743 5.7196 22.3561 5.83061C23.0288 5.98037 23.6908 6.17506 24.3375 6.41338L24.5916 6.51013L24.6033 6.7817C24.6301 7.42974 24.6615 8.41346 24.6615 9.417C24.6615 9.95898 24.6522 10.4438 24.6336 10.8646L25.7851 10.5604L25.2863 12.2656L26.981 10.8331L25.8061 14.796L23.5449 16.7122C23.3111 17.4105 23.0387 18.0953 22.7291 18.7635C21.1369 22.2019 18.5715 25.2043 15.1052 27.6869L14.8593 27.8571L14.6262 27.6858Z" fill="white"/>
<path d="M26.4181 11.7003L24.7223 13.1293L25.3493 10.9835L24.312 11.2574C24.3458 10.7585 24.3621 10.1443 24.3621 9.41816C24.3621 8.35169 24.326 7.32018 24.3038 6.79568V6.71992L24.2316 6.69195C23.5054 6.42525 22.7605 6.21255 22.0031 6.05556C22.0575 5.87348 22.0873 5.68493 22.0916 5.49493V4.16971C22.027 3.9633 21.9159 3.7745 21.7667 3.61788C21.6176 3.46126 21.4345 3.34101 21.2315 3.26641L21.4727 2.99017C21.4727 2.99017 18.0367 1.59968 11.6553 3.2396L11.3278 3.33051L10.9956 3.26058C10.6698 3.18654 10.3344 3.16335 10.0014 3.19181C8.88599 3.29788 8.05146 4.08695 7.97337 5.1103C7.94977 5.40514 7.99279 5.70151 8.09925 5.97747C7.21416 6.14319 6.3441 6.38098 5.49775 6.68845L5.42549 6.71642V6.79218C5.40334 7.31435 5.36721 8.34936 5.36721 9.4135C5.35224 10.2671 5.39117 11.1208 5.48376 11.9695L5.52805 12.3192C5.57351 12.6805 5.63412 13.1677 5.73669 13.7528C5.37757 14.0755 5.04761 14.4293 4.75063 14.81C4.32636 15.364 3.98587 15.9774 3.74011 16.6306C3.49149 17.249 3.37248 17.9119 3.39044 18.5782C3.42308 19.4162 3.70048 20.1179 4.21332 20.6634C4.70751 21.1902 5.39168 21.5457 6.24836 21.7193L6.58987 21.7881L8.21114 20.4209C9.78113 23.0749 11.9887 25.4328 14.7988 27.4433L14.8664 27.4923L14.9328 27.4433C18.3584 24.9957 20.89 22.0282 22.4611 18.6376C22.7773 17.9546 23.0543 17.2541 23.291 16.5396L25.5521 14.6316L26.4181 11.7003Z" fill="#00304F"/>
<path d="M23.3608 15.219L24.3002 12.0056L22.9552 12.3553L22.3258 14.5115L20.6415 15.9312L21.574 12.7178L20.2301 13.0674L19.6555 15.0407L17.6927 16.7121L18.6321 13.4987L17.2871 13.8483L16.5808 16.3205C16.4178 16.2244 16.2743 16.0987 16.1577 15.9498C16.041 15.8007 15.9539 15.6306 15.9013 15.4486C15.8462 15.2558 15.8199 15.0559 15.8232 14.8554C15.8264 14.635 15.8634 14.4165 15.9327 14.2073L14.5679 14.5768C14.4436 15.144 14.4731 15.5916 14.6565 15.9195C14.6783 15.96 14.7028 15.9989 14.7299 16.0361L13.5387 17.0466C13.6154 16.8121 13.6501 16.5659 13.6413 16.3193C13.6369 16.1108 13.5876 15.9056 13.4967 15.7179C13.4222 15.5479 13.305 15.4001 13.1564 15.289C13.0025 15.1841 12.8281 15.113 12.6447 15.0803C12.4394 15.0594 12.232 15.0764 12.0328 15.1304C11.5808 15.2571 11.1608 15.4784 10.8008 15.7797C10.4278 16.0928 10.1184 16.4746 9.88938 16.9044C9.70754 17.2465 9.60402 17.6247 9.58633 18.0117L7.65269 19.633C7.21081 19.5715 6.78294 19.4338 6.38807 19.2262C6.06083 19.0484 5.7893 18.7833 5.60366 18.4604C5.41135 18.1066 5.30776 17.7115 5.30178 17.3089C5.29 16.9069 5.34192 16.5057 5.45564 16.12C5.57979 15.7219 5.76371 15.345 6.00111 15.0022C6.22917 14.6636 6.50969 14.3634 6.83215 14.1129C7.12881 13.8841 7.46733 13.7154 7.82869 13.6164C8.05141 13.5519 8.28695 13.5454 8.51287 13.5978C8.72468 13.6473 8.91748 13.7574 9.06767 13.9148C9.23241 14.0845 9.34837 14.2955 9.40334 14.5255L8.40913 15.3577L8.55832 15.5465L10.9349 13.5465L10.8055 13.3472L10.4652 13.6199C10.2341 13.3334 9.90845 13.1387 9.5467 13.0709C9.098 12.9953 8.63794 13.0232 8.20166 13.1525C7.64507 13.3075 7.12271 13.5661 6.66198 13.9148C6.16157 14.2985 5.71229 14.7446 5.3251 15.2423C4.94229 15.742 4.63518 16.2954 4.41364 16.8846C4.19807 17.4124 4.09372 17.979 4.1071 18.549C4.1343 19.2134 4.34371 19.7538 4.73533 20.1703C5.12695 20.5868 5.67826 20.8677 6.38924 21.013L9.59915 18.3054C9.63104 18.5903 9.72924 18.8637 9.88588 19.1038C10.0958 19.3858 10.3776 19.6064 10.7018 19.7425L14.8977 16.2109C15.1063 16.3876 15.3581 16.5055 15.6274 16.5524C15.7696 16.5757 15.9129 16.5944 16.0574 16.606C16.202 16.6177 16.3453 16.6305 16.4864 16.6398L16.047 18.1107L16.575 17.9709L19.5401 15.4638L18.9946 17.3287L19.5226 17.1888L22.2034 14.9276L21.7173 16.6095L22.2442 16.4697L24.9249 14.2097L25.0496 13.7901L23.3608 15.219ZM12.3615 17.8299C12.2141 18.0866 12.0264 18.318 11.8055 18.5152C11.4711 18.3999 11.1789 18.1872 10.9663 17.9044C10.7459 17.6197 10.6233 17.2714 10.6167 16.9114C10.6019 16.6607 10.662 16.4112 10.7892 16.1946C10.8388 16.1011 10.9067 16.0185 10.9888 15.9517C11.0709 15.8848 11.1655 15.835 11.2671 15.8053C11.362 15.7825 11.4606 15.7788 11.5571 15.7944C11.6535 15.81 11.7459 15.8446 11.8288 15.8962C12.029 16.028 12.19 16.2112 12.2951 16.4265C12.4142 16.6485 12.4826 16.8941 12.4955 17.1457C12.5112 17.3815 12.465 17.6174 12.3615 17.8299Z" fill="white"/>
<path d="M21.4611 17.564C20.69 19.1161 19.7057 20.5527 18.5368 21.8322C18.3659 21.3224 18.079 20.8592 17.6987 20.479C15.3676 18.2517 12.0785 19.9953 11.9293 22.6073C11.8057 22.4838 11.6837 22.3591 11.5633 22.2332C11.6458 21.6194 11.8631 21.0315 12.1997 20.5117C11.8214 20.9555 11.5403 21.4736 11.3745 22.0327C10.6286 21.2335 9.9517 20.3726 9.35109 19.4592L9.29048 19.5081L8.74268 19.9743C10.1973 22.4698 12.2533 24.6983 14.8595 26.611C18.0158 24.2985 20.355 21.528 21.8178 18.3717C22.0031 17.9719 22.1674 17.5815 22.3108 17.2062L21.5299 17.4125C21.5101 17.4614 21.4868 17.5115 21.4611 17.564Z" fill="#C1C1C1"/>
<path d="M23.3612 15.219L24.2936 12.0195C23.8484 12.1221 23.3752 12.3226 22.9276 12.4415L22.3238 14.5173L20.6396 15.9369L21.5569 12.7981C21.107 12.9333 20.6501 13.0778 20.1897 13.2294L19.6594 15.0523L17.6931 16.712L18.5451 13.7982C18.0789 13.9683 17.6127 14.1478 17.1465 14.3285L16.5754 16.3262C16.4124 16.2302 16.2689 16.1045 16.1523 15.9556C16.0356 15.8064 15.9485 15.6363 15.8959 15.4544C15.8422 15.2649 15.8159 15.0686 15.8178 14.8716C15.3725 15.0628 14.9351 15.257 14.5054 15.4544C14.5257 15.6136 14.5751 15.7676 14.6511 15.909C14.6729 15.9494 14.6974 15.9883 14.7245 16.0255L13.5333 17.036C13.61 16.8015 13.6447 16.5553 13.6359 16.3087C13.6309 16.1736 13.6086 16.0396 13.5694 15.9101C13.1483 16.1199 12.7415 16.3324 12.3491 16.5477C12.4329 16.7345 12.4811 16.9353 12.4913 17.1398C12.5066 17.3757 12.46 17.6116 12.3561 17.824C12.2087 18.0807 12.021 18.3121 11.8001 18.5093C11.4657 18.394 11.1735 18.1813 10.9609 17.8985C10.8683 17.7798 10.7926 17.6488 10.736 17.5093C10.3234 17.7785 9.93875 18.0268 9.59375 18.2995C9.62672 18.5841 9.72483 18.8573 9.88047 19.0979C10.0904 19.3799 10.3722 19.6005 10.6964 19.7366L14.8923 16.205C15.1009 16.3817 15.3527 16.4996 15.622 16.5465C15.7642 16.5698 15.9075 16.5885 16.052 16.6001C16.1966 16.6118 16.3399 16.6246 16.481 16.6339L16.0474 18.1107L16.5754 17.9708L19.5394 15.4637L18.995 17.3286L19.523 17.1887L22.2038 14.9276L21.7178 16.6095L22.2446 16.4696L24.9254 14.2096L25.0501 13.79L23.3612 15.219Z" fill="#C1C1C1"/>
<path d="M16.314 18.5885C17.0278 18.8206 17.6975 19.1709 18.2954 19.6247C17.5133 18.7272 16.314 18.5885 16.314 18.5885Z" fill="#C1C1C1"/>
<path d="M14.8593 25.0876C15.8537 24.3757 16.792 23.5886 17.666 22.7332C17.6764 22.6167 17.6811 22.5118 17.6858 22.436C17.6858 22.3999 17.6974 22.3987 17.7068 22.436C17.7256 22.5074 17.7404 22.5797 17.751 22.6528L17.8478 22.5584C17.8047 21.7122 17.4177 21.0001 17.5261 21.1597C17.7768 21.5436 17.9263 21.9846 17.9608 22.4418L17.969 22.4325C17.934 21.373 17.3641 20.4721 16.2929 20.0734C16.2591 20.0618 16.2347 20.0501 16.2393 20.0466C16.244 20.0431 16.2184 20.0326 16.1834 20.021C14.125 19.3578 12.2042 21.0525 12.3371 23.0095C13.1299 23.7583 13.9726 24.4526 14.8593 25.0876Z" fill="white"/>
<path d="M21.5347 17.4114C21.5103 17.4627 21.4869 17.5128 21.4613 17.5653C20.7997 18.9006 19.9777 20.1504 19.0136 21.2868C18.1861 19.5665 16.6965 19.2157 16.6965 19.2157C17.1948 19.4191 17.6446 19.7254 18.0165 20.1144C18.3885 20.5034 18.6742 20.9664 18.8551 21.4733C18.8213 21.5118 18.7899 21.5514 18.7561 21.5899C18.5719 21.0386 18.0381 20.5409 18.0381 20.5409C18.0381 20.5409 18.495 21.1563 18.5964 21.7647C18.5171 21.8521 18.4355 21.9384 18.3551 22.0258C18.2049 21.5036 17.9241 21.0283 17.5392 20.6446C16.0124 19.1877 13.9027 19.5257 12.8304 20.8894C12.3919 21.4423 12.1566 22.129 12.1637 22.8347C12.2243 22.8941 12.2803 22.9512 12.3467 23.0119C12.3201 22.6265 12.371 22.2398 12.4963 21.8745C12.6216 21.5091 12.8188 21.1726 13.0764 20.8847C13.0653 20.9096 13.0612 20.937 13.0647 20.964C13.0825 21.0771 13.1066 21.1892 13.137 21.2997C13.1461 21.315 13.1516 21.3322 13.153 21.35C13.1544 21.3678 13.1517 21.3857 13.1451 21.4022L13.109 21.4768C13.0812 21.5264 13.0559 21.5774 13.0332 21.6295L12.9936 21.7088L13.0973 21.5841C13.1358 21.5409 13.1848 21.4827 13.2384 21.4267C13.292 21.3708 13.3339 21.3743 14.0298 21.2729C14.0542 21.2703 14.0777 21.2617 14.098 21.2479C14.1183 21.234 14.1349 21.2154 14.1463 21.1936C14.3433 20.802 14.4261 20.64 14.461 20.57C14.4814 20.5323 14.5122 20.5012 14.5496 20.4803L14.8993 20.3334L14.8084 20.3416H14.7979C14.7575 20.3416 14.7143 20.3474 14.6685 20.3591C14.626 20.365 14.584 20.3736 14.5426 20.3847C14.5235 20.3865 14.5042 20.3843 14.4859 20.3783C14.4677 20.3723 14.4509 20.3625 14.4365 20.3497C14.3993 20.3218 14.32 20.2786 14.1265 20.1679C14.1001 20.1538 14.0698 20.1489 14.0403 20.1539C14.7125 19.831 15.4839 19.7817 16.1919 20.0164C16.2105 20.0217 16.2285 20.0291 16.2455 20.0385C16.2229 20.041 16.2012 20.049 16.1825 20.0619C16.067 20.1369 15.9572 20.2202 15.8539 20.3113C15.8436 20.3265 15.8299 20.339 15.8139 20.3479C15.7979 20.3568 15.7801 20.3619 15.7618 20.3626C15.6821 20.3536 15.6019 20.3489 15.5217 20.3486H15.3329L15.7991 20.485C15.8391 20.5006 15.8736 20.5278 15.8981 20.563L16.2396 21.0852C16.2525 21.1048 16.2697 21.1211 16.2899 21.1328C16.3102 21.1445 16.3329 21.1514 16.3562 21.1528L16.9961 21.1726C17.0435 21.1754 17.0886 21.1938 17.1243 21.2251L17.1686 21.2624L17.4297 21.5071C17.4127 21.4689 17.3924 21.4323 17.3691 21.3976C17.3292 21.3315 17.2852 21.2681 17.2374 21.2076V21.2006L17.2257 21.1866C17.2171 21.17 17.2126 21.1517 17.2126 21.133C17.2126 21.1143 17.2171 21.0959 17.2257 21.0794C17.2467 20.9521 17.2599 20.8236 17.2653 20.6947C17.2653 20.6947 17.2653 20.6866 17.2653 20.6819C17.3096 20.7251 17.3492 20.7658 17.3819 20.7985C17.7504 21.2618 17.9597 21.8316 17.9786 22.4233L17.9647 22.4396C17.9306 21.9843 17.7814 21.5451 17.5311 21.1633C17.5272 21.1569 17.5225 21.151 17.5171 21.1458L17.46 21.0526L17.5765 21.3195C17.7302 21.7142 17.823 22.13 17.8516 22.5526C17.819 22.5864 17.7875 22.6202 17.7537 22.6529C17.7537 22.6389 17.7537 22.6249 17.7455 22.6097L17.6919 22.3172L17.6791 22.6249C17.6791 22.6587 17.6791 22.696 17.6709 22.7345C16.7954 23.5896 15.8555 24.3763 14.8596 25.0877V25.7614C18.0159 23.4501 20.3552 20.6796 21.818 17.5233C21.8506 17.451 21.8832 17.3799 21.9147 17.3088L21.5347 17.4114Z" fill="#858486"/>
<path d="M15.2201 23.9456C15.2422 24.047 15.2492 24.0959 15.3576 24.6076C15.3658 24.6426 15.3576 24.582 15.3576 24.5458C15.3576 24.026 15.3576 24.033 15.3576 23.9362C15.3582 23.9161 15.363 23.8963 15.3719 23.8782C15.3807 23.8601 15.3934 23.8442 15.4089 23.8313L16.2178 23.2194C16.2525 23.1978 16.2942 23.1902 16.3343 23.1985C16.513 23.2358 16.6897 23.2825 16.8635 23.3383C16.8985 23.3488 16.9567 23.371 16.9253 23.3535L16.381 23.0667C16.3457 23.0447 16.3184 23.012 16.3029 22.9735C16.2714 22.8791 16.1863 22.6297 15.9532 21.956C15.959 21.9334 15.9672 21.9115 15.9777 21.8907L16.029 21.7742C16.0581 21.7042 16.0872 21.6343 16.1152 21.569L16.2749 21.196L16.0418 21.5457L15.9194 21.7205L15.8518 21.8173C15.8392 21.8329 15.8235 21.8458 15.8056 21.855C15.7877 21.8643 15.7681 21.8697 15.7481 21.8709L14.7166 21.8791C14.6755 21.8775 14.6365 21.8609 14.607 21.8324L14.5452 21.766L14.1606 21.3278L14.1956 21.3872V21.3977L14.3937 21.7066L14.4811 21.8499L14.5114 21.9C14.53 21.9359 14.5349 21.9773 14.5254 22.0166C14.4683 22.2101 14.2923 22.7963 14.2364 23.0073C14.2298 23.0262 14.2192 23.0435 14.2053 23.058C14.1914 23.0725 14.1746 23.0838 14.1559 23.0912C13.9217 23.156 13.6919 23.2362 13.4683 23.3313L14.1956 23.2392C14.2365 23.2366 14.2772 23.2468 14.3121 23.2684L15.1501 23.8512C15.1832 23.8741 15.2078 23.9073 15.2201 23.9456Z" fill="#858486"/>
<path d="M12.8782 22.6657C12.8782 22.6447 12.8782 22.6249 12.8782 22.6051C12.8782 22.3207 12.8782 22.2076 12.8782 22.2076C12.8782 22.2076 12.8152 22.4687 12.7908 22.6179C12.7881 22.6399 12.7798 22.6609 12.7668 22.6789C12.7537 22.6968 12.7363 22.7111 12.7162 22.7205C12.6742 22.7473 12.5996 22.8079 12.4108 22.9536C12.3899 22.9717 12.3749 22.9957 12.3677 23.0224C12.6637 23.3021 12.9707 23.5768 13.2885 23.8464C13.3129 23.745 13.3479 23.6051 13.3969 23.4093C13.4027 23.3862 13.4028 23.362 13.3971 23.3388C13.3914 23.3156 13.3801 23.2942 13.3642 23.2764C12.9097 22.7648 12.8782 22.7473 12.8782 22.6657Z" fill="#858486"/>
<path d="M9.06087 19.7018L8.74268 19.9757C10.1973 22.47 12.2533 24.6985 14.8595 26.6111V25.7871C12.399 24.0155 10.4549 21.9746 9.06087 19.7018Z" fill="#858486"/>
<path d="M9.55769 8.63618C9.46795 8.55575 9.26048 8.63618 9.09147 8.82266C8.92247 9.00915 8.85837 9.22011 8.95161 9.3017C9.04485 9.38329 9.24766 9.3017 9.41783 9.11638C9.588 8.93106 9.64627 8.71776 9.55769 8.63618Z" fill="#FCBC00"/>
<path d="M8.55507 6.67578C7.73523 6.82525 6.92733 7.03405 6.13773 7.30051C6.11675 7.84949 6.09111 8.69917 6.09111 9.57333C6.07873 10.3862 6.11766 11.199 6.20766 12.007L6.25078 12.3462C6.28109 12.5886 6.31839 12.8905 6.36734 13.2413C6.46641 13.1725 6.56665 13.1061 6.66688 13.0443C6.70069 13.0233 6.73565 13.0047 6.76945 12.9849C6.68903 12.5303 6.63775 12.1469 6.59928 11.8543L6.55266 11.5175C6.47381 10.8514 6.43721 10.1811 6.4431 9.51039C6.4431 8.83554 6.45942 7.88678 6.47224 7.48117C7.20281 7.27486 7.94451 7.11025 8.69377 6.98815C8.01252 8.42759 7.6054 9.98135 7.49326 11.5699C7.73139 10.0413 8.22802 8.56448 8.96185 7.20261C8.96185 7.20261 9.03178 7.07906 9.04693 7.05225C8.8662 6.95035 8.70064 6.82362 8.55507 6.67578ZM6.4431 9.65841C6.44367 9.65494 6.44367 9.6514 6.4431 9.64792C6.44367 9.6514 6.44367 9.65494 6.4431 9.65841Z" fill="#FCBC00"/>
<path d="M9.84756 9.36935C9.67622 9.28659 9.39999 9.50455 9.22865 9.85655C9.05732 10.2085 9.05848 10.5559 9.22865 10.6433C9.39882 10.7307 9.67972 10.5116 9.84756 10.1596C10.0154 9.80759 10.0212 9.4556 9.84756 9.36935Z" fill="#FCBC00"/>
<path d="M15.2093 6.43795L14.9633 6.30042C13.8886 6.83646 12.8568 7.45447 11.877 8.14897C12.927 7.46748 14.0435 6.89421 15.2093 6.43795Z" fill="#FCBC00"/>
<path d="M9.92087 6.59184C10.0095 6.62215 10.1015 6.64895 10.1924 6.6711C9.61783 6.05686 9.48379 5.54984 9.46514 5.25496V5.20484L9.03855 5.13141C9.18466 5.06853 9.335 5.01595 9.48845 4.97406C9.74436 4.9018 10.0074 4.85764 10.2729 4.84236H10.2869H10.4034H10.4885C10.6552 4.84462 10.8212 4.86415 10.9838 4.90063C11.0879 4.92185 11.1889 4.95591 11.2846 5.00204C11.8136 5.22519 12.2372 5.64218 12.4688 6.16758C12.3109 6.07073 12.1305 6.01689 11.9454 6.0114C12.0515 6.26665 12.2252 6.776 12.1494 7.2259C13.1809 6.58019 14.4805 5.76314 16.6787 5.2165C15.8338 5.36762 14.9813 5.47306 14.125 5.53236L15.5458 5.01136C14.6134 4.91812 12.2042 5.33305 12.2042 5.33305C15.9456 4.05911 18.5401 4.22229 18.5401 4.22229C17.9293 4.35632 16.5587 4.88198 16.5587 4.88198C19.1427 4.64888 20.4411 3.85514 21.1451 4.19664C20.863 3.74558 19.9038 3.63019 19.9038 3.63019L20.1369 3.35862C20.1369 3.35862 17.807 2.95883 14.5096 3.42505C14.5096 3.474 14.4257 3.52529 14.322 3.54161C14.2182 3.55792 14.1157 3.54161 14.104 3.48683C13.7652 3.54044 13.4179 3.60455 13.062 3.67914C13.0504 3.7957 12.8709 3.9344 12.6249 4.00083C12.3557 4.0731 12.1098 4.0323 12.069 3.91108C11.872 3.96237 11.6715 4.01598 11.471 4.07426C11.5913 4.17466 11.6958 4.29252 11.7811 4.42393C11.845 4.39391 11.9123 4.3716 11.9816 4.35749C12.2345 4.28872 12.4641 4.32835 12.4956 4.4449C12.527 4.56146 12.3475 4.70715 12.0958 4.77359C12.0538 4.78408 12.013 4.79107 11.9734 4.7969C11.9559 4.76893 11.9361 4.74095 11.9163 4.71415C11.8965 4.68734 11.8941 4.68617 11.8836 4.67219C11.858 4.63955 11.8312 4.60692 11.8044 4.57661L11.7601 4.53116C11.7438 4.51367 11.7275 4.49619 11.71 4.47987C11.464 4.25072 11.1634 4.08823 10.837 4.00783C10.6527 3.96165 10.4628 3.94125 10.2729 3.94722C8.44878 3.94838 8.1236 6.12912 9.92087 6.59184ZM13.4362 3.86446C13.597 3.82134 13.7439 3.84581 13.7637 3.92041C13.7835 3.995 13.6693 4.09058 13.5084 4.13254C13.3476 4.1745 13.2007 4.15119 13.1809 4.07659C13.1611 4.002 13.2753 3.90759 13.4362 3.86446Z" fill="#FCBC00"/>
<path d="M10.5308 7.89139C10.4958 7.81563 10.3397 7.81213 10.1811 7.89139C10.0226 7.97065 9.92939 8.07904 9.96435 8.1548C9.99932 8.23056 10.1555 8.2329 10.314 8.16063C10.4725 8.08837 10.5658 7.97065 10.5308 7.89139Z" fill="#FCBC00"/>
<path d="M17.0369 10.1397C16.9226 10.2152 16.8304 10.3198 16.77 10.4428C16.7675 10.4472 16.7656 10.4519 16.7641 10.4567C16.7293 10.5297 16.7099 10.6091 16.707 10.6899C16.3329 9.89962 16.6861 8.64316 16.9716 7.87739L17.2595 7.22119C16.833 7.38999 16.4203 7.59185 16.0252 7.82494C16.01 7.83777 15.9972 7.85292 15.9832 7.86574C16.4494 7.70606 16.7502 7.63263 16.7502 7.63263L15.51 8.40422C15.4646 8.466 15.4214 8.52777 15.3771 8.59187C15.8053 8.4183 16.2445 8.27345 16.6919 8.15829L14.9937 9.21777C14.6347 9.87514 14.4109 10.5162 14.4377 10.8052H14.454L14.4808 10.7971C14.6324 10.7563 15.165 10.6421 15.566 10.9136C15.5962 10.9359 15.6246 10.9605 15.651 10.9871C15.8201 11.1596 16.5007 11.7587 17.2677 11.1572C19.3971 9.74576 20.6116 9.94507 20.6116 9.94507C20.733 9.70863 20.76 9.43495 20.6874 9.17931C20.3529 8.27718 17.7805 9.56277 17.0369 10.1397Z" fill="#FCBC00"/>
<path d="M10.2767 8.62806C10.1683 8.74462 10.1263 8.88915 10.1858 8.94276C10.2452 8.99638 10.3804 8.94276 10.49 8.82038C10.5995 8.698 10.6403 8.5593 10.5809 8.50568C10.5215 8.45207 10.3863 8.50685 10.2767 8.62806Z" fill="#FCBC00"/>
<path d="M23.6361 8.72482C23.6361 7.85999 23.6105 7.85183 23.5895 7.30052C22.9332 7.07694 22.2632 6.8959 21.5836 6.75854C21.5728 6.78282 21.5635 6.80774 21.5556 6.83314L21.4799 7.05576C21.3828 7.34067 21.2684 7.61937 21.1372 7.89029C21.255 8.1281 21.3031 8.39439 21.2759 8.65839C21.4623 8.94603 21.569 9.27798 21.5852 9.62034C21.6014 9.96271 21.5264 10.3032 21.368 10.6072C21.368 10.6072 22.0498 9.62695 21.4915 8.62575C21.5249 8.38684 21.5139 8.14382 21.4589 7.90894C21.4589 7.90894 21.7701 7.35181 21.8377 7.16649L21.8505 7.13968C22.4111 7.25623 22.8785 7.37279 23.2492 7.48118C23.2655 7.98004 23.2795 8.59545 23.2795 9.21668C23.2933 9.9813 23.2567 10.746 23.1699 11.5058L23.1629 11.5594L23.4776 11.4767L23.5755 11.451C23.6128 10.9592 23.6315 10.3309 23.6315 9.57334C23.6315 9.42881 23.6315 9.28428 23.6315 9.14092C23.6315 8.99756 23.6361 8.86818 23.6361 8.72482Z" fill="#FCBC00"/>
<path d="M15.7199 6.72595C14.6453 7.22364 13.235 8.03603 11.4004 9.3461C11.4004 9.3461 13.6697 7.76562 16.2549 6.96256C16.0685 6.90331 15.8891 6.82398 15.7199 6.72595Z" fill="#FCBC00"/>
<path d="M11.1404 7.68865C11.0238 7.7411 10.9574 7.82735 10.983 7.88214C11.0087 7.93692 11.1205 7.93925 11.2324 7.88214C11.3443 7.82502 11.4154 7.74343 11.3898 7.68865C11.3641 7.63387 11.2523 7.6362 11.1404 7.68865Z" fill="#FCBC00"/>
<path d="M11.8533 14.4976C11.8239 14.5009 11.7942 14.5009 11.7648 14.4976C11.742 14.4961 11.7199 14.4889 11.7007 14.4766C11.6844 14.4651 11.6721 14.4488 11.6657 14.43C11.6596 14.4063 11.6596 14.3814 11.6657 14.3577C11.6712 14.317 11.6838 14.2775 11.703 14.2411C11.7233 14.2053 11.7484 14.1723 11.7776 14.1432C11.8093 14.1128 11.8445 14.0862 11.8825 14.064C11.923 14.0398 11.966 14.0199 12.0107 14.0045L12.0235 13.9614L12.1552 13.9276L12.1412 13.9707C12.171 13.9669 12.2012 13.9669 12.231 13.9707C12.2532 13.9731 12.2747 13.9802 12.2939 13.9917C12.3109 14.0027 12.3236 14.0192 12.33 14.0383C12.3356 14.0625 12.3356 14.0876 12.33 14.1118C12.3246 14.1527 12.3116 14.1922 12.2916 14.2283C12.272 14.2646 12.2468 14.2977 12.217 14.3262C12.186 14.357 12.1511 14.3836 12.1133 14.4055C12.0726 14.4295 12.0296 14.4494 11.985 14.4649L11.9722 14.5092L11.8405 14.5442L11.8533 14.4976ZM11.7974 14.3087C11.7943 14.3214 11.7943 14.3346 11.7974 14.3472C11.8009 14.3568 11.8074 14.365 11.816 14.3705C11.8254 14.3768 11.8363 14.3804 11.8475 14.381C11.861 14.3834 11.8748 14.3834 11.8883 14.381L11.9676 14.1258C11.9461 14.134 11.9254 14.1441 11.9058 14.1561C11.8679 14.1768 11.8368 14.2079 11.816 14.2458C11.8056 14.2666 11.7993 14.2891 11.7974 14.3122V14.3087ZM12.1925 14.1642C12.1962 14.1517 12.1962 14.1383 12.1925 14.1258C12.1898 14.1161 12.1835 14.1078 12.175 14.1024C12.166 14.0964 12.1556 14.0928 12.1447 14.092C12.1308 14.0896 12.1167 14.0896 12.1028 14.092L12.0235 14.346C12.0449 14.3382 12.0656 14.3285 12.0853 14.3169C12.1038 14.3057 12.121 14.2924 12.1366 14.2773C12.1516 14.2624 12.1645 14.2455 12.175 14.2272C12.1842 14.2085 12.1902 14.1884 12.1925 14.1677V14.1642Z" fill="white"/>
<path d="M12.4652 14.2865H12.4769H12.4851C12.4936 14.2844 12.5018 14.2813 12.5095 14.2772C12.5172 14.2718 12.5239 14.2651 12.5293 14.2574L12.5795 14.1863L12.5119 13.8448L12.6576 13.8063L12.6948 14.0266L12.8895 13.7445L13.0352 13.7061L12.6447 14.2644C12.633 14.2815 12.6193 14.2971 12.6039 14.311C12.5902 14.325 12.5749 14.3375 12.5585 14.3483C12.5429 14.3585 12.5266 14.3675 12.5095 14.3751C12.4942 14.3824 12.4782 14.3883 12.4617 14.3926H12.4326H12.4116L12.4652 14.2865Z" fill="white"/>
<path d="M13.3196 13.7329L13.1611 13.7749L13.1961 13.6583L13.6448 13.5417L13.6099 13.6583L13.4514 13.7003L13.308 14.1595L13.1763 14.1945L13.3196 13.7329Z" fill="white"/>
<path d="M14.019 13.6338C14.0424 13.6268 14.0669 13.6241 14.0913 13.6257C14.1088 13.6263 14.1258 13.6319 14.1402 13.642C14.1527 13.652 14.162 13.6653 14.167 13.6804C14.1706 13.6989 14.1706 13.7179 14.167 13.7364C14.1639 13.7569 14.158 13.7769 14.1495 13.7958C14.1411 13.8156 14.1305 13.8343 14.1181 13.8518C14.1046 13.8696 14.0898 13.8863 14.0738 13.9019C14.0567 13.9173 14.0388 13.9317 14.0202 13.945C14.0014 13.957 13.9819 13.9679 13.9619 13.9777C13.9421 13.9875 13.9214 13.9953 13.9001 14.001L13.667 14.0616L13.8453 13.4858L14.2323 13.3844L14.1962 13.501L13.9491 13.5651L13.9199 13.6583L14.019 13.6338ZM13.8849 13.7749L13.8418 13.9147L13.9351 13.8902C13.9467 13.8866 13.958 13.8819 13.9689 13.8763C13.9793 13.8698 13.989 13.8624 13.998 13.8541C14.0068 13.8452 14.0146 13.8355 14.0213 13.825C14.0269 13.8144 14.0309 13.803 14.033 13.7912C14.0355 13.784 14.0355 13.7762 14.033 13.769C14.0309 13.7635 14.0272 13.7586 14.0225 13.755C14.0164 13.7536 14.01 13.7536 14.0038 13.755H13.9805L13.8849 13.7749Z" fill="white"/>
<path d="M14.3407 13.6595C14.3455 13.629 14.3541 13.5992 14.3664 13.5709C14.3803 13.5399 14.3971 13.5103 14.4165 13.4823C14.4374 13.4535 14.4604 13.4263 14.4853 13.4007C14.511 13.3757 14.5387 13.3527 14.568 13.332C14.5969 13.3111 14.6273 13.2924 14.6589 13.276C14.6892 13.261 14.7208 13.2489 14.7533 13.2399C14.7871 13.2305 14.8223 13.2278 14.8571 13.2317C14.8847 13.2343 14.911 13.2448 14.9328 13.262C14.9536 13.2784 14.9687 13.3008 14.976 13.3261C14.9838 13.3563 14.9838 13.388 14.976 13.4182C14.9718 13.4488 14.9631 13.4787 14.9503 13.5068C14.9364 13.5378 14.9196 13.5675 14.9002 13.5954C14.8793 13.6246 14.8563 13.6522 14.8314 13.6781C14.8052 13.7034 14.7776 13.7271 14.7487 13.7492C14.72 13.7705 14.6896 13.7892 14.6578 13.8052C14.6278 13.8207 14.5961 13.8329 14.5634 13.8413C14.5298 13.8516 14.4945 13.8548 14.4596 13.8506C14.4322 13.8471 14.4062 13.8366 14.3839 13.8203C14.3636 13.8036 14.3486 13.7813 14.3407 13.7562C14.3324 13.7245 14.3324 13.6912 14.3407 13.6595ZM14.4759 13.614C14.4717 13.6324 14.4717 13.6516 14.4759 13.67C14.4797 13.6852 14.4878 13.6989 14.4992 13.7096C14.5116 13.7197 14.5265 13.7262 14.5424 13.7283C14.5616 13.7321 14.5814 13.7321 14.6006 13.7283C14.6202 13.7234 14.639 13.716 14.6566 13.7061C14.6756 13.6968 14.6936 13.6855 14.7102 13.6723C14.7275 13.6595 14.7435 13.6451 14.758 13.6292C14.7732 13.6134 14.7869 13.5963 14.7988 13.5779C14.8109 13.5612 14.821 13.5432 14.8291 13.5243C14.8368 13.5057 14.8419 13.486 14.8442 13.466C14.8484 13.4476 14.8484 13.4285 14.8442 13.4101C14.8401 13.3951 14.832 13.3814 14.8209 13.3704C14.8086 13.3603 14.7936 13.3539 14.7778 13.3518C14.7582 13.3473 14.7379 13.3473 14.7184 13.3518C14.6894 13.3598 14.6618 13.3724 14.6368 13.3891C14.6094 13.4064 14.5843 13.4271 14.5622 13.4509C14.5399 13.4739 14.5207 13.4997 14.5051 13.5278C14.49 13.5544 14.4801 13.5837 14.4759 13.614Z" fill="white"/>
<path d="M15.6427 13.121L15.4095 13.1816L15.3443 13.3949V13.4066L15.3163 13.4963C15.3075 13.5238 15.2946 13.5497 15.2778 13.5732C15.2628 13.5954 15.2447 13.6154 15.2242 13.6327C15.1874 13.664 15.144 13.6867 15.0972 13.6991C15.0875 13.7001 15.0777 13.7001 15.068 13.6991H15.0459L15.103 13.5826H15.1287C15.1421 13.5791 15.1542 13.5718 15.1636 13.5616C15.1735 13.5495 15.181 13.5357 15.1858 13.5208L15.2149 13.4252L15.3175 13.0977L15.8117 12.9672L15.6333 13.5429L15.5016 13.5767L15.6427 13.121Z" fill="white"/>
<path d="M16.2496 13.0161C16.2723 13.0093 16.296 13.007 16.3196 13.0091C16.3372 13.0109 16.3541 13.0174 16.3685 13.0277C16.3814 13.0385 16.3911 13.0526 16.3965 13.0685C16.4007 13.0889 16.4007 13.1099 16.3965 13.1303C16.3913 13.1629 16.3807 13.1944 16.365 13.2235C16.348 13.2542 16.3268 13.2825 16.3021 13.3074C16.2773 13.3333 16.249 13.3557 16.2182 13.3739C16.1883 13.3928 16.1557 13.407 16.1214 13.4158L15.8755 13.4811L16.055 12.9053L16.1879 12.8704L16.1412 13.0464L16.2496 13.0161ZM16.2065 13.1326L16.0993 13.1606L16.0468 13.3319L16.1541 13.3039C16.167 13.3003 16.1792 13.2943 16.1902 13.2865C16.2025 13.2784 16.2138 13.269 16.224 13.2585C16.2339 13.2475 16.2425 13.2354 16.2496 13.2224C16.2553 13.2104 16.2596 13.1979 16.2625 13.1851C16.2642 13.1766 16.2642 13.1679 16.2625 13.1594C16.2604 13.1529 16.2568 13.1469 16.252 13.1419C16.2468 13.137 16.2403 13.1337 16.2333 13.1326C16.2244 13.1312 16.2153 13.1316 16.2065 13.1338V13.1326Z" fill="white"/>
<path d="M16.6727 12.7492L16.8044 12.7143L16.7309 12.9474L16.9792 12.8821L17.0526 12.649L17.1855 12.614L17.006 13.1886L16.8731 13.2248L16.9442 12.9917L16.696 13.0569L16.626 13.2842L16.4932 13.3192L16.6727 12.7492Z" fill="white"/>
<path d="M17.6287 12.6547C17.651 12.6481 17.6743 12.6457 17.6975 12.6477C17.7157 12.6489 17.7331 12.6554 17.7476 12.6664C17.761 12.6765 17.7705 12.6909 17.7744 12.7072C17.7793 12.7271 17.7793 12.7479 17.7744 12.7678C17.7695 12.8007 17.7585 12.8323 17.7418 12.861C17.7075 12.9233 17.6572 12.9752 17.5961 13.0114C17.5664 13.0306 17.5337 13.0448 17.4993 13.0534L17.2534 13.1186L17.4329 12.5429L17.5646 12.5079L17.5098 12.685L17.6287 12.6547ZM17.5856 12.7713L17.4784 12.7993L17.4236 12.9683L17.532 12.9403C17.5448 12.9362 17.5569 12.9303 17.5681 12.9228C17.5925 12.9066 17.6125 12.8845 17.6264 12.8587C17.6334 12.8474 17.6378 12.8347 17.6392 12.8214C17.641 12.813 17.641 12.8042 17.6392 12.7958C17.6371 12.7892 17.6335 12.7832 17.6287 12.7783C17.6234 12.7736 17.617 12.7704 17.6101 12.769C17.6018 12.7682 17.5935 12.769 17.5856 12.7713ZM17.7593 12.9823L17.8921 12.9473L18.0705 12.3727L17.9376 12.4076L17.7593 12.9823Z" fill="white"/>
<path d="M18.3325 12.3063L18.4642 12.2725L18.357 12.6222L18.7358 12.2061L18.8523 12.1758L18.6717 12.7492L18.54 12.7842L18.6472 12.4345L18.2684 12.8506L18.1519 12.8809L18.3325 12.3063ZM18.7987 12.0079C18.7915 12.0265 18.7821 12.0441 18.7708 12.0604C18.7592 12.0776 18.7459 12.0936 18.7311 12.1082C18.7155 12.1225 18.6983 12.1351 18.6798 12.1455C18.6599 12.156 18.6388 12.1642 18.6169 12.1699C18.5984 12.1737 18.5794 12.1737 18.561 12.1699C18.548 12.1697 18.5356 12.1647 18.526 12.156C18.5171 12.1473 18.5117 12.1357 18.5108 12.1233C18.5077 12.1079 18.5077 12.0921 18.5108 12.0767L18.5994 12.0476C18.5992 12.0526 18.5992 12.0577 18.5994 12.0627C18.5986 12.0662 18.5986 12.0698 18.5994 12.0732C18.6033 12.0741 18.6072 12.0741 18.6111 12.0732H18.6321C18.6398 12.0716 18.6473 12.0688 18.6542 12.065L18.6717 12.0534L18.6857 12.0371L18.6997 12.0184L18.7987 12.0079Z" fill="white"/>
<path d="M19.469 12.2713L19.7779 11.9217L19.9329 11.8809L19.6532 12.1897L19.7627 12.4531L19.6054 12.4951L19.5366 12.3109L19.4131 12.4473L19.3804 12.5545L19.2476 12.5895L19.4259 12.0149L19.5588 11.9799L19.469 12.2713Z" fill="white"/>
<path d="M20.4913 11.8436L20.2582 11.9042L20.1917 12.1163V12.1292L20.1638 12.2177C20.1559 12.2457 20.1433 12.2721 20.1265 12.2958C20.1104 12.3175 20.092 12.3375 20.0717 12.3553C20.0522 12.3714 20.0311 12.3854 20.0088 12.3972C19.9884 12.407 19.9674 12.4152 19.9458 12.4217H19.9167H19.8945L19.9516 12.3052H19.9633H19.9715H19.9773C19.9901 12.3016 20.0017 12.2948 20.0111 12.2853C20.0214 12.2736 20.029 12.2596 20.0332 12.2446L20.0635 12.149L20.1649 11.8215L20.6591 11.6909L20.4808 12.2655L20.3491 12.3005L20.4913 11.8436Z" fill="white"/>
<path d="M20.8037 12.0883H20.8153H20.8235L20.848 12.0778C20.8556 12.0728 20.8624 12.0665 20.8678 12.0591L20.9179 11.988L20.8503 11.6453L20.996 11.608L21.0333 11.8272L21.2279 11.5463L21.3736 11.5078L20.975 12.0743C20.9627 12.0909 20.949 12.1065 20.9342 12.1209C20.919 12.1349 20.9039 12.1465 20.8887 12.1582C20.8729 12.168 20.8566 12.177 20.8398 12.185L20.792 12.2025H20.7629H20.7407L20.8037 12.0883Z" fill="white"/>
<path d="M21.7363 11.5988C21.7598 11.5924 21.7842 11.5897 21.8085 11.5906C21.8261 11.5919 21.843 11.598 21.8575 11.6081C21.8706 11.6175 21.8801 11.6311 21.8843 11.6466C21.8887 11.6646 21.8887 11.6834 21.8843 11.7014C21.8819 11.722 21.876 11.7421 21.8668 11.7608C21.8586 11.7807 21.8481 11.7994 21.8353 11.8167C21.8222 11.8348 21.8073 11.8516 21.7911 11.8669C21.7745 11.8828 21.7566 11.8973 21.7374 11.91C21.7191 11.9231 21.6996 11.9344 21.6792 11.9438C21.6592 11.9529 21.6386 11.9603 21.6174 11.9659L21.3843 12.0265L21.5638 11.4519L21.9496 11.3494L21.9146 11.4659L21.6605 11.5324L21.6314 11.6268L21.7363 11.5988ZM21.6022 11.7398L21.5603 11.8762L21.6524 11.8517C21.6641 11.8483 21.6754 11.8436 21.6862 11.8377C21.6972 11.8318 21.7074 11.8243 21.7165 11.8156C21.7248 11.8066 21.7322 11.7968 21.7386 11.7864C21.7447 11.7761 21.7487 11.7646 21.7503 11.7526C21.7521 11.7454 21.7521 11.7378 21.7503 11.7305C21.748 11.725 21.7439 11.7205 21.7386 11.7177C21.7333 11.7143 21.7273 11.7123 21.7211 11.7118C21.713 11.7107 21.7048 11.7107 21.6966 11.7118L21.6022 11.7398Z" fill="white"/>
<path d="M16.724 6.37961L16.6751 6.35164C17.5675 6.04145 18.5067 5.88729 19.4514 5.89591C19.4514 5.89591 17.7416 5.4868 16.2252 6.10571L15.9501 5.95302C16.544 5.67919 17.1708 5.48331 17.815 5.37025C18.295 5.29298 18.7846 5.29889 19.2626 5.38773C19.0849 5.27161 18.8987 5.16913 18.7055 5.08119C19.6542 4.90753 20.4794 4.96464 20.4678 5.67329C20.4678 5.67329 20.371 6.31201 19.7976 6.43323C19.406 6.51598 18.7486 6.45421 18.1553 6.53929C17.8756 6.57892 17.3558 6.77706 16.724 6.37961ZM21.054 5.16395C20.9072 5.36908 20.8734 5.75488 20.8 6.0078C20.582 6.7689 21.3233 6.28287 21.3268 5.46233C21.3326 5.28982 21.0587 5.16395 21.0587 5.16395H21.054ZM20.4596 8.38668C20.456 8.35454 20.4505 8.32263 20.4433 8.29111C20.444 8.28608 20.444 8.28098 20.4433 8.27595C20.4379 8.2472 20.4309 8.21923 20.4223 8.19203C20.3933 8.28078 20.3487 8.36366 20.2906 8.4368L20.2708 8.46011H20.2417C20.0092 8.42419 19.7721 8.4317 19.5423 8.48226C19.4628 8.50118 19.3876 8.53521 19.3209 8.58249L19.1122 8.80278L19.1391 8.63145C19.1391 8.61396 19.146 8.59648 19.1495 8.579L19.1565 8.53121C19.178 8.39904 19.168 8.26368 19.1274 8.13609C19.1111 8.18851 19.0917 8.23989 19.0691 8.28994C19.0615 8.30863 19.053 8.32692 19.0435 8.34472C19.0283 8.37736 19.012 8.40883 18.9945 8.4403L18.9584 8.50207L18.9071 8.58016C18.892 8.60114 18.878 8.62329 18.8628 8.6431C18.8477 8.66292 18.829 8.68506 18.8127 8.70604C18.7375 8.79849 18.6557 8.88535 18.5679 8.96596L18.5493 8.98344C18.5178 9.01141 18.4863 9.03939 18.4537 9.06619C18.3838 9.12447 18.3127 9.18275 18.2416 9.23054C18.6862 9.0052 19.149 8.81766 19.6251 8.66991C19.9433 8.60347 20.223 8.59531 20.4142 8.6769H20.4223C20.4359 8.65029 20.446 8.6221 20.4526 8.59298C20.4682 8.52657 20.4722 8.45794 20.4643 8.39018L20.4596 8.38668ZM20.5167 6.40525C20.3956 6.57013 20.2378 6.70453 20.0557 6.7978C19.8736 6.89106 19.6723 6.94063 19.4677 6.94257C18.8477 6.91926 18.2929 6.82601 17.5248 7.12206C19.2906 6.98453 18.7906 8.27013 18.7906 8.27013C18.9418 8.12392 19.0706 7.95622 19.1729 7.77244C19.2979 7.54433 19.4005 7.30467 19.4794 7.05679C19.4948 7.2602 19.4779 7.46476 19.4293 7.66288L20.188 7.51951C20.188 7.51951 20.2405 7.51019 20.3571 7.38897C20.2929 7.51485 20.2323 7.6081 20.2323 7.6081L20.202 7.95077C20.4573 7.6757 20.7545 6.80503 20.7545 6.80503C20.2988 6.85632 20.5703 6.34697 20.5214 6.40875L20.5167 6.40525ZM16.1273 4.6546C15.9072 4.65217 15.6872 4.66424 15.4688 4.69073C15.4707 4.71632 15.475 4.74168 15.4816 4.76649C15.5043 4.84817 15.5467 4.92301 15.6051 4.98445C15.7706 4.95531 15.9396 4.932 16.1028 4.91335C16.1191 4.82915 16.1288 4.74381 16.1319 4.6581L16.1273 4.6546ZM16.5107 4.69306C16.4596 4.68202 16.4078 4.67424 16.3557 4.66975C16.3261 4.74825 16.2903 4.82426 16.2485 4.89704L16.4513 4.87839C16.4839 4.82234 16.5056 4.76066 16.5154 4.69656L16.5107 4.69306Z" fill="white"/>
<path d="M18.4808 8.72344C18.4846 8.71967 18.4877 8.71535 18.4901 8.71061C16.7744 8.35046 16.7208 9.50319 16.8852 9.73863C16.9008 9.7674 16.9196 9.79436 16.9411 9.81905C17.2017 9.64449 17.4743 9.48869 17.757 9.35283C17.8188 9.31204 18.4657 8.74442 18.4808 8.72344Z" fill="#E30613"/>
</svg>
