<svg width="30" height="30" viewBox="0 0 30 30" fill="none" xmlns="http://www.w3.org/2000/svg">
<path fill-rule="evenodd" clip-rule="evenodd" d="M13.5314 5.14282L13.1785 5.86172L12.3895 5.9777L12.9604 6.53713L12.8262 7.32562L13.5314 6.93596L14.2366 7.32578L14.1024 6.53713L14.6734 5.9777L13.8842 5.86172L13.5314 5.14282ZM10.6932 5.14282L10.3401 5.86172L9.55127 5.9777L10.1223 6.53713L9.98812 7.32562L10.6932 6.93596L11.3984 7.32578L11.264 6.53713L11.8352 5.9777L11.0459 5.86172L10.6932 5.14282ZM16.353 5.14282L15.9999 5.86172L15.211 5.9777L15.782 6.53713L15.6477 7.32562L16.3532 6.93596L17.0579 7.32578L16.9242 6.53713L17.4952 5.9777L16.7061 5.86172L16.353 5.14282ZM19.1908 5.14282L18.8383 5.86172L18.0492 5.9777L18.6204 6.53713L18.4861 7.32562L19.1916 6.93596L19.8963 7.32578L19.762 6.53713L20.333 5.9777L19.5439 5.86172L19.1908 5.14282Z" fill="#C8A979"/>
<path fill-rule="evenodd" clip-rule="evenodd" d="M14.9998 8.35974L0 16.6565L15.0041 24.9537L30 16.6565L14.9998 8.35974Z" fill="white"/>
<path fill-rule="evenodd" clip-rule="evenodd" d="M15.0037 8.93799L1.0083 16.6771L15.0037 24.4162L28.9913 16.6771L15.0037 8.93799ZM2.87103 16.6771L14.9999 9.96133L27.1551 16.6771L15 23.3933L2.87103 16.6771Z" fill="#D11F3D"/>
<path fill-rule="evenodd" clip-rule="evenodd" d="M16.4186 15.2562C16.2345 15.0684 16.0148 14.9192 15.7724 14.8172C15.5299 14.7153 15.2696 14.6627 15.0066 14.6625H15.0006C13.9011 14.6625 13.0044 15.5631 13.001 16.6703C12.9982 17.7802 13.8926 18.6863 14.9952 18.6893H15.001C16.1002 18.6893 16.9969 17.7886 17.0003 16.6816C17.0019 16.4174 16.9514 16.1555 16.8516 15.9109C16.7519 15.6662 16.6048 15.4437 16.4188 15.2561L16.4186 15.2562ZM14.3938 18.1337C14.3917 18.1333 14.1745 18.0458 14.0021 17.9202C13.8297 17.7944 13.7154 17.6209 13.7146 17.6196L13.7101 17.612C13.6983 17.4682 13.6919 17.276 13.702 17.1331C13.7109 17.0063 13.7208 16.8805 13.7434 16.7449L14.4969 16.3983C14.615 16.4964 14.7458 16.5853 14.8716 16.6798C14.9966 16.7746 15.1213 16.872 15.2479 16.9583L15.1827 17.8216C14.9322 17.9408 14.4766 18.1143 14.3938 18.1337ZM13.5559 15.4882C13.4871 15.6267 13.426 15.769 13.3728 15.9142C13.3316 16.0322 13.2963 16.1521 13.2671 16.2736L13.2656 16.2789C13.2374 16.3127 13.1841 16.3783 13.1484 16.4356C13.1924 16.0871 13.3331 15.7579 13.5546 15.4853L13.5559 15.4882ZM13.295 16.2646C13.3062 16.2182 13.3441 16.0687 13.3963 15.9226C13.4493 15.7779 13.5102 15.6362 13.5788 15.4982C13.6295 15.4601 13.6828 15.4257 13.7382 15.3951C13.8605 15.3247 13.9613 15.2807 14.0878 15.2287C14.1603 15.1985 14.236 15.1644 14.3152 15.1546L14.7857 15.5653C14.7547 15.6196 14.645 15.8836 14.5235 16.2712C14.5124 16.3055 14.5032 16.345 14.4966 16.3706L13.7363 16.7204C13.5936 16.5803 13.3455 16.3119 13.295 16.2646ZM15.2075 17.8233L15.2733 16.9535C15.3172 16.9277 15.4101 16.8699 15.4273 16.8588C15.5522 16.7794 15.6818 16.6911 15.8112 16.6036C15.8323 16.5896 15.9396 16.5123 15.9766 16.4841C15.985 16.4778 15.9979 16.4709 16.0053 16.4632L16.6177 16.8524C16.6311 16.9534 16.6243 17.0637 16.619 17.1761C16.6131 17.2944 16.6009 17.4123 16.5823 17.5292C16.5721 17.5925 16.5631 17.6484 16.5447 17.6979L16.5415 17.7011C16.5399 17.7029 16.3917 17.8649 16.1593 18.0142C15.9982 18.1176 15.8924 18.1661 15.8545 18.1822C15.7208 18.1194 15.5873 18.0495 15.4599 17.9744C15.4333 17.959 15.2585 17.8528 15.2075 17.8233ZM16.0734 15.2457C16.1169 15.2466 16.1443 15.266 16.1789 15.2857C16.2487 15.3244 16.3158 15.3656 16.3808 15.4084C16.6653 15.7223 16.8355 16.123 16.8637 16.5457C16.7952 16.6481 16.7163 16.7431 16.628 16.8292L16.0103 16.4366C16.0082 16.4229 16.0035 16.4066 16.0013 16.3957C15.9971 16.3774 15.9922 16.3592 15.9866 16.3412C15.9104 16.0745 15.836 15.8348 15.7224 15.6101L16.0708 15.2451L16.0734 15.2457ZM15.0059 14.7949C15.2761 14.7954 15.5428 14.8552 15.7873 14.97C15.7973 14.9774 15.8076 14.9838 15.8176 14.9922C15.8709 15.0357 15.9281 15.0884 15.9789 15.1388C16.0098 15.1694 16.0293 15.196 16.0491 15.2314L15.7021 15.5955C15.5246 15.5615 15.3421 15.5468 15.152 15.5423C15.0341 15.5394 14.9304 15.5399 14.8338 15.5494C14.8257 15.5502 14.816 15.5505 14.8075 15.5512L14.3388 15.1415C14.4233 15.0156 14.5341 14.9155 14.6567 14.8273C14.7701 14.8058 14.8852 14.795 15.0006 14.7949H15.0059ZM13.4159 17.6706C13.4616 17.6694 13.5072 17.6652 13.5524 17.6582C13.6054 17.6495 13.6662 17.6397 13.6922 17.6313L13.6938 17.6333C13.706 17.6518 13.8191 17.8171 13.9871 17.9403C14.1542 18.0621 14.361 18.1474 14.3845 18.1573L14.3888 18.1592C14.3969 18.224 14.4335 18.3295 14.4409 18.3528C14.4554 18.3979 14.4728 18.4419 14.4898 18.4849C14.0432 18.3563 13.6603 18.066 13.4159 17.6706ZM15.7633 18.3929C15.7972 18.3435 15.8419 18.256 15.8622 18.2064C15.8977 18.1913 16.0063 18.1426 16.1728 18.0352C16.3081 17.9487 16.4332 17.8474 16.5459 17.733C16.3512 18.0212 16.0803 18.2497 15.7633 18.3929Z" fill="#D11F3D"/>
<path fill-rule="evenodd" clip-rule="evenodd" d="M21.898 14.7738L17.5142 17.1972C17.2748 18.3749 16.2402 19.261 14.9999 19.261C13.5824 19.261 12.4336 18.1038 12.4336 16.6763C12.4336 15.2491 13.5825 14.0921 14.9999 14.0921C15.9509 14.0921 16.7805 14.6132 17.2239 15.3872H17.7192V13.2766L18.4534 12.8706L14.9999 10.9697L4.69238 16.6774L8.13015 18.5785L10.4416 17.3002C10.5795 18.1362 11.0004 18.8615 11.6794 19.4232C11.9371 19.6349 12.2195 19.8145 12.5205 19.958L11.5727 20.4818L14.9938 22.383L25.334 16.6749L21.8981 14.7741" fill="#D11F3D"/>
<path fill-rule="evenodd" clip-rule="evenodd" d="M14.6543 13.1564C13.5699 13.1564 12.5643 13.494 11.8229 14.1067C11.0346 14.7588 10.6177 15.647 10.6177 16.6758C10.6177 17.7043 11.0346 18.5927 11.8229 19.2447C12.5642 19.8575 13.5696 20.1951 14.6543 20.1951C15.7685 20.1951 16.8349 19.7682 17.58 19.0244L17.5849 19.0197V18.1426H17.3842C16.878 18.9755 15.9704 19.49 14.9997 19.49C13.459 19.49 12.2054 18.2278 12.2054 16.6763C12.2054 15.1248 13.459 13.8622 14.9997 13.8622C15.9576 13.8622 16.8308 14.3445 17.3487 15.1554H17.4914V13.5335L17.1741 13.7087L17.0936 13.9159L16.9761 13.8389C16.3049 13.3988 15.4804 13.1564 14.6543 13.1564Z" fill="white"/>
</svg>
