<svg width="30" height="30" viewBox="0 0 30 30" fill="none" xmlns="http://www.w3.org/2000/svg">
<path d="M21.5537 0L17.2264 6.49097H12.7583L8.43095 0L2.57129 17.579L14.9923 30L27.4134 17.579L21.5537 0Z" fill="white"/>
<path d="M25.6685 17.1671L21.0931 3.44067L18.0428 8.01614H11.9422L8.89186 3.44067L4.31641 17.1671L7.36671 20.2174V17.1671L8.89184 18.6922V15.6419L10.417 17.1671V23.2677L14.9925 27.8431L19.5679 23.2677V17.1671L21.0931 15.6419V18.6922L22.6182 17.1671V20.2174L25.6685 17.1671Z" fill="#00205B"/>
<path d="M20.5845 11.0664H9.39999L8.8916 12.5916L13.4671 14.1167V23.2676H16.5174V14.1167L21.0928 12.5916L20.5845 11.0664Z" fill="white"/>
</svg>
