<svg width="30" height="30" viewBox="0 0 30 30" fill="none" xmlns="http://www.w3.org/2000/svg">
<path d="M15.004 27.8566C10.8603 27.8566 7.47213 24.5798 7.28125 20.4759V2.14331H22.7188V20.3884C22.7108 24.2378 19.275 27.8566 15.004 27.8566Z" fill="#291342"/>
<path d="M22.2338 20.3884C22.2338 23.9674 19.0127 27.3715 15.0121 27.3715C11.1229 27.3715 7.94953 24.3094 7.7666 20.46V8.72871H22.2338V20.3884ZM7.7666 4.66453V2.61255L22.2338 2.6205V4.66453H7.7666Z" fill="#CADFC9"/>
<path d="M15.0038 14.4471C18.1374 14.4471 20.6746 16.9843 20.6746 20.1179C20.6746 23.2516 18.1374 25.7887 15.0038 25.7887C11.8701 25.7887 9.33301 23.2516 9.33301 20.1179C9.33301 16.9843 11.8701 14.4471 15.0038 14.4471Z" fill="#291342"/>
<path d="M19.7683 17.3184L18.456 19.1477L20.516 20.0941L18.464 21.0167L19.7763 22.8619L17.5414 22.6313L17.7561 24.8821L15.9348 23.5698L14.9883 25.6377L14.0737 23.5777L12.2206 24.9059L12.4512 22.6551L10.1924 22.8778L11.5207 21.0485L9.44482 20.11L11.5048 19.1875L10.1845 17.3423L12.4273 17.5809L12.2047 15.3141L14.0339 16.6424L14.9645 14.5665L15.8871 16.6344L17.7402 15.2982L17.5096 17.5491L19.7683 17.3184Z" fill="#CADFC9"/>
<path d="M14.9723 23.4188C16.804 23.4188 18.2889 21.9339 18.2889 20.1022C18.2889 18.2705 16.804 16.7856 14.9723 16.7856C13.1406 16.7856 11.6558 18.2705 11.6558 20.1022C11.6558 21.9339 13.1406 23.4188 14.9723 23.4188Z" fill="#291342"/>
<path fill-rule="evenodd" clip-rule="evenodd" d="M12.6181 20.1022C12.6181 18.7978 13.6759 17.74 14.9802 17.74C16.2846 17.74 17.3344 18.7978 17.3344 20.1022C17.3344 21.4065 16.2766 22.4643 14.9802 22.4643C13.6679 22.4643 12.6181 21.4065 12.6181 20.1022ZM11.9897 20.1022C11.9897 21.7485 13.3259 23.0847 14.9723 23.0847C16.6186 23.0847 17.9548 21.7485 17.9548 20.1022C17.9548 18.4558 16.6186 17.1196 14.9723 17.1196C13.3259 17.1196 11.9897 18.4558 11.9897 20.1022Z" fill="#CADFC9"/>
<path fill-rule="evenodd" clip-rule="evenodd" d="M13.5487 20.1021C13.5487 19.3147 14.1849 18.6784 14.9723 18.6784C15.7597 18.6784 16.396 19.3147 16.396 20.1021C16.396 20.8895 15.7597 21.5257 14.9723 21.5257C14.1849 21.5257 13.5487 20.8895 13.5487 20.1021ZM12.8965 20.1021C12.8965 21.2474 13.827 22.1779 14.9723 22.1779C16.1176 22.1779 17.0482 21.2474 17.0482 20.1021C17.0482 18.9568 16.1176 18.0262 14.9723 18.0262C13.827 18.0262 12.8965 18.9568 12.8965 20.1021Z" fill="#CADFC9"/>
<path fill-rule="evenodd" clip-rule="evenodd" d="M14.4789 20.1021C14.4789 19.8317 14.7016 19.609 14.972 19.609C15.2424 19.609 15.4651 19.8317 15.4651 20.1021C15.4651 20.3726 15.2424 20.5953 14.972 20.5953C14.7016 20.5953 14.4789 20.3805 14.4789 20.1021ZM13.8506 20.1021C13.8506 20.7225 14.3516 21.2236 14.972 21.2236C15.5924 21.2236 16.0934 20.7225 16.0934 20.1021C16.0934 19.4818 15.5924 18.9807 14.972 18.9807C14.3516 18.9807 13.8506 19.4818 13.8506 20.1021Z" fill="#CADFC9"/>
<path fill-rule="evenodd" clip-rule="evenodd" d="M12.9044 7.24151V6.21552C12.9044 5.30088 12.5306 5.05432 11.7273 5.05432H10.2957C9.40491 5.05432 9.09473 5.32474 9.09473 6.21552V7.24151C9.09473 8.02889 9.42082 8.35498 10.2957 8.35498H11.7273C12.634 8.35498 12.9044 8.05275 12.9044 7.24151ZM12.125 7.15402C12.125 7.59941 12.0136 7.7028 11.5126 7.7028H10.4786C10.0014 7.7028 9.86621 7.5835 9.86621 7.15402V6.2871C9.86621 5.81785 10.0014 5.69855 10.4945 5.69855H11.4967C11.9579 5.69855 12.117 5.80989 12.117 6.27914V7.15402H12.125Z" fill="#CADFC9"/>
<path fill-rule="evenodd" clip-rule="evenodd" d="M16.9205 7.24151V6.21552C16.9205 5.30088 16.5467 5.05432 15.7434 5.05432H14.3118C13.421 5.05432 13.1108 5.32474 13.1108 6.21552V7.24151C13.1108 8.02889 13.4369 8.35498 14.3118 8.35498H15.7434C16.6501 8.35498 16.9205 8.05275 16.9205 7.24151ZM16.1411 7.15402C16.1411 7.59941 16.0297 7.7028 15.5287 7.7028H14.4947C14.0175 7.7028 13.8823 7.5835 13.8823 7.15402V6.2871C13.8823 5.81785 14.0175 5.69855 14.5106 5.69855H15.5128C15.9741 5.69855 16.1411 5.80989 16.1411 6.27914V7.15402Z" fill="#CADFC9"/>
<path fill-rule="evenodd" clip-rule="evenodd" d="M20.9371 7.24151V6.21552C20.9371 5.30088 20.5633 5.05432 19.76 5.05432H18.3284C17.4376 5.05432 17.1274 5.32474 17.1274 6.21552V7.24151C17.1274 8.02889 17.4535 8.35498 18.3284 8.35498H19.76C20.6747 8.35498 20.9371 8.05275 20.9371 7.24151ZM20.1577 7.15402C20.1577 7.59941 20.0463 7.7028 19.5453 7.7028H18.5113C18.0341 7.7028 17.8989 7.5835 17.8989 7.15402V6.2871C17.8989 5.81785 18.0341 5.69855 18.5193 5.69855H19.5214C19.9907 5.69855 20.1497 5.80989 20.1497 6.27914V7.15402H20.1577Z" fill="#CADFC9"/>
<path d="M12.3876 6.43811H9.61182V7.02666H12.3876V6.43811Z" fill="#CADFC9"/>
<path d="M20.4125 6.43811H17.6367V7.02666H20.4125V6.43811Z" fill="#CADFC9"/>
<path d="M15.3303 5.34045H14.7417V8.11619H15.3303V5.34045Z" fill="#CADFC9"/>
<path d="M22.2338 10.7728H7.7666V11.3137H22.2338V10.7728Z" fill="#291342"/>
<path fill-rule="evenodd" clip-rule="evenodd" d="M9.12649 9.91388V9.83434C9.12649 9.66732 9.05491 9.62755 8.91175 9.62755H8.72882V9.57983H8.58566V9.62755H8.40273C8.25957 9.62755 8.18799 9.66732 8.18799 9.83434V9.91388C8.18799 10.065 8.23571 10.1127 8.40273 10.1127H8.58566V10.1684H8.72882V10.1127H8.91175C9.07877 10.1127 9.12649 10.057 9.12649 9.91388ZM8.98333 9.89797C8.98333 9.9775 8.96742 10.0014 8.87198 10.0014H8.72882V9.74686H8.87198C8.95947 9.74686 8.98333 9.76276 8.98333 9.85025V9.89797ZM8.59361 10.0014H8.45045C8.36296 10.0014 8.3391 9.98546 8.3391 9.89797V9.8423C8.3391 9.75481 8.37092 9.7389 8.45045 9.7389H8.59361V10.0014Z" fill="#291342"/>
<path fill-rule="evenodd" clip-rule="evenodd" d="M9.81835 9.57983H9.65132L9.4684 9.91388L9.26956 9.57983H9.10254L9.37295 9.99341C9.38091 10.0014 9.38091 10.0173 9.38091 10.0173C9.38091 10.0332 9.35705 10.057 9.30137 10.057H9.26956V10.1684H9.32523C9.42863 10.1684 9.46044 10.1525 9.53998 10.0252L9.81835 9.57983Z" fill="#291342"/>
<path fill-rule="evenodd" clip-rule="evenodd" d="M10.4707 9.69913V9.57983H9.83447V9.69913H10.081V10.1684H10.2242V9.69913H10.4707Z" fill="#291342"/>
<path fill-rule="evenodd" clip-rule="evenodd" d="M11.1149 9.98546C11.1149 9.83434 11.0433 9.80253 10.9001 9.80253H10.6456V9.69118H11.0592V9.57983H10.5024V10.1684H10.9001C11.0512 10.1684 11.1149 10.1286 11.1149 9.98546ZM10.9796 9.98546C10.9796 10.0332 10.9717 10.057 10.8922 10.057H10.6456V9.92183H10.8922C10.9717 9.91388 10.9796 9.93774 10.9796 9.98546Z" fill="#291342"/>
<path fill-rule="evenodd" clip-rule="evenodd" d="M11.8545 9.96955V9.78662C11.8545 9.6196 11.7909 9.57983 11.6398 9.57983H11.3773C11.2183 9.57983 11.1626 9.62755 11.1626 9.78662V9.96955C11.1626 10.1127 11.2183 10.1684 11.3773 10.1684H11.6398C11.8068 10.1684 11.8545 10.1127 11.8545 9.96955ZM11.7114 9.95364C11.7114 10.0332 11.6875 10.057 11.6 10.057H11.4171C11.3296 10.057 11.3058 10.0332 11.3058 9.9616V9.80253C11.3058 9.71504 11.3296 9.69913 11.4171 9.69913H11.6C11.6875 9.69913 11.7114 9.71504 11.7114 9.80253V9.95364Z" fill="#291342"/>
<path fill-rule="evenodd" clip-rule="evenodd" d="M12.5783 10.1684V9.57983H11.9659V9.93774C11.9659 10.0252 11.95 10.0491 11.8784 10.0491V10.1684H11.9341C12.0375 10.1684 12.1011 10.1048 12.1011 9.95364V9.69118H12.4352V10.1604H12.5783V10.1684Z" fill="#291342"/>
<path fill-rule="evenodd" clip-rule="evenodd" d="M13.2462 9.98546C13.2462 9.83434 13.1746 9.80253 13.0315 9.80253H12.777V9.57983H12.6338V10.1684H13.0315C13.1746 10.1684 13.2462 10.1286 13.2462 9.98546ZM13.103 9.98546C13.103 10.0332 13.0951 10.057 13.0156 10.057H12.769V9.92183H13.0156C13.0951 9.91388 13.103 9.93774 13.103 9.98546Z" fill="#291342"/>
<path fill-rule="evenodd" clip-rule="evenodd" d="M13.9383 10.1684V9.57983H13.7952V9.80253H13.4293V9.57983H13.2861V10.1684H13.4293V9.92183H13.7952V10.1684H13.9383Z" fill="#291342"/>
<path fill-rule="evenodd" clip-rule="evenodd" d="M14.8849 9.57983H14.7418V10.1684H14.8849V9.57983ZM14.6066 9.98546C14.6066 9.83434 14.535 9.80253 14.3918 9.80253H14.1373V9.57983H13.9941V10.1684H14.3998C14.535 10.1684 14.6066 10.1286 14.6066 9.98546ZM14.4634 9.98546C14.4634 10.0332 14.4554 10.057 14.3759 10.057H14.1293V9.92183H14.3759C14.4554 9.91388 14.4634 9.93774 14.4634 9.98546Z" fill="#291342"/>
<path fill-rule="evenodd" clip-rule="evenodd" d="M15.7116 10.1683V9.57976H15.473L15.1151 10.049H15.0992V9.57976H14.9561V10.1683H15.1947L15.5526 9.69906H15.5685V10.1683H15.7116ZM15.5128 9.40479H15.4014C15.4014 9.46046 15.3855 9.46841 15.314 9.46841C15.2424 9.46841 15.2265 9.46046 15.2265 9.40479H15.1151V9.41274C15.1151 9.50023 15.1469 9.53204 15.314 9.53204C15.4969 9.53204 15.5128 9.49227 15.5128 9.40479Z" fill="#291342"/>
<path fill-rule="evenodd" clip-rule="evenodd" d="M16.7137 10.1684L16.3558 9.8582L16.7058 9.57983H16.491L16.2365 9.79458H16.149V9.57983H16.0059V10.1684H16.149V9.91388H16.2365L16.5069 10.1684H16.7137Z" fill="#291342"/>
<path fill-rule="evenodd" clip-rule="evenodd" d="M17.4138 10.1684V9.57983H16.8014V9.93774C16.8014 10.0252 16.7854 10.0491 16.7139 10.0491V10.1684H16.7695C16.8729 10.1684 16.9366 10.1048 16.9366 9.95364V9.69118H17.2706V10.1604H17.4138V10.1684Z" fill="#291342"/>
<path fill-rule="evenodd" clip-rule="evenodd" d="M18.1377 9.57983H17.9707L17.7877 9.91388L17.5889 9.57983H17.4219L17.6923 9.99341C17.7002 10.0014 17.7002 10.0173 17.7002 10.0173C17.7002 10.0332 17.6764 10.057 17.6207 10.057H17.5889V10.1684H17.6446C17.748 10.1684 17.7798 10.1525 17.8593 10.0252L18.1377 9.57983Z" fill="#291342"/>
<path fill-rule="evenodd" clip-rule="evenodd" d="M18.7818 9.98546C18.7818 9.83434 18.7103 9.80253 18.5671 9.80253H18.3126V9.69118H18.7262V9.57983H18.1694V10.1684H18.5751C18.7103 10.1684 18.7818 10.1286 18.7818 9.98546ZM18.6387 9.98546C18.6387 10.0332 18.6307 10.057 18.5512 10.057H18.3046V9.92183H18.5512C18.6307 9.91388 18.6387 9.93774 18.6387 9.98546Z" fill="#291342"/>
<path fill-rule="evenodd" clip-rule="evenodd" d="M20.0464 9.57178H19.8793L19.6964 9.90582L19.4976 9.57178H19.3306L19.601 9.98536C19.6089 9.99331 19.6089 10.0092 19.6089 10.0092C19.6089 10.0251 19.5851 10.049 19.5294 10.049H19.4976V10.1603H19.5533C19.6567 10.1603 19.6885 10.1444 19.768 10.0172L20.0464 9.57178Z" fill="#291342"/>
<path fill-rule="evenodd" clip-rule="evenodd" d="M20.9131 9.91388V9.83434C20.9131 9.66732 20.8415 9.62755 20.6984 9.62755H20.5154V9.57983H20.3723V9.62755H20.1894C20.0462 9.62755 19.9746 9.67528 19.9746 9.83434V9.91388C19.9746 10.057 20.0223 10.1127 20.1894 10.1127H20.3723V10.1684H20.5154V10.1127H20.6984C20.8654 10.1127 20.9131 10.057 20.9131 9.91388ZM20.77 9.89797C20.77 9.9775 20.754 10.0014 20.6586 10.0014H20.5154V9.74686H20.6586C20.7461 9.74686 20.77 9.76276 20.77 9.85025V9.89797ZM20.3723 9.99341H20.2291C20.1416 9.99341 20.1178 9.9775 20.1178 9.89797V9.8423C20.1178 9.75481 20.1416 9.7389 20.2291 9.7389H20.3723V9.99341Z" fill="#291342"/>
<path fill-rule="evenodd" clip-rule="evenodd" d="M21.6768 10.1684L21.3666 9.57983H21.1598L20.8496 10.1684H21.0166L21.0962 10.0173H21.4461L21.5256 10.1684H21.6768ZM21.3825 9.90592H21.1439L21.2632 9.68323H21.2711L21.3825 9.90592Z" fill="#291342"/>
<path d="M19.1159 9.51611H19.0205V10.224H19.1159V9.51611Z" fill="#291342"/>
<path d="M21.8996 9.5083H21.8042V10.2162H21.8996V9.5083Z" fill="#291342"/>
</svg>
