<svg width="30" height="30" viewBox="0 0 30 30" fill="none" xmlns="http://www.w3.org/2000/svg">
<path fill-rule="evenodd" clip-rule="evenodd" d="M26.3232 19.0114C26.3232 19.7743 26.1347 20.4771 25.7061 21.1114C25.1061 22.0028 24.1461 22.5857 23.1861 23.0314C22.1061 23.5457 20.9489 23.9228 19.8347 24.36C18.1204 25.02 16.1747 25.8685 15.1632 27.5057L14.9489 27.8571L14.7347 27.5057C14.5718 27.24 14.3832 26.9914 14.1775 26.7685C13.1147 25.6028 11.5118 24.9171 10.0718 24.36C8.95751 23.9314 7.80037 23.5457 6.72037 23.0314C5.77751 22.5857 4.81751 21.9943 4.21751 21.1114C3.78894 20.4771 3.60037 19.7743 3.60037 19.0114C3.59179 17.8543 3.78894 16.7657 4.10608 15.6514C4.38037 14.6657 4.74894 13.7143 5.01465 12.7371C5.28037 11.7514 5.44322 10.8 5.37465 9.7714C5.29751 8.49425 4.88608 7.29425 4.31179 6.16282L4.22608 5.9914L8.48608 2.14282L8.6318 2.21997C13.0632 4.43997 16.9118 4.41425 21.3432 2.21997L21.4889 2.14282L25.6632 5.99139L25.5775 6.16282C25.0032 7.29425 24.5918 8.49425 24.5147 9.77139C24.4547 10.7914 24.6089 11.7514 24.8747 12.7371C25.1404 13.7228 25.5089 14.6743 25.7832 15.6514C26.1347 16.7657 26.3318 17.8457 26.3232 19.0114Z" fill="white"/>
<path fill-rule="evenodd" clip-rule="evenodd" d="M14.9577 27.3685C17.5891 23.0913 25.9977 24.017 26.0748 19.0113C26.0663 14.1599 22.5263 11.6742 25.3806 6.04275L21.472 2.44275C16.9805 4.67132 13.0548 4.71418 8.53769 2.44275L4.54341 6.04275C7.38912 11.6656 3.85769 14.1513 3.84912 19.0113C3.92626 24.017 12.3263 23.0913 14.9577 27.3685Z" fill="#F48120"/>
<path fill-rule="evenodd" clip-rule="evenodd" d="M14.9402 26.3742C12.5231 22.5513 4.57736 23.4599 4.50879 18.9428C4.51736 14.2713 8.08307 11.8113 5.28879 6.27421L8.56307 3.22278C10.4402 4.08849 13.0716 4.85135 14.9316 4.84278V4.83421C16.8088 4.84278 19.4402 4.09706 21.3174 3.23135L24.6431 6.25706C21.8488 11.7942 25.4059 14.2542 25.4145 18.9256C25.3374 23.4599 17.3745 22.5342 14.9488 26.3571L14.9402 26.3742Z" fill="#231F20" stroke="white" stroke-width="0.7076" stroke-miterlimit="22.9256"/>
<path fill-rule="evenodd" clip-rule="evenodd" d="M14.962 25.6028C12.6392 21.9599 5.13915 23.1257 5.06201 18.8142C5.06201 17.4514 5.3963 16.2771 5.78201 15.1371C6.64773 12.5314 7.78773 10.1571 5.91058 6.49708L8.84201 3.84851C10.642 4.67137 13.1706 5.39994 14.9534 5.39137V5.3828C16.7534 5.39137 19.282 4.67994 21.082 3.84851L24.0134 6.49708C21.322 11.7771 24.8449 14.3657 24.862 18.8228C24.7849 23.1428 17.2934 21.9599 14.962 25.6114H14.9534V25.6028H14.962Z" fill="#231F20"/>
<path fill-rule="evenodd" clip-rule="evenodd" d="M14.949 25.6028C13.8433 23.88 11.6147 23.2114 9.53184 22.56C13.149 22.56 16.7747 22.56 20.3918 22.56C18.3004 23.2114 16.0633 23.88 14.9661 25.6028H14.949ZM8.9147 22.3714C8.35755 22.1914 7.8347 22.0114 7.33755 21.78C12.4118 21.78 17.4947 21.78 22.569 21.78C22.089 21.9943 21.549 22.1828 20.9918 22.3714C16.9718 22.3714 12.9433 22.3714 8.9147 22.3714ZM6.80612 21.5228C6.5147 21.36 6.24898 21.1885 6.01755 21.0085C11.9747 21.0085 17.9404 21.0085 23.889 21.0085C23.6576 21.1971 23.3833 21.3685 23.1004 21.5228C17.6747 21.5228 12.2404 21.5228 6.80612 21.5228ZM5.6747 20.6657C5.54612 20.5285 5.42612 20.3743 5.33184 20.22C11.7433 20.22 18.1718 20.22 24.6004 20.22C24.5061 20.3828 24.3861 20.5285 24.2576 20.6657C18.0518 20.6657 11.8633 20.6657 5.6747 20.6657ZM5.12612 19.8171C5.0747 19.6971 5.04041 19.5685 5.00612 19.4314C11.649 19.4314 18.2747 19.4314 24.9176 19.4314C24.8833 19.5685 24.8404 19.6971 24.789 19.8171C18.2318 19.8171 11.6833 19.8171 5.12612 19.8171ZM4.92898 18.9685C4.92041 18.8828 4.92041 18.8057 4.92041 18.72C4.92041 18.7028 4.92041 18.6771 4.92041 18.66C11.6147 18.66 18.309 18.66 25.0033 18.66C25.0033 18.6771 25.0033 18.7028 25.0033 18.72C25.0033 18.8057 24.9947 18.8914 24.9947 18.9685C18.3004 18.9685 11.6147 18.9685 4.92898 18.9685ZM4.92898 18.1285C4.93755 18.0428 4.93755 17.9571 4.94612 17.8714C11.6061 17.8714 18.2833 17.8714 24.9433 17.8714C24.9518 17.9571 24.9518 18.0428 24.9604 18.1285C18.3004 18.1285 11.6147 18.1285 4.92898 18.1285ZM5.04041 17.28C5.04898 17.22 5.05755 17.1514 5.0747 17.1C11.6576 17.1 18.2576 17.1 24.849 17.1C24.8576 17.16 24.8661 17.22 24.8833 17.28C18.2661 17.28 11.649 17.28 5.04041 17.28ZM5.21184 16.4228C5.22041 16.38 5.22898 16.3457 5.24612 16.3028C11.7261 16.3028 18.2061 16.3028 24.6776 16.3028C24.6861 16.3457 24.6947 16.38 24.7118 16.4228C18.2061 16.4228 11.709 16.4228 5.21184 16.4228ZM5.44327 15.5743C5.44327 15.5571 5.45184 15.54 5.45184 15.5228C11.7776 15.5228 18.1118 15.5228 24.4376 15.5228C24.4376 15.54 24.4461 15.5571 24.4461 15.5743C18.129 15.5743 11.7861 15.5743 5.44327 15.5743Z" fill="#F48120"/>
<path fill-rule="evenodd" clip-rule="evenodd" d="M8.48198 17.3313H8.43055H8.37912L8.3277 17.3227L8.2677 17.3142H8.21627L8.16484 17.3056L8.12198 17.2885L8.07055 17.2799L8.01055 17.2713L7.9677 17.2627L7.91627 17.237L7.49627 17.1085L7.47912 14.6056L7.77912 14.8285L7.45341 14.2027L7.43627 14.177L7.4277 14.1513L7.41055 14.117H6.8877V12.3256H10.6506V11.2799H12.6648H12.7934H12.9048L13.0334 11.297H13.1534L13.2734 11.3056L13.3763 11.3142L13.4963 11.3399L13.6077 11.357L13.702 11.3656L13.8048 11.3999L13.9077 11.4256L14.002 11.4513L14.0877 11.4856L14.182 11.5285L14.2677 11.5713L14.3534 11.6142L14.4477 11.6656L14.5334 11.7427L14.6191 11.8113L14.6963 11.897L14.7734 11.9827L14.8334 12.0685L14.8677 12.1199L15.022 11.657H14.8591V9.85702H17.9877L18.3306 11.0827L18.8706 11.2199L18.8877 11.1942V11.1513L18.8963 11.1085L18.9048 11.0656V11.0142V10.9542L18.9134 10.8856V10.8256V10.757L18.9306 10.6799V10.5942V10.5085V10.4227V10.337V10.2856H18.4848V8.4856H23.0363V10.2856H22.6848V11.6142H23.0363V13.4142H20.1563V13.1999L20.1391 13.217L20.0706 13.2599L20.002 13.3027L19.9334 13.3456L19.8563 13.3799L19.7877 13.4142L19.7106 13.4313L19.6334 13.457L19.5563 13.4742L19.4706 13.4913L19.402 13.4999L19.3248 13.5085H19.2477V14.7856H14.1477V14.6313L14.122 14.6485L14.0106 14.6742L13.9077 14.7085L13.7877 14.7427L13.6763 14.7599V16.2085H10.6506V15.5656L10.6334 15.5913L10.582 15.7199L10.5306 15.8313L10.4877 15.9513L10.4363 16.0713L10.3763 16.1656L10.3248 16.277L10.2734 16.3713L10.2306 16.4656L10.1791 16.5513L10.1191 16.6285L10.0677 16.7142L10.0077 16.7913L9.93912 16.8599L9.87912 16.9285L9.8277 16.9799L9.75912 17.0313L9.69912 17.0742L9.63055 17.117L9.55341 17.1599L9.48484 17.1942L9.4077 17.2285L9.33055 17.2456L9.25341 17.2713L9.18484 17.2885L9.1077 17.3142L9.03055 17.3227L8.94484 17.3313L8.8677 17.3485H8.78198H8.71341H8.64484H8.59341H8.54198L8.48198 17.3313Z" fill="#231F20"/>
<path d="M8.78206 17.3909L8.53375 17.3898L8.47779 17.3738H8.37923L8.2635 17.3564L8.21634 17.3566L8.15996 17.3477L8.11083 17.3287L7.95417 17.302L7.90273 17.2763L7.46617 17.1431L7.44847 14.5571L7.69138 14.7376L7.40762 14.1988L7.39209 14.1595H6.85742V12.3074H10.6203V11.2617H12.9049L13.0375 11.2791L13.1535 11.2788L13.3789 11.2961L13.5027 11.3223L13.6124 11.3392L13.7048 11.3475L13.8145 11.3832L14.01 11.4342L14.099 11.4696L14.367 11.5992L14.4623 11.6511L14.5538 11.7323L14.6382 11.7998L14.796 11.9746L14.8586 12.0636L14.98 11.6995H14.8288V9.83884H18.0108L18.3551 11.0698L18.8573 11.1973L18.8574 11.1972V11.1635L18.8752 11.0718L18.8746 10.9663L18.8834 10.894L18.8832 10.7692L18.901 10.6855L18.9003 10.3281H18.4546V8.46741H23.0667V10.3281H22.7153V11.596H23.0667V13.4567H20.126V13.2727L19.9496 13.3835L19.8013 13.4534L19.7172 13.4731L19.6431 13.498L19.4766 13.5332L19.3283 13.5507L19.2781 13.5509V14.8281H14.1174V14.6928L14.0175 14.7159L13.9174 14.7494L13.7961 14.7841L13.7067 14.798V16.2509H10.6203V15.7177L10.6102 15.7434L10.5582 15.8562L10.5163 15.9736L10.4642 16.0954L10.4019 16.194L10.3525 16.3019L10.3001 16.398L10.2582 16.4903L10.2053 16.579L10.1431 16.6592L10.0938 16.7419L10.0317 16.8221L9.96063 16.8935L9.90204 16.9606L9.84922 17.0134L9.71684 17.111L9.64669 17.1549L9.49849 17.2334L9.42014 17.2683L9.33719 17.2874L9.26307 17.3123L9.1923 17.33L9.11738 17.3551L8.94796 17.3737L8.87434 17.3903L8.78206 17.3909ZM8.54634 17.3303H8.86777L8.93834 17.3138L9.10445 17.2962L9.17535 17.2718L9.24612 17.2541L9.32104 17.229L9.40123 17.211L9.53993 17.1449L9.61589 17.1027L9.68315 17.0606L9.80958 16.9677L9.8578 16.9192L9.91639 16.852L9.98637 16.7821L10.0438 16.7077L10.0932 16.625L10.1553 16.5448L10.2046 16.4621L10.2459 16.3709L10.2983 16.2746L10.3488 16.165L10.4108 16.0671L10.4599 15.9515L10.5021 15.8333L10.5545 15.7193L10.6053 15.5922L10.681 15.4774V16.1903H13.646V14.746L13.7832 14.7249L13.8995 14.6914L14.001 14.6575L14.1099 14.6323L14.1781 14.5869V14.7674H19.2174V13.4903H19.3249L19.4669 13.4734L19.6269 13.4396L19.701 13.4147L19.7812 13.3967L19.8428 13.3649L19.9212 13.3301L20.1231 13.2035L20.1867 13.1388V13.396H23.006V11.6567H22.6546V10.2674H23.006V8.52809H18.5153V10.2674H18.961V10.692L18.9431 10.7757L18.9438 10.8978L18.935 10.9701L18.9353 11.0778L18.9175 11.1694L18.9181 11.2155L18.884 11.2667L18.3061 11.1199L17.9647 9.89952H14.8895V11.6388H15.0642L14.8769 12.2005L14.7486 12.0123L14.5967 11.8437L14.5145 11.7786L14.4275 11.7003L14.1685 11.5677L14.0752 11.5254L13.9908 11.4916L13.7976 11.4415L13.6925 11.4066L13.605 11.3994L13.4917 11.382L13.37 11.356L13.1513 11.3394L13.0335 11.3395L12.9009 11.3221L12.6649 11.3224H10.681V12.3681H6.91811V14.0989H7.42938L7.47872 14.1981L7.86708 14.9436L7.50999 14.6783L7.52652 17.0981L7.92521 17.2202L7.97761 17.246L8.12711 17.2707L8.1762 17.2897L8.22132 17.2964L8.26777 17.296L8.38425 17.3136L8.48633 17.3132L8.54634 17.3303Z" fill="#F6921E"/>
<path fill-rule="evenodd" clip-rule="evenodd" d="M8.91909 6.59314C9.00526 6.59314 9.08066 6.62007 9.12914 6.67393C9.18838 6.73856 9.2207 6.83012 9.2207 6.95938C9.2207 7.08325 9.18838 7.1802 9.13452 7.24483C9.08066 7.29868 9.01065 7.32561 8.91909 7.32561H8.55824V7.42256H8.27279V7.32561H7.91733C7.82577 7.32561 7.75575 7.29868 7.7019 7.24483C7.64265 7.1802 7.61572 7.08325 7.61572 6.95938C7.61572 6.83012 7.64265 6.73856 7.7019 6.67393C7.75575 6.62007 7.82577 6.59314 7.91733 6.59314H8.27279V6.50158H8.55824V6.59314H8.91909ZM8.27279 6.83012H8.01427C7.97657 6.83012 7.94964 6.84089 7.93349 6.85705C7.91194 6.87859 7.90117 6.91629 7.90117 6.96476C7.90117 7.01862 7.91194 7.05094 7.93349 7.07787C7.94964 7.09402 7.97657 7.1048 8.01427 7.1048H8.27279V6.83012ZM8.55824 6.83012V7.1048H8.82215C8.85446 7.1048 8.88139 7.09402 8.89755 7.07787C8.92448 7.05632 8.93525 7.01862 8.93525 6.96476C8.93525 6.91629 8.92448 6.88398 8.90293 6.86243C8.88139 6.84089 8.85446 6.83012 8.82215 6.83012H8.55824ZM10.3733 6.50158H10.6964L10.3625 7.08864C10.2979 7.20174 10.2655 7.26637 10.2548 7.27714C10.2171 7.331 10.1794 7.3687 10.1363 7.39024C10.0824 7.41179 10.0124 7.42256 9.92085 7.42256H9.61925V7.18558H9.93162C9.95317 7.18558 9.96932 7.18558 9.97471 7.1802C9.9801 7.17481 9.98548 7.16943 9.99625 7.15865L9.38766 6.50158H9.78621L10.1147 6.88398C10.1201 6.88936 10.1255 6.90552 10.1363 6.94322C10.1363 6.95399 10.1417 6.96476 10.1471 6.96476C10.1471 6.96476 10.1524 6.94861 10.1524 6.92168C10.1524 6.89475 10.1578 6.87859 10.1632 6.86782L10.3733 6.50158ZM10.8257 6.73856V6.50158H11.9405V6.73856H11.5258V7.42256H11.2404V6.73856H10.8257ZM12.4414 7.05632V7.20174H12.9423C12.9962 7.20174 13.0231 7.1802 13.0231 7.13172C13.0231 7.09941 13.0177 7.08325 13.0015 7.07248C12.9908 7.06171 12.9692 7.05632 12.9423 7.05632H12.4414ZM12.156 7.42256V6.50158H13.2277V6.7224H12.4414V6.85166H13.0231C13.12 6.85166 13.1954 6.87321 13.2439 6.91629C13.287 6.95938 13.3085 7.02939 13.3085 7.12095C13.3085 7.23405 13.2816 7.31484 13.2277 7.36331C13.1847 7.40102 13.1146 7.42256 13.0231 7.42256H12.156ZM14.795 6.96476C14.795 7.18558 14.7681 7.32023 14.7088 7.36331C14.6496 7.41179 14.4719 7.43872 14.1756 7.43872C13.9602 7.43872 13.8148 7.42794 13.7448 7.41179C13.664 7.39563 13.6101 7.35254 13.5832 7.28253C13.567 7.23405 13.5617 7.12634 13.5617 6.96476C13.5617 6.73856 13.5886 6.60391 13.6424 6.56083C13.7017 6.51236 13.8794 6.48543 14.1756 6.48543C14.4719 6.48543 14.6496 6.51236 14.7088 6.56083C14.7627 6.60391 14.795 6.73856 14.795 6.96476ZM13.8471 6.96476C13.8471 7.08325 13.8579 7.14788 13.8848 7.16943C13.9171 7.18558 14.0087 7.19635 14.1756 7.19635C14.3426 7.19635 14.4395 7.18558 14.4665 7.16943C14.4934 7.14788 14.5042 7.08325 14.5042 6.96476C14.5042 6.84628 14.4934 6.77626 14.4665 6.75472C14.4395 6.73856 14.3426 6.72779 14.1756 6.72779C14.0087 6.72779 13.9171 6.73856 13.8848 6.75472C13.8579 6.77626 13.8471 6.84628 13.8471 6.96476ZM16.2223 6.50158V7.42256H15.9314V6.73856H15.4252C15.4252 7.00785 15.3982 7.19097 15.3551 7.28791C15.312 7.37947 15.242 7.42256 15.1343 7.42256H14.9997V7.18558C15.0697 7.18558 15.1074 7.15865 15.1182 7.09941C15.1289 7.04017 15.1343 6.84089 15.1343 6.50158H16.2223ZM16.5131 7.42256V6.50158H16.7985V6.72779H17.2132C17.3694 6.72779 17.4664 6.74395 17.5202 6.78165C17.5795 6.83012 17.6118 6.92706 17.6118 7.07787C17.6118 7.22328 17.5795 7.32023 17.5202 7.3687C17.4718 7.4064 17.3694 7.42256 17.2132 7.42256H16.5131ZM16.7985 6.96476V7.18558H17.2132C17.2509 7.18558 17.2725 7.1802 17.2886 7.16404C17.3102 7.14788 17.321 7.11557 17.321 7.07787C17.321 7.03478 17.3102 7.00785 17.2886 6.98631C17.2725 6.97015 17.2509 6.96476 17.2132 6.96476H16.7985ZM17.8326 6.50158H18.1181V6.82473H18.7374V6.50158H19.0229V7.42256H18.7374V7.06171H18.1181V7.42256H17.8326V6.50158ZM20.5363 6.50158H20.8217V7.42256H20.5363V6.50158ZM19.2814 7.42256V6.50158H19.5668V6.72779H19.9869C20.1377 6.72779 20.2401 6.74395 20.2885 6.78165C20.3478 6.83012 20.3801 6.92706 20.3801 7.07787C20.3801 7.22328 20.3478 7.32023 20.2885 7.3687C20.2401 7.4064 20.1377 7.42256 19.9869 7.42256H19.2814ZM19.5668 6.96476V7.18558H19.9869C20.0193 7.18558 20.0462 7.1802 20.0623 7.16404C20.0839 7.14788 20.0893 7.12095 20.0893 7.07787C20.0893 7.03478 20.0839 7.00785 20.0623 6.99169C20.0462 6.97554 20.0193 6.96476 19.9869 6.96476H19.5668ZM21.0479 6.50158H21.3334V7.13711C21.328 7.15865 21.3172 7.18558 21.3118 7.20713C21.3118 7.2179 21.3118 7.22328 21.3118 7.23405C21.3172 7.23405 21.3226 7.22867 21.328 7.2179C21.3334 7.20713 21.3388 7.19097 21.3442 7.1802L21.8343 6.50158H22.3082V7.42256H22.0174V6.78703C22.0174 6.78703 22.0282 6.7601 22.0389 6.71702C22.0389 6.70625 22.0389 6.69547 22.0443 6.69009C22.0335 6.69009 22.0282 6.69547 22.0228 6.70625C22.0174 6.71702 22.012 6.72779 22.0066 6.73856L21.5165 7.42256H21.0479V6.50158ZM21.9366 6.32385H21.4734V6.44773H21.9366V6.32385ZM12.2798 7.74571H12.5653V8.06886H12.7161L13.0392 7.74571H13.4378L12.9692 8.18734L13.497 8.66668H13.0769L12.7161 8.30583H12.5653V8.66668H12.2798V7.74571ZM14.9081 7.74571V8.66668H14.6227V7.98268H14.111C14.111 8.25197 14.0895 8.43509 14.041 8.53204C14.0033 8.62359 13.9279 8.66668 13.8256 8.66668H13.6909V8.42971C13.7555 8.42971 13.7986 8.40278 13.8094 8.34353C13.8202 8.28967 13.8256 8.08501 13.8256 7.74571H14.9081ZM16.1038 7.74571H16.4269L16.093 8.33276C16.0284 8.44586 15.996 8.51049 15.9853 8.52126C15.9476 8.57512 15.9099 8.61282 15.8614 8.63437C15.8129 8.65591 15.7429 8.66668 15.6514 8.66668H15.3498V8.42971H15.6621C15.6837 8.42971 15.6998 8.42971 15.7052 8.42432C15.7106 8.42432 15.716 8.41355 15.7268 8.40278L15.1182 7.74571H15.5167L15.8452 8.1281C15.8506 8.13349 15.856 8.14964 15.8614 8.18734C15.8668 8.19812 15.8722 8.20889 15.8776 8.20889C15.8776 8.20889 15.8776 8.19273 15.8829 8.1658C15.8829 8.13887 15.8883 8.12271 15.8937 8.11194L16.1038 7.74571ZM16.8739 8.30045V8.44586H17.3694C17.4233 8.44586 17.4502 8.42432 17.4502 8.37585C17.4502 8.34353 17.4448 8.32738 17.4341 8.3166C17.4179 8.30583 17.3964 8.30045 17.3694 8.30045H16.8739ZM16.5831 8.66668V7.74571H17.6549V7.96653H16.8739V8.09578H17.4502C17.5525 8.09578 17.6226 8.11733 17.671 8.16042C17.7141 8.2035 17.7411 8.27352 17.7411 8.36508C17.7411 8.47818 17.7141 8.55896 17.6603 8.60744C17.6118 8.64514 17.5418 8.66668 17.4502 8.66668H16.5831Z" fill="#FEFEFE"/>
<path d="M11.3521 20.5815C11.1204 19.6009 11.3144 18.6096 11.8101 17.8122C12.3112 17.0148 13.1193 16.4006 14.1107 16.1689C15.1074 15.9372 16.1042 16.1312 16.907 16.6215C17.7152 17.1172 18.3348 17.9146 18.5718 18.8951C18.8035 19.8811 18.6095 20.8671 18.1139 21.6645C17.6128 22.4619 16.81 23.0707 15.8132 23.3024C14.8219 23.5341 13.8251 23.3455 13.017 22.8552C12.2088 22.3595 11.5892 21.5621 11.3521 20.5815ZM11.8586 17.8391C11.3629 18.6257 11.1743 19.6009 11.406 20.5708C11.6377 21.5352 12.2465 22.3218 13.0439 22.8067C13.8413 23.297 14.8219 23.4802 15.8025 23.2539C16.7831 23.0276 17.5751 22.4242 18.0654 21.6375C18.561 20.8509 18.7496 19.8757 18.5179 18.9113C18.2863 17.9415 17.6774 17.1549 16.88 16.6646C16.088 16.1797 15.1021 15.9911 14.1215 16.2228C13.1463 16.4491 12.3489 17.0525 11.8586 17.8391Z" fill="#2B2A29"/>
<path d="M11.8585 17.8392C11.3628 18.6258 11.1742 19.601 11.4059 20.5708C11.6376 21.5352 12.2464 22.3219 13.0438 22.8068C13.8412 23.2971 14.8218 23.4802 15.8024 23.2539C16.783 23.0277 17.575 22.4242 18.0653 21.6376C18.561 20.851 18.7495 19.8758 18.5179 18.9114C18.2862 17.9415 17.6774 17.1549 16.88 16.6646C16.0879 16.1797 15.102 15.9911 14.1214 16.2228C13.1462 16.4491 12.3488 17.0526 11.8585 17.8392Z" fill="#FEFEFE"/>
<path fill-rule="evenodd" clip-rule="evenodd" d="M18.1734 21.5082C17.6885 22.3703 16.8534 23.033 15.8082 23.2808C15.6627 23.3131 15.5172 23.3347 15.3771 23.3508L15 22.5588C15.0162 22.4672 15.0269 22.381 15.0377 22.2948L14.6929 23.367C13.1358 23.2485 11.7565 22.1547 11.3794 20.5761C11.1046 19.4231 11.4225 18.2593 12.139 17.4135L12.4569 17.8068C11.8427 18.2378 11.7781 19.6279 12.5916 20.5653C12.6886 21.5782 13.4591 22.6989 15.0485 22.1871C15.0862 21.8207 15.0646 21.4813 15.0377 21.0448C15.2424 22.7743 16.7187 23.2269 18.1734 21.5082ZM16.0129 19.9026L15.7327 18.9651C16.2931 19.6009 16.6541 19.8865 17.4892 20.2475C17.0096 20.1559 16.514 20.0427 16.0129 19.9026ZM14.3804 18.8682C13.9979 18.421 13.6207 18.0061 13.3082 17.5158C13.653 17.8229 14.0625 18.1462 14.5528 18.3509L15.7651 18.4102L14.3804 18.8682Z" fill="#EBECEC"/>
<path d="M15.5063 23.3347C15.1183 23.3939 14.7358 23.3886 14.364 23.3239C14.1701 23.173 14.003 22.9953 13.8737 22.8067C13.6043 22.7259 13.3511 22.6019 13.1194 22.4403C12.9201 22.3002 12.7423 22.1224 12.5914 21.9123C12.3598 21.9285 12.1173 21.8638 11.9126 21.7776C11.6701 21.422 11.4869 21.0125 11.3792 20.5761C11.3361 20.3822 11.3037 20.1882 11.293 19.9942C11.363 19.8003 11.4654 19.6602 11.6701 19.4662C11.6917 19.2399 11.7402 18.9921 11.8264 18.755C11.8964 18.5395 11.9934 18.3294 12.1173 18.13C12.0688 17.9415 12.0473 17.7313 12.0473 17.5212C12.419 17.0471 12.9039 16.6592 13.475 16.4059C13.6636 16.4167 13.8576 16.449 14.0623 16.5083C14.2994 16.4544 14.5526 16.449 14.8112 16.4598C15.0321 16.476 15.2584 16.5029 15.4901 16.5352C15.7595 16.4436 16.0181 16.3682 16.3037 16.3521C16.7077 16.5083 17.0849 16.74 17.4082 17.0255C17.5375 17.3165 17.6183 17.6451 17.6183 17.9468C17.7099 18.1246 17.7961 18.3024 17.8661 18.4856C17.9362 18.6688 18.0008 18.8574 18.0547 19.046C18.2648 19.3369 18.4857 19.574 18.6366 19.9134C18.6096 20.4468 18.4642 20.9586 18.2217 21.422C18.0062 21.5028 17.7853 21.5567 17.5698 21.5782C17.5321 21.6106 17.4998 21.6375 17.4674 21.6698C17.1064 22.0039 16.7562 22.3272 16.2929 22.5804C16.0666 22.8929 15.9804 23.0006 15.6248 23.27L15.5063 23.3347ZM15.0483 22.1601C15.0645 21.9823 15.0698 21.8099 15.0698 21.6321C15.0645 21.4436 15.0483 21.2604 15.0267 21.0772L15.0537 21.0718C15.0752 21.255 15.0914 21.4436 15.0968 21.6321C15.1022 21.7991 15.0914 21.9716 15.0752 22.144C15.42 22.3164 15.7595 22.645 16.2875 22.5481C16.7455 22.3002 17.0903 21.9823 17.4513 21.6483C17.4782 21.6214 17.5105 21.589 17.5429 21.5621C17.5967 21.1041 17.586 20.6623 17.4459 20.2475C17.2573 20.2259 17.0579 20.1882 16.8586 20.1397C16.6754 20.0966 16.4868 20.0427 16.3198 19.9835C16.1366 20.269 15.5655 20.6785 15.0375 21.0664C14.4071 20.8186 13.9276 20.463 13.5612 20.0158L12.6238 20.5923C12.5376 20.9479 12.4837 21.3681 12.5968 21.8746C12.7477 22.0955 12.9309 22.2733 13.1356 22.4188C13.3565 22.575 13.599 22.6881 13.8522 22.769C13.8522 22.769 13.8468 22.769 13.8468 22.7636C14.3048 22.672 14.6981 22.4295 15.0483 22.1601ZM11.6971 19.4662C11.8587 19.9026 12.3005 20.2528 12.613 20.5653L13.5559 19.9888C13.669 19.4285 13.7013 18.9652 14.0677 18.5072C13.9599 18.3833 13.8522 18.2647 13.7498 18.1354C13.6043 17.9576 13.4643 17.7798 13.3403 17.5966C12.9578 17.6451 12.5376 17.8283 12.1281 18.1624C12.0149 18.3509 11.9233 18.5557 11.8479 18.7604C11.7671 19.0029 11.7186 19.2399 11.6971 19.4662ZM14.0893 16.5299C13.739 16.8423 13.5397 17.1818 13.3727 17.5966C13.4966 17.7744 13.6313 17.9468 13.7714 18.1193C13.8737 18.2432 13.9761 18.3671 14.0839 18.4856C14.0893 18.4802 14.1 18.4695 14.1054 18.4641C14.8274 18.2701 15.6194 18.3186 15.7379 18.3617C16.0774 19.046 16.2174 19.407 16.3252 19.9565C16.4922 20.0158 16.6754 20.0697 16.8694 20.1128C17.0633 20.1612 17.2627 20.199 17.4513 20.2205C17.7207 19.9511 17.9631 19.5955 18.0385 19.0837C17.9793 18.8843 17.9146 18.6904 17.8392 18.4964C17.7745 18.324 17.6937 18.157 17.6075 17.99C17.2142 17.7367 16.7508 17.6505 16.309 17.5913C16.2336 17.6882 16.1582 17.7798 16.0881 17.8768C15.9696 18.0384 15.8565 18.2055 15.7487 18.3671L15.7272 18.3509C15.8349 18.1893 15.9481 18.0223 16.0666 17.8606C16.1366 17.7637 16.2121 17.6721 16.2875 17.5805C16.1474 17.241 15.9642 16.8585 15.5332 16.5676C15.2907 16.5352 15.0483 16.5029 14.8112 16.4867C14.558 16.476 14.3155 16.4814 14.0893 16.5299Z" fill="#2B2A29"/>
<path fill-rule="evenodd" clip-rule="evenodd" d="M11.1219 13.5768C10.9301 13.5768 10.8128 13.6247 10.7702 13.71C10.7275 13.8219 10.6956 13.9232 10.6583 14.0138L10.2532 15.101C9.98674 15.8152 9.74691 16.2788 9.5284 16.4867C9.34719 16.6626 9.08605 16.7478 8.73429 16.7478C8.48381 16.7478 8.26529 16.7159 8.07343 16.6572L8.0681 15.6766C8.15337 15.7406 8.24398 15.7832 8.33458 15.8098C8.38254 15.8258 8.43584 15.8312 8.48381 15.8312C8.57974 15.8312 8.65435 15.8152 8.71298 15.7832C8.7716 15.7565 8.81957 15.6979 8.85687 15.6126L7.9775 13.9552C7.94019 13.8859 7.90289 13.8113 7.87091 13.742C7.80162 13.6301 7.71102 13.5768 7.58844 13.5768H7.47119V12.8839H9.33653V13.5768H9.27258C9.23527 13.5768 9.20862 13.5821 9.18731 13.5927C9.16066 13.5981 9.15 13.6247 9.15 13.6674C9.15 13.6993 9.16066 13.7313 9.17665 13.7633C9.19264 13.7953 9.2033 13.8166 9.20862 13.8326L9.60301 14.5787L9.85883 13.9019C9.88015 13.8379 9.89614 13.7899 9.91213 13.7473C9.92278 13.6993 9.92811 13.6727 9.92811 13.662C9.92811 13.6301 9.91745 13.6034 9.90147 13.5927C9.88015 13.5821 9.83751 13.5768 9.76823 13.5768H9.69894V12.8839H11.1219V13.5768ZM14.5755 13.1291C14.5755 13.4968 14.4689 13.774 14.2504 13.9552C13.9892 14.1683 13.4883 14.2803 12.7474 14.2803V14.7279C12.7474 14.8239 12.7634 14.8825 12.7901 14.9038C12.8167 14.9251 12.87 14.9358 12.9446 14.9358H13.1472V15.634H11.2125V14.9358H11.4204C11.4897 14.9358 11.5323 14.9251 11.5536 14.9091C11.5909 14.8825 11.6069 14.8185 11.6069 14.7279V12.7613C11.6069 12.6867 11.6016 12.6334 11.5803 12.6015C11.559 12.5695 11.5057 12.5535 11.4204 12.5535H11.2125V11.8553H12.6675C13.323 11.8553 13.792 11.9406 14.0798 12.1111C14.4103 12.303 14.5755 12.6441 14.5755 13.1291ZM13.3444 13.0598C13.3444 12.8892 13.2911 12.7773 13.1898 12.7134C13.0832 12.6494 12.9393 12.6174 12.7474 12.6174V13.5181C12.95 13.5181 13.1045 13.4808 13.2005 13.4115C13.2964 13.3423 13.3444 13.225 13.3444 13.0598ZM18.6846 14.2323H16.8672V13.5341H16.9951C17.0484 13.5341 17.0857 13.5288 17.107 13.5235C17.1337 13.5181 17.1443 13.4915 17.1443 13.4488C17.1443 13.4329 17.139 13.4169 17.139 13.4009C17.123 13.3476 17.1123 13.3049 17.107 13.273H15.9772C15.9718 13.2996 15.9612 13.3209 15.9558 13.3423C15.9505 13.3582 15.9452 13.3796 15.9452 13.4009C15.9452 13.4542 15.9612 13.4915 15.9878 13.5075C16.0198 13.5235 16.0571 13.5341 16.0997 13.5341H16.1584V14.2323H14.6927V13.5341H14.7833C14.8793 13.5341 14.9539 13.5075 14.9965 13.4435C15.0392 13.3849 15.0871 13.2623 15.1457 13.0758L15.6787 11.4076C15.7053 11.3064 15.7213 11.2477 15.7213 11.2264C15.7213 11.1998 15.7053 11.1838 15.6787 11.1731C15.6521 11.1571 15.5881 11.1518 15.4922 11.1518H15.3962V10.4536H17.56L18.3275 13.2143C18.3541 13.3103 18.3701 13.3742 18.3861 13.4062C18.4287 13.4915 18.498 13.5341 18.6046 13.5341H18.6846V14.2323ZM16.8832 12.5108L16.5741 11.4343H16.5474L16.217 12.5108H16.8832ZM22.4526 12.8839H20.6778V12.1857H20.7418C20.8111 12.1857 20.859 12.1804 20.891 12.1591C20.939 12.1324 20.9603 12.0685 20.9603 11.9672V9.86739H20.3421C20.3421 10.7787 20.2994 11.4663 20.2088 11.9406C20.1449 12.2604 20.0489 12.5055 19.9157 12.6654C19.7451 12.8733 19.516 12.9745 19.2175 12.9745C19.1482 12.9745 19.0896 12.9692 19.0416 12.9639C18.9351 12.9425 18.8285 12.9106 18.7165 12.8573V11.7807C18.7485 11.7914 18.7965 11.802 18.8658 11.8127C18.9351 11.8287 18.983 11.834 19.015 11.834C19.2015 11.834 19.3241 11.6954 19.3827 11.413C19.4307 11.1944 19.4573 10.8267 19.4573 10.2991V10.1232C19.4573 10.0006 19.4467 9.91536 19.42 9.87272C19.3987 9.82476 19.3294 9.80344 19.2175 9.80344H19.015V9.1106H22.4472V9.80344H22.3193C22.2127 9.80344 22.1434 9.83008 22.1168 9.88871C22.1061 9.91003 22.1008 9.95799 22.1008 10.0326V11.9619C22.1008 12.0632 22.1168 12.1218 22.1541 12.1484C22.1861 12.1751 22.2394 12.1857 22.3193 12.1857H22.4526V12.8839Z" fill="#FEFEFE"/>
</svg>
