<svg width="30" height="30" viewBox="0 0 30 30" fill="none" xmlns="http://www.w3.org/2000/svg">
<path d="M6.3 11.7511C6.97 11.7511 7.53 12.0109 7.53 12.8003C7.53 13.7496 6.71 14.7289 5.49 15.4683C5.77 15.7881 5.96 16.1478 6.06 16.5475C6.35 16.3977 6.66 16.2478 6.98 16.0879C7.33 14.3692 8.56 13.0502 9.65 13.0502C10.2 13.0502 10.45 13.3799 10.45 13.8196C10.45 14.8488 9.5 15.6482 8.17 16.3477C8.13 16.5875 8.13 16.7174 8.13 16.8673C8.13 17.3369 8.23 17.5568 8.41 17.5568C8.53 17.5568 8.67 17.4469 8.83 17.267L10.63 15.1386L11.22 13.1001H12.27L11.74 14.9088L12.56 14.6989L13.03 13.1001H14.01L13.21 15.8281L14.52 14.0894L14.81 13.1101H15.75L15.19 15.0387C15.17 15.1086 15.05 15.5183 15.14 15.5183C15.25 15.5183 15.49 15.0686 15.77 14.569C16.07 14.0194 16.34 13.4299 16.46 13.1101H17.42L16.95 14.7489L18.17 13.1101H26.6L6.29 21.7736L6.69 20.4047L22.66 13.8795H19.55L19.24 14.8988L18.24 15.2185L18.64 13.8895H18.15L16.77 15.6782L15.9 15.968C15.95 15.5383 16.02 15.0986 16.12 14.6789L15.72 15.4284C15.4 16.0179 15.13 16.4776 14.65 16.4776C14.3 16.4776 14.14 16.1478 14.14 15.7182C14.14 15.5683 14.16 15.3984 14.2 15.2385L12.9 16.9672L11.82 17.317L12.36 15.4384L11.54 15.6482L10.98 17.6167L9.81 18.0064L10.34 16.1978L9.16 17.7067C8.66 18.3462 8.14 18.6959 7.73 18.6959C6.93 18.6959 6.83 17.3869 6.9 16.8573C6.47 17.0572 6.32 17.1271 6.17 17.207C6.36 20.0149 3.5 23.882 1.69 23.882C1.13 23.882 0.69 23.4524 0.69 22.4631C0.69 21.0142 1.78 18.8958 4.71 17.237C4.63 16.6674 4.43 16.1878 4.08 15.878V15.8181C5.07 15.0587 5.82 14.1993 5.82 13.4299C5.82 13.0801 5.55 12.9402 5.26 12.9402C4.71 12.9402 3.98 13.6197 3.59 14.1893H3.39L3.71 13.0901C4.45 12.1009 5.64 11.7511 6.3 11.7511ZM8.3 15.5883C9.04 15.1086 9.35 14.4991 9.35 14.0194C9.35 13.8596 9.29 13.7496 9.19 13.7496C8.92 13.7496 8.52 14.599 8.3 15.5883ZM4.73 17.9565C2.96 19.1556 2.06 20.9043 2.06 22.1334C2.06 22.3532 2.13 22.7229 2.39 22.7229C3.4 22.7229 4.67 20.0449 4.73 17.9565ZM6.3 11.0616C5.58 11.0616 4.11 11.4014 3.15 12.6804L3.07 12.7804L3.03 12.9003L2.71 13.9994L2.45 14.8788H3.37H3.57H3.93L4.14 14.579C4.44 14.1393 4.82 13.8296 5.06 13.6897C4.9 14.1194 4.39 14.6789 3.64 15.2585L3.37 15.4683V15.8081V15.868V16.1878L3.61 16.3977C3.75 16.5176 3.85 16.7074 3.91 16.8973C2.68 17.6567 1.71 18.546 1.02 19.5353C0.37 20.4946 0 21.5338 0 22.4631C0 24.0219 0.91 24.5715 1.69 24.5715C2.27 24.5715 3.22 24.3017 4.4 23.0427C4.89 22.5131 5.35 21.8935 5.73 21.234L5.63 21.5838L5.22 22.9827L6.56 22.4131L26.89 13.7296L30 12.4006H26.62H18.36H17.44H16.69H15.77H14.95H14.03H13.2H12.28H11.23H10.71L10.63 12.6604C10.38 12.4606 10.05 12.3507 9.66 12.3507C9.17 12.3507 8.67 12.5305 8.22 12.8403C8.22 12.8203 8.22 12.8103 8.22 12.7904C8.22 11.7311 7.48 11.0616 6.3 11.0616Z" fill="white"/>
<path d="M24.9 19.995V19.5154V19.0457V18.3562H24.21H22.95H22.33L22.32 18.4362C22.12 18.3562 21.89 18.3063 21.65 18.3063C21.29 18.3063 20.97 18.4062 20.72 18.5861C20.46 18.4062 20.14 18.3063 19.77 18.3063C19.62 18.3063 19.48 18.3263 19.35 18.3562H18.66H17.86H17.44L17.25 18.726L16.98 19.2456L16.46 20.2548H17.4V21.324V22.0135H17.97H18.09H18.67H19.24H19.28H19.36H19.92H20.29H20.72H22.49H22.94C23.09 22.0535 23.25 22.0735 23.41 22.0735C24.36 22.0735 25.04 21.4439 25.04 20.5646C25.03 20.3647 24.98 20.1749 24.9 19.995Z" fill="white"/>
<path d="M11.2299 13.0901H12.2799L11.7499 14.8987L12.5699 14.6889L13.0399 13.0901H14.0199L13.2199 15.818L14.5299 14.0793L14.8199 13.1001H15.7599L15.1999 15.0286C15.1799 15.0986 15.0599 15.5083 15.1499 15.5083C15.2599 15.5083 15.4999 15.0586 15.7799 14.559C16.0799 14.0094 16.3499 13.4198 16.4699 13.1001H17.4299L16.9599 14.7388L18.1799 13.1001H26.6099L6.28994 21.7736L6.68994 20.4046L22.6599 13.8795H19.5499L19.2399 14.8987L18.2399 15.2185L18.6399 13.8895H18.1499L16.7699 15.6781L15.8999 15.9679C15.9499 15.5382 16.0199 15.0986 16.1199 14.6789L15.7199 15.4283C15.3999 16.0179 15.1299 16.4775 14.6499 16.4775C14.2999 16.4775 14.1399 16.1478 14.1399 15.7181C14.1399 15.5682 14.1599 15.3984 14.1999 15.2385L12.8999 16.9672L11.8199 17.3169L12.3599 15.4383L11.5399 15.6482L10.9799 17.6167L9.80994 18.0064L10.3399 16.1978L9.15994 17.7066C8.65994 18.3461 8.13994 18.6959 7.72994 18.6959C6.92994 18.6959 6.82994 17.3869 6.89994 16.8573C6.46994 17.0571 6.31994 17.1271 6.16994 17.207C6.35994 20.0149 3.49994 23.882 1.68994 23.882C1.12994 23.882 0.689941 23.4523 0.689941 22.4631C0.689941 21.0141 1.77994 18.8957 4.70994 17.237C4.62994 16.6674 4.42994 16.1878 4.07994 15.878V15.818C5.06994 15.0586 5.81994 14.1992 5.81994 13.4298C5.81994 13.0801 5.54994 12.9402 5.25994 12.9402C4.70994 12.9402 3.97994 13.6197 3.58994 14.1893H3.38994L3.70994 13.0901C4.45994 12.1008 5.64994 11.7411 6.30994 11.7411C6.97994 11.7411 7.53994 12.0009 7.53994 12.7903C7.53994 13.7396 6.71994 14.7189 5.49994 15.4583C5.77994 15.7781 5.96994 16.1378 6.06994 16.5375C6.35994 16.3876 6.66994 16.2377 6.98994 16.0778C7.33994 14.3591 8.56994 13.0401 9.65994 13.0401C10.2099 13.0401 10.4599 13.3699 10.4599 13.8095C10.4599 14.8388 9.50994 15.6382 8.17994 16.3376C8.13994 16.5775 8.13994 16.7074 8.13994 16.8573C8.13994 17.3269 8.23994 17.5467 8.41994 17.5467C8.53994 17.5467 8.67994 17.4368 8.83994 17.257L10.6399 15.1286L11.2299 13.0901ZM2.05994 22.1333C2.05994 22.3531 2.12994 22.7229 2.38994 22.7229C3.39994 22.7229 4.66994 20.0449 4.72994 17.9664C2.95994 19.1655 2.05994 20.9042 2.05994 22.1333ZM9.34994 14.0194C9.34994 13.8595 9.28994 13.7496 9.18994 13.7496C8.91994 13.7496 8.51994 14.599 8.29994 15.5882C9.03994 15.1086 9.34994 14.499 9.34994 14.0194Z" fill="#00AFEF"/>
<path d="M23.3297 19.8552L23.3697 19.5054H24.2097V19.0358H22.9497L22.8097 20.3248C22.9597 20.2648 23.1297 20.2549 23.2497 20.2549C23.5697 20.2549 23.7597 20.4047 23.7597 20.5946C23.7597 20.7445 23.6197 20.8944 23.3597 20.8944C23.1597 20.8944 22.9497 20.8144 22.7697 20.6745L22.6997 21.1842C22.8697 21.2941 23.1197 21.394 23.3897 21.394C23.9897 21.394 24.3297 21.0343 24.3297 20.5746C24.3397 20.035 23.8197 19.7552 23.3297 19.8552Z" fill="#00AFEF"/>
<path d="M22.5 19.7253C22.5 19.3356 22.19 18.9858 21.65 18.9858C21.13 18.9858 20.79 19.3056 20.79 19.8352V19.8452H21.35V19.8252C21.35 19.5854 21.47 19.4555 21.66 19.4555C21.83 19.4555 21.93 19.5654 21.93 19.7353C21.93 19.8452 21.87 19.9551 21.75 20.105L20.71 21.3341H22.48V20.8444H21.77L22.19 20.3848C22.39 20.155 22.5 19.9751 22.5 19.7253Z" fill="#00AFEF"/>
<path d="M17.5801 19.5654H18.0801V21.3341H18.6501V19.0458H17.8501L17.5801 19.5654Z" fill="#00AFEF"/>
<path d="M19.7601 18.9957C19.2101 18.9957 18.8701 19.3655 18.8701 19.8451C18.8701 20.2748 19.2001 20.5745 19.5801 20.5745C19.6701 20.5745 19.7101 20.5745 19.7901 20.5546L19.2601 21.344H19.9001L20.2201 20.8543C20.4701 20.4746 20.6301 20.1748 20.6301 19.8351C20.6401 19.3355 20.3201 18.9957 19.7601 18.9957ZM19.7601 20.1649C19.5601 20.1649 19.4101 20.025 19.4101 19.8051C19.4101 19.6153 19.5501 19.4454 19.7601 19.4454C19.9801 19.4454 20.1201 19.6053 20.1201 19.8051C20.1101 20.025 19.9701 20.1649 19.7601 20.1649Z" fill="#00AFEF"/>
<path d="M15.0001 5.48572L15.7401 7.75402H18.1301L16.1901 9.16297L16.9301 11.4313L15.0001 10.0323L13.0701 11.4313L13.8001 9.16297L11.8701 7.75402H14.2601L15.0001 5.48572Z" fill="#D2A85A"/>
</svg>
