<svg width="17" height="17" viewBox="0 0 17 17" fill="none" xmlns="http://www.w3.org/2000/svg">
<path d="M8.86231 16.5184C13.2805 16.5184 16.8623 12.9367 16.8623 8.51843C16.8623 4.1002 13.2805 0.518431 8.8623 0.518432C4.44407 0.518432 0.862305 4.1002 0.862305 8.51843C0.867254 12.9346 4.44616 16.5135 8.86231 16.5184ZM8.57676 14.2121L5.79564 15.3238C5.48001 15.1809 5.17468 15.0164 4.88184 14.8312L4.87454 14.8266C4.58678 14.6443 4.31178 14.4427 4.05137 14.223L4.02897 14.2035C3.91217 14.104 3.79863 14.001 3.68822 13.8947C3.67428 13.8811 3.6597 13.868 3.64577 13.8541C3.53001 13.7411 3.4179 13.6246 3.30944 13.5046C3.30046 13.4945 3.29186 13.4838 3.28288 13.4736C3.1877 13.367 3.09616 13.2566 3.00736 13.1443C2.986 13.1177 2.96465 13.091 2.94395 13.0643C2.84759 12.9395 2.75436 12.8126 2.66634 12.6816L3.22077 10.3248L5.9485 9.41544L8.57611 11.5179L8.57676 14.2121ZM14.7809 13.0627C14.7602 13.0894 14.7391 13.1161 14.7178 13.1427C14.63 13.254 14.5393 13.3626 14.4455 13.4686C14.4354 13.4798 14.426 13.4912 14.416 13.5024C14.3081 13.6226 14.1965 13.739 14.0809 13.8518C14.0676 13.8648 14.0544 13.8785 14.0404 13.8904C13.9309 13.996 13.8183 14.0984 13.7025 14.1973L13.6758 14.2197C13.4178 14.4378 13.1454 14.6382 12.8605 14.8197L12.8501 14.8264C12.5589 15.0111 12.2555 15.1755 11.9417 15.3184L9.14785 14.2121L9.14785 11.5187L11.7756 9.41661L14.5033 10.3243L15.0577 12.6811C14.9689 12.8118 14.8768 12.9385 14.7809 13.0627ZM15.1023 4.42637C15.1807 4.54591 15.2557 4.66765 15.3271 4.79174L15.3445 4.82169C15.4156 4.94512 15.4829 5.07065 15.5463 5.19812L15.5485 5.20216C15.6821 5.47038 15.7994 5.74643 15.8997 6.02885L15.8997 6.03145C15.9471 6.16479 15.9903 6.30137 16.0303 6.43874L16.0447 6.4894C16.0813 6.61843 16.1145 6.7489 16.1442 6.8808C16.1468 6.89369 16.1501 6.90593 16.1527 6.91869C16.2182 7.21661 16.2652 7.51817 16.2936 7.82195L14.6656 9.77546L11.9567 8.8726L11.1705 5.72807L12.4623 4.00932L15.1023 4.42637ZM7.08652 1.267C7.21986 1.23393 7.35671 1.20541 7.49355 1.17976C7.51269 1.17598 7.53223 1.17286 7.55137 1.16934C7.6679 1.14851 7.78574 1.13067 7.90384 1.11609C7.93535 1.11205 7.9666 1.10775 7.99798 1.10398C8.10762 1.09122 8.21829 1.08158 8.32923 1.07364C8.36413 1.0713 8.39863 1.06778 8.43353 1.06557C8.57533 1.05684 8.71829 1.05176 8.8623 1.05176C8.99421 1.05176 9.12532 1.05528 9.25566 1.06218C9.27142 1.06218 9.28652 1.06478 9.30228 1.06596C9.41829 1.0726 9.53379 1.08132 9.64902 1.09252L9.6623 1.09499C9.91478 1.12234 10.1658 1.16244 10.4143 1.21492L11.9916 3.68458L10.7201 5.38002L7.00449 5.38002L5.71217 3.67338L7.08652 1.267ZM1.56999 6.91843C1.57272 6.90567 1.57585 6.8933 1.57858 6.88054C1.6084 6.74877 1.6416 6.6183 1.67806 6.48914L1.69238 6.43848C1.73249 6.30111 1.77559 6.16505 1.82311 6.03119L1.82311 6.02859C1.92337 5.74617 2.04056 5.47013 2.17428 5.2019L2.1765 5.19786C2.2403 5.07026 2.30749 4.94473 2.37832 4.82143L2.39564 4.79148C2.46673 4.667 2.5416 4.54552 2.62012 4.42664L5.25111 4.01179L6.55189 5.72911L5.76608 8.87286L3.05723 9.77572L1.42923 7.82221C1.45749 7.5183 1.50449 7.21648 1.56999 6.91843Z" fill="url(#paint0_radial)"/>
<path d="M6.24571 13.0184L6.93181 11.4377H10.6852L11.3847 13.0184H13.3623L9.05737 4.01843H8.55961L4.3623 13.0184H6.24571ZM10.026 9.92824H7.591L8.80177 7.15134L10.026 9.92824Z" fill="#E73338"/>
<defs>
<radialGradient id="paint0_radial" cx="0" cy="0" r="1" gradientUnits="userSpaceOnUse" gradientTransform="translate(8.8623 8.51843) rotate(-90) scale(8)">
<stop stop-color="white"/>
<stop offset="1" stop-color="#CBCBCB"/>
</radialGradient>
</defs>
</svg>
