<svg width="12" height="12" viewBox="0 0 12 12" fill="none" xmlns="http://www.w3.org/2000/svg">
<path d="M0.2 6C0.2 2.79675 2.79675 0.2 6 0.199999C9.20325 0.199999 11.8 2.79675 11.8 6C11.8 9.20325 9.20325 11.8 6 11.8C2.79675 11.8 0.200001 9.20325 0.2 6Z" fill="white" stroke="#202020" stroke-width="0.4"/>
<path d="M6.00003 10.0256L6.94626 10.4003C6.64124 10.4656 6.32477 10.5 6.00027 10.5C5.67825 10.4996 5.36415 10.4655 5.06131 10.4009L6.00003 10.0256ZM6.00012 7.37754L4.5761 6.23811L5.00093 4.53849L6.99786 4.53849L7.42308 6.23922L6.00012 7.37754ZM10.1715 7.69084L10.0289 7.08445L10.4654 6.56063C10.4163 6.95552 10.3161 7.33454 10.1715 7.69084ZM1.82898 7.68758C1.68512 7.33307 1.58509 6.95609 1.53559 6.56337L1.97064 7.08541L1.82898 7.68758ZM3.61185 2.69785L2.81212 2.82395C3.16737 2.46739 3.58205 2.17007 4.04004 1.94812L3.61185 2.69785ZM8.36724 2.69412L7.86114 1.90171C8.3583 2.12785 8.80708 2.44179 9.18766 2.82373L8.36724 2.69412Z" fill="#202020" stroke="#202020"/>
</svg>
