<svg width="16" height="16" viewBox="0 0 16 16" fill="none" xmlns="http://www.w3.org/2000/svg">
<path d="M8 16C12.4182 16 16 12.4182 16 8C16 3.58177 12.4182 -1.59422e-06 8 -1.20797e-06C3.58177 -8.21713e-07 -1.31962e-07 3.58177 2.54292e-07 8C0.00494926 12.4161 3.58385 15.9951 8 16ZM7.71445 13.6936L4.93333 14.8053C4.61771 14.6625 4.31237 14.4979 4.01953 14.3128L4.01224 14.3082C3.72448 14.1259 3.44948 13.9242 3.18906 13.7046L3.16667 13.685C3.04987 13.5855 2.93633 13.4826 2.82591 13.3763C2.81198 13.3626 2.7974 13.3496 2.78347 13.3357C2.66771 13.2227 2.5556 13.1061 2.44714 12.9862C2.43815 12.976 2.42956 12.9654 2.42057 12.9552C2.32539 12.8486 2.23385 12.7382 2.14505 12.6259C2.1237 12.5992 2.10235 12.5725 2.08164 12.5458C1.98529 12.4211 1.89206 12.2941 1.80404 12.1632L2.35846 9.80638L5.0862 8.89701L7.7138 10.9995L7.71445 13.6936ZM13.9186 12.5443C13.8979 12.571 13.8768 12.5977 13.8555 12.6242C13.7677 12.7355 13.677 12.8441 13.5832 12.9501C13.573 12.9613 13.5637 12.9728 13.5536 12.984C13.4458 13.1042 13.3342 13.2206 13.2186 13.3333C13.2053 13.3464 13.1921 13.36 13.1781 13.372C13.0686 13.4776 12.956 13.5799 12.8402 13.6789L12.8135 13.7013C12.5555 13.9194 12.2831 14.1198 11.9982 14.3013L11.9878 14.3079C11.6966 14.4927 11.3932 14.657 11.0794 14.8L8.28555 13.6936L8.28555 11.0003L10.9133 8.89818L13.641 9.80586L14.1954 12.1626C14.1066 12.2934 14.0145 12.4201 13.9186 12.5443ZM14.24 3.90794C14.3184 4.02747 14.3934 4.14922 14.4648 4.27331L14.4822 4.30325C14.5533 4.42669 14.6206 4.55221 14.684 4.67969L14.6862 4.68372C14.8198 4.95195 14.9371 5.22799 15.0374 5.51042L15.0374 5.51302C15.0848 5.64635 15.128 5.78294 15.168 5.92031L15.1824 5.97096C15.219 6.1 15.2522 6.23047 15.2819 6.36237C15.2845 6.37526 15.2878 6.3875 15.2904 6.40026C15.3559 6.69818 15.4029 6.99974 15.4312 7.30351L13.8033 9.25703L11.0944 8.35417L10.3082 5.20963L11.6 3.49088L14.24 3.90794ZM6.22422 0.748567C6.35755 0.715493 6.4944 0.686978 6.63125 0.661327C6.65039 0.657551 6.66992 0.654425 6.68906 0.65091C6.8056 0.630076 6.92344 0.612239 7.04154 0.597655C7.07305 0.593619 7.1043 0.589322 7.13568 0.585546C7.24531 0.572785 7.35599 0.563149 7.46693 0.555207C7.50182 0.552863 7.53633 0.549347 7.57122 0.547133C7.71302 0.538409 7.85599 0.533332 8 0.533332C8.1319 0.533332 8.26302 0.536848 8.39336 0.543749C8.40911 0.543749 8.42422 0.546352 8.43997 0.547524C8.55599 0.554165 8.67148 0.56289 8.78672 0.574088L8.8 0.57656C9.05247 0.603903 9.30351 0.644009 9.55195 0.696483L11.1293 3.16615L9.85781 4.86159L6.14219 4.86159L4.84987 3.15495L6.22422 0.748567ZM0.707682 6.4C0.710416 6.38724 0.713541 6.37487 0.716275 6.36211C0.746093 6.23034 0.779297 6.09987 0.815755 5.9707L0.830078 5.92005C0.870183 5.78268 0.913282 5.64661 0.960808 5.51276L0.960808 5.51016C1.06107 5.22773 1.17825 4.95169 1.31198 4.68346L1.31419 4.67943C1.37799 4.55182 1.44518 4.4263 1.51601 4.303L1.53333 4.27305C1.60443 4.14857 1.6793 4.02708 1.75781 3.9082L4.3888 3.49336L5.68958 5.21068L4.90378 8.35443L2.19492 9.25729L0.566927 7.30378C0.595183 6.99987 0.642187 6.69805 0.707682 6.4Z" fill="#12C158"/>
<path d="M11.6071 6.30696H12.869C14.0238 6.30696 14.3214 6.81646 14.3214 7.44778C14.3214 8.38924 13.619 8.73259 12.6905 8.73259C12.4048 8.73259 11.8929 8.72152 11.6071 8.66614V6.30696ZM11.6071 9.89557C11.9762 9.9731 12.5238 9.99525 12.9167 9.99525C14.4762 9.99525 16 9.31962 16 7.48101C16 6.12975 15.1786 5 12.9643 5H10V12H11.6071V9.89557Z" fill="black"/>
</svg>
