<svg width="17" height="11" viewBox="0 0 17 11" fill="none" xmlns="http://www.w3.org/2000/svg">
<path d="M0.862305 0.269043V9.92094H5.78898V10.6966C5.78898 10.7361 5.82068 10.7678 5.86014 10.7678H12.3963C12.4357 10.7678 12.4675 10.7361 12.4675 10.6966V9.92094H16.8623V0.269043H0.862305ZM1.77913 1.18558H15.9455V9.00411H1.77913V1.18558Z" fill="#042D4F"/>
<path d="M11.5392 2.7934V7.26591H12.6408V5.74107H12.9071L13.8914 7.31277L15.0997 7.11903L13.9962 5.483C14.435 5.25656 14.8343 4.87228 14.8343 4.29562C14.8343 3.17292 14.1083 2.7934 13.1936 2.7934H11.5392ZM13.0376 3.65257C13.1719 3.65559 13.7233 3.69007 13.7233 4.277C13.7233 4.94778 13.0075 4.90143 13.0075 4.90143H12.6408V3.65265L13.0376 3.65257Z" fill="#042D4F"/>
<path d="M8.23587 2.79754L6.59852 7.31272H7.71422L8.0013 6.39317H9.53988L9.84649 7.35532L11.0028 7.16995L9.43287 2.79754H8.23587ZM8.76273 3.95452L9.26147 5.5196H8.27406L8.76273 3.95452Z" fill="#042D4F"/>
<path d="M3.98677 2.79754L2.75936 2.99428L4.32519 7.35532H5.52219L7.15954 2.84013H5.96863L4.99459 5.96002L3.98677 2.79754Z" fill="#042D4F"/>
</svg>
