<svg width="16" height="19" viewBox="0 0 16 19" fill="none" xmlns="http://www.w3.org/2000/svg">
<path fill-rule="evenodd" clip-rule="evenodd" d="M5.39709 2.96428L5.31456 2.94217C4.78109 2.79923 4.23276 3.11581 4.08981 3.64928L1.1447 14.6406C1.00176 15.174 1.31834 15.7224 1.85181 15.8653L8.80462 17.7283C9.33809 17.8713 9.88643 17.5547 10.0294 17.0212L10.0725 16.8604L4.3901 15.3378C3.20056 15.0191 2.49463 13.7964 2.81337 12.6069L5.39709 2.96428ZM6.47402 3.25284L12.2674 4.80517C12.8008 4.94811 13.1174 5.49645 12.9745 6.02991L10.361 15.7835L4.67866 14.2609C4.08389 14.1016 3.73093 13.4902 3.8903 12.8954L6.47402 3.25284Z" fill="#FFCC00"/>
<rect x="7.06445" y="1.0498" width="9.19808" height="13.379" rx="1" transform="rotate(15 7.06445 1.0498)" fill="#E73338"/>
</svg>
