<svg width="22" height="24" viewBox="0 0 22 24" fill="none" xmlns="http://www.w3.org/2000/svg">
<g filter="url(#filter0_d)">
<path d="M9.91616 15.4881C8.20901 15.3122 6.67128 14.8887 5.3616 13.8592C5.1987 13.7289 5.02929 13.6051 4.87943 13.4617C4.30603 12.9079 4.24739 12.2758 4.7035 11.6242C5.09445 11.0639 5.74603 10.914 6.43019 11.2398C6.56051 11.305 6.68431 11.3766 6.80811 11.4613C9.25806 13.1489 12.6267 13.1946 15.0897 11.5395C15.3308 11.3506 15.5914 11.2007 15.8977 11.1225C16.4841 10.9727 17.0314 11.1877 17.3507 11.7024C17.7091 12.2889 17.7091 12.8622 17.2595 13.3184C16.5818 14.0155 15.7609 14.5238 14.8486 14.8756C13.9885 15.2079 13.0438 15.3774 12.112 15.4881C12.2553 15.6445 12.3205 15.7162 12.4052 15.8074C13.6693 17.078 14.9464 18.3486 16.2039 19.6257C16.634 20.0622 16.7252 20.5965 16.4841 21.1048C16.2235 21.6586 15.6436 22.0235 15.0767 21.9844C14.7183 21.9583 14.4381 21.7824 14.184 21.5283C13.2262 20.564 12.2553 19.6257 11.3171 18.6418C11.0434 18.3551 10.9131 18.4137 10.672 18.6613C9.70765 19.6517 8.73679 20.6226 7.75291 21.5935C7.30983 22.03 6.78856 22.1082 6.27381 21.8606C5.733 21.6 5.38115 21.0396 5.40721 20.4858C5.42676 20.1078 5.6092 19.8211 5.86983 19.5605C7.12087 18.3095 8.37191 17.0519 9.62295 15.8009C9.72069 15.7031 9.79888 15.6184 9.91616 15.4881Z" fill="white"/>
<path d="M10.9592 11.1291C7.91631 11.116 5.42725 8.5944 5.44028 5.5515C5.45983 2.47603 7.9554 -0.00650304 11.0244 1.27971e-05C14.0998 0.00652863 16.5693 2.52816 16.5563 5.63621C16.5368 8.6791 14.0282 11.1421 10.9592 11.1291ZM13.7219 5.55802C13.7154 4.04635 12.51 2.84092 11.0048 2.84092C9.48011 2.84092 8.26816 4.06589 8.28119 5.5906C8.29422 7.09576 9.50617 8.29467 11.0178 8.28815C12.523 8.28164 13.7284 7.06969 13.7219 5.55802Z" fill="white"/>
</g>
<defs>
<filter id="filter0_d" x="0" y="0" width="22" height="24" filterUnits="userSpaceOnUse" color-interpolation-filters="sRGB">
<feFlood flood-opacity="0" result="BackgroundImageFix"/>
<feColorMatrix in="SourceAlpha" type="matrix" values="0 0 0 0 0 0 0 0 0 0 0 0 0 0 0 0 0 0 127 0"/>
<feOffset dy="2"/>
<feColorMatrix type="matrix" values="0 0 0 0 0 0 0 0 0 0 0 0 0 0 0 0 0 0 1 0"/>
<feBlend mode="normal" in2="BackgroundImageFix" result="effect1_dropShadow"/>
<feBlend mode="normal" in="SourceGraphic" in2="effect1_dropShadow" result="shape"/>
</filter>
</defs>
</svg>
