<svg width="22" height="22" viewBox="0 0 22 22" fill="none" xmlns="http://www.w3.org/2000/svg">
<g filter="url(#filter0_d)">
<path fill-rule="evenodd" clip-rule="evenodd" d="M21.4952 5.29372C21.6481 4.77849 21.4952 4.3999 20.7673 4.3999H18.3605C17.7485 4.3999 17.4664 4.72695 17.3134 5.08759C17.3134 5.08759 16.0895 8.10162 14.3556 10.0594C13.7946 10.6262 13.5396 10.8065 13.2336 10.8065C13.0807 10.8065 12.8512 10.6262 12.8512 10.111V5.29372C12.8512 4.67545 12.6816 4.3999 12.1716 4.3999H8.38945C8.00703 4.3999 7.77703 4.68686 7.77703 4.95881C7.77703 5.54492 8.64393 5.68008 8.73328 7.32881V10.9096C8.73328 11.6946 8.59295 11.837 8.28696 11.837C7.47104 11.837 5.48631 8.80947 4.30919 5.34522C4.0785 4.67189 3.84712 4.3999 3.23201 4.3999H0.8252C0.13754 4.3999 0 4.72695 0 5.08759C0 5.73163 0.815963 8.92598 3.79925 13.1507C5.7881 16.0359 8.59025 17.5999 11.1401 17.5999C12.67 17.5999 12.8592 17.2525 12.8592 16.6542V14.4736C12.8592 13.7788 13.0042 13.6402 13.4886 13.6402C13.8456 13.6402 14.4576 13.8205 15.8855 15.2116C17.5174 16.8603 17.7864 17.5999 18.7043 17.5999H21.1112C21.7988 17.5999 22.1426 17.2525 21.9443 16.567C21.7272 15.8838 20.9481 14.8925 19.9143 13.7175C19.3533 13.0477 18.5118 12.3264 18.2568 11.9657C17.8999 11.5021 18.0019 11.2959 18.2568 10.8838C18.2568 10.8838 21.1892 6.71054 21.4952 5.29372Z" fill="white"/>
</g>
<defs>
<filter id="filter0_d" x="0" y="0" width="22" height="24" filterUnits="userSpaceOnUse" color-interpolation-filters="sRGB">
<feFlood flood-opacity="0" result="BackgroundImageFix"/>
<feColorMatrix in="SourceAlpha" type="matrix" values="0 0 0 0 0 0 0 0 0 0 0 0 0 0 0 0 0 0 127 0"/>
<feOffset dy="2"/>
<feColorMatrix type="matrix" values="0 0 0 0 0 0 0 0 0 0 0 0 0 0 0 0 0 0 1 0"/>
<feBlend mode="normal" in2="BackgroundImageFix" result="effect1_dropShadow"/>
<feBlend mode="normal" in="SourceGraphic" in2="effect1_dropShadow" result="shape"/>
</filter>
</defs>
</svg>
