<svg width="138" height="32" viewBox="0 0 138 32" fill="none" xmlns="http://www.w3.org/2000/svg">
<path d="M19.3698 18.1153C19.1393 19.0544 18.9089 19.7639 18.521 20.6947C18.5111 20.7183 18.4887 20.7336 18.4634 20.7364C17.4881 20.8115 16.7278 20.8115 15.7511 20.7364C15.7258 20.7336 15.7047 20.7183 15.6934 20.6947C15.3056 19.7639 15.0765 19.0544 14.846 18.1153C14.839 18.0916 14.8488 18.0638 14.8685 18.0485C15.6077 17.4252 16.2106 16.9856 17.0721 16.4625C17.0932 16.4485 17.1213 16.4485 17.1437 16.4625C18.0038 16.9856 18.6067 17.4252 19.3473 18.0485C19.367 18.0638 19.3755 18.0916 19.3698 18.1153Z" fill="black"/>
<path d="M34.067 20.088C33.9278 19.5149 33.7002 18.573 33.384 17.357H33.0045C32.3609 14.8945 31.7102 12.688 30.9935 10.5315H31.8451C31.4994 9.51729 31.1186 8.2596 29.9957 6.7821C30.4594 5.76092 30.8684 4.83016 30.9373 3.70601H30.4834C30.6478 1.30195 28.877 0.00111031 27.2721 0.00111031C26.5681 0.00111031 26.0931 0.329441 25.6391 0.602139C25.3145 0.806643 23.125 2.32589 22.6584 2.65285C21.6058 2.2772 20.4815 2.05599 19.294 2.03095C18.5618 2.01564 17.8352 2.0087 17.1087 2.0087C16.3821 2.0087 15.6541 2.01564 14.9234 2.03095C13.7372 2.05599 12.6158 2.2758 11.5632 2.65145C10.5781 1.96138 9.61961 1.30055 8.65554 0.646661C8.59932 0.609107 8.54029 0.572924 8.48127 0.540912C7.72799 0.070677 7.1743 -0.137997 6.22148 0.0971208C4.5688 0.504756 2.77979 2.28554 4.29193 5.88889C4.41842 6.18941 4.55054 6.48715 4.68404 6.7821C4.03054 7.64049 3.38408 8.77575 2.8121 10.5315H3.73402C3.36441 11.6459 3.01166 12.7742 2.66735 13.9443H1.77637C0.830565 17.2471 0.245949 19.6957 0 20.7058C5.39374 25.2552 9.28371 28.2227 15.442 31.9958C15.4911 31.968 17.0454 31.0456 17.1087 31.0094C17.1087 31.0094 18.5618 31.8789 18.7684 32C22.5572 29.678 25.663 27.5563 28.915 25.0354H27.5082C27.8764 24.7571 28.246 24.4733 28.6171 24.1825H30.0027C30.5663 23.7359 31.1354 23.2754 31.7158 22.7982C32.5464 22.1165 33.1015 21.6491 34.2187 20.7058C34.1695 20.4999 34.1176 20.294 34.067 20.088ZM20.407 10.775L22.5192 10.0961C22.5417 10.0891 22.567 10.0933 22.5853 10.11C22.6036 10.1267 22.6106 10.1503 22.6064 10.174L22.1707 12.2052C22.1651 12.2289 22.1482 12.2469 22.1258 12.2553C22.1033 12.2622 22.078 12.2581 22.0597 12.2428C21.3809 11.6737 20.8609 11.2522 20.3874 10.8919C20.3677 10.878 20.3578 10.8529 20.3621 10.8279C20.3649 10.8042 20.3831 10.7833 20.407 10.775ZM11.632 10.11C11.6503 10.0933 11.6756 10.0891 11.6981 10.0961L13.8103 10.775C13.8342 10.7833 13.8511 10.8042 13.8567 10.8279C13.8595 10.8529 13.8497 10.878 13.83 10.8919C13.3564 11.2522 12.8364 11.6737 12.1576 12.2428C12.1394 12.2581 12.1141 12.2622 12.0916 12.2553C12.0691 12.2469 12.0523 12.2289 12.0466 12.2052L11.611 10.174C11.6054 10.1503 11.6138 10.1267 11.632 10.11ZM15.4518 30.8967C13.7499 29.8463 12.0536 28.7486 10.3883 27.5953H11.7529C11.3355 27.3129 10.9223 27.029 10.5134 26.7424H9.17271C6.22007 24.6347 3.76071 22.6452 1.05825 20.3663C1.47423 18.6578 1.91971 16.9271 2.49449 14.8834H3.29134C3.80709 13.0817 4.35236 11.351 4.9623 9.59382H4.1781C4.50274 8.77715 4.92717 8.02171 5.4401 7.34694L5.77741 6.90452L5.5483 6.39811C5.40358 6.07672 5.2785 5.79291 5.16746 5.52858C4.59551 4.16514 4.5154 3.00483 4.937 2.17702C5.11687 1.82228 5.37686 1.53984 5.72961 1.31586C4.78662 2.91441 5.57643 4.48096 6.80047 6.83356C6.82577 6.88088 6.85107 6.92957 6.87637 6.97966L6.86935 6.9894C5.2785 9.32252 3.26884 17.1372 2.59707 19.871C7.44272 23.9432 11.3552 26.7884 16.7742 30.1051C16.4749 30.2971 16.7897 30.1037 15.4518 30.8967ZM13.5419 19.8251C13.5377 18.7246 13.5335 17.1943 13.5293 15.5874C13.5279 15.1755 13.6375 14.7707 13.8455 14.4145C15.1018 12.2595 15.8284 11.0143 15.9774 10.7597C16.2107 10.359 16.6421 10.1141 17.1073 10.1141C17.5738 10.1141 18.0039 10.359 18.2372 10.7597L20.2131 14.1474L20.3705 14.4201C20.5785 14.7749 20.6867 15.1783 20.6867 15.5901C20.6839 17.211 20.6811 18.7274 20.6783 19.8126C20.6755 23.3436 13.5546 23.3603 13.5419 19.8251ZM29.6682 23.2448H28.4273C27.2159 24.1964 26.0214 25.0952 24.7945 25.9745H26.1057C23.8164 27.6537 21.4638 29.23 18.76 30.8995C18.4705 30.727 17.7256 30.286 17.4418 30.1051C22.761 26.8524 26.6931 24.0114 31.6203 19.871C30.9808 17.2708 28.9852 9.57852 27.5462 7.29129C28.6606 5.0959 29.5741 3.12726 28.4892 1.30749C28.4934 1.31029 28.4962 1.31169 28.5004 1.31306C29.8046 2.16451 29.7933 3.71855 29.4701 4.64511H29.82C29.6303 5.32961 29.3239 5.97239 28.9023 6.90452C29.3942 7.55145 29.9746 8.261 30.5058 9.59382H29.6837C30.5677 12.2525 31.1101 13.858 32.2709 18.2961H32.6476C32.819 18.9737 32.9821 19.6304 33.1591 20.3663C32.3454 21.0536 31.1734 22.0428 29.6682 23.2448Z" fill="black"/>
<path d="M33.1593 20.3663C32.3456 21.0536 31.1735 22.0428 29.6684 23.2448H28.4275C27.2161 24.1964 26.0215 25.0952 24.7946 25.9745H26.1058C23.8165 27.6537 21.464 29.23 18.7601 30.8995C18.4706 30.727 17.7258 30.286 17.4419 30.1051C22.7611 26.8524 26.6933 24.0114 31.6204 19.871C30.981 17.2708 28.9854 9.57852 27.5463 7.29129C28.6608 5.0959 29.5742 3.12726 28.4893 1.3075C28.4935 1.31029 28.4963 1.31169 28.5005 1.31306C29.8047 2.16452 29.7934 3.71855 29.4702 4.64511H29.8201C29.6304 5.32962 29.3241 5.9724 28.9025 6.90453C29.3943 7.55145 29.9747 8.261 30.506 9.59382H29.6838C30.5678 12.2525 31.1103 13.858 32.2711 18.2961H32.6477C32.8191 18.9737 32.9822 19.6304 33.1593 20.3663Z" fill="white"/>
<path d="M22.6066 10.174L22.1709 12.2053C22.1653 12.2289 22.1485 12.247 22.126 12.2554C22.1035 12.2623 22.0782 12.2581 22.0599 12.2428C21.3811 11.6738 20.8612 11.2523 20.3876 10.8919C20.3679 10.878 20.3581 10.853 20.3623 10.8279C20.3651 10.8043 20.3834 10.7834 20.4072 10.7751L22.5195 10.0961C22.542 10.0892 22.5673 10.0933 22.5855 10.11C22.6038 10.1267 22.6108 10.1504 22.6066 10.174Z" fill="white"/>
<path d="M20.3705 14.4201L20.2131 14.1474L18.2372 10.7597C18.004 10.359 17.5739 10.1141 17.1073 10.1141C16.6422 10.1141 16.2107 10.359 15.9774 10.7597C15.8285 11.0143 15.1019 12.2595 13.8455 14.4145C13.6375 14.7707 13.5279 15.1755 13.5293 15.5873C13.5335 17.1942 13.5378 18.7246 13.542 19.8251C13.5546 23.3603 20.6755 23.3436 20.6783 19.8126C20.6811 18.7274 20.6839 17.2109 20.6867 15.5901C20.6867 15.1783 20.5785 14.7748 20.3705 14.4201ZM18.5211 20.6946C18.5113 20.7183 18.4888 20.7336 18.4635 20.7364C17.4882 20.8115 16.7279 20.8115 15.7512 20.7364C15.7259 20.7336 15.7048 20.7183 15.6936 20.6946C15.3057 19.7639 15.0766 19.0544 14.8461 18.1153C14.8391 18.0916 14.8489 18.0638 14.8686 18.0485C15.6078 17.4252 16.2107 16.9855 17.0722 16.4624C17.0933 16.4485 17.1214 16.4485 17.1439 16.4624C18.004 16.9855 18.6068 17.4252 19.3474 18.0485C19.3671 18.0638 19.3756 18.0916 19.37 18.1153C19.1395 19.0544 18.909 19.7639 18.5211 20.6946Z" fill="white"/>
<path d="M13.8568 10.8279C13.8596 10.853 13.8498 10.878 13.8301 10.8919C13.3565 11.2523 12.8366 11.6738 12.1578 12.2428C12.1395 12.2581 12.1142 12.2623 12.0917 12.2554C12.0692 12.247 12.0524 12.2289 12.0467 12.2053L11.6111 10.174C11.6055 10.1504 11.6139 10.1267 11.6322 10.11C11.6504 10.0933 11.6757 10.0892 11.6982 10.0961L13.8105 10.7751C13.8343 10.7834 13.8512 10.8043 13.8568 10.8279Z" fill="white"/>
<path d="M16.7741 30.105C16.4747 30.297 16.7895 30.1036 15.4516 30.8967C13.7498 29.8463 12.0535 28.7486 10.3882 27.5952H11.7528C11.3354 27.3128 10.9222 27.029 10.5133 26.7424H9.17256C6.21992 24.6346 3.76056 22.6451 1.05811 20.3663C1.47408 18.6578 1.91957 16.9271 2.49435 14.8833H3.29119C3.80695 13.0816 4.35221 11.3509 4.96215 9.59376H4.17795C4.50259 8.77709 4.92702 8.02165 5.43995 7.34688L5.77726 6.90446L5.54816 6.39805C5.40343 6.07665 5.27835 5.79285 5.16732 5.52851C4.59536 4.16508 4.51526 3.00477 4.93686 2.17696C5.11672 1.82221 5.37672 1.53978 5.72946 1.3158C4.78648 2.91435 5.57628 4.4809 6.80032 6.8335C6.82562 6.88082 6.85092 6.92951 6.87622 6.9796L6.86921 6.98934C5.27835 9.32246 3.26869 17.1372 2.59693 19.871C7.44257 23.9432 11.355 26.7883 16.7741 30.105Z" fill="white"/>
<path d="M48.2142 7.5105H43V4.32598H57.2252V7.5105H52.011V16.2867H48.2142V7.5105Z" fill="#010202"/>
<path d="M58.5669 16.2616V4.32598H62.3637V16.2366L58.5669 16.2616Z" fill="#010202"/>
<path d="M74.7029 10.8956V4.32598H78.196V16.2366H74.956L68.4572 9.64187V16.2616H64.9642V4.32598H68.356L74.7029 10.8956Z" fill="#010202"/>
<path d="M84.5175 16.2616H80.8473V4.32598H84.5175V8.81439H85.53L89.9596 4.32598H94.5663L88.694 10.0431L94.7941 16.2616H89.909L85.53 11.7482H84.5175V16.2616Z" fill="#010202"/>
<path d="M110.311 10.3189C110.311 13.8795 107.349 16.6378 102.439 16.6378C97.528 16.6378 94.5412 13.8795 94.5412 10.3189C94.5412 6.75824 97.5027 4 102.439 4C107.374 4 110.311 6.75824 110.311 10.3189ZM106.463 10.3189C106.463 8.36303 104.868 6.93376 102.439 6.93376C100.009 6.93376 98.414 8.38811 98.414 10.3189C98.414 12.2496 99.9833 13.7291 102.439 13.7291C104.894 13.7291 106.463 12.2747 106.463 10.3189Z" fill="#010202"/>
<path d="M115.772 7.36005V9.51649H123.871V12.024H115.772V16.2616H112.101V4.32598H124.175V7.36005H115.772Z" fill="#010202"/>
<path d="M129.554 7.36005V9.51649H137.653V12.024H129.554V16.2616H125.896V4.32598H137.97V7.36005H129.554Z" fill="#010202"/>
<path d="M93.1574 26.3997H94.9602L95.4086 25.1668H93.1574V24.0336H95.4361L95.8845 22.7917H91.7573V28.8474H95.5734L96.0218 27.5873H93.1574V26.3997Z" fill="#010202"/>
<path d="M90.6132 24.8314V24.641C90.6132 23.3809 89.7713 22.7917 88.5999 22.7917H86.3762V28.8474H87.7672V26.7805H88.3437L89.3961 28.8474H90.906L89.6523 26.4813C90.0458 26.2819 90.6132 25.8558 90.6132 24.8314ZM89.2222 24.8495C89.2222 25.5023 88.7006 25.5929 88.3071 25.5929H87.7672V24.0336H88.3986C88.9019 24.0336 89.2222 24.1877 89.2222 24.6864V24.8495Z" fill="#010202"/>
<path d="M102.757 24.0336H103.819V27.6055H103.077V28.8474H105.951V27.6055H105.21V24.0336H105.951V22.7917H103.196L102.757 24.0336Z" fill="#010202"/>
<path d="M108.394 26.3997H110.197L110.645 25.1668H108.394V24.0336H110.672L111.121 22.7917H106.994V28.8474H110.81L111.258 27.5873H108.394V26.3997Z" fill="#010202"/>
<path d="M116.584 24.8314V24.641C116.584 23.3809 115.742 22.7917 114.571 22.7917H111.862L111.432 24.0336H112.347V28.8474H113.738V26.7805H114.315L115.367 28.8474H116.877L115.623 26.4813C116.017 26.2819 116.584 25.8558 116.584 24.8314ZM115.193 24.8495C115.193 25.5023 114.672 25.5929 114.278 25.5929H113.738V24.0336H114.37C114.873 24.0336 115.193 24.1877 115.193 24.6864V24.8495Z" fill="#010202"/>
<path d="M83.6309 22.7917H81.0228L80.5835 24.0336H81.4346V28.8474H82.8347V27.1431H83.4387C84.61 27.1431 85.6258 26.5901 85.6258 25.2031V24.7226C85.6258 23.5532 85.0493 22.7917 83.6309 22.7917ZM84.2257 25.1759C84.2257 25.747 83.823 25.9465 83.3838 25.9465H82.8347V24.0336H83.5393C83.9969 24.0336 84.2257 24.2512 84.2257 24.7589V25.1759Z" fill="#010202"/>
<path d="M99.4077 25.5929L97.8063 22.7917H96.7447V28.8474H98.0808V25.5476L98.9593 27.0434H99.8195L100.698 25.5476V28.8474H102.034V22.7917H100.973L99.4077 25.5929Z" fill="#010202"/>
<path d="M122.36 27.5604H121.079V22.7829H119.688V28.8387H123.705V26.0012L122.36 26.4726V27.5604Z" fill="#010202"/>
<path d="M124.163 24.0249H125.225V27.5967H124.483V28.8387H127.348V27.5967H126.606V24.0249H127.348V22.7829H124.602L124.163 24.0249Z" fill="#010202"/>
<path d="M130.349 23.9705C130.761 23.9705 131.118 24.1971 131.2 24.6685L132.5 24.3603C132.271 23.1637 131.438 22.6379 130.349 22.6379C129.086 22.6379 128.052 23.3631 128.052 25.0584V26.527C128.052 28.2222 129.068 28.9475 130.349 28.9475C131.484 28.9475 132.491 28.331 132.491 26.7264V25.4119H130.45L130.093 26.5542H131.274V26.6176C131.274 27.361 130.816 27.6148 130.349 27.6148C129.809 27.6148 129.434 27.3429 129.434 26.3275V25.2578C129.434 24.2425 129.828 23.9705 130.349 23.9705Z" fill="#010202"/>
<path d="M135.785 22.7829H134.156L133.717 24.0249H134.449L132.811 28.8387H134.184L134.486 27.778H136.261L136.618 28.8387H138L135.785 22.7829ZM134.815 26.6448L135.319 24.9405L135.886 26.6448H134.815Z" fill="#010202"/>
<path d="M48.1521 24.8297V24.6393C48.1521 23.3792 47.3102 22.79 46.1389 22.79H43.4301L43 24.0319H43.9151V28.8457H45.3061V26.7788H45.8826L46.935 28.8457H48.445L47.1912 26.4796C47.5847 26.2802 48.1521 25.8541 48.1521 24.8297ZM46.7611 24.8478C46.7611 25.5005 46.2395 25.5912 45.846 25.5912H45.3061V24.0319H45.9375C46.4408 24.0319 46.7611 24.186 46.7611 24.6847V24.8478Z" fill="#010202"/>
<path d="M52.1669 26.3799C52.1669 27.3952 51.8649 27.6672 51.3433 27.6672C50.8033 27.6672 50.5197 27.3952 50.5197 26.3799V22.79H49.1287V26.5793C49.1287 28.2746 50.0621 28.9998 51.3433 28.9998C52.6061 28.9998 53.5487 28.2746 53.5487 26.5793V22.79H52.1669V26.3799Z" fill="#010202"/>
<path d="M56.3767 27.749C55.8093 27.749 55.5805 27.3319 55.5073 26.9965L54.2536 27.2685C54.5007 28.8459 55.8368 29 56.3675 29C57.484 29 58.4357 28.6011 58.4357 27.1416C58.4357 24.8117 55.7635 25.6095 55.7635 24.4672C55.7635 24.023 56.1296 23.9414 56.4407 23.9414C57.0081 23.9414 57.1728 24.4219 57.2369 24.6939L58.4906 24.4219C58.2435 22.8445 56.9807 22.6904 56.4499 22.6904C55.3334 22.6904 54.3817 23.0893 54.3817 24.5488C54.3817 26.8787 57.0539 25.9359 57.0539 27.1688C57.0539 27.6583 56.7153 27.749 56.3767 27.749Z" fill="#010202"/>
<path d="M61.0626 27.749C60.4952 27.749 60.2664 27.3319 60.1932 26.9965L58.9395 27.2685C59.1866 28.8459 60.5227 29 61.0534 29C62.1699 29 63.1216 28.6011 63.1216 27.1416C63.1216 24.8117 60.4495 25.6095 60.4495 24.4672C60.4495 24.023 60.8155 23.9414 61.1266 23.9414C61.694 23.9414 61.8587 24.4219 61.9228 24.6939L63.1765 24.4219C62.9294 22.8445 61.6666 22.6904 61.1358 22.6904C60.0194 22.6904 59.0676 23.0893 59.0676 24.5488C59.0676 26.8787 61.7398 25.9359 61.7398 27.1688C61.7398 27.6583 61.4012 27.749 61.0626 27.749Z" fill="#010202"/>
<path d="M64.5686 27.6038H63.8273V28.8457H66.6917V27.6038H65.9504V24.0319H66.6917V22.79H63.9463L63.5071 24.0319H64.5686V27.6038Z" fill="#010202"/>
<path d="M71.1761 28.8457H72.558L70.3434 22.79H68.7145L68.2752 24.0319H69.0073L67.3692 28.8457H68.7419L69.0439 27.7851H70.8192L71.1761 28.8457ZM69.3733 26.6519L69.8767 24.9476L70.444 26.6519H69.3733Z" fill="#010202"/>
<path d="M73.2342 28.8457H74.5977V25.6003L76.4646 28.8457H77.6176V22.79H76.2541V26.0445L74.3964 22.79H72.8224L72.3832 24.0319H73.2342V28.8457Z" fill="#010202"/>
</svg>
