<svg width="14" height="14" viewBox="0 0 14 14" fill="none" xmlns="http://www.w3.org/2000/svg">
<g clip-path="url(#clip0)">
<path d="M7 14C10.866 14 14 10.866 14 7C14 3.13401 10.866 0 7 0C3.13401 0 0 3.13401 0 7C0 10.866 3.13401 14 7 14Z" fill="#F0F0F0"/>
<path d="M13.5646 9.43472C13.846 8.6764 14 7.8562 14 6.99995C14 6.14371 13.846 5.32351 13.5646 4.56519H0.435395C0.154027 5.32351 0 6.14371 0 6.99995C0 7.8562 0.154027 8.6764 0.435395 9.43472L7 10.0434L13.5646 9.43472Z" fill="#0039A6"/>
<path d="M7.00015 14C10.0099 14 12.5757 12.1004 13.5648 9.43481H0.435547C1.4246 12.1004 3.9904 14 7.00015 14Z" fill="#D42B1E"/>
</g>
<defs>
<clipPath id="clip0">
<rect width="14" height="14" fill="white"/>
</clipPath>
</defs>
</svg>
