<svg width="35" height="32" viewBox="0 0 35 32" fill="none" xmlns="http://www.w3.org/2000/svg">
<path d="M19.3698 18.1153C19.1393 19.0544 18.9089 19.7639 18.521 20.6947C18.5111 20.7183 18.4887 20.7336 18.4634 20.7364C17.4881 20.8115 16.7278 20.8115 15.7511 20.7364C15.7258 20.7336 15.7047 20.7183 15.6934 20.6947C15.3056 19.7639 15.0765 19.0544 14.846 18.1153C14.839 18.0916 14.8488 18.0638 14.8685 18.0485C15.6077 17.4252 16.2106 16.9856 17.0721 16.4625C17.0932 16.4485 17.1213 16.4485 17.1437 16.4625C18.0038 16.9856 18.6067 17.4252 19.3473 18.0485C19.367 18.0638 19.3755 18.0916 19.3698 18.1153Z" fill="black"/>
<path d="M34.067 20.088C33.9278 19.5149 33.7002 18.573 33.384 17.357H33.0045C32.3609 14.8945 31.7102 12.688 30.9935 10.5315H31.8451C31.4994 9.51729 31.1186 8.2596 29.9957 6.7821C30.4594 5.76092 30.8684 4.83016 30.9373 3.70601H30.4834C30.6478 1.30195 28.877 0.00111031 27.2721 0.00111031C26.5681 0.00111031 26.0931 0.329441 25.6391 0.602139C25.3145 0.806643 23.125 2.32589 22.6584 2.65285C21.6058 2.2772 20.4815 2.05599 19.294 2.03095C18.5618 2.01564 17.8352 2.0087 17.1087 2.0087C16.3821 2.0087 15.6541 2.01564 14.9234 2.03095C13.7372 2.05599 12.6158 2.2758 11.5632 2.65145C10.5781 1.96138 9.61961 1.30055 8.65554 0.646661C8.59932 0.609107 8.54029 0.572924 8.48127 0.540912C7.72799 0.070677 7.1743 -0.137997 6.22148 0.0971208C4.5688 0.504756 2.77979 2.28554 4.29193 5.88889C4.41842 6.18941 4.55054 6.48715 4.68404 6.7821C4.03054 7.64049 3.38408 8.77575 2.8121 10.5315H3.73402C3.36441 11.6459 3.01166 12.7742 2.66735 13.9443H1.77637C0.830565 17.2471 0.245949 19.6957 0 20.7058C5.39374 25.2552 9.28371 28.2227 15.442 31.9958C15.4911 31.968 17.0454 31.0456 17.1087 31.0094C17.1087 31.0094 18.5618 31.8789 18.7684 32C22.5572 29.678 25.663 27.5563 28.915 25.0354H27.5082C27.8764 24.7571 28.246 24.4733 28.6171 24.1825H30.0027C30.5663 23.7359 31.1354 23.2754 31.7158 22.7982C32.5464 22.1165 33.1015 21.6491 34.2187 20.7058C34.1695 20.4999 34.1176 20.294 34.067 20.088ZM20.407 10.775L22.5192 10.0961C22.5417 10.0891 22.567 10.0933 22.5853 10.11C22.6036 10.1267 22.6106 10.1503 22.6064 10.174L22.1707 12.2052C22.1651 12.2289 22.1482 12.2469 22.1258 12.2553C22.1033 12.2622 22.078 12.2581 22.0597 12.2428C21.3809 11.6737 20.8609 11.2522 20.3874 10.8919C20.3677 10.878 20.3578 10.8529 20.3621 10.8279C20.3649 10.8042 20.3831 10.7833 20.407 10.775ZM11.632 10.11C11.6503 10.0933 11.6756 10.0891 11.6981 10.0961L13.8103 10.775C13.8342 10.7833 13.8511 10.8042 13.8567 10.8279C13.8595 10.8529 13.8497 10.878 13.83 10.8919C13.3564 11.2522 12.8364 11.6737 12.1576 12.2428C12.1394 12.2581 12.1141 12.2622 12.0916 12.2553C12.0691 12.2469 12.0523 12.2289 12.0466 12.2052L11.611 10.174C11.6054 10.1503 11.6138 10.1267 11.632 10.11ZM15.4518 30.8967C13.7499 29.8463 12.0536 28.7486 10.3883 27.5953H11.7529C11.3355 27.3129 10.9223 27.029 10.5134 26.7424H9.17271C6.22007 24.6347 3.76071 22.6452 1.05825 20.3663C1.47423 18.6578 1.91971 16.9271 2.49449 14.8834H3.29134C3.80709 13.0817 4.35236 11.351 4.9623 9.59382H4.1781C4.50274 8.77715 4.92717 8.02171 5.4401 7.34694L5.77741 6.90452L5.5483 6.39811C5.40358 6.07672 5.2785 5.79291 5.16746 5.52858C4.59551 4.16514 4.5154 3.00483 4.937 2.17702C5.11687 1.82228 5.37686 1.53984 5.72961 1.31586C4.78662 2.91441 5.57643 4.48096 6.80047 6.83356C6.82577 6.88088 6.85107 6.92957 6.87637 6.97966L6.86935 6.9894C5.2785 9.32252 3.26884 17.1372 2.59707 19.871C7.44272 23.9432 11.3552 26.7884 16.7742 30.1051C16.4749 30.2971 16.7897 30.1037 15.4518 30.8967ZM13.5419 19.8251C13.5377 18.7246 13.5335 17.1943 13.5293 15.5874C13.5279 15.1755 13.6375 14.7707 13.8455 14.4145C15.1018 12.2595 15.8284 11.0143 15.9774 10.7597C16.2107 10.359 16.6421 10.1141 17.1073 10.1141C17.5738 10.1141 18.0039 10.359 18.2372 10.7597L20.2131 14.1474L20.3705 14.4201C20.5785 14.7749 20.6867 15.1783 20.6867 15.5901C20.6839 17.211 20.6811 18.7274 20.6783 19.8126C20.6755 23.3436 13.5546 23.3603 13.5419 19.8251ZM29.6682 23.2448H28.4273C27.2159 24.1964 26.0214 25.0952 24.7945 25.9745H26.1057C23.8164 27.6537 21.4638 29.23 18.76 30.8995C18.4705 30.727 17.7256 30.286 17.4418 30.1051C22.761 26.8524 26.6931 24.0114 31.6203 19.871C30.9808 17.2708 28.9852 9.57852 27.5462 7.29129C28.6606 5.0959 29.5741 3.12726 28.4892 1.30749C28.4934 1.31029 28.4962 1.31169 28.5004 1.31306C29.8046 2.16451 29.7933 3.71855 29.4701 4.64511H29.82C29.6303 5.32961 29.3239 5.97239 28.9023 6.90452C29.3942 7.55145 29.9746 8.261 30.5058 9.59382H29.6837C30.5677 12.2525 31.1101 13.858 32.2709 18.2961H32.6476C32.819 18.9737 32.9821 19.6304 33.1591 20.3663C32.3454 21.0536 31.1734 22.0428 29.6682 23.2448Z" fill="black"/>
<path d="M33.1593 20.3663C32.3456 21.0536 31.1735 22.0428 29.6684 23.2448H28.4275C27.2161 24.1964 26.0215 25.0952 24.7946 25.9745H26.1058C23.8165 27.6537 21.464 29.23 18.7601 30.8995C18.4706 30.727 17.7258 30.286 17.4419 30.1051C22.7611 26.8524 26.6933 24.0114 31.6204 19.871C30.981 17.2708 28.9854 9.57852 27.5463 7.29129C28.6608 5.0959 29.5742 3.12726 28.4893 1.3075C28.4935 1.31029 28.4963 1.31169 28.5005 1.31306C29.8047 2.16452 29.7934 3.71855 29.4702 4.64511H29.8201C29.6304 5.32962 29.3241 5.9724 28.9025 6.90453C29.3943 7.55145 29.9747 8.261 30.506 9.59382H29.6838C30.5678 12.2525 31.1103 13.858 32.2711 18.2961H32.6477C32.8191 18.9737 32.9822 19.6304 33.1593 20.3663Z" fill="white"/>
<path d="M22.6066 10.174L22.1709 12.2053C22.1653 12.2289 22.1485 12.247 22.126 12.2554C22.1035 12.2623 22.0782 12.2581 22.0599 12.2428C21.3811 11.6738 20.8612 11.2523 20.3876 10.8919C20.3679 10.878 20.3581 10.853 20.3623 10.8279C20.3651 10.8043 20.3834 10.7834 20.4072 10.7751L22.5195 10.0961C22.542 10.0892 22.5673 10.0933 22.5855 10.11C22.6038 10.1267 22.6108 10.1504 22.6066 10.174Z" fill="white"/>
<path d="M20.3705 14.4201L20.2131 14.1474L18.2372 10.7597C18.004 10.359 17.5739 10.1141 17.1073 10.1141C16.6422 10.1141 16.2107 10.359 15.9774 10.7597C15.8285 11.0143 15.1019 12.2595 13.8455 14.4145C13.6375 14.7707 13.5279 15.1755 13.5293 15.5873C13.5335 17.1942 13.5378 18.7246 13.542 19.8251C13.5546 23.3603 20.6755 23.3436 20.6783 19.8126C20.6811 18.7274 20.6839 17.2109 20.6867 15.5901C20.6867 15.1783 20.5785 14.7748 20.3705 14.4201ZM18.5211 20.6946C18.5113 20.7183 18.4888 20.7336 18.4635 20.7364C17.4882 20.8115 16.7279 20.8115 15.7512 20.7364C15.7259 20.7336 15.7048 20.7183 15.6936 20.6946C15.3057 19.7639 15.0766 19.0544 14.8461 18.1153C14.8391 18.0916 14.8489 18.0638 14.8686 18.0485C15.6078 17.4252 16.2107 16.9855 17.0722 16.4624C17.0933 16.4485 17.1214 16.4485 17.1439 16.4624C18.004 16.9855 18.6068 17.4252 19.3474 18.0485C19.3671 18.0638 19.3756 18.0916 19.37 18.1153C19.1395 19.0544 18.909 19.7639 18.5211 20.6946Z" fill="white"/>
<path d="M13.8568 10.8279C13.8596 10.853 13.8498 10.878 13.8301 10.8919C13.3565 11.2523 12.8366 11.6738 12.1578 12.2428C12.1395 12.2581 12.1142 12.2623 12.0917 12.2554C12.0692 12.247 12.0524 12.2289 12.0467 12.2053L11.6111 10.174C11.6055 10.1504 11.6139 10.1267 11.6322 10.11C11.6504 10.0933 11.6757 10.0892 11.6982 10.0961L13.8105 10.7751C13.8343 10.7834 13.8512 10.8043 13.8568 10.8279Z" fill="white"/>
<path d="M16.7741 30.105C16.4747 30.297 16.7895 30.1036 15.4516 30.8967C13.7498 29.8463 12.0535 28.7486 10.3882 27.5952H11.7528C11.3354 27.3128 10.9222 27.029 10.5133 26.7424H9.17256C6.21992 24.6346 3.76056 22.6451 1.05811 20.3663C1.47408 18.6578 1.91957 16.9271 2.49435 14.8833H3.29119C3.80695 13.0816 4.35221 11.3509 4.96215 9.59376H4.17795C4.50259 8.77709 4.92702 8.02165 5.43995 7.34688L5.77726 6.90446L5.54816 6.39805C5.40343 6.07665 5.27835 5.79285 5.16732 5.52851C4.59536 4.16508 4.51526 3.00477 4.93686 2.17696C5.11672 1.82221 5.37672 1.53978 5.72946 1.3158C4.78648 2.91435 5.57628 4.4809 6.80032 6.8335C6.82562 6.88082 6.85092 6.92951 6.87622 6.9796L6.86921 6.98934C5.27835 9.32246 3.26869 17.1372 2.59693 19.871C7.44257 23.9432 11.355 26.7883 16.7741 30.105Z" fill="white"/>
</svg>
